<svg xmlns="http://www.w3.org/2000/svg" viewBox="0 0 300 300"><g id="svg1978"><circle cx="151.23031" cy="43.29658" r="3.61953" fill="#fff"/><circle cx="150.55242" cy="63.09874" r="4.67709" fill="#fff"/><circle cx="150.01113" cy="85.92165" r="6.60435" fill="#fff"/><circle cx="149.7459" cy="114.79118" r="10.18267" fill="#fff"/><circle cx="151.23031" cy="256.70342" r="3.61953" fill="#fff"/><circle cx="150.55242" cy="236.90126" r="4.67709" fill="#fff"/><circle cx="150.01113" cy="214.07835" r="6.60435" fill="#fff"/><circle cx="149.7459" cy="185.20882" r="10.18267" fill="#fff"/><circle cx="75.82289" cy="73.61374" r="3.61953" fill="#fff"/><circle cx="89.34579" cy="88.09532" r="4.67709" fill="#fff"/><circle cx="105.10128" cy="104.61629" r="6.60435" fill="#fff"/><circle cx="125.32758" cy="125.21768" r="10.18267" fill="#fff"/><circle cx="43.61953" cy="148.22871" r="3.61953" fill="#fff"/><circle cx="63.42169" cy="148.9066" r="4.67709" fill="#fff"/><circle cx="86.2446" cy="149.44789" r="6.60435" fill="#fff"/><circle cx="115.11414" cy="149.71312" r="10.18267" fill="#fff"/><circle cx="73.89956" cy="223.68959" r="3.61953" fill="#fff"/><circle cx="88.38113" cy="210.16667" r="4.67709" fill="#fff"/><circle cx="104.90209" cy="194.41117" r="6.60435" fill="#fff"/><circle cx="125.50346" cy="174.18485" r="10.18267" fill="#fff"/><circle cx="224.17711" cy="73.61374" r="3.61953" fill="#fff"/><circle cx="210.65421" cy="88.09532" r="4.67709" fill="#fff"/><circle cx="194.89872" cy="104.61629" r="6.60435" fill="#fff"/><circle cx="174.67242" cy="125.21768" r="10.18267" fill="#fff"/><circle cx="256.38047" cy="148.22871" r="3.61953" fill="#fff"/><circle cx="236.57831" cy="148.9066" r="4.67709" fill="#fff"/><circle cx="213.7554" cy="149.44789" r="6.60435" fill="#fff"/><circle cx="184.88586" cy="149.71312" r="10.18267" fill="#fff"/><circle cx="226.10044" cy="223.68959" r="3.61953" fill="#fff"/><circle cx="211.61887" cy="210.16667" r="4.67709" fill="#fff"/><circle cx="195.09791" cy="194.41117" r="6.60435" fill="#fff"/><circle cx="174.49654" cy="174.18485" r="10.18267" fill="#fff"/></g></svg>