<?xml version="1.0" encoding="utf-8"?>
<!-- Generator: Adobe Illustrator 24.0.1, SVG Export Plug-In . SVG Version: 6.00 Build 0)  -->
<svg version="1.1" id="Layer_1" xmlns="http://www.w3.org/2000/svg" xmlns:xlink="http://www.w3.org/1999/xlink" x="0px" y="0px"
	 viewBox="0 0 300 300" style="enable-background:new 0 0 300 300;" xml:space="preserve">
<style type="text/css">
	.st0{fill-rule:evenodd;clip-rule:evenodd;fill:#FFCD05;}
	.st1{fill-rule:evenodd;clip-rule:evenodd;fill:#010101;}
	.st2{fill-rule:evenodd;clip-rule:evenodd;fill:#FFFFFF;}
</style>
<title>AAP_Light_bg</title>
<g>
	<polygon id="Fill-33" class="st0" points="71.4,216.5 115.6,80 96.6,80 52.4,216.5 	"/>
	<path id="Fill-35" class="st1" d="M107.2,139.7l-5.5,17l-2.7,5.2l-8.8,27.4l-0.6,5.2L83,215.2c0,0,9.4,3,25.6,4.6l7,2.1
		c7.4,0.6,14.8,0.5,22.1-0.1c4.4-0.4,9.5-1.9,14.8-3.4l8.4-3.6c3.6-0.9,7.3-1.3,11-1.3c11.8,0.3,16.9,0.5,16.9,0.5l5.8-18.1l3.6-7.8
		l8.8-27.3l1.6-8.4l4.5-14.1l2.6-5l8.8-27.3v-3.4l7.2-22.4c0,0-5.2-0.2-16.9-0.7c-4.6,0-9.1,0.6-13.5,1.9l-5,0.4
		c-5.3,1.6-10.3,3.3-14.8,3.7c-7.4,0.7-14.8,0.7-22.2,0.1l-7.3,0.6c-16.4-1.7-26-4.9-26-4.9l-7.1,22.1l-2.3,3.7l-8.8,27.3
		L107.2,139.7z"/>
	<path id="Fill-37" class="st2" d="M141.9,139.8c7.4,0.6,14.8,0.5,22.1-0.1c4.5-0.4,9.5-2,14.9-3.6l8.8-27.4
		c-5.3,1.6-10.4,3.3-14.9,3.7c-7.4,0.6-14.8,0.7-22.1,0.1L141.9,139.8z"/>
	<path id="Fill-39" class="st2" d="M124.2,194.6c7.4,0.6,14.8,0.5,22.2-0.1c4.4-0.4,9.5-2,14.9-3.7l8.8-27.3
		c-5.3,1.6-10.4,3.2-14.8,3.6c-7.4,0.6-14.8,0.7-22.1,0.1L124.2,194.6z"/>
	<path id="Fill-41" class="st2" d="M196.3,81.7l-8.7,27c6.4-1.9,13.2-3.5,19.6-3.3l17.3,0.5l8.8-27.2c0,0-5.1-0.1-17.3-0.7
		C209.6,77.7,202.8,79.6,196.3,81.7"/>
	<path id="Fill-43" class="st2" d="M90.2,189.2c0,0,9.9,3.1,26.9,4.7c2.5,0.2,4.9,0.5,7.2,0.6l-8.8,27.3c-2.3-0.2-4.7-0.4-7.2-0.6
		c-17-1.6-26.9-4.8-26.9-4.8L90.2,189.2z"/>
	<path id="Fill-45" class="st2" d="M150.7,112.4l8.7-26.9c-2.3-0.2-4.6-0.4-7.1-0.6c-17-1.8-26.9-5-26.9-5l-8.8,27.2
		c0,0,9.9,3.1,26.8,4.7C146,112,148.4,112.2,150.7,112.4"/>
	<path id="Fill-47" class="st2" d="M99,161.8l8.8-27.3c0,0,9.9,3.1,26.8,4.7c2.5,0.2,4.9,0.5,7.2,0.6l-8.8,27.3
		c-2.3-0.2-4.7-0.4-7.2-0.6C108.9,164.9,99,161.8,99,161.8"/>
	<path id="Fill-49" class="st2" d="M198.1,188c0,0-5.2-0.1-17.2-0.5c-6.5-0.2-13.2,1.4-19.6,3.3l-8.9,27.6
		c6.4-1.9,13.2-3.7,19.7-3.6c12.2,0.2,17.2,0.5,17.2,0.5L198.1,188"/>
	<path id="Fill-51" class="st2" d="M170.1,163.4l8.8-27.3c6.4-1.9,13.1-3.5,19.6-3.3c12,0.3,17.2,0.5,17.2,0.5l-8.8,27.3
		c0,0-5-0.2-17.2-0.5C183.2,159.9,176.4,161.5,170.1,163.4"/>
	<path id="Fill-53" class="st2" d="M241.1,82.6v-1.9h1.3c0.6,0,1.3,0.1,1.3,0.9c0,0.9-0.7,1-1.5,1H241.1z M241.1,83.4h1.1l1.6,2.6h1
		l-1.8-2.6c0.9,0,1.6-0.7,1.6-1.6v-0.1c0-1.2-0.7-1.8-2.2-1.8h-2.3V86h0.9L241.1,83.4z M242.2,88.3c2.9,0,5.3-2.5,5.2-5.4
		c0-2.9-2.5-5.3-5.4-5.2c-2.9,0-5.2,2.4-5.2,5.3C236.8,85.9,239.2,88.3,242.2,88.3L242.2,88.3z M237.9,83c0.1-2.4,2-4.2,4.4-4.2
		c2.4,0.1,4.2,2,4.2,4.4c-0.1,2.3-2,4.2-4.3,4.2C239.8,87.4,237.9,85.5,237.9,83C237.9,83.1,237.9,83.1,237.9,83z"/>
</g>
</svg>
