<svg id="Layer_1" data-name="Layer 1" xmlns="http://www.w3.org/2000/svg" viewBox="0 0 300 300"><defs><style>.cls-1{fill:#fff;}</style></defs><path class="cls-1" d="M253.94,226.55c-14.24,0-19.93-5.74-21.83-17.22l-3.8-16.27c-3.8,6.7-22.78,33.49-64.55,33.49H121.05c-64.55,0-82.58-44-82.58-76.55,0-36.36,21.83-76.55,82.58-76.55h45.56c46.51,0,72.14,26.79,77.84,60.28,4.74,27.75,17.08,92.82,17.08,92.82ZM160,97.37H123.9C80.23,97.37,66,125.12,66,150s14.24,52.63,57.91,52.63H160c45.56,0,57.9-28.71,57.9-52.63C217.87,129,206.48,97.37,160,97.37Z"/></svg>