<svg xmlns="http://www.w3.org/2000/svg" viewBox="0 0 300 300"><g id="Ebene_1" data-name="Ebene 1"><path d="M129.42907,214.94h28.84165a1121.15121,1121.15121,0,0,0-46.24755-129.8799H82.79473C64.81705,126.90146,49.12652,170.23961,35,214.94H64.04345c2.5226-8.71135,5.04519-17.40589,7.736-26.15088h28.63984l6.97917-25.36046H80.104c5.432-15.84188,11.23395-31.53242,17.23772-47.20613,12.1589,32.54145,22.78742,65.25107,32.08739,98.71747" fill="#fff"/><path d="M240.81043,146.77756c12.55694-5.40842,18.81913-15.67,18.81913-28.00622,0-18.59665-16.89272-33.71129-45.52842-33.71129H166.091V214.94h48.78794C249.51636,214.94,265,197.34359,265,177.19134,265,165.55871,258.3688,152.22306,240.81043,146.77756ZM215.98957,190.8978H194.875V109.39885h18.78115c11.44632,0,17.41186,5.59383,17.41186,13.929,0,9.52081-6.74334,14.11435-17.59636,14.11435H210.952l-6.40871,24.18957h11.44632c11.44632,0,18.783,5.0756,18.783,14.52225C234.77253,185.6377,227.43589,190.8978,215.98957,190.8978Z" fill="#fff"/></g></svg>