<svg id="Layer_1" data-name="Layer 1" xmlns="http://www.w3.org/2000/svg" viewBox="0 0 300 300"><path id="Path_7755" data-name="Path 7755" d="M263.28378,219.6048,227.86649,97.30653c-2.35556-8.13388-13.44991-13.60728-20.465-10.40585l-34.66978,15.8645-.01722-.03934-44.08471,20.106c-10.84845,4.94721-14.15806,20.37156-4.80951,27.91286l18.225,14.70147,7.36181,5.93812,89.31773,72.04429c17.40127,14.03758,31.24461-.73766,24.56145-23.82134M198.6185,197.24891l-40.69889-31.52245c-.43768-.33933-.85322-.69339-1.26631-1.04748q-1.13354-.96633-2.149-1.999c-14.50722-14.79-10.78452-39.03425,5.316-46.66653l15.658-7.4208-.02705-.05656,13.745-6.44711c13.76958-6.52824,34.4239,4.4874,38.94082,22.05589L239.20183,167.155c7.60766,29.56768-15.69483,49.37863-40.58825,30.09632" fill="#2aaed1"/><path id="Path_7756" data-name="Path 7756" d="M196.99073,140.152,161.06448,61.37781c-4.94475-10.84844-20.37156-14.158-27.91286-4.807l-92.679,114.89958c-14.03758,17.40375.73765,31.24461,23.82379,24.56145l85.11063-24.64995-7.36179-5.9455-25.29665,6.51841C87.181,179.5649,67.37245,156.25991,86.6523,131.36653l31.52246-40.69889c14.249-18.39711,41.53-15.3629,49.713,1.90069l13.92447,29.37588c6.52824,13.76956-4.48739,34.4239-22.05589,38.94326l6.93642,5.40946,19.8921-5.6947c8.13142-2.35558,13.60481-13.44991,10.40586-20.465" fill="#ee6e32"/></svg>