<svg id="Layer_1" data-name="Layer 1" xmlns="http://www.w3.org/2000/svg" xmlns:xlink="http://www.w3.org/1999/xlink" viewBox="0 0 300 300"><defs><style>.cls-1{fill:url(#linear-gradient);}.cls-2{fill:#fff;}</style><linearGradient id="linear-gradient" x1="68.31" y1="108.45" x2="235.9" y2="108.45" gradientUnits="userSpaceOnUse"><stop offset="0" stop-color="#a0cc3a"/><stop offset="1" stop-color="#1bb04b"/></linearGradient></defs><title>ADM_Logo_Dark</title><path class="cls-1" d="M113.86,153.08H73.14A4.89,4.89,0,0,1,69.65,152a3.94,3.94,0,0,1-1-4.71q4.68-12.3,9.4-24.61c2.47-6.47,4.71-13,7.62-19.33a63.39,63.39,0,0,1,17.48-22.64c10.43-8.57,22.51-13.37,35.72-15.58a106.62,106.62,0,0,1,17.75-1.35h73.93c2.75,0,4.57,1.3,5.19,3.65a5,5,0,0,1-.45,3.3Q228,88.37,220.76,106a73.83,73.83,0,0,1-20,28.09,75.7,75.7,0,0,1-38.38,18,86.79,86.79,0,0,1-13.65,1q-17.43,0-34.85,0ZM98,115c3-1.78,5.84-3.73,8.94-5.33a77,77,0,0,1,34.66-8.76c11.85-.15,23.71,0,35.56,0,.25,0,.54-.1.77.15a2.18,2.18,0,0,1-.31,1.22c-2.39,6.11-7.28,9.53-13,12a27.88,27.88,0,0,1-10.88,2c-5.27,0-10.55-.19-15.83.26a63.87,63.87,0,0,0-29.69,10.59A56,56,0,0,0,97,136.94c-.19.21-.54.36-.41.81h51.61a62,62,0,0,0,13-1.24c19.71-4.24,34.41-15.17,43.43-33.24,3.85-7.71,7-15.77,10.45-23.67a1.32,1.32,0,0,0,0-.38h-1l-57.61,0a82.39,82.39,0,0,0-15.29,1.24c-9.43,1.74-18.3,4.87-26,10.77a47,47,0,0,0-12.13,12.92,51.18,51.18,0,0,0-5.29,10.79c-.09,0-.2.09,0,.2Z"/><path class="cls-2" d="M180.63,167.13h17.74l14,31,14.8-31c4.27,0,8.5-.17,12.7,0,3.4.18,5.65,2.65,6.18,6.17q4.2,27.85,8.38,55.73c.34,2.32.67,4.63,1,7H237.52q-2.49-19.56-5-39.39a2.39,2.39,0,0,0-.8,1.07q-7.4,13.44-14.79,26.88a4.86,4.86,0,0,1-5.88,2.64,5.3,5.3,0,0,1-3.13-2.82q-7.09-13.14-14.23-26.25a5.08,5.08,0,0,0-1-1.42l-5.86,39.31H168.94C172.84,213.13,176.72,190.19,180.63,167.13Z"/><path class="cls-2" d="M108.32,167.14c.28,0,.47-.06.66-.06,9.07.08,18.15-.31,27.21.2,8.88.5,16.92,3.27,23.39,9.67a31.12,31.12,0,0,1,8.94,18.9,41.24,41.24,0,0,1-1.24,17.64c-3,9.55-9.63,15.76-18.63,19.66a39.35,39.35,0,0,1-15.53,3q-7.38,0-14.78,0a9.69,9.69,0,0,1-10.06-10.06q0-29.08,0-58.17C108.28,167.73,108.3,167.5,108.32,167.14Zm18,53.81a75.24,75.24,0,0,0,7.85-.19c7.58-.67,13.34-5.28,15.27-12.49a25.39,25.39,0,0,0-.9-16.1,14.11,14.11,0,0,0-8.31-8.4c-4.49-1.73-9.19-1.46-13.91-1.45Z"/><path class="cls-2" d="M81.08,167.06c8.69,23.08,17.33,46,26,69.07H87.92q-2.1-5.7-4.23-11.51H58.6l-4.66,11.54H35c1.11-2.92,2.19-5.75,3.28-8.59q10.65-27.73,21.31-55.48c1.34-3.48,3.59-5,7.34-5ZM63.61,210.84H78.89l-7.75-22.29C68.57,196.17,66.11,203.46,63.61,210.84Z"/><path class="cls-2" d="M265,172.44a5.34,5.34,0,0,1-5.33,5.28,5.31,5.31,0,0,1,.06-10.62A5.34,5.34,0,0,1,265,172.44Zm-9.64-.11a4.32,4.32,0,0,0,4.31,4.42,4.35,4.35,0,1,0-4.31-4.42Z"/><path class="cls-2" d="M260.89,172.93l1.19,2.29c-.37.37-.72.2-1,.21-.87-.59-.63-2.22-2.18-2.26l-.12,2.12a1.16,1.16,0,0,1-1,.09v-6c1.31.23,2.82-.57,3.76.89C262.13,171.23,261.68,172.17,260.89,172.93Zm-.45-1.21a.94.94,0,0,0-.13-1.08,1.56,1.56,0,0,0-1.5,0c0,.51-.18,1,.16,1.51A1.67,1.67,0,0,0,260.44,171.72Z"/></svg>