<svg id="Layer_1" data-name="Layer 1" xmlns="http://www.w3.org/2000/svg" viewBox="0 0 300 300"><path d="M182.14283,149.99843a32.61879,32.61879,0,0,1-32.49991,32.4999h-12.5V168.21262h12.5a18.21431,18.21431,0,0,0,0-36.42861h-12.5V117.4983h12.5A32.61885,32.61885,0,0,1,182.14283,149.99843Z" fill="#fff"/><polygon points="127.143 117.498 127.143 158.213 82.143 158.213 90.357 143.927 112.857 143.927 112.857 117.498 127.143 117.498" fill="#fff"/><polygon points="112.857 117.498 127.143 117.498 127.143 158.213 82.143 158.213 90.357 143.927 112.857 143.927 112.857 117.498" fill="#fff"/><path d="M182.14283,149.99843a32.61879,32.61879,0,0,1-32.49991,32.4999h-12.5V168.21262h12.5a18.21431,18.21431,0,0,0,0-36.42861h-12.5V117.4983h12.5A32.61885,32.61885,0,0,1,182.14283,149.99843Z" fill="#fff"/><path d="M244.67856,123.534a20.59174,20.59174,0,0,1,6.03573,14.32146,20.34808,20.34808,0,0,1-20.35719,20.35719H216.07139V143.927H230.3571a6.25875,6.25875,0,0,0,6.07147-6.07147V137.784a6.05117,6.05117,0,0,0-6.07147-6H216.07139V117.4983H230.3571A20.59175,20.59175,0,0,1,244.67856,123.534Z" fill="#fff"/><path d="M230.71416,93.21263H192.14278v18.92853a58.34109,58.34109,0,0,0-42.49986-18.92853H91.07142L25,206.784H69.9999l14.28572-24.28567H112.857V206.784h36.42861a55.88008,55.88008,0,0,0,42.50008-18.92853V206.784H230.3571V182.49833a44.64357,44.64357,0,0,0,.35706-89.2857ZM261.0713,137.927a30.31618,30.31618,0,0,1-30.35714,30.28564H216.42845v24.28567h-10V168.21262H188.2143a42.63251,42.63251,0,0,1-38.57138,24.28567H127.14275V168.21262H76.07138L61.78566,192.49829H50l49.64293-84.99994h50a42.86094,42.86094,0,0,1,42.14281,36.4286h14.28571v-36.4286H230.3571a30.61452,30.61452,0,0,1,30.7142,30.35713Z" fill="#fff"/><polygon points="112.857 117.498 127.143 117.498 127.143 158.213 82.143 158.213 90.357 143.927 112.857 143.927 112.857 117.498" fill="#fff"/><path d="M182.14283,149.99843a32.61879,32.61879,0,0,1-32.49991,32.4999h-12.5V168.21262h12.5a18.21431,18.21431,0,0,0,0-36.42861h-12.5V117.4983h12.5A32.61885,32.61885,0,0,1,182.14283,149.99843Z" fill="#fff"/><path d="M250.71429,137.85548a20.34808,20.34808,0,0,1-20.35719,20.35719H216.07139V143.927H230.3571a6.25875,6.25875,0,0,0,6.07147-6.07147V137.784a6.05117,6.05117,0,0,0-6.07147-6H216.07139V117.4983H230.3571a20.61259,20.61259,0,0,1,20.35719,20.35718Z" fill="#fff"/><path d="M250.71429,137.85548a20.34808,20.34808,0,0,1-20.35719,20.35719H216.07139V143.927H230.3571a6.25875,6.25875,0,0,0,6.07147-6.07147V137.784a6.05117,6.05117,0,0,0-6.07147-6H216.07139V117.4983H230.3571a20.61259,20.61259,0,0,1,20.35719,20.35718Z" fill="#fff"/><path d="M245.7142,200.35547c.35727,0,.71433-.357,1.07138-.71433a2.25687,2.25687,0,0,0,.35728-1.42844,1.97362,1.97362,0,0,0-.35728-2.143,2.57177,2.57177,0,0,0-1.78571-.71432h-2.8571v8.57151h1.07139v-3.21437h1.42865l1.78572,3.21437h1.42866Zm-2.14277-1.07138V196.427h1.42844a1.42855,1.42855,0,1,1,0,2.8571Z" fill="#fff"/><path d="M245.7142,200.35547c.35727,0,.71433-.357,1.07138-.71433a2.25687,2.25687,0,0,0,.35728-1.42844,1.97362,1.97362,0,0,0-.35728-2.143,2.57177,2.57177,0,0,0-1.78571-.71432h-2.8571v8.57151h1.07139v-3.21437h1.42865l1.78572,3.21437h1.42866Zm-2.14277-1.07138V196.427h1.42844a1.42855,1.42855,0,1,1,0,2.8571Z" fill="#fff"/><path d="M244.64281,192.49829a7.14286,7.14286,0,1,0,7.14286,7.14285A7.164,7.164,0,0,0,244.64281,192.49829Zm0,12.85727a5.71431,5.71431,0,0,1,0-11.42862h.0715a5.66329,5.66329,0,0,1,5.6427,5.57142v.14278A5.7311,5.7311,0,0,1,244.64281,205.35556Z" fill="#fff"/><path d="M245.7142,200.35547c.35727,0,.71433-.357,1.07138-.71433a3.57394,3.57394,0,0,0,.64017-1.24781,3.38193,3.38193,0,0,0-.64017-2.32362,2.57177,2.57177,0,0,0-1.78571-.71432h-2.8571v8.57151h1.07139v-3.21437h1.42865l1.78572,3.21437h1.42866Zm-2.14277-1.07138V196.427h1.42844a1.42855,1.42855,0,1,1,0,2.8571Z" fill="#fff"/></svg>