<svg id="Layer_1" data-name="Layer 1" xmlns="http://www.w3.org/2000/svg" viewBox="0 0 300 300"><defs><style>.cls-1{fill:#fff;}</style></defs><path class="cls-1" d="M207.46,165.88a132.14,132.14,0,0,0-22.75,38.26,112.51,112.51,0,0,0-7.62,42.65c-11.58,4.17-38.18,4.93-47.71,1.41a4.56,4.56,0,0,1,.83-2.91c13.4-26.45,30.75-49.72,54.63-67.69A74.7,74.7,0,0,1,207.46,165.88Z"/><path class="cls-1" d="M112.75,243.7a83,83,0,0,1-28.23-16.46C99,210.76,116.24,198,135.06,187.19c19.53-11.16,40.11-19.36,62.88-21.1C161.58,183.14,134.14,210,112.75,243.7Z"/><path class="cls-1" d="M179.89,165.88a290.16,290.16,0,0,0-55.75,19.9,266.64,266.64,0,0,0-50.5,31.32,94.28,94.28,0,0,1-15.41-21.92C96.25,174.58,137.16,166.56,179.89,165.88Z"/><path class="cls-1" d="M99.92,61.73a104.46,104.46,0,0,1,36.74-12.06c3.57,28.15,7.12,56.1,10.68,84.23C145.17,133.45,104.09,70.4,99.92,61.73Z"/><path class="cls-1" d="M62.74,96.41A111.59,111.59,0,0,1,83.5,72.75l52.29,68.18-.94,1Z"/><path class="cls-1" d="M162.79,49.57C173,51,182.63,53.18,191.9,57.45c-10,25.36-19.87,50.51-29.76,75.66l-1.27-.26C161.51,105.21,162.15,77.58,162.79,49.57Z"/><path class="cls-1" d="M129.15,151.51,48.91,132.36a98.58,98.58,0,0,1,6.89-22.64c1.52.81,2.9,1.53,4.26,2.27Q94,130.48,127.88,149C128.76,149.49,130.34,149.72,129.15,151.51Z"/><path class="cls-1" d="M233.69,90.88c-19.71,16.46-39.14,32.71-58.5,48.89a1.46,1.46,0,0,1-1.19-1.09l44.84-64.12C224.42,79.5,229.55,84.58,233.69,90.88Z"/><path class="cls-1" d="M47.9,142.86c26.67,5.85,53.39,10.87,79.87,17.08.14,0,.14.62.26,1.18H48C47.47,155.19,46.93,149.22,47.9,142.86Z"/><path class="cls-1" d="M139.3,166.17c-28.79,4.05-57.3,9.14-84.58,20.51-2.46-5.45-3.75-11.22-5.46-17.3C79.3,166,109.28,166,139.3,166.17Z"/><path class="cls-1" d="M250.15,126.51a104.54,104.54,0,0,1,2.49,16c-23.27,3.63-46.55,7.27-69.85,10.74l-.27-1.24Z"/></svg>