<svg id="Layer_1" data-name="Layer 1" xmlns="http://www.w3.org/2000/svg" viewBox="0 0 300 300"><defs><style>.cls-1{fill:#fff;}</style></defs><path class="cls-1" d="M61.63,129.31Q63,120.13,64.38,111c.33-2.21.67-4.43,1-6.7H171.88c-.61,4.06-1.21,8.06-1.8,12l-.06.35c-.41,2.92-.82,5.84-1.23,8.8h-5.43c.79-5.45,1.56-10.84,2.36-16.36H70.07Q63.86,150,57.62,191h95.76c.83-5.46,1.66-10.9,2.5-16.41h5.42c-1.06,7-2.12,14-3.2,21.14H51.47l1.12-6.91c0-.13,0-.26,0-.4q1.22-8.14,2.43-16.31c1-6.75,2-13.51,3.07-20.26a3.36,3.36,0,0,1,.14-.45c0-.2,0-.41.07-.62q1.63-10.67,3.26-21.34A.08.08,0,0,0,61.63,129.31Z"/><path class="cls-1" d="M135.24,130.37h18.88c3.08,13.37,6.15,26.75,9.27,40.34H145.55c-.81-1.37-.18-3.09-1.22-4.63H132l-2.28,4.65h-18Zm8.2,25.69c-.36-4.14-.69-8-1-11.77l-.44,0-5,11.79Z"/><path class="cls-1" d="M218.12,170.7H201.67c2.46-13.48,4.88-26.77,7.3-40,.35-.14.57-.32.8-.32,7.69,0,15.38,0,23.07.09a21.39,21.39,0,0,1,4.35.6c7.82,1.75,11.34,7.44,9.48,15.25-1.73,7.28-8.27,12.23-16.51,12.42-3.19.08-6.37,0-9.74,0C219.64,162.77,218.9,166.64,218.12,170.7Zm5.47-29.21c-.48,2.31-1.23,4.45-1.08,6.89a11,11,0,0,0,6.14-.91,3.51,3.51,0,0,0,2-3.6c-.2-1.66-1.63-2.06-3.06-2.18C226.3,141.58,225,141.56,223.59,141.49Z"/><path class="cls-1" d="M172,130.47h31.35c-.23,3.8-1.27,7.27-1.85,11h-14a7,7,0,0,0-.76,3.69h12.83c-.68,3.7-1.29,7.05-1.95,10.6H185a5.37,5.37,0,0,0-.67,3.83c4.68.35,9.42-.35,14.38.28-.68,3.69-1.33,7.21-2,10.82h-32C167.15,157.23,169.58,143.9,172,130.47Z"/><path class="cls-1" d="M58.35,150.78c0,.21-.05.42-.07.62C58.3,151.19,58.32,151,58.35,150.78Z"/><path class="cls-1" d="M170,116.67l.06-.35Z"/><path class="cls-1" d="M61.63,129.31a.08.08,0,0,1,0,.13l0-.07Z"/></svg>