<svg id="Layer_1" data-name="Layer 1" xmlns="http://www.w3.org/2000/svg" xmlns:xlink="http://www.w3.org/1999/xlink" viewBox="0 0 300 300"><defs><style>.cls-1{fill:none;}.cls-2{clip-path:url(#clip-path);}.cls-3{fill:#02a6e3;}.cls-4{clip-path:url(#clip-path-2);}.cls-5{fill:#02a5e1;}.cls-6{fill:#03a4e1;}.cls-7{fill:#03a3e0;}.cls-8{fill:#03a2df;}.cls-9{fill:#03a1de;}.cls-10{fill:#03a0dd;}.cls-11{fill:#039fdc;}.cls-12{fill:#049edb;}.cls-13{fill:#049dda;}.cls-14{fill:#049cd9;}.cls-15{fill:#049bd8;}.cls-16{fill:#049ad7;}.cls-17{fill:#0499d6;}.cls-18{fill:#0599d5;}.cls-19{fill:#0597d4;}.cls-20{fill:#0597d3;}.cls-21{fill:#0596d2;}.cls-22{fill:#0594d1;}.cls-23{fill:#0594d0;}.cls-24{fill:#0693cf;}.cls-25{fill:#0692ce;}.cls-26{fill:#0691ce;}.cls-27{fill:#0690cc;}.cls-28{fill:#068fcc;}.cls-29{fill:#068ecb;}.cls-30{fill:#068dca;}.cls-31{fill:#068cc9;}.cls-32{fill:#078bc8;}.cls-33{fill:#078ac7;}.cls-34{fill:#0789c6;}.cls-35{fill:#0788c5;}.cls-36{fill:#0787c4;}.cls-37{fill:#0786c3;}.cls-38{fill:#0785c2;}.cls-39{fill:#0884c1;}.cls-40{fill:#0884c0;}.cls-41{fill:#0883bf;}.cls-42{fill:#0882be;}.cls-43{fill:#0881be;}.cls-44{fill:#0880bc;}.cls-45{fill:#087fbc;}.cls-46{fill:#087ebb;}.cls-47{fill:#087dba;}.cls-48{fill:#097cb9;}.cls-49{fill:#097bb8;}.cls-50{fill:#097bb7;}.cls-51{fill:#097ab6;}.cls-52{fill:#0979b5;}.cls-53{fill:#0978b4;}.cls-54{fill:#0977b3;}.cls-55{fill:#0976b2;}.cls-56{fill:#0975b1;}.cls-57{fill:#0a74b1;}.cls-58{fill:#0a74b0;}.cls-59{fill:#0a73af;}.cls-60{fill:#0a72ae;}.cls-61{fill:#0a71ad;}.cls-62{fill:#0a70ac;}.cls-63{fill:#0a6fab;}.cls-64{fill:#0a6eaa;}.cls-65{fill:#0a6ea9;}.cls-66{fill:#0a6da8;}.cls-67{fill:#0b6ca7;}.cls-68{fill:#0b6ba6;}.cls-69{fill:#0b6aa6;}.cls-70{fill:#0b69a5;}.cls-71{fill:#0b69a4;}.cls-72{fill:#0b68a3;}.cls-73{fill:#0b67a2;}.cls-74{fill:#0b66a1;}.cls-75{fill:#0b65a0;}.cls-76{fill:#0b649f;}.cls-77{fill:#0b649e;}.cls-78{fill:#0b639d;}.cls-79{fill:#0b629d;}.cls-80{fill:#0c619c;}.cls-81{fill:#0c609b;}.cls-82{fill:#0c609a;}.cls-83{fill:#0c5f99;}.cls-84{fill:#0c5e98;}.cls-85{fill:#0c5d97;}.cls-86{fill:#0c5d96;}.cls-87{fill:#0c5c95;}.cls-88{fill:#0c5b95;}.cls-89{fill:#0c5a94;}.cls-90{fill:#0c5993;}.cls-91{fill:#0c5992;}.cls-92{fill:#0c5891;}.cls-93{fill:#0c5790;}.cls-94{fill:#0c568f;}.cls-95{fill:#0c568e;}.cls-96{fill:#0d558e;}.cls-97{fill:#0d548d;}.cls-98{fill:#0d538c;}.cls-99{fill:#0d538b;}.cls-100{fill:#0d528a;}.cls-101{fill:#0d5189;}.cls-102{fill:#0d5088;}.cls-103{fill:#0d5087;}.cls-104{fill:#0d4f87;}.cls-105{fill:#0d4e86;}.cls-106{fill:#0d4e85;}.cls-107{fill:#0d4d84;}.cls-108{fill:#fff;}.cls-109{clip-path:url(#clip-path-4);}.cls-110{fill:#feffff;}.cls-111{fill:#fbfbfd;}.cls-112{fill:#f8fafc;}.cls-113{fill:#eef1f7;}.cls-114{fill:#e3e8f2;}.cls-115{fill:#e2e8f2;}.cls-116{fill:#d2dbeb;}.cls-117{fill:#f4f6fa;}.cls-118{fill:#fafbfd;}.cls-119{fill:#f9fafc;}.cls-120{fill:#edf0f7;}.cls-121{fill:#e0e7f1;}.cls-122{fill:#dfe5f1;}.cls-123{fill:#dee5f1;}.cls-124{fill:#e7ecf4;}.cls-125{fill:#d7dfee;}.cls-126{fill:#dce3ef;}.cls-127{fill:#cad4e7;}.cls-128{fill:#e6eaf4;}.cls-129{fill:#c8d3e7;}.cls-130{fill:#b5c5de;}.cls-131{fill:#c2cfe4;}.cls-132{fill:#b1c1dc;}.cls-133{fill:#a0b4d4;}.cls-134{fill:#8fa7cc;}.cls-135{fill:#ebeef6;}.cls-136{fill:#f1f4f9;}.cls-137{fill:#dbe2ef;}.cls-138{fill:#e3e9f3;}.cls-139{fill:#dae1ee;}.cls-140{fill:#d9e1ee;}.cls-141{fill:#e1e7f2;}.cls-142{fill:#d5ddec;}.cls-143{fill:#ced8e9;}.cls-144{fill:#c0cde3;}.cls-145{fill:#c9d4e7;}.cls-146{fill:#bac8e0;}.cls-147{fill:#a8bad8;}.cls-148{fill:#88a3c9;}.cls-149{fill:#a3b6d5;}.cls-150{fill:#86a1c7;}.cls-151{fill:#fdfdfe;}.cls-152{fill:#f7f8fc;}.cls-153{fill:#f1f3f9;}.cls-154{fill:#fbfcfd;}.cls-155{fill:#f0f3f9;}.cls-156{fill:#d8dfee;}.cls-157{fill:#c5d1e5;}.cls-158{fill:#cdd8e9;}.cls-159{fill:#bdcbe2;}.cls-160{fill:#a5b8d6;}.cls-161{fill:#89a3c9;}.cls-162{fill:#e6ebf4;}.cls-163{fill:#eff3f9;}.cls-164{fill:#d5deed;}.cls-165{fill:#e9edf5;}.cls-166{fill:#aebfdb;}.cls-167{fill:#90a8cc;}.cls-168{fill:#9db1d2;}.cls-169{fill:#c4d0e5;}.cls-170{fill:#cfd8e9;}.cls-171{clip-path:url(#clip-path-5);}.cls-172{fill:#fcfcfe;}.cls-173{fill:#f6f8fb;}.cls-174{fill:#d3dceb;}.cls-175{fill:#bbc9e1;}.cls-176{fill:#b3c3dd;}.cls-177{fill:#b7c6df;}.cls-178{fill:#adbeda;}.cls-179{fill:#b5c4de;}.cls-180{fill:#acbdd9;}.cls-181{fill:#d1daeb;}.cls-182{fill:#b3c4dd;}.cls-183{fill:#aabcd9;}.cls-184{fill:#a6b9d7;}.cls-185{fill:#f3f6fa;}.cls-186{fill:#e5eaf4;}.cls-187{fill:#cbd5e8;}.cls-188{fill:#a9bbd8;}.cls-189{fill:#9fb3d3;}.cls-190{fill:#c1cee3;}.cls-191{fill:#9fb4d4;}.cls-192{fill:#95abce;}.cls-193{fill:#b2c2dc;}.cls-194{fill:#88a2c8;}.cls-195{fill:#7e9bc3;}.cls-196{fill:#7795c0;}.cls-197{fill:#ccd6e8;}.cls-198{fill:#afc0db;}.cls-199{fill:#b8c7df;}.cls-200{fill:#c8d3e6;}.cls-201{fill:#a1b5d5;}.cls-202{fill:#9ab0d1;}.cls-203{fill:#abbcd9;}.cls-204{fill:#839fc6;}.cls-205{fill:#87a1c7;}.cls-206{fill:#7494be;}.cls-207{fill:#7b99c2;}.cls-208{fill:#c2cee3;}.cls-209{fill:#a9bad8;}.cls-210{fill:#89a4c9;}.cls-211{fill:url(#linear-gradient);}</style><clipPath id="clip-path"><polygon class="cls-1" points="39 185.45 261 185.45 261 114.55 39 114.55 39 185.45 39 185.45"/></clipPath><clipPath id="clip-path-2"><path class="cls-1" d="M139.86,183.42h11.26V115.34H139.86ZM167.58,143v8.42a60.06,60.06,0,0,1,7.4-3.28h0a23,23,0,0,1,6.12-1.23h0a9.66,9.66,0,0,1,6.56,1.52h0a6,6,0,0,1,2.45,5.15h0v2.19a83.13,83.13,0,0,0-10.72,1.48h0a29.87,29.87,0,0,0-7.4,2.3h0a14.65,14.65,0,0,0-5.58,5h0a12.39,12.39,0,0,0-2.06,6.9h0q0,6.18,3.33,9.51h0a11.78,11.78,0,0,0,4.26,2.79h0a14.25,14.25,0,0,0,5.24,1h0a25.25,25.25,0,0,0,3.68-.25h0a16.87,16.87,0,0,0,3.23-.83h0a18.84,18.84,0,0,0,3.38-1.67h0q1.75-1.06,4.11-2.84h0c.79,3,3.1,4.77,7,5.29h0a21.32,21.32,0,0,0,3.13.15h0a24.65,24.65,0,0,0,3.92-.54h0l1.47-7a9.31,9.31,0,0,1-2.89-.19h0a3.82,3.82,0,0,1-1.71-1h0a5,5,0,0,1-.64-1h0a4.85,4.85,0,0,1-.39-1.32h0a17,17,0,0,1-.2-2.11h0c0-.85,0-2,0-3.33h0V155.31q0-8.43-2.94-11.95h0a13.89,13.89,0,0,0-5.63-3.78h0a22.4,22.4,0,0,0-8-1.32h0q-8.15,0-17,4.71m9.11,32.47a5.32,5.32,0,0,1-1.66-4.55h0a6.94,6.94,0,0,1,3.77-6h0c2.38-1.37,5.89-2.32,11.31-3h0V174c-3.46,2.09-6.23,3.13-8.33,3.13h0a7.19,7.19,0,0,1-5.09-1.71"/></clipPath><clipPath id="clip-path-4"><path class="cls-1" d="M153.05,123.33a9.8,9.8,0,0,0-7.72,3.38h0a15.16,15.16,0,0,0-3.23,7.18h0a4.09,4.09,0,0,0-.11,1.88h0c1.74,2.65,4.15,7.15,5.23,9.31h0a25.89,25.89,0,0,1,2.8,8.52h0a24.89,24.89,0,0,1,.45,2.55h0a28.7,28.7,0,0,1,.11,2.88h0c0,9.68-2.29,16.18-5,22.84h0c-.73,1.91.19,2.72,1.79,2.72h16.14c2.17,0,2.85-1,3.06-2.31h0A159.68,159.68,0,0,0,168.72,161h0a92,92,0,0,0-1.11-17.56h0c-.33-1.71-.52-2.64-.71-3.49h0c-.19-.87-.38-1.59-.77-2.91h0a28.92,28.92,0,0,0-4.18-8.84h0a13.39,13.39,0,0,0-3.62-3.46h0a9,9,0,0,0-4-1.37h-.1l-.75,0h-.45"/></clipPath><clipPath id="clip-path-5"><path class="cls-1" d="M143,137.33c1.57,2.61,3.36,6,4.25,7.75h0a25.51,25.51,0,0,1,2.75,8.26h0a10,10,0,0,0,4.07.88h0c6.32,0,11.45-6,11.45-13.45h0c0-7.43-5.13-13.44-11.45-13.44h0c-5.31,0-9.78,4.24-11.07,10"/></clipPath><linearGradient id="linear-gradient" x1="-3573.8" y1="729.16" x2="-3572.54" y2="729.16" gradientTransform="matrix(4.6, 3.57, 3.57, -4.6, 13965.63, 16247.82)" gradientUnits="userSpaceOnUse"><stop offset="0" stop-color="#fbcc93"/><stop offset="1" stop-color="#f68b1b"/></linearGradient></defs><title>AFL_Dark_bg</title><g id="g4986"><g id="g3125"><g class="cls-2"><g id="g3127"><g id="g3133"><path id="path3135" class="cls-3" d="M255.18,180.26h.55c.63,0,1.14-.21,1.14-.72s-.33-.75-1.05-.75a2.77,2.77,0,0,0-.64.06Zm0,2.78H254v-4.92a9.58,9.58,0,0,1,1.9-.18,2.84,2.84,0,0,1,1.72.39,1.38,1.38,0,0,1,.48,1.06,1.29,1.29,0,0,1-1,1.18v.05a1.45,1.45,0,0,1,.91,1.21,3.32,3.32,0,0,0,.36,1.21h-1.24a4,4,0,0,1-.39-1.18c-.09-.54-.39-.78-1-.78h-.55Zm.76-6.52a4,4,0,0,0,.06,7.9,3.76,3.76,0,0,0,3.76-3.95,3.81,3.81,0,0,0-3.79-3.95Zm.06-1a5,5,0,1,1-5.13,4.94,5,5,0,0,1,5.1-4.94Z"/></g><g id="g3137"><path id="path3139" class="cls-3" d="M64.91,166H83.77l7,17.44h12.73L76.23,118.08h-9.7L39,183.43H50.56s11.57-28.58,11.81-29.1.47-1.11.73-1.76.59-1.51,1-2.55l1.86-4.51c.59-1.43,1.08-2.66,1.47-3.67s.77-2,1.13-2.89.7-1.86,1-2.84l1.18-3.53H71c.45,1.37.84,2.55,1.17,3.53s.64,1.91.93,2.79.64,1.83,1,2.84.88,2.27,1.47,3.77l1.86,4.71,1,2.3q.39.93.69,1.71a14.32,14.32,0,0,0,.68,1.57l.87,1.76H61Z"/></g><g id="g3141"><path id="path3143" class="cls-3" d="M130.16,147.67H118.67c0,.2,0,35.75,0,35.75H107.44V147.67H98.72v-8.23h8.72v-4.8a23,23,0,0,1,1.32-8,17,17,0,0,1,3.82-6.12,18.53,18.53,0,0,1,6.07-4.06,24.43,24.43,0,0,1,8-1.82,17.69,17.69,0,0,1,3.72,0,36.23,36.23,0,0,1,3.63.69l-1.77,8.13a15.61,15.61,0,0,0-2-.24,18.55,18.55,0,0,0-2.4,0c-3.52.32-6,1.4-7.44,3.23a8.46,8.46,0,0,0-1.47,3.38,33.93,33.93,0,0,0-.39,6.12v3.41l11.65,0Z"/></g><g id="g3145"><path id="path3147" class="cls-3" d="M190.11,165.6V174c-3.46,2.09-6.24,3.13-8.32,3.13a7.25,7.25,0,0,1-5.1-1.71,5.32,5.32,0,0,1-1.66-4.55,6.94,6.94,0,0,1,3.77-6c2.38-1.37,5.89-2.32,11.31-3ZM204.17,177a3.82,3.82,0,0,1-1.71-1,5,5,0,0,1-.64-1,5.11,5.11,0,0,1-.39-1.32,17,17,0,0,1-.2-2.11c0-.85,0-2,0-3.33V155.31q0-8.43-2.94-11.95a13.88,13.88,0,0,0-5.63-3.77,22.18,22.18,0,0,0-8-1.33q-8.13,0-17,4.71v8.42a58.57,58.57,0,0,1,7.4-3.28,23,23,0,0,1,6.12-1.23,9.6,9.6,0,0,1,6.56,1.52,6,6,0,0,1,2.45,5.15v2.19a83.13,83.13,0,0,0-10.72,1.48,29.87,29.87,0,0,0-7.4,2.3,14.57,14.57,0,0,0-5.58,5,12.47,12.47,0,0,0-2.06,6.9q0,6.18,3.33,9.51a11.78,11.78,0,0,0,4.26,2.79,14.25,14.25,0,0,0,5.24,1,25.25,25.25,0,0,0,3.68-.25,16.87,16.87,0,0,0,3.23-.83,18.84,18.84,0,0,0,3.38-1.67c1.17-.71,2.55-1.66,4.11-2.84.79,3,3.1,4.77,7,5.29a21.32,21.32,0,0,0,3.13.15,24.65,24.65,0,0,0,3.92-.54l1.47-7a9.34,9.34,0,0,1-2.89-.19m-53,6.46H139.86V115.34h11.27Z"/></g></g></g></g><g id="g3149"><g class="cls-4"><g id="g3151"><g id="g3157"><path id="path3159" class="cls-3" d="M153.25,192c13.28,0,17.59-2,18.36-5,1.58-6,3.25-20.31,3.25-27.2,0-10-1.88-41.69-21.06-41.69-7.55,0-15.74,5.48-18.19,16.4s-15.11,13-13.79,22c1.58,10.79,9.08,14.46,18.57,11.4,6.4-2.07,1,10-1.52,14.53-3,5.44-1.24,9.51,14.38,9.51"/></g><g id="g3161"><path id="path3163" class="cls-5" d="M135.69,134.53c-2.47,11-15.11,13-13.78,22,1.61,10.78,9.15,14.3,18.58,11.28,6.35-2,1,10-1.5,14.6-3,5.43-1.25,9.49,14.29,9.48,13.19,0,17.49-2,18.26-5,1.58-6,3.23-20.23,3.23-27.11,0-10-1.89-41.61-21-41.61-7.51,0-15.66,5.46-18.11,16.33"/></g><g id="g3165"><path id="path3167" class="cls-6" d="M135.78,134.55c-2.48,11-15.12,13-13.77,22,1.63,10.78,9.21,14.15,18.57,11.17,6.3-2,1.07,10-1.47,14.67-2.93,5.42-1.26,9.46,14.2,9.45,13.1,0,17.38-2,18.16-5,1.57-6.07,3.21-20.15,3.21-27,0-10-1.9-41.51-20.88-41.51-7.47,0-15.58,5.43-18,16.26"/></g><g id="g3169"><path id="path3171" class="cls-7" d="M135.87,134.57c-2.49,11.05-15.13,13.05-13.77,22,1.66,10.77,9.27,14,18.57,11.05,6.26-2,1.11,10-1.45,14.74-2.88,5.4-1.26,9.44,14.12,9.42,13,0,17.28-2,18-5,1.58-6.09,3.2-20.06,3.2-26.94,0-10-1.9-41.42-20.79-41.42-7.43,0-15.5,5.41-17.93,16.19"/></g><g id="g3173"><path id="path3175" class="cls-8" d="M136,134.59c-2.5,11.09-15.14,13.06-13.76,22,1.68,10.77,9.33,13.84,18.57,10.94,6.21-1.95,1.13,10-1.43,14.81-2.85,5.39-1.28,9.41,14,9.39,12.92,0,17.18-2,17.95-5,1.57-6.11,3.18-20,3.18-26.85,0-10-1.91-41.34-20.7-41.34-7.39,0-15.42,5.38-17.84,16.12"/></g><g id="g3177"><path id="path3179" class="cls-9" d="M136.05,134.61c-2.51,11.12-15.15,13.07-13.76,21.95,1.71,10.77,9.4,13.69,18.57,10.83,6.17-1.93,1.17,10-1.4,14.88-2.81,5.38-1.29,9.38,13.94,9.36,12.83,0,17.07-2,17.85-5.06,1.57-6.13,3.16-19.9,3.16-26.77,0-10-1.92-41.24-20.61-41.24-7.35,0-15.35,5.35-17.75,16.05"/></g><g id="g3181"><path id="path3183" class="cls-10" d="M136.13,134.63c-2.51,11.16-15.15,13.08-13.75,21.94,1.74,10.76,9.47,13.52,18.57,10.71,6.12-1.9,1.21,9.94-1.37,14.95-2.77,5.36-1.3,9.35,13.85,9.32,12.74,0,17-1.94,17.75-5.06,1.56-6.16,3.14-19.83,3.14-26.68,0-10-1.92-41.16-20.52-41.16-7.31,0-15.27,5.33-17.67,16"/></g><g id="g3185"><path id="path3187" class="cls-11" d="M136.22,134.65c-2.52,11.19-15.18,13.09-13.74,21.92,1.74,10.77,9.53,13.37,18.57,10.61,6.07-1.88,1.23,9.92-1.36,15-2.72,5.35-1.3,9.33,13.77,9.29,12.65,0,16.86-1.93,17.65-5.08a148,148,0,0,0,3.12-26.6c0-10-1.93-41.06-20.43-41.06-7.27,0-15.19,5.3-17.58,15.91"/></g><g id="g3189"><path id="path3191" class="cls-12" d="M136.31,134.67c-2.53,11.23-15.19,13.1-13.74,21.91,1.77,10.76,9.6,13.21,18.57,10.49,6-1.85,1.27,9.91-1.33,15.08-2.68,5.33-1.31,9.3,13.68,9.26,12.56,0,16.75-1.91,17.55-5.1a147.2,147.2,0,0,0,3.1-26.5c0-10-1.94-41-20.34-41-7.23,0-15.11,5.28-17.49,15.84"/></g><g id="g3193"><path id="path3195" class="cls-13" d="M136.4,134.69c-2.54,11.26-15.2,13.11-13.74,21.89,1.79,10.76,9.67,13.06,18.58,10.38,6-1.82,1.29,9.9-1.31,15.15s-1.32,9.28,13.59,9.23c12.47,0,16.65-1.89,17.45-5.12a147.33,147.33,0,0,0,3.08-26.42c0-10-1.94-40.88-20.25-40.88-7.19,0-15,5.25-17.4,15.77"/></g><g id="g3197"><path id="path3199" class="cls-14" d="M136.48,134.71c-2.54,11.3-15.2,13.12-13.73,21.88,1.82,10.75,9.74,12.9,18.58,10.26,5.93-1.79,1.33,9.89-1.29,15.22s-1.32,9.25,13.51,9.2c12.38,0,16.55-1.88,17.35-5.13A146.87,146.87,0,0,0,174,159.8c0-10-2-40.79-20.16-40.79-7.16,0-15,5.23-17.32,15.7"/></g><g id="g3201"><path id="path3203" class="cls-15" d="M136.57,134.73c-2.55,11.33-15.22,13.13-13.72,21.86,1.84,10.75,9.8,12.75,18.57,10.15,5.89-1.76,1.36,9.88-1.26,15.29s-1.33,9.22,13.42,9.16c12.29,0,16.44-1.85,17.25-5.14a147,147,0,0,0,3-26.25c0-10-2-40.7-20.07-40.7-7.12,0-14.88,5.2-17.23,15.63"/></g><g id="g3205"><path id="path3207" class="cls-16" d="M136.66,134.75c-2.56,11.37-15.23,13.14-13.72,21.85,1.86,10.74,9.87,12.59,18.58,10,5.84-1.73,1.39,9.87-1.24,15.36-2.53,5.27-1.35,9.2,13.33,9.13,12.2,0,16.34-1.84,17.15-5.16a146.2,146.2,0,0,0,3-26.16c0-10-2-40.61-20-40.61-7.08,0-14.8,5.18-17.14,15.56"/></g><g id="g3209"><path id="path3211" class="cls-17" d="M136.75,134.77c-2.57,11.4-15.24,13.15-13.72,21.83,1.89,10.74,9.94,12.44,18.58,9.92,5.8-1.71,1.42,9.86-1.22,15.43-2.49,5.25-1.35,9.17,13.25,9.1,12.11,0,16.23-1.82,17.05-5.17a145.62,145.62,0,0,0,3-26.07c0-10-2-40.53-19.89-40.53-7,0-14.72,5.15-17.05,15.49"/></g><g id="g3213"><path id="path3215" class="cls-18" d="M136.84,134.79c-2.58,11.44-15.25,13.16-13.71,21.82,1.91,10.73,10,12.27,18.58,9.8,5.74-1.68,1.45,9.85-1.2,15.5-2.46,5.23-1.36,9.14,13.16,9.07,12,0,16.13-1.81,17-5.19a145.85,145.85,0,0,0,3-26c0-10-2-40.43-19.8-40.43-7,0-14.64,5.12-17,15.42"/></g><g id="g3217"><path id="path3219" class="cls-19" d="M136.93,134.81c-2.58,11.47-15.27,13.17-13.71,21.8,1.94,10.74,10.07,12.14,18.58,9.7,5.71-1.65,1.48,9.83-1.17,15.56-2.42,5.22-1.37,9.12,13.07,9,11.93,0,16-1.79,16.84-5.2a144.25,144.25,0,0,0,3-25.9c0-10-2-40.35-19.71-40.35-7,0-14.57,5.1-16.87,15.35"/></g><g id="g3221"><path id="path3223" class="cls-20" d="M137,134.83c-2.59,11.51-15.27,13.18-13.7,21.78,2,10.74,10.14,12,18.58,9.59,5.66-1.61,1.52,9.82-1.15,15.63-2.38,5.2-1.37,9.09,13,9,11.84,0,15.92-1.76,16.75-5.21a145.4,145.4,0,0,0,2.94-25.82c0-10-2-40.25-19.62-40.25-6.92,0-14.49,5.07-16.79,15.28"/></g><g id="g3225"><path id="path3227" class="cls-21" d="M137.1,134.85c-2.6,11.54-15.28,13.19-13.69,21.77,2,10.73,10.2,11.83,18.58,9.47,5.61-1.59,1.54,9.81-1.13,15.7-2.35,5.18-1.39,9.06,12.9,9,11.75,0,15.82-1.75,16.64-5.23a143.67,143.67,0,0,0,2.93-25.72c0-10-2-40.17-19.53-40.17-6.88,0-14.41,5-16.7,15.21"/></g><g id="g3229"><path id="path3231" class="cls-22" d="M137.19,134.87c-2.61,11.58-15.29,13.2-13.69,21.75,2,10.73,10.27,11.68,18.58,9.36,5.57-1.56,1.58,9.8-1.1,15.77-2.32,5.16-1.4,9,12.81,8.94,11.66-.05,15.71-1.73,16.54-5.24a144.12,144.12,0,0,0,2.91-25.65c0-10-2-40.07-19.44-40.07-6.84,0-14.33,5-16.61,15.14"/></g><g id="g3233"><path id="path3235" class="cls-23" d="M137.28,134.89c-2.62,11.61-15.31,13.21-13.69,21.74,2,10.72,10.34,11.52,18.59,9.24,5.52-1.53,1.6,9.78-1.09,15.84-2.28,5.14-1.4,9,12.73,8.91,11.57-.06,15.61-1.71,16.44-5.26a143.2,143.2,0,0,0,2.89-25.55c0-10-2-40-19.35-40-6.8,0-14.25,5-16.52,15.07"/></g><g id="g3237"><path id="path3239" class="cls-24" d="M137.36,134.91c-2.62,11.65-15.31,13.22-13.67,21.72,2,10.72,10.4,11.37,18.58,9.13,5.47-1.5,1.63,9.77-1.06,15.91-2.25,5.12-1.41,9,12.64,8.88,11.48-.06,15.51-1.7,16.34-5.28a142.51,142.51,0,0,0,2.87-25.47c0-10-2-39.89-19.26-39.89-6.77,0-14.18,5-16.44,15"/></g><g id="g3241"><path id="path3243" class="cls-25" d="M137.45,134.93c-2.63,11.68-15.32,13.23-13.67,21.71,2.08,10.71,10.47,11.21,18.59,9,5.42-1.47,1.66,9.76-1,16-2.22,5.1-1.42,9,12.55,8.84,11.39-.06,15.4-1.67,16.24-5.28A142.83,142.83,0,0,0,173,159.81c0-10-2-39.81-19.17-39.81-6.73,0-14.1,4.94-16.35,14.93"/></g><g id="g3245"><path id="path3247" class="cls-26" d="M137.54,135c-2.64,11.72-15.33,13.24-13.67,21.69,2.11,10.71,10.54,11.06,18.59,8.9,5.38-1.44,1.69,9.75-1,16.05-2.18,5.08-1.42,8.93,12.47,8.81,11.3-.06,15.3-1.65,16.14-5.3a142,142,0,0,0,2.83-25.3c0-10-2-39.71-19.08-39.71-6.69,0-14,4.92-16.26,14.86"/></g><g id="g3249"><path id="path3251" class="cls-27" d="M137.63,135C135,146.72,122.29,148.22,124,156.65c2.14,10.7,10.61,10.9,18.59,8.79,5.33-1.42,1.72,9.72-1,16.11-2.15,5.06-1.43,8.91,12.38,8.78,11.21-.07,15.2-1.64,16-5.32a141.22,141.22,0,0,0,2.81-25.2c0-10-2-39.63-19-39.63-6.65,0-13.94,4.89-16.17,14.79"/></g><g id="g3253"><path id="path3255" class="cls-28" d="M137.72,135c-2.66,11.79-15.36,13.26-13.66,21.66,2.15,10.7,10.67,10.75,18.59,8.68,5.28-1.39,1.75,9.71-1,16.18-2.12,5-1.44,8.88,12.29,8.75,11.12-.07,15.09-1.62,15.94-5.33a141.64,141.64,0,0,0,2.79-25.12c0-10-2-39.54-18.9-39.54-6.61,0-13.87,4.87-16.08,14.72"/></g><g id="g3257"><path id="path3259" class="cls-29" d="M137.8,135c-2.66,11.83-15.36,13.28-13.65,21.66,2.18,10.7,10.74,10.59,18.59,8.56,5.24-1.36,1.78,9.7-1,16.25-2.08,5-1.45,8.85,12.21,8.72,11-.07,15-1.61,15.84-5.35a140.84,140.84,0,0,0,2.77-25c0-10-2.06-39.44-18.81-39.44-6.57,0-13.79,4.84-16,14.64"/></g><g id="g3261"><path id="path3263" class="cls-30" d="M137.89,135c-2.67,11.87-15.37,13.29-13.65,21.64,2.21,10.7,10.81,10.44,18.6,8.45,5.19-1.33,1.8,9.68-.93,16.32-2.06,5-1.46,8.83,12.12,8.69,10.94-.08,14.89-1.59,15.74-5.36a141.16,141.16,0,0,0,2.75-24.95c0-10-2.06-39.36-18.72-39.36-6.53,0-13.71,4.82-15.91,14.57"/></g><g id="g3265"><path id="path3267" class="cls-31" d="M138,135c-2.68,11.9-15.38,13.3-13.64,21.62,2.23,10.7,10.87,10.29,18.59,8.34,5.14-1.3,1.83,9.67-.9,16.39-2,5-1.47,8.8,12,8.65,10.85-.07,14.78-1.57,15.64-5.37a140.33,140.33,0,0,0,2.72-24.87c0-10-2.06-39.26-18.62-39.26-6.49,0-13.63,4.79-15.82,14.5"/></g><g id="g3269"><path id="path3271" class="cls-32" d="M138.07,135.06c-2.68,11.94-15.39,13.31-13.64,21.61,2.26,10.69,10.94,10.13,18.59,8.22,5.1-1.27,1.87,9.66-.88,16.46-2,5-1.47,8.77,12,8.62,10.76-.08,14.68-1.55,15.54-5.39a139.6,139.6,0,0,0,2.7-24.77c0-10-2.07-39.18-18.53-39.18-6.45,0-13.55,4.77-15.73,14.43"/></g><g id="g3273"><path id="path3275" class="cls-33" d="M138.16,135.08c-2.7,12-15.4,13.31-13.64,21.59,2.29,10.69,11,10,18.59,8.11,5.06-1.24,1.9,9.64-.85,16.53-2,4.93-1.48,8.75,11.85,8.59,10.68-.08,14.58-1.53,15.45-5.4a139.83,139.83,0,0,0,2.68-24.7c0-10-2.08-39.08-18.44-39.08-6.41,0-13.48,4.74-15.64,14.36"/></g><g id="g3277"><path id="path3279" class="cls-34" d="M138.24,135.1c-2.7,12-15.41,13.33-13.62,21.58,2.3,10.68,11.07,9.82,18.59,8,5-1.22,1.92,9.62-.83,16.59-1.94,4.91-1.49,8.69,11.76,8.56,10.59-.11,14.48-1.52,15.35-5.42a139.1,139.1,0,0,0,2.66-24.6c0-10-2.08-39-18.35-39-6.37,0-13.4,4.72-15.56,14.29"/></g><g id="g3281"><path id="path3283" class="cls-35" d="M138.33,135.12c-2.71,12-15.42,13.34-13.62,21.56,2.33,10.68,11.14,9.67,18.59,7.89,5-1.19,1.95,9.61-.81,16.66-1.91,4.89-1.5,8.67,11.69,8.53,10.49-.12,14.37-1.5,15.23-5.44a137.37,137.37,0,0,0,2.65-24.52c0-10-2.09-38.9-18.26-38.9-6.33,0-13.32,4.69-15.47,14.22"/></g><g id="g3285"><path id="path3287" class="cls-36" d="M138.42,135.14c-2.72,12.07-15.43,13.34-13.62,21.55,2.36,10.67,11.21,9.51,18.6,7.77,4.91-1.16,2,9.59-.79,16.73-1.88,4.87-1.51,8.64,11.6,8.49,10.4-.11,14.26-1.48,15.13-5.44A137.66,137.66,0,0,0,172,159.81c0-10-2.1-38.82-18.17-38.82-6.3,0-13.24,4.66-15.38,14.15"/></g><g id="g3289"><path id="path3291" class="cls-37" d="M138.51,135.16c-2.73,12.11-15.44,13.36-13.61,21.53,2.38,10.67,11.27,9.36,18.59,7.66,4.87-1.13,2,9.58-.76,16.8-1.86,4.84-1.52,8.61,11.51,8.46,10.31-.12,14.16-1.46,15-5.46a136.83,136.83,0,0,0,2.61-24.34c0-10-2.11-38.73-18.08-38.73-6.26,0-13.16,4.64-15.29,14.08"/></g><g id="g3293"><path id="path3295" class="cls-38" d="M138.6,135.18c-2.74,12.14-15.45,13.37-13.61,21.52,2.41,10.66,11.34,9.2,18.6,7.54,4.82-1.1,2,9.56-.75,16.87-1.82,4.82-1.52,8.59,11.42,8.43,10.23-.12,14.07-1.44,14.94-5.48a136.11,136.11,0,0,0,2.59-24.26c0-10-2.11-38.63-18-38.63-6.22,0-13.09,4.61-15.2,14"/></g><g id="g3297"><path id="path3299" class="cls-39" d="M138.68,135.2c-2.73,12.18-15.45,13.37-13.6,21.5,2.44,10.66,11.41,9.05,18.6,7.43,4.77-1.07,2,9.55-.72,16.94-1.8,4.8-1.53,8.56,11.34,8.4,10.13-.13,13.95-1.43,14.83-5.49a136.31,136.31,0,0,0,2.57-24.17c0-10-2.12-38.55-17.9-38.55-6.18,0-13,4.59-15.12,13.94"/></g><g id="g3301"><path id="path3303" class="cls-40" d="M138.77,135.22c-2.75,12.21-15.46,13.38-13.59,21.48,2.45,10.66,11.47,8.9,18.59,7.32,4.73-1,2.08,9.53-.69,17-1.77,4.78-1.54,8.53,11.25,8.37,10-.13,13.85-1.41,14.73-5.51a135.48,135.48,0,0,0,2.55-24.09c0-10-2.13-38.45-17.81-38.45-6.14,0-12.93,4.56-15,13.87"/></g><g id="g3305"><path id="path3307" class="cls-41" d="M138.86,135.24c-2.76,12.25-15.47,13.39-13.59,21.47,2.48,10.66,11.53,8.74,18.6,7.2,4.68-1,2.1,9.52-.68,17.08-1.74,4.75-1.55,8.5,11.16,8.34,10-.14,13.76-1.4,14.64-5.53a135.66,135.66,0,0,0,2.53-24c0-10-2.13-38.37-17.72-38.37-6.1,0-12.85,4.54-14.94,13.8"/></g><g id="g3309"><path id="path3311" class="cls-42" d="M139,135.26c-2.76,12.28-15.49,13.4-13.59,21.45,2.51,10.65,11.6,8.59,18.6,7.1,4.64-1,2.13,9.49-.65,17.14-1.72,4.73-1.56,8.48,11.07,8.3,9.87-.13,13.65-1.37,14.54-5.53a135,135,0,0,0,2.51-23.92c0-10-2.14-38.27-17.63-38.27-6.06,0-12.78,4.51-14.85,13.73"/></g><g id="g3313"><path id="path3315" class="cls-43" d="M139,135.28c-2.78,12.32-15.5,13.41-13.59,21.44,2.54,10.65,11.67,8.43,18.6,7,4.6-1,2.16,9.47-.62,17.21-1.7,4.71-1.57,8.45,11,8.27,9.78-.14,13.55-1.35,14.44-5.55a134.19,134.19,0,0,0,2.49-23.82c0-10-2.15-38.19-17.54-38.19-6,0-12.7,4.48-14.76,13.66"/></g><g id="g3317"><path id="path3319" class="cls-44" d="M139.12,135.3c-2.78,12.35-15.5,13.42-13.57,21.42,2.56,10.65,11.73,8.28,18.6,6.87,4.54-.94,2.18,9.46-.61,17.28-1.66,4.68-1.57,8.42,10.91,8.24,9.68-.14,13.44-1.34,14.33-5.56a133.66,133.66,0,0,0,2.47-23.75c0-10-2.15-38.09-17.45-38.09-6,0-12.62,4.46-14.68,13.59"/></g><g id="g3321"><path id="path3323" class="cls-45" d="M139.21,135.32c-2.78,12.39-15.51,13.43-13.57,21.41,2.59,10.64,11.8,8.12,18.6,6.75,4.5-.91,2.21,9.44-.58,17.35-1.64,4.66-1.58,8.4,10.81,8.21,9.6-.15,13.34-1.32,14.24-5.58a133.73,133.73,0,0,0,2.45-23.65c0-10-2.16-38-17.36-38-5.94,0-12.54,4.43-14.59,13.52"/></g><g id="g3325"><path id="path3327" class="cls-46" d="M139.3,135.34c-2.8,12.42-15.52,13.44-13.57,21.39,2.62,10.64,11.87,8,18.61,6.64,4.45-.88,2.23,9.43-.56,17.42-1.62,4.64-1.59,8.37,10.72,8.18,9.51-.15,13.24-1.3,14.14-5.6a132.9,132.9,0,0,0,2.43-23.57c0-10-2.17-37.91-17.27-37.91-5.9,0-12.46,4.41-14.5,13.45"/></g><g id="g3329"><path id="path3331" class="cls-47" d="M139.39,135.36c-2.81,12.46-15.53,13.45-13.56,21.38,2.64,10.63,11.93,7.81,18.6,6.52,4.4-.85,2.25,9.41-.54,17.5-1.59,4.6-1.59,8.33,10.64,8.13,9.42-.15,13.13-1.28,14-5.6A132.24,132.24,0,0,0,171,159.81c0-10-2.18-37.83-17.18-37.83-5.87,0-12.38,4.38-14.41,13.38"/></g><g id="g3333"><path id="path3335" class="cls-48" d="M139.48,135.38c-2.82,12.49-15.54,13.46-13.56,21.36,2.67,10.63,12,7.66,18.6,6.41,4.36-.82,2.28,9.39-.51,17.56-1.56,4.59-1.61,8.32,10.55,8.11,9.32-.15,13-1.26,13.94-5.62a132.41,132.41,0,0,0,2.39-23.39c0-10-2.18-37.73-17.09-37.73-5.83,0-12.31,4.35-14.32,13.3"/></g><g id="g3337"><path id="path3339" class="cls-49" d="M139.56,135.4C136.74,147.93,124,148.87,126,156.74c2.69,10.63,12.07,7.51,18.61,6.31,4.31-.8,2.3,9.37-.49,17.62-1.54,4.57-1.62,8.29,10.47,8.08,9.22-.16,12.92-1.25,13.82-5.64a130.58,130.58,0,0,0,2.38-23.31c0-10-2.19-37.63-17-37.63-5.79,0-12.23,4.32-14.24,13.23"/></g><g id="g3341"><path id="path3343" class="cls-50" d="M139.65,135.42c-2.82,12.56-15.55,13.48-13.54,21.33,2.71,10.62,12.13,7.35,18.6,6.19,4.27-.77,2.32,9.35-.47,17.69-1.51,4.54-1.62,8.26,10.38,8.05,9.15-.16,12.82-1.23,13.73-5.65a130,130,0,0,0,2.36-23.22c0-10-2.2-37.55-16.91-37.55-5.75,0-12.15,4.29-14.15,13.16"/></g><g id="g3345"><path id="path3347" class="cls-51" d="M139.74,135.44c-2.84,12.6-15.56,13.49-13.54,21.31,2.74,10.62,12.2,7.2,18.61,6.08,4.21-.74,2.34,9.33-.45,17.77-1.49,4.51-1.63,8.23,10.29,8,9.06-.17,12.72-1.21,13.63-5.67a130.09,130.09,0,0,0,2.34-23.14c0-10-2.2-37.45-16.82-37.45-5.71,0-12.07,4.27-14.06,13.09"/></g><g id="g3349"><path id="path3351" class="cls-52" d="M139.83,135.46c-2.84,12.63-15.57,13.5-13.54,21.3,2.77,10.61,12.27,7,18.61,6,4.17-.71,2.36,9.32-.42,17.83-1.47,4.5-1.64,8.21,10.2,8,9-.17,12.62-1.2,13.53-5.69a129.12,129.12,0,0,0,2.32-23c0-10-2.21-37.37-16.73-37.37-5.67,0-12,4.24-14,13"/></g><g id="g3353"><path id="path3355" class="cls-53" d="M139.92,135.48c-2.86,12.67-15.58,13.51-13.53,21.28,2.79,10.61,12.33,6.89,18.6,5.85,4.13-.68,2.39,9.3-.4,17.91-1.44,4.46-1.64,8.17,10.13,7.94,8.86-.17,12.5-1.17,13.42-5.69a128.57,128.57,0,0,0,2.3-23c0-10-2.22-37.27-16.64-37.27-5.63,0-11.92,4.22-13.88,12.95"/></g><g id="g3357"><path id="path3359" class="cls-54" d="M140,135.5c-2.85,12.7-15.58,13.52-13.52,21.27,2.82,10.6,12.4,6.73,18.61,5.73,4.08-.65,2.4,9.28-.38,18-1.42,4.45-1.66,8.16,10,7.92,8.78-.17,12.4-1.16,13.32-5.71a127.69,127.69,0,0,0,2.28-22.87c0-10-2.23-37.19-16.55-37.19-5.59,0-11.84,4.19-13.8,12.88"/></g><g id="g3361"><path id="path3363" class="cls-55" d="M140.09,135.52c-2.86,12.74-15.59,13.53-13.52,21.25,2.85,10.61,12.47,6.58,18.61,5.62,4-.62,2.43,9.27-.35,18.05-1.4,4.41-1.67,8.12,9.94,7.88,8.7-.18,12.31-1.14,13.23-5.72a128,128,0,0,0,2.26-22.8c0-10-2.23-37.09-16.46-37.09-5.55,0-11.76,4.17-13.71,12.81"/></g><g id="g3365"><path id="path3367" class="cls-56" d="M140.18,135.54c-2.88,12.77-15.6,13.54-13.51,21.24,2.87,10.6,12.53,6.42,18.61,5.5,4-.59,2.44,9.25-.34,18.12-1.37,4.39-1.67,8.09,9.86,7.85,8.6-.18,12.2-1.12,13.13-5.74a127.17,127.17,0,0,0,2.24-22.7c0-10-2.24-37-16.37-37-5.51,0-11.68,4.14-13.62,12.74"/></g><g id="g3369"><path id="path3371" class="cls-57" d="M140.27,135.56c-2.88,12.81-15.61,13.55-13.51,21.22,2.9,10.6,12.59,6.27,18.61,5.4,3.94-.57,2.46,9.22-.31,18.18-1.35,4.36-1.68,8.06,9.77,7.82,8.51-.19,12.1-1.11,13-5.76a126.32,126.32,0,0,0,2.22-22.62c0-10-2.25-36.91-16.28-36.91-5.48,0-11.61,4.12-13.53,12.67"/></g><g id="g3373"><path id="path3375" class="cls-58" d="M140.36,135.58c-2.89,12.84-15.62,13.56-13.51,21.2,2.93,10.6,12.66,6.12,18.61,5.29,3.89-.54,2.49,9.2-.28,18.25-1.33,4.34-1.69,8,9.68,7.78,8.42-.18,12-1.08,12.93-5.76a125.72,125.72,0,0,0,2.2-22.53c0-10-2.25-36.83-16.19-36.83-5.43,0-11.53,4.09-13.44,12.6"/></g><g id="g3377"><path id="path3379" class="cls-59" d="M140.44,135.6c-2.9,12.88-15.62,13.57-13.49,21.19,3,10.59,12.73,6,18.61,5.17,3.84-.51,2.5,9.19-.27,18.32-1.3,4.31-1.7,8,9.6,7.75,8.33-.19,11.9-1.06,12.83-5.78a125.68,125.68,0,0,0,2.18-22.44c0-10-2.26-36.74-16.1-36.74-5.4,0-11.45,4.06-13.36,12.53"/></g><g id="g3381"><path id="path3383" class="cls-60" d="M140.53,135.62c-2.9,12.91-15.63,13.58-13.49,21.17,3,10.59,12.79,5.81,18.61,5.06,3.8-.49,2.52,9.17-.24,18.39-1.28,4.29-1.71,8,9.51,7.72,8.24-.19,11.79-1.05,12.73-5.8a124.91,124.91,0,0,0,2.16-22.36c0-10-2.27-36.64-16-36.64-5.36,0-11.37,4-13.27,12.46"/></g><g id="g3385"><path id="path3387" class="cls-61" d="M140.62,135.64c-2.92,13-15.64,13.59-13.49,21.16,3,10.58,12.86,5.64,18.62,4.94,3.75-.46,2.53,9.15-.22,18.46-1.27,4.27-1.72,8,9.42,7.69,8.15-.2,11.69-1,12.63-5.82a124,124,0,0,0,2.14-22.26c0-10-2.27-36.56-15.92-36.56-5.32,0-11.29,4-13.18,12.39"/></g><g id="g3389"><path id="path3391" class="cls-62" d="M140.71,135.66c-2.92,13-15.65,13.6-13.49,21.14,3,10.58,12.93,5.49,18.62,4.83,3.7-.43,2.55,9.13-.2,18.53-1.24,4.24-1.72,7.93,9.34,7.66,8.06-.2,11.59-1,12.52-5.83a123.39,123.39,0,0,0,2.13-22.19c0-10-2.28-36.46-15.83-36.46-5.28,0-11.21,4-13.09,12.32"/></g><g id="g3393"><path id="path3395" class="cls-63" d="M140.8,135.68c-2.93,13-15.66,13.61-13.48,21.13,3.06,10.57,13,5.33,18.61,4.71,3.66-.4,2.57,9.11-.17,18.6-1.22,4.22-1.73,7.9,9.25,7.62,8-.2,11.48-1,12.43-5.84a123.36,123.36,0,0,0,2.1-22.09c0-10-2.29-36.38-15.74-36.38-5.24,0-11.14,4-13,12.25"/></g><g id="g3397"><path id="path3399" class="cls-64" d="M140.88,135.7c-2.94,13.05-15.66,13.62-13.47,21.11,3.09,10.57,13.06,5.18,18.62,4.61,3.61-.38,2.58,9.08-.15,18.66-1.2,4.19-1.74,7.88,9.16,7.59,7.88-.2,11.38-1,12.32-5.85a121.83,121.83,0,0,0,2.09-22c0-10-2.3-36.28-15.65-36.28-5.2,0-11.06,3.94-12.92,12.18"/></g><g id="g3401"><path id="path3403" class="cls-65" d="M141,135.72c-2.94,13.09-15.67,13.62-13.47,21.1,3.12,10.56,13.13,5,18.62,4.49,3.57-.35,2.6,9.07-.13,18.73-1.17,4.17-1.75,7.85,9.08,7.56,7.79-.21,11.27-1,12.22-5.87a120.93,120.93,0,0,0,2.07-21.92c0-10-2.3-36.2-15.56-36.2-5.16,0-11,3.91-12.83,12.11"/></g><g id="g3405"><path id="path3407" class="cls-66" d="M141.06,135.74c-2.95,13.12-15.68,13.63-13.46,21.08,3.14,10.56,13.19,4.87,18.61,4.38,3.52-.32,2.62,9.05-.1,18.8-1.16,4.14-1.76,7.82,9,7.53,7.7-.21,11.17-.94,12.12-5.89a121,121,0,0,0,2.05-21.84c0-10-2.31-36.1-15.47-36.1-5.12,0-10.9,3.89-12.74,12"/></g><g id="g3409"><path id="path3411" class="cls-67" d="M141.15,135.76c-3,13.15-15.69,13.64-13.46,21.06,3.17,10.56,13.26,4.72,18.62,4.27,3.47-.29,2.63,9-.08,18.87-1.14,4.12-1.77,7.8,8.9,7.5,7.61-.22,11.07-.92,12-5.9a120.34,120.34,0,0,0,2-21.75c0-10-2.32-36-15.38-36-5.08,0-10.82,3.86-12.65,12"/></g><g id="g3413"><path id="path3415" class="cls-68" d="M141.23,135.78c-3,13.19-15.69,13.65-13.45,21.05,3.2,10.55,13.33,4.56,18.62,4.15,3.43-.26,2.65,9-.06,18.94-1.11,4.09-1.77,7.77,8.82,7.46,7.52-.21,11-.9,11.92-5.91a119.37,119.37,0,0,0,2-21.66c0-10-2.32-35.93-15.29-35.93-5,0-10.75,3.83-12.57,11.9"/></g><g id="g3417"><path id="path3419" class="cls-69" d="M141.32,135.8c-3,13.22-15.7,13.66-13.44,21,3.23,10.55,13.38,4.41,18.62,4,3.37-.23,2.65,9,0,19-1.09,4.07-1.78,7.74,8.73,7.43,7.43-.22,10.86-.88,11.82-5.92a118.78,118.78,0,0,0,2-21.59c0-10-2.33-35.83-15.2-35.83-5,0-10.67,3.81-12.48,11.83"/></g><g id="g3421"><path id="path3423" class="cls-70" d="M141.41,135.82c-3,13.26-15.71,13.67-13.44,21,3.26,10.54,13.45,4.25,18.62,3.92,3.33-.2,2.67,9,0,19.08-1.08,4-1.79,7.72,8.64,7.4,7.34-.22,10.76-.87,11.72-5.94a118.76,118.76,0,0,0,2-21.49c0-10-2.34-35.75-15.11-35.75-5,0-10.59,3.78-12.39,11.76"/></g><g id="g3425"><path id="path3427" class="cls-71" d="M141.5,135.84c-3,13.29-15.72,13.68-13.44,21,3.29,10.54,13.52,4.1,18.62,3.81,3.29-.18,2.68,8.95,0,19.15-1.05,4-1.79,7.69,8.56,7.37,7.25-.23,10.66-.85,11.62-6a117.89,117.89,0,0,0,1.95-21.41c0-10-2.35-35.65-15-35.65-4.93,0-10.52,3.76-12.3,11.69"/></g><g id="g3429"><path id="path3431" class="cls-72" d="M141.59,135.86c-3,13.33-15.73,13.69-13.44,21,3.32,10.53,13.59,3.94,18.63,3.7,3.24-.16,2.69,8.92,0,19.21-1,4-1.8,7.66,8.47,7.34,7.16-.23,10.55-.83,11.52-6a117.23,117.23,0,0,0,1.93-21.32c0-10-2.35-35.57-14.93-35.57-4.89,0-10.44,3.73-12.21,11.62"/></g><g id="g3433"><path id="path3435" class="cls-73" d="M141.67,135.88c-3,13.36-15.73,13.7-13.42,21,3.34,10.53,13.65,3.79,18.62,3.59,3.19-.13,2.7,8.9.06,19.28-1,4-1.82,7.64,8.38,7.31,7.07-.23,10.45-.82,11.42-6a116.37,116.37,0,0,0,1.91-21.24c0-10-2.36-35.47-14.84-35.47-4.85,0-10.36,3.7-12.13,11.55"/></g><g id="g3437"><path id="path3439" class="cls-74" d="M141.76,135.9c-3,13.4-15.74,13.71-13.42,21,3.37,10.52,13.72,3.62,18.63,3.47,3.14-.1,2.71,8.88.07,19.35-1,3.94-1.82,7.61,8.3,7.27,7-.23,10.35-.79,11.32-6a116.33,116.33,0,0,0,1.89-21.14c0-10-2.37-35.39-14.75-35.39-4.81,0-10.28,3.68-12,11.48"/></g><g id="g3441"><path id="path3443" class="cls-75" d="M141.85,135.92c-3,13.43-15.75,13.72-13.42,20.94,3.4,10.52,13.79,3.47,18.63,3.36,3.1-.07,2.72,8.87.1,19.42-1,3.92-1.83,7.59,8.21,7.24,6.89-.23,10.25-.78,11.21-6a114.63,114.63,0,0,0,1.88-21.06c0-10-2.37-35.29-14.66-35.29-4.77,0-10.2,3.65-12,11.41"/></g><g id="g3445"><path id="path3447" class="cls-76" d="M141.94,135.94c-3,13.47-15.76,13.73-13.41,20.93,3.42,10.51,13.85,3.31,18.63,3.24,3,0,2.72,8.85.12,19.49-1,3.89-1.84,7.56,8.12,7.21,6.8-.24,10.14-.76,11.11-6a113.89,113.89,0,0,0,1.86-21c0-10-2.38-35.21-14.57-35.21-4.73,0-10.12,3.63-11.86,11.34"/></g><g id="g3449"><path id="path3451" class="cls-77" d="M142,136c-3,13.51-15.77,13.75-13.41,20.92,3.45,10.51,13.92,3.29,18.63,3.13,3-.1,2.73,8.82.15,19.56-.94,3.87-1.85,7.53,8,7.18,6.71-.24,10-.74,11-6.05a113,113,0,0,0,1.84-20.88c0-9.95-2.39-35.12-14.48-35.12-4.69,0-10.05,3.6-11.77,11.26"/></g><g id="g3453"><path id="path3455" class="cls-78" d="M142.11,136c-3,13.55-15.76,13.76-13.39,20.9,3.48,10.51,14,3.14,18.62,3,3-.07,2.74,8.81.17,19.63-.91,3.84-1.86,7.51,8,7.15,6.62-.25,9.94-.73,10.91-6.06a113.14,113.14,0,0,0,1.82-20.8c0-9.95-2.39-35-14.39-35-4.65,0-10,3.58-11.69,11.19"/></g><g id="g3457"><path id="path3459" class="cls-79" d="M142.2,136c-3,13.58-15.77,13.76-13.39,20.89,3.51,10.5,14,3,18.63,2.9,2.9,0,2.74,8.78.19,19.7-.9,3.82-1.87,7.48,7.86,7.11,6.53-.24,9.83-.7,10.81-6.07a112.31,112.31,0,0,0,1.8-20.71c0-9.95-2.4-34.94-14.3-34.94-4.62,0-9.89,3.55-11.6,11.12"/></g><g id="g3461"><path id="path3463" class="cls-80" d="M142.29,136c-3.06,13.62-15.78,13.77-13.39,20.88,3.54,10.49,14.11,2.69,18.63,2.79,2.86.06,2.75,8.75.21,19.76-.87,3.8-1.87,7.45,7.78,7.08,6.44-.25,9.73-.68,10.71-6.09A111.41,111.41,0,0,0,168,159.81c0-9.95-2.41-34.85-14.21-34.85-4.57,0-9.81,3.53-11.51,11"/></g><g id="g3465"><path id="path3467" class="cls-81" d="M142.38,136c-3.07,13.65-15.79,13.78-13.39,20.86,3.57,10.49,14.18,2.53,18.64,2.68,2.81.09,2.75,8.73.23,19.83-.86,3.77-1.88,7.43,7.69,7,6.35-.25,9.63-.67,10.61-6.1a110.68,110.68,0,0,0,1.76-20.54c0-9.95-2.42-34.76-14.12-34.76-4.54,0-9.74,3.5-11.42,11"/></g><g id="g3469"><path id="path3471" class="cls-82" d="M142.47,136.05c-3.08,13.69-15.8,13.79-13.38,20.84,3.59,10.49,14.24,2.38,18.63,2.57,2.77.12,2.76,8.71.26,19.9-.84,3.75-1.89,7.4,7.6,7,6.26-.25,9.52-.65,10.51-6.12a110.67,110.67,0,0,0,1.74-20.46c0-9.94-2.42-34.66-14-34.66-4.5,0-9.66,3.48-11.33,10.91"/></g><g id="g3473"><path id="path3475" class="cls-83" d="M142.55,136.07c-3.08,13.72-15.8,13.8-13.37,20.83,3.63,10.48,14.31,2.22,18.63,2.45,2.72.15,2.77,8.69.28,20-.81,3.72-1.89,7.38,7.52,7,6.17-.26,9.42-.64,10.41-6.14a109.72,109.72,0,0,0,1.72-20.36c0-9.95-2.43-34.58-13.94-34.58-4.46,0-9.58,3.45-11.25,10.84"/></g><g id="g3477"><path id="path3479" class="cls-84" d="M142.64,136.09c-3.09,13.76-15.81,13.81-13.37,20.81,3.66,10.48,14.38,2.07,18.64,2.34,2.67.18,2.76,8.67.3,20-.8,3.69-1.9,7.35,7.43,7,6.08-.26,9.32-.62,10.31-6.15a109.09,109.09,0,0,0,1.7-20.29c0-9.94-2.44-34.48-13.85-34.48-4.42,0-9.5,3.42-11.16,10.77"/></g><g id="g3481"><path id="path3483" class="cls-85" d="M142.73,136.11c-3.1,13.79-15.82,13.82-13.36,20.8,3.68,10.47,14.44,1.91,18.63,2.22,2.63.2,2.77,8.65.33,20.11-.78,3.67-1.92,7.33,7.34,6.92,6-.26,9.22-.59,10.21-6.16a108.14,108.14,0,0,0,1.68-20.19c0-9.95-2.44-34.4-13.76-34.4-4.38,0-9.42,3.4-11.07,10.7"/></g><g id="g3485"><path id="path3487" class="cls-86" d="M142.82,136.13C139.71,150,127,150,129.46,156.91c3.71,10.47,14.51,1.75,18.63,2.11,2.58.23,2.77,8.63.35,20.18-.76,3.65-1.92,7.3,7.26,6.89,5.9-.26,9.12-.58,10.11-6.18a108,108,0,0,0,1.66-20.11c0-9.93-2.45-34.3-13.67-34.3-4.34,0-9.34,3.37-11,10.63"/></g><g id="g3489"><path id="path3491" class="cls-87" d="M142.91,136.15C139.79,150,127.08,150,129.55,156.92c3.74,10.46,14.58,1.59,18.64,2,2.53.25,2.77,8.6.37,20.24-.74,3.62-1.93,7.28,7.17,6.86,5.81-.27,9-.56,10-6.19a107.33,107.33,0,0,0,1.64-20c0-9.94-2.46-34.22-13.58-34.22-4.3,0-9.27,3.35-10.89,10.56"/></g><g id="g3493"><path id="path3495" class="cls-88" d="M143,136.17c-3.12,13.9-15.83,13.84-13.34,20.75,3.77,10.46,14.63,1.44,18.63,1.89,2.49.28,2.77,8.58.4,20.31-.73,3.6-1.94,7.25,7.08,6.83,5.72-.27,8.91-.55,9.91-6.21a106.41,106.41,0,0,0,1.62-19.93c0-9.94-2.47-34.13-13.49-34.13-4.26,0-9.19,3.32-10.81,10.49"/></g><g id="g3497"><path id="path3499" class="cls-89" d="M143.08,136.19C140,150.12,127.24,150,129.74,156.92c3.8,10.46,14.7,1.29,18.64,1.78,2.43.31,2.76,8.56.42,20.38-.71,3.57-2,7.22,7,6.8,5.63-.27,8.82-.53,9.8-6.23a104,104,0,0,0,1.61-19.85c0-9.93-2.47-34-13.4-34-4.22,0-9.11,3.3-10.72,10.42"/></g><g id="g3501"><path id="path3503" class="cls-90" d="M143.17,136.21c-3.14,14-15.85,13.86-13.34,20.72,3.83,10.45,14.77,1.12,18.64,1.66,2.39.33,2.76,8.54.44,20.45-.69,3.55-1.95,7.2,6.91,6.76,5.54-.27,8.71-.5,9.7-6.23a103.17,103.17,0,0,0,1.59-19.76c0-9.94-2.48-33.95-13.31-33.95-4.18,0-9,3.27-10.63,10.35"/></g><g id="g3505"><path id="path3507" class="cls-91" d="M143.26,136.23c-3.15,14-15.86,13.87-13.34,20.7,3.86,10.45,14.84,1,18.64,1.55,2.35.36,2.76,8.51.47,20.52-.67,3.52-2,7.17,6.82,6.73,5.45-.27,8.61-.48,9.6-6.25A102.31,102.31,0,0,0,167,159.8c0-9.93-2.49-33.85-13.22-33.85-4.15,0-9,3.24-10.54,10.28"/></g><g id="g3509"><path id="path3511" class="cls-92" d="M143.35,136.25c-3.16,14-15.87,13.88-13.33,20.69,3.89,10.44,14.9.81,18.64,1.43,2.3.39,2.75,8.49.49,20.59-.66,3.5-2,7.15,6.73,6.7,5.36-.27,8.51-.47,9.5-6.26a102.32,102.32,0,0,0,1.55-19.59c0-9.94-2.5-33.77-13.13-33.77-4.11,0-8.88,3.22-10.45,10.21"/></g><g id="g3513"><path id="path3515" class="cls-93" d="M143.43,136.27c-3.16,14.07-15.86,13.89-13.32,20.67,3.92,10.44,15,.65,18.64,1.32,2.25.42,2.74,8.47.51,20.66-.64,3.47-2,7.12,6.65,6.67,5.27-.28,8.4-.45,9.4-6.28a101.51,101.51,0,0,0,1.53-19.51c0-9.93-2.5-33.67-13-33.67-4.07,0-8.8,3.19-10.37,10.14"/></g><g id="g3517"><path id="path3519" class="cls-94" d="M143.52,136.29c-3.17,14.1-15.87,13.9-13.32,20.66,4,10.43,15,.49,18.65,1.21,2.2.43,2.73,8.44.53,20.72-.62,3.45-2,7.1,6.56,6.64,5.18-.28,8.3-.44,9.3-6.3a100.62,100.62,0,0,0,1.51-19.41c0-9.94-2.51-33.59-12.95-33.59-4,0-8.72,3.17-10.28,10.07"/></g><g id="g3521"><path id="path3523" class="cls-95" d="M143.61,136.31c-3.18,14.14-15.88,13.91-13.31,20.64,4,10.43,15.1.34,18.64,1.1,2.16.46,2.73,8.42.56,20.79-.61,3.43-2,7.07,6.47,6.6,5.09-.28,8.2-.41,9.2-6.3a100.64,100.64,0,0,0,1.49-19.34c0-9.93-2.52-33.49-12.86-33.49-4,0-8.64,3.14-10.19,10"/></g><g id="g3525"><path id="path3527" class="cls-96" d="M143.7,136.33c-3.19,14.17-15.89,13.92-13.31,20.63,4,10.42,15.17.17,18.64,1,2.11.49,2.72,8.4.58,20.86-.58,3.4-2,7,6.39,6.57,5-.28,8.09-.39,9.1-6.32a99.74,99.74,0,0,0,1.47-19.24c0-9.93-2.52-33.41-12.77-33.41-4,0-8.57,3.12-10.1,9.93"/></g><g id="g3529"><path id="path3531" class="cls-97" d="M143.79,136.35c-3.2,14.21-15.9,13.92-13.31,20.61,4,10.42,15.23,0,18.65.87,2.06.52,2.7,8.38.6,20.93-.57,3.38-2,7,6.3,6.54,4.91-.28,8-.38,9-6.34a98.87,98.87,0,0,0,1.45-19.16c0-9.92-2.53-33.31-12.68-33.31-3.91,0-8.49,3.09-10,9.86"/></g><g id="g3533"><path id="path3535" class="cls-98" d="M143.87,136.37c-3.2,14.24-15.9,13.93-13.29,20.59,4.06,10.41,15.3-.14,18.64.76,2,.54,2.7,8.35.62,21-.54,3.35-2,7,6.22,6.51,4.82-.29,7.89-.36,8.9-6.35a98.1,98.1,0,0,0,1.43-19.08c0-9.92-2.54-33.22-12.59-33.22-3.87,0-8.41,3.07-9.93,9.79"/></g><g id="g3537"><path id="path3539" class="cls-99" d="M144,136.39c-3.21,14.28-15.9,13.94-13.29,20.58,4.1,10.41,15.37-.3,18.65.64,2,.57,2.68,8.34.64,21.07-.53,3.33-2,7,6.13,6.48,4.73-.29,7.78-.35,8.8-6.37a98,98,0,0,0,1.41-19c0-9.92-2.54-33.13-12.5-33.13-3.83,0-8.33,3-9.84,9.72"/></g><g id="g3541"><path id="path3543" class="cls-100" d="M144.05,136.41c-3.22,14.31-15.91,14-13.29,20.56,4.13,10.4,15.43-.45,18.65.53,1.92.6,2.67,8.31.67,21.14-.52,3.3-2,7,6,6.44,4.64-.28,7.68-.32,8.7-6.38a97,97,0,0,0,1.39-18.9c0-9.92-2.55-33-12.41-33-3.79,0-8.25,3-9.75,9.65"/></g><g id="g3545"><path id="path3547" class="cls-101" d="M144.14,136.43c-3.23,14.35-15.92,14-13.29,20.55,4.16,10.39,15.5-.62,18.65.41,1.88.62,2.66,8.29.69,21.21-.49,3.28-2,6.94,6,6.41,4.55-.28,7.58-.3,8.6-6.39a97,97,0,0,0,1.37-18.81c0-9.93-2.56-33-12.32-33-3.76,0-8.18,3-9.66,9.58"/></g><g id="g3549"><path id="path3551" class="cls-102" d="M144.23,136.45C141,150.83,128.31,150.41,131,157c4.21,10.38,15.57-.77,18.65.31,1.83.64,2.64,8.26.71,21.27-.48,3.26-2.05,6.92,5.87,6.38,4.46-.28,7.47-.29,8.49-6.41A95.42,95.42,0,0,0,166,159.8c0-9.92-2.57-32.86-12.23-32.86-3.72,0-8.1,3-9.57,9.51"/></g><g id="g3553"><path id="path3555" class="cls-103" d="M144.31,136.47c-3.24,14.42-15.92,14-13.27,20.52,4.24,10.37,15.64-.94,18.65.19,1.79.67,2.62,8.24.74,21.34-.46,3.23-2.06,6.89,5.78,6.35,4.37-.29,7.37-.27,8.39-6.42a94.65,94.65,0,0,0,1.34-18.64c0-9.92-2.57-32.78-12.14-32.78-3.67,0-8,2.94-9.49,9.44"/></g><g id="g3557"><path id="path3559" class="cls-104" d="M144.4,136.49c-3.25,14.45-15.93,14-13.27,20.5,4.27,10.37,15.71-1.09,18.66.08,1.74.69,2.6,8.22.75,21.41-.44,3.21-2.06,6.86,5.7,6.32,4.28-.29,7.27-.25,8.29-6.44a93.73,93.73,0,0,0,1.32-18.56c0-9.91-2.58-32.68-12-32.68-3.64,0-7.94,2.91-9.4,9.37"/></g><g id="g3561"><path id="path3563" class="cls-105" d="M144.49,136.51c-3.26,14.49-15.94,14-13.26,20.49,4.29,10.37,15.77-1.26,18.65,0,1.69.72,2.58,8.2.78,21.48-.43,3.19-2.08,6.84,5.61,6.29,4.19-.3,7.17-.24,8.19-6.46a93.56,93.56,0,0,0,1.3-18.46c0-9.92-2.59-32.6-12-32.6-3.6,0-7.86,2.89-9.31,9.3"/></g><g id="g3565"><path id="path3567" class="cls-106" d="M144.58,136.53c-3.27,14.52-16,14-13.26,20.47,4.32,10.37,15.84-1.42,18.65-.15,1.65.74,2.56,8.17.81,21.55-.41,3.16-2.09,6.81,5.52,6.26,4.1-.3,7.06-.22,8.09-6.47a92.83,92.83,0,0,0,1.28-18.39c0-9.91-2.59-32.5-11.87-32.5-3.56,0-7.79,2.86-9.22,9.23"/></g><g id="g3569"><path id="path3571" class="cls-107" d="M144.67,136.55c-3.28,14.56-16,14-13.25,20.46,4.34,10.36,15.9-1.58,18.65-.27,1.6.77,2.53,8.15.83,21.63-.4,3.13-2.1,6.77,5.43,6.21,4-.3,7-.2,8-6.48a91.81,91.81,0,0,0,1.25-18.29c0-9.92-2.59-32.42-11.77-32.42-3.52,0-7.71,2.83-9.13,9.16"/></g></g></g></g><g id="g3573"><g class="cls-2"><g id="g3575"><g id="g3581"><path id="path3583" class="cls-3" d="M240.66,150.8a21.79,21.79,0,0,0-4.9-2.54,14.38,14.38,0,0,0-4.6-.69,11.25,11.25,0,0,0-8.42,3.67,12.19,12.19,0,0,0-2.45,4.12,15,15,0,0,0-.89,5.24,17.3,17.3,0,0,0,.93,5.78,14.26,14.26,0,0,0,2.55,4.55,11.52,11.52,0,0,0,3.87,3,11.2,11.2,0,0,0,4.9,1.08,22.4,22.4,0,0,0,2.7-.15,14.9,14.9,0,0,0,2.39-.49,15.57,15.57,0,0,0,2.4-.93c.82-.39,1.75-.88,2.8-1.47l3.72,7.64a25.37,25.37,0,0,1-15.77,5.2,23.2,23.2,0,0,1-9.07-1.72,19.55,19.55,0,0,1-6.95-4.85,21.55,21.55,0,0,1-4.46-7.54,29.2,29.2,0,0,1-1.57-9.8,21.51,21.51,0,0,1,1.82-8.67,23.78,23.78,0,0,1,12.05-12.29,20.34,20.34,0,0,1,8.57-1.86,28.35,28.35,0,0,1,8.13,1,23.48,23.48,0,0,1,6.86,3.47Z"/></g><g id="g3585"><path id="path3587" class="cls-108" d="M142.1,133.89c-.56,3-1.31,6.94-3.76,9.63a40.9,40.9,0,0,1-8.74,6.75,2.76,2.76,0,0,0-1.56,2.58c0,.79.35,1.47,1,1.47.8,0,1.25-.46,2.41-.46,1.47,0,3.22,1.17,4.18,1.72-1.15.83-3.33,2-3.33,3.94,0,1.45,1.64,3.37,6,3.37,4.07,0,9.43-4.66,12.18-6.74,1.38-4.51-1.1-13.61-8.37-22.26"/></g></g></g></g><g id="g3589"><g class="cls-109"><g id="g3591"><g id="g3597"><g id="g3599"><g id="g3601"><path id="path3603" class="cls-108" d="M145.57,181.82c-.73,1.92.2,2.72,1.79,2.72,3.29-7.59,5.37-18.33,6-25.24L150.6,159C150.6,168.66,148.31,175.16,145.57,181.82Z"/><path id="path3605" class="cls-108" d="M147.36,184.54h7.17c2.56-7.65,2.82-23.29,2.82-24.83-.91-.06-2.49-.24-4-.41C152.73,166.21,150.65,177,147.36,184.54Z"/><path id="path3607" class="cls-108" d="M154.53,184.54h.94c2.33-7.14,2.75-23.19,2.75-24.59a4.8,4.8,0,0,1-.87-.24C157.35,161.25,157.09,176.89,154.53,184.54Z"/><path id="path3609" class="cls-108" d="M155.47,184.54h.41c2.23-6.93,2.72-23.18,2.74-24.54l-.4-.05c0,1.4-.42,17.45-2.75,24.59Z"/><path id="path3611" class="cls-108" d="M155.88,184.54h0c2.22-6.91,2.72-23.18,2.73-24.54h0c0,1.36-.51,17.61-2.74,24.54Z"/><path id="path3613" class="cls-108" d="M155.92,184.54H156c2.21-6.87,2.73-23.17,2.74-24.52l-.09,0c0,1.36-.51,17.63-2.73,24.54Z"/><path id="path3615" class="cls-108" d="M156,184.54h4.79c1.08-4.55,2.47-23.22,2.57-24.18-.19,0-2.82-.13-4.62-.34,0,1.35-.53,17.65-2.74,24.52Z"/><path id="path3617" class="cls-108" d="M160.79,184.54c1.08-4.55,2.47-23.22,2.57-24.18l.7.08c0,2.61-1.06,18.81-2,24.1Z"/><path id="path3619" class="cls-108" d="M162,184.54h1.46c.42-3,.82-8,1.1-12.67a3.14,3.14,0,0,1-1.2-.39C163,176.52,162.52,181.89,162,184.54Z"/><path id="path3621" class="cls-110" d="M163.4,171.48a3.14,3.14,0,0,0,1.2.39c.28-4.72.45-9.22.41-11.35l-.95-.08C164.05,161.74,163.79,166.45,163.4,171.48Z"/><path id="path3623" class="cls-108" d="M163.5,184.54a3.24,3.24,0,0,0,2.26-.67,103.77,103.77,0,0,0,.92-11.66,10.11,10.11,0,0,0-2.08-.34c-.28,4.71-.68,9.65-1.1,12.67Z"/><path id="path3625" class="cls-111" d="M164.6,171.87a10.11,10.11,0,0,1,2.08.34c.07-2,.11-4.08.15-6a3.84,3.84,0,0,0-1.91-1c-.07,2-.18,4.29-.32,6.65Z"/><path id="path3627" class="cls-112" d="M164.92,165.22a3.84,3.84,0,0,1,1.91,1c0-1.95.06-3.81.11-5.49l-1.93-.18c0,1.07,0,2.72-.09,4.7Z"/><path id="path3629" class="cls-108" d="M165.76,183.87a2.67,2.67,0,0,0,.8-1.64c.63-3.9,1.07-6.92,1.4-10.13-.31.28-.73.24-1.28.11A103.77,103.77,0,0,1,165.76,183.87Z"/><path id="path3631" class="cls-113" d="M166.68,172.21a2.59,2.59,0,0,0,.73.1c.1-1.8.18-3.62.25-5.52-.26-.16-.54-.38-.83-.6,0,1.94-.08,4-.15,6Z"/><path id="path3633" class="cls-114" d="M166.83,166.19c.29.22.57.44.83.6.07-1.9.14-3.87.23-6l-.95-.11C166.89,162.38,166.86,164.24,166.83,166.19Z"/><path id="path3635" class="cls-115" d="M167.41,172.31a.84.84,0,0,0,.55-.21c.17-1.6.3-3.24.43-5.06a1.28,1.28,0,0,1-.73-.25c-.07,1.9-.15,3.72-.25,5.52Z"/><path id="path3637" class="cls-116" d="M167.66,166.79a1.28,1.28,0,0,0,.73.25c.13-1.81.24-3.8.35-6.1l-.85-.13c-.09,2.11-.16,4.08-.23,6Z"/><path id="path3639" class="cls-108" d="M150.6,159c1.79.2,5.22.62,6.75.73,0-.69,0-1.27,0-1.77-1.58.07-4.83.23-6.74-.36,0,.43,0,.84,0,1.4Z"/><path id="path3641" class="cls-108" d="M150.59,157.58c1.91.59,5.16.43,6.74.36,0-.51,0-.94-.08-1.35-1.64.26-4.73.5-6.76-.48C150.55,156.71,150.57,157.15,150.59,157.58Z"/><path id="path3643" class="cls-108" d="M150.49,156.11a24,24,0,0,0-.45-2.55,5.51,5.51,0,0,0,3.58,1.28,12,12,0,0,1,.4,2A8.86,8.86,0,0,1,150.49,156.11Z"/><path id="path3645" class="cls-117" d="M154,156.82a18.4,18.4,0,0,0,3.23-.23c0-.36-.09-.71-.16-1.06a14.42,14.42,0,0,1-3.23.29A7.47,7.47,0,0,1,154,156.82Z"/><path id="path3647" class="cls-113" d="M153.86,155.82a14.42,14.42,0,0,0,3.23-.29c-.07-.36-.16-.72-.27-1.13a13.29,13.29,0,0,1-3.2.44c.1.47.18.73.24,1Z"/><path id="path3649" class="cls-108" d="M157.35,159.71a4.8,4.8,0,0,0,.87.24c0-.59.06-1.15.08-1.69a5.36,5.36,0,0,1-1-.25c0,.49,0,1,0,1.7Z"/><path id="path3651" class="cls-118" d="M157.33,158a5.36,5.36,0,0,0,1,.25c0-.54,0-1.06,0-1.56-.49.05-.9,0-1.09,0,0,.39.06.81.07,1.3Z"/><path id="path3653" class="cls-113" d="M157.26,156.71c.19,0,.6,0,1.09,0,0-.5,0-1,0-1.43-.47.14-.9.25-1.2.31.07.38.12.74.16,1.13Z"/><path id="path3655" class="cls-115" d="M157.1,155.58c.3-.06.73-.17,1.2-.31a7.28,7.28,0,0,0-.19-1.29,11.12,11.12,0,0,1-1.29.42c.12.43.21.81.28,1.18Z"/><path id="path3657" class="cls-108" d="M158.22,160l.29,0c0-.55.07-1.12.11-1.68-.1,0-.22,0-.32,0,0,.54-.05,1.1-.08,1.69Z"/><path id="path3659" class="cls-119" d="M158.3,158.26c.1,0,.22,0,.32,0q.06-.84.09-1.65c-.12,0-.24,0-.36,0,0,.5,0,1,0,1.56Z"/><path id="path3661" class="cls-120" d="M158.35,156.7c.12,0,.24,0,.36,0q0-.79,0-1.53l-.4.15c0,.45,0,.93,0,1.43Z"/><path id="path3663" class="cls-121" d="M158.3,155.27l.41-.15a7.69,7.69,0,0,0-.16-1.33l-.44.19a7.28,7.28,0,0,1,.19,1.29Z"/><path id="path3665" class="cls-108" d="M158.51,160h.14c0-.54.09-1.11.13-1.68l-.16,0C158.58,158.86,158.54,159.43,158.51,160Z"/><path id="path3667" class="cls-119" d="M158.62,158.3l.16,0c0-.57.08-1.14.11-1.69l-.18,0q0,.81-.09,1.65Z"/><path id="path3669" class="cls-120" d="M158.71,156.65l.18,0c0-.55,0-1.08,0-1.58l-.19.07q0,.74,0,1.53Z"/><path id="path3671" class="cls-122" d="M158.71,155.12l.19-.07a7.78,7.78,0,0,0-.14-1.35l-.21.09A7.69,7.69,0,0,1,158.71,155.12Z"/><path id="path3673" class="cls-108" d="M158.65,160l.68.08c0-.5.09-1.08.14-1.68-.23,0-.47-.08-.69-.08C158.74,158.89,158.69,159.46,158.65,160Z"/><path id="path3675" class="cls-119" d="M158.78,158.32c.22,0,.46.08.69.08.06-.61.11-1.24.14-1.86-.24.05-.48,0-.72.09C158.86,157.18,158.82,157.75,158.78,158.32Z"/><path id="path3677" class="cls-120" d="M158.89,156.63c.24,0,.48,0,.72-.09,0-.62.06-1.23,0-1.77l-.76.28c0,.5,0,1,0,1.58Z"/><path id="path3679" class="cls-122" d="M158.9,155.05l.76-.28a8.13,8.13,0,0,0-.13-1.43l-.77.36A7.78,7.78,0,0,1,158.9,155.05Z"/><path id="path3681" class="cls-108" d="M159.33,160.08c.86.08,1.83.15,2.6.2,0-.38.1-1,.16-1.82-.74,0-1.67-.09-2.62-.06C159.42,159,159.37,159.58,159.33,160.08Z"/><path id="path3683" class="cls-119" d="M159.47,158.4c.95,0,1.88,0,2.62.06.07-.79.15-1.72.2-2.65-.68.22-1.55.45-2.68.73C159.58,157.16,159.53,157.79,159.47,158.4Z"/><path id="path3685" class="cls-120" d="M159.61,156.54c1.13-.28,2-.51,2.68-.73.06-.94.1-1.87.11-2.67a9.63,9.63,0,0,1-2.74,1.63C159.67,155.31,159.65,155.92,159.61,156.54Z"/><path id="path3687" class="cls-122" d="M159.66,154.77a9.63,9.63,0,0,0,2.74-1.63,9.26,9.26,0,0,0-.13-1.84,7.68,7.68,0,0,1-2.74,2A8.13,8.13,0,0,1,159.66,154.77Z"/><path id="path3689" class="cls-108" d="M161.93,160.28l1.43.08c0-.24.11-1,.2-1.9a6,6,0,0,1-1.47,0c-.06.79-.12,1.44-.16,1.81Z"/><path id="path3691" class="cls-119" d="M162.09,158.46a6,6,0,0,0,1.47,0c.09-1,.2-2.14.29-3.35a6.26,6.26,0,0,1-1.56.7c0,.93-.13,1.86-.2,2.65Z"/><path id="path3693" class="cls-120" d="M162.29,155.81a6.26,6.26,0,0,0,1.56-.7c.09-1.21.17-2.44.19-3.46-.58.44-1,1-1.64,1.49C162.39,153.94,162.35,154.87,162.29,155.81Z"/><path id="path3695" class="cls-123" d="M162.4,153.14c.62-.53,1.06-1,1.64-1.49a9.66,9.66,0,0,0-.11-2.21,12.43,12.43,0,0,0-1.66,1.86,9.26,9.26,0,0,1,.13,1.84Z"/><path id="path3697" class="cls-108" d="M163.36,160.36c.24,0,.6.07,1,.1,0-.4.12-1.25.23-2.33a3.3,3.3,0,0,1-1.05.33c-.09.95-.17,1.66-.2,1.9Z"/><path id="path3699" class="cls-112" d="M163.56,158.46a3.3,3.3,0,0,0,1.05-.33c.1-1.07.22-2.37.33-3.68a5.83,5.83,0,0,1-1.09.66c-.09,1.21-.2,2.4-.29,3.35Z"/><path id="path3701" class="cls-112" d="M164.38,160.46l1.42.13c0-.78.13-1.87.22-3.12-.5.24-1,.48-1.41.66-.11,1.08-.2,1.93-.23,2.33Z"/><path id="path3703" class="cls-113" d="M164.61,158.13c.42-.18.91-.42,1.41-.66.08-1.25.17-2.65.24-4-.45.36-.91.72-1.32,1-.11,1.31-.23,2.61-.33,3.68Z"/><path id="path3705" class="cls-124" d="M163.85,155.11a5.83,5.83,0,0,0,1.09-.66c.1-1.31.19-2.63.21-3.74a7.22,7.22,0,0,1-1.11.94C164,152.67,163.94,153.9,163.85,155.11Z"/><path id="path3707" class="cls-125" d="M164,151.65a7.22,7.22,0,0,0,1.11-.94,11.13,11.13,0,0,0-.12-2.49,6.15,6.15,0,0,1-1.1,1.22A9.66,9.66,0,0,1,164,151.65Z"/><path id="path3709" class="cls-126" d="M164.94,154.45c.41-.3.87-.66,1.32-1,.06-1.39.11-2.77.09-4-.39.44-.8.88-1.2,1.26C165.13,151.82,165,153.14,164.94,154.45Z"/><path id="path3711" class="cls-127" d="M165.15,150.71c.4-.38.81-.82,1.2-1.26a15.09,15.09,0,0,0-.24-2.95,20.24,20.24,0,0,1-1.08,1.72,11.13,11.13,0,0,1,.12,2.49Z"/><path id="path3713" class="cls-128" d="M165.8,160.59l1.55.16c.06-1.15.11-2.49.15-3.92a15.39,15.39,0,0,0-1.48.64c-.09,1.25-.17,2.34-.22,3.12Z"/><path id="path3715" class="cls-125" d="M166,157.47a15.39,15.39,0,0,1,1.48-.64c0-1.43.06-2.94.06-4.42-.4.3-.85.66-1.3,1-.07,1.39-.16,2.79-.24,4Z"/><path id="path3717" class="cls-129" d="M167.35,160.75c.51.06,1,.12,1.39.19.06-1.31.07-2.81,0-4.38a3.77,3.77,0,0,0-1.29.27c0,1.43-.09,2.77-.15,3.92Z"/><path id="path3719" class="cls-130" d="M167.5,156.83a3.77,3.77,0,0,1,1.29-.27c0-1.58-.11-3.23-.21-4.84a6.54,6.54,0,0,0-1,.69c0,1.48,0,3-.06,4.42Z"/><path id="path3721" class="cls-131" d="M166.26,153.43c.45-.36.89-.72,1.3-1,0-1.49-.05-2.94-.13-4.26-.32.4-.69.85-1.08,1.3C166.37,150.66,166.32,152,166.26,153.43Z"/><path id="path3723" class="cls-132" d="M166.35,149.45c.39-.45.76-.9,1.08-1.3a26.76,26.76,0,0,0-.4-3.41c-.26.54-.57,1.15-.92,1.76A15.09,15.09,0,0,1,166.35,149.45Z"/><path id="path3725" class="cls-133" d="M167.56,152.41a6.54,6.54,0,0,1,1-.69c-.1-1.61-.24-3.18-.4-4.61-.18.27-.44.63-.75,1,.08,1.32.12,2.77.13,4.26Z"/><path id="path3727" class="cls-134" d="M167.43,148.15c.31-.41.57-.77.75-1-.16-1.43-.35-2.71-.55-3.73-.13.33-.34.81-.6,1.35a27.17,27.17,0,0,1,.4,3.42Z"/><path id="path3729" class="cls-108" d="M150,153.56a5.51,5.51,0,0,0,3.58,1.28c-.29-1.44-.57-2.57-.88-3.64a20.76,20.76,0,0,1-4-2.91A33.68,33.68,0,0,1,150,153.56Z"/><path id="path3731" class="cls-108" d="M148.71,148.29a20.76,20.76,0,0,0,4,2.91c-.3-1.06-.63-2.07-1-3.25a14.4,14.4,0,0,1-4.49-2.91A27.45,27.45,0,0,1,148.71,148.29Z"/><path id="path3733" class="cls-135" d="M153.62,154.84a13.29,13.29,0,0,0,3.2-.44c-.14-.49-.36-1.26-.61-2.23a5.82,5.82,0,0,1-3.47-1c.31,1.07.59,2.2.88,3.64Z"/><path id="path3735" class="cls-136" d="M152.74,151.2a5.82,5.82,0,0,0,3.47,1c-.24-1-.52-2.14-.76-3.46a7.77,7.77,0,0,1-3.72-.76C152.11,149.13,152.44,150.14,152.74,151.2Z"/><path id="path3737" class="cls-123" d="M156.82,154.4a10.38,10.38,0,0,0,1.73-.61c-.17-.47-.41-1.21-.68-2.16a9.74,9.74,0,0,1-1.66.54C156.46,153.14,156.68,153.91,156.82,154.4Z"/><path id="path3739" class="cls-124" d="M156.21,152.17a9.74,9.74,0,0,0,1.66-.54c-.27-.94-.56-2.09-.83-3.39a9.49,9.49,0,0,1-1.59.47C155.69,150,156,151.2,156.21,152.17Z"/><path id="path3741" class="cls-137" d="M158.55,153.79l.4-.17c-.17-.48-.4-1.22-.66-2.17l-.42.18C158.14,152.58,158.38,153.32,158.55,153.79Z"/><path id="path3743" class="cls-138" d="M157.87,151.63l.42-.18c-.25-.94-.53-2.09-.8-3.39l-.45.18C157.31,149.54,157.6,150.69,157.87,151.63Z"/><path id="path3745" class="cls-139" d="M159,153.62l.58-.28c-.18-.47-.41-1.21-.66-2.15l-.58.26C158.55,152.4,158.78,153.14,159,153.62Z"/><path id="path3747" class="cls-115" d="M158.29,151.45l.58-.26c-.26-.94-.54-2.08-.81-3.36l-.57.23C157.76,149.36,158,150.51,158.29,151.45Z"/><path id="path3749" class="cls-140" d="M159.53,153.34a8,8,0,0,0,3.3-2.74,12.85,12.85,0,0,1-.52-1.71,11.42,11.42,0,0,1-3.44,2.3C159.12,152.13,159.35,152.87,159.53,153.34Z"/><path id="path3751" class="cls-141" d="M158.87,151.19a11.42,11.42,0,0,0,3.44-2.3c-.2-.79-.42-1.77-.65-2.89a15.63,15.63,0,0,1-3.6,1.83c.27,1.28.55,2.42.81,3.36Z"/><path id="path3753" class="cls-142" d="M162.83,150.6a6.7,6.7,0,0,1,1.1-1.16c-.22-.74-.47-2.47-.84-4.74-.47.28-.87.87-1.43,1.3a32.16,32.16,0,0,0,1.17,4.6Z"/><path id="path3755" class="cls-143" d="M163.93,149.44a16.33,16.33,0,0,1-.36-1.8,4.68,4.68,0,0,0,1.05-1.23c.15.75.29,1.36.41,1.81a6.15,6.15,0,0,1-1.1,1.22Z"/><path id="path3757" class="cls-144" d="M165,148.22c-.12-.45-.26-1.06-.41-1.81.36-.56.71-1.22,1-1.88.15.7.31,1.36.44,2A20.24,20.24,0,0,1,165,148.22Z"/><path id="path3759" class="cls-145" d="M163.57,147.64c-.14-.8-.29-1.81-.48-2.94a5.29,5.29,0,0,0,1-1c.17,1,.34,1.92.49,2.68A4.68,4.68,0,0,1,163.57,147.64Z"/><path id="path3761" class="cls-146" d="M164.62,146.41c-.15-.76-.32-1.66-.49-2.68.36-.43.73-.93,1.09-1.43.14.78.29,1.52.45,2.23C165.33,145.19,165,145.85,164.62,146.41Z"/><path id="path3763" class="cls-147" d="M166.11,146.5c-.13-.61-.29-1.27-.44-2,.33-.67.65-1.34.91-1.91.14.64.3,1.34.45,2.11-.26.55-.57,1.16-.92,1.77Z"/><path id="path3765" class="cls-148" d="M167,144.74c-.15-.78-.31-1.48-.45-2.12.27-.57.49-1,.65-1.31.11.56.24,1.22.4,2.07C167.5,143.71,167.29,144.19,167,144.74Z"/><path id="path3767" class="cls-149" d="M165.67,144.53c-.16-.71-.31-1.45-.45-2.23l1-1.43c.1.54.23,1.11.37,1.75C166.32,143.19,166,143.86,165.67,144.53Z"/><path id="path3769" class="cls-150" d="M166.58,142.62c-.14-.64-.27-1.21-.37-1.75a11.12,11.12,0,0,1,.72-1c.09.42.19.86.3,1.41-.16.27-.38.74-.65,1.31Z"/><path id="path3771" class="cls-108" d="M147.24,145c-1.08-2.17-3.49-6.67-5.23-9.32a35.61,35.61,0,0,0,7.13,5.37,52.57,52.57,0,0,1,2.59,6.86A14.4,14.4,0,0,1,147.24,145Z"/><path id="path3773" class="cls-151" d="M151.73,148a7.77,7.77,0,0,0,3.72.76,21.63,21.63,0,0,1-.35-3.16,11.88,11.88,0,0,1-4.64-1.31C150.9,145.44,151.33,146.72,151.73,148Z"/><path id="path3775" class="cls-108" d="M150.46,144.24a11.88,11.88,0,0,0,4.64,1.31c0-.77,0-1.29,0-1.67-.75.06-3.28-1.15-6-2.79A30.71,30.71,0,0,1,150.46,144.24Z"/><path id="path3777" class="cls-152" d="M155.45,148.71a9.7,9.7,0,0,0,1.71-.51,16.52,16.52,0,0,1-.15-3.11,9.79,9.79,0,0,1-1.91.46A21.63,21.63,0,0,0,155.45,148.71Z"/><path id="path3779" class="cls-110" d="M155.1,145.55a9.79,9.79,0,0,0,1.91-.46,15.92,15.92,0,0,1,.21-1.68,11.56,11.56,0,0,1-2.09.47C155.13,144.26,155.08,144.78,155.1,145.55Z"/><path id="path3781" class="cls-153" d="M157.16,148.2l.33-.14a15,15,0,0,1-.11-3.1l-.37.13a16.52,16.52,0,0,0,.15,3.11Z"/><path id="path3783" class="cls-154" d="M157,145.09l.37-.13c.06-.77.17-1.3.23-1.68-.12.05-.26.09-.39.13A15.92,15.92,0,0,0,157,145.09Z"/><path id="path3785" class="cls-155" d="M157.49,148.06l.94-.38a13.91,13.91,0,0,1-.05-3.06c-.27.08-.62.2-1,.34a15,15,0,0,0,.11,3.1Z"/><path id="path3787" class="cls-118" d="M157.38,145c.38-.14.73-.26,1-.34a16.05,16.05,0,0,1,.28-1.64,7.39,7.39,0,0,0-1,.3C157.55,143.66,157.44,144.19,157.38,145Z"/><path id="path3789" class="cls-120" d="M158.43,147.68c.57-.23,1.14-.47,1.69-.75a11.29,11.29,0,0,1-.07-3,5.89,5.89,0,0,1-1.67.72,13.91,13.91,0,0,0,.05,3.06Z"/><path id="path3791" class="cls-152" d="M158.38,144.62a5.89,5.89,0,0,0,1.67-.72c.08-.76.22-1.29.24-1.68a2.86,2.86,0,0,1-1.63.76A16.05,16.05,0,0,0,158.38,144.62Z"/><path id="path3793" class="cls-138" d="M160.12,146.93a9.13,9.13,0,0,0,1.54-.93,17.44,17.44,0,0,1-.27-3.13,13.59,13.59,0,0,1-1.34,1A11.29,11.29,0,0,0,160.12,146.93Z"/><path id="path3795" class="cls-113" d="M160.05,143.9a13.59,13.59,0,0,0,1.34-1c0-.81.05-1.4,0-1.81-.39.36-.71.8-1.12,1.16,0,.39-.16.92-.24,1.68Z"/><path id="path3797" class="cls-156" d="M161.66,146c.56-.43,1-1,1.43-1.3a13.86,13.86,0,0,1-.17-2.84,4.34,4.34,0,0,0-1.53,1,17.44,17.44,0,0,0,.27,3.13Z"/><path id="path3799" class="cls-141" d="M161.39,142.87a4.34,4.34,0,0,1,1.53-1c0-.72.12-1.23.11-1.55a2.47,2.47,0,0,0-1.62.75c0,.41,0,1,0,1.81Z"/><path id="path3801" class="cls-157" d="M163.09,144.7a13.86,13.86,0,0,1-.17-2.84,3.45,3.45,0,0,0,1-.62,14.37,14.37,0,0,0,.21,2.49,5.29,5.29,0,0,1-1,1Z"/><path id="path3803" class="cls-130" d="M164.13,143.73a14.37,14.37,0,0,1-.21-2.49,11.68,11.68,0,0,0,1-1c.06.58.13,1.23.28,2C164.86,142.8,164.49,143.3,164.13,143.73Z"/><path id="path3805" class="cls-158" d="M162.92,141.86c0-.72.12-1.23.11-1.55a1.5,1.5,0,0,0,.9-.53c0,.38,0,.83,0,1.46a3.59,3.59,0,0,1-1,.62Z"/><path id="path3807" class="cls-159" d="M163.92,141.24a11.66,11.66,0,0,0,0-1.46,7.76,7.76,0,0,0,.8-1.08,13.63,13.63,0,0,1,.22,1.56,13.29,13.29,0,0,1-1,1Z"/><path id="path3809" class="cls-133" d="M165.22,142.3c-.15-.81-.22-1.46-.28-2l.93-1c.12.53.22,1,.34,1.6l-1,1.43Z"/><path id="path3811" class="cls-150" d="M166.21,140.87c-.12-.55-.22-1.07-.34-1.6a5.42,5.42,0,0,1,.74-.66c.12.45.22.85.32,1.29a11.12,11.12,0,0,0-.72,1Z"/><path id="path3813" class="cls-160" d="M164.94,140.26c-.06-.57-.11-1.07-.21-1.56.25-.4.49-.79.73-1.11.16.61.29,1.15.41,1.68l-.93,1Z"/><path id="path3815" class="cls-161" d="M165.87,139.27c-.12-.53-.25-1.07-.41-1.68a1.52,1.52,0,0,1,.69-.61c.2.66.34,1.17.46,1.63A5.42,5.42,0,0,0,165.87,139.27Z"/><path id="path3817" class="cls-108" d="M142,135.72c3,3.31,11.63,8.29,13.12,8.16,0-.29-.07-1-.17-2.07-2.12-.57-9.82-5-12.84-8a4.2,4.2,0,0,0-.11,1.87Z"/><path id="path3819" class="cls-108" d="M142.12,133.85c3,3,10.72,7.39,12.84,8-.44-4.36-1.61-14-1.88-18.52a9.83,9.83,0,0,0-7.73,3.37A15.19,15.19,0,0,0,142.12,133.85Z"/><path id="path3821" class="cls-108" d="M155.13,143.88a11.56,11.56,0,0,0,2.09-.47c-.18-2.81-1.89-14.41-2.95-20.1-.46,0-.79,0-1.19,0,.33,5.57,2,19.09,2,20.59Z"/><path id="path3823" class="cls-108" d="M157.22,143.41l.25-.08c-.22-2.93-1.94-14.33-3.1-20h-.1c1.06,5.69,2.77,17.29,2.95,20.1Z"/><path id="path3825" class="cls-108" d="M157.47,143.33a9.7,9.7,0,0,1,1.19-.35c-.15-1.85-.65-5.31-1.31-9-.24,0-.71.33-1.08.41C156.87,138.28,157.36,141.87,157.47,143.33Z"/><path id="path3827" class="cls-108" d="M156.27,134.36c.37-.08.84-.42,1.08-.41-.66-3.72-1.48-7.69-2.26-10.55q-.36-.06-.72-.09C155,126.16,155.67,130.43,156.27,134.36Z"/><path id="path3829" class="cls-151" d="M158.66,143a3.42,3.42,0,0,0,2.23-1.38c-.07-1.32-.22-2.74-.43-4.22-.61.83-1.24,1.69-2.26,1.79C158.43,140.73,158.59,142.06,158.66,143Z"/><path id="path3831" class="cls-108" d="M158.2,139.17c1-.1,1.65-1,2.26-1.79-.21-1.48-.48-3-.82-4.56a4.21,4.21,0,0,1-2.29,1.13C157.68,135.81,158,137.61,158.2,139.17Z"/><path id="path3833" class="cls-108" d="M157.35,134a4.21,4.21,0,0,0,2.29-1.13,49,49,0,0,0-2.85-8.93,8.1,8.1,0,0,0-1.7-.49C155.87,126.26,156.69,130.23,157.35,134Z"/><path id="path3835" class="cls-136" d="M160.89,141.6a5.94,5.94,0,0,1,.89-.85c-.08-1.59-.19-3.08-.36-4.51a7.31,7.31,0,0,0-1,1.14c.21,1.48.36,2.9.43,4.22Z"/><path id="path3837" class="cls-112" d="M160.46,137.38a7.31,7.31,0,0,1,1-1.14,35.53,35.53,0,0,0-.73-4.13,7.19,7.19,0,0,0-1.05.71c.34,1.54.61,3.08.83,4.56Z"/><path id="path3839" class="cls-162" d="M161.78,140.75a2.49,2.49,0,0,1,1.25-.44c-.08-1.72-.2-3.23-.4-4.61a1.88,1.88,0,0,0-1.21.54C161.59,137.67,161.7,139.16,161.78,140.75Z"/><path id="path3841" class="cls-163" d="M161.42,136.24a1.88,1.88,0,0,1,1.21-.54,24.8,24.8,0,0,0-.84-3.81,1.8,1.8,0,0,0-1.1.22A35.53,35.53,0,0,1,161.42,136.24Z"/><path id="path3843" class="cls-119" d="M159.64,132.82a3.05,3.05,0,0,1,2.15-.93,29.87,29.87,0,0,0-3.44-7.21,10.37,10.37,0,0,0-1.56-.79A49,49,0,0,1,159.64,132.82Z"/><path id="path3845" class="cls-164" d="M163,140.31a33.12,33.12,0,0,0-1.24-8.42,4,4,0,0,0,.81.12,30.79,30.79,0,0,1,1.33,7.77A1.5,1.5,0,0,1,163,140.31Z"/><path id="path3847" class="cls-157" d="M163.93,139.78A30.79,30.79,0,0,0,162.6,132c.23,0,.43,0,.61,0a30.67,30.67,0,0,1,1.52,6.69,8.65,8.65,0,0,1-.8,1.08Z"/><path id="path3849" class="cls-165" d="M161.79,131.89a29.87,29.87,0,0,0-3.44-7.21,9.67,9.67,0,0,1,1,.67,29.56,29.56,0,0,1,3.3,6.66A4,4,0,0,1,161.79,131.89Z"/><path id="path3851" class="cls-137" d="M162.6,132c.23,0,.43,0,.61,0a25.17,25.17,0,0,0-1.27-2.93c-.21-.11-.44-.21-.69-.32A24.3,24.3,0,0,1,162.6,132Z"/><path id="path3853" class="cls-141" d="M161.25,128.76c.25.11.48.21.69.32a32.93,32.93,0,0,0-1.69-2.91c-.31-.29-.63-.57-.95-.82C160.06,126.56,160.71,127.68,161.25,128.76Z"/><path id="path3855" class="cls-166" d="M164.73,138.7a30.81,30.81,0,0,0-1.52-6.69,2.12,2.12,0,0,1,.56,0,36.38,36.38,0,0,1,1.69,5.54c-.24.32-.48.71-.73,1.11Z"/><path id="path3857" class="cls-167" d="M165.46,137.59a1.52,1.52,0,0,1,.69-.61c-.24-.82-.5-1.62-.79-2.39a1.2,1.2,0,0,0-.64.17c.28.92.52,1.87.74,2.83Z"/><path id="path3859" class="cls-168" d="M164.72,134.76a1.2,1.2,0,0,1,.64-.17c-.29-.78-.6-1.53-1-2.27a2.53,2.53,0,0,0-.64-.27C164.12,132.93,164.44,133.83,164.72,134.76Z"/><path id="path3861" class="cls-169" d="M163.21,132a1.92,1.92,0,0,1,1.2.32c-.34-.74-.71-1.45-1.12-2.15a4.43,4.43,0,0,0-1.35-1.1A25.17,25.17,0,0,1,163.21,132Z"/><path id="path3863" class="cls-170" d="M161.94,129.08a4.43,4.43,0,0,1,1.35,1.1c-.4-.69-.84-1.37-1.31-2a16.47,16.47,0,0,0-1.73-2A32.93,32.93,0,0,1,161.94,129.08Z"/></g></g></g></g></g></g><g id="g3865"><g class="cls-171"><g id="g3867"><g id="g3873"><g id="g3875"><g id="g3877"><path id="path3879" class="cls-108" d="M145.57,181.82c-.73,1.92.2,2.72,1.79,2.72,3.29-7.59,5.37-18.33,6-25.24L150.6,159C150.6,168.66,148.31,175.16,145.57,181.82Z"/><path id="path3881" class="cls-108" d="M147.36,184.54h7.17c2.56-7.65,2.82-23.29,2.82-24.83-.91-.06-2.49-.24-4-.41C152.73,166.21,150.65,177,147.36,184.54Z"/><path id="path3883" class="cls-108" d="M154.53,184.54h.94c2.33-7.14,2.75-23.19,2.75-24.59a4.8,4.8,0,0,1-.87-.24C157.35,161.25,157.09,176.89,154.53,184.54Z"/><path id="path3885" class="cls-108" d="M155.47,184.54h.41c2.23-6.93,2.72-23.18,2.74-24.54l-.4-.05c0,1.4-.42,17.45-2.75,24.59Z"/><path id="path3887" class="cls-108" d="M155.88,184.54h0c2.22-6.91,2.72-23.18,2.73-24.54h0c0,1.36-.51,17.61-2.74,24.54Z"/><path id="path3889" class="cls-108" d="M155.92,184.54H156c2.21-6.87,2.73-23.17,2.74-24.52l-.09,0c0,1.36-.51,17.63-2.73,24.54Z"/><path id="path3891" class="cls-108" d="M156,184.54h4.79c1.08-4.55,2.47-23.22,2.57-24.18-.19,0-2.82-.13-4.62-.34,0,1.35-.53,17.65-2.74,24.52Z"/><path id="path3893" class="cls-108" d="M160.79,184.54c1.08-4.55,2.47-23.22,2.57-24.18l.7.08c0,2.61-1.06,18.81-2,24.1Z"/><path id="path3895" class="cls-108" d="M162,184.54h1.46c.42-3,.82-8,1.1-12.67a3.14,3.14,0,0,1-1.2-.39C163,176.52,162.52,181.89,162,184.54Z"/><path id="path3897" class="cls-110" d="M163.4,171.48a3.14,3.14,0,0,0,1.2.39c.28-4.72.45-9.22.41-11.35l-.95-.08C164.05,161.74,163.79,166.45,163.4,171.48Z"/><path id="path3899" class="cls-108" d="M163.5,184.54a3.24,3.24,0,0,0,2.26-.67,103.77,103.77,0,0,0,.92-11.66,10.11,10.11,0,0,0-2.08-.34c-.28,4.71-.68,9.65-1.1,12.67Z"/><path id="path3901" class="cls-111" d="M164.6,171.87a10.11,10.11,0,0,1,2.08.34c.07-2,.11-4.08.15-6a3.84,3.84,0,0,0-1.91-1c-.07,2-.18,4.29-.32,6.65Z"/><path id="path3903" class="cls-112" d="M164.92,165.22a3.84,3.84,0,0,1,1.91,1c0-1.95.06-3.81.11-5.49l-1.93-.18c0,1.07,0,2.72-.09,4.7Z"/><path id="path3905" class="cls-108" d="M165.76,183.87a2.67,2.67,0,0,0,.8-1.64c.63-3.9,1.07-6.92,1.4-10.13-.31.28-.73.24-1.28.11A103.77,103.77,0,0,1,165.76,183.87Z"/><path id="path3907" class="cls-113" d="M166.68,172.21a2.59,2.59,0,0,0,.73.1c.1-1.8.18-3.62.25-5.52-.26-.16-.54-.38-.83-.6,0,1.94-.08,4-.15,6Z"/><path id="path3909" class="cls-114" d="M166.83,166.19c.29.22.57.44.83.6.07-1.9.14-3.87.23-6l-.95-.11C166.89,162.38,166.86,164.24,166.83,166.19Z"/><path id="path3911" class="cls-115" d="M167.41,172.31a.84.84,0,0,0,.55-.21c.17-1.6.3-3.24.43-5.06a1.28,1.28,0,0,1-.73-.25c-.07,1.9-.15,3.72-.25,5.52Z"/><path id="path3913" class="cls-116" d="M167.66,166.79a1.28,1.28,0,0,0,.73.25c.13-1.81.24-3.8.35-6.1l-.85-.13c-.09,2.11-.16,4.08-.23,6Z"/><path id="path3915" class="cls-108" d="M150.6,159l3.47.4c0-.63,0-1,0-1.37a14.06,14.06,0,0,1-3.49-.43c0,.43,0,.84,0,1.4Z"/><path id="path3917" class="cls-108" d="M150.59,157.58a14.06,14.06,0,0,0,3.49.43,11,11,0,0,0-.06-1.19,8.86,8.86,0,0,1-3.53-.71C150.55,156.71,150.57,157.15,150.59,157.58Z"/><path id="path3919" class="cls-108" d="M154.07,159.38c1.28.14,2.51.28,3.28.33,0-.35,0-.66,0-1-.77,0-2-.07-3.26-.16,0,.22,0,.48,0,.79Z"/><path id="path3921" class="cls-172" d="M154.08,158.59c1.26.09,2.49.14,3.27.16,0-.29,0-.56,0-.81-.79,0-2,.09-3.25.07v.58Z"/><path id="path3923" class="cls-173" d="M154.08,158c1.25,0,2.46,0,3.25-.07,0-.51,0-.94-.08-1.35a18.4,18.4,0,0,1-3.23.23A11,11,0,0,1,154.08,158Z"/><path id="path3925" class="cls-108" d="M150.49,156.11a8.86,8.86,0,0,0,3.53.71,7.47,7.47,0,0,0-.16-1,6.79,6.79,0,0,1-3.57-1A10.7,10.7,0,0,1,150.49,156.11Z"/><path id="path3927" class="cls-108" d="M150.29,154.78a6.79,6.79,0,0,0,3.57,1c-.06-.25-.14-.51-.24-1a5.51,5.51,0,0,1-3.58-1.28C150.14,154.09,150.22,154.43,150.29,154.78Z"/><path id="path3929" class="cls-114" d="M154,156.82a18.4,18.4,0,0,0,3.23-.23c0-.36-.09-.71-.16-1.06a14.42,14.42,0,0,1-3.23.29A7.47,7.47,0,0,1,154,156.82Z"/><path id="path3931" class="cls-174" d="M153.86,155.82a14.42,14.42,0,0,0,3.23-.29c-.07-.36-.16-.72-.27-1.13a13.29,13.29,0,0,1-3.2.44c.1.47.18.73.24,1Z"/><path id="path3933" class="cls-108" d="M157.35,159.71a4.8,4.8,0,0,0,.87.24c0-.29,0-.58,0-.86a3.46,3.46,0,0,1-.91-.3v.92Z"/><path id="path3935" class="cls-154" d="M157.35,158.79a3.46,3.46,0,0,0,.91.3c0-.28,0-.56,0-.83a5.36,5.36,0,0,1-1-.25c0,.24,0,.5,0,.78Z"/><path id="path3937" class="cls-136" d="M157.33,158a5.36,5.36,0,0,0,1,.25c0-.54,0-1.06,0-1.56-.49.05-.9,0-1.09,0,0,.39.06.81.07,1.3Z"/><path id="path3939" class="cls-164" d="M157.26,156.71c.19,0,.6,0,1.09,0,0-.5,0-1,0-1.43-.47.14-.9.25-1.2.31.07.38.12.74.16,1.13Z"/><path id="path3941" class="cls-175" d="M157.1,155.58c.3-.06.73-.17,1.2-.31,0-.23,0-.45-.07-.67A9.4,9.4,0,0,1,157,155Z"/><path id="path3943" class="cls-176" d="M157,155a9.4,9.4,0,0,0,1.25-.41,6.18,6.18,0,0,0-.12-.62,11.12,11.12,0,0,1-1.29.42C156.88,154.61,156.93,154.82,157,155Z"/><path id="path3945" class="cls-108" d="M158.22,160l.29,0c0-.27,0-.56.05-.84l-.3,0c0,.28,0,.57,0,.86Z"/><path id="path3947" class="cls-154" d="M158.26,159.09l.3,0,.06-.84c-.1,0-.22,0-.32,0,0,.27,0,.55,0,.83Z"/><path id="path3949" class="cls-155" d="M158.3,158.26c.1,0,.22,0,.32,0q.06-.84.09-1.65c-.12,0-.24,0-.36,0,0,.5,0,1,0,1.56Z"/><path id="path3951" class="cls-174" d="M158.35,156.7c.12,0,.24,0,.36,0q0-.79,0-1.53l-.4.15c0,.45,0,.93,0,1.43Z"/><path id="path3953" class="cls-177" d="M158.3,155.27l.41-.15q0-.36-.06-.69c-.14.06-.27.12-.42.17C158.26,154.82,158.29,155,158.3,155.27Z"/><path id="path3955" class="cls-178" d="M158.23,154.6c.15,0,.28-.11.42-.17,0-.22-.06-.43-.1-.64l-.44.19A6.18,6.18,0,0,1,158.23,154.6Z"/><path id="path3957" class="cls-108" d="M158.51,160h.14c0-.27,0-.55.07-.83a.76.76,0,0,1-.16,0c0,.28,0,.57-.05.84Z"/><path id="path3959" class="cls-154" d="M158.56,159.14a.76.76,0,0,0,.16,0l.06-.85-.16,0-.06.84Z"/><path id="path3961" class="cls-155" d="M158.62,158.3l.16,0c0-.57.08-1.14.11-1.69l-.18,0q0,.81-.09,1.65Z"/><path id="path3963" class="cls-116" d="M158.71,156.65l.18,0c0-.55,0-1.08,0-1.58l-.19.07q0,.74,0,1.53Z"/><path id="path3965" class="cls-179" d="M158.71,155.12l.19-.07c0-.25,0-.48,0-.71l-.21.09q0,.33.06.69Z"/><path id="path3967" class="cls-180" d="M158.65,154.43l.21-.09c0-.22-.06-.44-.1-.64l-.21.09C158.59,154,158.63,154.21,158.65,154.43Z"/><path id="path3969" class="cls-108" d="M158.65,160l.68.08c0-.25,0-.52.07-.8-.24,0-.47-.09-.68-.11C158.69,159.45,158.67,159.73,158.65,160Z"/><path id="path3971" class="cls-154" d="M158.72,159.17c.21,0,.44.09.68.11,0-.28,0-.58.07-.88-.23,0-.47-.08-.69-.08l-.06.85Z"/><path id="path3973" class="cls-155" d="M158.78,158.32c.22,0,.46.08.69.08.06-.61.11-1.24.14-1.86-.24.05-.48,0-.72.09C158.86,157.18,158.82,157.75,158.78,158.32Z"/><path id="path3975" class="cls-116" d="M158.89,156.63c.24,0,.48,0,.72-.09,0-.62.06-1.23,0-1.77l-.76.28c0,.5,0,1,0,1.58Z"/><path id="path3977" class="cls-179" d="M158.9,155.05l.76-.28c0-.28,0-.54,0-.78l-.76.35c0,.23,0,.46,0,.71Z"/><path id="path3979" class="cls-180" d="M158.86,154.34l.76-.35a6,6,0,0,0-.09-.65l-.77.36c0,.2.07.41.1.64Z"/><path id="path3981" class="cls-108" d="M159.33,160.08c.86.08,1.83.15,2.6.2,0-.19,0-.45.07-.75-.76-.09-1.71-.2-2.6-.25,0,.28-.05.55-.07.8Z"/><path id="path3983" class="cls-154" d="M159.4,159.28c.89.05,1.84.16,2.6.25,0-.31.06-.67.09-1.07-.74,0-1.67-.09-2.62-.06C159.45,158.7,159.42,159,159.4,159.28Z"/><path id="path3985" class="cls-155" d="M159.47,158.4c.95,0,1.88,0,2.62.06.07-.79.15-1.72.2-2.65-.68.22-1.55.45-2.68.73C159.58,157.16,159.53,157.79,159.47,158.4Z"/><path id="path3987" class="cls-181" d="M159.61,156.54c1.13-.28,2-.51,2.68-.73.06-.94.1-1.87.11-2.67a9.63,9.63,0,0,1-2.74,1.63C159.67,155.31,159.65,155.92,159.61,156.54Z"/><path id="path3989" class="cls-182" d="M159.66,154.77a9.63,9.63,0,0,0,2.74-1.63c0-.4,0-.76,0-1.07a8,8,0,0,1-2.75,1.92c0,.24,0,.5,0,.78Z"/><path id="path3991" class="cls-183" d="M159.62,154a7.87,7.87,0,0,0,2.75-1.93,5.46,5.46,0,0,0-.1-.76,7.68,7.68,0,0,1-2.74,2A6,6,0,0,1,159.62,154Z"/><path id="path3993" class="cls-108" d="M161.93,160.28l1.43.08c0-.12,0-.36.08-.68-.11,0-.68-.06-1.44-.15C162,159.83,162,160.09,161.93,160.28Z"/><path id="path3995" class="cls-154" d="M162,159.53c.76.09,1.33.16,1.44.15,0-.33.07-.74.12-1.22a6,6,0,0,1-1.47,0c0,.4-.06.76-.09,1.07Z"/><path id="path3997" class="cls-163" d="M162.09,158.46a6,6,0,0,0,1.47,0c.09-1,.2-2.14.29-3.35a6.26,6.26,0,0,1-1.56.7c0,.93-.13,1.86-.2,2.65Z"/><path id="path3999" class="cls-143" d="M162.29,155.81a6.26,6.26,0,0,0,1.56-.7c.09-1.21.17-2.44.19-3.46-.58.44-1,1-1.64,1.49C162.39,153.94,162.35,154.87,162.29,155.81Z"/><path id="path4001" class="cls-132" d="M162.4,153.14c.62-.53,1.06-1,1.64-1.49,0-.51,0-1,0-1.34a14.79,14.79,0,0,0-1.66,1.76C162.39,152.38,162.4,152.74,162.4,153.14Z"/><path id="path4003" class="cls-184" d="M162.37,152.07a14.79,14.79,0,0,1,1.66-1.76,4.07,4.07,0,0,0-.1-.87,12.43,12.43,0,0,0-1.66,1.86A5.42,5.42,0,0,1,162.37,152.07Z"/><path id="path4005" class="cls-108" d="M163.36,160.36c.24,0,.6.07,1,.1l.09-.91a4.14,4.14,0,0,1-1,.13c0,.32-.06.56-.08.68Z"/><path id="path4007" class="cls-118" d="M163.44,159.68a4.68,4.68,0,0,0,1-.13c0-.4.08-.88.14-1.42a3.3,3.3,0,0,1-1.05.33c-.05.48-.09.89-.12,1.22Z"/><path id="path4009" class="cls-113" d="M163.56,158.46a3.3,3.3,0,0,0,1.05-.33c.1-1.07.22-2.37.33-3.68a5.83,5.83,0,0,1-1.09.66c-.09,1.21-.2,2.4-.29,3.35Z"/><path id="path4011" class="cls-112" d="M164.38,160.46l1.42.13c0-.39.06-.86.09-1.38-.51.12-1,.25-1.42.34l-.09.91Z"/><path id="path4013" class="cls-185" d="M164.47,159.55c.42-.09.91-.22,1.42-.34,0-.53.08-1.11.13-1.74-.5.24-1,.48-1.41.66-.06.54-.1,1-.14,1.42Z"/><path id="path4015" class="cls-186" d="M164.61,158.13c.42-.18.91-.42,1.41-.66.08-1.25.17-2.65.24-4-.45.36-.91.72-1.32,1-.11,1.31-.23,2.61-.33,3.68Z"/><path id="path4017" class="cls-187" d="M163.85,155.11a5.83,5.83,0,0,0,1.09-.66c.1-1.31.19-2.63.21-3.74a7.22,7.22,0,0,1-1.11.94C164,152.67,163.94,153.9,163.85,155.11Z"/><path id="path4019" class="cls-188" d="M164,151.65a7.22,7.22,0,0,0,1.11-.94c0-.55,0-1.06,0-1.48a7.9,7.9,0,0,1-1.12,1.08c0,.38,0,.83,0,1.34Z"/><path id="path4021" class="cls-189" d="M164,150.31a7.9,7.9,0,0,0,1.12-1.08,5.46,5.46,0,0,0-.12-1,6.15,6.15,0,0,1-1.1,1.22,4.07,4.07,0,0,1,.1.87Z"/><path id="path4023" class="cls-190" d="M164.94,154.45c.41-.3.87-.66,1.32-1,.06-1.39.11-2.77.09-4-.39.44-.8.88-1.2,1.26C165.13,151.82,165,153.14,164.94,154.45Z"/><path id="path4025" class="cls-191" d="M165.15,150.71c.4-.38.81-.82,1.2-1.26,0-.61,0-1.17-.06-1.67-.37.51-.76,1-1.14,1.45,0,.42,0,.93,0,1.48Z"/><path id="path4027" class="cls-192" d="M165.15,149.23c.38-.44.77-.94,1.14-1.45a9.15,9.15,0,0,0-.18-1.28,20.24,20.24,0,0,1-1.08,1.72A5.46,5.46,0,0,1,165.15,149.23Z"/><path id="path4029" class="cls-128" d="M165.8,160.59l1.55.16c0-.57.06-1.2.08-1.86-.5.08-1,.2-1.54.32C165.86,159.73,165.83,160.2,165.8,160.59Z"/><path id="path4031" class="cls-123" d="M165.89,159.21c.52-.12,1-.24,1.54-.32,0-.65,0-1.35.07-2.06a15.39,15.39,0,0,0-1.48.64c-.05.63-.09,1.21-.13,1.74Z"/><path id="path4033" class="cls-181" d="M166,157.47a15.39,15.39,0,0,1,1.48-.64c0-1.43.06-2.94.06-4.42-.4.3-.85.66-1.3,1-.07,1.39-.16,2.79-.24,4Z"/><path id="path4035" class="cls-129" d="M167.35,160.75c.51.06,1,.12,1.39.19.06-1.31.07-2.81,0-4.38a3.77,3.77,0,0,0-1.29.27c0,1.43-.09,2.77-.15,3.92Z"/><path id="path4037" class="cls-193" d="M167.5,156.83a3.77,3.77,0,0,1,1.29-.27c0-1.58-.11-3.23-.21-4.84a6.54,6.54,0,0,0-1,.69c0,1.48,0,3-.06,4.42Z"/><path id="path4039" class="cls-166" d="M166.26,153.43c.45-.36.89-.72,1.3-1,0-1.49-.05-2.94-.13-4.26-.32.4-.69.85-1.08,1.3C166.37,150.66,166.32,152,166.26,153.43Z"/><path id="path4041" class="cls-167" d="M166.35,149.45c.39-.45.76-.9,1.08-1.3,0-.66-.1-1.28-.16-1.86-.28.47-.62,1-1,1.49,0,.5.05,1.06.06,1.67Z"/><path id="path4043" class="cls-194" d="M166.29,147.78c.36-.51.7-1,1-1.49q-.11-.85-.24-1.56c-.26.55-.57,1.16-.92,1.77a9.15,9.15,0,0,1,.18,1.28Z"/><path id="path4045" class="cls-192" d="M167.56,152.41a6.54,6.54,0,0,1,1-.69c-.1-1.61-.24-3.18-.4-4.61-.18.27-.44.63-.75,1,.08,1.32.12,2.77.13,4.26Z"/><path id="path4047" class="cls-195" d="M167.43,148.15c.31-.41.57-.77.75-1-.08-.71-.17-1.39-.26-2a10.89,10.89,0,0,1-.65,1.2C167.33,146.87,167.39,147.49,167.43,148.15Z"/><path id="path4049" class="cls-196" d="M167.27,146.29a10.89,10.89,0,0,0,.65-1.2c-.09-.62-.19-1.2-.29-1.71-.13.33-.34.81-.6,1.35Q167.17,145.44,167.27,146.29Z"/><path id="path4051" class="cls-108" d="M150,153.56a5.51,5.51,0,0,0,3.58,1.28c-.14-.72-.29-1.36-.43-2a14.47,14.47,0,0,1-3.81-2.38c.22.86.44,1.86.66,3.06Z"/><path id="path4053" class="cls-108" d="M149.38,150.5a14.47,14.47,0,0,0,3.81,2.38c-.14-.6-.29-1.14-.45-1.68a20.76,20.76,0,0,1-4-2.91c.23.63.45,1.35.67,2.21Z"/><path id="path4055" class="cls-108" d="M148.71,148.29a20.76,20.76,0,0,0,4,2.91c-.15-.53-.31-1-.48-1.58a18.26,18.26,0,0,1-4.26-3C148.24,147.1,148.48,147.65,148.71,148.29Z"/><path id="path4057" class="cls-108" d="M148,146.58a18.26,18.26,0,0,0,4.26,3c-.16-.53-.34-1.08-.53-1.67a14.4,14.4,0,0,1-4.49-2.91C147.51,145.56,147.76,146.06,148,146.58Z"/><path id="path4059" class="cls-197" d="M153.62,154.84a13.29,13.29,0,0,0,3.2-.44c-.07-.25-.16-.56-.26-.93a6.09,6.09,0,0,1-3.37-.59C153.33,153.48,153.48,154.12,153.62,154.84Z"/><path id="path4061" class="cls-174" d="M153.19,152.88a6.09,6.09,0,0,0,3.37.59c-.11-.38-.22-.81-.35-1.3a5.82,5.82,0,0,1-3.47-1c.16.54.31,1.08.45,1.68Z"/><path id="path4063" class="cls-115" d="M152.74,151.2a5.82,5.82,0,0,0,3.47,1c-.12-.48-.25-1-.38-1.6a6.54,6.54,0,0,1-3.57-.95C152.43,150.15,152.59,150.67,152.74,151.2Z"/><path id="path4065" class="cls-185" d="M152.26,149.62a6.54,6.54,0,0,0,3.57.95c-.13-.58-.26-1.2-.38-1.86a7.77,7.77,0,0,1-3.72-.76c.19.59.37,1.14.53,1.67Z"/><path id="path4067" class="cls-198" d="M156.82,154.4a10.38,10.38,0,0,0,1.73-.61c-.09-.23-.19-.54-.31-.9a11.69,11.69,0,0,1-1.68.58C156.66,153.84,156.75,154.15,156.82,154.4Z"/><path id="path4069" class="cls-199" d="M156.56,153.47a11.69,11.69,0,0,0,1.68-.58c-.11-.36-.24-.78-.37-1.26a9.74,9.74,0,0,1-1.66.54C156.34,152.66,156.45,153.09,156.56,153.47Z"/><path id="path4071" class="cls-170" d="M156.21,152.17a9.74,9.74,0,0,0,1.66-.54c-.13-.47-.27-1-.41-1.56a10.57,10.57,0,0,1-1.63.5C156,151.15,156.09,151.69,156.21,152.17Z"/><path id="path4073" class="cls-124" d="M155.83,150.57a10.57,10.57,0,0,0,1.63-.5q-.21-.85-.42-1.83a9.49,9.49,0,0,1-1.59.47c.12.66.25,1.28.38,1.86Z"/><path id="path4075" class="cls-188" d="M158.55,153.79l.4-.17c-.09-.24-.19-.55-.3-.91l-.41.18c.12.36.22.67.31.9Z"/><path id="path4077" class="cls-193" d="M158.24,152.89l.41-.18c-.11-.36-.23-.79-.36-1.26l-.42.18c.13.48.26.9.37,1.26Z"/><path id="path4079" class="cls-145" d="M157.87,151.63l.42-.18c-.12-.47-.26-1-.39-1.56l-.44.18C157.6,150.64,157.74,151.16,157.87,151.63Z"/><path id="path4081" class="cls-115" d="M157.46,150.07l.44-.18c-.14-.57-.28-1.18-.41-1.83l-.45.18Q157.25,149.21,157.46,150.07Z"/><path id="path4083" class="cls-147" d="M159,153.62l.58-.28c-.09-.23-.19-.54-.3-.9l-.58.27C158.76,153.07,158.86,153.38,159,153.62Z"/><path id="path4085" class="cls-193" d="M158.65,152.71l.58-.27c-.11-.36-.24-.78-.36-1.25l-.58.26c.13.47.25.9.36,1.26Z"/><path id="path4087" class="cls-200" d="M158.29,151.45l.58-.26c-.13-.47-.26-1-.4-1.55l-.57.25C158,150.45,158.17,151,158.29,151.45Z"/><path id="path4089" class="cls-121" d="M157.9,149.89l.57-.25c-.14-.56-.27-1.17-.41-1.81l-.57.23C157.62,148.71,157.76,149.32,157.9,149.89Z"/><path id="path4091" class="cls-184" d="M159.53,153.34a8,8,0,0,0,3.3-2.74,5.86,5.86,0,0,1-.24-.69,9,9,0,0,1-3.36,2.53C159.34,152.8,159.44,153.11,159.53,153.34Z"/><path id="path4093" class="cls-198" d="M159.23,152.44a9,9,0,0,0,3.36-2.53c-.09-.29-.18-.63-.28-1a11.42,11.42,0,0,1-3.44,2.3c.13.47.25.89.36,1.25Z"/><path id="path4095" class="cls-157" d="M158.87,151.19a11.42,11.42,0,0,0,3.44-2.3c-.1-.4-.2-.84-.31-1.32a14.22,14.22,0,0,1-3.53,2.07c.14.56.27,1.08.4,1.55Z"/><path id="path4097" class="cls-123" d="M158.47,149.64a14.22,14.22,0,0,0,3.53-2.07c-.11-.49-.22-1-.34-1.57a15.63,15.63,0,0,1-3.6,1.83c.14.64.27,1.25.41,1.81Z"/><path id="path4099" class="cls-201" d="M162.83,150.6a6.7,6.7,0,0,1,1.1-1.16,6.79,6.79,0,0,1-.17-.73,8.31,8.31,0,0,0-1.17,1.2A5.86,5.86,0,0,0,162.83,150.6Z"/><path id="path4101" class="cls-147" d="M162.59,149.91a8.31,8.31,0,0,1,1.17-1.2c-.06-.3-.12-.66-.19-1.07a12.34,12.34,0,0,0-1.26,1.25C162.41,149.28,162.5,149.62,162.59,149.91Z"/><path id="path4103" class="cls-177" d="M162.31,148.89a12.34,12.34,0,0,1,1.26-1.25c-.07-.4-.14-.85-.22-1.35-.46.3-.83.85-1.35,1.28.11.48.21.92.31,1.32Z"/><path id="path4105" class="cls-129" d="M162,147.57c.52-.43.89-1,1.35-1.28-.08-.49-.17-1-.26-1.59-.47.28-.87.87-1.43,1.3C161.78,146.56,161.89,147.08,162,147.57Z"/><path id="path4107" class="cls-202" d="M163.93,149.44a10.87,10.87,0,0,0,2.18-2.94c-.06-.31-.14-.63-.21-.95a10.36,10.36,0,0,1-2.14,3.16,6.79,6.79,0,0,0,.17.73Z"/><path id="path4109" class="cls-191" d="M163.76,148.71a10.36,10.36,0,0,0,2.14-3.16c-.08-.33-.15-.67-.23-1a9.65,9.65,0,0,1-2.1,3.11c.07.41.13.77.19,1.07Z"/><path id="path4111" class="cls-203" d="M163.57,147.64c-.14-.8-.29-1.81-.48-2.94a5.29,5.29,0,0,0,1-1c.17,1,.34,1.92.49,2.68A4.68,4.68,0,0,1,163.57,147.64Z"/><path id="path4113" class="cls-189" d="M164.62,146.41c-.15-.76-.32-1.66-.49-2.68.36-.43.73-.93,1.09-1.43.14.78.29,1.52.45,2.23C165.33,145.19,165,145.85,164.62,146.41Z"/><path id="path4115" class="cls-204" d="M166.11,146.5c.35-.61.66-1.22.92-1.77-.08-.38-.15-.75-.23-1.1-.26.58-.57,1.25-.9,1.92.07.32.15.64.21.95Z"/><path id="path4117" class="cls-205" d="M165.9,145.55c.33-.67.64-1.34.9-1.92-.07-.36-.15-.69-.22-1-.26.57-.58,1.24-.91,1.91.08.35.15.69.23,1Z"/><path id="path4119" class="cls-206" d="M167,144.74c-.15-.78-.31-1.48-.45-2.12.27-.57.49-1,.65-1.31.11.56.24,1.22.4,2.07C167.5,143.71,167.29,144.19,167,144.74Z"/><path id="path4121" class="cls-134" d="M165.67,144.53c-.16-.71-.31-1.45-.45-2.23l1-1.43c.1.54.23,1.11.37,1.75C166.32,143.19,166,143.86,165.67,144.53Z"/><path id="path4123" class="cls-207" d="M166.58,142.62c-.14-.64-.27-1.21-.37-1.75a11.12,11.12,0,0,1,.72-1c.09.42.19.86.3,1.41-.16.27-.38.74-.65,1.31Z"/><path id="path4125" class="cls-108" d="M147.24,145c-1.08-2.17-3.49-6.67-5.23-9.32a35.61,35.61,0,0,0,7.13,5.37,52.57,52.57,0,0,1,2.59,6.86A14.4,14.4,0,0,1,147.24,145Z"/><path id="path4127" class="cls-151" d="M151.73,148a7.77,7.77,0,0,0,3.72.76,21.63,21.63,0,0,1-.35-3.16,11.88,11.88,0,0,1-4.64-1.31C150.9,145.44,151.33,146.72,151.73,148Z"/><path id="path4129" class="cls-108" d="M150.46,144.24a11.88,11.88,0,0,0,4.64,1.31c0-.77,0-1.29,0-1.67-.75.06-3.28-1.15-6-2.79A30.71,30.71,0,0,1,150.46,144.24Z"/><path id="path4131" class="cls-152" d="M155.45,148.71a9.7,9.7,0,0,0,1.71-.51,16.52,16.52,0,0,1-.15-3.11,9.79,9.79,0,0,1-1.91.46A21.63,21.63,0,0,0,155.45,148.71Z"/><path id="path4133" class="cls-110" d="M155.1,145.55a9.79,9.79,0,0,0,1.91-.46,15.92,15.92,0,0,1,.21-1.68,11.56,11.56,0,0,1-2.09.47C155.13,144.26,155.08,144.78,155.1,145.55Z"/><path id="path4135" class="cls-153" d="M157.16,148.2l.33-.14a15,15,0,0,1-.11-3.1l-.37.13a16.52,16.52,0,0,0,.15,3.11Z"/><path id="path4137" class="cls-154" d="M157,145.09l.37-.13c.06-.77.17-1.3.23-1.68-.12.05-.26.09-.39.13A15.92,15.92,0,0,0,157,145.09Z"/><path id="path4139" class="cls-155" d="M157.49,148.06l.94-.38a13.91,13.91,0,0,1-.05-3.06c-.27.08-.62.2-1,.34a15,15,0,0,0,.11,3.1Z"/><path id="path4141" class="cls-154" d="M157.38,145c.38-.14.73-.26,1-.34a16.05,16.05,0,0,1,.28-1.64,7.39,7.39,0,0,0-1,.3C157.55,143.66,157.44,144.19,157.38,145Z"/><path id="path4143" class="cls-120" d="M158.43,147.68c.57-.23,1.14-.47,1.69-.75a11.29,11.29,0,0,1-.07-3,5.89,5.89,0,0,1-1.67.72,13.91,13.91,0,0,0,.05,3.06Z"/><path id="path4145" class="cls-112" d="M158.38,144.62a5.89,5.89,0,0,0,1.67-.72c.08-.76.22-1.29.24-1.68a2.86,2.86,0,0,1-1.63.76A16.05,16.05,0,0,0,158.38,144.62Z"/><path id="path4147" class="cls-138" d="M160.12,146.93a9.13,9.13,0,0,0,1.54-.93,17.44,17.44,0,0,1-.27-3.13,13.59,13.59,0,0,1-1.34,1A11.29,11.29,0,0,0,160.12,146.93Z"/><path id="path4149" class="cls-136" d="M160.05,143.9a13.59,13.59,0,0,0,1.34-1c0-.81.05-1.4,0-1.81-.39.36-.71.8-1.12,1.16,0,.39-.16.92-.24,1.68Z"/><path id="path4151" class="cls-156" d="M161.66,146c.56-.43,1-1,1.43-1.3a13.86,13.86,0,0,1-.17-2.84,4.34,4.34,0,0,0-1.53,1,17.44,17.44,0,0,0,.27,3.13Z"/><path id="path4153" class="cls-162" d="M161.39,142.87a4.34,4.34,0,0,1,1.53-1c0-.72.12-1.23.11-1.55a2.47,2.47,0,0,0-1.62.75c0,.41,0,1,0,1.81Z"/><path id="path4155" class="cls-157" d="M163.09,144.7a13.86,13.86,0,0,1-.17-2.84,3.45,3.45,0,0,0,1-.62,14.37,14.37,0,0,0,.21,2.49,5.29,5.29,0,0,1-1,1Z"/><path id="path4157" class="cls-130" d="M164.13,143.73a14.37,14.37,0,0,1-.21-2.49,11.68,11.68,0,0,0,1-1c.06.58.13,1.23.28,2C164.86,142.8,164.49,143.3,164.13,143.73Z"/><path id="path4159" class="cls-174" d="M162.92,141.86c0-.72.12-1.23.11-1.55a1.5,1.5,0,0,0,.9-.53c0,.38,0,.83,0,1.46a3.59,3.59,0,0,1-1,.62Z"/><path id="path4161" class="cls-208" d="M163.92,141.24a11.66,11.66,0,0,0,0-1.46,7.76,7.76,0,0,0,.8-1.08,13.63,13.63,0,0,1,.22,1.56,13.29,13.29,0,0,1-1,1Z"/><path id="path4163" class="cls-133" d="M165.22,142.3c-.15-.81-.22-1.46-.28-2l.93-1c.12.53.22,1,.34,1.6l-1,1.43Z"/><path id="path4165" class="cls-150" d="M166.21,140.87c-.12-.55-.22-1.07-.34-1.6a5.42,5.42,0,0,1,.74-.66c.12.45.22.85.32,1.29a11.12,11.12,0,0,0-.72,1Z"/><path id="path4167" class="cls-209" d="M164.94,140.26c-.06-.57-.11-1.07-.21-1.56.25-.4.49-.79.73-1.11.16.61.29,1.15.41,1.68l-.93,1Z"/><path id="path4169" class="cls-210" d="M165.87,139.27c-.12-.53-.25-1.07-.41-1.68a1.52,1.52,0,0,1,.69-.61c.2.66.34,1.17.46,1.63A5.42,5.42,0,0,0,165.87,139.27Z"/><path id="path4171" class="cls-108" d="M142,135.72c3,3.31,11.63,8.29,13.12,8.16,0-.29-.07-1-.17-2.07-2.12-.57-9.82-5-12.84-8a4.2,4.2,0,0,0-.11,1.87Z"/><path id="path4173" class="cls-108" d="M142.12,133.85c3,3,10.72,7.39,12.84,8-.44-4.36-1.61-14-1.88-18.52a9.83,9.83,0,0,0-7.73,3.37A15.19,15.19,0,0,0,142.12,133.85Z"/><path id="path4175" class="cls-108" d="M155.13,143.88a11.56,11.56,0,0,0,2.09-.47c-.18-2.81-1.89-14.41-2.95-20.1-.46,0-.79,0-1.19,0,.33,5.57,2,19.09,2,20.59Z"/><path id="path4177" class="cls-108" d="M157.22,143.41l.25-.08c-.22-2.93-1.94-14.33-3.1-20h-.1c1.06,5.69,2.77,17.29,2.95,20.1Z"/><path id="path4179" class="cls-108" d="M157.47,143.33a9.7,9.7,0,0,1,1.19-.35c-.15-1.85-.65-5.31-1.31-9-.24,0-.71.33-1.08.41C156.87,138.28,157.36,141.87,157.47,143.33Z"/><path id="path4181" class="cls-108" d="M156.27,134.36c.37-.08.84-.42,1.08-.41-.66-3.72-1.48-7.69-2.26-10.55q-.36-.06-.72-.09C155,126.16,155.67,130.43,156.27,134.36Z"/><path id="path4183" class="cls-151" d="M158.66,143a3.42,3.42,0,0,0,2.23-1.38c-.07-1.32-.22-2.74-.43-4.22-.61.83-1.24,1.69-2.26,1.79C158.43,140.73,158.59,142.06,158.66,143Z"/><path id="path4185" class="cls-108" d="M158.2,139.17c1-.1,1.65-1,2.26-1.79-.21-1.48-.48-3-.82-4.56a4.21,4.21,0,0,1-2.29,1.13C157.68,135.81,158,137.61,158.2,139.17Z"/><path id="path4187" class="cls-108" d="M157.35,134a4.21,4.21,0,0,0,2.29-1.13,49,49,0,0,0-2.85-8.93,8.1,8.1,0,0,0-1.7-.49C155.87,126.26,156.69,130.23,157.35,134Z"/><path id="path4189" class="cls-136" d="M160.89,141.6a5.94,5.94,0,0,1,.89-.85c-.08-1.59-.19-3.08-.36-4.51a7.31,7.31,0,0,0-1,1.14c.21,1.48.36,2.9.43,4.22Z"/><path id="path4191" class="cls-112" d="M160.46,137.38a7.31,7.31,0,0,1,1-1.14,35.53,35.53,0,0,0-.73-4.13,7.19,7.19,0,0,0-1.05.71c.34,1.54.61,3.08.83,4.56Z"/><path id="path4193" class="cls-162" d="M161.78,140.75a2.49,2.49,0,0,1,1.25-.44c-.08-1.72-.2-3.23-.4-4.61a1.88,1.88,0,0,0-1.21.54C161.59,137.67,161.7,139.16,161.78,140.75Z"/><path id="path4195" class="cls-163" d="M161.42,136.24a1.88,1.88,0,0,1,1.21-.54,24.8,24.8,0,0,0-.84-3.81,1.8,1.8,0,0,0-1.1.22A35.53,35.53,0,0,1,161.42,136.24Z"/><path id="path4197" class="cls-119" d="M159.64,132.82a3.05,3.05,0,0,1,2.15-.93,29.87,29.87,0,0,0-3.44-7.21,10.37,10.37,0,0,0-1.56-.79A49,49,0,0,1,159.64,132.82Z"/><path id="path4199" class="cls-164" d="M163,140.31a33.12,33.12,0,0,0-1.24-8.42,4,4,0,0,0,.81.12,30.79,30.79,0,0,1,1.33,7.77A1.5,1.5,0,0,1,163,140.31Z"/><path id="path4201" class="cls-157" d="M163.93,139.78A30.79,30.79,0,0,0,162.6,132c.23,0,.43,0,.61,0a30.67,30.67,0,0,1,1.52,6.69,8.65,8.65,0,0,1-.8,1.08Z"/><path id="path4203" class="cls-165" d="M161.79,131.89a29.87,29.87,0,0,0-3.44-7.21,9.67,9.67,0,0,1,1,.67,29.56,29.56,0,0,1,3.3,6.66A4,4,0,0,1,161.79,131.89Z"/><path id="path4205" class="cls-137" d="M162.6,132c.23,0,.43,0,.61,0a25.17,25.17,0,0,0-1.27-2.93c-.21-.11-.44-.21-.69-.32A24.3,24.3,0,0,1,162.6,132Z"/><path id="path4207" class="cls-141" d="M161.25,128.76c.25.11.48.21.69.32a32.93,32.93,0,0,0-1.69-2.91c-.31-.29-.63-.57-.95-.82C160.06,126.56,160.71,127.68,161.25,128.76Z"/><path id="path4209" class="cls-166" d="M164.73,138.7a30.81,30.81,0,0,0-1.52-6.69,2.12,2.12,0,0,1,.56,0,36.38,36.38,0,0,1,1.69,5.54c-.24.32-.48.71-.73,1.11Z"/><path id="path4211" class="cls-167" d="M165.46,137.59a1.52,1.52,0,0,1,.69-.61c-.24-.82-.5-1.62-.79-2.39a1.2,1.2,0,0,0-.64.17c.28.92.52,1.87.74,2.83Z"/><path id="path4213" class="cls-168" d="M164.72,134.76a1.2,1.2,0,0,1,.64-.17c-.29-.78-.6-1.53-1-2.27a2.53,2.53,0,0,0-.64-.27C164.12,132.93,164.44,133.83,164.72,134.76Z"/><path id="path4215" class="cls-169" d="M163.21,132a1.92,1.92,0,0,1,1.2.32c-.34-.74-.71-1.45-1.12-2.15a4.43,4.43,0,0,0-1.35-1.1A25.17,25.17,0,0,1,163.21,132Z"/><path id="path4217" class="cls-170" d="M161.94,129.08a4.43,4.43,0,0,1,1.35,1.1c-.4-.69-.84-1.37-1.31-2a16.47,16.47,0,0,0-1.73-2A32.93,32.93,0,0,1,161.94,129.08Z"/></g></g></g></g></g></g><g id="g4219"><g id="g4221"><g id="g4227"><g id="g4229"><path id="path4237" class="cls-211" d="M139.34,144.19a50.68,50.68,0,0,1-9.09,6.81h0c-.85.54-1.19.9-1.19,1.91h0c0,.24.1.39.27.39h0a7.79,7.79,0,0,1,2-.51h0c2.83,0,5.73,3.24,9.11,3.24h0c4.18,0,10.44-5,12-6.15h0l.31.37c-2.38,2.63-11.42,9.89-14.79,9.89h0c-1.95,0-3-.53-3-1.2h0c0-.93,1.47-2,2.23-2.62h0l-.7-.33h0c-.59.43-2.86,2-2.86,3.46h0c0,1.7,2.29,2.28,4.34,2.28h0a9.82,9.82,0,0,0,4.58-1.53h0a106,106,0,0,0,10.44-7.56h0c1.81-1.57,2.41-2.91,2.41-4.64h0c0-2.26-4.06-2.88-4.4-8.37h0c-.22-3.64-.5-4.74-1-4.74h0c-.92,0-1.74,2.25-4.41,2.25h0c-2,0-1.52-2.69-2-2.69h0c-1,0-.89,6.61-4.15,9.74"/></g></g></g></g><g id="g4239"><g class="cls-2"><g id="g4241"><g id="g4247"><path id="path4249" class="cls-108" d="M140.41,156c4.18,0,10.44-5,12-6.15l.31.37c-2.38,2.63-11.42,9.89-14.79,9.89Z"/></g><g id="g4251"><path id="path4253" class="cls-107" d="M158.44,136.49c-1.11,0-1.49-.79-1.49-1.74,0-1.36.51-2.6,1.45-2.6.79,0,1.35,1.09,1.37,2.65,0,1-.54,1.69-1.33,1.69"/></g></g></g></g></g></svg>