<svg id="Layer_1" data-name="Layer 1" xmlns="http://www.w3.org/2000/svg" viewBox="0 0 300 300"><defs><style>.cls-1{fill:#fff;fill-rule:evenodd;}</style></defs><g id="navyblue"><path id="Layer" class="cls-1" d="M30.86,85.36q76.05-.1,152.12,0h86.16V214.67q-119.14,0-238.28,0,0-64.68,0-129.31Zm10,9.94V204.64H259.15q0-54.66,0-109.34Zm157.13,17.32A38.7,38.7,0,0,1,218.08,115c6.07,2.52,11,7.09,15.37,11.93-2.6,2.54-5.25,5-7.86,7.57a30.52,30.52,0,0,0-11.51-9.77,26,26,0,0,0-15.66-1.66,26.79,26.79,0,0,0-20.21,18,31,31,0,0,0-.79,14.58,25.09,25.09,0,0,0,6.64,12.84,28.57,28.57,0,0,0,13.46,8.1,22.54,22.54,0,0,0,14-1,24.21,24.21,0,0,0,9.25-7.09,18.78,18.78,0,0,0,4-9.73c-6-.05-12,0-18,0V148.44h30a58.78,58.78,0,0,1-1.52,15.43,30.67,30.67,0,0,1-7.62,13.4,33.12,33.12,0,0,1-11.56,8,36.62,36.62,0,0,1-17,2.24,34.34,34.34,0,0,1-16.43-5.9c-7.59-5.27-13.52-13.19-15.63-22.28a41,41,0,0,1,.37-19.9,38.3,38.3,0,0,1,15.82-21.24,35.89,35.89,0,0,1,14.85-5.56ZM56.79,186.29Q73.65,150,90.5,113.65h4.22Q111,150,127.22,186.29c-4,0-8.06.06-12.09,0-2.45-5.88-5-11.7-7.53-17.56H76.72c-2.69,5.84-5.39,11.68-8,17.56-4,.09-7.94,0-11.91,0Zm35.6-52.4c-3.68,8.16-7.43,16.27-11.09,24.45h19.6a15.11,15.11,0,0,0,2.23-.07c-3.55-8-7-16.06-10.5-24.06-.07-.08-.18-.24-.24-.31Zm46.14,52.4q0-36.31,0-72.64h10.94v72.64C145.83,186.29,142.18,186.3,138.53,186.29Z"/></g></svg>