<svg id="Layer_1" data-name="Layer 1" xmlns="http://www.w3.org/2000/svg" viewBox="0 0 300 300"><defs><style>.cls-1{fill:#fff;}</style></defs><path class="cls-1" d="M193.34,103.78c-3.18,7.75-6.08,14.81-9.07,22.11A425.92,425.92,0,0,0,34.62,140c-1.27-11.92,6.9-37.54,16.5-51.55A466.21,466.21,0,0,1,176.49,80Z"/><path class="cls-1" d="M198.57,208.79a253,253,0,0,1-31,1.11l-13-17.93A487.08,487.08,0,0,0,218.36,55.15a117.27,117.27,0,0,1,35,40.79A529.3,529.3,0,0,1,198.57,208.79Z"/><path class="cls-1" d="M199.34,256a115.29,115.29,0,0,1-52.07,11c-18.42-15.89-53.66-67-71.69-104l13-26L112.45,135A431.92,431.92,0,0,0,199.34,256Z"/><path class="cls-1" d="M120.48,71.86C99.38,73.39,78.72,75.66,58,79c30.6-43.55,98.34-62.55,153.28-28.52L196.53,94.8a488,488,0,0,0-46-58.82A214.43,214.43,0,0,0,120.48,71.86Z"/><path class="cls-1" d="M174.68,218.09c25.86-1.43,50.4-4.36,74.79-10.17a231,231,0,0,0-15.88-44,273.25,273.25,0,0,0,24-58.11c22.78,52.34.77,119.23-51.59,146.3Z"/><path class="cls-1" d="M49.62,207.81c15.36,3.78,31,5.81,46.88,8.26a385,385,0,0,0,39.14,50.07C112.6,263,93.12,254.43,76,240.4A113,113,0,0,1,51.2,212c-.77-1.25-2.53-2.35-1.44-4.29Z"/><path class="cls-1" d="M49.76,207.66c-.74.69-1.07.14-1.4-.45A116.48,116.48,0,0,1,33.48,148.4a179.31,179.31,0,0,1,44.8-9.33c-10.91,22.76-20.78,45.35-28.66,68.74Z"/></svg>