<svg id="Layer_1" data-name="Layer 1" xmlns="http://www.w3.org/2000/svg" viewBox="0 0 300 300"><defs><style>.cls-1{fill:#f08b21;}.cls-2{fill:#209ad6;}</style></defs><path class="cls-1" d="M102.37,172.92h-10L101,155.58h.12l1.25,17.34Zm.47,7.82.59,6.87h10.9l-3.62-40.09H94.49L74,187.61H85.08l3.43-6.87Z"/><polygon class="cls-1" points="129.6 170.08 131.2 170.08 139.01 159.54 149.08 159.54 138.3 173.04 144.94 187.61 134.22 187.61 129.9 176.24 128.3 176.24 125.87 187.61 116.69 187.61 125.16 147.52 134.4 147.52 129.6 170.08"/><path class="cls-1" d="M160.82,176c3,0,5,.24,4.5,2.55-.65,3-1.89,3.43-5.74,3.43-1.42,0-4,0-3.38-3,.54-2.54,2.37-3,4.62-3Zm2.55,11.61h9.18l3.73-17.53c2.07-9.65-1.66-10.83-11.08-10.83-6.57,0-12.9-.06-14.8,8.64h9.18c.53-2.55,2.07-3,4.38-3,4,0,3.85,1.66,3.26,4.26l-.95,4.44h-.42c-.35-3.19-4.38-3.13-7-3.13-6.63,0-10.6,2.07-12,8.82-1.54,7.16,1.89,8.7,8.29,8.7,3.2,0,7.52-.65,9-4.5h.29l-1.06,4.15Z"/><path class="cls-1" d="M191.18,159.54l-.83,4h.35c1.84-3.32,5.45-4.26,8.59-4.26,4,0,7.87.71,7.34,5.5H207c1.37-4,5.45-5.5,9-5.5,6.46,0,9.24,2.66,7.82,9.17l-4,19.16h-9.17l3.43-16.23c.47-3,.95-5.09-2.6-5.09s-4.8,2.37-5.39,5.39l-3.38,15.93h-9.17l3.61-17c.41-2.54.65-4.32-2.55-4.32-3.79,0-4.91,2-5.62,5.39l-3.38,15.93h-9.18l6-28.07Z"/><path class="cls-1" d="M238.31,176c3,0,5,.24,4.49,2.55-.59,3-1.89,3.43-5.74,3.43-1.36,0-4,0-3.37-3,.53-2.54,2.37-3,4.62-3Zm2.51,11.63H250l3.73-17.53c2.07-9.65-1.66-10.83-11.07-10.83-6.58,0-13-.06-14.81,8.64H237c.53-2.55,2.07-3,4.38-3,4,0,3.85,1.66,3.26,4.26l-.83,4.44h-.41c-.36-3.19-4.39-3.13-7-3.13-6.63,0-10.6,2.07-12,8.82-1.54,7.16,1.9,8.7,8.29,8.7,3.2,0,7.52-.65,9.06-4.5h.29Z"/><path class="cls-1" d="M263.29,187.61h-9.18L260,159.54h9.18Z"/><path class="cls-2" d="M78.62,197.32a49.41,49.41,0,0,1,.65-94.85c2.14-.6,1.54-2-1-2a49.53,49.53,0,1,0,0,99.06h0C80.82,199.51,80.93,198,78.62,197.32Z"/><path class="cls-2" d="M52.87,161.55c-.12-1.3-.24-2.66-.24-4A39.29,39.29,0,0,1,91.9,118.24h0c20.54,0,26.7,9.17,27.47,8.58S112,108,87.82,108a39.29,39.29,0,0,0-39.31,39.27v.05a38.82,38.82,0,0,0,2.66,14.21C51.92,163.39,53.05,163.39,52.87,161.55Z"/><path class="cls-2" d="M69.33,133.25c10.18-4.44,23-4.55,35.64-.17,8.47,3,13.38,7.16,13.8,7,.65-.29-4.92-9.17-15-13a36,36,0,0,0-35,5.33C67.67,133.25,68.08,133.79,69.33,133.25Z"/><path class="cls-1" d="M271.28,151.79a5.15,5.15,0,1,1-5.15-5.16A5.16,5.16,0,0,1,271.28,151.79Z"/></svg>