<svg id="Layer_1" data-name="Layer 1" xmlns="http://www.w3.org/2000/svg" viewBox="0 0 300 300"><defs><style>.cls-1{fill:#fff;}</style></defs><title>ALB_Dark_bg</title><path class="cls-1" d="M52.49,246.88h97.68s8,1.72,14.16-8.12c4.68-7.48-1.22-17.91-1.22-17.91l-49-97.13c-3.42,6.83-4,13.68-4,19.37s2.42,13.92,6.86,22.25,21.51,40.49,21.51,40.49,8.84,17.25,9.27,20.53c.81,6.21-3.37,10.26-6.84,10.26H77.17c-9.85,0-13.47-7.21-13.7-12.84l-5.85,12.84Z"/><path class="cls-1" d="M189.32,246.88H168.79a22.73,22.73,0,0,0,6.87-10.26c1.71-5.7-1.82-14.1-1.82-14.1L118.76,113.63,128.45,95l62.31,121.36s7.52,14.21,5.4,20.29a27.15,27.15,0,0,1-6.84,10.26"/><path class="cls-1" d="M216.72,246.88H204.51s5.65-9,3.08-16.53a169,169,0,0,0-11.22-25L133.48,84.54,150,53l97.51,193.88Z"/></svg>