<svg id="Layer_1" data-name="Layer 1" xmlns="http://www.w3.org/2000/svg" viewBox="0 0 300 300"><defs><style>.cls-1{fill:#fff;}.cls-2{fill:#039bce;}</style></defs><title>ALGN_Dark_bg</title><path class="cls-1" d="M58.5,146.62c.37-1.51.68-3,1.12-4.51,3.56-12,16.9-17.94,27.66-12.31a19.55,19.55,0,0,1,4.32,3.26c.38-1.4.1-2.74.31-4.09h9.58v42.17H91.8v-4.21A26.52,26.52,0,0,1,87,170.32c-10.26,5.36-22.66.37-26.92-10.81a41.31,41.31,0,0,1-1.62-6.67Zm20.85-10c-3.61.1-7.13,2.15-9.18,6.33a15.92,15.92,0,0,0-.28,13.73,11.26,11.26,0,0,0,10.68,7,11.45,11.45,0,0,0,10.71-7.53,17.62,17.62,0,0,0,.8-9.05C91.13,140.79,86.45,136.6,79.35,136.61Z"/><path class="cls-1" d="M184,133.11l.23-4.14h9.69c0,.42.06.77.06,1.12,0,12.53.06,25.06,0,37.6,0,5.33-.95,10.5-4,15-3.41,5-8.39,7.39-14.2,8.19a34.44,34.44,0,0,1-19.31-2.62l-.85-.42,2.44-8.43a28.43,28.43,0,0,0,11.71,3.25c8.36.48,14.25-4.82,14.42-13.18,0-.75,0-1.49,0-2.53a18.91,18.91,0,0,1-29.81-3.75c-5.39-8.83-4.48-21.51,2.1-29.11,6.28-7.26,18-8.58,25.5-2.86C182.58,131.78,183.18,132.38,184,133.11Zm-23.08,17.07a15.18,15.18,0,0,0,.87,5.4,11.57,11.57,0,0,0,22.08-.16,17.84,17.84,0,0,0,.37-9.34,11.61,11.61,0,0,0-10-9.42,11.28,11.28,0,0,0-11.83,6.54A15.47,15.47,0,0,0,160.91,150.18Z"/><path class="cls-1" d="M241.45,171.17h-9.8v-1.52c0-7.93,0-15.86,0-23.8a12.63,12.63,0,0,0-.35-3.07,8,8,0,0,0-9.07-6.13c-4.4.49-7.32,3.78-7.34,8.4,0,8.2,0,16.4,0,24.6v1.52h-9.83V129h9.37a25,25,0,0,1,.24,3.62,15.8,15.8,0,0,1,5.32-3.85A15.14,15.14,0,0,1,241.17,141a32.37,32.37,0,0,1,.31,4.17q0,12.71,0,25.42C241.49,170.74,241.47,170.92,241.45,171.17Z"/><path class="cls-1" d="M122.42,171.18h-9.69V109.77h9.69Z"/><path class="cls-1" d="M133.66,128.94h9.64v42.23h-9.64Z"/><path class="cls-2" d="M138.51,108.72a6.14,6.14,0,0,1,6.18,6.18,6.18,6.18,0,0,1-12.35,0A6.09,6.09,0,0,1,138.51,108.72Z"/></svg>