<svg id="Layer_1" data-name="Layer 1" xmlns="http://www.w3.org/2000/svg" viewBox="0 0 300 300"><defs><style>.cls-1{fill:#fff;isolation:isolate;}</style></defs><title>ALK_Dark_bg</title><path class="cls-1" d="M128.53,111.15c-2.28,3.75-4.47,7.32-6.63,10.91q-12.3,20.43-24.57,40.88a36.66,36.66,0,0,0-5.27,14.43c0,.29-.11.58-.17.92H80.19c.22-1.19.38-2.33.63-3.45a53.47,53.47,0,0,1,6.91-15.78c6.36-10.42,12.83-20.78,19.25-31.16.2-.32.39-.66.59-1l-.19-.16L80.25,146.3H93.19a6,6,0,0,1-.47.78c-3.22,4-7.26,6.38-12.53,6.45q-4.64.06-9.27.3a4,4,0,0,0-2,.68q-16.17,11.58-32.3,23.24a3.35,3.35,0,0,1-2.12.71c-3.93,0-7.87,0-11.8,0h-1l-.09-.21L54.3,154.7l0-.24-31.82,1.21c.33-.36.48-.56.66-.72,1.43-1.33,2.91-2.6,4.28-4a14.82,14.82,0,0,1,10.53-4.39c7.72-.19,15.46-.32,23.18-.15a13.49,13.49,0,0,0,8.83-2.85c11.33-8.33,22.81-16.47,34.27-24.63a42.5,42.5,0,0,1,12.16-6.39A38.87,38.87,0,0,1,128.53,111.15Z"/><path class="cls-1" d="M229.35,188.78c-3.15.15-6.13.27-8.77-1.57a10.13,10.13,0,0,1-4.14-6c-1.59-6.06-3.22-12.11-4.83-18.16-.06-.26-.16-.51-.29-.93-.27.44-.47.73-.65,1-2.85,4.78-5.71,9.56-8.53,14.35a1.41,1.41,0,0,1-1.42.83c-3.29,0-6.58,0-10.05,0,.21-.39.35-.67.51-.94l30.32-51.27a21.37,21.37,0,0,1,5.58-6.67c3.29-2.41,7.06-2.88,11.18-2.74l-20.41,34.39.14.12c.28-.17.55-.33.82-.51,4.51-3.1,9-6.21,13.54-9.28a3.41,3.41,0,0,1,1.75-.55c3.32,0,6.65,0,10,0,.32,0,.64,0,1.19.06-.47.34-.75.56-1,.76q-11.94,8.24-23.89,16.45a1.16,1.16,0,0,0-.55,1.62q4.64,13.92,9.2,27.86C229.1,188,229.2,188.31,229.35,188.78Z"/><path class="cls-1" d="M171,141.51c-.29.51-.53.94-.79,1.36-3.94,6.55-7.93,13.08-11.82,19.66a40.48,40.48,0,0,0-5.74,15.73H142.15l.38-4.67c-1.63.84-3.23,1.76-4.9,2.51a27.09,27.09,0,0,1-9.86,2.63,8.61,8.61,0,0,1-1.61-.06c-3.1-.45-4.55-2.66-3.55-6.15a63.53,63.53,0,0,1,3.51-9.06,50.33,50.33,0,0,1,10-14.89,25.72,25.72,0,0,1,18.62-7.84c5.17,0,10.34.39,15.51.61A5.06,5.06,0,0,1,171,141.51Zm-14.38,5.72c-.44,0-.66-.06-.89-.06a16.2,16.2,0,0,0-11.81,4.76c-4.39,4.1-7.43,9.13-10,14.47a6.36,6.36,0,0,0-.53,1.72c-.31,1.93.73,2.95,2.67,2.67a15.28,15.28,0,0,0,7.42-3.6,12,12,0,0,0,2.59-2.88c2.51-3.92,4.92-7.91,7.37-11.87C154.42,150.76,155.46,149.08,156.59,147.23Z"/><path class="cls-1" d="M260.09,178.29H249.63c.12-1.58.24-3.12.37-4.76-.23.12-.48.23-.71.38a32.93,32.93,0,0,1-12.65,4.7,11.8,11.8,0,0,1-2.91.06,4,4,0,0,1-3.88-4.76,13.23,13.23,0,0,1,.66-3.24,65.62,65.62,0,0,1,11.06-19.95c5.63-6.69,12.82-10.16,21.61-10,4.83.08,9.66.42,14.5.65a5.37,5.37,0,0,1,.71.14c-.22.39-.4.7-.58,1-4,6.71-8.06,13.39-12,20.13A40.19,40.19,0,0,0,260.09,178.29Zm4-31.07a16.17,16.17,0,0,0-12.64,4.68c-4.43,4.1-7.47,9.18-10.08,14.54a5.82,5.82,0,0,0-.52,1.93c-.17,1.81.81,2.67,2.62,2.43A16.56,16.56,0,0,0,254,163.63c3-5.17,6.26-10.23,9.41-15.34C263.6,148,263.77,147.68,264,147.22Z"/><path class="cls-1" d="M147.25,114.32l-3.75,6.29q-13.11,22-26.2,44a32.67,32.67,0,0,0-4.39,13c0,.48-.1.91-.79.9-3.42,0-6.85,0-10.28,0a2.9,2.9,0,0,1-.46-.14c.2-1.09.37-2.2.62-3.29a50.41,50.41,0,0,1,6-14.31c7.46-12.65,15-25.25,22.56-37.85a18.58,18.58,0,0,1,5.4-6C139.34,114.5,143.14,114.16,147.25,114.32Z"/><path class="cls-1" d="M202.46,141.34c-1.06,1.79-2.19,3.42-3,5.19a3.25,3.25,0,0,1-3.87,2.11,59.41,59.41,0,0,0-8.75-.1,7.39,7.39,0,0,0-3.06.88c-1.76.93-1.88,2.69-.29,3.88s3,2,4.51,3c2.37,1.64,4.06,3.76,4.3,6.71a10.78,10.78,0,0,1-.4,3.47c-1.67,6.5-6.08,10.14-12.47,11.57-4.58,1-9.22.73-13.84.32-2.1-.19-4.18-.56-6.4-.86,1.54-2.6,3-5.06,4.47-7.47.15-.24.75-.33,1.11-.29,2.9.3,5.79.74,8.7.94a12.74,12.74,0,0,0,4-.47,5.51,5.51,0,0,0,2.31-1.34,2.7,2.7,0,0,0,0-4.3,38.28,38.28,0,0,0-3.09-2.42c-.91-.69-1.86-1.33-2.71-2.09-3-2.63-3.74-5.57-2.31-9.33s4.41-6.16,8-7.82a23.24,23.24,0,0,1,9.85-2.23c3.89,0,7.79.26,11.68.42C201.53,141.17,201.93,141.26,202.46,141.34Z"/></svg>