<svg id="Layer_1" data-name="Layer 1" xmlns="http://www.w3.org/2000/svg" viewBox="0 0 300 300"><defs><style>.cls-1{fill:#fff;}</style></defs><path class="cls-1" d="M149.77,64.21c-53.19,0-96.72,37.89-96.72,84.44s43.55,87.14,96.72,87.14c53.63,0,97.18-40.61,97.18-87.14S203.4,64.21,149.77,64.21Zm0,6c46.29,0,83.88,35.18,83.88,78.48s-37.59,81.16-83.88,81.16-83.89-37.88-83.89-81.16S103.48,70.17,149.77,70.17Z"/><path class="cls-1" d="M86.07,98.86l-4.15,4.87c.47,0,1.39,1.09,1.39,1.09.45,0,6.41,5.4,7.33,6.48-.47.53-2.76,8.12-2.76,8.12-2.28,6.48-4.59,13-4.59,17.86v1.08l1.84,11.37v.54c1.39,6.5,2.29,13,3.2,17.85,0,1.64,0,2.17.94,2.7,2.74,3.28,7.33,10.29,13.29,23.83,0,.53.45.53.45,1.09a8.82,8.82,0,0,0,1.83,3.25,3.64,3.64,0,0,0,4.6,0,19.08,19.08,0,0,0,6.41-8.67c.45.55,1.83,2.16,1.83,2.72-5,9.73,3.66,13.5,6.88,11.88-1.84,6,5,10.84,11,7.59.92,3.78,3.67,4.87,6.41,5.42a35.11,35.11,0,0,0,11.47.53c8.7-1.08,16.49-3.78,19.7-6a32.62,32.62,0,0,0,11.92-11.91l.91-1.08a10,10,0,0,0,2.29,3.78,8.45,8.45,0,0,0,5.51,3.26,3.75,3.75,0,0,0,2.75-2.7c2.76-8.12,9.17-17.86,14.21-24.34l.45-1.11c1.39-4.87,5-16.24,7.35-22.19l1.38-4.87v-1.08a22,22,0,0,0,.45-5.4c0-8.12-.92-15.71-3.2-22.2a31.69,31.69,0,0,0-2.78-7l-.9-2.17c1.39-2.7,5.5-6,8.72-8.12l.45-.53-4.12-4.89-2.76,2.17c-3.2,2.16-6,3.27-8.25,2.72,0-.56-2.28-2.17-2.28-2.17H202l.92,1.08a54.73,54.73,0,0,1,4.14,7l.45,1.63.92,2.15.91,3.25.45.54.47,1.63,1.84,7.57a136.06,136.06,0,0,1,2.74,20l-.45.53-2.29,7.57c-2.31,7.58-5.06,17.34-6,21.13v.53c-6.41,7.57-11,16.24-12.82,21.66-.47.53-.47.53-.47,1.08-.45,0-1.36-1.08-1.82-1.63-1.38-1.64-2.3-4.87-2.3-8.66a13,13,0,0,1,4.59-10.28,3.11,3.11,0,0,0,.45-1.64c-.92-5.4.47-13,3.21-15.14l.46-.55-.46-.53c-8.25-7-11.9-19.49-12.37-29.25v-1.07l-.92.56c-.45,0-.92,1.08-.92,1.08,0,1.64-.45,3.79-.45,5.4a43.5,43.5,0,0,0,1.37,10.84,30.41,30.41,0,0,0,6.88,14.05v.56c-1.39,2.17-2.29,7-2.29,10.82a8.13,8.13,0,0,0,.45,3.25c-3.65,3.23-4.57,8.1-5,11.35v3.27l-1.86,2.7v.54c-3.65,5.4-5.94,9.2-11.9,12.43-6.41,3.79-18.34,6.51-26.59,5.42a3.38,3.38,0,0,1-2.76-3.25c0-.53.47-1.08.47-1.61l.9-.56c7.35.56,14.68-.53,17.88-2.14l.94-1.64.45-.53h-.92c-6.41,1.63-19.25-.56-25.68-3.81-7.79-3.78-10.08-7-16-16.24l-1.83-2.7a19.27,19.27,0,0,0-1.37-7,22.64,22.64,0,0,0-3.21-3.81,22.31,22.31,0,0,0,.92-5.93,20.92,20.92,0,0,0-1.38-8.14q6.89-5.68,6.87-13a18,18,0,0,0-1.37-5.4l-1.83-1.08.45,1.63c.47,7.57-6,13-10.53,16.22l-.92,1.64h.45c3.67,2.68,3.67,10.8,2.75,15.69l.47.53,1.84,1.64c3.2,5.4,2.73,13.52-.92,17.85-.92,1.09-.92,1.09-1.39,1.09s-.92-1.64-.92-2.17l-1.36-2.17a97.67,97.67,0,0,0-11-21.11l-.46-.55q-1.22-12.82-3.66-25.43l-.92-3.78v-1.08c.45-8.13,2.29-14.08,5-21.11l1.39-4.34,1.37-3.78V107a76.93,76.93,0,0,1,6-6.5l1.37-1.08-1.84-.54a19.74,19.74,0,0,0-5,2.17h-.47c-2.31,1.09-4.59,2.15-6.41,1.07,0,0-4.14-2.7-4.59-3.24ZM120,195.74a61.6,61.6,0,0,0,5.51,5.4C120.44,202.22,118.6,198.44,120,195.74Zm8.26,7.56c2.29,1.64,6,2.7,9.17,3.79-6.88,3.8-11,.55-9.19-3.79Z"/><path class="cls-1" d="M116.76,77.2l1.39,1.64,3.66,3.78,2.28,2.7c1.84,1.64,2.31,2.7,2.31,3.25,0,0-.47.54-.92.54l-.47.55-.45,1.64h.92c5.49-.56,10.08,3.78,13.29,7,5.95,6,10.08,15.71,11,24.89l4.12,26,1.84,3.81.45,1.06.46,1.64c.92,1.63,1.84,2.7,1.84,3.25l2.29,1.61,3.2,3.79.92,1.08,1.39,1.64c0,.53,4.57,1.06,4.57,1.06,7.8,1.09,7.33,6,7.33,6s4.59-7.57-6.41-10.83c0,0-3.21-.53-3.67-.53l-.92-2.17c-.45,0-.45-.53-.45-.53l-3.68-3.8-1.38-1.09a42.65,42.65,0,0,0-1.35-4.31l-1.84-5.44a61.49,61.49,0,0,1-1.39-8.12l-.45-2.11-1.38-10.84.47-2.15a41.75,41.75,0,0,1,4.12-13.54,25.67,25.67,0,0,1,7.33-9.2c3.67-2.7,9.18-4.32,11.92-4.87,1.38,0,1.38-1.09,1.83-1.64v-.53h-.45a17.73,17.73,0,0,0-3.67-1.08v-.54a7.53,7.53,0,0,0,.92-1.63L180,87l1.39-1.64s5.94-6.48,6.41-7.57l-5.51-1.63-6,7c-3.65,4.34-8.24,9.76-10.08,10.85-5,2.14-10.08,8.1-12.37,13l-1.39,4.32c-1.37-4.87-3.2-9.2-5.94-12.44A24.87,24.87,0,0,0,136,90.21c-2.27-2.72-10.06-10.84-14.2-14.62Z"/><path class="cls-1" d="M149.77,153.52a11,11,0,0,0-.45-4.87l-.47,1.64a7.17,7.17,0,0,1-4.13,4.29l-.46.55,7.79,13,.47.56,1.84,2.7,3.2,2.16.92.54,3.66,2.72,3.2,2.16h.47l5,.54c2.75,0,4.59,1.63,5.51,2.16,2.74,2.7,1.37,6.49,1.37,6.49s4.12-4.32,1.38-9.21c-.93-1.61-2.3-3.23-6.42-3.78l-5.05-1.06-2.75-2.17-3.67-2.17-.9-.55-2.78-1.62Z"/><path class="cls-1" d="M145.18,181.11l.91.55,3.23,1.64c2.28,1.06,5,2.68,6.41,3.23l3.67,2.7c.45,0,4.12-.53,6.41,0a9,9,0,0,1,6.88,3.25,6.69,6.69,0,0,1-.47,6c.47-.54,3.67-2.7,3.67-7-.45-3.78-3.2-7-14.2-7l-2.76-2.16-.92-.54-4.57-2.72-4.12-1.61-.92-1.64c-1.39-2.7-3.22-5.4-4.59-7.57l-.45-.53s-2.78-4.34-2.78-4.87a15.05,15.05,0,0,0,0-4.87,9.39,9.39,0,0,1-1.36,2.15c-.45,1.09-2.74,2.72-4.13,3.28l-.45.51,9.62,15.13Z"/><path class="cls-1" d="M132.81,187.06l1.83,2.17,3.67,2.17,3.21,2.17H142l2.3,1.63,3.66,2.15a1.32,1.32,0,0,0,.92.55l5-.55c3.2,0,6.41,0,8.71,1.09a3.71,3.71,0,0,1,1.84,4.33s2.74-2.17,2.29-4.89c-.47-2.14-2.76-4.86-10.09-5.4h-6.41L147,190.32l-1.38-1.09a41.15,41.15,0,0,1-4.58-2.7l-3.2-1.08c0-.55-2.29-4.34-2.29-4.34l-.92-1.63-2.75-4.3-1.39-1.64a12.14,12.14,0,0,0-1.37-2.7,13.81,13.81,0,0,0,1.39-5.42l-1.39,1.64c-.92,1.08-4.12,2.7-6.41,3.23h-.91l7.32,11.37Z"/></svg>