<svg xmlns="http://www.w3.org/2000/svg" viewBox="0 0 300 300"><g id="layer"><path d="M105.47169,170.75472v6.95417H50V122.2372h55.41779v48.51752Zm124.69-48.51752h-55.4178v55.47169h55.4178V122.2372ZM167.84366,59.91914H112.372v55.41779h55.41779V59.91914Zm-62.372,0A55.40046,55.40046,0,0,0,50.0539,115.33693h55.41779Zm124.69,55.41779a55.40045,55.40045,0,0,0-55.41778-55.41779v55.41779ZM50,184.60915a55.40045,55.40045,0,0,0,55.41779,55.41778V184.60915Zm62.372,55.47171a55.40045,55.40045,0,0,0,55.41779-55.41778H112.372Zm62.372-55.47171a55.40045,55.40045,0,0,0,55.4178,55.41778V184.60915Z" fill="#fff"/><path d="M239.1644,240.027V233.8814h-2.318v-.80863h5.55255v.80863h-2.318V240.027Zm4.15095,0v-7.00809H244.717l1.67116,4.95958c.16172.48517.26955.80862.32346,1.02425.05391-.26954.21563-.64691.37736-1.13208l1.67116-4.85175H250V240.027h-.91645v-5.876l-2.04851,5.876h-.80864l-1.99462-5.92992V240.027Z" fill="#fff"/></g></svg>