<svg id="Layer_1" data-name="Layer 1" xmlns="http://www.w3.org/2000/svg" viewBox="0 0 300 300"><defs><style>.cls-1{fill:#549abc;}</style></defs><title>Artboard 33</title><path class="cls-1" d="M178.89,107.34H66L52.5,120.89v58.68c0,34.31,26.18,62.74,60,66.8l12.64-12.63-3.61-.45c-30.7,0-55.52-23.93-55.52-53.72V120.89H80v58.68c0,22.11,18.5,40.17,41.53,40.17h17.15l13.09-13.09H121.56A27.26,27.26,0,0,1,94,179.57V120.89h13.54v58.68c0,7.22,6.32,13.54,14,13.54h43.79l13.08-13.54H121.56V120.89h57.33V246.82h13.54V120.89a13.58,13.58,0,0,0-13.54-13.55M247.5,246.82V120.89c0-37.47-30.69-67.71-68.61-67.71H119.3L105.76,66.72h73.13c30.24,0,55.06,24.37,55.06,54.17V246.82ZM178.89,80.26H92.67L79.13,93.8h99.76A27.17,27.17,0,0,1,206,120.89V246.82h14V120.89C220,98.32,201.46,80.26,178.89,80.26Z"/></svg>