<?xml version="1.0" encoding="utf-8"?>
<!-- Generator: Adobe Illustrator 24.2.3, SVG Export Plug-In . SVG Version: 6.00 Build 0)  -->
<svg version="1.1" id="Layer_1" xmlns="http://www.w3.org/2000/svg" xmlns:xlink="http://www.w3.org/1999/xlink" x="0px" y="0px"
	 viewBox="0 0 300 300" style="enable-background:new 0 0 300 300;" xml:space="preserve">
<style type="text/css">
	.st0{fill:#FFFFFF;}
	.st1{clip-path:url(#SVGID_2_);}
	.st2{fill:url(#SVGID_3_);}
	.st3{clip-path:url(#SVGID_5_);}
	.st4{fill:url(#SVGID_6_);}
	.st5{clip-path:url(#SVGID_8_);}
	.st6{fill:url(#SVGID_9_);}
	.st7{clip-path:url(#SVGID_11_);}
	.st8{fill:url(#SVGID_12_);}
	.st9{clip-path:url(#SVGID_14_);}
	.st10{fill:url(#SVGID_15_);}
</style>
<path class="st0" d="M274.4,102.8v-0.3c-5.2-45.4-41.5-69.7-95.3-60.1l-0.8,0.1c-4.8,0.9-9.7,2-14.7,3.5
	c-29,8.2-55.7,19.8-77.7,32.9c-0.3,0.1-0.5,0.3-0.8,0.5c-37.8,22.7-61.8,50.1-60,73c1.6,20.6,17.7,44.3,41.5,64.7
	c0.2,0.2,0.4,0.3,0.6,0.5c19.2,16.2,41,28.9,64.6,37.6c4,1.5,8.2,2.6,12.4,3.4l0.5,0.1C186,266,228.6,238.7,254,191l0.1-0.2
	c7-13.3,12.4-27.4,16.2-42C274.6,131.8,275.9,116.4,274.4,102.8 M140.7,108c13.7-7.8,28.1-14.3,43-19.6c9.6-3.4,19.4-6,29.3-7.8
	c1.9,9.3,2.9,18.8,3.1,28.3c0.3,16.8-1.2,33.6-4.5,50.1c-2,10.6-4.8,21-8.1,31.2c-3.4,2.1-6.9,4.2-10.5,6.2
	c-6.6,3.7-13.3,7.1-19.9,10.2c-13.4-3.9-26.3-9.3-38.5-16.2c-6.9-3.8-13.5-8.1-19.8-12.8c0.6-12,2-24,4.3-35.8
	c1.6-8.3,3.6-16.5,6-24.5C130.1,114.1,135.3,111,140.7,108"/>
<g>
	<defs>
		<path id="SVGID_1_" d="M274.3,102.4c0-0.1,0-0.1,0-0.2C274.3,102.3,274.3,102.4,274.3,102.4 M201.4,40.2c-7.5,0-14.9,0.7-22.3,2.1
			l-0.8,0.1c-4.8,0.9-9.7,2-14.7,3.5c-29,8.2-55.7,19.8-77.8,32.9c0,0-0.6,0.4-0.8,0.5C48.8,101,25.3,127.1,25,149.4v0.9
			c0,0.7,0,1.3,0.1,2c1.6,20.6,17.7,44.3,41.5,64.7c-1.9-1.7-3.5-3.6-4.7-5.8c-8.6-15.2,1.4-38.5,23.8-61.7
			c11.9-12.1,25.2-22.9,39.5-32.1c4.9-3.2,10.1-6.4,15.5-9.4c13.7-7.8,28.1-14.3,43-19.5c9.6-3.4,19.4-6,29.3-7.9
			c28.1-5,50.2-1.1,58.3,12.7c1.6,2.8,2.7,5.9,3,9.1c-4.4-37.7-30.4-60.9-70-62L201.4,40.2z"/>
	</defs>
	<clipPath id="SVGID_2_">
		<use xlink:href="#SVGID_1_"  style="overflow:visible;"/>
	</clipPath>
	<g class="st1">
		
			<linearGradient id="SVGID_3_" gradientUnits="userSpaceOnUse" x1="6035.438" y1="-2415.2971" x2="6036.4263" y2="-2415.2971" gradientTransform="matrix(148.1487 -85.5337 85.5337 148.1487 -687466.5625 874221.75)">
			<stop  offset="0" style="stop-color:#052A35"/>
			<stop  offset="5.000000e-02" style="stop-color:#0B2F39"/>
			<stop  offset="0.13" style="stop-color:#163C47"/>
			<stop  offset="0.22" style="stop-color:#2D545E"/>
			<stop  offset="0.32" style="stop-color:#527880"/>
			<stop  offset="0.42" style="stop-color:#89A9AF"/>
			<stop  offset="0.54" style="stop-color:#D6E9EF"/>
			<stop  offset="0.55" style="stop-color:#DFF2F6"/>
			<stop  offset="0.62" style="stop-color:#B9E0CC"/>
			<stop  offset="0.75" style="stop-color:#81C68C"/>
			<stop  offset="0.86" style="stop-color:#5CB362"/>
			<stop  offset="0.95" style="stop-color:#47A84A"/>
			<stop  offset="1" style="stop-color:#40A342"/>
		</linearGradient>
		<polygon class="st2" points="-51.5,84.4 212,-67.7 350.9,172.8 87.3,324.9 		"/>
	</g>
</g>
<g>
	<defs>
		<path id="SVGID_4_" d="M201.4,40.2c-7.5,0-14.9,0.7-22.3,2.1c2.4-0.4,4.9-0.4,7.3,0.1c12.8,2.4,22.1,16.8,26.6,38.2
			c1.9,9.3,2.9,18.8,3.1,28.3c0.3,16.8-1.2,33.6-4.5,50.1c-2.1,10.6-4.8,21-8.2,31.2c-2.3,7.1-5.1,14.1-8.2,20.9
			c-14.2,31.1-33.4,50.4-50.6,47.4c3.4,0.6,6.9,1,10.4,1.2h6.7c35.7-1.5,70.3-27.4,92.3-68.6l0.1-0.3c7-13.4,12.4-27.5,16.2-42.1
			c3-11.2,4.6-22.8,4.7-34.4v-0.4c0-3.7-0.2-7.4-0.6-11.1v-0.3C269.9,63.7,242.7,40.2,201.4,40.2L201.4,40.2z"/>
	</defs>
	<clipPath id="SVGID_5_">
		<use xlink:href="#SVGID_4_"  style="overflow:visible;"/>
	</clipPath>
	<g class="st3">
		
			<linearGradient id="SVGID_6_" gradientUnits="userSpaceOnUse" x1="6070.8657" y1="-2415.8064" x2="6071.854" y2="-2415.8064" gradientTransform="matrix(0 -206.2041 206.2041 0 498358.9688 1252097.25)">
			<stop  offset="0" style="stop-color:#052A35"/>
			<stop  offset="7.000000e-02" style="stop-color:#092E39"/>
			<stop  offset="0.14" style="stop-color:#113843"/>
			<stop  offset="0.22" style="stop-color:#204A55"/>
			<stop  offset="0.3" style="stop-color:#396570"/>
			<stop  offset="0.39" style="stop-color:#5E8993"/>
			<stop  offset="0.47" style="stop-color:#90B9C3"/>
			<stop  offset="0.54" style="stop-color:#C1E7F0"/>
			<stop  offset="0.57" style="stop-color:#B0DFD9"/>
			<stop  offset="0.67" style="stop-color:#7DC593"/>
			<stop  offset="0.75" style="stop-color:#5AB365"/>
			<stop  offset="0.81" style="stop-color:#47A84B"/>
			<stop  offset="0.85" style="stop-color:#40A342"/>
			<stop  offset="0.87" style="stop-color:#4BA94A"/>
			<stop  offset="0.91" style="stop-color:#68BA60"/>
			<stop  offset="0.96" style="stop-color:#9CD586"/>
			<stop  offset="1" style="stop-color:#D0EEAC"/>
		</linearGradient>
		<rect x="144.7" y="40.2" class="st4" width="130.3" height="221.3"/>
	</g>
</g>
<g>
	<defs>
		<path id="SVGID_7_" d="M251.6,150.9L251.6,150.9c-12.1,13.5-28.6,27.1-48.2,39.3c-3.4,2.1-6.9,4.2-10.5,6.2
			c-6.6,3.7-13.3,7.1-19.9,10.2c-19.1,8.9-37.8,14.7-54.4,17.5c-22.7,3.8-41.3,1.7-51.5-6.7c19.2,16.2,41,28.9,64.6,37.6
			c4,1.5,8.2,2.6,12.4,3.4l0.5,0.1c4.4,0.8,8.8,1.2,13.3,1.2h0.9c36.6-0.2,72.6-26.4,95.1-68.7l0.1-0.3c7-13.3,12.4-27.4,16.2-42
			c3-11.2,4.6-22.8,4.7-34.4v-0.4c0-3.7-0.2-7.4-0.6-11.1C275.8,116.2,267.3,133.4,251.6,150.9"/>
	</defs>
	<clipPath id="SVGID_8_">
		<use xlink:href="#SVGID_7_"  style="overflow:visible;"/>
	</clipPath>
	<g class="st5">
		
			<linearGradient id="SVGID_9_" gradientUnits="userSpaceOnUse" x1="6033.7012" y1="-2417.3745" x2="6034.6895" y2="-2417.3745" gradientTransform="matrix(138.3587 -79.8814 79.8814 138.3587 -641611.0625 816667.6875)">
			<stop  offset="0" style="stop-color:#052A35"/>
			<stop  offset="8.000000e-02" style="stop-color:#092F39"/>
			<stop  offset="0.18" style="stop-color:#133B46"/>
			<stop  offset="0.3" style="stop-color:#24505B"/>
			<stop  offset="0.42" style="stop-color:#426F7B"/>
			<stop  offset="0.55" style="stop-color:#6D9BA7"/>
			<stop  offset="0.68" style="stop-color:#A7D6E1"/>
			<stop  offset="0.7" style="stop-color:#B3E1EC"/>
			<stop  offset="0.78" style="stop-color:#8FD2E4"/>
			<stop  offset="0.95" style="stop-color:#41AECD"/>
			<stop  offset="1" style="stop-color:#2DA3C5"/>
		</linearGradient>
		<polygon class="st6" points="-0.8,142 223.6,12.5 343.7,220.5 119.3,350.1 		"/>
	</g>
</g>
<g>
	<defs>
		<path id="SVGID_10_" d="M25,147.9v2.3c0,0.7,0,1.3,0.1,2c1.6,20.6,17.7,44.3,41.5,64.7l0.6,0.5c19.2,16.2,41,28.9,64.6,37.6
			c4,1.5,8.2,2.6,12.4,3.4l0.5,0.1c4.4,0.8,8.8,1.2,13.3,1.2h0.9c36.6-0.2,72.6-26.4,95.1-68.7c-0.2,0.4-0.4,0.8-0.7,1.1
			c-9.3,15.8-31.4,22.1-58,18.9c-7.5-0.9-14.9-2.4-22.2-4.5c-13.4-3.9-26.4-9.3-38.5-16.2c-6.9-3.8-13.5-8.1-19.8-12.8
			c-11-8-20.8-17.5-29.2-28.2C69.4,128.5,63.9,106.8,73.2,91c2.8-4.7,6.7-8.6,11.3-11.5C49.3,100.8,26.2,126.1,25,147.9 M84.5,79.5
			c0.2-0.1,0.3-0.2,0.5-0.3C84.8,79.3,84.7,79.4,84.5,79.5"/>
	</defs>
	<clipPath id="SVGID_11_">
		<use xlink:href="#SVGID_10_"  style="overflow:visible;"/>
	</clipPath>
	<g class="st7">
		
			<linearGradient id="SVGID_12_" gradientUnits="userSpaceOnUse" x1="6031.625" y1="-2381.0076" x2="6032.6133" y2="-2381.0076" gradientTransform="matrix(196.5663 113.4876 -113.4876 196.5663 -1455788 -216376.1719)">
			<stop  offset="0" style="stop-color:#052A35"/>
			<stop  offset="0.11" style="stop-color:#092D38"/>
			<stop  offset="0.21" style="stop-color:#0F3641"/>
			<stop  offset="0.31" style="stop-color:#1C4651"/>
			<stop  offset="0.41" style="stop-color:#315D69"/>
			<stop  offset="0.5" style="stop-color:#507E89"/>
			<stop  offset="0.6" style="stop-color:#7AA8B4"/>
			<stop  offset="0.69" style="stop-color:#AFDDE9"/>
			<stop  offset="0.7" style="stop-color:#B3E1EC"/>
			<stop  offset="0.77" style="stop-color:#8FD2E4"/>
			<stop  offset="0.91" style="stop-color:#41AFCD"/>
			<stop  offset="1" style="stop-color:#1D99BF"/>
		</linearGradient>
		<polygon class="st8" points="-53.1,214.6 82.3,-19.9 332.1,124.4 196.7,358.9 		"/>
	</g>
</g>
<g>
	<defs>
		<path id="SVGID_13_" d="M163.6,45.9c-29,8.2-55.7,19.8-77.8,32.9c0,0-0.6,0.4-0.8,0.5C48.8,101,25.3,127.1,25,149.4v0.9
			c0,0.6,0,1.3,0.1,1.9c1.6,20.6,17.7,44.3,41.5,64.7l0.6,0.5c19.2,16.2,41,28.9,64.6,37.6c4,1.5,8.2,2.6,12.4,3.4
			c-11.9-2.4-20.8-15.2-25.5-34.3c-3.2-13-4.6-29-3.8-46.5c0.6-12,2-24,4.3-35.8c1.6-8.3,3.6-16.5,6-24.5
			c4.4-15.1,10.6-29.6,18.4-43.2c10.6-17.8,22.9-29.4,34.7-31.6C173.6,43.4,168.7,44.5,163.6,45.9"/>
	</defs>
	<clipPath id="SVGID_14_">
		<use xlink:href="#SVGID_13_"  style="overflow:visible;"/>
	</clipPath>
	<g class="st9">
		
			<linearGradient id="SVGID_15_" gradientUnits="userSpaceOnUse" x1="6070.3169" y1="-2414.2944" x2="6071.3052" y2="-2414.2944" gradientTransform="matrix(0 -217.1777 217.1777 0 524432.5625 1318596.25)">
			<stop  offset="0" style="stop-color:#052A35"/>
			<stop  offset="8.000000e-02" style="stop-color:#092E39"/>
			<stop  offset="0.16" style="stop-color:#0F3742"/>
			<stop  offset="0.24" style="stop-color:#1B4753"/>
			<stop  offset="0.31" style="stop-color:#2F606D"/>
			<stop  offset="0.38" style="stop-color:#4C8290"/>
			<stop  offset="0.45" style="stop-color:#75B0BE"/>
			<stop  offset="0.5" style="stop-color:#96D6E5"/>
			<stop  offset="0.55" style="stop-color:#83CDE0"/>
			<stop  offset="0.7" style="stop-color:#51B7D1"/>
			<stop  offset="0.83" style="stop-color:#32A7C8"/>
			<stop  offset="0.93" style="stop-color:#229CC2"/>
			<stop  offset="1" style="stop-color:#1D99BF"/>
		</linearGradient>
		<rect x="25" y="42.5" class="st10" width="153.3" height="215.9"/>
	</g>
</g>
</svg>
