<svg id="Layer_1" data-name="Layer 1" xmlns="http://www.w3.org/2000/svg" viewBox="0 0 300 300"><defs><style>.cls-1{fill:#fff;}</style></defs><title>AMGN_Dark_bg</title><path class="cls-1" d="M172.29,139.91a14.88,14.88,0,0,0-12.74-6.73,16.94,16.94,0,0,0,0,33.88,16.6,16.6,0,0,0,15.14-9.73h-17.3V143.39h31.72V121.76h28.24V135.7H202.57v7.69h14.78v13.94H202.57v7.21h14.78v13.58H189.11V157.69C185.75,173.07,173.37,181,159.55,181s-25.23-8.17-28.48-22.47v19.83H117.26V145.43s-8.05,7.09-8.05,32.93H94.91c0-25.84-8-32.93-8-32.93v32.93H72.92v-57.2c16,0,26.55,18,29.08,28.6,2.52-10.57,13.09-28.6,29.07-28.6v19c2.77-12.62,15.39-21.15,28.6-21.15,13.46,0,25.36,10.21,27.88,20.91Z"/><path class="cls-1" d="M248,178.36c-2-15.5-12.26-26.56-12.26-26.56v26.56H221V122c3.25,0,15,6.37,27,23.67V122h14.42v56.24H248Z"/><path class="cls-1" d="M37.59,164.18c-.36,1.56-2.88,10.21-3.85,14.18H19.33c1.92-7.09,5.64-19.23,9.61-27.4s8.65-16.94,16.7-23c3.73-2.76,10.81-8.17,24-7v57.32H55.73V164.18Zm18.14-13.1V137.74c-4.44,3.13-9.25,8.9-12.13,13.34Z"/><path class="cls-1" d="M268.54,125.49a6.07,6.07,0,0,1,12.13,0,6.13,6.13,0,0,1-6,6.13A6.24,6.24,0,0,1,268.54,125.49Zm11,0a4.93,4.93,0,1,0-4.92,4.92A4.94,4.94,0,0,0,279.59,125.49Zm-1.92,3.24h-1.44L274.79,126h-1.32v2.76h-1.33v-6.49h3.13a3.05,3.05,0,0,1,1.8.36,1.74,1.74,0,0,1,.72,1.69c0,1.2-.6,1.68-1.8,1.8ZM275.39,125c.72,0,1.2-.12,1.2-1s-1-.85-1.56-.85h-1.56V125Z"/></svg>