<svg id="Layer_1" data-name="Layer 1" xmlns="http://www.w3.org/2000/svg" viewBox="0 0 300 300"><defs><style>.cls-1,.cls-2{fill:#fff;}.cls-1{fill-rule:evenodd;}</style></defs><path id="path5014" class="cls-1" d="M150,243.1a96.5,96.5,0,1,1,96.44-96.5A96.41,96.41,0,0,1,150,243.1Zm41.25-79.46,41.31-17.15L191.28,129.4l17.1-41.26L166.9,105.29l.22-.11L150,64l-17.15,41.2-41.26-17,17.15,41.26L67.46,146.49l41.31,17.15L91.62,204.89l41.26-17.09L150,229.11l17.09-41.31,41.26,17.09Z"/><path id="path5018" class="cls-2" d="M164.55,181.59,150,146.49,114.93,132l84.71-35.09Z"/><path id="path5030" class="cls-1" d="M221.56,239.4a10.74,10.74,0,1,1,10.77,10.5A10.58,10.58,0,0,1,221.56,239.4Zm2,0a8.69,8.69,0,1,0,8.74-8.31A8.51,8.51,0,0,0,223.59,239.4Zm14.09,5.89h-2l-3.48-5.36h-2.09v5.36h-1.77V233.61h5.25a5.74,5.74,0,0,1,2.94.59,2.83,2.83,0,0,1,1.29,2.52c0,2.3-1.66,3.16-3.75,3.21Zm-5.62-6.86c1.66,0,4,.33,4-1.76,0-1.56-1.28-1.72-2.84-1.72h-3.1v3.48Z"/></svg>