<svg id="Layer_1" data-name="Layer 1" xmlns="http://www.w3.org/2000/svg" viewBox="0 0 300 300"><defs><style>.cls-1{fill:#fff;}</style></defs><title>ANET_Dark_bg</title><path class="cls-1" d="M111,153.73c8.66,0,13-6,13-12s-4.33-11.78-13.47-11.78c-6.73-.24-31.5-.24-31.5-.24v40.64h7.69V136.17H111c4.33,0,6.49,1.44,6.49,5.53,0,3.37-2.16,5.29-6.25,5.29H91.08l24,23.09h9.38l-17.32-16.83A15.55,15.55,0,0,0,111,153.73Z"/><rect class="cls-1" x="131.96" y="129.68" width="7.46" height="40.64"/><polygon class="cls-1" points="233.93 135.93 233.93 129.68 218.06 129.68 210.6 129.68 197.38 129.68 193.05 135.93 210.6 135.93 210.6 170.32 218.06 170.32 218.06 135.93 233.93 135.93"/><path class="cls-1" d="M178.38,146.51h-19c-3.85,0-6-1.68-6-5,0-3.84,2.64-5.53,6-5.53h26l3.37-6.25H159.14a12,12,0,0,0-12.27,12c0,6.26,5.29,11.31,12.51,11.31h19c4.33,0,6.73,1.92,6.73,5.53,0,3.12-2.64,5.29-6.73,5.29H152.16l-3.84,6.49h31c7.94,0,12.26-5.77,12.26-12.26C191.6,152,186.55,146.51,178.38,146.51Z"/><path class="cls-1" d="M44,132.32c-1.69,2.65-24.05,38-24.05,38h7.93l7.46-12H51.16l4.09-6.5H39.38L48,137.86l20.21,32.22h7.93s-22.12-34.87-24.05-38C50,129,46.11,129.2,44,132.32Z"/><path class="cls-1" d="M272.17,170.32h7.93s-22.12-34.87-24.05-38c-2.16-3.6-6-3.36-8.17-.24-1.69,2.65-24,38-24,38h7.93l7.46-12h16.11l4.09-6.5H243.55l8.66-13.95Z"/></svg>