<svg id="Layer_1" data-name="Layer 1" xmlns="http://www.w3.org/2000/svg" viewBox="0 0 300 300"><defs><style>.cls-1{fill:#fff;}</style></defs><path class="cls-1" d="M268.23,102.85C248.18,84.58,225,78,198.69,85.33c-34.84,9.74-54.52,44.17-46,79.26,8.13,33.38,42.88,55.11,77.63,48.68,20-3.7,35.4-14.15,46.85-30.74-17.05,39.68-48.44,62.15-89.39,71.34-48.21,10.83-91.17-1-128.64-33.72,4.27-11.06,8.29-21.51,12.35-32H125c3.13,7.56,6.28,15.12,9.53,22.94h24.94c-17.88-42.25-35.48-83.87-53-125.38A47.59,47.59,0,0,0,92,85.46c-16.36,37.46-32.75,75-49.67,113.71-16.75-28.89-19.53-57.49-5.94-86.62,16.15-34.61,44.81-54.7,80.74-64.49,46.86-12.76,89.89-4,128.27,26a94.48,94.48,0,0,1,24.13,27.59Z"/><path class="cls-1" d="M261.34,148c.11,24.22-19.18,43.86-43.08,43.86-23.44,0-42.95-19.57-43.09-43.21-.14-23.91,19.65-44.06,43.19-44S261.22,124.36,261.34,148Z"/><path class="cls-1" d="M116.62,166.84H80.1c6-14.91,11.85-29.29,18.32-45.31C104.86,137.54,110.64,151.94,116.62,166.84Z"/><path class="cls-1" d="M269.53,101.64c.6,1.23,2.31,2,1.64,3.85-1.88.07-2.32-1.39-2.94-2.64Z"/><polygon class="cls-1" points="272.35 108.03 272.19 107.45 272.66 107.51 272.35 108.03"/></svg>