<svg id="Layer_1" data-name="Layer 1" xmlns="http://www.w3.org/2000/svg" viewBox="0 0 300 300"><title>APA_Mark_Dark</title><path d="M116.25359,197.6849H92.66221c-8.35461-23.72875-16.72794-47.51067-25.20526-71.588L55.08651,161.14927H72.16336l7.00381,19.83081H48.15984c-1.98794,5.57628-3.9675,11.12909-5.9544,16.70245H19.3868a2.886,2.886,0,0,1,.41207-1.584q16.31651-43.4965,32.653-86.98554a9.41479,9.41479,0,0,1,9.07434-6.5977c6.09629-.23426,12.19908-.26893,18.3009-.21174.14317.00134.28608.02976.50524.054Z" fill="#fff"/><path d="M280.63413,197.68108H257.084q-2.93291-8.247-5.92778-16.66841H220.0533c2.35687-6.67927,4.66762-13.22777,6.99742-19.83037h17.16361l-12.38222-35.093c-8.482,24.056-16.86352,47.82668-25.23935,71.58139H183.61538c.64829-1.75651,1.2508-3.41386,1.87063-5.06471q15.67786-41.75568,31.35582-83.51134a9.36636,9.36636,0,0,1,8.97433-6.56925c6.13079-.25675,12.26957-.276,18.40674-.22132.143.00128.28586.03132.49366.05548Q262.63708,149.91876,280.63413,197.68108Z" fill="#fff"/><path d="M148.81251,197.72874h-21.4388V102.43991c.29805-.27123.71785-.13379,1.09919-.13406,11.22612-.00784,22.45249-.05161,33.67831.00747,9.99455.0526,18.75974,3.22386,25.63275,10.72172a30.988,30.988,0,0,1,8.16389,19.71382A31.8068,31.8068,0,0,1,189.822,154.1565c-5.21761,7.058-12.31644,11.09774-20.89091,12.63906-4.20751.75633-8.46514.56658-12.71.57937-2.42645.00729-4.85291.00132-7.40853.00132Zm.0483-50.72971c.11847.06.18108.11958.24366.11956,4.53761-.00147,9.07528.00172,13.61277-.02459a8.86739,8.86739,0,0,0,1.82976-.24818,11.97921,11.97921,0,0,0,9.38638-13.153,11.70728,11.70728,0,0,0-12.07716-11.11712q-5.283-.00036-10.56607,0h-2.42934Z" fill="#fff"/></svg>