<svg id="Layer_1" data-name="Layer 1" xmlns="http://www.w3.org/2000/svg" viewBox="0 0 300 300"><path d="M33.18662,163.20423H25l13.20423-36.97184h8.89084l13.1162,36.97184H51.76056l-2.37676-7.65846H35.73944Zm4.57746-13.99648h9.419l-4.48944-14.61268h-.088Z" fill="#fff"/><path d="M104.22535,163.20423H96.919V146.5669c0-4.04929-1.84859-5.36972-3.96127-5.36972-3.60915,0-4.92957,2.37676-4.92957,5.63381v16.37324H80.72183v-16.5493c0-2.28873,0-5.54577-4.40141-5.54577-3.4331,0-4.48943,2.37676-4.48943,5.36971v16.72536H64.61268V135.73944H71.5669v4.04929h.088a8.36564,8.36564,0,0,1,7.83451-4.75352c3.96127,0,5.80986,1.40845,7.65845,4.40141.9683-1.32042,2.993-4.40141,7.39436-4.40141,5.45775,0,9.6831,3.169,9.6831,9.15493Z" fill="#fff"/><path d="M118.13381,139.7007h.088a8.56775,8.56775,0,0,1,8.09859-4.66549c5.98592,0,11.26761,4.66549,11.26761,14.08451,0,7.48239-3.34507,14.7007-11.44366,14.7007-5.01761,0-6.77817-2.72887-7.65845-4.22535h-.088v14.17254h-7.13028V135.73944h6.8662Zm6.25,18.22184c4.57747,0,5.89789-5.01761,5.89789-8.27465,0-4.31338-1.49648-8.36268-6.07395-8.36268-4.92957,0-6.07394,4.40141-6.07394,8.80282C118.13381,154.13732,119.89437,157.92254,124.3838,157.92254Z" fill="#fff"/><path d="M167.60563,163.20423h-7.2183V146.5669c0-2.02465-.088-5.36972-4.6655-5.36972-3.169,0-5.6338,2.20071-5.6338,6.338v15.669h-7.13028V126.23239H150.088v13.1162h.088c.88028-2.28873,3.96126-4.31338,7.92253-4.31338,5.36973,0,9.507,3.169,9.507,9.15493v19.01409Z" fill="#fff"/><path d="M198.06339,154.66549c-1.93662,6.42606-7.4824,8.53874-12.23591,8.53874-7.83451,0-13.82042-3.60916-13.82042-14.61268,0-3.257,1.14436-13.55634,13.29225-13.55634,5.45775,0,13.1162,2.55282,13.1162,14.70071v1.23239H179.3134c.17605,2.02465.61619,6.51408,6.51408,6.51408,2.02465,0,4.13732-.9683,4.66549-2.90492h7.57042Zm-7.21832-8.18662c-.44015-4.31338-3.257-5.6338-5.6338-5.6338-3.4331,0-5.28169,2.11268-5.72183,5.6338Z" fill="#fff"/><path d="M229.22535,163.20423h-7.13028V146.5669c0-2.02465-.088-5.36972-4.6655-5.36972-3.169,0-5.6338,2.20071-5.6338,6.338v15.669h-7.21831V135.73944h6.8662v4.04929h.088a8.68922,8.68922,0,0,1,8.18662-4.75352c5.36972,0,9.507,3.169,9.507,9.15493v19.01409Z" fill="#fff"/><path d="M248.59155,163.20423c-7.39436,0-14.08451-4.40141-14.08451-14.08451s6.69015-14.08451,14.08451-14.08451,14.08451,4.40141,14.08451,14.08451S255.98591,163.20423,248.59155,163.20423Zm0-22.27113c-5.54578,0-6.60211,4.75352-6.60211,8.18662s1.05633,8.18662,6.60211,8.18662c5.6338,0,6.60211-4.75352,6.60211-8.18662S254.22535,140.9331,248.59155,140.9331Z" fill="#fff"/><path d="M275,163.20423h-7.04225V126.23239H275Z" fill="#fff"/></svg>