<svg id="Layer_1" data-name="Layer 1" xmlns="http://www.w3.org/2000/svg" viewBox="0 0 300 300"><g id="Symbols"><g id="Header-Dark"><g id="Dark"><g id="Group-4"><g id="Group-6"><g id="aptiv-logo"><path id="Fill-1" d="M269.13761,142.68647a5.85127,5.85127,0,1,0,5.92381,5.85082A5.8872,5.8872,0,0,0,269.13761,142.68647ZM36.78574,148.53729a5.924,5.924,0,1,1-5.9238-5.85082,5.88758,5.88758,0,0,1,5.9238,5.85082Z" fill="#f84018" fill-rule="evenodd"/><path id="Fill-2" d="M216.27244,133.91023h8.64179l5.99108,24.24773H232.858l5.94706-24.24773H247.27l-8.83192,32.17954H225.14794Zm-27.45651,32.17954h8.25451V133.91023h-8.25451ZM169.536,141.30169h-9.4978v24.78808h-8.2554V141.30169h-9.45158v-7.39146H169.536Zm-55.42971,6.806c3.24,0,4.48243-1.17232,4.48243-3.47047,0-2.2986-1.24241-3.42578-4.48243-3.42578H108.2486v6.89625Zm1.06637-14.19743c7.49974,0,11.84792,3.87629,11.84792,10.59154,0,6.80552-4.34818,10.77165-11.84792,10.77165h-6.9241v10.81635H99.99409V133.91023ZM64.80063,151.17187h7.05744l-2.531-9.32849h-1.9514ZM84.195,166.08977h-8.2105l-2.307-8.33808H63.02526l-2.26211,8.33808H52.73l9.49691-32.17954H74.69715l9.4978,32.17954Z" fill="#fff" fill-rule="evenodd"/></g></g></g></g></g></g></svg>