<svg id="Layer_1" data-name="Layer 1" xmlns="http://www.w3.org/2000/svg" viewBox="0 0 300 300"><defs><style>.cls-1{fill:#fff;}</style></defs><path class="cls-1" d="M163.87,56c24.1,2.84,45.66,11.38,64.06,27.62,37.83,33.38,39.9,92.51,4.32,128.18-23.75,23.82-53,33.5-86,32.61-29.15-.8-55.26-10.23-76.4-30.86-40-39.08-35.87-101.08,8.74-135C95.89,65.42,115.55,58.48,137,56l4.14-.48h18.64Zm58.37,157.21c2.08-2.45,4.09-5,6.25-7.34,16.48-18.1,24.42-39.32,22-63.73-2.68-27.44-16.9-48.13-39.71-63C191.55,66.67,170.1,61.75,147.24,62.3c-23.62.58-45.21,7.2-64.18,21.5-37.92,28.59-45,79.39-16.19,116.2,3.66,4.7,7.56,9.22,11.86,12.27,4.27.56,6.91-2.6,10.68-2.24.53-5.31,1.06-10.63,1.6-16.08H105.2c.55,5.41,1.1,10.74,1.64,16h3.21c.27-3.75-1.23-7.27-.79-10.9h82.2c.39,3.79-1.23,7.32-.66,11l3-.25c.52-5.3,1-10.52,1.56-15.88h14.24c.54,5.43,1.07,10.75,1.59,16.07C214.93,209.82,217.64,212.66,222.24,213.23Zm-51-1.44a22.37,22.37,0,0,1-20.9.05,22.66,22.66,0,0,1-21.06,0,22.49,22.49,0,0,1-20.89-.05c-7.71,3.46-12.29,3.47-21.19,0-1.61,1.38-4,1.3-6,2.69a79.32,79.32,0,0,0,10.22,7.21l5.37-2.2c7.07,4.15,14.2,3.87,21.16,0,7.31,4.2,14.45,3.9,21.43,0,7.3,4.21,14.42,3.83,21.47-.07,7.2,4.24,14.34,3.91,21.38,0,7.23,4.34,14.36,3.86,21.25.08,2,1,3.65,2.11,5.76,2.29,3.38-2.29,6.92-4.41,10.11-7.43l-6.19-2.45c-8.15,3.33-11.89,3.33-20.91,0C183.72,215.2,179.5,215.19,171.23,211.79Zm-53.42,9.64a22.94,22.94,0,0,1-21.37-.07l-3.19,1.76c11.8,5.38,22.46,13.38,35.9,5.88,7.25,4.28,14.6,4.06,21.88-.08,7.38,4.43,14.74,3.89,21.77.12,10.13,4.79,24.48,2.07,33.4-6.17-.49-.29-.95-.58-1.43-.81s-1-.42-1.53-.62a22.69,22.69,0,0,1-21.26-.07,22.72,22.72,0,0,1-21.4,0,22.6,22.6,0,0,1-21.37.07A22.69,22.69,0,0,1,117.81,221.43Zm54.88,9.48A22.8,22.8,0,0,1,151,231c-8.44,3.68-13.45,3.69-22,.05a29,29,0,0,1-8.79,2.8c17.26,5.28,43.88,5.22,60.32-.09A41,41,0,0,1,172.69,230.91Z"/><path class="cls-1" d="M135.21,140.46h30.35c1.82,18.49,3.63,36.94,5.46,55.61H129.61C131.48,177.53,133.33,159.17,135.21,140.46Z"/><path class="cls-1" d="M160.66,105.71v19H139.93v-19Z"/><path class="cls-1" d="M130.63,116.89Q95,145.66,59.09,174.15l-1-1.3,71.53-57.23Z"/><path class="cls-1" d="M241.87,174.17,170.34,117l1.07-1.34L243,172.87Z"/><path class="cls-1" d="M65.27,113.3l65-8.41.21,1.63-64.94,8.41Z"/><path class="cls-1" d="M236.28,115l-66.59-8.63C172.65,104.57,233.43,112.39,236.28,115Z"/><path class="cls-1" d="M135.14,137.55l-2.16-3.2h34.27c-.07,1.4-1,2.22-1.81,3.2Z"/><path class="cls-1" d="M160.8,127.65l1.81,3.63H138.47c0-1.47.8-2.51,1.63-3.63Z"/><path class="cls-1" d="M154.84,97.16h-9a29.37,29.37,0,0,1-.14-8h9.13Z"/><path class="cls-1" d="M162.28,99.94c-.05,1.35-.95,2-1.56,3H140.13a4.29,4.29,0,0,1-1.66-3Z"/><path class="cls-1" d="M91.39,191.22a6.21,6.21,0,0,1-1.88-3.44h17.32c0,1.41-.89,2.37-1.73,3.44Z"/><path class="cls-1" d="M193.69,187.67H211c.2,1.4-.75,2.24-1.46,3.31h-14A6.8,6.8,0,0,1,193.69,187.67Z"/><path class="cls-1" d="M143.73,86l6.64-8.3L157,86Z"/><path class="cls-1" d="M105.08,76.75l26.1,17.39C128.52,94.84,106.15,80.27,105.08,76.75Z"/><path class="cls-1" d="M196.9,78.19,171.19,95.33c-.31-.47-.62-1-.94-1.42L196,76.79Z"/></svg>