<svg id="Layer_1" data-name="Layer 1" xmlns="http://www.w3.org/2000/svg" viewBox="0 0 300 300"><defs><style>.cls-1{fill:#fff;}</style></defs><path class="cls-1" d="M88.89,131.1c9-25,18-49.82,26.9-74.6h68.79l27.88,77.23Z"/><path class="cls-1" d="M151.34,184.76l78.83-1.23,21.58,59.95H171.06Z"/><path class="cls-1" d="M69,185.89l77.64-1.09h1.94C142,204.53,135.47,224,128.93,243.5H48.25C55.18,224.26,62,205.19,69,185.89Z"/><path class="cls-1" d="M74.87,174.13q23.59-1,47.19-2.06,46.33-1.95,92.67-3.86c3.27-.13,6.55,0,10.11,0L229.42,181,74.74,174.87Z"/><path class="cls-1" d="M81.58,158.25,219,152.06c1.54,4.27,3,8.41,4.74,13.13l-142.07-6Z"/><path class="cls-1" d="M88,142.46l125.29-6.17c1.58,4.4,3.11,8.63,4.75,13.2L87.49,143.43Z"/><path class="cls-1" d="M81.58,158.25l.1.91H74.85l0-.91Z"/><path class="cls-1" d="M74.87,174.13l-.13.74H69.45v-.74Z"/><path class="cls-1" d="M84,143.44H80.27v-1h4.32C84.4,142.78,84.22,143.11,84,143.44Z"/><path class="cls-1" d="M84,143.44c.18-.33.36-.66.55-1H88l-.55,1Z"/></svg>