<?xml version="1.0" encoding="utf-8"?>
<!-- Generator: Adobe Illustrator 24.0.1, SVG Export Plug-In . SVG Version: 6.00 Build 0)  -->
<svg version="1.1" id="Layer_1" xmlns="http://www.w3.org/2000/svg" xmlns:xlink="http://www.w3.org/1999/xlink" x="0px" y="0px"
	 viewBox="0 0 300 300" style="enable-background:new 0 0 300 300;" xml:space="preserve">
<style type="text/css">
	.st0{fill:#FFFFFF;}
</style>
<title>Artboard 59</title>
<title>Artboard 58</title>
<g>
	<g id="text17359">
		<g>
			<path class="st0" d="M265,169.1c0.9,0,1.7,0.2,2.5,0.7c0.8,0.4,1.4,1.1,1.9,1.8c0.9,1.5,0.9,3.5,0,5c-0.4,0.8-1.1,1.4-1.9,1.9
				c-0.8,0.4-1.6,0.7-2.5,0.7c-0.9,0-1.7-0.2-2.5-0.7c-0.8-0.4-1.4-1.1-1.8-1.9c-0.4-0.8-0.7-1.6-0.7-2.5c0-0.9,0.2-1.7,0.7-2.5
				c0.4-0.8,1.1-1.4,1.9-1.8C263.2,169.3,264.1,169.1,265,169.1z M265,169.9c-0.7,0-1.4,0.2-2.1,0.5c-0.7,0.3-1.3,0.9-1.6,1.6
				c-0.4,0.6-0.6,1.4-0.6,2.1c0,0.7,0.2,1.5,0.6,2.1c0.3,0.7,0.9,1.3,1.6,1.6c1.3,0.7,2.9,0.7,4.2,0c0.7-0.4,1.2-1,1.6-1.6
				c0.4-0.6,0.5-1.4,0.6-2.1c0-0.7-0.2-1.5-0.6-2.1c-0.4-0.7-0.9-1.2-1.6-1.6C266.3,170.1,265.6,170,265,169.9L265,169.9z
				 M262.8,176.9v-5.4h1.9c0.5,0,0.9,0,1.4,0.1c0.3,0.1,0.5,0.3,0.7,0.5c0.2,0.2,0.3,0.5,0.3,0.8c0,0.4-0.2,0.8-0.4,1
				c-0.3,0.3-0.7,0.5-1.1,0.5c0.2,0.1,0.3,0.2,0.5,0.3c0.3,0.3,0.6,0.7,0.8,1.1l0.7,1h-1l-0.5-0.8c-0.2-0.5-0.5-0.9-0.9-1.3
				c-0.2-0.1-0.5-0.2-0.7-0.2h-0.5v2.3L262.8,176.9z M263.6,173.8h1c0.4,0,0.7,0,1-0.2c0.2-0.1,0.3-0.4,0.3-0.6c0-0.2,0-0.3-0.1-0.4
				c-0.1-0.1-0.2-0.2-0.4-0.3c-0.3-0.1-0.6-0.1-0.9-0.1h-1L263.6,173.8z"/>
		</g>
	</g>
	<g id="g17371">
		<path id="path17373" class="st0" d="M203.9,154c0-4.9,4-8.9,8.8-8.9c4.9,0,8.9,4,8.9,8.8c0,4.9-4,8.9-8.8,8.9c0,0,0,0,0,0
			C207.9,162.8,203.9,158.9,203.9,154 M212.8,171.8c9.8,0,17.8-8,17.8-17.8c0-9.8-8-17.8-17.8-17.8c-9.8,0-17.8,8-17.8,17.8
			C194.9,163.8,202.9,171.8,212.8,171.8 M50.2,155.7l-2.7-8.8l-2.7,8.8L50.2,155.7L50.2,155.7z M65.5,171.4h-9.7l-2.4-6.4H42.1
			l-2.4,6.4H30l17.7-50.7L65.5,171.4z M184.2,171.3h9.1v-34.6h-9.1V171.3z M152.1,171.3h9.1v-34.6h-9.1V171.3z M175.5,144.1h5.8
			v-7.5h-9.5c-3.1,0-7.7,1.9-7.7,8.2c0,8.3,10.3,13.8,9.3,17.1c-0.5,1.6-2.4,1.6-3.4,1.6h-6.2v7.7H174c4.4,0,8.7-2.7,8.7-7.8
			c0-9.8-11.9-15.1-9.4-18.7C173.8,144.1,175.5,144.1,175.5,144.1 M152,133.7h43.2l-4.9-9.1h-45.1L134.8,152l-10.5-27.4H77.8
			l-4.9,9.1h20.9v37.6h9.4v-37.6h14.4l17.2,45.7L152,133.7z M80.5,136.2c-9.8,0-17.8,8-17.8,17.8c0,9.8,8,17.8,17.8,17.8
			c4.3,0,8.4-1.6,11.7-4.4l-5.9-6.7c-3.8,3.2-9.4,2.7-12.5-1c-3.2-3.8-2.7-9.4,1-12.5c3.3-2.8,8.2-2.8,11.5,0l5.9-6.7
			C88.9,137.7,84.8,136.1,80.5,136.2 M257.7,136.7h-9.1v13.1l-16.5-14.2v35.5h9.1v-14.7l16.3,16L257.7,136.7z M108.4,136.6h9.1v34.6
			h-9.2L108.4,136.6z"/>
	</g>
</g>
</svg>
