<svg id="Layer_1" data-name="Layer 1" xmlns="http://www.w3.org/2000/svg" viewBox="0 0 300 300"><defs><style>.cls-1{fill:#a8b2c6;}.cls-2{fill:#8e9ab3;}.cls-3{fill:#7886a6;}.cls-4{fill:#55668e;}.cls-5{fill:#344878;}.cls-6{fill:#21376a;}.cls-7{fill:#1e356a;}</style></defs><title>AVB_Dark_bg</title><g id="layer1"><g id="g40"><path id="path54" class="cls-1" d="M58.51,150V58.51h183v183h-183Zm19.55,78.53a5.94,5.94,0,0,0,3.25-1.68,6.54,6.54,0,0,0,1.41-2.61c.08-.47,0-.49-1.18-.61l-.8-.08-.13.52a3.44,3.44,0,0,1-1.9,2.53,5.07,5.07,0,0,1-3.31,0,5,5,0,0,1-2.1-4.93,4.34,4.34,0,0,1,1.94-3.35,4.55,4.55,0,0,1,3.67,0A3.83,3.83,0,0,1,80.45,220c.1.36.15.39.58.38.72,0,1.49-.27,1.49-.48a5,5,0,0,0-1.25-2.15,5.27,5.27,0,0,0-2.75-1.42,5.81,5.81,0,0,0-2.75,0,5.48,5.48,0,0,0-4.41,4.26,10,10,0,0,0,0,3.65,5.79,5.79,0,0,0,4.3,4.31,5.33,5.33,0,0,0,2.41,0Zm14.16-.17a5.77,5.77,0,0,0,3.88-5.52c.2-3.41-1.54-5.85-4.66-6.51a6.34,6.34,0,0,0-5.82,1.84,7.09,7.09,0,0,0,.2,8.75,6.6,6.6,0,0,0,6.4,1.44ZM89,226.88a8.53,8.53,0,0,1-.84-.35c-1.34-.71-2.15-2.85-1.87-4.95a4,4,0,0,1,2.1-3.36,3,3,0,0,1,1.68-.32,3.31,3.31,0,0,1,3.29,1.65,6.35,6.35,0,0,1,.33,5,3.32,3.32,0,0,1-3.3,2.44,4.57,4.57,0,0,1-1.39-.11Zm96.79,1.58a4.13,4.13,0,0,0,2.76-2.17,3.71,3.71,0,0,0,0-2.72c-.56-1.27-1.25-1.69-3.83-2.33-.94-.23-1.92-.51-2.18-.61a1.32,1.32,0,0,1-.07-2.52,4.74,4.74,0,0,1,3,.06,2.14,2.14,0,0,1,1.09,1.6l.09.52.9,0a3.31,3.31,0,0,0,1-.15,3.93,3.93,0,0,0-.58-2c-.79-1.26-2.15-1.85-4.19-1.85a4.31,4.31,0,0,0-1.88.27,4.64,4.64,0,0,0-2.14,1.86,3.22,3.22,0,0,0,.09,2.56c.57,1.14,1.63,1.68,4.47,2.28a9.91,9.91,0,0,1,1.58.44,1.47,1.47,0,0,1,.77,1.49,1.86,1.86,0,0,1-1.22,1.6A2.39,2.39,0,0,1,184,227a2.05,2.05,0,0,1-1.4-.41,3.13,3.13,0,0,1-1.32-1.78,3.88,3.88,0,0,0-.22-.7,4.08,4.08,0,0,0-1.87.22c-.18.13-.18.22,0,.88a4.25,4.25,0,0,0,1.4,2.36,6.88,6.88,0,0,0,5.28.87Zm-53-.11a4.11,4.11,0,0,0,2.29-1.9c.49-1,.55-1.71.51-5.92l0-3.94-.31-.11a2.77,2.77,0,0,0-1,0l-.67.08,0,4.32c0,4.22,0,4.34-.3,4.83a2.51,2.51,0,0,1-2.12,1.2,2.26,2.26,0,0,1-2.58-2.08c-.06-.39-.11-2.32-.1-4.34s0-3.71,0-3.78c0-.23-.4-.3-1.18-.22l-.75.08V221c0,2.65,0,4.61.12,4.87a4.17,4.17,0,0,0,2.61,2.54,7.63,7.63,0,0,0,3.52-.05ZM100.3,224.8c0-2,0-3.72,0-3.92s.32.32,1.48,3.41a36,36,0,0,0,1.6,3.91,1.68,1.68,0,0,0,.76.15,1.16,1.16,0,0,0,.67-.15c.06-.08.75-1.84,1.52-3.91s1.46-3.84,1.52-3.94a31.41,31.41,0,0,1,.07,3.88l0,4.06.93,0,.92,0V216.52h-1.13c-.77,0-1.15,0-1.22.15s-.77,2-1.59,4.15-1.57,4.11-1.64,4.24c-.16.29,0,.6-1.88-4.41-.78-2.11-1.47-3.89-1.53-4s-.48-.15-1.23-.15H98.42l0,5.77c0,3.17,0,5.83.07,5.91s.42.15,1,.15h.9Zm14-.45a23.57,23.57,0,0,1,.07-3.82c.07.06.73,1.75,1.48,3.76a41.12,41.12,0,0,0,1.56,3.85c.3.3,1.35.29,1.51,0,.07-.11.74-1.87,1.5-3.9s1.41-3.72,1.45-3.75.06,1.65.05,3.75,0,3.89,0,4,.28.15,1,.15h1V216.52h-2.37l-.25.69c-1.62,4.39-3,8-3.13,7.94s-.81-2-1.68-4.33l-1.58-4.24h-2.39l0,5.62c0,3.09,0,5.73,0,5.89s.11.27,1,.23l.92,0Zm26-.27.06-4.22.54.81c5.44,8.13,5.09,7.68,6.07,7.68s.85.51.85-5.92c0-5.53,0-5.78-.22-5.9a2.74,2.74,0,0,0-1.58.14c0,.06-.05,2,0,4.19.06,3.67,0,4.07-.12,3.93s-1.37-1.92-2.82-4.07c-2.86-4.26-2.87-4.26-3.94-4.24a.87.87,0,0,0-.63.18c-.12.19-.14,11.49,0,11.61a2.76,2.76,0,0,0,.92,0l.85,0Zm12.23,4.08c.09-.25.09-11.2,0-11.45s-.27-.19-1-.19h-.94v11.83h.94C152.29,228.35,152.5,228.31,152.56,228.16Zm7-4.83.06-5,1.68-.06,1.67-.06,0-.77a2.14,2.14,0,0,0-.06-.86c-.12-.12-8.6-.18-8.72,0a4.44,4.44,0,0,0,0,1.62,6.32,6.32,0,0,0,1.68.12c1.2,0,1.61,0,1.61.15v4.85a29.52,29.52,0,0,0,.13,4.87c.1.12.37.16,1,.13l.85,0Zm7-.71c0-3.12,0-5.77,0-5.88-.13-.28-.49-.35-1.28-.24l-.66.08,0,5.74c0,3.15,0,5.8,0,5.88s.31.15,1,.12l.93,0Zm11.23,4.83v-.89l-3.26,0-3.25,0v-3.23l2.62,0a14,14,0,0,0,2.77-.16,1.39,1.39,0,0,0,.16-.83c0-.58,0-.72-.24-.83a13,13,0,0,0-2.7-.11,13.13,13.13,0,0,1-2.56-.09,5,5,0,0,1-.08-1.48l0-1.36,3,0a15,15,0,0,0,3.21-.17c.12-.1.15-.33.1-.86s-.06-.74-.06-.76-1.86,0-4.13,0h-4.12v11.83h8.48Zm23-10.41a4.15,4.15,0,0,0,2.81-2.37c.37-.83.44-1.24,3.52-19.23,1.44-8.47,2.66-15.55,2.7-15.73l.06-.33h-4.54l-.12.45c-.06.24-.17,1-.25,1.7s-.48,4-.9,7.35c-.82,6.52-1.07,9.1-1.2,12.27-.08,1.79-.11,2-.29,2s-.23-.15-.29-.87c-.8-8.59-2.42-22.8-2.6-22.92a24.13,24.13,0,0,0-4.25,0c-.13.08.16,2.21,1.45,10.6.89,5.78,1.92,12.49,2.29,14.92.79,5.14.83,6.12.28,7a2.33,2.33,0,0,1-2,1c-1.37.08-1.25-.13-1.25,2.17,0,1.5,0,2,.15,2.14.34.28,3.28.24,4.39-.06Zm-63.72-7.5a5.43,5.43,0,0,0,4.33-4.48c.19-.82.21-1.74.21-10.93,0-8,0-10.17-.16-10.75a5,5,0,0,0-3.69-4.21,6.42,6.42,0,0,0-2.6-.32c-2.46,0-3.68.38-5,1.58a6.05,6.05,0,0,0-1.69,3.07l-.27,1v10c0,9.2,0,10,.22,10.81a5.24,5.24,0,0,0,4.68,4.43A11.36,11.36,0,0,0,137.16,209.54ZM134,206.1a1.92,1.92,0,0,1-1.21-1.23c-.17-.63-.18-20.22,0-20.86a2.34,2.34,0,0,1,2.91-1.53,1.82,1.82,0,0,1,1.49,1.37c.09.37.13,3.5.13,10.31,0,10.81,0,10.61-.74,11.34a2.47,2.47,0,0,1-2.58.6Zm-24.87,3.31a4.13,4.13,0,0,0,2.24-1.61l.68-.83.37,1.1.36,1.11,2.41,0,2.41,0-.17-.42c-.57-1.35-.57-1.32-.64-14-.08-11.94-.08-11.95-.34-12.64a4.48,4.48,0,0,0-1.29-2,6.83,6.83,0,0,0-4.71-1.46c-3,0-5,1-5.9,2.8-.57,1.22-.7,2.07-.72,4.75v2.45l2.09.06a16,16,0,0,0,2.3,0c.19-.08.21-.33.21-2.64s0-2.56.27-2.95a1.78,1.78,0,0,1,1.7-.75,1.7,1.7,0,0,1,1.68.81c.2.33.23.68.27,3.1a14.66,14.66,0,0,1-.11,3.08c-.19.47-1.28,1.31-3.22,2.49-3.61,2.22-4.49,2.92-5,4s-.51,1.52-.48,6.25l0,4.52.35.75a3.73,3.73,0,0,0,3.66,2.17,6.93,6.93,0,0,0,1.54-.18Zm-.12-3.49a2.24,2.24,0,0,1-.71-.75c-.3-.52-.3-.58-.34-3.51a19.28,19.28,0,0,1,.11-3.52c.2-.72,1.08-1.58,2.88-2.84l1.41-1,0,2.83c.06,5.41,0,6.55-.61,7.59a2.08,2.08,0,0,1-2.77,1.17Zm77.05,3.28a6.21,6.21,0,0,0,2-1.87l.31-.42.21.72c.11.39.29.92.38,1.16l.18.45h2.39c2.23,0,2.38,0,2.3-.21s-.2-.53-.34-.93c-.25-.7-.25-.91-.32-12.72-.06-10.88-.09-12.06-.27-12.71-.77-2.62-2.76-3.89-6.11-3.91-2.92,0-5,.92-5.85,2.65a11.86,11.86,0,0,0-.81,5.88l.09,1.53h4.33c.11,0,.15-.61.15-2.55,0-3,.06-3.2,1-3.64a2,2,0,0,1,2.86,1,22,22,0,0,1,.14,2.87c0,3.48.26,3.14-4.05,5.83-2.91,1.82-3.73,2.5-4.24,3.54s-.58,1.61-.54,6.27c0,4.14.06,4.39.3,5A3.32,3.32,0,0,0,181.6,209a4.14,4.14,0,0,0,2.68.61,3.6,3.6,0,0,0,1.8-.36Zm-.73-3.27a1.7,1.7,0,0,1-.71-.81c-.29-.58-.3-.68-.34-3.53-.05-4.16-.07-4.12,3.06-6.32,1-.72,1.36-.91,1.41-.78s0,2.07,0,4.39c0,3.78-.08,4.29-.3,5a3.65,3.65,0,0,1-1.25,1.91,2.06,2.06,0,0,1-1.89.12Zm-110,3.16c0-.08.24-1.67.47-3.53s.45-3.43.48-3.49a31.12,31.12,0,0,1,5.87,0,34.4,34.4,0,0,1,.57,3.49c.25,1.83.48,3.4.51,3.49s.58.16,2.49.16a15.58,15.58,0,0,0,2.49-.1,5.75,5.75,0,0,0-.11-1.16c-.38-2.44-3.72-23.94-4.76-30.71-.61-4-1.16-7.36-1.2-7.43a35.89,35.89,0,0,0-6.22,0c-.08.13-.21,1-3.41,23.88-1,7.52-2,14-2,14.39-.2,1.26-.44,1.14,2.34,1.14,1.85,0,2.47,0,2.51-.15Zm1.52-12c0-.12.18-2.28.5-4.81.93-7.42,1.12-9.21,1.27-12.28.15-2.83.16-2.9.4-2.86s.25.13.32,2.18c.1,2.66.25,3.92,1.37,11.64.7,4.84.86,6.16.74,6.24a17.28,17.28,0,0,1-2.34.09c-2,0-2.19,0-2.26-.2ZM97.26,209c0-.15.63-4,1.33-8.51s1.71-11.09,2.25-14.57a62.18,62.18,0,0,0,.88-6.48,14.09,14.09,0,0,0-4.3,0,7.54,7.54,0,0,0-.37,2c-.11,1-.53,4.45-.92,7.63A113.21,113.21,0,0,0,95,201c-.07,2.38-.08,2.43-.33,2.39s-.25-.12-.33-2.18c-.11-3.13-.37-5.85-1.17-12.36-.39-3.19-.8-6.58-.91-7.53a11.62,11.62,0,0,0-.31-1.88,6,6,0,0,0-2.18-.15c-2,0-2.38.07-2.27.4,0,.08.5,3.28,1.06,7.13,1.87,12.78,3.28,22.21,3.36,22.33a14,14,0,0,0,2.69.12h2.62Zm27.54-19.38V169.86a13.28,13.28,0,0,0-2.18-.09h-2.18l0,19.73,0,19.74h4.42Zm24.41,19.46c0-.1.07-5.5.07-12,0-8.06,0-12,.13-12.41a2.23,2.23,0,0,1,2.26-1.79,1.69,1.69,0,0,1,1.64,1l.27.53v12.26c0,6.75,0,12.36.08,12.46s.37.19,2.25.19,2.2,0,2.26-.19c.12-.31.08-24.5,0-25.67-.24-2.29-.87-3.47-2.18-4.11a5,5,0,0,0-5.94,1.08l-.69.71-.07-.36a2.18,2.18,0,0,1,0-.72c.14-.67,0-.72-2.15-.72a12.91,12.91,0,0,0-2.07.1c-.12.07-.15,3.22-.16,14.72V209c0,.27,0,.27,2.14.27,1.84,0,2.15,0,2.21-.19Zm23.77,0a4.91,4.91,0,0,0,2.79-1.35c1-1.23,1.19-2.3,1.35-6.47s0-9.69-.3-10.5a3.13,3.13,0,0,0-2.72-2.09,2.26,2.26,0,0,1-.9-.27c0-.07.33-.19.78-.27a3.56,3.56,0,0,0,2.28-1.24c.73-1.19.87-2.4.87-7.46,0-6-.22-7.18-1.43-8.39s-2-1.33-8.68-1.29l-5.14,0,0,19.58c0,10.78,0,19.66,0,19.74s9.8.2,11.1,0Zm-6.18-4.68s-.08-3.13-.08-6.85c0-5.93,0-6.79.18-6.93a11.76,11.76,0,0,1,4.1.17c.93.49,1.1,1.27,1.18,5.51.06,3.56-.09,6.89-.35,7.44s-.77.74-3,.74a13.37,13.37,0,0,1-2.06-.08Zm-.05-24,0-6H169c2.43,0,2.56,0,2.78.89a38.07,38.07,0,0,1,.24,8.31c-.28,2.48-.55,2.69-3.57,2.69h-1.68Z"/><path id="path52" class="cls-2" d="M58.57,241.34c0-.08,0-41.24,0-91.46l0-91.31H241.43V241.43l-91.4,0c-73.06,0-91.42,0-91.46-.12Zm19.68-12.81a5.68,5.68,0,0,0,4.39-4c.27-.78.23-.82-1-.93l-.92-.09-.25.87a2.75,2.75,0,0,1-.88,1.47,3.15,3.15,0,0,1-2.35,1,3.29,3.29,0,0,1-3.43-2.08,3.67,3.67,0,0,1-.45-2.36,4.87,4.87,0,0,1,.3-2.21A3.33,3.33,0,0,1,77.15,218a3.25,3.25,0,0,1,3.18,1.87c.24.55.32.64.61.63a6.11,6.11,0,0,0,1.67-.4,5.76,5.76,0,0,0-1.22-2.2,6.3,6.3,0,0,0-8.62,0,6.22,6.22,0,0,0-1.47,2.74,10.52,10.52,0,0,0,0,3.67,5.62,5.62,0,0,0,6.9,4.21Zm13.52,0A5.84,5.84,0,0,0,96,224.21a9.64,9.64,0,0,0,0-3.67,5.79,5.79,0,0,0-5.83-4.37,6,6,0,0,0-5.27,3.16,6.39,6.39,0,0,0-.66,3.08,6,6,0,0,0,2.94,5.52,7.1,7.1,0,0,0,4.64.59Zm-2.56-1.61a3.59,3.59,0,0,1-2.64-2.63,7.18,7.18,0,0,1,.15-4.18,3.57,3.57,0,0,1,1.75-1.87,2.87,2.87,0,0,1,1.69-.32A3.34,3.34,0,0,1,93,219.06c1.53,1.7,1.43,5.43-.2,7A4.19,4.19,0,0,1,89.21,226.91Zm43.56,1.5a3.94,3.94,0,0,0,2.67-2.7c.19-.6.22-1.22.24-4.82,0-3.19,0-4.17-.14-4.31s-.35-.18-1-.15l-.84,0-.07,4.3c0,3.57-.09,4.38-.25,4.72a2.67,2.67,0,0,1-3.89.92c-.85-.75-.86-.83-.87-5.52a23.29,23.29,0,0,0-.14-4.33,2,2,0,0,0-.95-.15c-.7,0-.83,0-.94.25a30.51,30.51,0,0,0-.08,4.58c0,4.32,0,4.35.35,5a4.08,4.08,0,0,0,3,2.33,7.07,7.07,0,0,0,3-.14Zm52.6.17c2.45-.46,3.89-2.32,3.45-4.46-.3-1.42-1.32-2.23-3.5-2.76a10.45,10.45,0,0,1-3.38-1.14,1.56,1.56,0,0,1,0-1.64c.41-.46.95-.62,2-.62a5.69,5.69,0,0,1,1.35.12,2.1,2.1,0,0,1,1.25,1.51,2.49,2.49,0,0,0,.23.7,5,5,0,0,0,1,0l.92-.08-.07-.55a4.17,4.17,0,0,0-2.26-3,7.46,7.46,0,0,0-3-.45,4,4,0,0,0-3.83,3.05,3.1,3.1,0,0,0,.72,2.27c.61.72,1.61,1.16,3.74,1.64s2.46.67,2.65,1.38c.34,1.29-.61,2.35-2.22,2.48a2.92,2.92,0,0,1-3.23-2.49l-.08-.5-.85.08c-1.32.12-1.31.12-1.23.81a5.14,5.14,0,0,0,1,2.29,6.2,6.2,0,0,0,5.3,1.38Zm-85.06-.31s0-1.78,0-3.9a26.7,26.7,0,0,1,.08-3.61c.06.14.7,1.83,1.43,3.77a32.7,32.7,0,0,0,1.53,3.67,1.91,1.91,0,0,0,1.45,0c.07-.09.75-1.82,1.52-3.85s1.44-3.78,1.5-3.88.05,4.77-.07,6.65c-.08,1.23-.08,1.23,1,1.23.73,0,.94,0,1-.19s.07-2.73.07-5.84c0-4.38,0-5.67-.15-5.76a7.34,7.34,0,0,0-2.29,0s-.77,1.94-1.63,4.23-1.61,4.25-1.66,4.34,0,.34-2-5c-.72-1.93-1.37-3.54-1.43-3.58a5.23,5.23,0,0,0-1.15-.06c-.75,0-1,.06-1.13.18s-.11,2.66-.11,5.81v5.64l.26.18a1.47,1.47,0,0,0,1,.11,5,5,0,0,0,.78-.12Zm47.45,0c0-.05.09-2.68.1-5.86,0-4.71,0-5.8-.15-5.88a2.46,2.46,0,0,0-1.66.08c-.12.14-.13,1-.07,4.27l.08,4.08-.3-.35c-.17-.2-1.41-2-2.76-4a45.25,45.25,0,0,0-2.77-3.87,2,2,0,0,0-1.56-.17l-.26.13,0,5.82,0,5.82.93,0,.93,0v-4.21c0-3.22,0-4.18.14-4.07s1.3,1.88,2.72,4c2.33,3.48,2.63,3.88,3.11,4.12a1.49,1.49,0,0,0,1.46.05Zm11.74,0a44.46,44.46,0,0,0,.08-4.85c0-2.61,0-4.81.06-4.89a4.28,4.28,0,0,1,1.71-.18l1.61,0,0-.83c0-.58,0-.85-.12-.92s-2-.1-4.36-.1c-4.76,0-4.45-.08-4.45,1s-.06.92,1.81.92h1.65v5c0,4.95,0,5,.26,5.05a3.58,3.58,0,0,0,1.72-.12Zm7.06.09s0-2.64.05-5.85c0-4.87,0-5.85-.14-5.94a3.07,3.07,0,0,0-1.76.05,48.64,48.64,0,0,0-.14,5.7c0,3.05,0,5.65,0,5.76,0,.31.44.44,1.26.36l.73-.08Zm-52.19-3.92a35,35,0,0,1,0-3.79c.06.09.71,1.79,1.45,3.76s1.42,3.67,1.52,3.79a1.77,1.77,0,0,0,1.55.06c.06-.08.75-1.84,1.52-3.91s1.43-3.79,1.46-3.82,0,1.71,0,3.88l0,3.94,1,0,1,0v-5.92c0-3.25,0-5.92-.09-5.93a9,9,0,0,0-2.23.07c-.08.07-.86,2-1.74,4.39s-1.64,4.23-1.68,4.18-.77-1.93-1.61-4.18-1.59-4.19-1.67-4.29-.36-.21-1.14-.22a4,4,0,0,0-1.15.1c-.12.09-.15,1.4-.15,5.87,0,3.17,0,5.79.08,5.84a4.09,4.09,0,0,0,1,.08h1Zm38.23-1.88a57.85,57.85,0,0,0-.09-5.9,3.85,3.85,0,0,0-1.88,0c-.12.09-.15,1.38-.15,5.76,0,3.11,0,5.74.07,5.84s.24.19,1,.16l1,0Zm25.25,5.07a6.15,6.15,0,0,0,0-.9,20.37,20.37,0,0,0-3.17-.12,32.68,32.68,0,0,1-3.28-.09c-.11-.08-.14-.49-.11-1.64l0-1.55,2.62,0a14,14,0,0,0,2.77-.16,1.37,1.37,0,0,0,.16-.82,1.33,1.33,0,0,0-.16-.82,12.67,12.67,0,0,0-2.77-.17l-2.62,0v-2.86l3.09,0c2.45,0,3.11-.05,3.19-.18a2.4,2.4,0,0,0,.11-.85c0-.55,0-.7-.23-.8a71,71,0,0,0-8,0c-.13.08-.16,1.17-.16,5.82,0,3.15,0,5.79,0,5.87s.94.15,4.24.15h4.23l0-.78Zm22.31-10.34a4.59,4.59,0,0,0,4-4c.27-1.29,5.81-33.73,5.77-33.77a29.65,29.65,0,0,0-4.52,0,3.18,3.18,0,0,0-.24,1c-.06.48-.49,3.92-.95,7.63-1,7.81-1.16,9.73-1.27,12.81-.06,1.78-.11,2.24-.24,2.24a.26.26,0,0,1-.22-.15c0-.08-.15-1.36-.29-2.84-.41-4.49-2.16-20.34-2.28-20.63s-.14-.27-2.27-.27c-1.74,0-2.17,0-2.22.17s.75,5.48,1.74,12,2,13.19,2.28,14.89.47,3.39.47,3.76c0,1.84-.73,2.62-2.56,2.76l-1,.07v4.3l.54.07a13.83,13.83,0,0,0,3.22,0Zm-62.88-7.69a5.26,5.26,0,0,0,3.56-2.67c.89-1.68.86-1.25.86-12.74,0-11.27,0-11-.72-12.49-.93-1.83-3-2.86-5.69-2.86-3.69,0-5.72,1.38-6.69,4.54l-.27.9,0,9.71c0,8.39,0,9.86.15,10.81a6.91,6.91,0,0,0,1.5,3.36,6.33,6.33,0,0,0,3,1.56A12.91,12.91,0,0,0,137.28,209.54Zm-3.22-3.46a2,2,0,0,1-1.26-1.33c-.17-.7-.15-19.84,0-20.6a2.11,2.11,0,0,1,1.26-1.55,4.13,4.13,0,0,1,1.25-.09,1.75,1.75,0,0,1,1.72.94c.24.4.24.62.24,10.68V204.4l-.27.5a2.65,2.65,0,0,1-1.45,1.22,2.1,2.1,0,0,1-1.5,0Zm-24.59,3.26a5.09,5.09,0,0,0,2.14-1.79l.44-.6.33,1a6.75,6.75,0,0,0,.48,1.2c.12.15.57.18,2.46.18,1.27,0,2.31,0,2.31-.05a2.22,2.22,0,0,0-.12-.39c-.54-1.4-.52-1-.59-13.6-.08-13.1,0-12.55-.81-13.94-1-1.75-2.91-2.65-5.7-2.64-3,0-4.94.93-5.84,2.83-.6,1.25-.68,1.78-.76,4.6,0,2.09,0,2.57.1,2.66a27.24,27.24,0,0,0,4.34,0c.16-.06.19-.4.19-2.54,0-2.69.09-3.12.63-3.52.28-.21.51-.25,1.34-.25s1,0,1.36.34c.53.51.63,1.2.59,4.08l0,2.47-.73.67a18.36,18.36,0,0,1-2.27,1.62c-5.16,3.16-5.58,3.62-5.79,6.43a65.39,65.39,0,0,0,0,7.14c.12,1.72.32,2.32,1.08,3.15a4.63,4.63,0,0,0,4.86.89Zm-.39-3.43c-1-.62-1.15-1.24-1.1-4.91,0-3.19.08-3.35,1.08-4.25a36.25,36.25,0,0,1,3.24-2.3s.07,2,0,4.48c0,3.84-.07,4.61-.25,5.12-.54,1.64-1.95,2.51-3,1.86Zm76.7,3.44a5.82,5.82,0,0,0,2.26-1.91l.35-.5.34,1.06a4,4,0,0,0,.53,1.21,20.54,20.54,0,0,0,4.63,0,.75.75,0,0,0-.07-.45c-.53-1.4-.51-1-.58-13.65l-.07-12-.27-.77a5.43,5.43,0,0,0-1.52-2.31,8.13,8.13,0,0,0-5.19-1.35c-2.52.19-4.23,1-5.11,2.48-.66,1.1-.88,2.23-1,4.84a24.14,24.14,0,0,0,0,2.6l.08.31,2.24,0,2.24,0,.06-2.63c.06-2.92.13-3.22.86-3.61a2.7,2.7,0,0,1,2.2,0c.76.56.81.8.85,3.67.05,3.68.28,3.33-3.8,5.87-3.14,2-3.48,2.21-4.06,3-.93,1.29-1,1.62-.93,6.85l0,4.58.31.66a3.5,3.5,0,0,0,1.62,1.79,4.86,4.86,0,0,0,3.93.23Zm-.23-3.34c-.48-.14-.68-.34-1-.95s-.25-.81-.29-3.37c-.05-3.42,0-3.85.91-4.73a31.38,31.38,0,0,1,3.4-2.51c.06,0,.08,2,.06,4.53,0,4.46,0,4.6-.31,5.27-.59,1.46-1.63,2.12-2.81,1.76ZM75.16,209.2c.18-.12.29-.75.63-3.55.23-1.87.46-3.45.52-3.52a44.89,44.89,0,0,1,5.8,0s.28,1.61.54,3.5a16.11,16.11,0,0,0,.65,3.58,25.11,25.11,0,0,0,4.83.05c.13-.08-.06-1.51-.94-7.13-.6-3.86-2-12.61-3-19.45s-1.94-12.54-2-12.69l-.06-.27-3.12,0c-2.63,0-3.14.06-3.22.21s-.71,4.65-1.47,10.1l-2.71,19.44c-.73,5.23-1.3,9.6-1.26,9.7s.43.18,2.32.18a7.48,7.48,0,0,0,2.46-.16Zm1.71-12a47.37,47.37,0,0,1,.61-6,117.55,117.55,0,0,0,1.18-11.76c.07-2.2.08-2.26.33-2.22s.25.12.33,2.42c.08,2.58.25,4,1.45,12.24.42,2.86.72,5.24.67,5.3a29,29,0,0,1-4.57.05Zm20.24,12.06a13.9,13.9,0,0,0,.68-3.38c.27-1.77,1.3-8.43,2.28-14.79s1.76-11.62,1.73-11.68a19.41,19.41,0,0,0-4.44,0,15.56,15.56,0,0,0-.38,2.42c-.15,1.25-.53,4.4-.85,7s-.7,5.78-.83,7a70.31,70.31,0,0,0-.41,7.28c.07.11-.27.3-.37.21s-.1-1.18-.17-2.55c-.18-3.48-.39-5.63-1.14-11.77-.36-2.92-.76-6.25-.9-7.39a12,12,0,0,0-.38-2.25c-.1-.12-.61-.15-2.29-.12l-2.16,0,0,.36c0,.35.58,4.23,2.9,19.94,1.44,9.82,1.4,9.52,1.58,9.64a26.61,26.61,0,0,0,5.13,0Zm27.66,0s0-8.88,0-19.72V169.77l-2.12,0c-1.89,0-2.14,0-2.27.18s-.22,38.85,0,39.21.24.23,2.24.16c1.17,0,2.13-.08,2.15-.1Zm24.39,0c.07-.07.13-4.58.15-12.29l0-12.18.3-.6a2.08,2.08,0,0,1,1.63-1.21,1.88,1.88,0,0,1,2.2,1.34c.06.26.11,5.91.11,12.67,0,11.51,0,12.22.21,12.32a20.1,20.1,0,0,0,4.33-.05c.09-.09.12-4,.09-13.32,0-12.92,0-13.2-.28-14a3.79,3.79,0,0,0-2.52-2.85,5,5,0,0,0-5.44,1.33l-.69.71v-.76a2,2,0,0,0-.14-.9,15.13,15.13,0,0,0-4.25,0c-.23.23-.21,29.52,0,29.74a15.51,15.51,0,0,0,4.25,0Zm24-.09c2.88-.61,3.75-2.05,4-6.59.14-2.55.14-6.22,0-9.2a7.14,7.14,0,0,0-.35-2.74,3.33,3.33,0,0,0-2.7-2l-.74-.13s0-.06,0-.12.13-.12.29-.12a5.36,5.36,0,0,0,2.16-.77A4.17,4.17,0,0,0,177,185a72.72,72.72,0,0,0,0-11.24c-.44-2.46-1.32-3.42-3.51-3.89a45.78,45.78,0,0,0-6.2-.17c-4.81,0-5.4,0-5.46.19s-.08,8.94-.08,19.63c0,18.06,0,19.47.21,19.65s.63.2,5.28.14a44.27,44.27,0,0,0,5.94-.24Zm-6.35-4.76c0-.08-.05-3.19,0-6.91l0-6.74,1.91,0c3.22-.06,3.32.09,3.46,5.16a41,41,0,0,1-.33,7.86c-.29.67-.5.73-2.86.78-1.7,0-2.13,0-2.18-.12Zm0-18.08c-.11-.11-.12-11.41,0-11.69s.36-.19,2-.19c2.33,0,2.67.11,2.91.93a37.43,37.43,0,0,1,.14,9.21c-.29,1.56-.58,1.72-3.09,1.78a10.82,10.82,0,0,1-1.94,0Z"/><path id="path50" class="cls-3" d="M58.57,241.34c0-.08,0-41.24,0-91.46l0-91.31H241.43V241.43l-91.4,0c-73.06,0-91.42,0-91.46-.12Zm19.71-12.81a5.53,5.53,0,0,0,3-1.59c1-1,1.83-2.83,1.48-3.12a3.63,3.63,0,0,0-1.08-.15l-.94,0-.14.54A3.26,3.26,0,0,1,77,226.85a2.51,2.51,0,0,1-1.68-.36A4.63,4.63,0,0,1,73.5,224a7.64,7.64,0,0,1,0-3.16A3.33,3.33,0,0,1,76.86,218a3.26,3.26,0,0,1,3.45,1.83c.26.56.35.66.63.65a6.11,6.11,0,0,0,1.67-.4,5.76,5.76,0,0,0-1.22-2.2,6.31,6.31,0,0,0-9,.38,7.31,7.31,0,0,0,.39,8.78,5.57,5.57,0,0,0,5.45,1.51Zm13.47,0a5.73,5.73,0,0,0,4.2-4.3,9.69,9.69,0,0,0,0-3.68,5.67,5.67,0,0,0-2.78-3.64,6,6,0,0,0-8.8,3.69,8.27,8.27,0,0,0,.61,5.25A5.63,5.63,0,0,0,87.23,228a7,7,0,0,0,4.52.54Zm-2.24-1.63a3.07,3.07,0,0,1-2.64-2,3.8,3.8,0,0,1-.5-2.2,5.11,5.11,0,0,1,.19-2.12,3.9,3.9,0,0,1,1.67-2.27c.52-.31.65-.33,1.93-.33s1.44,0,1.85.26a4.11,4.11,0,0,1,2,3.24c.27,2.22-.54,4.34-2,5.06A5,5,0,0,1,89.51,226.9ZM132,228.59a4.22,4.22,0,0,0,3.31-2.46c.26-.57.27-.74.33-4.89.05-3.45,0-4.35-.09-4.57s-.23-.27-1-.24l-.86,0-.07,4.29a30.66,30.66,0,0,1-.21,4.66,2.62,2.62,0,0,1-2.16,1.46,2.3,2.3,0,0,1-2.41-1.33c-.2-.44-.22-.87-.23-4.67a23.29,23.29,0,0,0-.14-4.33,2.13,2.13,0,0,0-.95-.14c-.7,0-.83,0-.94.24a30.32,30.32,0,0,0-.08,4.57c.07,5,.09,5.09,1.08,6.1a4.8,4.8,0,0,0,4.44,1.27Zm53.39,0c2.53-.47,4-2.5,3.35-4.69a3.21,3.21,0,0,0-1.67-1.95,16.6,16.6,0,0,0-2.42-.76,21.65,21.65,0,0,1-2.25-.66,1.26,1.26,0,0,1,.21-2.38,4.73,4.73,0,0,1,3,.13,2.47,2.47,0,0,1,.94,1.48,1.32,1.32,0,0,0,.17.54,5.07,5.07,0,0,0,1,0l.92-.08-.07-.53a4,4,0,0,0-1.06-2.16,3.82,3.82,0,0,0-2.14-1.15c-2.31-.55-4.56.17-5.46,1.75a2.64,2.64,0,0,0-.37,2.13c.38,1.59,1.74,2.45,4.85,3,1.43.27,2,.57,2.17,1.22.44,1.37-.68,2.49-2.49,2.49a2.12,2.12,0,0,1-1.49-.37,3.22,3.22,0,0,1-1.44-2l-.08-.55-.88.08c-1.29.12-1.28.11-1.19.88a4.22,4.22,0,0,0,3.82,3.6,7.16,7.16,0,0,0,2.53,0Zm-85.11-.31s0-1.75,0-3.84,0-3.76,0-3.72.66,1.65,1.39,3.58,1.41,3.64,1.5,3.79.28.27.83.27.68,0,.82-.27.8-2,1.57-4,1.42-3.72,1.45-3.7,0,1.76-.06,3.86-.08,3.88,0,4,.35.15,1,.15.94,0,1-.19.07-2.73.07-5.84c0-4.38,0-5.67-.15-5.76a6.83,6.83,0,0,0-2.3,0s-.8,2-1.68,4.34-1.62,4.29-1.64,4.31-.76-1.86-1.64-4.19-1.63-4.3-1.68-4.38-.44-.16-1.18-.17c-.93,0-1.1,0-1.2.19s-.16,11.33,0,11.53a.6.6,0,0,0,.26.2,6.43,6.43,0,0,0,1.67-.11Zm47.44,0c.05,0,.1-2.68.11-5.86,0-4.75,0-5.79-.15-5.88a2.46,2.46,0,0,0-1.66.08c-.12.15-.13,1-.07,4.27.08,3.56.06,4.06-.09,3.91s-1.33-1.92-2.76-4-2.71-3.94-2.87-4a2.1,2.1,0,0,0-1.59-.17l-.26.13,0,5.82,0,5.82.93,0,.92,0,0-4.2,0-4.2,2,2.91c1.09,1.6,2.26,3.35,2.6,3.88.72,1.11,1,1.45,1.53,1.6a2,2,0,0,0,1.26-.1Zm11.76-.09a31.82,31.82,0,0,0,.07-4.69c0-2.49,0-4.67,0-4.84l.08-.31,1.64,0,1.64,0,0-.83c0-.58,0-.85-.12-.92s-2-.1-4.36-.1c-4,0-4.21,0-4.33.23a2.81,2.81,0,0,0,0,1.52c.06.1.59.16,1.7.18l1.6,0,.06,4.94c.06,4.73.07,5,.29,5a3,3,0,0,0,1.7-.18Zm7.05.14s0-2.64.05-5.85c0-4.87,0-5.85-.14-5.94a3.07,3.07,0,0,0-1.76.05,51.54,51.54,0,0,0-.14,5.88c0,6.61-.12,6.08,1.19,5.95l.8-.09Zm-52.19-3.85c0-2.14,0-3.85,0-3.79s.7,1.72,1.44,3.69,1.42,3.68,1.53,3.8.34.2.85.17.68-.07.81-.33.78-1.94,1.53-3.94l1.38-3.64,0,3.94,0,3.94,1,0,1,0v-5.92c0-3.25,0-5.92-.09-5.93a9,9,0,0,0-2.23.07c-.09.07-.88,2-1.75,4.39s-1.63,4.23-1.67,4.18-.76-1.94-1.6-4.21-1.6-4.19-1.69-4.29a4.61,4.61,0,0,0-2.28-.09c-.12.09-.15,1.4-.15,5.87,0,3.17,0,5.8.08,5.84a4.09,4.09,0,0,0,1,.08h1Zm38.23-1.94c0-3.66,0-5.83-.09-5.92a3.83,3.83,0,0,0-1.88,0c-.12.08-.15,1.38-.15,5.86,0,3.17,0,5.81.08,5.85a3.53,3.53,0,0,0,1.05,0l1,0Zm25.25,5.06a6.15,6.15,0,0,0,0-.9,19.84,19.84,0,0,0-3.18-.11c-2.54,0-3.17,0-3.28-.17a4.42,4.42,0,0,1-.1-1.64l0-1.48,2.62,0a12.48,12.48,0,0,0,2.78-.17c.11-.09.15-.36.13-.92l0-.79-2.68,0a9,9,0,0,1-2.77-.18,8.36,8.36,0,0,1,0-2.69c.11-.12.75-.15,3.09-.14a27.24,27.24,0,0,0,3.09-.06,1.7,1.7,0,0,0,.13-.84c0-.64,0-.79-.23-.89a71,71,0,0,0-8,0c-.14.08-.16,1.15-.16,5.82,0,3.15,0,5.79,0,5.87s.94.15,4.24.15h4.23Zm22.31-10.34a4.59,4.59,0,0,0,4-4c.35-1.7,5.83-33.76,5.77-33.81s-1-.05-2.21-.08a7.28,7.28,0,0,0-2.31.1,41.5,41.5,0,0,0-.66,4.48c-.29,2.39-.69,5.55-.88,7a97.75,97.75,0,0,0-1,10.95c0,1-.12,1.41-.35,1.15a23.86,23.86,0,0,1-.35-2.85c-.41-4.48-2.17-20.4-2.29-20.69s-.14-.27-2.27-.27c-1.75,0-2.17,0-2.22.17s2.54,17.45,4,26.88c.61,3.86.59,4.87-.09,5.68a2.49,2.49,0,0,1-2,.82l-1,.07v4.3l.54.07a13.3,13.3,0,0,0,3.22,0Zm-62.64-7.76a5.24,5.24,0,0,0,2.23-1.16,6.09,6.09,0,0,0,1.67-2.8l.28-1V194.13c0-11.42,0-11-.74-12.55-.85-1.73-3-2.8-5.66-2.8-3.13,0-5.15,1-6.14,3.13-.88,1.85-.84,1.28-.84,12.52,0,9.22,0,10.16.21,10.91.83,3.2,2.89,4.57,6.72,4.44A8,8,0,0,0,137.52,209.47Zm-3.2-3.33a2,2,0,0,1-1.34-1c-.23-.4-.24-.62-.24-10.74V184.1l.3-.53c.49-.87.8-1,2-1s1.57.17,2,1c.23.46.24.71.24,10.56,0,10.69,0,10.57-.56,11.28a2.63,2.63,0,0,1-2.4.79Zm-24.81,3.19a5.74,5.74,0,0,0,2.22-1.9l.34-.48.26.9a6.93,6.93,0,0,0,.45,1.21l.2.3h2.34c2.18,0,2.34,0,2.27-.21s-.19-.59-.33-1.05l-.27-.83-.07-11.94c-.07-10.73-.1-12-.28-12.64-.79-2.71-2.74-4-6.17-3.95-3.17,0-5,.93-6,2.95a11.34,11.34,0,0,0-.68,5.05l0,2.14h4.54l.06-2.69c.06-3,.12-3.21.91-3.54a3,3,0,0,1,2.16.07c.76.47.81.7.81,3.87v2.85l-.68.63a16.32,16.32,0,0,1-2.09,1.5c-4.26,2.62-5,3.25-5.62,4.5-.37.8-.49,2.22-.5,5.53s.14,5.07.46,5.8c.83,1.92,3.33,2.78,5.62,1.93Zm-.3-3.36a2.15,2.15,0,0,1-1-1.09,17.2,17.2,0,0,1-.19-3.19c-.06-3.42,0-3.85.9-4.73a31.45,31.45,0,0,1,3.41-2.51s.08,2,0,4.42c-.06,4.85-.1,5.26-.75,6.19A2,2,0,0,1,109.21,206Zm75.73,3.62a5.47,5.47,0,0,0,1.24-.41,7.91,7.91,0,0,0,2-1.87l.24-.32.28,1c.42,1.45.31,1.4,2.92,1.4a12.61,12.61,0,0,0,2.27-.11.75.75,0,0,0-.07-.45c-.53-1.4-.51-1-.58-13.65-.07-11.92-.07-12-.33-12.77a4.9,4.9,0,0,0-2.88-3.11,10.21,10.21,0,0,0-3.83-.56c-3.4.26-5.06,1.45-5.81,4.19a31.18,31.18,0,0,0-.25,5.73l.08.31,2.24,0,2.24,0,.06-2.63c.07-2.91.12-3.12.82-3.56a2.46,2.46,0,0,1,2.24,0c.75.56.81.81.85,3.61a18.05,18.05,0,0,1-.09,3c-.23.69-1,1.26-3.82,3-3.17,2-3.88,2.57-4.46,3.78l-.38.82v9.79l.34.75a3.82,3.82,0,0,0,2.86,2.17,4,4,0,0,0,1.82,0Zm.26-3.76c-.74-.41-1-1.7-.9-5.17.07-3.27.06-3.26,3-5.27l1.38-.95,0,4.12c0,4.56,0,5.39-.66,6.37A1.89,1.89,0,0,1,186.2,206a2.59,2.59,0,0,1-1-.18Zm-110,3.35a26.64,26.64,0,0,0,.57-3.55c.22-1.86.45-3.43.51-3.5a44.89,44.89,0,0,1,5.8,0s.28,1.6.54,3.5.53,3.5.59,3.58a24.87,24.87,0,0,0,4.89.05c.13-.08-.11-1.79-1.12-8.32-.7-4.52-2.06-13.27-3-19.45S82.25,170.12,82.22,170l-.06-.27H75.84l-.06.27c0,.14-.36,2.41-.72,5-.63,4.54-4.32,30.92-4.62,33a4.82,4.82,0,0,0-.06,1.17c.06.16.38.19,2.39.19s2.34,0,2.46-.18ZM76.79,197c0-.12.32-2.74.71-5.82a117.29,117.29,0,0,0,1.18-11.71c.07-2.16.09-2.27.32-2.27s.23.07.2.66a53,53,0,0,0,.4,5.79c.1.79.56,4,1,7.2s.83,5.9.83,6.06v.3H79.12c-2.14,0-2.33,0-2.33-.21Zm20.39,12.24c.06-.08.69-3.89,1.39-8.45s1.74-11.22,2.29-14.79,1-6.54.94-6.6a18.34,18.34,0,0,0-4.44,0,21.52,21.52,0,0,0-.44,2.9c-.18,1.51-.59,4.87-.91,7.46s-.66,5.55-.76,6.57a67.38,67.38,0,0,0-.36,6.82c.06.11-.27.3-.37.21s-.1-1.18-.17-2.55c-.22-4.24-.27-4.69-2.16-20.21a10.57,10.57,0,0,0-.19-1.17c-.06-.15-.42-.18-2.26-.18a14.11,14.11,0,0,0-2.25.1,26.71,26.71,0,0,0,.35,2.9c1.94,13.1,3.88,26.29,3.88,26.49,0,.56.2.61,2.86.61a8.1,8.1,0,0,0,2.6-.15Zm27.59,0s0-8.89,0-19.72v-19.7l-2.13,0c-1.89,0-2.14,0-2.27.18s-.22,39.09,0,39.3a6.71,6.71,0,0,0,2.24.07l2.13-.09Zm24.39,0c.07-.07.13-4.63.15-12.29l0-12.18.3-.6a2,2,0,0,1,1.67-1.2,1.79,1.79,0,0,1,2.14,1.32c.09.33.13,4.26.13,12.68,0,9.63,0,12.23.15,12.3a19,19,0,0,0,4.4,0c.08-.1.11-4.38.08-13.32,0-12.06-.05-13.24-.24-13.87a3.91,3.91,0,0,0-3.56-3.22A4.89,4.89,0,0,0,150,180.3l-.75.74,0-.86,0-.86-2.07,0a8.06,8.06,0,0,0-2.24.1c-.25.21-.25,29.51,0,29.76s.6.16,2.15.15a10.3,10.3,0,0,0,2.1-.13Zm24-.09a4.16,4.16,0,0,0,3.68-3.63c.5-2.14.53-13.28,0-14.78a3.69,3.69,0,0,0-3.12-2.15c-.63-.1-.56-.26.17-.35a3.14,3.14,0,0,0,2.85-2.33,32.14,32.14,0,0,0,.42-7.81c-.12-5.35-.52-6.73-2.2-7.65-1.12-.61-1.9-.67-7.78-.67-4.77,0-5.36,0-5.42.19s-.08,8.94-.08,19.63c0,18,0,19.47.2,19.65s.64.2,5.29.14a42.2,42.2,0,0,0,5.95-.24Zm-6.3-11.54v-6.95l2,0c2.23,0,2.4.09,2.78.83s.5,1.93.44,6.89a45,45,0,0,1-.19,5.19c-.24.74-.58.84-3,.9l-2.06.05Zm0-11.31s0-2.73,0-5.95l.06-5.86h1.91a18.09,18.09,0,0,1,2.24.09,1,1,0,0,1,.5.42c.32.62.45,2.61.4,6.13-.07,5.12-.08,5.13-3.27,5.22a8.65,8.65,0,0,1-1.85-.06Z"/><path id="path48" class="cls-4" d="M58.57,241.34c0-.08,0-41.24,0-91.46l0-91.31H241.43V241.43l-91.4,0c-73.06,0-91.42,0-91.46-.12Zm19.71-12.81a6,6,0,0,0,4.51-4.43l0-.35-.94-.1a5.55,5.55,0,0,0-1.08,0c-.09,0-.22.31-.3.62A3.19,3.19,0,0,1,77,226.85a2.44,2.44,0,0,1-1.68-.37,4.55,4.55,0,0,1-2-4c0-1.94.73-3.43,2-4.06a3,3,0,0,1,1.85-.36,2.73,2.73,0,0,1,1.78.35,3,3,0,0,1,1.41,1.5c.11.44.27.6.64.6A3.34,3.34,0,0,0,82.6,220a5.73,5.73,0,0,0-1.25-2.24,5.47,5.47,0,0,0-3.75-1.59,5.9,5.9,0,0,0-4.77,1.64,7.14,7.14,0,0,0,.07,9.26,5.49,5.49,0,0,0,5.38,1.43Zm13.34,0A5.89,5.89,0,0,0,96,224.33a10.17,10.17,0,0,0,0-3.81,5.58,5.58,0,0,0-4.2-4.18,6.12,6.12,0,0,0-6.92,3,6.47,6.47,0,0,0-.64,3.1,6.65,6.65,0,0,0,1.7,4.64,6.78,6.78,0,0,0,5.73,1.5Zm-3.07-1.94c-1.43-.66-2.21-2.14-2.21-4.19s.68-3.39,2-4.09a2.79,2.79,0,0,1,1.73-.39,3.34,3.34,0,0,1,2.7.94c1.64,1.6,1.65,5.43,0,7.06a3.27,3.27,0,0,1-2.69.95,3.14,3.14,0,0,1-1.56-.28Zm43.52,2a4,4,0,0,0,3.46-3.1c.07-.3.14-2.41.15-4.7,0-3.47,0-4.18-.14-4.27a3.23,3.23,0,0,0-1-.08l-.83,0-.07,4.3c0,2.37-.11,4.41-.17,4.54a2.66,2.66,0,0,1-2.22,1.58,2.32,2.32,0,0,1-2.49-1.6,41.45,41.45,0,0,1-.13-4.52,22.18,22.18,0,0,0-.14-4.21,2.82,2.82,0,0,0-1.88,0c-.11.12-.13,1.3-.09,4.65l0,4.48.32.65c.86,1.77,2.82,2.61,5.19,2.22Zm53.54-.05a3.93,3.93,0,0,0,2.91-2,3.41,3.41,0,0,0-.44-3.84c-.64-.7-1.19-.94-3.37-1.49s-2.73-.79-2.94-1.32a1,1,0,0,1,0-.87,1.15,1.15,0,0,1,.71-.77,2.75,2.75,0,0,1,1.69-.24c.95,0,1.22.08,1.49.29a2.47,2.47,0,0,1,.94,1.48,1.32,1.32,0,0,0,.17.54,5.07,5.07,0,0,0,1,0l.92-.08-.07-.53c-.31-2.28-2.27-3.61-5.09-3.46a4.2,4.2,0,0,0-3,1.21,2.89,2.89,0,0,0-1,2.56c.26,1.74,1.48,2.59,4.62,3.24,1.8.36,2.38.69,2.53,1.42.26,1.34-1.1,2.51-2.76,2.37a2.92,2.92,0,0,1-2.69-2.34l-.15-.64-.87.08c-1.26.11-1.26.11-1.18.85a4.07,4.07,0,0,0,2.24,3.16,7.33,7.33,0,0,0,4.31.42Zm-85.3-.26s0-1.75,0-3.84,0-3.76,0-3.73.66,1.65,1.39,3.59,1.41,3.64,1.51,3.79.28.27.88.27h.69l.24-.57c.13-.31.82-2.11,1.53-4s1.31-3.42,1.33-3.4,0,1.79-.07,3.92-.06,3.91,0,4a3,3,0,0,0,1,.06l.94,0,0-5.78c0-3.73,0-5.83-.09-5.92a6.08,6.08,0,0,0-2.33,0s-.8,2-1.67,4.3-1.63,4.21-1.69,4.19-.8-1.9-1.66-4.2-1.6-4.23-1.65-4.28a6.69,6.69,0,0,0-2.32,0c-.11.09-.14,1.41-.14,5.9v5.78l.26.1a4.85,4.85,0,0,0,1.76-.07Zm47.44,0c.11-.1.15-11.54.05-11.72a3.26,3.26,0,0,0-1.73,0c-.14.09-.16.75-.09,4.26.07,3.17.05,4.13,0,4s-1.31-1.87-2.73-4-2.73-4-2.9-4.08a2,2,0,0,0-1.63-.21l-.26.13v11.7h1.91l0-4.2,0-4.21,2.64,3.94c1.45,2.16,2.75,4,2.88,4.15a1.92,1.92,0,0,0,.58.32,2,2,0,0,0,1.26-.1Zm11.8,0s0-2.21,0-4.85,0-4.86.06-4.94a4.28,4.28,0,0,1,1.71-.18l1.61,0v-1.79l-4.29,0a26,26,0,0,0-4.45.11,2.69,2.69,0,0,0-.06,1.62c.06.1.59.16,1.7.18l1.6,0,.06,4.94c.06,4.81.07,5,.3,5a4.87,4.87,0,0,0,1.73-.09Zm7,0s0-2.64.05-5.85c0-4.9,0-5.85-.14-5.93a3.93,3.93,0,0,0-1.74,0c-.11.07-.15,1.5-.16,5.87,0,6.7-.13,6.17,1.2,6,.42,0,.78-.09.79-.1Zm-52.19-3.85c0-2.14,0-3.85,0-3.79s.7,1.74,1.44,3.73,1.43,3.7,1.52,3.79a1.47,1.47,0,0,0,.87.17h.7l.23-.63c1.65-4.38,2.68-7.08,2.74-7.13s0,1.7,0,3.85l-.07,3.91h2l0-5.94,0-5.94h-1a5.13,5.13,0,0,0-1.2.07c-.09.05-.9,2-1.79,4.39-1.4,3.75-1.63,4.27-1.74,4s-.79-2-1.59-4.2a42.35,42.35,0,0,0-1.68-4.13c-.17-.14-.45-.18-1.22-.16l-1.08,0c-.11,0-.12,11.65,0,11.76a4.09,4.09,0,0,0,1,.08h1l-.08-3.9Zm38.23-2c0-3.24,0-5.89-.06-5.9a6.74,6.74,0,0,0-1.91.05c-.12.09-.15,1.4-.15,5.87,0,3.17,0,5.8.08,5.84a3.53,3.53,0,0,0,1.05,0l1,0Zm25.25,5.16a6.15,6.15,0,0,0,0-.9,19.76,19.76,0,0,0-3.17-.11,13.06,13.06,0,0,1-3.28-.15,9.71,9.71,0,0,1,0-3,9.73,9.73,0,0,1,2.77-.17l2.68,0v-1.79l-2.68,0a10.12,10.12,0,0,1-2.77-.17,8.41,8.41,0,0,1,0-2.7c.1-.13.74-.15,3.08-.13,1.62,0,3,0,3.08-.06a2.73,2.73,0,0,0,0-1.72,58.65,58.65,0,0,0-8.17,0c-.05.1-.11,10.65-.06,11.67,0,.12.94.15,4.24.15h4.23l0-.78Zm22.42-10.34a4.34,4.34,0,0,0,3.4-2.43,9.92,9.92,0,0,0,.56-1.84c.39-2.06,5.75-33.48,5.71-33.52s-1-.05-2.22-.08a7.19,7.19,0,0,0-2.31.1,46.7,46.7,0,0,0-.72,4.84c-.31,2.58-.7,5.74-.87,7a93.82,93.82,0,0,0-.91,10.58c0,1-.12,1.43-.35,1.17-.06,0-.24-1.63-.42-3.5-.47-5-2.15-20-2.26-20.16s-.65-.15-2.24-.15c-1.81,0-2.15,0-2.21.18s.42,3.4,1,7.32l2.11,13.76c.55,3.65,1.08,7.14,1.18,7.76.31,2,.2,3-.39,3.72a2.68,2.68,0,0,1-2.06.81l-.9.07v4.3l.48.07a14.24,14.24,0,0,0,3.39,0Zm-63.43-7.58a5.56,5.56,0,0,0,4.65-4.35c.19-.72.21-1.61.21-11.11,0-10.84,0-10.77-.54-12.23a5.18,5.18,0,0,0-2.17-2.37,8.31,8.31,0,0,0-3.79-.8c-3.9,0-6,1.6-6.71,5.09-.22,1.08-.23,1.63-.2,11,0,9.85,0,9.87.31,10.75a5.26,5.26,0,0,0,1.37,2.49,5.16,5.16,0,0,0,2.71,1.45l.9.18a12.6,12.6,0,0,0,3.26-.11Zm-2.53-3.53a2.08,2.08,0,0,1-1.36-1c-.19-.35-.21-1.13-.21-10.65V184.22l.3-.6a2,2,0,0,1,2.25-1.1c1,.06,1.39.27,1.75,1,.23.46.24.74.28,10.08,0,6,0,9.9-.09,10.38a3.42,3.42,0,0,1-.42,1.22,2.41,2.41,0,0,1-2.5.93Zm-25.77,3.47a4.5,4.5,0,0,0,3.13-2.08,1.55,1.55,0,0,1,.36-.42,2.36,2.36,0,0,1,.28.76,5.49,5.49,0,0,0,.43,1.13l.23.38h2.33a15.19,15.19,0,0,0,2.33-.09,5.08,5.08,0,0,0-.23-.76c-.46-1.31-.48-1.93-.48-12.89,0-6.08-.06-11.16-.12-11.79a5.06,5.06,0,0,0-2-4,8.39,8.39,0,0,0-5.52-1.08c-3.06.38-4.51,1.52-5.22,4.08a13.75,13.75,0,0,0-.21,3.4v2.63h4.54l.06-2.63c.06-3,.15-3.28.9-3.59a3,3,0,0,1,2.17.06c.76.47.81.7.81,3.87v2.85l-.68.63a23.91,23.91,0,0,1-2.68,1.85c-3.71,2.27-4.45,2.88-5,4.15-.37.8-.49,2.22-.5,5.53,0,3.49.13,5.08.49,5.87a4.31,4.31,0,0,0,4.62,2.12Zm.74-3.59a1.87,1.87,0,0,1-1-1c-.24-.44-.26-.7-.3-3.31-.06-4.14,0-4.24,2.79-6.19l1.55-1.07,0,3.79c.05,5.16-.11,6.17-1.14,7.23a1.75,1.75,0,0,1-1.93.55Zm75.66,3.59a4.38,4.38,0,0,0,2.8-1.74l.68-.85.28.95c.43,1.5.27,1.42,2.92,1.38s2.43.09,2-1.34l-.28-.84-.06-12c-.07-11.18-.09-12.05-.29-12.66a4.67,4.67,0,0,0-2-2.76,7.35,7.35,0,0,0-4.15-1c-3.7,0-5.71,1.3-6.41,4.18a15.84,15.84,0,0,0-.21,3.39v2.57h4.54l.06-2.63a15.64,15.64,0,0,1,.19-2.87,2.26,2.26,0,0,1,2.23-1,2.12,2.12,0,0,1,1.39,1.36,22.65,22.65,0,0,1,.12,2.77c0,2.65-.09,3-.9,3.71-.26.23-1.67,1.17-3.14,2.08-3.2,2-3.68,2.4-4.28,3.63l-.45.91v4.84c0,4.37,0,4.9.22,5.47a3.87,3.87,0,0,0,3,2.41,4,4,0,0,0,1.82,0Zm.28-3.76c-.71-.38-.93-1.5-.94-4.68,0-3.4.18-3.79,2.51-5.43l1.71-1.18c.2-.12.21.05.17,4.33s-.06,4.51-.29,5.21a3.08,3.08,0,0,1-1.24,1.76,2.88,2.88,0,0,1-1.92,0Zm-110,3.42a17.25,17.25,0,0,0,.58-3.55c.23-1.9.47-3.5.52-3.56a55.94,55.94,0,0,1,5.79,0s.28,1.61.54,3.51.54,3.51.6,3.59a18.36,18.36,0,0,0,5,0c0-.09-.62-4.53-1.45-9.87s-2.18-14.06-3-19.38-1.52-9.8-1.55-9.94l-.06-.27H75.84l-.06.27c0,.14-.76,5.26-1.61,11.37s-2.07,14.83-2.71,19.37-1.12,8.35-1.08,8.45.39.19,2.37.19a15.57,15.57,0,0,0,2.46-.11Zm1.58-12.2c0-.08.34-2.91.77-6.3a105.2,105.2,0,0,0,1.12-11.31c.07-1.94.1-2.27.27-2.3s.2.21.27,1.91a102.4,102.4,0,0,0,1.34,11.42c.48,3.37.88,6.25.88,6.41v.3H79.12a7.49,7.49,0,0,1-2.33-.13Zm20.39,12.16c.07-.08.83-4.75,1.69-10.36l2.29-14.79c.4-2.51.69-4.62.65-4.68a10.65,10.65,0,0,0-2.27-.12c-2,0-2.2,0-2.26.21s-.17,1.18-.31,2.36-.54,4.51-.9,7.4-.73,6.09-.83,7.11c-.15,1.55-.41,5.83-.42,6.78,0,.15-.07.27-.17.27s-.18-.34-.24-1.53c-.13-2.58-.43-6.44-.67-8.45-.55-4.78-1.67-13.87-1.72-14s-.57-.15-2.3-.12l-2.24,0v.36c0,.2.54,3.88,1.17,8.18,2.7,18.38,3.15,21.29,3.31,21.39a25.84,25.84,0,0,0,5.21,0Zm27.59,0s0-8.9.06-19.75l0-19.73h-2.23c-1.92,0-2.23,0-2.3.19s-.07,9-.07,19.68c0,15,0,19.53.14,19.63s.69.13,2.24.07l2.13-.09Zm24.38,0c.08-.08.14-4.24.16-12.3,0-12.13,0-12.19.29-12.73a2,2,0,0,1,1.55-1.2,1.82,1.82,0,0,1,2.31,1.3c.08.29.12,4.62.12,12.65,0,9.63,0,12.23.15,12.3a18.92,18.92,0,0,0,4.39,0c.09-.1.12-4.39.09-13.33,0-12.24-.05-13.24-.25-13.9a3.89,3.89,0,0,0-2.45-2.93,5.13,5.13,0,0,0-5.63,1.39l-.59.62,0-.86,0-.85-2.14,0c-1.63,0-2.16,0-2.23.12s-.1,6.8-.1,14.92c0,13,0,14.79.17,14.88a20.55,20.55,0,0,0,4.23,0Zm22.65.06c3.49-.32,4.74-1.45,5.19-4.71.19-1.4.28-8.12.15-11s-.23-3.25-1.14-4.08a4,4,0,0,0-2.26-.93c-.63-.1-.56-.26.17-.35a3.14,3.14,0,0,0,2.85-2.33,32.14,32.14,0,0,0,.42-7.81c-.12-5.34-.52-6.73-2.19-7.64-1.15-.62-1.81-.68-7.73-.68-4.82,0-5.42,0-5.48.19s-.08,8.94-.08,19.63c0,17.53,0,19.47.19,19.64s.73.19,4.39.19c2.31,0,4.79-.06,5.52-.12Zm-5-11.69v-6.94h1.82c3.44,0,3.48.09,3.41,7.64-.06,6.5.13,6.12-3.16,6.19l-2.07.05Zm0-11.28s0-2.71,0-6l.06-5.9h1.91a18.09,18.09,0,0,1,2.24.09c.45.12.64.56.79,1.82a63.6,63.6,0,0,1,0,7.93c-.28,1.75-.59,1.94-3.16,2a13,13,0,0,1-1.85,0Z"/><path id="path46" class="cls-5" d="M58.57,241.34c0-.08,0-41.24,0-91.46l0-91.31H241.43V241.43l-91.4,0c-73.06,0-91.42,0-91.46-.12Zm19.86-12.81a5.61,5.61,0,0,0,3.47-2.33,5.36,5.36,0,0,0,.92-2.37,4.59,4.59,0,0,0-1-.21c-.82-.12-.92-.11-1.12.09a.81.81,0,0,0-.22.49,3.66,3.66,0,0,1-1,1.88,4.39,4.39,0,0,1-3.79.55c-2.13-.9-3-4.39-1.73-6.88a3.73,3.73,0,0,1,5.75-.77,2.86,2.86,0,0,1,.68,1,1,1,0,0,0,.32.53A4.17,4.17,0,0,0,82.6,220a2.83,2.83,0,0,0-.33-.95,5.31,5.31,0,0,0-5.13-2.91,5.69,5.69,0,0,0-5.86,4.42,10.06,10.06,0,0,0,.06,3.87,5.74,5.74,0,0,0,3.75,4A7.34,7.34,0,0,0,78.43,228.53Zm13.47,0c3-.77,4.81-4,4.19-7.43a5.66,5.66,0,0,0-5.87-4.92,5.8,5.8,0,0,0-5.9,4.47,10.54,10.54,0,0,0,.06,3.67A6.78,6.78,0,0,0,85.75,227a6.7,6.7,0,0,0,2.82,1.55,8.12,8.12,0,0,0,3.33,0Zm-3.22-1.85c-1.77-.69-2.68-3-2.21-5.55a4,4,0,0,1,2-2.84,3.09,3.09,0,0,1,1.73-.26c1.17,0,1.3,0,1.9.35,1.22.68,1.79,1.76,1.89,3.59.14,2.5-.86,4.4-2.56,4.83a5.37,5.37,0,0,1-2.71-.12Zm44.38,1.68a4,4,0,0,0,2.2-2.06l.35-.75.06-4.36c0-2.4,0-4.45,0-4.57s-.26-.2-1-.2a2.23,2.23,0,0,0-1,.12c0,.06-.09,2-.11,4.27,0,3.91,0,4.18-.28,4.7a2.35,2.35,0,0,1-1.83,1.31,2.16,2.16,0,0,1-2.12-.59c-.71-.71-.75-1-.73-5.46a22,22,0,0,0-.13-4.18,2.65,2.65,0,0,0-1.9,0,26.88,26.88,0,0,0-.1,4.63c0,4.36,0,4.47.31,5.06a4.36,4.36,0,0,0,2.81,2.29,7.42,7.42,0,0,0,3.44-.2Zm52.69.18a4.1,4.1,0,0,0,2.8-2,2.71,2.71,0,0,0,.32-1.63,2.5,2.5,0,0,0-.34-1.64c-.59-1.06-1.36-1.5-3.49-2-2.79-.66-3.34-1-3.31-1.86a1.09,1.09,0,0,1,.35-.83c.41-.44.94-.59,2-.59,1.46,0,2.2.53,2.45,1.74.15.73.16.73,1.52.57.61-.07.63-.09.62-.45a4.13,4.13,0,0,0-1.75-2.93,6.54,6.54,0,0,0-5.18-.34,4.36,4.36,0,0,0-1.94,1.7,3.39,3.39,0,0,0,0,2.65c.62,1.18,1.81,1.81,4.49,2.37,2,.42,2.42.74,2.32,1.92a1.62,1.62,0,0,1-1.08,1.5,3,3,0,0,1-4.33-2.19,1.15,1.15,0,0,0-.17-.5,4.61,4.61,0,0,0-1,.09l-.95.15v.65a3.72,3.72,0,0,0,2.1,3.17,7.41,7.41,0,0,0,4.56.47Zm-85.53-.2c.19-.09.2-.41.15-3.89a21.44,21.44,0,0,1,0-3.56c.06.14.68,1.77,1.39,3.65s1.36,3.49,1.45,3.6a1.33,1.33,0,0,0,.64.26c.93.15.88.24,2.5-4.08.82-2.17,1.5-3.94,1.51-3.93s0,1.77-.09,3.9-.06,3.92,0,4a4.93,4.93,0,0,0,2,0c.07-.07.1-2.33.08-6l0-5.85-1.15,0c-.82,0-1.18,0-1.26.12s-.73,1.77-1.47,3.74l-1.58,4.22c-.18.47-.27.6-.34.47s-.78-2-1.61-4.22-1.57-4.12-1.63-4.21a4.64,4.64,0,0,0-2.34,0c-.11.11-.14,1.58-.14,5.9,0,5.37,0,5.78.2,5.89a3.38,3.38,0,0,0,1.73,0Zm14.15,0s.06-1.75,0-3.8,0-3.71,0-3.68.63,1.58,1.33,3.44,1.34,3.54,1.44,3.73.28.35.68.41c1,.15.93.25,2.49-3.89.78-2.07,1.45-3.81,1.48-3.87s0,1.64,0,3.79c0,3.2,0,3.91.09,3.92a9.88,9.88,0,0,0,1.89-.07c.17-.1.17-11.34,0-11.65s-.26-.23-1.19-.23-1.08,0-1.24.26-.86,2.11-1.7,4.37a40.46,40.46,0,0,1-1.61,4s-.77-1.94-1.61-4.2-1.61-4.18-1.7-4.28-.44-.15-1.26-.13l-1.09,0,0,5.91c0,3.47,0,5.93.07,6a6.62,6.62,0,0,0,1.89,0Zm26,0a37.7,37.7,0,0,0,.14-4.12l0-4,2.56,3.82c1.41,2.09,2.71,3.94,2.9,4.1a1.76,1.76,0,0,0,1.52.34l.31-.11.06-5.73c0-3.15,0-5.82,0-5.94s-.22-.21-.95-.18l-.86,0-.06,4.14-.06,4.14-2-2.94c-1.09-1.62-2.28-3.38-2.62-3.9-.76-1.15-1.23-1.49-2-1.49a1.33,1.33,0,0,0-.7.14c-.19.18-.21,11.76,0,11.82a5.49,5.49,0,0,0,1.8-.1Zm12.18,0a57.68,57.68,0,0,0,.09-6l0-5.85-.88,0a2.36,2.36,0,0,0-1,.1c-.14.12-.17,1.1-.17,5.9,0,3.5,0,5.8.11,5.86a3.9,3.9,0,0,0,1.92,0Zm7,.05c.12-.07.17-1.22.21-5l.06-4.93h1.52c1.89,0,1.94,0,1.8-1.15l-.09-.77-4.29,0a25.33,25.33,0,0,0-4.45.11c-.12.1-.16.36-.13.93l0,.79,1.67.06,1.67.06,0,4.89c0,4.49,0,4.9.22,5a3.15,3.15,0,0,0,1.75,0Zm7.07-.05c.17-.17.19-.87.19-5.9,0-4.76,0-5.73-.17-5.85a2.36,2.36,0,0,0-1-.1l-.88,0-.06,5.8c0,4.86,0,5.82.11,6a2.14,2.14,0,0,0,1.85,0Zm11.28,0a2.73,2.73,0,0,0,0-1.72,14.09,14.09,0,0,0-3.28-.14h-3.14V223.2l2.63,0a11.27,11.27,0,0,0,2.78-.11,3.79,3.79,0,0,0,0-1.71,20.7,20.7,0,0,0-2.74-.1h-2.69l0-1.46,0-1.46h3a25.76,25.76,0,0,0,3.14-.1c.24-.14.2-1.7,0-1.79s-2-.08-4.1-.08a19.1,19.1,0,0,0-4,.15c-.1.11-.14,1.58-.14,5.9,0,4.89,0,5.78.17,5.86s8.22.11,8.41,0Zm22.6-11.06a6.5,6.5,0,0,0,1.38-.48c1.33-.65,2-1.72,2.44-3.73.32-1.57,5.73-33.22,5.73-33.52s-.06-.25-2.21-.25-2.21,0-2.38.27a24.45,24.45,0,0,0-.55,3.49c-.2,1.78-.58,4.84-.84,6.81a106,106,0,0,0-1,10.72c-.07,2.17-.1,2.48-.27,2.48s-.23-.36-.41-2.42c-.22-2.56-2.19-20.62-2.29-21.08-.06-.27-.08-.27-2.27-.27-2,0-2.22,0-2.29.2s.37,3.11.91,6.66,1.5,9.76,2.12,13.8c1.48,9.62,1.54,10.15,1.36,11-.26,1.24-1,1.75-2.53,1.86l-.94.07v4.37l.33,0a20.26,20.26,0,0,0,3.74,0Zm-63.49-7.58a5.58,5.58,0,0,0,4-2.77c.84-1.58.81-1.08.81-12.76,0-9.68,0-10.57-.21-11.27-.76-2.73-2.83-4.09-6.24-4.1-3.7,0-5.82,1.46-6.7,4.62-.18.62-.22,1.88-.31,9.26-.15,11.07-.05,12.59.89,14.38a5.27,5.27,0,0,0,3.67,2.63,12.94,12.94,0,0,0,4.12,0Zm-3.22-3.8a1.83,1.83,0,0,1-.72-.74c-.23-.47-.24-.76-.27-10,0-6.17,0-9.83.08-10.44.23-1.66.76-2.16,2.28-2.16,1.13,0,1.6.23,1.92.93.22.48.23.94.23,10.6,0,7.22,0,10.22-.13,10.51a2.35,2.35,0,0,1-3.39,1.27Zm-24.31,3.55a4.63,4.63,0,0,0,2.1-1.62l.56-.72.34,1a3.92,3.92,0,0,0,.49,1.15,37.88,37.88,0,0,0,4.75,0s-.14-.53-.32-1.1l-.33-1-.06-12c-.07-12-.07-12-.33-12.78-.68-2-1.91-3-4.39-3.55a12.18,12.18,0,0,0-4.29.15,5,5,0,0,0-3.9,4,17.13,17.13,0,0,0-.17,3.29v2.63h4.54l.06-2.63c.07-3.39.19-3.63,1.79-3.73,1-.06,1.51.19,1.82.8.18.36.21.8.21,3.28v2.86l-.65.61a14.59,14.59,0,0,1-1.91,1.37,36.62,36.62,0,0,0-4.94,3.36c-1.17,1.2-1.33,2.09-1.34,7.27,0,4.36.12,5.08,1,6.3s3.33,1.68,4.94,1Zm-.45-3.64a1.84,1.84,0,0,1-.65-.8c-.23-.52-.25-.81-.28-3.2,0-4.2,0-4.29,2.58-6.1l1.73-1.21,0,3.48c.05,5.08-.14,6.47-1,7.4a1.91,1.91,0,0,1-2.39.43Zm76.9,3.6a4.72,4.72,0,0,0,2.1-1.71l.45-.62.27.87c.46,1.54.28,1.45,2.9,1.45a10.48,10.48,0,0,0,2.33-.12,2,2,0,0,0-.17-.87,11,11,0,0,1-.36-1.64c-.07-.52-.12-5.47-.12-11.82,0-6.94-.05-11.21-.13-11.71a5,5,0,0,0-3.88-4.23,11.16,11.16,0,0,0-4.28-.13c-2.13.4-3.42,1.28-4.13,2.81-.57,1.24-.73,2.43-.7,5l0,2.2,2.19,0a8.09,8.09,0,0,0,2.36-.11c.13-.1.17-.66.17-2.66,0-2.76,0-2.93.69-3.38a2,2,0,0,1,2-.14c.95.47,1,.73,1.06,3.72,0,2.84,0,3.16-.79,3.87-.23.2-1.64,1.14-3.15,2.08s-3,1.9-3.21,2.13a5.27,5.27,0,0,0-1.41,2.13c-.24.65-.25.92-.23,5.22,0,4.6.06,5.08.49,5.93a4.1,4.1,0,0,0,2.59,1.89,6.33,6.33,0,0,0,2.91-.22Zm-.77-3.74c-.63-.63-.69-1-.65-4.49s0-3.42.89-4.23c.25-.24,1.11-.89,1.89-1.44l1.44-1,0,3.77c0,4.28,0,5.33-.57,6.4a1.92,1.92,0,0,1-1.88,1.35c-.72,0-.76,0-1.15-.36ZM75.23,209.25a15.83,15.83,0,0,0,.59-3.62l.43-3.5,3,0a16.28,16.28,0,0,1,3,.08c0,.07.22,1.66.48,3.55a21.53,21.53,0,0,0,.62,3.53,18.88,18.88,0,0,0,2.52.1c2.06,0,2.37,0,2.43-.19s-.36-3-.9-6.48-1.89-12.26-3-19.55c-1.6-10.39-2.08-13.29-2.23-13.41s-.86-.14-3.16-.11c-3,0-3.17.07-3.19.5,0,.07-.27,2-.59,4.3-.48,3.42-3.51,25.09-4.59,32.76a6.7,6.7,0,0,0-.15,2.06,26.17,26.17,0,0,0,4.85,0Zm1.63-12.17c0-.05.26-2.62.65-5.7,1-7.85,1.08-8.75,1.15-11.61.06-2,.11-2.54.24-2.59s.25,0,.33,2.14c.09,2.51.25,3.92,1.32,11.31.49,3.42.89,6.29.89,6.38s-.4.17-2.26.17a15,15,0,0,1-2.32-.1ZM97.19,209.2a8.58,8.58,0,0,0,.37-1.7c1.37-8.91,3.89-25.15,4.07-26.3.13-.8.24-1.57.24-1.7s-.08-.24-2.26-.24a15.64,15.64,0,0,0-2.32.09c0,.06-.23,1.52-.43,3.26s-.59,4.88-.86,7c-.71,5.75-.92,7.84-1.08,11-.19,3.74-.36,3.77-.56.08-.16-3.07-.39-5.71-.74-8.47-.12-1-.52-4.28-.88-7.26s-.69-5.46-.73-5.52a21.44,21.44,0,0,0-4.53,0c-.07.11.52,4.25,2.92,20.52.66,4.45,1.23,8.33,1.27,8.62a1.84,1.84,0,0,0,.2.69,21.52,21.52,0,0,0,5.32,0Zm27.7-19.66c0-12.22,0-19.79-.08-19.83a20.36,20.36,0,0,0-2.22-.06c-1.68,0-2.13,0-2.22.19s-.11,8.37-.11,19.7c0,15.23,0,19.56.15,19.68a7.2,7.2,0,0,0,2.3.11l2.15,0Zm24.2,19.75c.17-.07.19-1.21.2-11.62,0-6.35.05-11.93.1-12.4.13-1.11.43-1.69,1.07-2.05a2.1,2.1,0,0,1,2.82.58c.24.41.24.59.28,12.83,0,8.78.07,12.46.16,12.57a15,15,0,0,0,4.38,0c.11-.11.14-3.17.14-13,0-14,0-14-.66-15.35a3.94,3.94,0,0,0-2-1.85,4.27,4.27,0,0,0-1.9-.28,3.38,3.38,0,0,0-2,.38,6.34,6.34,0,0,0-1.57,1.12l-.77.73,0-.82,0-.82H144.8l0,14.86c0,10.88,0,14.9.11,15s.59.16,2.08.16a18.64,18.64,0,0,0,2.13-.07Zm24.22-.2c2.16-.51,3.11-1.59,3.66-4.15.16-.75.19-1.88.19-7.11,0-5.53,0-6.28-.2-6.87a3.25,3.25,0,0,0-2.86-2.39c-.81-.14-1.1-.35-.49-.35a4.2,4.2,0,0,0,2.19-.8c1.14-1,1.31-1.85,1.39-6.9.09-5.38-.12-7.59-.86-8.86a3.75,3.75,0,0,0-2.08-1.62c-.74-.24-1.1-.26-6.45-.34-3.33,0-5.76,0-5.89,0s-.21,1.16-.21,19.72c0,15.54,0,19.65.15,19.77a91,91,0,0,0,11.46-.13Zm-6.44-11.51,0-6.91h1.93c1.77,0,2,0,2.27.24.83.61,1,1.7,1,6.54,0,4-.13,5.94-.42,6.38s-.69.54-2.83.6l-2,.06Zm0-17.16c0-3.26,0-5.94.09-6a19.4,19.4,0,0,1,2.1,0c2.39.07,2.51.12,2.72,1.22a61.74,61.74,0,0,1,.11,8.19c-.27,2.1-.56,2.31-3.24,2.41l-1.78.06Z"/><path id="path44" class="cls-6" d="M58.66,241.34c-.21-.21-.21-182.47,0-182.68s182.47-.21,182.68,0,.21,182.47,0,182.68S58.87,241.55,58.66,241.34Zm20-12.87a5.1,5.1,0,0,0,2.7-1.51,6.46,6.46,0,0,0,1.47-2.82l0-.39-.9-.14a4.75,4.75,0,0,0-1.09-.09,1,1,0,0,0-.33.61,3.23,3.23,0,0,1-2.9,2.66c-1.93.31-3.4-.75-4-2.89a5.53,5.53,0,0,1,.85-4.78,3.86,3.86,0,0,1,3.84-1,3.54,3.54,0,0,1,2.08,1.81,1.16,1.16,0,0,0,.41.6,3.73,3.73,0,0,0,1.87-.5,2.35,2.35,0,0,0-.29-.91c-.92-2-2.7-3-5.22-3a5.7,5.7,0,0,0-5.1,2.61A8.2,8.2,0,0,0,72,226a6.4,6.4,0,0,0,3.36,2.55,8.48,8.48,0,0,0,3.31-.11Zm13.48,0a5.61,5.61,0,0,0,3.42-2.93,6.75,6.75,0,0,0,.66-3.22,5.78,5.78,0,0,0-4.23-6,8.52,8.52,0,0,0-3.45,0,5.72,5.72,0,0,0-4.15,4.09,10.76,10.76,0,0,0,0,3.92A5.71,5.71,0,0,0,87.05,228a7.71,7.71,0,0,0,5.06.48Zm-3.26-1.74c-2-.63-3.11-3.84-2.14-6.44a3.79,3.79,0,0,1,2.13-2.15,5,5,0,0,1,3,.14c1.45.65,2.25,2.36,2.11,4.58-.15,2.57-1.55,4.07-3.76,4a6.12,6.12,0,0,1-1.34-.18Zm43.5,1.84a4.27,4.27,0,0,0,3-2.35c.24-.53.26-.78.32-5a41,41,0,0,0,0-4.62,4.14,4.14,0,0,0-2-.06s0,2,0,4.28l0,4.2-.3.58a1.84,1.84,0,0,1-1,.93,2.35,2.35,0,0,1-3.29-.79l-.3-.52,0-4.18c0-2.29,0-4.27-.08-4.39s-.18-.21-1.05-.18l-1,0,0,4.3c0,2.67,0,4.52.09,4.89a4.15,4.15,0,0,0,2.87,2.86,7.2,7.2,0,0,0,2.89,0Zm54.12-.23a4.08,4.08,0,0,0,2.22-2.09,3.71,3.71,0,0,0-.46-3.52c-.54-.65-1.38-1-3.58-1.6-1.12-.29-2.14-.58-2.25-.65a1.2,1.2,0,0,1-.46-1.74,2.41,2.41,0,0,1,2.28-.76c1.48.08,2.14.61,2.38,1.92.09.5.18.52,1.47.37.62-.07.63-.08.63-.47a4,4,0,0,0-2.46-3.28,5.17,5.17,0,0,0-2.32-.29c-1.88,0-2.34.15-3.33,1.07a3,3,0,0,0-.72,3.72c.56,1.09,1.52,1.59,4.18,2.19,2.23.5,2.62.77,2.62,1.8s-1.06,2-2.51,2a2.88,2.88,0,0,1-2.82-2.17,4.94,4.94,0,0,0-.27-.78,3.59,3.59,0,0,0-1,.07l-1,.14V225c0,1.72,1.35,3.12,3.4,3.58a9.09,9.09,0,0,0,4-.21Zm-86.19,0c.11-.09.13-1,.08-3.83a21.77,21.77,0,0,1,0-3.55c.06.1.69,1.73,1.4,3.62s1.35,3.51,1.42,3.61a1.88,1.88,0,0,0,1.54.16,39.72,39.72,0,0,0,1.64-4c.79-2.1,1.46-3.85,1.49-3.88a2,2,0,0,1,0,.77c0,.46-.09,2.23-.13,3.95l-.07,3.12.93.05a5.92,5.92,0,0,0,1.08,0c.12,0,.15-1.29.12-6l0-5.92-1.15,0c-.82,0-1.18,0-1.27.12s-.83,2-1.7,4.33-1.59,4.2-1.61,4.22-.72-1.81-1.56-4.06-1.6-4.22-1.69-4.37-.23-.27-1.33-.24l-1.16,0,0,5.83a44.84,44.84,0,0,0,.11,6,3.1,3.1,0,0,0,1.86,0Zm14.08,0s.07-1.76.07-3.82a23.45,23.45,0,0,1,.09-3.5c.06.14.68,1.78,1.38,3.65s1.34,3.48,1.43,3.57a1.88,1.88,0,0,0,1.52.11,37,37,0,0,0,1.58-3.85c.76-2,1.42-3.73,1.46-3.76s0,1.67,0,3.8l0,3.88h.91a4,4,0,0,0,1-.09,115.14,115.14,0,0,0,0-11.75,5.82,5.82,0,0,0-2.32-.05c-.07.05-.85,2-1.73,4.35s-1.63,4.22-1.67,4.18-.73-1.86-1.53-4-1.5-4.06-1.56-4.2c-.15-.34-.45-.41-1.62-.37l-1,0,0,5.9c0,3.48,0,5.93.08,6a5.85,5.85,0,0,0,1.87,0Zm26,0a31,31,0,0,0,.15-4.11l0-4,2.63,3.9c1.44,2.15,2.75,4,2.92,4.11a2.91,2.91,0,0,0,1.72.15c.12-.12.12-11.71,0-11.83a2.22,2.22,0,0,0-1-.09l-.82,0-.06,4.11-.06,4.12-2-2.92c-1.09-1.61-2.29-3.39-2.66-4-.74-1.12-1.14-1.41-2-1.41s-.86-.54-.86,6c0,3.83.05,5.9.12,5.93a5.16,5.16,0,0,0,1.79-.09Zm12.16.08c.12,0,.14-1.24.12-6l0-5.94h-2l0,5.9c0,3.48,0,5.93.07,6a10.09,10.09,0,0,0,1.9,0Zm7,0c.18-.14.21-.61.23-5l0-4.89h1.59c1.28,0,1.61,0,1.71-.18a4.29,4.29,0,0,0-.09-1.7c0-.05-2-.09-4.41-.09h-4.35l-.06.27a4.08,4.08,0,0,0,0,.93l0,.65,1.67.06,1.67.06,0,4.94c0,4,.05,5,.18,5a3.37,3.37,0,0,0,1.81,0Zm7.11,0a115.72,115.72,0,0,0,0-11.78,4.09,4.09,0,0,0-1.93-.05c0,.05-.07,2.72-.09,5.92,0,4.9,0,5.85.14,5.94a3.73,3.73,0,0,0,1.88,0Zm11.23,0a2.73,2.73,0,0,0,0-1.72,14.09,14.09,0,0,0-3.28-.14h-3.15l0-1.58,0-1.59,2.51,0,2.65,0c.27,0,.37-.42.29-1.14l-.08-.72-2.68-.06-2.69-.06,0-1.4,0-1.4.32-.08c.17,0,1.54-.05,3,0s2.79,0,2.86,0,.12-.42.09-1l0-.88-4.11,0c-3.21,0-4.14,0-4.21.12s-.13,11.61,0,11.75,8.25.14,8.47,0Zm22.65-11.07a4.31,4.31,0,0,0,3.29-2.54c.41-.88.25,0,3.58-19.54,1.45-8.51,2.67-15.56,2.7-15.68s-.1-.21-2.21-.21c-1.82,0-2.3,0-2.44.17a2.61,2.61,0,0,0-.26,1c0,.45-.45,3.8-.91,7.44-1,8.18-1.17,9.7-1.26,12.76-.07,2.12-.1,2.42-.27,2.38s-.23-.55-.47-3.13c-.16-1.71-.72-7-1.26-11.82l-1-8.73-2.3,0-2.29,0v.37c0,.32,2.69,18.13,4,26.56.23,1.52.43,3.23.44,3.83a2.51,2.51,0,0,1-.28,1.6,2.6,2.6,0,0,1-2.34,1.18l-.89,0V215c0,2.17,0,2.19.27,2.24a20.74,20.74,0,0,0,3.85-.05Zm-63.23-7.64a5.22,5.22,0,0,0,4.15-3.78l.32-.93V194.19c0-11.87,0-11.22-.81-12.81s-2.93-2.65-5.76-2.63a8.29,8.29,0,0,0-3.89.83A5.77,5.77,0,0,0,129,182c-.73,1.55-.75,1.87-.83,11.26-.07,8.62,0,10.93.35,12.28.77,2.91,2.71,4.23,6.26,4.25a9.73,9.73,0,0,0,2.41-.24Zm-3.45-3.71a1.6,1.6,0,0,1-.77-.75l-.27-.49V194.55c0-8.19,0-10.18.16-10.55a2.22,2.22,0,0,1,2.53-1.48,1.88,1.88,0,0,1,1.51.85c.21.35.22.82.26,10.52,0,7,0,10.29-.1,10.6a2.37,2.37,0,0,1-3.32,1.39Zm-24.49,3.6a4.9,4.9,0,0,0,2.19-1.65l.59-.74.22.79a7.86,7.86,0,0,0,.39,1.13l.18.35h4.9l-.19-.45c-.59-1.39-.57-1.1-.65-13.82-.08-13.05,0-12.43-.79-13.79-1-1.8-3.25-2.75-6.2-2.6s-4.59,1.05-5.45,2.88c-.54,1.17-.7,2.28-.7,5v2.38l2.3,0,2.3,0,.06-2.57c.06-2.76.12-3.05.73-3.49a2.25,2.25,0,0,1,1-.3,1.65,1.65,0,0,1,1.81.79c.25.44.26.61.26,3.28v2.82l-.51.5a33.82,33.82,0,0,1-4.58,3.09c-2.74,1.7-3.41,2.55-3.64,4.67-.08.64-.11,2.77-.08,5,0,3.67.06,3.92.31,4.55a3.91,3.91,0,0,0,4.2,2.44,8.07,8.07,0,0,0,1.33-.18Zm-.3-3.69c-.85-.56-1-1.46-1-5,0-3.26.08-3.31,2.92-5.29l1.47-1-.05,4.34c-.06,4.74-.13,5.3-.79,6.24a1.9,1.9,0,0,1-2.57.79Zm77,3.53a5.48,5.48,0,0,0,2.06-1.76l.33-.49.37,1.12.36,1.11,2.44,0,2.43,0-.07-.33c0-.18-.19-.73-.34-1.22l-.27-.9-.06-12c-.07-12-.07-12-.33-12.7a4.43,4.43,0,0,0-1.32-2c-1.15-1.08-2.47-1.48-4.86-1.47-3.68,0-5.53,1.18-6.36,4a17.56,17.56,0,0,0-.24,3.42l-.06,2.78,2.37,0,2.38,0,.05-2.71c.07-3.15.1-3.23,1.19-3.6a1.8,1.8,0,0,1,2.35.9,24.08,24.08,0,0,1,.14,5.61c-.23.8-.74,1.23-3.78,3.13-3.2,2-4,2.66-4.49,3.8s-.51,1.78-.43,6.42l.07,4.37.39.79c.73,1.49,2.07,2.17,4.05,2.08a3.86,3.86,0,0,0,1.63-.35Zm-.77-3.58c-.71-.47-.81-1-.82-4.38,0-4-.07-3.83,3-6l1.35-1,0,4.39c0,4.16-.06,4.43-.31,5.2a3.19,3.19,0,0,1-1.35,1.82,1.92,1.92,0,0,1-1.79-.1ZM75.35,209.09c.06-.15.28-1.69.48-3.43s.4-3.26.44-3.38.29-.21,2.92-.21c2.18,0,2.87,0,2.92.15s.26,1.67.52,3.52.5,3.43.54,3.5a12.15,12.15,0,0,0,2.53.12c2.17,0,2.45,0,2.52-.2s-.39-3.22-1-6.9-1.93-12.47-3-19.53-2-12.91-2.1-13-.77-.15-3.16-.11a21.28,21.28,0,0,0-3.13.16c0,.06-.46,2.66-.89,5.78s-1.63,11.64-2.65,18.93-1.9,13.57-2,14a2.51,2.51,0,0,0,0,.81,17.37,17.37,0,0,0,2.51.1c2.42,0,2.44,0,2.55-.27Zm1.51-12c0-.05.29-2.8.71-6.12.89-7.07,1.13-9.57,1.13-12,0-1.63,0-1.76.22-1.76s.22.17.29,2.06c.1,2.59.25,3.84,1.35,11.41.48,3.38.88,6.21.88,6.3s-.37.18-2.26.18a13.64,13.64,0,0,1-2.32-.1Zm20.41,12.13c0-.08.6-3.64,1.26-7.91s1.68-10.87,2.27-14.67,1.07-7,1.07-7.13-.1-.24-2.26-.24a15.15,15.15,0,0,0-2.33.1c0,.06-.23,1.5-.43,3.2s-.6,5-.9,7.39c-.73,5.92-.87,7.33-1,10.6a12.27,12.27,0,0,1-.27,2.8,13.25,13.25,0,0,1-.27-2.66c-.2-3.66-.41-5.83-1.23-12.47-.39-3.19-.78-6.45-.88-7.25a11.66,11.66,0,0,0-.25-1.58,9.09,9.09,0,0,0-2.34-.13c-2.08,0-2.26,0-2.26.21s.21,1.63.47,3.37,1.23,8.36,2.16,14.7,1.75,11.59,1.82,11.67a8.74,8.74,0,0,0,2.73.15c2,0,2.63,0,2.67-.15ZM125,189.56c0-15.5,0-19.76-.15-19.83a27.18,27.18,0,0,0-4.42,0c-.12.07-.15,4.43-.15,19.77,0,10.82,0,19.72.08,19.76a16.67,16.67,0,0,0,2.36.05l2.28,0Zm24.31,7.56c.05-9.35.1-12.29.21-12.64a2.2,2.2,0,0,1,2.24-1.54,1.63,1.63,0,0,1,1.53.92c.25.47.25.57.31,13l.06,12.48h4.54V195.86c0-13.4,0-13.43-.25-14.18a3.9,3.9,0,0,0-4-3,4.86,4.86,0,0,0-4.06,1.66l-.58.61,0-.82,0-.83H144.8l0,14.86c0,11,0,14.9.11,15s.57.16,2.24.13l2.1,0Zm22.93,12.12c3.57-.43,4.63-1.75,4.9-6.09.13-2.16.13-8.48,0-10.64a4.67,4.67,0,0,0-.41-2.22,3.36,3.36,0,0,0-2.85-1.78c-.32,0-.57-.12-.57-.17a1.49,1.49,0,0,1,.68-.16,3.51,3.51,0,0,0,2.32-1.21,5.52,5.52,0,0,0,.6-1.44c.25-.91.26-1.2.27-5.91,0-5.22,0-6-.56-7.4a4,4,0,0,0-1.66-1.93c-1-.5-1.69-.56-7.41-.61-3,0-5.54,0-5.64,0s-.19,2.08-.19,19.73c0,15.09,0,19.65.15,19.76a98.06,98.06,0,0,0,10.37,0Zm-5.32-4.91c0-.09-.05-3.2,0-6.91l0-6.75h1.92c2.2,0,2.42.07,2.81,1s.46,2,.46,5.8-.12,5.9-.35,6.32-.78.63-2.83.7c-1.59,0-2,0-2-.11Zm0-18.09c-.05-.05-.09-2.72-.09-5.92,0-4.58,0-5.84.15-5.85a31.68,31.68,0,0,1,4.19.16c.34.18.53.79.67,2.12a54.72,54.72,0,0,1,0,7.25c-.27,1.94-.6,2.18-3.13,2.28a9.24,9.24,0,0,1-1.79,0Z"/><path id="path42" class="cls-7" d="M58.66,241.34c-.21-.21-.21-182.47,0-182.68s182.47-.21,182.68,0,.21,182.47,0,182.68S58.87,241.55,58.66,241.34Zm20-12.87a5.1,5.1,0,0,0,2.7-1.51,6.46,6.46,0,0,0,1.47-2.82l0-.39-.9-.14a4.75,4.75,0,0,0-1.09-.09,1,1,0,0,0-.33.61,3.23,3.23,0,0,1-2.9,2.66c-1.93.31-3.4-.75-4-2.89a5.53,5.53,0,0,1,.85-4.78,3.86,3.86,0,0,1,3.84-1,3.54,3.54,0,0,1,2.08,1.81,1.16,1.16,0,0,0,.41.6,3.73,3.73,0,0,0,1.87-.5,2.35,2.35,0,0,0-.29-.91c-.92-2-2.7-3-5.22-3a5.7,5.7,0,0,0-5.1,2.61A8.2,8.2,0,0,0,72,226a6.4,6.4,0,0,0,3.36,2.55,8.48,8.48,0,0,0,3.31-.11Zm13.48,0a5.61,5.61,0,0,0,3.42-2.93,6.75,6.75,0,0,0,.66-3.22,5.78,5.78,0,0,0-4.23-6,8.52,8.52,0,0,0-3.45,0,5.72,5.72,0,0,0-4.15,4.09,10.76,10.76,0,0,0,0,3.92A5.71,5.71,0,0,0,87.05,228a7.71,7.71,0,0,0,5.06.48Zm40.24.1a4.27,4.27,0,0,0,3-2.35c.24-.53.26-.78.32-5a41,41,0,0,0,0-4.62,4.14,4.14,0,0,0-2-.06s0,2,0,4.28l0,4.2-.3.58a1.84,1.84,0,0,1-1,.93,2.35,2.35,0,0,1-3.29-.79l-.3-.52,0-4.18c0-2.29,0-4.27-.08-4.39s-.18-.21-1.05-.18l-1,0,0,4.3c0,2.67,0,4.52.09,4.89a4.15,4.15,0,0,0,2.87,2.86,7.2,7.2,0,0,0,2.89,0Zm54.12-.23a4.08,4.08,0,0,0,2.22-2.09,3.71,3.71,0,0,0-.46-3.52c-.54-.65-1.38-1-3.58-1.6-1.12-.29-2.14-.58-2.25-.65a1.2,1.2,0,0,1-.46-1.74,2.41,2.41,0,0,1,2.28-.76c1.48.08,2.14.61,2.38,1.92.09.5.18.52,1.47.37.62-.07.63-.08.63-.47a4,4,0,0,0-2.46-3.28,5.17,5.17,0,0,0-2.32-.29c-1.88,0-2.34.15-3.33,1.07a3,3,0,0,0-.72,3.72c.56,1.09,1.52,1.59,4.18,2.19,2.23.5,2.62.77,2.62,1.8s-1.06,2-2.51,2a2.88,2.88,0,0,1-2.82-2.17,4.94,4.94,0,0,0-.27-.78,3.59,3.59,0,0,0-1,.07l-1,.14V225c0,1.72,1.35,3.12,3.4,3.58a9.09,9.09,0,0,0,4-.21Zm-86.19,0c.11-.09.13-1,.08-3.83a21.77,21.77,0,0,1,0-3.55c.06.1.69,1.73,1.4,3.62s1.35,3.51,1.42,3.6a1.84,1.84,0,0,0,1.54.17,39.72,39.72,0,0,0,1.64-4c.79-2.1,1.46-3.85,1.49-3.88a2,2,0,0,1,0,.77c0,.46-.09,2.23-.13,3.95l-.07,3.12.93.05a5.92,5.92,0,0,0,1.08,0c.12,0,.15-1.29.12-6l0-5.92-1.15,0c-.82,0-1.18,0-1.27.12s-.83,2-1.7,4.33-1.59,4.2-1.61,4.22-.72-1.81-1.56-4.06-1.6-4.22-1.69-4.37-.23-.27-1.33-.24l-1.16,0,0,5.83a44.84,44.84,0,0,0,.11,6,3.1,3.1,0,0,0,1.86,0Zm14.08,0s.07-1.76.07-3.82a23.45,23.45,0,0,1,.09-3.5c.06.14.68,1.78,1.38,3.65s1.34,3.48,1.43,3.57a1.88,1.88,0,0,0,1.52.11,37,37,0,0,0,1.58-3.85c.76-2,1.42-3.73,1.46-3.77s0,1.68,0,3.81l0,3.88h.91a4,4,0,0,0,1-.09,115.14,115.14,0,0,0,0-11.75,5.82,5.82,0,0,0-2.32-.05c-.07.05-.85,2-1.73,4.35s-1.63,4.22-1.67,4.18-.73-1.86-1.53-4-1.5-4.06-1.56-4.2c-.15-.34-.45-.41-1.62-.37l-1,0,0,5.9c0,3.48,0,5.93.08,6a5.85,5.85,0,0,0,1.87,0Zm26,0a31,31,0,0,0,.15-4.11l0-4,2.63,3.9c1.44,2.15,2.75,4,2.92,4.11a2.91,2.91,0,0,0,1.72.15c.12-.12.12-11.71,0-11.83a2.22,2.22,0,0,0-1-.09l-.82,0-.06,4.11-.06,4.12-2-2.92c-1.09-1.61-2.29-3.39-2.66-4-.74-1.12-1.14-1.41-2-1.41s-.86-.54-.86,6c0,3.83.05,5.9.12,5.93a5.16,5.16,0,0,0,1.79-.09Zm12.16.08c.12,0,.14-1.24.12-6l0-5.94h-2l0,5.9c0,3.48,0,5.93.07,6a10.09,10.09,0,0,0,1.9,0Zm7,0c.18-.14.21-.61.23-5l0-4.89h1.59c1.28,0,1.61,0,1.71-.18a4.29,4.29,0,0,0-.09-1.7c0-.05-2-.09-4.41-.09h-4.35l-.06.27a4.08,4.08,0,0,0,0,.93l0,.65,1.67.06,1.67.06,0,4.94c0,4,.05,5,.18,5a3.37,3.37,0,0,0,1.81,0Zm7.11,0a115.72,115.72,0,0,0,0-11.78,4.09,4.09,0,0,0-1.93-.05c0,.05-.07,2.72-.09,5.92,0,4.9,0,5.85.14,5.94a3.73,3.73,0,0,0,1.88,0Zm11.23,0a2.73,2.73,0,0,0,0-1.72,14.09,14.09,0,0,0-3.28-.14h-3.15l0-1.58,0-1.59,2.51,0,2.65,0c.27,0,.37-.42.29-1.14l-.08-.72-2.68-.06-2.69-.06,0-1.4,0-1.4.32-.08c.17,0,1.54-.05,3,0s2.79,0,2.86,0,.12-.42.09-1l0-.88-4.11,0c-3.21,0-4.14,0-4.21.12s-.13,11.61,0,11.75,8.25.14,8.47,0Zm22.65-11.07a4.31,4.31,0,0,0,3.29-2.54c.41-.88.25,0,3.58-19.54,1.45-8.51,2.67-15.56,2.7-15.68s-.1-.21-2.21-.21c-1.82,0-2.3,0-2.44.17a2.61,2.61,0,0,0-.26,1c0,.45-.45,3.8-.91,7.44-1,8.18-1.17,9.7-1.26,12.76-.07,2.12-.1,2.41-.27,2.38s-.23-.55-.47-3.13c-.16-1.71-.72-7-1.26-11.82l-1-8.73-2.3,0-2.29,0v.37c0,.32,2.69,18.13,4,26.56.23,1.51.43,3.23.44,3.83a2.51,2.51,0,0,1-.28,1.6,2.6,2.6,0,0,1-2.34,1.18l-.89,0V215c0,2.17,0,2.19.27,2.24a20.74,20.74,0,0,0,3.85-.05Zm-63.23-7.64a5.22,5.22,0,0,0,4.15-3.78l.32-.93V194.19c0-11.87,0-11.22-.81-12.81s-2.93-2.65-5.76-2.63a8.29,8.29,0,0,0-3.89.83A5.77,5.77,0,0,0,129,182c-.73,1.55-.75,1.87-.83,11.26-.07,8.62,0,10.93.35,12.28.77,2.91,2.71,4.23,6.26,4.25a9.73,9.73,0,0,0,2.41-.24Zm-27.94-.11a4.9,4.9,0,0,0,2.19-1.65l.59-.74.22.79a7.86,7.86,0,0,0,.39,1.13l.18.35h4.9l-.19-.45c-.59-1.39-.57-1.1-.65-13.82-.08-13.05,0-12.43-.79-13.79-1-1.8-3.25-2.75-6.2-2.6s-4.59,1.05-5.45,2.88c-.54,1.17-.7,2.28-.7,5v2.38l2.3,0,2.3,0,.06-2.57c.06-2.76.12-3.05.73-3.49a2.25,2.25,0,0,1,1-.3,1.65,1.65,0,0,1,1.81.79c.25.44.26.61.26,3.28v2.82l-.51.5a33.82,33.82,0,0,1-4.58,3.09c-2.74,1.7-3.41,2.55-3.64,4.67-.08.64-.11,2.77-.08,5,0,3.67.06,3.92.31,4.55a3.91,3.91,0,0,0,4.2,2.44,8.07,8.07,0,0,0,1.33-.18Zm76.7-.16a5.48,5.48,0,0,0,2.06-1.76l.33-.49.37,1.12.36,1.11,2.44,0,2.43,0-.07-.33c0-.18-.19-.73-.34-1.22l-.27-.9-.06-12c-.07-12-.07-12-.33-12.7a4.43,4.43,0,0,0-1.32-2c-1.15-1.08-2.47-1.48-4.86-1.47-3.68,0-5.53,1.18-6.36,4a17.56,17.56,0,0,0-.24,3.42l-.06,2.78,2.37,0,2.38,0,.05-2.71c.07-3.15.1-3.23,1.19-3.6a1.8,1.8,0,0,1,2.35.9,24.08,24.08,0,0,1,.14,5.61c-.23.8-.74,1.23-3.78,3.13-3.2,2-4,2.66-4.49,3.8s-.51,1.78-.43,6.42l.07,4.37.39.79c.73,1.49,2.07,2.17,4.05,2.08a3.86,3.86,0,0,0,1.63-.35Zm-.77-3.58c-.71-.47-.81-1-.82-4.38,0-4-.07-3.83,3-6l1.35-1,0,4.39c0,4.16-.06,4.43-.31,5.2a3.19,3.19,0,0,1-1.35,1.82,1.92,1.92,0,0,1-1.79-.1ZM75.35,209.09c.06-.15.28-1.69.48-3.43s.4-3.26.44-3.38.29-.21,2.92-.21c2.18,0,2.87,0,2.92.15s.26,1.67.52,3.52.5,3.43.54,3.5a12.15,12.15,0,0,0,2.53.12c2.17,0,2.45,0,2.52-.2s-.39-3.22-1-6.9-1.93-12.47-3-19.53-2-12.91-2.1-13-.77-.15-3.16-.11a21.28,21.28,0,0,0-3.13.16c0,.06-.46,2.66-.89,5.78s-1.63,11.64-2.65,18.93-1.9,13.57-2,14a2.51,2.51,0,0,0,0,.81,17.37,17.37,0,0,0,2.51.1c2.42,0,2.44,0,2.55-.27Zm21.92.12c0-.08.6-3.64,1.26-7.91s1.68-10.87,2.27-14.67,1.07-7,1.07-7.13-.1-.24-2.26-.24a15.15,15.15,0,0,0-2.33.1c0,.06-.23,1.5-.43,3.2s-.6,5-.9,7.39c-.73,5.92-.87,7.33-1,10.6a12.27,12.27,0,0,1-.27,2.8,13.25,13.25,0,0,1-.27-2.66c-.2-3.66-.41-5.83-1.23-12.47-.39-3.19-.78-6.45-.88-7.25a11.66,11.66,0,0,0-.25-1.58,9.09,9.09,0,0,0-2.34-.13c-2.08,0-2.26,0-2.26.21s.21,1.63.47,3.37,1.23,8.36,2.16,14.7,1.75,11.59,1.82,11.67a8.74,8.74,0,0,0,2.73.15c2,0,2.63,0,2.67-.15ZM125,189.56c0-15.5,0-19.76-.15-19.83a27.18,27.18,0,0,0-4.42,0c-.12.07-.15,4.43-.15,19.77,0,10.82,0,19.72.08,19.76a16.67,16.67,0,0,0,2.36.05l2.28,0Zm24.31,7.56c.05-9.35.1-12.29.21-12.64a2.2,2.2,0,0,1,2.24-1.54,1.63,1.63,0,0,1,1.53.92c.25.47.25.57.31,13l.06,12.48h4.54V195.86c0-13.4,0-13.43-.25-14.18a3.9,3.9,0,0,0-4-3,4.86,4.86,0,0,0-4.06,1.66l-.58.61,0-.82,0-.83H144.8l0,14.86c0,11,0,14.9.11,15s.57.16,2.24.13l2.1,0Zm22.93,12.12c3.57-.43,4.63-1.75,4.9-6.09.13-2.16.13-8.48,0-10.64a4.67,4.67,0,0,0-.41-2.22,3.36,3.36,0,0,0-2.85-1.78c-.32,0-.57-.12-.57-.17a1.49,1.49,0,0,1,.68-.16,3.51,3.51,0,0,0,2.32-1.21,5.52,5.52,0,0,0,.6-1.44c.25-.91.26-1.2.27-5.91,0-5.22,0-6-.56-7.4a4,4,0,0,0-1.66-1.93c-1-.5-1.69-.56-7.41-.61-3,0-5.54,0-5.64,0s-.19,2.08-.19,19.73c0,15.09,0,19.65.15,19.76a98.06,98.06,0,0,0,10.37,0Zm-5.32-4.91c0-.09-.05-3.2,0-6.91l0-6.75h1.92c2.2,0,2.42.07,2.81,1s.46,2,.46,5.8-.12,5.9-.35,6.32-.78.63-2.83.7c-1.59,0-2,0-2-.11Zm0-18.09c-.05-.05-.09-2.72-.09-5.92,0-4.58,0-5.84.15-5.85a31.68,31.68,0,0,1,4.19.16c.34.18.53.79.67,2.12a54.72,54.72,0,0,1,0,7.25c-.27,1.94-.6,2.18-3.13,2.28a9.24,9.24,0,0,1-1.79,0Z"/></g></g></svg>