<svg id="Layer_1" data-name="Layer 1" xmlns="http://www.w3.org/2000/svg" viewBox="0 0 300 300"><defs><style>.cls-1{fill:#fff;}</style></defs><title>AVGO_Logo_Dark</title><path class="cls-1" d="M261.8,207.15C241.37,249.11,199,278,150,278s-91.37-28.84-111.8-70.8a69.27,69.27,0,0,1,9.88-4.2,23,23,0,0,1,14.75,0A60.79,60.79,0,0,1,76,210.32a52,52,0,0,0,28.1,10.77,31.91,31.91,0,0,0,32.44-28.17c2.95-13.94,9.44-45,13.57-66.37,0,0,10.7,52.43,13.57,66.37a32,32,0,0,0,32.45,28.17,52.62,52.62,0,0,0,28-10.84,59.89,59.89,0,0,1,13.06-7.37,22.86,22.86,0,0,1,14.75,0A61.52,61.52,0,0,1,261.8,207.15Z"/><path class="cls-1" d="M275,150a133.26,133.26,0,0,1-5.75,38.64h-.08l-9-4a41.86,41.86,0,0,0-40.49,4.27l-6.27,3.91a35.93,35.93,0,0,1-17.4,7.38c-5.31,0-10.47-1.4-12.69-11.88-3.46-16.37-11.8-56.49-15.48-76.4-2.14-11.72-3.32-18-4.58-22.12-2.13-7.38-6-11.65-11.65-12.24H148.3c-5.53.66-9.44,4.79-11.57,12.24-1.18,4.28-2.36,10.55-4.58,22.12-3.61,19.91-12,60-15.41,76.4-2.21,10.48-7.37,11.88-12.76,11.88a35.93,35.93,0,0,1-17.4-7.38c-1.4-1-6.2-3.91-6.2-3.91a41.85,41.85,0,0,0-40.48-4.27c-3.1,1.25-6.12,2.65-9.07,4h-.08A133.26,133.26,0,0,1,25,150C25,79.35,81,22.05,150,22.05S275,79.35,275,150Z"/></svg>