<svg id="Layer_1" data-name="Layer 1" xmlns="http://www.w3.org/2000/svg" viewBox="0 0 300 300"><defs><style>.cls-1{fill:#fff;}</style></defs><path class="cls-1" d="M250.39,193.76,186.08,81a103.42,103.42,0,0,0-5.48-9.3c-3.43-6.17-8.43-12-13.9-15.27a35.14,35.14,0,0,0-26.93-3.23c-9,2.54-15.55,7.92-22.8,20.36l-8.72,15.17L49.82,193.07c-3.62,7.05-2.84,5.58-4.11,8.22-1.76,4.9-2.84,7.73-2.84,13.12,0,15.86,12.34,33.38,36.71,33.48,3.42.1-1.46.1,7,.19,12.52.1,101.41,0,126.77,0,3.92-.19,2.73.1,7.63-.39,17.23-1.08,30.14-8.71,34.95-25.15C259,211,255.67,203,250.39,193.76ZM131.75,79.22c3.81-6.75,7.43-9.5,11.94-10.77a18.74,18.74,0,0,1,23.69,12.82c1.27,4.5.78,9.5-2.73,16.25l-46.6,81.94H105.61l50-87.8c1.56-2.94,2.06-5.3,1.56-7.45a8,8,0,0,0-10.28-5.58c-1.95.68-3.42,1.85-5.38,5.19L87.59,179.26H85.83a39.77,39.77,0,0,0-11.36,2Zm18,76.36,13.91,24H136.25ZM79.67,232.42c-5.78-.29-9.78-.68-14.78-4.79-8.23-7.73-8.23-19.67-.79-26.92A21,21,0,0,1,78.78,195H172l6.26,10.86H77.71a9.79,9.79,0,0,0-6.16,2.36,7.83,7.83,0,0,0,.29,11.25,8.24,8.24,0,0,0,5.88,2.15H187.26c2.44,3.92,4,6.75,8.81,10.76H79.67ZM240.4,218.13a18.7,18.7,0,0,1-23.6,13.41c-5.68-1.86-8.8-5.78-11.94-10.87L158.75,140,165,129l49.33,86.44c2.35,3.92,3.92,5.28,5.88,5.86,3.92,1.38,8.81-1.26,9.89-5.58.59-2.06.2-4.21-1.76-7.73l-54.23-94.95c1.66-3.72,3.82-7.84,4.5-13.42l58.92,103.18C240.06,207.23,241.88,211.77,240.4,218.13Z"/></svg>