<svg id="Layer_1" data-name="Layer 1" xmlns="http://www.w3.org/2000/svg" viewBox="0 0 300 300"><path id="Star" d="M250.65258,130.75761v-8.1058c-1.79784,1.41958-6.55035,4.98273-11.34464,4.98273-6.06259,0-12.13909-5.67832-12.13909-5.67832l-.19512.18454h0a23.55058,23.55058,0,0,1-9.90917,5.295h0a8.64294,8.64294,0,0,0-.97557.15615h-.98953c-6.06259,0-12.12513-5.67832-12.12513-5.67832h0s-6.06259,5.67832-12.13909,5.67832a15.906,15.906,0,0,1-7.76287-2.49846A13.5955,13.5955,0,0,1,177.4,117.85363h0l-21.96461-70.624-24.64051,79.07055-81.44749-.56783L115.56181,173.998,89.876,252.69946l65.55938-49.13164,65.50363,49.2026-22.996-70.49629a16.49042,16.49042,0,0,1-7.24723,2.01581c-6.06255,0-12.139-5.18147-12.139-5.18147s-6.06259,5.18147-12.13909,5.18147-12.13908-5.67832-12.13908-5.67832v-8.7588h0s6.0765,5.67831,12.13908,5.67831,12.13909-5.67831,12.13909-5.67831,6.0765,5.67831,12.139,5.67831c5.296,0,10.606-4.25874,11.86035-5.40859v-9.7951c-1.29612,1.0221-6.5643,4.94013-11.8464,4.94013-6.0765,0-12.13909-5.19565-12.13909-5.19565s-6.0765,5.19565-12.139,5.19565-12.13909-5.67831-12.13909-5.67831v-8.7588h0s6.06255,5.67832,12.13909,5.67832,12.139-5.67832,12.139-5.67832,6.04864,5.67832,12.13909,5.67832,12.153-5.67832,12.153-5.67832h0s6.04863,5.67832,12.11122,5.67832a8.98837,8.98837,0,0,0,.98953,0h0a4.755,4.755,0,0,0,.98952-.142h0a17.822,17.822,0,0,0,5.40753-2.101l4.40408-3.22244v-9.93706a25.295,25.295,0,0,1-9.75587,4.75559h0c-.33447,0-.655.11356-.98953.142h-.97557c-6.06258,0-12.13908-5.19566-12.13908-5.19566s-6.07651,5.19566-12.153,5.19566-12.13908-5.19566-12.13908-5.19566-6.0765,5.19566-12.13909,5.19566-12.13909-5.67832-12.13909-5.67832v-8.7588h0v.01419c0-.12775,6.09046,5.67833,12.13909,5.67833A15.7938,15.7938,0,0,0,174.083,134.846a29.1,29.1,0,0,0,4.55739-2.99531,28.02281,28.02281,0,0,0,4.18109,2.83915,16.16993,16.16993,0,0,0,7.93012,2.59783,15.76558,15.76558,0,0,0,7.59562-2.39908,29.02,29.02,0,0,0,4.47378-3.00951,28.83805,28.83805,0,0,0,4.44587,2.93852,15.90558,15.90558,0,0,0,7.67926,2.47007h.98953l.98952-.142h0a19.20983,19.20983,0,0,0,6.50853-2.76817,29.40918,29.40918,0,0,0,3.6236-2.44168,28.81749,28.81749,0,0,0,4.18109,2.83916,16.04561,16.04561,0,0,0,7.8883,2.56943,15.44541,15.44541,0,0,0,7.3448-2.25712,29.3751,29.3751,0,0,0,4.01384-2.51266v-.21294h0V130.857Z" fill="#fff"/></svg>