<svg id="Layer_1" data-name="Layer 1" xmlns="http://www.w3.org/2000/svg" viewBox="0 0 300 300"><defs><style>.cls-1{fill:#fff;}</style></defs><g id="layer1"><g id="g38999"><path id="path38910" class="cls-1" d="M240.7,207c.62.77,1.7-.16,1.24-.93L170.41,82.67h0L156.94,59.38a2.4,2.4,0,0,0-2-1.08,1.84,1.84,0,0,0-1.7,1.39l-19.51,64.78a15.82,15.82,0,0,0,15.17,20.36H168.4A39.46,39.46,0,0,1,198,158.25Z"/><path id="path38912" class="cls-1" d="M120.25,128.64,135.42,78.2a.76.76,0,0,0-1.39-.62L47.18,227.36a1.75,1.75,0,0,0,.31,2.31,2,2,0,0,0,2.32.46l.31-.15,77.1-28.23a15.64,15.64,0,0,0,8.2-22.67l-11.61-19.75a39.33,39.33,0,0,1-3.56-30.69"/><path id="path38914" class="cls-1" d="M228,241.55h23.07a2.07,2.07,0,0,0,1.55-3.4L194.56,172a15.89,15.89,0,0,0-25.7,2.47l-11,19.13a39.83,39.83,0,0,1-20.43,17.12L56.78,240.16a.8.8,0,0,0,.31,1.54Z"/></g></g></svg>