<svg id="Layer_1" data-name="Layer 1" xmlns="http://www.w3.org/2000/svg" viewBox="0 0 300 300"><defs><style>.cls-1{fill:#016fd0;}.cls-1,.cls-2{fill-rule:evenodd;}.cls-2{fill:#fff;}</style></defs><title>Artboard 63</title><polygon class="cls-1" points="56.02 56.02 243.98 56.02 243.98 243.98 56.02 243.98 56.02 56.02 56.02 56.02"/><polygon class="cls-2" points="124.11 214.24 124.11 146.89 243.98 147 243.98 165.6 230.13 180.41 243.98 195.35 243.98 214.35 221.86 214.35 210.1 201.38 198.43 214.4 124.11 214.24 124.11 214.24"/><polygon class="cls-1" points="132.12 206.86 132.12 154.3 176.68 154.3 176.68 166.41 146.54 166.41 146.54 174.63 175.96 174.63 175.96 186.53 146.54 186.53 146.54 194.6 176.68 194.6 176.68 206.85 132.12 206.86 132.12 206.86"/><polygon class="cls-1" points="176.45 206.86 201.11 180.55 176.45 154.3 195.54 154.3 210.61 170.96 225.72 154.3 243.98 154.3 243.98 154.72 219.85 180.55 243.98 206.11 243.98 206.86 225.53 206.86 210.2 190.03 195.02 206.86 176.45 206.86 176.45 206.86"/><polygon class="cls-2" points="129.7 87.11 158.59 87.11 168.74 110.16 168.74 87.11 204.42 87.11 210.57 104.38 216.74 87.11 243.98 87.11 243.98 154.46 100.02 154.46 129.7 87.11 129.7 87.11"/><path class="cls-1" d="M135.17,94.43l-23.32,52.51h16l4.39-10.52h23.84l4.4,10.52h16.39L153.65,94.43Zm2,30.21,7-16.72,7,16.72Z"/><polygon class="cls-1" points="176.65 146.93 176.65 94.42 199.13 94.5 210.7 126.78 222.34 94.42 243.98 94.42 243.98 146.93 230.06 147.05 230.06 110.98 216.91 146.93 204.21 146.93 190.79 110.86 190.79 146.93 176.65 146.93 176.65 146.93"/></svg>