<svg id="Layer_1" data-name="Layer 1" xmlns="http://www.w3.org/2000/svg" viewBox="0 0 300 300"><path d="M191.24418,173.59622a4.85954,4.85954,0,0,0,1.19795-1.75275c1.6091-2.75514,3.17353-5.53632,4.74551-8.29317a2.50865,2.50865,0,0,1,1.22146-.10789q8.32527-.01135,16.65056-.00269c1.86544.00229,3.67231-.58344,5.55727-.459,4.65645.30733,8.36294,2.10113,10.50158,6.46666.15834.32324.34123.635.48929.96259.14642.324.26311.66143.39952,1.01.45969-.02415.66-.43079.91734-.71105a33.40029,33.40029,0,0,1,7.90474-6.29239,22.93579,22.93579,0,0,1,6.61683-2.48891,26.01117,26.01117,0,0,1,6.60272-.70055,16.85014,16.85014,0,0,1,11.79971,5.00874c.02561.2149-.05215.48667.29046.52714l-.0173-.0208c-.01427.167.0437.26574.23013.24289l-.01069-.01282a.49934.49934,0,0,0,.46944.67112l-.01346-.01724c.05828.96552.84189,1.69439.872,2.66909-.007.24615-.06155.50572.19181.67836l.039.22729c-.013.24622-.0694.50416.18339.67867l.03914.43155c.014.38143-.13651.78969.18323,1.12122q0,1.89291.00006,3.78581c-.32354.40725-.17173.87924-.18133,1.32926l-.04127.45865c-.27855.24543-.18683.56695-.17926.87118l-.04281.43828c-.25065.17288-.19888.42651-.17959.67149l-.04265.42057c-.25819.18615-.20037.457-.19175.71465a1.0213,1.0213,0,0,1-.03046.17365c-.25444.18162-.2019.44721-.19208.70112l.00855-.01876c-.26719.16458-.23941.42494-.22172.682q-.01551.103-.0401.20429c-.25973.174-.20046.43775-.19335.68679l.00966-.01984c-.28149.1597-.24628.4264-.23206.686l.0096-.01993c-.29055.16884-.24136.45-.23705.71624-.45131,1.2-.87786,2.41-1.35858,3.59814a41.53584,41.53584,0,0,1-5.48708,9.88378.74463.74463,0,0,0-.51341.73563l-.35579.3836a.38532.38532,0,0,0-.29137.45726l.009-.00937a.28539.28539,0,0,0-.24894.27279l-.3553.38778a.6498.6498,0,0,0-.51591.68114l.00919-.0093c-.33534-.00431-.44757.20407-.47283.49534l-2.15305,2.15086c-.28984.02667-.49979.1369-.49447.4722l.00925-.00919a.65519.65519,0,0,0-.67985.51313l-.38919.35747a.28506.28506,0,0,0-.27349.24885l.00928-.009a.38532.38532,0,0,0-.45769.29106.25849.25849,0,0,1-.147.14272.77216.77216,0,0,0-.74569.5016,22.98669,22.98669,0,0,1-6.82956,3.51149c-.25394.00131-.52674-.06425-.70665.19925a1.871,1.871,0,0,1-.86486.25283c-.25816-.00839-.52974-.06686-.7163.19176l-.41466.04076c-.24686-.01581-.50371-.06893-.67942.18139l-.43677.0424c-.31105-.00318-.64338-.11221-.89515.17962l-.66013.04248-.90315-.021-4.19606-.0032-.68343.02623-.87008-.04426c-.18063-.24217-.43227-.20886-.6838-.17605l-.45605-.04637c-.17033-.2471-.42136-.19928-.66418-.18147l-.23618-.0411c-.1685-.25643-.4274-.194-.66985-.18965a9.8212,9.8212,0,0,1-3.73436-1.74105.76887.76887,0,0,0-.73151-.5139c-.57146-.36251-.87748-1.04139-1.54256-1.29232l.01594.01455c.03748-.18368-.04364-.26031-.22377-.24754l.0156.01608c.02258-.17714-.08412-.257-.231-.30668-.70616-.83488-.88033-1.95465-1.51621-2.82718a9.92993,9.92993,0,0,1-.48791-1.98285c.01226-.24234.06133-.49474-.1825-.66715a1.769,1.769,0,0,1-.03428-.20973c-.00373-.321.1099-.66573-.18851-.92682l-.041-1.08642v-1.67961c-.41078.11833-.41967.37535-.44561.62235q-3.40983,5.95473-6.81962,11.90948c-1.03477.0139-2.06956.04-3.10434.0398q-20.13308-.004-40.26614-.0146c-.18069-.604.6096-1.00686.34127-1.70918a43.06752,43.06752,0,0,1-4.53461,1.92686c-.26711-.00366-.54966-.05395-.71918.2375l.02022-.00965c-.24765-.0098-.50695-.06022-.67881.19434q-.1051.02411-.212.03807c-.25758-.01663-.519-.04493-.68366.22287l.01952-.00882c-.25969-.00877-.53219-.06574-.72129.1913l-.39608.0407c-.25134-.021-.50919-.0664-.68857.183l-.41546.03576c-.321.00046-.66472-.11188-.92582.18612l-.8626.0411a4.36725,4.36725,0,0,0-1.99763.1806l-2.23954.00006c-.5615-.3471-1.1786-.14311-1.77155-.17846l-.68382-.04389c-.24735-.27669-.57-.18785-.8759-.18012l-.43493-.04178c-.17753-.25531-.43954-.20091-.69022-.188a1.55451,1.55451,0,0,1-.19875-.034c-.18255-.2586-.4527-.20252-.70877-.197a9.90718,9.90718,0,0,1-3.94306-1.957.76627.76627,0,0,0-.73626-.51375L144.12694,207.46a.76657.76657,0,0,0-.51473-.73365,7.67975,7.67975,0,0,1-1.74352-3.51155c.00532-.26215-.009-.51348-.32586-.5984a.48378.48378,0,0,0-.13961.39854c-1.11547,1.98329-2.19056,3.99105-3.37034,5.93537-.36625.60361-.51779,1.40164-1.25507,1.75243-.42557-.3482-.92766-.173-1.38972-.17308q-55.18705-.01692-110.3741-.01421c-.008-.826.63475-1.34775.98974-1.98714,1.58523-2.85527,3.26475-5.65809,4.89027-8.49127,1.23185-2.14705,2.41684-4.321,3.65269-6.46571,1.86425-3.23524,3.76245-6.45092,5.63083-9.68379,1.02387-1.77158,2.00074-3.5703,3.02627-5.3409,1.583-2.73308,3.09234-5.508,4.74022-8.20464,1.04826-1.71541,2.01121-3.48322,2.9998-5.23465,1.28759-2.28112,2.58271-4.55678,3.91942-6.81056,1.02489-1.728,1.98887-3.49551,2.9951-5.237.62885-1.08834,1.23334-2.19073,1.86927-3.32336a3.4467,3.4467,0,0,1,1.26641-.06338q45.218-.008,90.43606-.00544c.44427,0,.88856-.00874,1.33284-.0134l2.22822-.0017,4.21756-.00016,2.44223.00308c3.13436.00426,6.26878.00051,9.403.026.29045.00236.79406-.28263.83618.36529-1.81864,3.17384-3.60735,6.36541-5.47332,9.51122a22.23062,22.23062,0,0,1-1.83455,2.97992.639.639,0,0,0-.35491.587c.18636.09786.27917-.00143.36229-.1253l.56843-.22068c.268-.002.55485.05283.72579-.241l-.02.00955c.24183.0099.49548.0601.66-.19343l.23634-.04115c.25572.01844.51049.034.67657-.22126l-.01781.00747c.25249.01494.513.059.69281-.19029a1.16963,1.16963,0,0,1,.18326-.02968c.31328-.01187.6542.1067.90673-.19187.37463.04819.58659-.23861.85286-.41357a1.98054,1.98054,0,0,0,1.40706.14841,19.02146,19.02146,0,0,1,9.41879.93417,11.45843,11.45843,0,0,1,6.37314,4.95827c.37349.62616.85132,1.19017,1.28119,1.78275-.13959.76107.451,1.36082.46215,2.08858-.00854.25641-.0674.52631.191.71112l.0436.42333c-.004.29884-.09882.6166.17874.85679l.04725.48133-.0251.67211v2.54446c.42561-.12491.44374-.33959.45223-.55972C190.13374,175.30709,190.95337,174.58367,191.24418,173.59622ZM170.764,208.57128l.08711.29034.32707-.1029a.71549.71549,0,0,0,.33991-.69013C171.16954,208.21407,170.89792,208.29207,170.764,208.57128Zm5.57683-1.84852a.51936.51936,0,0,0-.27911.67981q7.07725,0,14.16665-.00081c.2214,0,.45011.00394.55595-.25413q2.55688-4.44886,5.1139-8.89766c2.16363-3.76241,4.30153-7.54,6.50328-11.28a52.81843,52.81843,0,0,1,3.72245-6.12274,3.47822,3.47822,0,0,1,1.96184-1.32858,2.512,2.512,0,0,1,2.663.94657,2.00832,2.00832,0,0,1,.25745,2.28225c-.56135,1.07655-1.1971,2.11441-1.803,3.16771q-3.24634,5.64372-6.49394,11.28673-2.85981,4.97159-5.71814,9.944a.34622.34622,0,0,0-.06385.08932.111.111,0,0,0,.01574.09031c.11235.13505.26864.07489.40529.075q6.81329.0048,13.62657.00055c.24682-.00016.53157.0681.66937-.245,1.27866-2.56548,2.80649-4.9917,4.20844-7.48814,2.19686-3.91189,4.471-7.78042,6.7032-11.67259,1.84669-3.2199,3.64043-6.471,5.5369-9.66115a6.53741,6.53741,0,0,0,.93265-4.72722c-.57189-3.11174-3.33191-6.23548-6.22253-6.82859a13.04586,13.04586,0,0,0-9.96331,1.74072,3.598,3.598,0,0,1-1.11018.47648c-.02636-.89014.75769-1.38823.83291-2.19293H199.3691Zm-41.3533.42238c1.88061-3.28957,3.77576-6.571,5.63213-9.87413a13.81886,13.81886,0,0,0,1.46478-2.77155H122.12964c-.07409-.53088.28123-.67114.57841-.89063,2.69256-1.98865,5.36927-3.99873,8.06106-5.98842q12.6885-9.379,25.38517-18.747a6.48088,6.48088,0,0,0,1.98018-2.03134c1.42648-2.57369,2.9132-5.114,4.37353-7.669,1.14409-2.00168,2.28406-4.00573,3.48654-6.11521H122.25631c-.68364,1.20249-1.34646,2.38982-2.02945,3.56544q-2.49429,4.29341-5.00352,8.57813a.48606.48606,0,0,0-.23177.67261h1.09852q9.38934.00012,18.77867.00286a4.07032,4.07032,0,0,1,1.21451.067c.02331.327-.24621.41664-.45054.56608-4.12409,3.01646-8.23805,6.04684-12.37132,9.05068q-11.14956,8.10288-22.30818,16.19325a6.26252,6.26252,0,0,0-2.01152,1.83038c-2.55364,4.46664-5.145,8.91177-7.72323,13.36437-.13038.08176-.24531.16939-.14064.33233a.49028.49028,0,0,0,.41689.12059q21.35916.00207,42.71831-.00232C134.48875,207.3992,134.82252,207.51018,134.98751,207.14514Zm21.64728,1.6269a28.29921,28.29921,0,0,0,3.85144-.20754,24.21257,24.21257,0,0,0,10.17061-4.0029,31.22,31.22,0,0,0,8.43308-8.78771,50.60612,50.60612,0,0,0,6.27449-13.68631,18.5049,18.5049,0,0,0,.68948-8.31215c-.97044-5.82614-4.726-8.43712-10.06982-8.98483a21.446,21.446,0,0,0-10.29563,1.5205,29.72119,29.72119,0,0,0-10.88151,7.77531,40.35546,40.35546,0,0,0-7.37039,11.69642c-1.75815,4.19247-3.15961,8.49316-2.89361,13.13218.24706,4.30925,2.31021,7.579,6.53373,9.04A15.16939,15.16939,0,0,0,156.63479,208.772Zm104.22612-18.67815c.59708-1.44056,1.209-2.8146,1.74037-4.21909a28.68171,28.68171,0,0,0,2.2769-10.95423c-.14392-5.49726-3.0377-9.01688-8.21426-9.9199a20.71962,20.71962,0,0,0-12.71058,1.81451,30.56451,30.56451,0,0,0-11.74606,10.28366,46.35524,46.35524,0,0,0-6.68677,14.08682,21.50129,21.50129,0,0,0-1.0086,9.58487,8.63365,8.63365,0,0,0,5.89725,7.19531,17.96962,17.96962,0,0,0,6.65187.80251,21.39944,21.39944,0,0,0,10.7913-3.14,29.31927,29.31927,0,0,0,8.93335-8.58622,23.31,23.31,0,0,0,2.6571-4.46727H245.01764a1.99965,1.99965,0,0,0-.501.53383,14.56946,14.56946,0,0,1-3.046,3.46472,3.02034,3.02034,0,0,1-3.22563.41481c-.95214-2.44191.13212-4.63859.90882-6.89431ZM61.787,153.24477c-10.36281,18.01253-20.69146,35.96567-31.08238,54.02707H46.923L78.0085,153.24477Zm-.62917,54.04369,31.1082-54.01153H81.98617L50.91,207.28846ZM97.74109,153.2621,66.67665,207.269h6.28542l31.06651-54.00689ZM83.55987,207.30778c10.35569-18.01018,20.686-35.97628,31.07306-54.041h-3.63255l-31.063,54.041Z" fill="#fff"/><path d="M221.87768,98.132h2.90687c-.07289.6318-.71252.87494-.63213,1.49344a23.972,23.972,0,0,0,2.72331-1.318,26.87426,26.87426,0,0,1,7.27446-2.18788,26.55123,26.55123,0,0,1,6.48625-.13746,14.45984,14.45984,0,0,1,7.73276,2.93209,14.31224,14.31224,0,0,1,3.53554,4.43548c.1086.18474.2447.35334.368.52943l.04674.42642c.00877.268-.0504.55881.245.73091l-.0095-.01979c-.00727.2502-.06307.514.19346.69035a1.55846,1.55846,0,0,1,.03624.19556c-.01476.25158-.064.51248.18716.69226l.0408.42807c-.00108.31356-.11456.64965.18133.90371l.04468,1.10123q-.00057,1.44543-.00108,2.89088l-.04409.91975c-.324.40031-.167.86817-.18447,1.31154l-.038.24732c-.281.23786-.17859.556-.17878.85267l-.04321.44145c-.25434.17307-.19834.42995-.18282.67591l-.03969.22981c-.2519.16844-.19313.423-.18434.66375q-.01418.10434-.03758.207c-.2578.17906-.19839.44626-.19424.69811a4.38877,4.38877,0,0,1-.10168.53785,59.44508,59.44508,0,0,1-4.58487,10.422,23.42149,23.42149,0,0,1-2.38546,3.64736.76734.76734,0,0,0-.51375.72848l-.15591.16106a.76779.76779,0,0,0-.51057.72843l-.35789.3882a.38594.38594,0,0,0-.29028.45691l.00928-.00969c-.329.00022-.444.205-.47185.493l-.3558.38952a1.5802,1.5802,0,0,0-.95946,1.12562l.00876-.00915a.22849.22849,0,0,0-.23079.23069l.00856-.00859a.22843.22843,0,0,0-.23075.23074l.00857-.00861a.22833.22833,0,0,0-.23073.2308l.00858-.00864a.22815.22815,0,0,0-.23074.2308l.00914-.00878a1.5982,1.5982,0,0,0-1.1258.95763l-.60974.579a.28448.28448,0,0,0-.27413.24871l.00937-.0091a.38658.38658,0,0,0-.45685.28974l-.38812.357a.74671.74671,0,0,0-.73295.51319,23.52627,23.52627,0,0,1-8.61963,4.18383c-.25061-.00926-.51379-.06386-.69111.1913q-.10458.02323-.2108.037c-.25037-.01419-.51082-.06581-.68968.18549l-.42917.04071c-.24894-.02073-.50488-.06768-.682.18137l-.65854.04456c-.36692.00934-.75854-.13141-1.07624.1769l-.92347.04486-4.22272.0002-.91012-.04507c-.32286-.31158-.72014-.16929-1.09252-.17888l-.43972-.043c-.17416-.24985-.42987-.19595-.67512-.18095l-.24973-.04192c-.16069-.24572-.4063-.19055-.63927-.18013l-.23852-.04179c-.16395-.25355-.41762-.20189-.65862-.19333l.01981.00946c-.17513-.29639-.46937-.23817-.74062-.24843a9.95449,9.95449,0,0,1-3.02529-1.7239.68616.68616,0,0,0-.68581-.49082l.00937.008a.28143.28143,0,0,0-.27614-.24876l-.20194.05341.00989.00066c.03325-.18507-.0459-.26268-.22986-.24008l.01793.01322c-.00637-.22293-.1334-.288-.33489-.25555-.67554-.783-1.00777-1.78034-1.62563-2.59932a9.24054,9.24054,0,0,1-.93062-2.477c.00535-.24177.06524-.4989-.18839-.6677l-.04069-.234c.018-.24794.06786-.50441-.18224-.68068l-.046-.66129a1.93476,1.93476,0,0,0-.07278-.95961c-.3573.05-.35341.3201-.371.57655L199.04,144.75724l-12.26776.04734-.90761-.04632c-.24647-.29057-.57574-.17952-.88172-.18154a7.55222,7.55222,0,0,1-3.98153-1.73408.38621.38621,0,0,0-.45632-.28791l.00948.00919a.28442.28442,0,0,0-.27225-.24853l-1.485-1.47959a.7311.7311,0,0,0-.51145-.73611,12.47139,12.47139,0,0,1-2.31664-4.30807,1.27668,1.27668,0,0,1-.49264.75392.74652.74652,0,0,0-.514.73231l-.36019.38923a.685.685,0,0,0-.50927.67774l.00916-.00921a.28665.28665,0,0,0-.24809.26866l-1.70448,1.709a.73371.73371,0,0,0-.73473.50876l-.16235.1595a.77136.77136,0,0,0-.72392.50792,20.22991,20.22991,0,0,1-7.506,3.51856c-.258-.00481-.53082-.06441-.71722.19443a1.22092,1.22092,0,0,1-.18.032c-.30337.01292-.63491-.10449-.87755.18939l-.25364.043c-.30057-.00223-.62162-.10276-.863.17936l-.24455.04081c-.31616-.00006-.65638-.12044-.91207.18205l-.87963.04715c-.449.00473-.9183-.14388-1.326.17458h-4.894c-.40805-.31845-.87747-.17-1.32683-.17422l-.6746-.048c-.24936-.293-.58114-.17879-.8896-.17979l-.44217-.04221c-.17155-.25124-.42569-.19557-.66909-.17981l-.25416-.04291c-.23889-.291-.56675-.179-.86718-.19116l.01855.00847c-.16363-.26562-.4228-.23761-.67845-.22043a13.92993,13.92993,0,0,1-5.30447-2.417.74723.74723,0,0,0-.73542-.513c-.13916-.06713-.22178-.27335-.42862-.174l.01634.01042c-.25057-.6669-.93425-.97238-1.29383-1.54831a.28757.28757,0,0,0-.24768-.26681l.00922.00945a.39782.39782,0,0,0-.267-.45956,3.60861,3.60861,0,0,1-.8591-1.51729c-.01724-.16513.0131-.35962-.231-.38451-.22622.06375-.2017.25489-.22607.42017-.22457.415-.43756.83687-.67569,1.244q-1.55166,2.65275-3.11529,5.29847c-.4801.01854-.96022.05318-1.44032.05328q-21.88358.00431-43.76716.00906c-.42978.00024-.89212-.14282-1.28758.16594a.76418.76418,0,0,1-.18474.00614l-.075.01367-.05573-.052a.19683.19683,0,0,0-.21524-.1413,42.75915,42.75915,0,0,1,2.568-4.70716c1.22179-2.23521,2.53995-4.41786,3.81922-6.62164,1.27939-2.204,2.56624-4.40366,3.841-6.61029,1.00588-1.74119,2.0152-3.48077,2.9927-5.23789,1.27365-2.28949,2.6001-4.54742,3.93328-6.80258,1.33372-2.25609,2.5905-4.55747,3.89531-6.83081,1.286-2.24048,2.60462-4.46229,3.88171-6.70775,1.26077-2.21676,2.42273-4.48874,3.88372-6.59017a24.76247,24.76247,0,0,1,13.51669-9.24888,35.19276,35.19276,0,0,1,5.28793-1.06479,41.67029,41.67029,0,0,1,7.94683-.1527,25.47116,25.47116,0,0,1,7.88,1.70513,15.73154,15.73154,0,0,1,5.72676,3.59822,10.66836,10.66836,0,0,1,3.04249,6.06287c.12634.82753.07971,1.66307.2374,2.52568h35.47151l3.48933-6.1361c.12291-.07795.34927-.03039.56588-.03046q10.83131-.0035,21.66253.01622c.29271.00094.85251-.37672.90026.35522l-2.98648,5.15905c-.28473.10587-.365.32841-.35368.6732ZM130.72587,141.6245c.51511-.879,1.075-1.82127,1.62236-2.77077q2.81118-4.87646,5.61557-9.7568,2.67135-4.63773,5.347-9.273,2.75689-4.78368,5.51179-9.56851c1.67249-2.9,3.44627-5.74425,4.96914-8.7268a8.24548,8.24548,0,0,0-3.58917-11.50385,22.31138,22.31138,0,0,0-10.24779-2.73274,30.08523,30.08523,0,0,0-14.96,2.7676,19.2175,19.2175,0,0,0-7.85661,6.59975c-2.27309,3.39537-4.13938,7.03707-6.19612,10.56369-1.89017,3.241-3.7531,6.49793-5.62367,9.75035q-2.752,4.785-5.4964,9.57453-3.27681,5.69211-6.56252,11.37911c-.69207,1.20281-1.36366,2.41739-2.09234,3.71131h15.81262l6.8392-11.88723h8.0166c-2.296,4.01321-4.51025,7.88339-6.793,11.87333Zm90.09285,1.39227a26.84092,26.84092,0,0,0,3.08935-.17829,23.54081,23.54081,0,0,0,8.4576-2.71228,29.89691,29.89691,0,0,0,9.872-9.0097,48.76844,48.76844,0,0,0,6.08087-11.84088c1.33144-3.65037,2.23942-7.38861,1.59432-11.33921a9.547,9.547,0,0,0-6.51561-8.02888,17.26949,17.26949,0,0,0-8.06857-.70576,24.10491,24.10491,0,0,0-9.69708,3.43749,31.33856,31.33856,0,0,0-6.69157,5.52846,39.85841,39.85841,0,0,0-4.00391,5.12024,42.39215,42.39215,0,0,0-4.51591,9.05026c-1.3531,3.75186-2.37139,7.57819-1.88708,11.63191a9.07941,9.07941,0,0,0,6.01345,8.01588A16.20766,16.20766,0,0,0,220.81872,143.01677Zm-63.67108-41.71536c-.51371.91366-.99336,1.78281-1.48783,2.64346q-3.27081,5.69286-6.54928,11.38134c-1.85519,3.21812-3.72722,6.42661-5.57053,9.6515-1.22374,2.141-2.49461,4.26141-3.589,6.468a5.93789,5.93789,0,0,0,.51406,6.2897,9.27617,9.27617,0,0,0,3.31116,2.85383,21.817,21.817,0,0,0,10.3378,2.3858,26.50571,26.50571,0,0,0,10.06053-1.74915,18.19025,18.19025,0,0,0,8.17122-6.0055,55.93794,55.93794,0,0,0,3.55486-5.84113q4.22155-7.31064,8.41359-14.63831,3.26862-5.69756,6.52421-11.40255a13.2903,13.2903,0,0,0,1.073-2.0594H177.47387c-2.21468,3.90444-4.44135,7.80267-6.64158,11.71574-2.79642,4.97333-5.559,9.9657-8.36882,14.93143a6.73886,6.73886,0,0,1-1.58176,2.11077,3.36433,3.36433,0,0,1-4.73349-.39566,3.63723,3.63723,0,0,1,.65683-2.49687q3.10044-5.34381,6.20429-10.68566,3.04688-5.2485,6.09087-10.49863c.87725-1.51618,1.73858-3.04155,2.66193-4.65872Zm41.84612-6.06424c-.54776.9859-1.08781,1.98864-1.65586,2.97528q-5.06538,8.79813-10.14083,17.59047c-2.23964,3.88768-4.41929,7.81109-6.72489,11.65921-1.87307,3.12619-2.2699,6.25555-.3652,9.46155a8.70029,8.70029,0,0,0,5.16022,4.3973,8.9566,8.9566,0,0,0,2.39055.36712c3.10457-.0135,6.20923-.00543,9.32583-.00543,2.03287-3.55441,4.03406-7.05342,6.04832-10.57531a2.83355,2.83355,0,0,0-1.19941-.11105q-2.72121-.0136-5.44257-.00069c-.53834.00275-1.04413-.0273-1.32614-.55654a1.97771,1.97771,0,0,1,.36529-1.68423q2.84916-4.91481,5.677-9.842,1.7593-3.05251,3.52213-6.10784h8.10692c2.18142-3.81888,4.35417-7.62254,6.63383-11.6134h-8.04432c1.1558-2.03751,2.2323-3.93521,3.37776-5.95445Z" fill="#fff"/><path d="M164.55806,211.19966q.10693-.01395.212-.03807c.24765.0098.51752.0971.67881-.19434l-.02022.00965c.25312-.03867.54691.04562.71918-.2375a43.06752,43.06752,0,0,0,4.53461-1.92686c.26833.70232-.522,1.10516-.34127,1.70918.20721.4037.58476.2202.87852.22041q20.74354.01581,41.48712.00167c.3413-.00022.75428.16991,1.00484-.24728q3.40978-5.95475,6.81962-11.90948c.53484.18983.00185.82909.44561,1.05726l.041,1.08642c-.00226.32215-.14357.67257.18851.92682a1.769,1.769,0,0,0,.03428.20973c-.0274.24648-.10415.50645.1825.66715a9.92993,9.92993,0,0,0,.48791,1.98285q-2.83031,4.87885-5.66089,9.7582H173.08155l-1.0485-1.322a25.16073,25.16073,0,0,1-7.86916,2.56112c-3.76053.50937-7.54005.66187-11.20253-.57983a16.55733,16.55733,0,0,1-8.86878-6.67017c-.15662-.24007-.24761-.54733-.5905-.68064l-3.85262,6.68777H27.69549c-.83883-1.17817-1.78886-2.2645-2.54623-3.49313.48059-.01218.96118-.035,1.44177-.035q54.37266-.00247,108.74531-.00315c.4805,0,.961-.02454,1.44147-.03762.73728-.3508.88882-1.14883,1.25507-1.75244,1.17978-1.94432,2.25487-3.95208,3.37034-5.93537.21446-.0713.30241.15159.46547.19986a7.67975,7.67975,0,0,0,1.74352,3.51155.88711.88711,0,0,0,.51473.73365l1.47673,1.47827a.88978.88978,0,0,0,.73626.51375,9.90718,9.90718,0,0,0,3.94306,1.957c.177.27856.44945.21421.70877.197a1.55451,1.55451,0,0,0,.19875.034c.17086.27976.43984.19982.69022.188l.43493.04178c.23779.32315.57041.18573.8759.18012l.68382.04389c.559.37193,1.1762.167,1.77155.17846l2.23954-.00006c.66908-.02477,1.36233.21726,1.99763-.1806l.8626-.0411c.32139.0014.67146.14539.92582-.18612l.41546-.03576c.24773.00742.518.09939.68857-.183l.39608-.0407c.25975.009.54369.109.72129-.1913l-.01952.00882C164.11568,211.38929,164.40208,211.49422,164.55806,211.19966Z" fill="#1b1819"/><path d="M230.52886,211.605l.23618.0411c.16044.28326.42.20422.66418.18147l.45605.04637c.17023.2825.43968.18018.6838.17605l.87008.04426c.18646.30241.47494.15478.72769.16473q2.05614.08974,4.11226.00016c.31955-.02561.67939.17592.94269-.16694l.66013-.04248c.31189.00731.64947.14253.89515-.17962l.43677-.0424c.24865.0225.51389.107.67942-.18139l.41466-.04076c.25961.01384.53643.09187.7163-.19176a1.871,1.871,0,0,0,.86486-.25283c.25983.01955.52976.07489.70665-.19925a22.98669,22.98669,0,0,0,6.82956-3.51149.95419.95419,0,0,0,.74569-.5016.25849.25849,0,0,0,.147-.14272c.16679-.0747.39706-.0497.45769-.29106l-.00928.009a.39674.39674,0,0,0,.27349-.24885l.38919-.35747a.82227.82227,0,0,0,.67985-.51313l-.00925.00919a.922.922,0,0,0,.49447-.4722l2.15305-2.15086a.9315.9315,0,0,0,.47283-.49534l-.00919.0093a.83277.83277,0,0,0,.51591-.68114l.3553-.38778a.39653.39653,0,0,0,.24894-.27279l-.009.00937c.24072-.061.21706-.29032.29137-.45726l.35579-.3836a.89137.89137,0,0,0,.51341-.73563,41.53584,41.53584,0,0,0,5.48708-9.88378c.48072-1.18812.90727-2.39813,1.35858-3.59814.28374-.17109.19693-.46464.23705-.71624l-.0096.01993c.29584-.15485.18263-.44789.23206-.686l-.00966.01984c.29272-.16476.20442-.43663.19335-.68679q.02462-.10125.0401-.20429c.2951-.15553.18729-.44186.22172-.682l-.00855.01876c.29234-.17125.20081-.44751.19208-.70112a1.0213,1.0213,0,0,0,.03046-.17365c.28347-.17939.20556-.45561.19175-.71465l.04265-.42057c.286-.16344.20129-.42589.17959-.67149l.04281-.43828c.32085-.23674.1848-.56737.17926-.87118l.04127-.45865c.35126-.40347.17861-.87831.18133-1.32926q0-1.8929-.00006-3.78581c-.00678-.38259.1727-.7956-.18323-1.12122l-.03914-.43155c.02425-.24926.1023-.513-.18339-.67867l-.039-.22729c.03174-.25314.08673-.51283-.19181-.67836-.03011-.9747-.81372-1.70357-.872-2.66909.101-.06467.19433-.07251.26744.04042,1.83553,2.83539,3.53269,5.73873,3.88289,9.19008a24.3529,24.3529,0,0,1-.842,9.00235c-2.11306,7.63846-5.35211,14.69889-10.78289,20.60313-4.32564,4.70276-9.48513,8.01509-15.88185,9.033-4.091.651-8.20818.68452-12.11915-.98065a16.76983,16.76983,0,0,1-7.25767-5.99486c-.12575-.18056-.425-.34469-.21338-.65153.66508.25093.9711.92981,1.54256,1.29232a.881.881,0,0,0,.73151.5139,9.8212,9.8212,0,0,0,3.73436,1.74105C230.02151,211.69289,230.27877,211.63625,230.52886,211.605Z" fill="#1c1a1a"/><path d="M244.36868,133.66275l.15591-.16106a.87759.87759,0,0,0,.51375-.72848,23.42149,23.42149,0,0,0,2.38546-3.64736,59.44508,59.44508,0,0,0,4.58487-10.422,4.38877,4.38877,0,0,0,.10168-.53785c.27788-.17349.209-.44331.19424-.69811q.02345-.10266.03758-.207c.28235-.16.21081-.41811.18434-.66375l.03969-.22981c.27807-.16666.1912-.43188.18282-.67591l.04321-.44145c.33358-.22686.18613-.55443.17878-.85267l.038-.24732c.35634-.39577.18114-.8662.18447-1.31154l.04412-.91975a4.54313,4.54313,0,0,0,.00105-2.89088l-.04468-1.10123c.00434-.31422.1443-.65561-.18133-.90371l-.0408-.42807c.00952-.25017.09281-.52025-.18716-.69226a1.55846,1.55846,0,0,0-.03624-.19556c.00955-.25083.09907-.524-.19346-.69035l.0095.01979-.011-.67286q.05379-.04457.10824-.0883a13.0863,13.0863,0,0,1,3.2244,7.71684,25.589,25.589,0,0,1-1.55158,11.1985,47.77413,47.77413,0,0,1-9.68713,16.99308,28.50148,28.50148,0,0,1-15.58894,9.1421,26.181,26.181,0,0,1-10.24452.08188c-4.18275-.80791-7.26875-3.26546-9.80338-6.54357l.2281-.10253a1.81918,1.81918,0,0,0,.20631.024l-.00937-.008a.74536.74536,0,0,0,.68581.49082,9.95449,9.95449,0,0,0,3.02529,1.7239c.18145.27757.47718.21493.74062.24843l-.01981-.00946c.1548.28467.41754.20218.65862.19333l.23852.04179c.15155.27811.40072.21034.63927.18013l.24973.04192c.16448.286.4277.204.67512.18095l.43972.043c.31627.35181.7195.17319,1.09252.17888l.91012.04507a9.28787,9.28787,0,0,0,4.22272-.0002l.92347-.04486c.3676-.00509.76522.172,1.07624-.1769l.65854-.04456c.24512.00638.51307.09846.682-.18137l.42917-.04071c.24886.00864.51852.09441.68968-.18549q.10623-.01372.2108-.037c.25177.01342.51959.08476.69111-.1913a23.52627,23.52627,0,0,0,8.61963-4.18383.88659.88659,0,0,0,.73295-.51319l.38812-.357c.16722-.073.39582-.04947.45685-.28974l-.00937.0091a.4012.4012,0,0,0,.27413-.24871l.60974-.579a1.92592,1.92592,0,0,0,1.1258-.95763l-.00913.00875a.26846.26846,0,0,0,.23073-.23077l-.00857.00861a.269.269,0,0,0,.23072-.23077l-.00856.00858a.26928.26928,0,0,0,.23074-.23071l-.00854.00857a.2694.2694,0,0,0,.23077-.23067l-.00876.00915a1.93427,1.93427,0,0,0,.95946-1.12562l.3558-.38952a.91965.91965,0,0,0,.47185-.493l-.00928.00969c.24033-.06122.21737-.28947.29028-.45691l.35789-.3882A.86574.86574,0,0,0,244.36868,133.66275Z" fill="#1c1a1a"/><path d="M147.61863,145.42388l.25416.04291c.163.28315.424.20189.66909.17981l.44217.04221c.244.31948.57933.18776.8896.17979l.6746.048c.405.3414.87694.17409,1.32683.17422h4.894c.4497.00031.92105.16486,1.326-.17458l.87963-.04715c.31169-.0223.66194.14827.91207-.18205l.24455-.04081c.30156.007.629.138.863-.17936l.25364-.043c.30908.01349.64027.12931.87755-.18939a1.22092,1.22092,0,0,0,.18-.032c.26076.01507.53686.08669.71722-.19443a20.22991,20.22991,0,0,0,7.506-3.51856.85169.85169,0,0,0,.72392-.50792l.16235-.1595a.87961.87961,0,0,0,.73473-.50876l1.70448-1.709a.38659.38659,0,0,0,.24809-.26866l-.00916.00921a.81153.81153,0,0,0,.50927-.67774l.36019-.38923a.88938.88938,0,0,0,.514-.73231,1.27668,1.27668,0,0,0,.49264-.75392,12.47139,12.47139,0,0,0,2.31664,4.30807.88869.88869,0,0,0,.51145.73611l1.485,1.47959a.39929.39929,0,0,0,.27225.24853l-.00948-.00919c.06195.23866.28813.21738.45632.28791a7.55222,7.55222,0,0,0,3.98153,1.73408c.24035.3203.57372.18935.88172.18154l.90761.04632c.17631.28094.46106.18256.70362.183q5.38284.00934,10.7657.00112c.28124-.00041.60521.09432.79844-.23145l5.93271-10.35183c.33764-.0918.20121.36487.44378.38306l.046.66129c-.00658.24489-.09594.51191.18224.68068l.04069.234c-.02917.24847-.08883.50554.18839.6677a9.24054,9.24054,0,0,0,.93062,2.477l-5.26189,9.02982c-4.37907-.09916-8.77689.14408-13.17085-.13209a10.54732,10.54732,0,0,1-7.68738-4.08441,24.52962,24.52962,0,0,1-2.70277-3.87926,30.14406,30.14406,0,0,1-3.03391,3.26842,24.57828,24.57828,0,0,1-11.89788,5.51234c-.47118.09012-.94548.164-1.41833.24542a5.34144,5.34144,0,0,0-2.42266.18293l-4.21756.00016a4.53817,4.53817,0,0,0-2.20336-.17827,22.955,22.955,0,0,1-7.47922-2.27113,17.99,17.99,0,0,1-5.63253-4.91944c-.08681-.10762-.19932-.22123-.053-.36689.20684-.09938.28946.10684.42862.174a.89623.89623,0,0,0,.73542.513,13.92993,13.92993,0,0,0,5.30447,2.417c.15507.292.43977.18547.67845.22043l-.01855-.00847C146.98237,145.55982,147.31338,145.43349,147.61863,145.42388Z" fill="#1e1b1c"/><path d="M86.05307,144.95725a.76418.76418,0,0,0,.18474-.00614c4.88641.01362,9.77282.03611,14.65924.039q15.32779.00911,30.65556-.01233c.38862-.00068.88505.26487,1.18026-.255q1.55865-2.64865,3.11529-5.29847c.23813-.40713.45112-.829.67569-1.244l.4571-.03566a3.60861,3.60861,0,0,0,.8591,1.51729c.04552.17842.02787.39351.267.45956l-.00922-.00945a.38122.38122,0,0,0,.24768.26681c.35958.57593,1.04326.88141,1.29383,1.54831-.52794-.17361-.66163.24158-.85186.57062q-1.44,2.49087-2.87983,4.98186c-.18385.31751-.37668.62983-.56794.94883H88.479A30.022,30.022,0,0,1,86.05307,144.95725Z" fill="#1e1b1c"/><path d="M168.295,161.8792a1.16963,1.16963,0,0,0-.18326.02968c-.25057-.00794-.52445-.10065-.69281.19029l.01781-.00747c-.23776.03639-.52319-.0728-.67657.22126l-.23634.04115c-.24161-.00917-.50532-.09363-.66.19343l.02-.00955c-.25608.03776-.55086-.04085-.72579.241l-.56843.22068-.00738-.46175a22.23062,22.23062,0,0,0,1.83455-2.97992c1.866-3.14581,3.65468-6.33738,5.47332-9.51122,1.048.99714,1.71444,2.29057,2.7475,3.43662-1.53368,2.60338-2.96715,5.24879-4.583,7.79036-.26627.175-.47823.46176-.85286.41357C168.88337,161.67547,168.542,161.55457,168.295,161.8792Z" fill="#1c1a1a"/><path d="M136.77781,210.70277c-.4805.01308-.961.0376-1.44147.03762q-54.37266.00266-108.74531.00315c-.48059,0-.96118.02284-1.44177.035a.18982.18982,0,0,1-.13527-.26309q55.18705.00276,110.3741.01421C135.85015,210.52981,136.35224,210.35456,136.77781,210.70277Z" fill="#1527fd"/><path d="M274.99986,158.45161a4.20122,4.20122,0,0,1-4.33532,4.21834,4.29968,4.29968,0,1,1,4.33532-4.21834Zm-2.22237,2.558c.06839-.01618.15738-.01019.20217-.05175a3.56038,3.56038,0,0,0,.60456-4.46157,3.41563,3.41563,0,0,0-4.04328-1.47,3.49838,3.49838,0,0,0-2.2974,3.76033,3.22546,3.22546,0,0,0,2.24928,2.88706,2.81358,2.81358,0,0,0,3.31074-.68935Z" fill="#1e1b1c"/><path d="M217.26323,97.45882l2.98648-5.15905a33.61554,33.61554,0,0,1,2.69625,3.46344l-1.21955,2.12506h-4.35989C217.20119,97.74463,217.24657,97.59932,217.26323,97.45882Z" fill="#1c1a1a"/><path d="M188.99688,171.18594c-.01118-.72776-.60174-1.32751-.46215-2.08858a15.04951,15.04951,0,0,1,2.70945,4.49886c-.29081.98745-1.11044,1.71087-1.35958,2.71914-.52319-.58957-.05737-1.31377-.26532-1.94625-.009-.24708.13648-.52929-.16181-.7106l-.04725-.48133c.0059-.29924.1538-.62806-.17874-.85679l-.0436-.42333C189.20077,171.63948,189.27781,171.36471,188.99688,171.18594Z" fill="#1e1b1c"/><path d="M217.26323,97.45882c-.01666.1405-.062.28581.10329.42945h4.35989l.15127.24375h-4.96813C216.89826,97.78723,216.9785,97.56469,217.26323,97.45882Z" fill="#4b5bd4"/><path d="M159.20869,149.65237a5.34144,5.34144,0,0,1,2.42266-.18293.19716.19716,0,0,0,.01957.186Z" fill="#4b5bd4"/><path d="M152.78777,149.47426a4.53817,4.53817,0,0,1,2.20336.17827l-2.22822.0017A.24519.24519,0,0,0,152.78777,149.47426Z" fill="#4b5bd4"/><path d="M266.8107,167.64335a.49934.49934,0,0,1-.46944-.67112C266.70783,167.0492,266.92958,167.22731,266.8107,167.64335Z" fill="#1c1a1a"/><path d="M252.31951,104.30554l-.04674-.42643.389.39617q-.05445.04376-.10824.0883Z" fill="#1c1a1a"/><path d="M266.13912,166.763c-.34261-.04047-.26485-.31224-.29046-.52714C265.95386,166.40692,266.32466,166.43187,266.13912,166.763Z" fill="#1c1a1a"/><path d="M223.64275,207.63505c.18013-.01277.26125.06386.22377.24754C223.61752,207.95752,223.6087,207.81563,223.64275,207.63505Z" fill="#1c1a1a"/><path d="M223.42734,207.34445c.14689.04966.25359.12954.231.30668C223.42371,207.66747,223.43862,207.49611,223.42734,207.34445Z" fill="#1c1a1a"/><path d="M208.43,142.10852c.20149-.03241.32852.03262.33489.25555C208.52455,142.44732,208.5101,142.235,208.43,142.10852Z" fill="#1c1a1a"/><path d="M208.747,142.35085c.184-.0226.26311.055.22986.24008C208.74585,142.65846,208.67559,142.57236,208.747,142.35085Z" fill="#1c1a1a"/><path d="M208.96692,142.59027l.202-.05341.06983.22473-.2281.10252a1.19278,1.19278,0,0,1-.09334-.18322C208.90994,142.65848,208.949,142.62092,208.96692,142.59027Z" fill="#1c1a1a"/><path d="M85.70711,144.77765a.19683.19683,0,0,1,.21524.1413C85.78855,144.96625,85.71843,144.91668,85.70711,144.77765Z" fill="#4b5bd4"/><path d="M266.352,166.98505c-.18643.02285-.2444-.07584-.23013-.24289C266.361,166.66944,266.4137,166.7731,266.352,166.98505Z" fill="#1c1a1a"/><path d="M91.21848,206.94868c2.57825-4.4526,5.16959-8.89773,7.72323-13.36437a6.26252,6.26252,0,0,1,2.01152-1.83038q11.1376-8.1192,22.30818-16.19325c4.13327-3.00384,8.24723-6.03422,12.37132-9.05068.20433-.14944.47385-.23907.45054-.56608-.21535-.54871-.69214-.27632-1.03065-.27742-6.20986-.02042-12.41981-.01471-18.62974-.01579-.33215-.00006-.66607.00793-.99588-.02293-.26179-.0245-.19469-.2547-.20366-.42638q2.50268-4.28853,5.00352-8.57813c.683-1.17562,1.34581-2.36295,2.02945-3.56544h43.73822c-1.20248,2.10948-2.34245,4.11353-3.48654,6.11521-1.46033,2.555-2.94705,5.09533-4.37353,7.669a6.48088,6.48088,0,0,1-1.98018,2.03134q-12.69468,9.37066-25.38517,18.747c-2.69179,1.98969-5.3685,3.99977-8.06106,5.98842-.29718.21949-.6525.35975-.57841.89063h19.95478a13.81886,13.81886,0,0,1-1.46478,2.77155c-1.85637,3.30316-3.75152,6.58456-5.63213,9.87413a1.59992,1.59992,0,0,1-.21942.02971q-21.44925.00435-42.89849-.0002C91.64268,207.17457,91.33374,207.31109,91.21848,206.94868Z" fill="#e40024"/><path d="M196.99115,207.14591q2.859-4.972,5.71814-9.944,3.2464-5.64371,6.49394-11.28673c.60588-1.0533,1.24163-2.09116,1.803-3.16771a2.00832,2.00832,0,0,0-.25745-2.28225,2.512,2.512,0,0,0-2.663-.94657,3.47822,3.47822,0,0,0-1.96184,1.32858,52.81843,52.81843,0,0,0-3.72245,6.12274c-2.20175,3.74-4.33965,7.5176-6.50328,11.28q-2.558,4.44824-5.11391,8.89766H176.34081v-.42487l23.0283-39.92005h13.19325c-.07522.8047-.85927,1.30279-.83291,2.19293a3.598,3.598,0,0,0,1.11018-.47648,13.04586,13.04586,0,0,1,9.96331-1.74072c2.89062.59311,5.65064,3.71685,6.22253,6.82859a6.53741,6.53741,0,0,1-.93265,4.72722c-1.89647,3.19019-3.69021,6.44125-5.5369,9.66115-2.23222,3.89217-4.50634,7.7607-6.7032,11.67259-1.40195,2.49644-2.92978,4.92266-4.20844,7.48814Q204.31771,207.151,196.99115,207.14591Z" fill="#e30024"/><path d="M156.63479,208.772a15.16939,15.16939,0,0,1-5.55813-.817c-4.22352-1.461-6.28667-4.73077-6.53373-9.04-.266-4.639,1.13546-8.93971,2.89361-13.13218a40.35546,40.35546,0,0,1,7.37039-11.69642,29.72119,29.72119,0,0,1,10.88151-7.77531,21.446,21.446,0,0,1,10.29563-1.5205c5.34377.54771,9.09938,3.15869,10.06982,8.98483a18.5049,18.5049,0,0,1-.68948,8.31215,50.60612,50.60612,0,0,1-6.27449,13.68631,31.22,31.22,0,0,1-8.43308,8.78771,24.21257,24.21257,0,0,1-10.17061,4.0029A28.29921,28.29921,0,0,1,156.63479,208.772Zm2.70191-14.314a2.64478,2.64478,0,0,0,3.07056.50989,6.833,6.833,0,0,0,3.0041-2.52243,56.7144,56.7144,0,0,0,5.68762-10.06463,5.98758,5.98758,0,0,0,.669-4.16129,2.70281,2.70281,0,0,0-3.1305-.55678,8.05914,8.05914,0,0,0-3.03583,2.52814,41.34351,41.34351,0,0,0-5.59721,9.58245C159.395,191.21881,158.79659,192.71044,159.3367,194.45806Z" fill="#e30024"/><path d="M260.86091,190.09389H239.15379c-.7767,2.25572-1.861,4.4524-.90882,6.89431a3.02034,3.02034,0,0,0,3.22563-.41481,14.56946,14.56946,0,0,0,3.046-3.46472,1.99965,1.99965,0,0,1,.501-.53383h14.42514a23.31,23.31,0,0,1-2.6571,4.46727,29.31927,29.31927,0,0,1-8.93335,8.58622,21.39944,21.39944,0,0,1-10.7913,3.14,17.96962,17.96962,0,0,1-6.65187-.80251,8.63365,8.63365,0,0,1-5.89725-7.19531,21.50129,21.50129,0,0,1,1.0086-9.58487,46.35524,46.35524,0,0,1,6.68677-14.08682,30.56451,30.56451,0,0,1,11.74606-10.28366,20.71962,20.71962,0,0,1,12.71058-1.81451c5.17656.903,8.07034,4.42264,8.21426,9.9199a28.68171,28.68171,0,0,1-2.2769,10.95423C262.06994,187.27929,261.458,188.65333,260.86091,190.09389Zm-19.17126-5.67968h6.76372c.88642-1.97253,2.01615-3.87063,1.57883-6.13637a2.04191,2.04191,0,0,0-.75288-.74758,3.94219,3.94219,0,0,0-3.87573,1.26825,15.69516,15.69516,0,0,0-2.88713,3.74251C242.206,183.10088,241.64908,183.55718,241.68965,184.41421Z" fill="#e30024"/><path d="M61.787,153.24477H78.0085L46.923,207.27184H30.70465C41.09557,189.21044,51.42422,171.2573,61.787,153.24477Z" fill="#ed6d1c"/><path d="M61.15786,207.28846H50.91l31.07622-54.01153H92.26606Z" fill="#ec6d1d"/><path d="M97.74109,153.2621h6.28749L72.96207,207.269H66.67665Z" fill="#eb6d1f"/><path d="M83.55987,207.30778H79.9374l31.063-54.041h3.63255C104.2459,171.3315,93.91556,189.2976,83.55987,207.30778Z" fill="#e96e22"/><path d="M91.21848,206.94868c.11526.36241.4242.22589.65112.226q21.44925.008,42.89849.0002a1.59992,1.59992,0,0,0,.21942-.02971c-.165.365-.49876.25406-.77447.25414q-21.35916.00674-42.71831.00232a.49028.49028,0,0,1-.41689-.12059C90.97317,207.11807,91.0881,207.03044,91.21848,206.94868Z" fill="#4b5bd4"/><path d="M213.7117,210.49652c-.25056.41719-.66354.24706-1.00484.24728q-20.74356.01325-41.48712-.00167c-.29376-.00021-.67131.18329-.87852-.22041q20.13308.00822,40.26614.0146C211.64214,210.53652,212.67693,210.51042,213.7117,210.49652Z" fill="#4b5bd4"/><path d="M115.22334,165.2014c.009.17168-.05813.40188.20366.42638.32981.03086.66373.02287.99588.02293,6.20993.00108,12.41988-.00463,18.62974.01579.33851.0011.8153-.27129,1.03065.27742a4.07032,4.07032,0,0,0-1.21451-.067q-9.38933-.00573-18.77867-.00286h-1.09852A.48606.48606,0,0,1,115.22334,165.2014Z" fill="#4b5bd4"/><path d="M176.34081,206.72276v.42487h14.44348c-.10583.25807-.33454.25408-.55594.25413q-7.08636.00161-14.16665.00081A.51936.51936,0,0,1,176.34081,206.72276Z" fill="#4b5bd4"/><path d="M196.99115,207.14591q7.32655.00513,14.65312.01022c-.1378.31305-.42255.24479-.66937.245q-6.81329.00466-13.62657-.00055c-.13665-.0001-.29294.06006-.40529-.075a.111.111,0,0,1-.01574-.09031A.34622.34622,0,0,1,196.99115,207.14591Z" fill="#4b5bd4"/><path d="M238.2791,212.2591q-2.05612.08957-4.11226-.00016a.98515.98515,0,0,1-.04426-.191l4.19606.0032A1.5365,1.5365,0,0,1,238.2791,212.2591Z" fill="#1527fd"/><path d="M189.61928,174.36911c.20795.63248-.25787,1.35668.26532,1.94625-.00849.22013-.02662.43481-.45223.55972v-2.54446A1.60619,1.60619,0,0,1,189.61928,174.36911Z" fill="#1527fd"/><path d="M220.97693,199.6443c-.44376-.22817.08923-.86743-.44561-1.05726.02594-.247.03483-.504.44561-.62235Z" fill="#4b5bd4"/><path d="M159.8841,212.09169c-.6353.39786-1.32855.15583-1.99763.1806A4.36725,4.36725,0,0,1,159.8841,212.09169Z" fill="#4b5bd4"/><path d="M155.64693,212.27235c-.59535-.01147-1.21255.19347-1.77155-.17846C154.46833,212.12924,155.08543,211.92525,155.64693,212.27235Z" fill="#4b5bd4"/><path d="M268.30588,177.2181c-.00272.451.16993.92579-.18133,1.32926C268.13415,178.09734,267.98234,177.62535,268.30588,177.2181Z" fill="#4b5bd4"/><path d="M170.764,208.57128c.13394-.27921.40556-.35721.75409-.50269a.71549.71549,0,0,1-.33991.69013C171.15016,208.45339,170.94633,208.53605,170.764,208.57128Z" fill="#4b5bd4"/><path d="M268.12259,172.31107c.35593.32562.17645.73863.18323,1.12122C267.98608,173.10076,268.13657,172.6925,268.12259,172.31107Z" fill="#4b5bd4"/><path d="M259.48255,199.39565a.89137.89137,0,0,1-.51341.73563A.74463.74463,0,0,1,259.48255,199.39565Z" fill="#4b5bd4"/><path d="M238.2791,212.2591a1.5365,1.5365,0,0,0,.03954-.18792l.90315.021C238.95849,212.435,238.59865,212.23349,238.2791,212.2591Z" fill="#4b5bd4"/><path d="M221.20644,201.65754c-.33208-.25425-.19077-.60467-.18851-.92682C221.31634,200.99181,221.20271,201.33659,221.20644,201.65754Z" fill="#4b5bd4"/><path d="M268.08328,179.006c.00554.30381.14159.63444-.17926.87118C267.89645,179.573,267.80473,179.25144,268.08328,179.006Z" fill="#4b5bd4"/><path d="M257.72678,201.62334a.83277.83277,0,0,1-.51591.68114A.6498.6498,0,0,1,257.72678,201.62334Z" fill="#4b5bd4"/><path d="M141.86869,203.21482c-.16306-.04827-.251-.27116-.46547-.19986a.48378.48378,0,0,1,.13961-.39854C141.85967,202.70134,141.874,202.95267,141.86869,203.21482Z" fill="#4b5bd4"/><path d="M254.109,205.40439a.82227.82227,0,0,1-.67985.51313A.65519.65519,0,0,1,254.109,205.40439Z" fill="#4b5bd4"/><path d="M144.12694,207.46a.88711.88711,0,0,1-.51473-.73365A.76657.76657,0,0,1,144.12694,207.46Z" fill="#4b5bd4"/><path d="M252.171,206.94858a.95419.95419,0,0,1-.74569.5016A.77216.77216,0,0,1,252.171,206.94858Z" fill="#4b5bd4"/><path d="M146.33993,209.452a.88978.88978,0,0,1-.73626-.51375A.76627.76627,0,0,1,146.33993,209.452Z" fill="#4b5bd4"/><path d="M226.12465,209.67426a.881.881,0,0,1-.73151-.5139A.76887.76887,0,0,1,226.12465,209.67426Z" fill="#4b5bd4"/><path d="M189.23148,172.32039c.33254.22873.18464.55755.17874.85679C189.13266,172.937,189.22749,172.61923,189.23148,172.32039Z" fill="#4b5bd4"/><path d="M153.19156,212.05c-.30549.00561-.63811.143-.8759-.18012C152.62158,211.86215,152.94421,211.77331,153.19156,212.05Z" fill="#4b5bd4"/><path d="M161.67252,211.86447c-.25436.33151-.60443.18752-.92582.18612C161.0078,211.75259,161.35151,211.86493,161.67252,211.86447Z" fill="#4b5bd4"/><path d="M240.77707,211.87006c-.24568.32215-.58326.18693-.89515.17962C240.13369,211.75785,240.466,211.86688,240.77707,211.87006Z" fill="#4b5bd4"/><path d="M168.295,161.8792c.247-.32463.58841-.20373.90673-.19187C168.94916,161.9859,168.60824,161.86733,168.295,161.8792Z" fill="#4b5bd4"/><path d="M164.58219,162.53792l.00738.46175c-.08312.12387-.17593.22316-.36229.1253A.639.639,0,0,1,164.58219,162.53792Z" fill="#4b5bd4"/><path d="M165.86381,162.54754c.15466-.28706.41837-.2026.66-.19343C166.35929,162.60764,166.10564,162.55744,165.86381,162.54754Z" fill="#4b5bd4"/><path d="M234.12258,212.068a.98515.98515,0,0,0,.04426.191c-.25275-.01-.54123.13768-.72769-.16473Z" fill="#4b5bd4"/><path d="M166.76013,162.313c.15338-.29406.43881-.18487.67657-.22126C167.27062,162.34693,167.01585,162.3314,166.76013,162.313Z" fill="#4b5bd4"/><path d="M167.41889,162.09917c.16836-.29094.44224-.19823.69281-.19029C167.93189,162.15821,167.67138,162.11411,167.41889,162.09917Z" fill="#4b5bd4"/><path d="M267.66924,170.2952c.27854.16553.22355.42522.19181.67836C267.60769,170.80092,267.66222,170.54135,267.66924,170.2952Z" fill="#4b5bd4"/><path d="M188.99688,171.18594c.28093.17877.20389.45354.191.71112C188.92948,171.71225,188.98834,171.44235,188.99688,171.18594Z" fill="#4b5bd4"/><path d="M267.90006,171.20085c.28569.16563.20764.42941.18339.67867C267.83066,171.705,267.88709,171.44707,267.90006,171.20085Z" fill="#4b5bd4"/><path d="M189.61928,174.36911a1.60619,1.60619,0,0,0-.18691-.03849l.0251-.67211C189.75576,173.83982,189.61029,174.122,189.61928,174.36911Z" fill="#4b5bd4"/><path d="M267.86121,180.31547c.0217.2456.10642.508-.17957.67149C267.66233,180.742,267.61056,180.48835,267.86121,180.31547Z" fill="#4b5bd4"/><path d="M267.639,181.40753c.01378.259.09169.53526-.19178.71465C267.4386,181.86452,267.38078,181.59368,267.639,181.40753Z" fill="#4b5bd4"/><path d="M267.41676,182.29583c.00873.25361.10026.52987-.19208.70112C267.21486,182.743,267.16232,182.47745,267.41676,182.29583Z" fill="#4b5bd4"/><path d="M267.23323,182.97819c-.03443.24015.07338.52648-.22172.682C266.99382,183.40313,266.966,183.14277,267.23323,182.97819Z" fill="#4b5bd4"/><path d="M266.97141,183.86449c.01107.25016.09937.522-.19335.68679C266.771,184.30224,266.71168,184.03852,266.97141,183.86449Z" fill="#4b5bd4"/><path d="M266.78772,184.53144c-.04943.23809.06378.53113-.23206.686C266.54144,184.95784,266.50623,184.69114,266.78772,184.53144Z" fill="#4b5bd4"/><path d="M266.56526,185.19749c-.04012.2516.04669.54515-.23705.71624C266.3239,185.64745,266.27471,185.36633,266.56526,185.19749Z" fill="#4b5bd4"/><path d="M232.56907,212.05c-.24412.00413-.51357.10645-.6838-.17605C232.1368,211.84109,232.38844,211.80778,232.56907,212.05Z" fill="#4b5bd4"/><path d="M241.89326,211.64627c-.16553.28841-.43077.20389-.67942.18139C241.38955,211.57734,241.6464,211.63046,241.89326,211.64627Z" fill="#4b5bd4"/><path d="M221.42322,202.53442c-.28665-.1607-.2099-.42067-.1825-.66715C221.48455,202.03968,221.43548,202.29208,221.42322,202.53442Z" fill="#4b5bd4"/><path d="M257.22006,202.29518a.9315.9315,0,0,1-.47283.49534C256.77249,202.49925,256.88472,202.29087,257.22006,202.29518Z" fill="#4b5bd4"/><path d="M231.42922,211.82753c-.24417.02275-.50374.10179-.66418-.18147C231.00786,211.62825,231.25889,211.58043,231.42922,211.82753Z" fill="#4b5bd4"/><path d="M165.158,162.779c.17493-.28185.46971-.20324.72579-.241C165.71285,162.83182,165.426,162.777,165.158,162.779Z" fill="#4b5bd4"/><path d="M254.59418,204.94138a.922.922,0,0,1-.49447.4722C254.09439,205.07828,254.30434,204.96805,254.59418,204.94138Z" fill="#4b5bd4"/><path d="M162.77655,211.64571c-.1706.28239-.44084.19042-.68857.183C162.26736,211.57931,162.52521,211.62474,162.77655,211.64571Z" fill="#4b5bd4"/><path d="M151.88073,211.8281c-.25038.01182-.51936.09176-.69022-.188C151.44119,211.62719,151.7032,211.57279,151.88073,211.8281Z" fill="#4b5bd4"/><path d="M243.02422,211.41375c-.17987.28363-.45669.2056-.7163.19176C242.49448,211.34689,242.76606,211.40536,243.02422,211.41375Z" fill="#4b5bd4"/><path d="M230.52886,211.605c-.25009.03129-.50735.08793-.66985-.18965C230.10146,211.41094,230.36036,211.34853,230.52886,211.605Z" fill="#4b5bd4"/><path d="M163.89392,211.41371c-.1776.30034-.46154.20027-.72129.1913C163.36173,211.348,163.63423,211.40494,163.89392,211.41371Z" fill="#4b5bd4"/><path d="M150.99176,211.60605c-.25932.01719-.53178.08154-.70877-.197C150.53906,211.40353,150.80921,211.34745,150.99176,211.60605Z" fill="#4b5bd4"/><path d="M164.55806,211.19966c-.156.29456-.44238.18963-.68366.22287C164.03911,211.15473,164.30048,211.183,164.55806,211.19966Z" fill="#4b5bd4"/><path d="M244.59573,210.96167c-.17689.27414-.44682.2188-.70665.19925C244.069,210.89742,244.34179,210.963,244.59573,210.96167Z" fill="#4b5bd4"/><path d="M165.44892,210.96725c-.16129.29144-.43116.20414-.67881.19434C164.942,210.907,165.20127,210.95745,165.44892,210.96725Z" fill="#4b5bd4"/><path d="M166.14788,210.7394c-.17227.28312-.46606.19883-.71918.2375C165.59822,210.68545,165.88077,210.73574,166.14788,210.7394Z" fill="#4b5bd4"/><path d="M170.764,208.57128c.18235-.03523.38618-.11789.41418.18744l-.32707.1029Z" fill="#1b1819"/><path d="M252.77571,206.5148c-.06063.24136-.2909.21636-.45769.29106A.38532.38532,0,0,1,252.77571,206.5148Z" fill="#4b5bd4"/><path d="M258.61335,200.51488c-.07431.16694-.05065.39621-.29137.45726A.38532.38532,0,0,1,258.61335,200.51488Z" fill="#4b5bd4"/><path d="M253.03992,206.275a.39674.39674,0,0,1-.27349.24885A.28506.28506,0,0,1,253.03992,206.275Z" fill="#4b5bd4"/><path d="M258.331,200.96277a.3966.3966,0,0,1-.24894.27281A.2854.2854,0,0,1,258.331,200.96277Z" fill="#4b5bd4"/><path d="M130.72587,141.6245H115.04256c2.28273-3.98994,4.497-7.86012,6.793-11.87333h-8.0166l-6.8392,11.88723H91.16712c.72868-1.29392,1.40027-2.5085,2.09234-3.71131Q96.535,132.23423,99.822,126.548q2.754-4.78392,5.4964-9.57453c1.87057-3.25242,3.7335-6.50933,5.62367-9.75035,2.05674-3.52662,3.923-7.16832,6.19612-10.56369a19.2175,19.2175,0,0,1,7.85661-6.59975,30.08523,30.08523,0,0,1,14.96-2.7676,22.31138,22.31138,0,0,1,10.24779,2.73274,8.24548,8.24548,0,0,1,3.58917,11.50385c-1.52287,2.98255-3.29665,5.82679-4.96914,8.7268q-2.75835,4.78284-5.51179,9.56851-2.67245,4.6371-5.347,9.273-2.80944,4.87745-5.61557,9.7568C131.80086,139.80323,131.241,140.74554,130.72587,141.6245Zm-1.44146-24.85274c1.873-3.26827,3.71185-6.466,5.538-9.67087a20.25421,20.25421,0,0,0,1.32423-2.42548c.63408-1.5792.11821-2.61638-1.56118-2.90233a5.60566,5.60566,0,0,0-6.22287,2.76569c-2.0694,3.61958-4.152,7.23162-6.20972,10.85782-.24046.42376-.6477.79374-.63189,1.37517Z" fill="#e30024"/><path d="M220.81919,143.01691a16.2113,16.2113,0,0,1-6.27261-1.0309,9.07941,9.07941,0,0,1-6.01345-8.01588c-.48431-4.05372.534-7.88005,1.88708-11.63191a42.39215,42.39215,0,0,1,4.51591-9.05026,39.85841,39.85841,0,0,1,4.00391-5.12024,31.33856,31.33856,0,0,1,6.69157-5.52846,24.10491,24.10491,0,0,1,9.69708-3.43749,17.26949,17.26949,0,0,1,8.06857.70576,9.547,9.547,0,0,1,6.51561,8.02888c.6451,3.9506-.26288,7.68884-1.59432,11.33921a48.76844,48.76844,0,0,1-6.08087,11.84088,29.89691,29.89691,0,0,1-9.872,9.0097,23.54081,23.54081,0,0,1-8.4576,2.71228A26.87062,26.87062,0,0,1,220.81919,143.01691Zm4.443-13.57095a4.9005,4.9005,0,0,0,3.26524-1.89791,37.681,37.681,0,0,0,4.99741-7.94518,20.26465,20.26465,0,0,0,2.21247-5.40209,1.92455,1.92455,0,0,0-2.5602-2.43309,4.5927,4.5927,0,0,0-1.10979.48968,10.568,10.568,0,0,0-2.95616,2.802,41.31818,41.31818,0,0,0-4.35577,7.17942,15.95323,15.95323,0,0,0-1.70482,4.77609C222.82888,128.4812,223.59272,129.418,225.2622,129.446Z" fill="#e30024"/><path d="M157.14764,101.30141h14.6145c-.92335,1.61717-1.78468,3.14254-2.66193,4.65872q-3.03926,5.25288-6.09087,10.49863-3.10176,5.34306-6.20429,10.68566a3.63723,3.63723,0,0,0-.65683,2.49687,3.36433,3.36433,0,0,0,4.73349.39566,6.73886,6.73886,0,0,0,1.58176-2.11077c2.8098-4.96573,5.5724-9.9581,8.36882-14.93143,2.20023-3.91307,4.4269-7.8113,6.64158-11.71574h14.43757a13.2903,13.2903,0,0,1-1.073,2.0594q-3.25457,5.70557-6.52421,11.40255-4.20085,7.32256-8.41359,14.63831a55.93794,55.93794,0,0,1-3.55486,5.84113,18.19025,18.19025,0,0,1-8.17122,6.0055,26.50571,26.50571,0,0,1-10.06053,1.74915,21.817,21.817,0,0,1-10.3378-2.3858,9.27617,9.27617,0,0,1-3.31116-2.85383,5.93789,5.93789,0,0,1-.51406-6.2897c1.09435-2.2066,2.36522-4.327,3.589-6.468,1.84331-3.22489,3.71534-6.43338,5.57053-9.6515q3.2791-5.68811,6.54928-11.38134C156.15428,103.08422,156.63393,102.21507,157.14764,101.30141Z" fill="#e30024"/><path d="M198.99376,95.23717h15.70859c-1.14546,2.01924-2.222,3.91694-3.37776,5.95445h8.04432c-2.27966,3.99086-4.45241,7.79452-6.63383,11.6134h-8.10692q-1.76321,3.0575-3.52213,6.10784-2.83678,4.922-5.677,9.842a1.97771,1.97771,0,0,0-.36529,1.68423c.282.52924.7878.55929,1.32614.55654q2.72124-.01392,5.44257.00069a2.83355,2.83355,0,0,1,1.19941.11105c-2.01426,3.52189-4.01545,7.0209-6.04832,10.57531-3.1166,0-6.22126-.00807-9.32583.00543a8.9566,8.9566,0,0,1-2.39055-.36712,8.70029,8.70029,0,0,1-5.16022-4.3973c-1.9047-3.206-1.50787-6.33536.3652-9.46155,2.3056-3.84812,4.48525-7.77153,6.72489-11.65921q5.06772-8.7968,10.14083-17.59047C197.906,97.22581,198.446,96.22307,198.99376,95.23717Z" fill="#e30024"/><path d="M132.73287,144.72283c-.29521.51983-.79164.25428-1.18026.255q-15.32775.02673-30.65556.01233c-4.88642-.0029-9.77283-.02539-14.65924-.039.39546-.30876.8578-.1657,1.28758-.16594q21.88357-.01213,43.76716-.00906C131.77265,144.776,132.25277,144.74137,132.73287,144.72283Z" fill="#4b5bd4"/><path d="M199.04,144.75724c-.19323.32577-.5172.231-.79844.23145q-5.38287.00778-10.7657-.00112c-.24256-.00043-.52731.09795-.70362-.183Z" fill="#4b5bd4"/><path d="M222.99388,146.13615a9.28787,9.28787,0,0,1-4.22272.0002Z" fill="#4b5bd4"/><path d="M253.23866,109.02784a4.54293,4.54293,0,0,1-.00108,2.89088Q253.23811,110.47328,253.23866,109.02784Z" fill="#4b5bd4"/><path d="M240.55271,138.114a1.92592,1.92592,0,0,1-1.1258.95763A1.5982,1.5982,0,0,1,240.55271,138.114Z" fill="#4b5bd4"/><path d="M242.39157,136.10914a1.93427,1.93427,0,0,1-.95946,1.12562A1.5802,1.5802,0,0,1,242.39157,136.10914Z" fill="#4b5bd4"/><path d="M205.41645,134.78847c-.24257-.01819-.10614-.47486-.44378-.38306.01759-.25645.0137-.52658.371-.57655A1.93476,1.93476,0,0,1,205.41645,134.78847Z" fill="#4b5bd4"/><path d="M253.19349,112.83847c-.00333.44534.17187.91577-.18447,1.31154C253.02646,113.70664,252.86952,113.23878,253.19349,112.83847Z" fill="#4b5bd4"/><path d="M158.09509,145.91625c-.40491.33944-.87626.17489-1.326.17458C157.17679,145.77237,157.64606,145.921,158.09509,145.91625Z" fill="#4b5bd4"/><path d="M151.87508,146.09083c-.44989-.00013-.92181.16718-1.32683-.17422C150.99761,145.92086,151.467,145.77238,151.87508,146.09083Z" fill="#4b5bd4"/><path d="M224.99359,145.91439c-.311.34893-.70864.17181-1.07624.17691C224.23505,145.783,224.62667,145.92373,224.99359,145.91439Z" fill="#4b5bd4"/><path d="M217.861,146.09128c-.373-.00569-.77625.17293-1.09252-.17888C217.1409,145.922,217.53818,145.7797,217.861,146.09128Z" fill="#4b5bd4"/><path d="M147.61863,145.42388c-.30525.00961-.63626.13594-.86718-.19116C147.05188,145.24491,147.37974,145.1329,147.61863,145.42388Z" fill="#4b5bd4"/><path d="M162.12554,145.23447c-.23728.3187-.56847.20288-.87755.18939C161.49063,145.13,161.82217,145.24739,162.12554,145.23447Z" fill="#4b5bd4"/><path d="M185.86459,144.75826c-.308.00781-.64137.13876-.88172-.18154C185.28885,144.57874,185.61812,144.46769,185.86459,144.75826Z" fill="#4b5bd4"/><path d="M160.99435,145.46688c-.234.31738-.56145.18635-.863.17936C160.37273,145.36412,160.69378,145.46465,160.99435,145.46688Z" fill="#4b5bd4"/><path d="M210.12144,143.26843a.74536.74536,0,0,1-.68581-.49082A.68616.68616,0,0,1,210.12144,143.26843Z" fill="#4b5bd4"/><path d="M149.87365,145.86861c-.31027.008-.6456.13968-.8896-.1798C149.29251,145.68981,149.62429,145.57559,149.87365,145.86861Z" fill="#4b5bd4"/><path d="M159.88679,145.68705c-.25013.33032-.60038.15975-.91207.18205C159.23041,145.56661,159.57063,145.687,159.88679,145.68705Z" fill="#4b5bd4"/><path d="M140.78708,142.6038a.89623.89623,0,0,1-.73542-.513A.74723.74723,0,0,1,140.78708,142.6038Z" fill="#4b5bd4"/><path d="M171.25264,140.98152a.85168.85168,0,0,1-.72392.50793A.77138.77138,0,0,1,171.25264,140.98152Z" fill="#4b5bd4"/><path d="M237.70744,140.537a.88659.88659,0,0,1-.73295.51319A.74671.74671,0,0,1,237.70744,140.537Z" fill="#4b5bd4"/><path d="M172.14972,140.31327a.87961.87961,0,0,1-.73473.50876A.73371.73371,0,0,1,172.14972,140.31327Z" fill="#4b5bd4"/><path d="M178.79729,140.8358a.88869.88869,0,0,1-.51145-.73611A.7311.7311,0,0,1,178.79729,140.8358Z" fill="#4b5bd4"/><path d="M174.6024,137.66708a.81153.81153,0,0,1-.50927.67774A.685.685,0,0,1,174.6024,137.66708Z" fill="#4b5bd4"/><path d="M136.981,138.1447l-.4571.03566c.02437-.16528-.00015-.35642.22607-.42017C136.994,137.78508,136.96371,137.97957,136.981,138.1447Z" fill="#4b5bd4"/><path d="M253.01265,107.0229c.32563.2481.18567.58949.18133.90371C252.89809,107.67255,253.01157,107.33646,253.01265,107.0229Z" fill="#4b5bd4"/><path d="M175.47656,136.54554a.88938.88938,0,0,1-.514.73231A.74652.74652,0,0,1,175.47656,136.54554Z" fill="#4b5bd4"/><path d="M252.971,114.39733c.00735.29824.1548.62581-.17878.85267C252.79242,114.95334,252.69,114.63519,252.971,114.39733Z" fill="#4b5bd4"/><path d="M244.36868,133.66275a.86577.86577,0,0,1-.51057.72844A.76779.76779,0,0,1,244.36868,133.66275Z" fill="#4b5bd4"/><path d="M245.03834,132.77321a.87759.87759,0,0,1-.51375.72848A.76734.76734,0,0,1,245.03834,132.77321Z" fill="#4b5bd4"/><path d="M252.30459,117.46792c.01479.2548.08364.52462-.19424.69811C252.1062,117.91418,252.04679,117.647,252.30459,117.46792Z" fill="#4b5bd4"/><path d="M252.78469,105.90257c.28.172.19668.44209.18716.69226C252.72067,106.41505,252.76993,106.15415,252.78469,105.90257Z" fill="#4b5bd4"/><path d="M252.749,115.69145c.00838.244.09525.50925-.18282.67591C252.55068,116.1214,252.49468,115.86452,252.749,115.69145Z" fill="#4b5bd4"/><path d="M252.555,105.01666c.29253.16631.203.43952.19346.69035C252.49192,105.53063,252.54772,105.26686,252.555,105.01666Z" fill="#4b5bd4"/><path d="M252.31951,104.30554l.234.058.011.67287C252.26911,104.86435,252.32828,104.57358,252.31951,104.30554Z" fill="#4b5bd4"/><path d="M252.52651,116.59717c.02647.24564.098.50376-.18434.66375C252.33338,117.0202,252.27461,116.76561,252.52651,116.59717Z" fill="#4b5bd4"/><path d="M226.3341,145.68846c-.1689.27983-.43685.18775-.682.18137C225.82922,145.62078,226.08516,145.66773,226.3341,145.68846Z" fill="#4b5bd4"/><path d="M216.3288,145.86942c-.24742.02307-.51064.105-.67512-.18095C215.89893,145.67347,216.15464,145.61957,216.3288,145.86942Z" fill="#4b5bd4"/><path d="M227.453,145.46226c-.17116.2799-.44082.19413-.68968.18549C226.94213,145.39645,227.20258,145.44807,227.453,145.46226Z" fill="#4b5bd4"/><path d="M215.404,145.64655c-.23855.03021-.48772.098-.63927-.18013C214.99765,145.456,215.24326,145.40083,215.404,145.64655Z" fill="#4b5bd4"/><path d="M148.54188,145.6466c-.24509.02208-.50613.10334-.66909-.17981C148.11619,145.451,148.37033,145.39536,148.54188,145.6466Z" fill="#4b5bd4"/><path d="M228.35486,145.234c-.17152.27606-.43934.20472-.69111.1913C227.84107,145.17014,228.10425,145.22474,228.35486,145.234Z" fill="#4b5bd4"/><path d="M243.21922,135.2266a.91971.91971,0,0,1-.47185.493C242.77521,135.43158,242.8902,135.22682,243.21922,135.2266Z" fill="#4b5bd4"/><path d="M214.52616,145.42463c-.24108.00885-.50382.09134-.65862-.19333C214.10854,145.22274,214.36221,145.17108,214.52616,145.42463Z" fill="#4b5bd4"/><path d="M213.88735,145.24076c-.26344-.0335-.55917.02914-.74062-.24843C213.418,145.00259,213.71222,144.94437,213.88735,145.24076Z" fill="#4b5bd4"/><path d="M163.02272,145.008c-.18036.28112-.45646.2095-.71722.19443C162.4919,144.9436,162.76475,145.0032,163.02272,145.008Z" fill="#4b5bd4"/><path d="M146.77,145.24119c-.23868-.035-.52338.07153-.67845-.22043C146.3472,145.00358,146.60637,144.97557,146.77,145.24119Z" fill="#4b5bd4"/><path d="M205.64466,136.13044c-.27818-.16877-.18882-.43579-.18224-.68068C205.71252,135.626,205.66261,135.8825,205.64466,136.13044Z" fill="#4b5bd4"/><path d="M205.87374,137.03215c-.27722-.16216-.21756-.41923-.18839-.6677C205.939,136.53325,205.87909,136.79038,205.87374,137.03215Z" fill="#4b5bd4"/><path d="M138.10709,140.12155c-.23917-.06605-.22152-.28114-.267-.45956A.39782.39782,0,0,1,138.10709,140.12155Z" fill="#4b5bd4"/><path d="M238.55241,139.89026c-.061.24027-.28963.21669-.45685.28974A.38658.38658,0,0,1,238.55241,139.89026Z" fill="#4b5bd4"/><path d="M243.50022,134.77938c-.07291.16744-.05.39569-.29028.45691A.38594.38594,0,0,1,243.50022,134.77938Z" fill="#4b5bd4"/><path d="M181.00134,142.84264c-.16819-.07053-.39437-.04925-.45632-.28791A.38621.38621,0,0,1,181.00134,142.84264Z" fill="#4b5bd4"/><path d="M174.10229,138.33561a.38659.38659,0,0,1-.24809.26866A.28665.28665,0,0,1,174.10229,138.33561Z" fill="#4b5bd4"/><path d="M240.77431,137.892a.26846.26846,0,0,1-.23073.23077A.22813.22813,0,0,1,240.77431,137.892Z" fill="#4b5bd4"/><path d="M240.99646,137.66984a.269.269,0,0,1-.23072.23077A.22831.22831,0,0,1,240.99646,137.66984Z" fill="#4b5bd4"/><path d="M241.21864,137.44771a.26928.26928,0,0,1-.23074.23071A.22841.22841,0,0,1,241.21864,137.44771Z" fill="#4b5bd4"/><path d="M238.81717,139.65065a.4012.4012,0,0,1-.27413.24871A.28448.28448,0,0,1,238.81717,139.65065Z" fill="#4b5bd4"/><path d="M138.34555,140.37891a.38122.38122,0,0,1-.24768-.26681A.28757.28757,0,0,1,138.34555,140.37891Z" fill="#4b5bd4"/><path d="M180.5545,142.56392a.39928.39928,0,0,1-.27225-.24854A.28443.28443,0,0,1,180.5545,142.56392Z" fill="#4b5bd4"/><path d="M209.2387,142.76159l-.06983-.22473a.28143.28143,0,0,1,.27613.24876A1.81874,1.81874,0,0,1,209.2387,142.76159Z" fill="#4b5bd4"/><path d="M241.44087,137.22561a.2694.2694,0,0,1-.23077.23067A.22846.22846,0,0,1,241.44087,137.22561Z" fill="#4b5bd4"/><path d="M159.3367,194.45806c-.54011-1.74762.05832-3.23925.66775-4.68465a41.34351,41.34351,0,0,1,5.59721-9.58245,8.05914,8.05914,0,0,1,3.03583-2.52814,2.70281,2.70281,0,0,1,3.1305.55678,5.98758,5.98758,0,0,1-.669,4.16129,56.7144,56.7144,0,0,1-5.68762,10.06463,6.833,6.833,0,0,1-3.0041,2.52243A2.64478,2.64478,0,0,1,159.3367,194.45806Z" fill="#fff"/><path d="M241.68965,184.41421c-.04057-.857.51633-1.31333.82681-1.87319a15.69516,15.69516,0,0,1,2.88713-3.74251,3.94219,3.94219,0,0,1,3.87573-1.26825,2.04191,2.04191,0,0,1,.75288.74758c.43732,2.26574-.69241,4.16384-1.57883,6.13637Z" fill="#fff"/><path d="M129.28441,116.77176h-7.76347c-.01581-.58143.39143-.95141.63189-1.37517,2.05769-3.6262,4.14032-7.23824,6.20972-10.85782a5.60566,5.60566,0,0,1,6.22287-2.76569c1.67939.286,2.19526,1.32313,1.56118,2.90233a20.25421,20.25421,0,0,1-1.32423,2.42548C132.99626,110.30581,131.15744,113.50349,129.28441,116.77176Z" fill="#fff"/><path d="M225.2622,129.446c-1.66948-.028-2.43332-.96476-2.21162-2.43112a15.95323,15.95323,0,0,1,1.70482-4.77609,41.31818,41.31818,0,0,1,4.35577-7.17942,10.568,10.568,0,0,1,2.95616-2.802,4.5927,4.5927,0,0,1,1.10979-.48968,1.92455,1.92455,0,0,1,2.5602,2.43309,20.26465,20.26465,0,0,1-2.21247,5.40209,37.681,37.681,0,0,1-4.99741,7.94518A4.9005,4.9005,0,0,1,225.2622,129.446Z" fill="#fff"/><path d="M272.80356,160.98439l-.90992-.16519c-.19943-.30922-.42186-.646-.63569-.98811-.19557-.31294-.38183-.63172-.57494-.95252a.77708.77708,0,0,0-.8844.00649v1.72644c-.22769.32551-.45107.281-.73722.23924V155.9464a9.02638,9.02638,0,0,1,1.91692-.05367c1.01725.00654,1.448.29,1.62778.99628.21215.83336-.04959,1.30443-1.05628,1.8359.25305.84027,1.00224,1.42944,1.22768,2.28475Zm-2.95248-2.97817c1.54512.12461,1.6439.08185,1.98062-.85541-.46564-.81643-1.23957-.55536-1.95081-.56819A2.603,2.603,0,0,0,269.85108,158.00622Z" fill="#1e1b1c"/></svg>