<?xml version="1.0" encoding="utf-8"?>
<!-- Generator: Adobe Illustrator 24.0.1, SVG Export Plug-In . SVG Version: 6.00 Build 0)  -->
<svg version="1.1" id="Layer_1" xmlns="http://www.w3.org/2000/svg" xmlns:xlink="http://www.w3.org/1999/xlink" x="0px" y="0px"
	 viewBox="0 0 300 300" style="enable-background:new 0 0 300 300;" xml:space="preserve">
<style type="text/css">
	.st0{fill:#FFFFFF;}
</style>
<title>BA-Light_bg</title>
<g>
	<path class="st0" d="M105.6,196c-11.9,0-23.4-3.9-32.7-11.3c10.5-23.6,31.8-55.4,60.9-86.4c22.6,14.2,31.1,43.1,19.7,67.3
		c-9.2-4.1-17.7-9.6-25.1-16.4l15.9,29.9C134.3,190,120.3,196.1,105.6,196 M52.7,143.1c0-29.2,23.7-52.9,53-52.9
		c7.6,0,15,1.6,21.9,4.7c-28.7,25.4-50.9,54.8-64,80.3C56.5,166,52.7,154.7,52.7,143.1 M160.2,168.5c12.5-27,3.5-59-21.3-75.5
		c9.7-9.9,20.1-19.7,31.2-29.1c-12.9,7.6-25.1,16.3-36.5,25.9c-29.4-15.4-65.8-4-81.2,25.4C41,137,44,163.7,60.1,182.4
		c-11.5,24.9-13.5,44.9-3.4,51.7c10.9,7.3,34.5-5.8,48.7-27.3c0,0-21.9,19.8-34,15.3c-7.4-2.8-7.4-14.2-1.3-30.4
		c23.8,17.5,56.8,15,77.8-5.7l2.1,4c26.3-2.1,104.5-4.2,104.5-4.2C254.6,182,202.8,185.4,160.2,168.5"/>
</g>
</svg>
