<svg xmlns="http://www.w3.org/2000/svg" xmlns:xlink="http://www.w3.org/1999/xlink" viewBox="0 0 300 300"><defs><linearGradient id="linear-gradient" x1="150" y1="55.94316" x2="150" y2="242.17588" gradientUnits="userSpaceOnUse"><stop offset="0" stop-color="#07e9ff"/><stop offset="1" stop-color="#0277ff"/></linearGradient></defs><g id="svg2"><rect x="55" y="54.99663" width="190" height="190.00673" fill="url(#linear-gradient)"/><path id="path5126" d="M59.94242,190.50006c5.32-9.461,8.57018-15.46094,14.043-24.03825,16.34482-24.55075,19.04637-32.6898,36.75011-55.46894,1.88034-1.79359,9.11339-11.32478,10.898-12.739-10.38022-.88782-22.26331,3.25225-25.83023,4.60366-14.139,6.78372-21.81792,16.34115-23.1806,19.08471-1.85621,3.15995-2.74748,7.66785-1.33874,10.41532.893,1.85988,3.147,4.51159,8.1503,4.51159-2.7715,3.25571-5.89634,3.25571-9.11155,3.25571-5.37892,0-8.14849-3.25571-9.5572-6.35306-1.29455-3.69029-.37761-8.22352.96123-11.3913,4.55394-10.87569,19.04625-19.523,26.37163-22.267,14.045-5.02351,21.30057-6.8171,37.19966-5.83721a49.21021,49.21021,0,0,1,9.581-7.32557,14.81755,14.81755,0,0,1,10.89768-2.30184c2.696.44564,3.1434,2.74747,2.696,4.58525-.44195,1.34427-1.429,2.23186-2.696,3.624-.51746-1.83778-2.3292-4.5079-5.96808-3.18205-1.80646.90232-3.59267,2.29815-8.14835,5.86,4.0602,1.09337,6.92942,2.37549,8.73588,4.03649a11.69616,11.69616,0,0,1,2.60926,3.285,15.30924,15.30924,0,0,1-1.40852,15.90289c-2.25416,2.718-7.70481,10.84967-24.072,13.59714,4.10855,2.7401,11.36378,6.80974,8.22031,19.08517-.89486,4.51182-5.89638,17.763-18.60052,24.03825a19.03638,19.03638,0,0,1-15.89932,0c-3.147-1.3254-5.47293-4.06964-7.32718-6.27525l3.66451-8.23181c-.37566,1.41793-1.81027,3.62815-1.3628,4.97978,1.87843,3.252,7.77869,4.45243,11.85936,4.64786a11.85619,11.85619,0,0,0,7.655-2.28c8.3859-5.99926,16.51045-23.36427,11.79065-29.15429-1.81178-2.84323-4.46188-4.06964-8.126-4.50768-3.14721,0-6.26677.36047-9.11193,2.74033l5.4473-9.55352c-.37566,1.32171.22635,1.55028.51742,1.76366,1.521,1.1454,6.81135,1.35164,11.27323,0,12.32882-4.06181,20.02986-18.10528,18.691-24.47674-.42907-1.52842-1.80651-4.58111-8.14677-6.34523-1.85587,1.32539-8.22032,9.531-13.66919,17.73284-7.70285,11.32547-15.84939,23.97265-22.709,38.10727-5.91855,10.87961-8.66419,18.20518-13.59553,29.94268l-18.15313,5.92905Z" fill="#fff"/><path d="M227.429,138.7298c-13.15307.94813-18.62676-6.13272-18.109-12.0301l.03362-.28241c2.25945-1.79543,5.68219-6.03861,8.14337-8.63425a149.6579,149.6579,0,0,0,12.2587-14.92834,67.26842,67.26842,0,0,0,8.0761-14.94849c1.03555-3.18739,1.40539-6.36806.14123-7.32965-2.84448-2.29307-9.55549,1.123-11.88218,3.19412a49.56193,49.56193,0,0,0-10.89365,12.2049,108.33029,108.33029,0,0,0-8.60059,16.40773,61.20789,61.20789,0,0,0-5.44681,17.2281c-7.32969,8.23075-10.02621,9.99929-14.06763,10.665-5.65526,1.10282-6.63032-1.68785-6.40167-5.15766l.00673-.04035c3.04617-2.86463,4.98282-4.99628,6.321-6.3479a129.688,129.688,0,0,0,14.14159-18.62007,125.23277,125.23277,0,0,0,8.19714-14.57193c2.25268-4.96266,1.80888-7.70626,1.80888-8.14332-.51779-2.7436-2.77048-3.18744-4.55921-2.7436-5.44681.88763-13.59687,10.88692-20.476,20.48272a120.94912,120.94912,0,0,0-11.27692,21.31659,38.82548,38.82548,0,0,0-2.76379,11.39126c-2.77048,3.16051-9.11165,9.5353-11.36433,8.1366-2.23253-1.3449,6.36132-19.965,9.1318-25.89592l-7.32965.94814c-.89436,1.78869-2.0913,3.76568-2.0913,3.76568l-.11435.24212c-.901-2.23926-2.66959-3.026-5.11731-3.09329-4.04142-.23534-8.73508,3.53035-13.90621,9.89845-3.806,4.74748-10.6852,15.45956-11.4316,22.34541-.5178,4.6466.37657,6.43533,1.35835,7.249,1.64747,1.46593,6.57652,2.51494,10.89362-.90783a37.06805,37.06805,0,0,0,8.22406-9.08477c0,1.76181.82036,4.5054,1.708,5.01647,5.003,4.0683,16.44135-8.64766,20.48276-13.66414.84729,2.19892,1.5937,3.74554,3.66485,4.808,4.8349,2.5351,11.714-1.62735,16.81118-5.25854a91.92311,91.92311,0,0,0,8.59386-7.68607,12.85633,12.85633,0,0,0,4.10864,5.01643c2.70325,2.11149,4.46506,2.23253,8.21733,3.12016-5.53423,2.06442-30.47532,9.52857-40.50149,13.15307a671.56072,671.56072,0,0,0-62.68557,29.15731C90.87509,195.67937,62.8273,214.871,55,221.75685v23.24652h.269a327.67842,327.67842,0,0,1,33.72321-30.90566c17.57105-14.28282,27.98725-21.942,47.6698-33.1315,21.21571-12.057,44.45549-20.43568,57.158-25.45215,13.227-4.51883,18.29731-5.99822,31.37642-9.90514,7.9416-2.32,12.3192-3.49,19.80354-5.38631v-5.467C238.96144,136.46365,232.98337,138.30615,227.429,138.7298Zm-17.21464-18.94957c.464-3.55727,2.7234-10.14051,5.93772-16.04462,3.15378-5.48042,10.83312-16.78426,14.0474-15.38556,2.25272.36984-.4438,5.62165-2.32665,9.0175-5.07027,8.95027-12.521,18.71422-17.69882,22.70183Zm-20.429-11.45853c6.33444-10.51031,11.80817-15.02245,13.14633-14.04739,1.78874,1.2642-1.33816,7.22881-2.69652,9.91187-5.9646,10.05978-11.34418,18.19642-18.15608,23.66342C181.6353,124.66221,186.56435,113.271,189.78536,108.3217Zm-32.24387,22.43288c-.5581,3.42946-3.3555,9.65633-6.54289,14.35a16.19235,16.19235,0,0,1-3.42947,3.8935c-2.5486,2.19888-5.25854,2.99909-6.34791,1.56-1.86942-2.14511-.20176-7.20188,2.91167-11.93594a51.45687,51.45687,0,0,1,5.0837-6.442,22.14561,22.14561,0,0,1,3.59762-3.1067c1.49281-1.03559,2.99909-1.51974,4.22968-.78679C157.62892,128.51532,157.75668,129.41637,157.54149,130.75458Z" fill="#fff" fill-rule="evenodd"/></g></svg>