<svg id="Layer_1" data-name="Layer 1" xmlns="http://www.w3.org/2000/svg" viewBox="0 0 300 300"><defs><style>.cls-1{fill:#fff;fill-rule:evenodd;}</style></defs><title>BAX_Dark_bg</title><g id="layer1"><g id="g6"><path id="path8" class="cls-1" d="M172.62,135.25c4.69-.79,9.87-.52,14.74-1.07,0,2-1,4-1.42,6l.46.29,11.83-.08-1.31,5-12.26.19c-1.68,5-3,10.15-4.4,15.24,0,1.31,1.05,2.06,2.13,2.63,3.73,0,8.11.57,11.39-.72l-1.55,5.69-20.37.17a8.06,8.06,0,0,1-6.17-5.58l.12-3.66C168.19,151.38,170.33,143.26,172.62,135.25ZM125.37,141a179.27,179.27,0,0,1,10.16,15.9c-5.74,4.09-11.56,8-17.36,11.85v.3l9.55-.16,10.8-7.27a28.42,28.42,0,0,1,4.06,7.2l18.34-.19c-.39-.1-.72-.57-1-.8L151,153.2l18.12-12.35v-.29l-10.94.35c-2.72,3.36-6.86,5-10.29,7.5-1.51-2.46-3.57-4.67-3.94-7.56Zm118.52-.75.22,1.41-6.57,24.2-1.6,2.39h17.34l-.36-1.93,4.25-16.36a3.47,3.47,0,0,1,1.91-2.33c3.61,0,9-1.16,12.29.8l2.13-8.13c-5.43.85-12.76-2.45-15.88,3.27-.52-.94-.23-2.18-.31-3.31ZM72.79,130.5l-34.92.14.06,2.73L29,165,26.5,169.5l37.32,0c3.37.08,6.27-1,7.8-3.65,1.12-3.92,3.14-7.61,2.68-12a8.32,8.32,0,0,0-3.43-4.3,9.84,9.84,0,0,0,4.39-2.21c2.65-3.35,3.46-7.56,3.57-11.69C78.23,133.12,75.53,130.93,72.79,130.5ZM53.89,137l9.16.08c1.27.69.81,2.47.52,3.41-.81,1.91-.75,4.45-2.63,5.72l-10.5.05ZM48.6,152.62l9.73,0c1.35.57,1,2.4.64,3.41-1.23,2.21.18,5.61-2.44,6.84H45.94C46.39,159.44,47.71,156,48.6,152.62Zm65.51-11.47-30.63.1-2.16,5.17c7.38-1.07,15.36-.36,22.75-.55a1.93,1.93,0,0,1,1.05,1.58c-.3.88-.21,2.07-1.29,2.56l-20.16.45-3.51,1.63c-2.86,2.95-3.48,6.74-3.73,10.7a7.43,7.43,0,0,0,3.91,5.61c4.69,1.4,11.27.71,16.82.55,1.28-.32,2.11-1.58,2.72-2.59A14.7,14.7,0,0,1,101,169l14.41.07-.46-1.94,4.25-15.66c.67-2,1.31-4.86-.13-6.67a8.74,8.74,0,0,0-4.93-3.65Zm-11.37,14.37-2.14,7.59-.93.72-7.28.12c-3.13-1.72-.09-5.19.18-7.68l1.18-.73Zm131.17-15-27.64-.14a8.43,8.43,0,0,0-5.26,3.38A133.81,133.81,0,0,0,196.23,162a8,8,0,0,0,6,6.41l30.36-.08,2.36-5.84-1.51.63-20.81.15-1.08-.5c-1.68-1.93.31-3.9.53-5.87l25-.39c.69-4,3.46-7.92,1.42-12.2A7.89,7.89,0,0,0,233.91,140.51Zm-17.68,5.13,6.71-.11a2.37,2.37,0,0,1,1.54,1.39,10.93,10.93,0,0,1-.89,4.09l-9.86.16c.86-1.85.55-4.38,2.5-5.53Z"/></g></g></svg>