<svg id="Layer_1" data-name="Layer 1" xmlns="http://www.w3.org/2000/svg" viewBox="0 0 300 300"><path d="M287.78194,144.53321a.845.845,0,0,0,.8126-.8675c0-.53776-.32946-.86749-1.03215-.86749h-1.18591V145.939h.3733v-1.40579h.64787L288.32,145.939h.43918Zm-1.08705-.31848v-1.142h.81254c.38435,0,.75765.10991.75765.5383,0,.4391-.31841.6037-.75765.6037Z" fill="#fff"/><path d="M287.78194,144.53321a.845.845,0,0,0,.8126-.8675c0-.53776-.32946-.86749-1.03215-.86749h-1.18591V145.939h.3733v-1.40579h.64787L288.32,145.939h.43918Zm-1.08705-.31848v-1.142h.81254c.38435,0,.75765.10991.75765.5383,0,.4391-.31841.6037-.75765.6037Z" fill="#fff"/><path d="M287.78194,144.53321a.845.845,0,0,0,.8126-.8675c0-.53776-.32946-.86749-1.03215-.86749h-1.18591V145.939h.3733v-1.40579h.64787L288.32,145.939h.43918Zm-1.08705-.31848v-1.142h.81254c.38435,0,.75765.10991.75765.5383,0,.4391-.31841.6037-.75765.6037Z" fill="#fff"/><path d="M287.34276,141.72216A2.65182,2.65182,0,1,0,290,144.36861,2.6478,2.6478,0,0,0,287.34276,141.72216Zm0,4.97442a2.328,2.328,0,1,1,2.33883-2.328A2.34553,2.34553,0,0,1,287.34276,146.69658Z" fill="#fff"/><path d="M275.65442,148.81154c-4.65581-.59567-5.68442-.92057-5.68442-2.54458,0-2.11137,2.11137-2.59873,4.43927-2.59873,3.19413,0,4.71.704,5.25134,3.19386h2.00313c-.27069-3.19386-2.27375-4.98032-7.25447-4.98032-4.43927,0-6.60472,1.89477-6.60472,4.54765,0,2.70649,1.67822,3.84367,6.44233,4.27688,4.764.48683,5.84687,1.13664,5.84687,2.65234,0,2.27382-2.05728,2.92364-5.089,2.92364-3.898,0-5.35964-.86642-5.73857-3.41046H267.2631c0,3.68122,2.86929,5.25107,7.7417,5.25107,4.81827,0,7.25441-1.84061,7.25441-4.87255,0-2.97725-1.94892-3.78952-6.60479-4.4388Z" fill="#fff"/><polygon points="266.884 142.315 263.636 142.315 254.27 149.732 254.27 136.468 252.105 136.468 252.105 157.636 254.27 157.636 254.27 152.168 257.735 149.569 264.556 157.636 267.425 157.636 259.359 148.162 266.884 142.315" fill="#fff"/><path d="M243.22594,145.83375h-.05409V142.315h-2.16558v15.26639h2.16558v-7.7415c0-4.331,2.86929-5.79259,5.19719-5.79259a12.49161,12.49161,0,0,1,2.00313.16246v-2.21967a7.25513,7.25513,0,0,0-1.29936-.10831,5.80175,5.80175,0,0,0-5.84687,3.952Z" fill="#fff"/><path d="M229.14669,141.88676c-5.89647,0-8.70745,3.84314-8.70745,8.11466,0,4.28225,2.811,8.12538,8.70745,8.12538,5.90745,0,8.71843-3.84313,8.71843-8.12538C237.86512,145.7299,235.05414,141.88676,229.14669,141.88676Zm0,14.39568c-4.10666,0-6.48945-2.60248-6.48945-6.281s2.38279-6.28048,6.48945-6.28048c4.11764,0,6.50037,2.60194,6.50037,6.28048C235.64706,153.62527,233.26433,156.28244,229.14669,156.28244Z" fill="#fff"/><polygon points="218.269 136.63 212.368 154.712 212.313 154.712 206.088 136.63 203.381 136.63 197.155 154.712 197.101 154.712 191.308 136.63 188.872 136.63 195.856 157.581 198.4 157.581 204.626 139.716 204.68 139.716 211.014 157.636 213.559 157.636 220.651 136.684 218.269 136.684 218.269 136.63" fill="#fff"/><path d="M177.01559,155.03733l-6.2258-12.72234h-2.38205l7.47094,15.37469-1.02854,2.11137a2.76861,2.76861,0,0,1-3.03174,1.89476c-.59553,0-1.08276-.05362-1.57-.05362v1.84061c.64968.05415,1.4076.05415,2.11136.05415,2.43614,0,3.35651-.64981,4.49336-3.08609l8.33723-18.13587h-2.38206Z" fill="#fff"/><path d="M164.40627,136.46305v8.93765h-.05489a7.00737,7.00737,0,0,0-6.22586-3.51394c-5.74279,0-8.34514,3.84314-8.34514,8.11466,0,3.73323,2.06432,8.12538,8.34514,8.12538a6.56559,6.56559,0,0,0,6.22586-3.52466h.05489V157.633h2.16317v-21.17Zm-6.28075,19.81939c-4.44712,0-6.171-3.25015-6.171-6.281a5.93638,5.93638,0,0,1,6.171-6.28048,6.021,6.021,0,0,1,6.43449,6.28048A6.09048,6.09048,0,0,1,158.12552,156.28244Z" fill="#fff"/><path d="M138.69021,141.88676c-5.90746,0-8.71843,3.84314-8.71843,8.11466,0,4.28225,2.811,8.12538,8.71843,8.12538,5.89646,0,8.70744-3.84313,8.70744-8.12538C147.39765,145.7299,144.58667,141.88676,138.69021,141.88676Zm0,14.39568c-4.11765,0-6.50037-2.60248-6.50037-6.281s2.38272-6.28048,6.50037-6.28048c4.10666,0,6.48938,2.60194,6.48938,6.28048C145.23455,153.62527,142.85175,156.28244,138.69021,156.28244Z" fill="#fff"/><path d="M123.691,146.488v-.05523a4.46167,4.46167,0,0,0,3.62358-4.50206c0-2.97565-1.73492-5.30308-5.84158-5.30308H109.50431v20.95013h11.69414c3.25016,0,6.92863-1.62454,6.92863-6.006A4.94729,4.94729,0,0,0,123.691,146.488Zm-12.02348-7.85141h9.36624c2.38273,0,4.11765.8128,4.11765,3.34934,0,2.82177-1.89959,3.74395-4.82041,3.74395h-8.66348Zm9.15761,16.99816h-9.15761v-7.9061h9.69564c2.54746,0,4.43612.8675,4.43612,3.89783C125.74435,154.49277,123.63607,155.63477,120.82509,155.63477Z" fill="#fff"/><path d="M98.458,153.41617a10.26486,10.26486,0,0,0,1.62507-4.87469H98.08474a8.92171,8.92171,0,0,1-1.142,3.5134l-6.4345-6.06119c2.16311-.92219,4.38117-2.38266,4.38117-5.0838,0-1.95481-1.29568-4.28224-5.13882-4.28224-3.08548,0-5.1498,1.78967-5.1498,4.33693,0,1.94355,1.14193,3.19547,2.65723,4.60072-4.06269,1.735-5.79761,3.34934-5.79761,6.281,0,3.56863,2.60235,6.28048,7.96079,6.28048,3.36,0,6.28075-1.19669,7.79605-3.085l2.75609,2.59122H102.96ZM86.66511,140.90989a2.69071,2.69071,0,0,1,2.92075-2.43788c2.38279,0,3.30511,1.186,3.30511,2.54779,0,1.51517-1.14194,2.70114-3.6894,3.84314C86.87374,142.535,86.66511,141.77739,86.66511,140.90989ZM89.531,156.28244c-4.11764,0-5.90745-2.10815-5.90745-4.32621,0-2.328,1.57018-3.84314,4.87529-5.09505l7.258,6.87347A7.72544,7.72544,0,0,1,89.531,156.28244Z" fill="#fff"/><path d="M68.90269,141.88177c-3.41066,0-5.68441,1.84061-6.3341,3.46462h-.05411v-8.87868H60.349v21.16782h2.16552v-8.283c0-3.46462,1.94891-5.63014,6.22579-5.63014,2.761,0,4.60176,1.08249,4.60176,4.06028v9.85287h2.16545v-9.47381C75.50748,144.53465,73.99165,141.88177,68.90269,141.88177Z" fill="#fff"/><path d="M52.98625,137.55074H50.82073v4.8184H47.46422v1.624h3.35651v10.06947c0,2.49043.75792,3.78952,4.11443,3.78952a18.86734,18.86734,0,0,0,2.38206-.16245v-1.84061a9.57994,9.57994,0,0,1-2.16548.16245c-1.78656,0-2.16549-.59566-2.16549-1.94891V143.99314h4.331v-1.624h-4.331Z" fill="#fff"/><path d="M46.70744,156.00793c-.92231.05469-1.25178-.37316-1.25178-1.62507v-8.00475c0-2.93168-1.88859-4.546-7.02741-4.546-5.25965,0-6.98351,1.94355-7.313,5.139h1.99844c.16473-2.43788,1.78981-3.36006,5.25965-3.36006,3.56863,0,5.08393.8128,5.08393,2.97564,0,1.52642-.593,1.78967-5.35844,2.0095-3.36.1646-7.63138.64767-7.63138,4.76532,0,3.404,3.349,4.60072,5.95135,4.60072,5.04,0,6.50037-2.06419,7.14825-3.03034H43.622c.05488,1.186.16473,2.70114,2.38272,2.70114a15.03445,15.03445,0,0,0,1.83378-.20856v-1.47121A7.83429,7.83429,0,0,1,46.70744,156.00793Zm-3.25015-4.27152c0,3.14024-3.45885,4.71063-6.3906,4.71063-2.38279,0-4.43612-.7029-4.43612-3.08555,0-1.84437,1.46041-2.60249,4.00787-2.82177,4.38117-.42839,5.84158-.5383,6.81885-1.13128Z" fill="#fff"/><path d="M24.18665,146.488v-.05523a4.46167,4.46167,0,0,0,3.62358-4.50206c0-2.97565-1.73492-5.30308-5.84158-5.30308H10v20.95013H21.69414c3.25016,0,6.92863-1.62454,6.92863-6.006A4.86417,4.86417,0,0,0,24.18665,146.488Zm-12.02348-7.85141h9.36624c2.38273,0,4.11765.8128,4.11765,3.34934,0,2.82177-1.89959,3.74395-4.82041,3.74395H12.16317Zm9.20151,16.99816H12.16317v-7.9061h9.69564c2.54746,0,4.43612.8675,4.43612,3.89783C26.29493,154.49277,24.18665,155.63477,21.36468,155.63477Z" fill="#fff"/></svg>