<?xml version="1.0" encoding="utf-8"?>
<!-- Generator: Adobe Illustrator 24.0.1, SVG Export Plug-In . SVG Version: 6.00 Build 0)  -->
<svg version="1.1" id="Layer_1" xmlns="http://www.w3.org/2000/svg" xmlns:xlink="http://www.w3.org/1999/xlink" x="0px" y="0px"
	 viewBox="0 0 300 300" style="enable-background:new 0 0 300 300;" xml:space="preserve">
<style type="text/css">
	.st0{fill:#FFFFFF;}
	.st1{fill:#FFED31;}
</style>
<title>Artboard 78</title>
<g id="layer1" transform="translate(-137.5,-22.390163)">
	<path id="path2998" class="st0" d="M180,111.1v54.2h28.4c11.2,0,21.5-3.9,21.5-15.4c0-7.8-5.6-11.3-11.8-13.2c3.8-1.5,8-4.7,8-11.3
		c0-8.5-8.4-14.3-19.8-14.3L180,111.1L180,111.1z M197.4,123.7h6.4c2.6,0,4.6,2,4.6,4.1c0,1.9-2.1,4-4.6,4h-6.4V123.7L197.4,123.7z
		 M197.4,143.1h8.4c2.9,0,5.4,2.2,5.4,4.8c0,2.7-2.3,5-5.9,5h-7.9V143.1L197.4,143.1z"/>
	<path id="path3005" class="st0" d="M194.1,171.3v54.2h28.4c11.2,0,21.5-3.9,21.5-15.4c0-7.8-5.6-11.3-11.8-13.2
		c3.8-1.5,8-4.7,8-11.3c0-8.5-8.4-14.3-19.8-14.3H194.1L194.1,171.3z M211.5,183.9h6.4c2.6,0,4.6,2,4.6,4.1c0,1.9-2.1,4-4.6,4h-6.4
		V183.9L211.5,183.9z M211.5,203.3h8.4c2.9,0,5.4,2.2,5.4,4.8c0,2.7-2.3,5-5.9,5h-7.9L211.5,203.3L211.5,203.3z"/>
	<path id="path3007" class="st0" d="M231.3,165.4v-54.2H275v13.1h-26.4v7.1h21.4v12.3h-21.4v8.7H275v13.1H231.3z"/>
	<path id="path3009" class="st0" d="M298.7,166.9c12.3,0,22.2-7,22.2-18.4c0-18.4-23.9-15.5-23.9-21.3c0-2.2,2.3-3.4,4.7-3.4
		c4.1,0,7.1,2.7,7.1,2.7l10.3-9.8c-4.1-3.9-10.6-7.2-19.4-7.2c-13.1,0-21.7,7.8-21.7,17.2c0,18.6,23.6,15.9,23.6,21.7
		c0,2-2,4.1-5.5,4.1c-4.1,0-7.3-2.4-9.8-4.5l-10.3,9.9C280,162,286.7,166.9,298.7,166.9z"/>
	<path id="path3011" class="st0" d="M334.3,165.4v-41.2H320v-13.1H366v13.1h-14.3v41.2H334.3z"/>
	<path id="path3013" class="st0" d="M244.6,171.2h17.3v32.5c0,3.3,3.3,6.3,6.7,6.3c3.2,0,6.5-2.7,6.5-6.5v-32.3h17.3v32.1
		c0,12.7-10.6,22.9-24.3,22.9c-13.8,0-23.6-11.1-23.6-23.6L244.6,171.2z"/>
	<path id="path3015" class="st0" d="M313.8,225.5v-19.4l-20.4-34.9H311l11.5,18.7l11.6-18.7h17.6l-20.5,35.1v19.2H313.8z"/>
	<path id="path3017" class="st1" d="M351.7,200.9l-10.2,10.2V225l10.2,10.2H395v-34.3H351.7z"/>
	<path id="path3024" class="st0" d="M350,218.1c0,1.3-1,2.3-2.3,2.3c-1.3,0-2.3-1-2.3-2.3s1-2.3,2.3-2.3
		C349,215.8,350,216.8,350,218.1z"/>
</g>
</svg>
