<svg id="Layer_1" data-name="Layer 1" xmlns="http://www.w3.org/2000/svg" viewBox="0 0 300 300"><defs><style>.cls-1{fill:#fff;}</style></defs><path class="cls-1" d="M109,144.64,54.57,164.23a109.13,109.13,0,0,1-1-14.23,105.91,105.91,0,0,1,8.47-41.63l47.12,35.07c.29.25.43.45.43.65a.92.92,0,0,1-.62.65Zm40.65-96.09A92.35,92.35,0,0,0,98.12,64.48l39.55,44.09c.29.3.48.45.72.45s.47,0,.57-.65C139.29,105.57,149.67,48.55,149.67,48.55ZM119.3,121.7a1.4,1.4,0,0,0,0-.5L97.5,64.89a100.67,100.67,0,0,0-35.12,42.73L118.3,122.2h.48a.41.41,0,0,0,.19,0,.54.54,0,0,0,.18-.11.5.5,0,0,0,.11-.17A.45.45,0,0,0,119.3,121.7ZM191,144.64l54.49,19.59a107.37,107.37,0,0,0,.91-14.23A105.69,105.69,0,0,0,238,108.37l-47.16,35.07c-.29.25-.43.45-.43.65S190.69,144.54,191,144.64ZM161,108.37a.61.61,0,0,0,.62.65c.24,0,.43,0,.67-.45l39.6-44.09a92.61,92.61,0,0,0-51.55-15.93S160.57,105.57,161,108.37Zm20.18,13.88h.48l55.92-14.58A100.67,100.67,0,0,0,202.5,64.94S180.94,121,180.79,121.25a4.17,4.17,0,0,0,0,.5.55.55,0,0,0,.13.34A.43.43,0,0,0,181.22,122.25Z"/><path class="cls-1" d="M150,251.45a93.73,93.73,0,0,0,62.74-24.58,103,103,0,0,0,32.44-61.64l-35.93,5.31a.81.81,0,0,0-.59.22.92.92,0,0,0-.31.58,65.47,65.47,0,0,1-18.19,28.11A60.6,60.6,0,0,1,161,214.07a26.2,26.2,0,0,0,11.84-12.54A28.15,28.15,0,0,0,174.68,184a27,27,0,0,0-9-14.95A24.47,24.47,0,0,0,134,169a27,27,0,0,0-9,14.95,28.08,28.08,0,0,0,1.84,17.58,26.16,26.16,0,0,0,11.84,12.54,60.61,60.61,0,0,1-29-14.7,65.4,65.4,0,0,1-18-28,1,1,0,0,0-.32-.57.9.9,0,0,0-.58-.23l-36.08-5.31a103,103,0,0,0,32.43,61.65,93.67,93.67,0,0,0,62.76,24.57"/></svg>