<svg id="Layer_1" data-name="Layer 1" xmlns="http://www.w3.org/2000/svg" viewBox="0 0 300 300"><ellipse cx="147.18674" cy="155.32997" rx="99.99863" ry="107.9166" fill="#fff"/><path d="M275,150.189c0,75.83391-56.13764,137.331-125.00036,137.331C81.1377,287.52,25,226.02287,25,149.81119,25,73.97735,81.1377,12.48,149.99964,12.48,219.23665,12.48,275,74.35462,275,150.189ZM191.91642,70.58175c0,7.92309,1.12217,33.20107,1.49645,36.59674.74857,6.03652,1.87145,10.94115,6.36221,15.46872,2.62,2.64084,5.61432,5.65876,7.11077,8.3003,1.49715,1.886,4.11716,5.65875,4.11716,12.82717,0,2.64154-1.12285,79.60734-1.12285,80.36148h7.11077c0-3.01791,1.12286-77.34287,1.12286-80.36148,0-10.56409-4.11716-15.84578-5.61362-18.48663a90.25077,90.25077,0,0,0-8.23365-9.05513c-2.24571-2.26378-2.9943-4.90463-3.74287-9.80925-.37429-2.64085-1.49646-27.54176-1.49646-35.46458Zm-90.94362,0c0,7.92309-1.12286,32.824-1.49646,35.46485-.74857,5.28169-1.49715,7.54548-3.74288,9.80926-2.994,3.01861-5.988,6.41358-8.2335,9.05512-1.87123,2.26309-5.98805,7.92255-5.98805,18.48663,0,3.01861.74851,77.34357.74851,80.36148h7.11077c0-.75483-.7485-77.34287-.7485-80.36148,0-7.54547,2.6198-10.94114,4.11681-12.82786,1.8711-2.26378,4.49111-5.2817,7.11044-8.30031,4.49145-4.52686,5.61432-9.43219,6.36289-15.46871.37428-3.395,1.49645-28.67295,1.49645-36.59625ZM171.332,217.34551c-2.61931-.37776-10.47866-1.50965-12.72439-1.88672-2.245-.37707-4.49076-2.64085-4.49076-4.52756,0-2.26379-.37429-57.34729-.37429-67.53362,0-10.56408,7.48506-16.6006,11.60154-20.7504,4.11716-4.1505,5.61361-9.4322,6.36219-15.46872.37428-3.39567,1.49716-23.39195,1.49716-31.692v-4.9047H127.54516v4.9047c0,7.923,1.12216,28.29637,1.49645,31.692.74858,6.03652,2.24573,11.31822,6.3622,15.46872,7.11077,7.1684,11.228,11.69527,11.228,20.7504,0,8.67737-.37429,65.26983-.37429,67.53362s-2.24573,4.52756-4.49076,4.90463c-2.62,0-11.22795,1.50965-13.47368,1.50965-2.245.37707-4.11647,1.13189-4.11647,3.39567,0,2.26308,1.87145,3.01791,4.11647,3.01791H171.332c2.24573,0,4.11718-.37707,4.11718-3.01791C175.82343,218.4774,173.5777,217.72258,171.332,217.34551Z" fill="#a2674f"/></svg>