<svg id="Layer_1" data-name="Layer 1" xmlns="http://www.w3.org/2000/svg" viewBox="0 0 300 300"><defs><style>.cls-1{fill:#fff;}</style></defs><path class="cls-1" d="M28.36,193a129.08,129.08,0,0,0,14.38,28.69H257.29A131.7,131.7,0,0,0,271.67,193Z"/><path class="cls-1" d="M68.9,250.31a129,129,0,0,0,162.2,0Z"/><path class="cls-1" d="M21,150a133.23,133.23,0,0,0,.8,14.34H278.2a128.92,128.92,0,0,0,0-28.68H21.8A133.23,133.23,0,0,0,21,150Z"/><path class="cls-1" d="M42.74,78.34A128.22,128.22,0,0,0,28.36,107H271.67a130.81,130.81,0,0,0-14.38-28.66Z"/><path class="cls-1" d="M231.1,49.69a128.93,128.93,0,0,0-162.17,0Z"/></svg>