<svg id="Layer_1" data-name="Layer 1" xmlns="http://www.w3.org/2000/svg" xmlns:xlink="http://www.w3.org/1999/xlink" viewBox="0 0 300 300"><defs><style>.cls-1{fill:url(#linear-gradient);}.cls-2{fill:url(#linear-gradient-2);}.cls-3{fill:url(#linear-gradient-3);}.cls-4{fill:url(#radial-gradient);}.cls-5{fill:url(#radial-gradient-2);}</style><linearGradient id="linear-gradient" x1="137.8" y1="70.7" x2="199.6" y2="132.51" gradientTransform="matrix(1, 0, 0, -1, 0, 302)" gradientUnits="userSpaceOnUse"><stop offset="0" stop-color="#c4c980"/><stop offset="0.5" stop-color="#dbe08c"/></linearGradient><linearGradient id="linear-gradient-2" x1="236.45" y1="184.78" x2="194.83" y2="112.68" gradientTransform="matrix(1, 0, 0, -1, 0, 302)" gradientUnits="userSpaceOnUse"><stop offset="0" stop-color="#a0bd6f"/><stop offset="0.4" stop-color="#afcd79"/></linearGradient><linearGradient id="linear-gradient-3" x1="215.33" y1="168.96" x2="146.33" y2="226.86" gradientTransform="matrix(1, 0, 0, -1, 0, 302)" gradientUnits="userSpaceOnUse"><stop offset="0" stop-color="#9fc382"/><stop offset="0.16" stop-color="#83b06b"/><stop offset="0.32" stop-color="#70a45a"/><stop offset="0.43" stop-color="#6a9f53"/></linearGradient><radialGradient id="radial-gradient" cx="137.16" cy="160.51" r="56.3" gradientTransform="matrix(1, 0, 0, -1, 0, 302)" gradientUnits="userSpaceOnUse"><stop offset="0" stop-color="#4a7093"/><stop offset="0.86" stop-color="#6799cb"/></radialGradient><radialGradient id="radial-gradient-2" cx="100.01" cy="170.36" r="50.45" gradientTransform="matrix(1, 0, 0, -1, 0, 302)" gradientUnits="userSpaceOnUse"><stop offset="0" stop-color="#e7f2f8"/><stop offset="0.09" stop-color="#d1e3f0"/><stop offset="0.28" stop-color="#abc9e3"/><stop offset="0.47" stop-color="#8eb4d9"/><stop offset="0.65" stop-color="#78a5d1"/><stop offset="0.83" stop-color="#6c9ccd"/><stop offset="1" stop-color="#6799cb"/></radialGradient></defs><path class="cls-1" d="M174.19,174.55c-2.09,1.57-3.66,2.61-3.66,2.61-24,17.77-54.85,26.12-54.85,26.12a42.11,42.11,0,0,0-4.7,1.57,75.44,75.44,0,0,0,114.4-9.4C211.8,200.67,193,190.75,174.19,174.55Z"/><path class="cls-2" d="M240,146.34v-1.56a6.68,6.68,0,0,0-.52-3.14v-1.57c0-1-.53-2.61-.53-3.65v-.52c-.52-1.57-.52-3.14-1-4.18,0-.53,0-.53-.52-1.05-.53-1-.53-2.09-1.05-3.13a1.82,1.82,0,0,0-.52-1.05c-.52-1-.52-2.09-1.05-3.13,0-.52-.52-.52-.52-1-.52-1-1-2.61-1.56-3.65a1.81,1.81,0,0,0-.53-1c-.52-1-1-1.57-1-2.61l-.52-.52c-6.27,12.53-24,24-46,31.86,1.05,4.18,1.57,9.41,0,14.11-1.56,5.74-6.79,11-10.44,14.1,18.28,16.2,37.61,26.12,51.19,21.42,2.61-3.66,5.23-7.31,6.79-11.49,0-.52.53-.52.53-1,.52-.52.52-1.56,1-2.09s.52-1,1-2.09a1.81,1.81,0,0,1,.53-1c.52-1.05.52-1.57,1-2.09,0-.52,0-.52.52-1,.53-1.05.53-1.57,1-2.62v-.52a61,61,0,0,0,2.09-9.4V162c0-1.57.52-2.62.52-4.18v-5.75A25.76,25.76,0,0,1,240,146.34Z"/><path class="cls-3" d="M228,109.78c-.52-.53-1-1.57-1.56-2.09-1.05-1-1.57-2.62-2.62-3.66-.52-.52-.52-1-1-1.57-.52-1-1.57-1.57-2.09-2.61h0A76.46,76.46,0,0,0,164.26,75.3a69.77,69.77,0,0,0-20.89,3.13c4.17,4.7,7.31,7.84,7.31,7.84S171.57,110.3,182,138a25,25,0,0,1,2.09,7.32c21.42-8.36,39.7-19.33,46-31.87A12.88,12.88,0,0,0,228,109.78Z"/><path class="cls-4" d="M184.63,145.82c-1-4.18-2.08-7.31-2.08-7.31C172.1,110.82,151.2,86.79,151.2,86.79s-3.13-3.66-7.31-7.84h0c-1,.53-1.57.53-2.61,1h-.53c-1,.52-1.56.52-2.61,1h-.52a53.51,53.51,0,0,0-7.84,3.66h0c-.52.52-1,.52-2.09,1-.52,0-.52.52-1,.52-.52.52-1.05.52-1.57,1a1.82,1.82,0,0,0-1,.52c-.53.53-1.05.53-1.57,1s-1,.52-1.57,1-1,.53-1,1l-1.57,1.57-.52.52c-1,.52-1.57,1.57-2.61,2.09l-.53.52c-.52.52-1.56,1-2.09,1.57h0C97.39,110.3,89,129.63,89,151a69.79,69.79,0,0,0,3.13,20.9h0c1.57,4.7,3.14,9.4,5.75,13.58v.53a2.7,2.7,0,0,0,1,2.08.52.52,0,0,0,.52.53c.53.52,1,1.56,1.57,2.09h0c1.57,2.09,3.14,4.7,4.7,6.79,0,.52.53.52.53,1l1.56,1.57,1,1c.52.53,1,1.05,1,1.57l1,1.05,1,1h0a20.7,20.7,0,0,0,4.7-1.57s30.82-8.88,54.85-26.12c0,0,1.57-1,3.66-2.61,3.66-3.13,8.36-8.36,10.45-14.1A43.91,43.91,0,0,0,184.63,145.82Z"/><path class="cls-5" d="M138.14,124.92a152,152,0,0,0-18.28-34.47,186.86,186.86,0,0,0-12.54-17.24S72.84,88.88,62.39,123.36,72.84,189.7,72.84,189.7a225.82,225.82,0,0,0,23.51-8.88,151.78,151.78,0,0,0,30.82-17.24s11-7.31,13.58-16.71h0C142.84,137.46,138.14,124.92,138.14,124.92Z"/></svg>