<svg id="Layer_1" data-name="Layer 1" xmlns="http://www.w3.org/2000/svg" viewBox="0 0 300 300"><defs><style>.cls-1{fill:#01a651;}.cls-2{fill:#fbfdfc;}</style></defs><title>BIO_Light_bg</title><path class="cls-1" d="M57.53,107.25c1.09,0,2.18,0,3.27,0H239.61c1,0,2-.06,3.06-.09a35,35,0,0,1,15.86,4.15A29.57,29.57,0,0,1,271.33,125a53,53,0,0,1,5.16,24.37c-.07,5.48,0,10.93-1.69,16.23-2,6.5-5,12.4-9.9,17.28a36.34,36.34,0,0,1-13.41,8.25,31.35,31.35,0,0,1-11.38,1.66c-.68,0-1.36-.05-2-.05H72.27c-.68,0-1.36,0-2,0-4.63,0-9.28.14-13.9-.05-5.76-.24-10.82-2.49-15.71-5.52a34.34,34.34,0,0,1-10.22-10C26.64,171.71,25,165.49,24,159a59.63,59.63,0,0,1-.28-13.41,49.94,49.94,0,0,1,7.05-22.78,33.76,33.76,0,0,1,11.33-11.37A27,27,0,0,1,51.53,108C53.53,107.69,55.45,107,57.53,107.25ZM153,154.69c-1,6-1.92,11.66-2.87,17.46h9.37c1-5.83,2-11.6,3-17.43,2.84,0,5.5-.05,8.15,0a3.19,3.19,0,0,1,3.21,2.31,12.91,12.91,0,0,1,.43,4.22c.07,3.68-1.19,7.17-1.63,10.91h17.61l3.54-7.44h15.26c.81,2.56.67,5.19,1.86,7.6,9.75-.68,19.38.57,29-.79,6.35-.9,10.81-4.06,13.59-9.6,3.71-7.42,3.91-15.28,2-23.17-1.24-5-4.39-9-9.58-10.05-6.69-1.32-13.56-.29-20.47-.53-2.07,12.35-4.11,24.51-6.15,36.66l-.37,0q-3.06-18.24-6.14-36.53h-11q-8.75,18.56-17.41,37c-.51-4.94-.57-9.8-4.8-13.3a10.73,10.73,0,0,0,1.9-1,17,17,0,0,0,6.1-11.65c.61-5.94-3.27-11.05-9.63-11.12-2.11,0-4.22,0-6.34,0h-14.1c-1.06,6-2.08,11.72-3.13,17.58h-10c-.43,3-1.26,5.85-1.37,9ZM53.89,128.3c-2.38,14.56-4.75,29.11-7.16,43.87,6.17,0,11.82-.08,17.46,0a44.75,44.75,0,0,0,9-1.16c3-.55,4.92-2.56,6.54-4.93a14.45,14.45,0,0,0,2.45-9.25,9.58,9.58,0,0,0-4.74-8.2c4.2-3.07,5.92-6.15,6.12-10.74.2-4.8-2.73-9.55-7.68-9.61C68.63,128.23,61.34,128.3,53.89,128.3ZM98.44,156a28.24,28.24,0,0,0,.5,5.64c1.48,6.15,6.06,11.05,13,11.12a24,24,0,0,0,9.89-1.48,17.81,17.81,0,0,0,7-4.92,33.46,33.46,0,0,0,7.72-24.13c-.55-8.64-6-15.92-15.35-16-6-.06-11.2,1.84-14.92,6.53A36.09,36.09,0,0,0,98.44,156Zm-8-27.48c-2.51,14.64-5,29.11-7.5,43.63h9.58c2.45-14.5,4.89-29,7.36-43.63Z"/><path class="cls-2" d="M153,154.69h-9.93c.11-3.12.94-6,1.37-9h10c1-5.86,2.07-11.63,3.13-17.58h14.1c2.12,0,4.23,0,6.34,0,6.36.07,10.24,5.18,9.63,11.12a17,17,0,0,1-6.1,11.65,10.73,10.73,0,0,1-1.9,1c4.23,3.5,4.29,8.36,4.8,13.3q8.68-18.45,17.41-37h11q3.09,18.32,6.14,36.53l.37,0c2-12.15,4.08-24.31,6.15-36.66,6.91.24,13.78-.79,20.47.53,5.19,1,8.34,5,9.58,10.05,1.94,7.89,1.74,15.75-2,23.17-2.78,5.54-7.24,8.7-13.59,9.6-9.63,1.36-19.26.11-29,.79-1.19-2.41-1-5-1.86-7.6H193.79l-3.54,7.44H172.64c.44-3.74,1.7-7.23,1.63-10.91a12.91,12.91,0,0,0-.43-4.22,3.19,3.19,0,0,0-3.21-2.31c-2.65-.07-5.31,0-8.15,0-1,5.83-2,11.6-3,17.43h-9.37C151.06,166.35,152,160.68,153,154.69Zm76.06,9c2.12,0,4.1.07,6.06,0a9.24,9.24,0,0,0,6.86-2.93c5.07-5.91,5.93-12.67,3.32-19.86a6.07,6.07,0,0,0-5-4.36,65,65,0,0,0-6.7-.05C232.05,145.55,230.57,154.49,229,163.67Zm-65.13-17.94c3.21,0,6.26,0,9.3,0,2.25,0,3.86-1.83,4-4.4a4.37,4.37,0,0,0-3.48-4.64c-2.68-.45-5.38-.15-8.14-.21C165.05,139.63,164.5,142.59,163.91,145.73Zm43.65,9.8-2.45-15.39c-2.41,5.32-4.66,10.27-7,15.39Z"/><path class="cls-2" d="M53.89,128.3c7.45,0,14.74-.07,22,0,5,.06,7.88,4.81,7.68,9.61-.2,4.59-1.92,7.67-6.12,10.74a9.58,9.58,0,0,1,4.74,8.2,14.45,14.45,0,0,1-2.45,9.25c-1.62,2.37-3.58,4.38-6.54,4.93a44.75,44.75,0,0,1-9,1.16c-5.64-.12-11.29,0-17.46,0C49.14,157.41,51.51,142.86,53.89,128.3Zm3.36,34.92c4.07,0,8,.1,11.93,0a4.72,4.72,0,0,0,4.33-4.74,4.82,4.82,0,0,0-3.75-5c-3.55-.65-7.14-.2-10.79-.25Zm4.42-26.91-1.35,8.87H70.51c.53-.36,1.09-.7,1.62-1.11a5.58,5.58,0,0,0,1.66-5.33c-.66-2-2.18-2.51-4.13-2.45C67.08,136.37,64.5,136.31,61.67,136.31Z"/><path class="cls-2" d="M98.44,156a36.09,36.09,0,0,1,7.81-23.26c3.72-4.69,8.87-6.59,14.92-6.53,9.32.1,14.8,7.38,15.35,16a33.46,33.46,0,0,1-7.72,24.13,17.81,17.81,0,0,1-7,4.92,24,24,0,0,1-9.89,1.48c-6.93-.07-11.51-5-13-11.12A28.24,28.24,0,0,1,98.44,156Zm28.07-10.54c-.06-1-.09-1.81-.15-2.62a6.8,6.8,0,0,0-12.5-3.72c-4.67,5.72-5.38,12.43-4.59,19.39a5.15,5.15,0,0,0,3.3,4.5,7.8,7.8,0,0,0,8.54-2.5C124.7,156.08,126,150.86,126.51,145.49Z"/><path class="cls-2" d="M90.39,128.55h9.44c-2.47,14.62-4.91,29.13-7.36,43.63H82.89C85.39,157.66,87.88,143.19,90.39,128.55Z"/><path class="cls-1" d="M229,163.67c1.53-9.18,3-18.12,4.53-27.22a65,65,0,0,1,6.7.05,6.07,6.07,0,0,1,5,4.36c2.61,7.19,1.75,13.95-3.32,19.86a9.24,9.24,0,0,1-6.86,2.93C233.14,163.74,231.16,163.67,229,163.67Z"/><path class="cls-1" d="M163.91,145.73c.59-3.14,1.14-6.1,1.73-9.26,2.76.06,5.46-.24,8.14.21a4.37,4.37,0,0,1,3.48,4.64c-.19,2.57-1.8,4.36-4,4.4C170.17,145.76,167.12,145.73,163.91,145.73Z"/><path class="cls-1" d="M207.56,155.53h-9.44c2.33-5.12,4.58-10.07,7-15.39Z"/><path class="cls-1" d="M57.25,163.22,59,153.15c3.65,0,7.24-.4,10.79.25a4.82,4.82,0,0,1,3.75,5,4.72,4.72,0,0,1-4.33,4.74C65.25,163.32,61.32,163.22,57.25,163.22Z"/><path class="cls-1" d="M61.67,136.31c2.83,0,5.41.06,8,0,2-.06,3.47.47,4.13,2.45a5.58,5.58,0,0,1-1.66,5.33c-.53.41-1.09.75-1.62,1.11H60.32Z"/><path class="cls-1" d="M126.51,145.49c-.5,5.37-1.81,10.59-5.4,15a7.8,7.8,0,0,1-8.54,2.5,5.15,5.15,0,0,1-3.3-4.5c-.79-7-.08-13.67,4.59-19.39a6.8,6.8,0,0,1,12.5,3.72C126.42,143.68,126.45,144.5,126.51,145.49Z"/></svg>