<svg id="Layer_1" data-name="Layer 1" xmlns="http://www.w3.org/2000/svg" viewBox="0 0 300 300"><defs><style>.cls-1{fill:#fff;}</style></defs><title>BKNG_Dark_bg</title><path class="cls-1" d="M89.86,123.08A4.83,4.83,0,1,1,85,127.91a4.84,4.84,0,0,1,4.83-4.83"/><path class="cls-1" d="M89.86,101A4.83,4.83,0,1,1,85,105.8,4.84,4.84,0,0,1,89.86,101"/><path class="cls-1" d="M89.86,78.9A4.84,4.84,0,1,1,85,83.74a4.84,4.84,0,0,1,4.83-4.84"/><path class="cls-1" d="M89.86,56.79A4.84,4.84,0,1,1,85,61.63a4.84,4.84,0,0,1,4.83-4.84"/><path class="cls-1" d="M107.05,123.08a4.83,4.83,0,1,1-4.84,4.83,4.83,4.83,0,0,1,4.84-4.83"/><path class="cls-1" d="M107.05,101a4.83,4.83,0,1,1-4.84,4.83,4.83,4.83,0,0,1,4.84-4.83"/><path class="cls-1" d="M107.05,78.9a4.84,4.84,0,1,1-4.84,4.84,4.84,4.84,0,0,1,4.84-4.84"/><path class="cls-1" d="M107.05,56.79a4.84,4.84,0,1,1-4.84,4.84,4.84,4.84,0,0,1,4.84-4.84"/><path class="cls-1" d="M124.23,123.08a4.83,4.83,0,1,1-4.84,4.83,4.83,4.83,0,0,1,4.84-4.83"/><path class="cls-1" d="M124.23,101a4.83,4.83,0,1,1-4.84,4.83,4.83,4.83,0,0,1,4.84-4.83"/><path class="cls-1" d="M124.23,78.9a4.84,4.84,0,1,1-4.84,4.84,4.84,4.84,0,0,1,4.84-4.84"/><path class="cls-1" d="M124.23,56.79a4.84,4.84,0,1,1-4.84,4.84,4.84,4.84,0,0,1,4.84-4.84"/><path class="cls-1" d="M141.41,123.08a4.83,4.83,0,1,1-4.83,4.83,4.83,4.83,0,0,1,4.83-4.83"/><path class="cls-1" d="M158.59,123.08a4.83,4.83,0,1,1-4.83,4.83,4.83,4.83,0,0,1,4.83-4.83"/><path class="cls-1" d="M158.59,101a4.83,4.83,0,1,1-4.83,4.83,4.83,4.83,0,0,1,4.83-4.83"/><path class="cls-1" d="M158.59,78.9a4.84,4.84,0,1,1-4.83,4.84,4.84,4.84,0,0,1,4.83-4.84"/><path class="cls-1" d="M158.59,56.79a4.84,4.84,0,1,1-4.83,4.84,4.84,4.84,0,0,1,4.83-4.84"/><path class="cls-1" d="M175.77,123.08a4.83,4.83,0,1,1-4.83,4.83,4.84,4.84,0,0,1,4.83-4.83"/><path class="cls-1" d="M175.77,101a4.83,4.83,0,1,1-4.83,4.83,4.84,4.84,0,0,1,4.83-4.83"/><path class="cls-1" d="M175.77,78.9a4.84,4.84,0,1,1-4.83,4.84,4.84,4.84,0,0,1,4.83-4.84"/><path class="cls-1" d="M175.77,56.79a4.84,4.84,0,1,1-4.83,4.84,4.84,4.84,0,0,1,4.83-4.84"/><path class="cls-1" d="M193,123.08a4.83,4.83,0,1,1-4.84,4.83,4.83,4.83,0,0,1,4.84-4.83"/><path class="cls-1" d="M193,101a4.83,4.83,0,1,1-4.84,4.83A4.83,4.83,0,0,1,193,101"/><path class="cls-1" d="M193,78.9a4.84,4.84,0,1,1-4.84,4.84A4.84,4.84,0,0,1,193,78.9"/><path class="cls-1" d="M193,56.79a4.84,4.84,0,1,1-4.84,4.84A4.84,4.84,0,0,1,193,56.79"/><path class="cls-1" d="M210.14,123.08a4.83,4.83,0,1,1-4.84,4.83,4.83,4.83,0,0,1,4.84-4.83"/><path class="cls-1" d="M210.14,101a4.83,4.83,0,1,1-4.84,4.83,4.83,4.83,0,0,1,4.84-4.83"/><path class="cls-1" d="M210.14,78.9a4.84,4.84,0,1,1-4.84,4.84,4.84,4.84,0,0,1,4.84-4.84"/><path class="cls-1" d="M141.41,101a4.83,4.83,0,1,1-4.83,4.83,4.83,4.83,0,0,1,4.83-4.83"/><path class="cls-1" d="M141.41,78.9a4.84,4.84,0,1,1-4.83,4.84,4.84,4.84,0,0,1,4.83-4.84"/><path class="cls-1" d="M141.41,56.79a4.84,4.84,0,1,1-4.83,4.84,4.84,4.84,0,0,1,4.83-4.84"/><path class="cls-1" d="M89.86,145.14A4.84,4.84,0,1,1,85,150a4.84,4.84,0,0,1,4.83-4.84"/><path class="cls-1" d="M89.86,167.25A4.84,4.84,0,1,1,85,172.09a4.84,4.84,0,0,1,4.83-4.84"/><path class="cls-1" d="M89.86,189.37A4.83,4.83,0,1,1,85,194.2a4.84,4.84,0,0,1,4.83-4.83"/><path class="cls-1" d="M89.86,211.43A4.84,4.84,0,1,1,85,216.26a4.84,4.84,0,0,1,4.83-4.83"/><path class="cls-1" d="M89.86,233.54A4.84,4.84,0,1,1,85,238.37a4.84,4.84,0,0,1,4.83-4.83"/><path class="cls-1" d="M107.05,145.14a4.84,4.84,0,1,1-4.84,4.84,4.84,4.84,0,0,1,4.84-4.84"/><path class="cls-1" d="M107.05,167.25a4.84,4.84,0,1,1-4.84,4.84,4.84,4.84,0,0,1,4.84-4.84"/><path class="cls-1" d="M107.05,189.37a4.83,4.83,0,1,1-4.84,4.83,4.83,4.83,0,0,1,4.84-4.83"/><path class="cls-1" d="M107.05,211.43a4.84,4.84,0,1,1-4.84,4.83,4.83,4.83,0,0,1,4.84-4.83"/><path class="cls-1" d="M107.05,233.54a4.84,4.84,0,1,1-4.84,4.83,4.84,4.84,0,0,1,4.84-4.83"/><path class="cls-1" d="M124.23,145.14a4.84,4.84,0,1,1-4.84,4.84,4.84,4.84,0,0,1,4.84-4.84"/><path class="cls-1" d="M124.23,167.25a4.84,4.84,0,1,1-4.84,4.84,4.84,4.84,0,0,1,4.84-4.84"/><path class="cls-1" d="M124.23,189.37a4.83,4.83,0,1,1-4.84,4.83,4.83,4.83,0,0,1,4.84-4.83"/><path class="cls-1" d="M124.23,211.43a4.84,4.84,0,1,1-4.84,4.83,4.83,4.83,0,0,1,4.84-4.83"/><path class="cls-1" d="M124.23,233.54a4.84,4.84,0,1,1-4.84,4.83,4.83,4.83,0,0,1,4.84-4.83"/><path class="cls-1" d="M141.41,145.14a4.84,4.84,0,1,1-4.83,4.84,4.84,4.84,0,0,1,4.83-4.84"/><path class="cls-1" d="M141.41,167.25a4.84,4.84,0,1,1-4.83,4.84,4.84,4.84,0,0,1,4.83-4.84"/><path class="cls-1" d="M158.59,167.25a4.84,4.84,0,1,1-4.83,4.84,4.84,4.84,0,0,1,4.83-4.84"/><path class="cls-1" d="M158.59,189.37a4.83,4.83,0,1,1-4.83,4.83,4.83,4.83,0,0,1,4.83-4.83"/><path class="cls-1" d="M158.59,211.43a4.84,4.84,0,1,1-4.83,4.83,4.83,4.83,0,0,1,4.83-4.83"/><path class="cls-1" d="M158.59,233.54a4.84,4.84,0,1,1-4.83,4.83,4.83,4.83,0,0,1,4.83-4.83"/><path class="cls-1" d="M175.77,167.25a4.84,4.84,0,1,1-4.83,4.84,4.84,4.84,0,0,1,4.83-4.84"/><path class="cls-1" d="M175.77,189.37a4.83,4.83,0,1,1-4.83,4.83,4.84,4.84,0,0,1,4.83-4.83"/><path class="cls-1" d="M175.77,211.43a4.84,4.84,0,1,1-4.83,4.83,4.84,4.84,0,0,1,4.83-4.83"/><path class="cls-1" d="M175.77,233.54a4.84,4.84,0,1,1-4.83,4.83,4.84,4.84,0,0,1,4.83-4.83"/><path class="cls-1" d="M193,167.25a4.84,4.84,0,1,1-4.84,4.84,4.84,4.84,0,0,1,4.84-4.84"/><path class="cls-1" d="M193,189.37a4.83,4.83,0,1,1-4.84,4.83,4.83,4.83,0,0,1,4.84-4.83"/><path class="cls-1" d="M193,211.43a4.84,4.84,0,1,1-4.84,4.83,4.83,4.83,0,0,1,4.84-4.83"/><path class="cls-1" d="M193,233.54a4.84,4.84,0,1,1-4.84,4.83,4.84,4.84,0,0,1,4.84-4.83"/><path class="cls-1" d="M210.14,167.25a4.84,4.84,0,1,1-4.84,4.84,4.84,4.84,0,0,1,4.84-4.84"/><path class="cls-1" d="M210.14,189.37a4.83,4.83,0,1,1-4.84,4.83,4.83,4.83,0,0,1,4.84-4.83"/><path class="cls-1" d="M158.59,145.14a4.84,4.84,0,1,1-4.83,4.84,4.84,4.84,0,0,1,4.83-4.84"/><path class="cls-1" d="M175.77,145.14a4.84,4.84,0,1,1-4.83,4.84,4.84,4.84,0,0,1,4.83-4.84"/><path class="cls-1" d="M193,145.14a4.84,4.84,0,1,1-4.84,4.84,4.84,4.84,0,0,1,4.84-4.84"/><path class="cls-1" d="M210.14,211.43a4.84,4.84,0,1,1-4.84,4.83,4.83,4.83,0,0,1,4.84-4.83"/><path class="cls-1" d="M141.41,189.37a4.83,4.83,0,1,1-4.83,4.83,4.83,4.83,0,0,1,4.83-4.83"/><path class="cls-1" d="M141.41,211.43a4.84,4.84,0,1,1-4.83,4.83,4.83,4.83,0,0,1,4.83-4.83"/><path class="cls-1" d="M141.41,233.54a4.84,4.84,0,1,1-4.83,4.83,4.83,4.83,0,0,1,4.83-4.83"/></svg>