<svg id="Layer_1" data-name="Layer 1" xmlns="http://www.w3.org/2000/svg" viewBox="0 0 300 300"><defs><style>.cls-1{fill:#1ca18a;}.cls-2{fill:#67c298;}</style></defs><path id="path12565" class="cls-1" d="M87.51,103a13.21,13.21,0,1,1,9-24.83A27.6,27.6,0,1,0,77.7,130.06l135.58,49.3L96.55,221.84A27.59,27.59,0,1,1,77.7,170a42,42,0,1,0,28.66,78.91l127.38-46.37a24.64,24.64,0,0,0,0-46.31Z"/><path id="path12567" class="cls-2" d="M213.28,120.66,96.55,78.18A27.57,27.57,0,1,0,77.7,130a42,42,0,1,1,28.72-78.86L233.74,97.51a24.64,24.64,0,0,1,0,46.31L87.51,197a13.21,13.21,0,0,0,9,24.83A27.57,27.57,0,1,1,77.7,170l135.58-49.36"/></svg>