<svg id="Layer_1" data-name="Layer 1" xmlns="http://www.w3.org/2000/svg" viewBox="0 0 300 300"><defs><style>.cls-1{fill:#fff;}</style></defs><title>BLK_Dark_bg</title><path class="cls-1" d="M33.58,133.53l.53,0c4.8,0,9.6,0,14.39,0a14.42,14.42,0,0,1,6.07,1.21A8,8,0,0,1,58.73,145a7.41,7.41,0,0,1-2.87,3.32l-.84.54.33.18a7.86,7.86,0,0,1,4.85,8.1,8.46,8.46,0,0,1-2.37,5.75,9.88,9.88,0,0,1-4.76,2.55,17.76,17.76,0,0,1-4.29.49c-4.9,0-9.81,0-14.71,0l-.44,0C33.5,165.43,33.44,134.66,33.58,133.53Zm7.69,26a1.32,1.32,0,0,0,.25.05c2.25,0,4.5,0,6.74,0a5.41,5.41,0,0,0,1.91-.42,3,3,0,0,0,1.93-2.89,3.15,3.15,0,0,0-1.8-3.17,4.83,4.83,0,0,0-2.27-.5H41.79a4.92,4.92,0,0,0-.52,0Zm0-13,.38,0c1.88,0,3.77,0,5.66,0a7.45,7.45,0,0,0,1.7-.2,3.1,3.1,0,0,0,2.44-3.23A3,3,0,0,0,49,140a9.1,9.1,0,0,0-1.95-.21c-1.7,0-3.4,0-5.09,0h-.66Z"/><path class="cls-1" d="M173.07,153.55c2.35,4.08,4.69,8.13,7.06,12.26h-8.81L165.19,155H160.5c0,.26-.05.5-.05.75v10.07H152.9v-32.3a4.21,4.21,0,0,1,.5,0c4.58,0,9.17,0,13.75,0a15.22,15.22,0,0,1,6.2,1.26,9.24,9.24,0,0,1,5.77,8.24,10.75,10.75,0,0,1-1,5.7,10.42,10.42,0,0,1-4.5,4.53Zm-12.53-5h5.3c.45,0,.9,0,1.34-.07a5,5,0,0,0,2.84-1.16,4.27,4.27,0,0,0,1.21-4.42,3.32,3.32,0,0,0-2-2.42,6,6,0,0,0-2.47-.54l-5.8,0a4.12,4.12,0,0,0-.45.05Z"/><path class="cls-1" d="M126.27,133.53h7.2l.05,0,0,.05,0,.13v.19l0,17.24s0,0,.06.15c1.46-1.54,2.81-3.13,4.2-4.67l4.2-4.71h8.27l-8.11,8.83c2.87,5,5.78,10,8.68,15.1h-8.34l-5.47-9.55-3.52,3.72v5.75a69.75,69.75,0,0,1-7.21.07l0,0s0,0,0-.05l0-31.55Z"/><path class="cls-1" d="M242.25,133.54v17.7l.13.07c2.83-3.11,5.63-6.25,8.46-9.37H259l-8.11,8.85,8.68,15.08h-8.34l-5.47-9.55-3.5,3.72v5.74a62.16,62.16,0,0,1-7.31.07V133.54Z"/><path class="cls-1" d="M98.91,165.44a7.1,7.1,0,0,1-2.81.7,16.47,16.47,0,0,1-3-.08,4.27,4.27,0,0,1-3.4-2.48c0-.08-.09-.15-.13-.22s0,0-.07,0a.46.46,0,0,0-.14.07,10.56,10.56,0,0,1-6.11,2.89,11.44,11.44,0,0,1-5.1-.37,6.44,6.44,0,0,1-4.68-6,8,8,0,0,1,.35-3.32,6.85,6.85,0,0,1,3.73-4,12.7,12.7,0,0,1,5.19-1.11,23.61,23.61,0,0,1,5.43.55l.68.13a3.92,3.92,0,0,0-3.35-4.89,8.7,8.7,0,0,0-6.64,1.76l-.6.45L74.2,145c.45-.35.85-.69,1.29-1a17.81,17.81,0,0,1,14.58-2.11,8.41,8.41,0,0,1,5.44,4.81,11.23,11.23,0,0,1,.75,4.36c0,2.61,0,5.22,0,7.83,0,1.52.89,1.77,1.94,1.64l.72-.11ZM89,156.29a14.27,14.27,0,0,0-4.93-.5,5,5,0,0,0-1.51.44,2.65,2.65,0,0,0-1.51,2.71,2.54,2.54,0,0,0,2,2.36,5.39,5.39,0,0,0,4.29-.59,3.26,3.26,0,0,0,1.59-2.12A9.26,9.26,0,0,0,89,156.29Z"/><path class="cls-1" d="M193.42,166.55a14,14,0,0,1-8.68-3,11.83,11.83,0,0,1-4.37-8,13,13,0,0,1,1-7.14,11.83,11.83,0,0,1,7.58-6.61,14.07,14.07,0,0,1,11.56,1.14,11.63,11.63,0,0,1,6,9.1,12.63,12.63,0,0,1-1.29,7.71,12.28,12.28,0,0,1-8.76,6.44C195.46,166.38,194.43,166.43,193.42,166.55Zm-6-12.7c0,.18,0,.45,0,.73a5.81,5.81,0,0,0,5.71,5.56,5.73,5.73,0,0,0,5.68-3.78,7.84,7.84,0,0,0,.37-3.69A5.93,5.93,0,0,0,188,150.78,7.74,7.74,0,0,0,187.46,153.85Z"/><path class="cls-1" d="M233.18,147.69l-6,3.12-.41-.67a5.68,5.68,0,0,0-8.3-1.58,5.89,5.89,0,0,0-2,3.25,8.42,8.42,0,0,0,.11,4.4,5.23,5.23,0,0,0,5.42,3.93,5.66,5.66,0,0,0,5-2.84c.08-.12.17-.23.28-.38l5.87,3a5.72,5.72,0,0,1-.24.54,10.51,10.51,0,0,1-6.3,5.22,15.67,15.67,0,0,1-9.22.21,10.88,10.88,0,0,1-8.1-8.53,15,15,0,0,1,.1-7.55,11.21,11.21,0,0,1,8.27-8.19,15.41,15.41,0,0,1,9,.2,10.59,10.59,0,0,1,6.38,5.49C233.09,147.44,233.12,147.54,233.18,147.69Z"/><path class="cls-1" d="M124.42,147.7l-6,3.11c-.15-.26-.3-.48-.43-.72a5.57,5.57,0,0,0-10.21,1.53,8.42,8.42,0,0,0,.06,4.59,5.25,5.25,0,0,0,5.48,3.93,5.74,5.74,0,0,0,5-2.82,4.72,4.72,0,0,1,.27-.4l5.91,3.05c-.25.45-.46.88-.72,1.28a10.57,10.57,0,0,1-5.91,4.48,15.82,15.82,0,0,1-9.34.15,10.8,10.8,0,0,1-7.75-7.8,15,15,0,0,1-.06-8.29,11.16,11.16,0,0,1,8.24-8.13,15.27,15.27,0,0,1,9.1.23,10.57,10.57,0,0,1,6.26,5.45.89.89,0,0,1,.08.17Z"/><path class="cls-1" d="M70.54,133.53v32.2a69,69,0,0,1-7.25.06c-.14-.48-.21-30.31-.08-32.22A68,68,0,0,1,70.54,133.53Z"/><path class="cls-1" d="M261.65,163.72a2.43,2.43,0,1,1,2.38,2.4A2.24,2.24,0,0,1,261.65,163.72Zm2.4,2.08a1.88,1.88,0,0,0,2.05-2.05,2,2,0,1,0-4.06,0A1.84,1.84,0,0,0,264.05,165.8Z"/><path class="cls-1" d="M264.57,164.11l.35.74-.37.05-.44-.73h-.47l-.11.69-.35,0v-2.35a8.36,8.36,0,0,1,1.12,0,.75.75,0,0,1,.53,1.26A3.22,3.22,0,0,1,264.57,164.11Zm-.95-1.18v.82l.91-.07,0-.7Z"/></svg>