<svg id="Layer_1" data-name="Layer 1" xmlns="http://www.w3.org/2000/svg" viewBox="0 0 300 300"><defs><style>.cls-1{fill:#be2bbb;}</style></defs><title>Artboard 79</title><path id="path29222" class="cls-1" d="M139.43,254.05a8.76,8.76,0,0,1-7.86,5.59,7.71,7.71,0,0,1-3.8-1C100.41,243.57,86,217,86,181.81V142.07c0-5.47,3.91-9.91,8.72-9.91s8.72,4.44,8.72,9.91v39.74c0,27.45,10.76,47.3,32,59C139.71,243.2,141.52,249.14,139.43,254.05Zm-25.81-92.12c0,5.62,4,10.17,8.95,10.17s9-4.55,9-10.17V80.82c0-5.62-4-10.17-9-10.17s-8.95,4.55-8.95,10.17Zm27.69-2.36c0,5.62,4,10.17,8.95,10.17s9-4.55,9-10.17v-109c0-5.61-4-10.16-9-10.16s-8.95,4.55-8.95,10.16ZM169,167.08c0,5.61,4,10.16,8.95,10.16s9-4.55,9-10.16V69.18c0-5.61-4-10.17-9-10.17S169,63.57,169,69.18ZM196.69,180c0,5.45,3.89,9.87,8.68,9.87s8.68-4.42,8.68-9.87V113.87c0-5.45-3.89-9.86-8.68-9.86s-8.68,4.41-8.68,9.86Z"/></svg>