<svg id="Layer_1" data-name="Layer 1" xmlns="http://www.w3.org/2000/svg" viewBox="0 0 300 300"><defs><style>.cls-1{fill:#fff;}.cls-2{fill:#02588d;}.cls-3{fill:#fcfdfd;}</style></defs><path class="cls-1" d="M59.78,251.43V48.57H240.22V251.43Zm102-69.06c11.12,10,24.54,13.25,39.15,13.36v-8.51c-2.27-.14-4.43-.23-6.59-.42-8-.71-15.62-2.78-22.28-7.48C162,172.17,157.44,162,156.49,150c.31,0,.61,0,.92,0h78.36c.47,0,1,.16,1.41-.28V51.63H62.78V57c42.46.88,72.61,19.46,87.24,60.54,11.75-25.94,33.11-37,60.26-39.67V90.37a62.72,62.72,0,0,0-10.45,1.27c-17.93,3.92-31.34,13.53-38.46,30.89-3.6,8.79-4.7,18.07-4.84,27.49l-13,0c-.64-7.77-2.95-14.94-7.89-21.08-6.81-8.46-16.07-12.3-26.49-13.87-3.35-.5-6.74-.6-10.07-.81v-8.47a56.06,56.06,0,0,1,9.58.5c11.16,1.31,21.24,5.14,29.65,12.83l.32.28c-.12-.36-.21-.39-.35-.23.48-.3.16-.66,0-1-.75-1.9-1.46-3.82-2.3-5.68-6.32-14-15.47-25.49-28.87-33.31S78.74,68.48,63.26,68.29c-.15,0-.31.16-.42.21V150h78.47c.74,0,1.48,0,2.23-.06-.19,3.72-.29,7.44-.76,11.14-1.13,9-3.56,17.5-8.46,25.18-9,14.05-22.24,21.31-38.3,24.1-2.11.37-4.25.54-6.34.8v12.21c13-.89,25-4.28,36-11.08a60.7,60.7,0,0,0,24.29-28.74c16.84,49.77,58.74,61.32,87.24,60.41v-10.6a18,18,0,0,0-4.12-.27c-11-.51-21.82-2.34-32-6.73-19.89-8.53-32.37-23.76-39.53-43.78A2.15,2.15,0,0,0,161.77,182.37Z"/><path class="cls-2" d="M156.53,150c.14-9.42,1.24-18.7,4.84-27.49,7.12-17.36,20.53-27,38.46-30.89a62.72,62.72,0,0,1,10.45-1.27V77.9c-27.15,2.63-48.51,13.73-60.26,39.67C135.39,76.49,105.24,57.91,62.78,57v-5.4h174.4v98.11c-.41.44-.94.28-1.41.28H157.41c-.31,0-.61,0-.92,0Z"/><path class="cls-2" d="M143.54,150c-.75,0-1.49.06-2.23.06H62.84V68.5c.11,0,.27-.21.42-.21,15.48.19,30.32,3,43.86,10.91S129.67,98.55,136,112.51c.84,1.86,1.55,3.78,2.3,5.68.12.3.44.66,0,1l0-.05c-8.41-7.69-18.49-11.52-29.65-12.83a56.06,56.06,0,0,0-9.58-.5v8.47c3.33.21,6.72.31,10.07.81,10.42,1.57,19.68,5.41,26.49,13.87,4.94,6.14,7.25,13.31,7.89,21.08Z"/><path class="cls-2" d="M161.49,182.6c7.16,20,19.64,35.25,39.53,43.78,10.22,4.39,21,6.22,32,6.73a18,18,0,0,1,4.12.27V244c-28.5.91-70.4-10.64-87.24-60.41a60.7,60.7,0,0,1-24.29,28.74c-11,6.8-23,10.19-36,11.08V211.18c2.09-.26,4.23-.43,6.34-.8,16.06-2.79,29.34-10,38.3-24.1,4.9-7.68,7.33-16.22,8.46-25.18.47-3.7.57-7.42.76-11.14l0,0,13,0,0,0c.95,12,5.46,22.19,15.56,29.34,6.66,4.7,14.26,6.77,22.28,7.48,2.16.19,4.32.28,6.59.42v8.51c-14.61-.11-28-3.31-39.15-13.36-.05-.17-.11-.34-.41-.23Z"/><path class="cls-3" d="M138.25,119.15c.14-.16.23-.13.35.23l-.32-.28Z"/><path class="cls-2" d="M161.49,182.6l-.13-.46c.3-.11.36.06.41.23A2.15,2.15,0,0,1,161.49,182.6Z"/></svg>