<svg id="Layer_1" data-name="Layer 1" xmlns="http://www.w3.org/2000/svg" viewBox="0 0 300 300"><path d="M186.52967,197.883c0,9.21882-5.16157,20.2812-21.05843,20.2812h-9.13679c-4.30331,0-5.85979,0-5.85979-17.82345v-26.181h7.94843C181.94227,174.1598,186.52967,190.42577,186.52967,197.883Z" fill="#fff"/><path d="M173.82979,139.70228c-1.27038,8.93172-7.49829,18.31459-23.35513,21.51057v8.64464c13.31607,0,15.89686.123,20.36222,1.14735,6.598-3.60611,10.89933-8.52261,10.89933-16.43h.082C181.81823,146.9945,178.25315,142.28307,173.82979,139.70228Zm-20.40623-2.54078c-2.17066,0-2.9489,0-2.9489,2.6228v15.73281c8.39857-3.401,11.43149-11.39048,11.51352-18.35561Zm20.40623,2.54078c-1.27038,8.93172-7.49829,18.31459-23.35513,21.51057v8.64464c13.31607,0,15.89686.123,20.36222,1.14735,6.598-3.60611,10.89933-8.52261,10.89933-16.43h.082C181.81823,146.9945,178.25315,142.28307,173.82979,139.70228Zm0,0c-1.27038,8.93172-7.49829,18.31459-23.35513,21.51057v8.64464c13.31607,0,15.89686.123,20.36222,1.14735,6.598-3.60611,10.89933-8.52261,10.89933-16.43h.082C181.81823,146.9945,178.25315,142.28307,173.82979,139.70228Zm-20.40623-2.54078c-2.17066,0-2.9489,0-2.9489,2.6228v15.73281c8.39857-3.401,11.43149-11.39048,11.51352-18.35561Zm-19.584-23.96932h-7.90841v18.80675H161.414C159.61145,123.96847,153.01544,113.19218,133.83958,113.19218Zm.49215,23.10906h-8.40056v3.07294c0,17.82344,1.55847,17.82344,5.85979,17.82344h6.556v-.57418C138.347,141.79092,138.05887,136.30124,134.33173,136.30124Zm0,0h-8.40056v3.07294c0,17.82344,1.55847,17.82344,5.85979,17.82344h6.556v-.57418C138.347,141.79092,138.05887,136.30124,134.33173,136.30124ZM140.1075,76.2349H128.8c-2.17066,0-2.9489,0-2.9489,2.58179v30.03317c13.35608,0,15.93687.163,20.36222,1.18736,6.596-3.6051,10.89933-8.5216,10.89933-16.429h.082C157.19471,80.94734,147.15565,76.2349,140.1075,76.2349Zm-6.26792,36.95728h-7.90841v18.80675H161.414C159.61145,123.96847,153.01544,113.19218,133.83958,113.19218Zm19.584,23.96932c-2.17066,0-2.9489,0-2.9489,2.6228v15.73281c8.39857-3.401,11.43149-11.39048,11.51352-18.35561Zm20.40623,2.54078c-1.27038,8.93172-7.49829,18.31459-23.35513,21.51057v8.64464c13.31607,0,15.89686.123,20.36222,1.14735,6.598-3.60611,10.89933-8.52261,10.89933-16.43h.082C181.81823,146.9945,178.25315,142.28307,173.82979,139.70228Zm0,0c-1.27038,8.93172-7.49829,18.31459-23.35513,21.51057v8.64464c13.31607,0,15.89686.123,20.36222,1.14735,6.598-3.60611,10.89933-8.52261,10.89933-16.43h.082C181.81823,146.9945,178.25315,142.28307,173.82979,139.70228Zm-23.35513.082v15.73281c8.39857-3.401,11.43149-11.39048,11.51352-18.35561h-8.56462C151.2529,137.1615,150.47466,137.1615,150.47466,139.7843Zm-16.63508-26.59212h-7.90841v18.80675H161.414C159.61145,123.96847,153.01544,113.19218,133.83958,113.19218Zm23.27311-19.584h.082c0-12.66086-10.03906-17.3733-17.08721-17.3733H128.8c-2.17066,0-2.9489,0-2.9489,2.58179v30.03317c13.35608,0,15.93687.163,20.36222,1.18736C152.80938,106.43212,157.11269,101.51562,157.11269,93.6082Zm-22.781,42.693h-8.40056v3.07294c0,17.82344,1.55847,17.82344,5.85979,17.82344h6.556v-.57418C138.347,141.79092,138.05887,136.30124,134.33173,136.30124ZM60.007,49.35769V245.04244H240V49.35769ZM162.35629,223.36783h-32.9V219.0245h6.71806A1.96019,1.96019,0,0,0,138.347,217.222a1.024,1.024,0,0,0,0-.49215V162.40021H104.83072v-4.34233h6.76007c1.55847,0,2.13065-.9843,2.13065-2.2947V95.61481c0-14.79051-.28609-20.28119-4.01523-20.28119h-8.5226V71.03131h43.10516c14.34038,0,24.09136,7.90841,24.09136,20.28219,0,10.20212-8.31854,16.55306-17.0452,19.87107v.28709c11.18541,2.25369,20.85436,9.54691,22.49486,20.89638,11.55353,1.59749,19.09183,9.05476,19.09183,19.91208,0,10.20211-8.27652,16.553-17.0432,19.87207v.28608c12.33177,2.41774,22.821,11.06338,22.821,24.46147C198.69939,208.82238,190.62692,223.36783,162.35629,223.36783Zm19.37992-68.793h.082c0-7.58032-3.56508-12.29175-7.98844-14.87254-1.27038,8.93172-7.49829,18.31459-23.35513,21.51057v8.64464c13.31607,0,15.89686.123,20.36222,1.14735C177.4349,167.39873,181.73621,162.48223,181.73621,154.57482ZM150.47466,139.7843v15.73281c8.39857-3.401,11.43149-11.39048,11.51352-18.35561h-8.56462C151.2529,137.1615,150.47466,137.1615,150.47466,139.7843Zm-24.54349-26.59212v18.80675H161.414c-1.80255-8.03046-8.39856-18.80675-27.57442-18.80675Zm31.18152-19.584h.082c0-12.66086-10.03906-17.3733-17.08721-17.3733H128.8c-2.17066,0-2.9489,0-2.9489,2.58179v30.03317c13.35608,0,15.93687.163,20.36222,1.18736C152.80938,106.43212,157.11269,101.51562,157.11269,93.6082Zm-22.781,42.693h-8.40056v3.07294c0,17.82344,1.55847,17.82344,5.85979,17.82344h6.556v-.57418C138.347,141.79092,138.05887,136.30124,134.33173,136.30124Zm0,0h-8.40056v3.07294c0,17.82344,1.55847,17.82344,5.85979,17.82344h6.556v-.57418C138.347,141.79092,138.05887,136.30124,134.33173,136.30124ZM140.1075,76.2349H128.8c-2.17066,0-2.9489,0-2.9489,2.58179v30.03317c13.35608,0,15.93687.163,20.36222,1.18736,6.596-3.6051,10.89933-8.5216,10.89933-16.429h.082C157.19471,80.94734,147.15565,76.2349,140.1075,76.2349Zm-6.26792,36.95728h-7.90841v18.80675H161.414C159.61145,123.96847,153.01544,113.19218,133.83958,113.19218Zm19.584,23.96932c-2.17066,0-2.9489,0-2.9489,2.6228v15.73281c8.39857-3.401,11.43149-11.39048,11.51352-18.35561Zm20.40623,2.54078c-1.27038,8.93172-7.49829,18.31459-23.35513,21.51057v8.64464c13.31607,0,15.89686.123,20.36222,1.14735,6.598-3.60611,10.89933-8.52261,10.89933-16.43h.082C181.81823,146.9945,178.25315,142.28307,173.82979,139.70228Zm0,0c-1.27038,8.93172-7.49829,18.31459-23.35513,21.51057v8.64464c13.31607,0,15.89686.123,20.36222,1.14735,6.598-3.60611,10.89933-8.52261,10.89933-16.43h.082C181.81823,146.9945,178.25315,142.28307,173.82979,139.70228Zm-20.40623-2.54078c-2.17066,0-2.9489,0-2.9489,2.6228v15.73281c8.39857-3.401,11.43149-11.39048,11.51352-18.35561Zm-19.584-23.96932h-7.90841v18.80675H161.414C159.61145,123.96847,153.01544,113.19218,133.83958,113.19218ZM140.1075,76.2349H128.8c-2.17066,0-2.9489,0-2.9489,2.58179v30.03317c13.35608,0,15.93687.163,20.36222,1.18736,6.596-3.6051,10.89933-8.5216,10.89933-16.429h.082C157.19471,80.94734,147.15565,76.2349,140.1075,76.2349Zm-5.77577,60.06634h-8.40056v3.07294c0,17.82344,1.55847,17.82344,5.85979,17.82344h6.556v-.57418C138.347,141.79092,138.05887,136.30124,134.33173,136.30124Zm19.09183.86026c-2.17066,0-2.9489,0-2.9489,2.6228v15.73281c8.39857-3.401,11.43149-11.39048,11.51352-18.35561Zm20.40623,2.54078c-1.27038,8.93172-7.49829,18.31459-23.35513,21.51057v8.64464c13.31607,0,15.89686.123,20.36222,1.14735,6.598-3.60611,10.89933-8.52261,10.89933-16.43h.082C181.81823,146.9945,178.25315,142.28307,173.82979,139.70228Zm0,0c-1.27038,8.93172-7.49829,18.31459-23.35513,21.51057v8.64464c13.31607,0,15.89686.123,20.36222,1.14735,6.598-3.60611,10.89933-8.52261,10.89933-16.43h.082C181.81823,146.9945,178.25315,142.28307,173.82979,139.70228Zm0,0c-1.27038,8.93172-7.49829,18.31459-23.35513,21.51057v8.64464c13.31607,0,15.89686.123,20.36222,1.14735,6.598-3.60611,10.89933-8.52261,10.89933-16.43h.082C181.81823,146.9945,178.25315,142.28307,173.82979,139.70228Zm-20.40623-2.54078c-2.17066,0-2.9489,0-2.9489,2.6228v15.73281c8.39857-3.401,11.43149-11.39048,11.51352-18.35561Zm0,0c-2.17066,0-2.9489,0-2.9489,2.6228v15.73281c8.39857-3.401,11.43149-11.39048,11.51352-18.35561Z" fill="#fff"/><rect x="60" y="245.02417" width="179.98596" height="5.61814" fill="#a40c25"/></svg>