<svg id="Layer_1" data-name="Layer 1" xmlns="http://www.w3.org/2000/svg" viewBox="0 0 300 300"><defs><style>.cls-1{fill:#fff;}</style></defs><title>BSX_Dark_bg</title><path class="cls-1" d="M238.87,143.88a6.42,6.42,0,0,0-1.09-1.31,5.88,5.88,0,0,0-3.76-1.19c-2,.14-4,.19-5.71,1.19a8.09,8.09,0,0,0-4,6.58c-.22,2.09-.31,4.2-.35,6.29,0,1.73.1,3.47.16,5.3.14,0,.43,0,.72,0h12.61a9.24,9.24,0,0,0,4.68-1.24v26.15h5.2v1.45H231.52v-1.39h4.13V162.32H223.93v23.36h4.66l.09,1.44H212.32v-1.38h5.13V162.28h-5.81V160.8h5.77c0-.71,0-1.35,0-2a24,24,0,0,1,1.33-9.6c2.12-5.46,6.27-8.82,12.36-9.23a14.33,14.33,0,0,1,7.27.94c2.66,1.27,4.47,3.12,4.15,6.1a3.6,3.6,0,0,1-2.69,3.11,3.36,3.36,0,0,1-3.57-1.24c-1.29-1.49-.7-2.38.45-3.47A20.88,20.88,0,0,1,238.87,143.88Z"/><path class="cls-1" d="M63.78,113H59.35v-1.41c.27,0,.53-.06.79-.06,5.66,0,11.33.09,17,.08a15.82,15.82,0,0,1,7.42,1.65c2,1,3.8,2.59,4.24,5.08a9.82,9.82,0,0,1,.33,2.87,8.54,8.54,0,0,1-2.19,5,11,11,0,0,1-6.63,3.17c-.24,0-.47.05-.71.09a3.55,3.55,0,0,0-.45.22l2.2.41c3,.49,5.75,1.49,7.72,3.85a9.13,9.13,0,0,1,1.61,3.52,8.87,8.87,0,0,1-.87,6.59,10.31,10.31,0,0,1-5.45,4.64,28.32,28.32,0,0,1-11.12,1.81c-4.44,0-8.88-.21-13.32-.32a2.73,2.73,0,0,1-.39-.07v-1.5h4.26Zm6.89,35.73a43.24,43.24,0,0,0,4.84,0,9.35,9.35,0,0,0,7.24-4.32,9.11,9.11,0,0,0,1-7.33c-1.08-4.09-4.06-6-8-6.81a13.88,13.88,0,0,0-5.06,0Zm0-19.86A12.27,12.27,0,0,0,78,127.83a8.45,8.45,0,0,0,3.7-3.84,6.52,6.52,0,0,0,.23-5.75,8.24,8.24,0,0,0-6-4.89,12.71,12.71,0,0,0-5.32-.27Z"/><path class="cls-1" d="M54.51,142.5H56v13.21H54.33c-.08-.51-.13-1-.24-1.56-1.22-5.57-5.61-10.57-11.63-11.46A10.46,10.46,0,0,0,35,144.42c-3.06,2-3.85,5-3.41,8.35a5.77,5.77,0,0,0,2.8,3.95c2.91,1.91,6.27,2.65,9.57,3.54s6.66,1.66,9.6,3.48a10.64,10.64,0,0,1,2.94,2.69,13.62,13.62,0,0,1,1.92,12.17,12.06,12.06,0,0,1-4.65,6.86,16,16,0,0,1-8,2.67,22.1,22.1,0,0,1-9.82-1.37,20.49,20.49,0,0,0-3.79-1c-1.68-.29-2.25.13-2.8,1.81H27.78V171.51h1.33c.51,1.82.95,3.63,1.53,5.39a13.61,13.61,0,0,0,5.73,7.49A13,13,0,0,0,48,185.74a10.05,10.05,0,0,0,5.52-4.39c1.14-1.86,1.44-5.65-.28-7.89a22.18,22.18,0,0,0-2.33-2.77c-1.88-1.77-4.3-2.29-6.75-2.78A41.49,41.49,0,0,1,34.28,165a12.93,12.93,0,0,1-4-3,10.63,10.63,0,0,1-2.61-6.19,14.51,14.51,0,0,1,.86-7.94c1.68-3.8,6.9-7.35,11.82-7.1a24.83,24.83,0,0,1,6.78,1.42c1.52.51,3,1.08,4.57,1.52S53.76,143.93,54.51,142.5Z"/><path class="cls-1" d="M135.71,185.71h4.91V162.26h-4.9v-1.48c2,0,4,.05,5.93,0a34.44,34.44,0,0,0,4.17-.42,4.42,4.42,0,0,0,1.29-.73v5c.66-.6,1.16-1,1.63-1.49a12.39,12.39,0,0,1,11.77-3.53,7.68,7.68,0,0,1,6.28,6.84c.06.77.15,1.54.15,2.31,0,5.25,0,10.51,0,15.76v1.17h5.16v1.41H155.86v-1.41h4.58v-1.15c0-6.12-.11-12.24,0-18.35a4.36,4.36,0,0,0-5.59-4.5,11.13,11.13,0,0,0-5.36,3,13.91,13.91,0,0,0-1.56,1.7,2.91,2.91,0,0,0-.63,1.5c-.05,5.7,0,11.4,0,17.1,0,.18,0,.35,0,.64h4.79v1.46H135.71Z"/><path class="cls-1" d="M188.93,128.33h-4.66V127c1.77,0,3.52,0,5.27,0s3.53.15,5.14-1.08v4.44a15.38,15.38,0,0,0,1.47-1.21,11.24,11.24,0,0,1,11.77-2.73,6.3,6.3,0,0,1,3.83,5.57c0,5.16,0,10.33,0,15.49v1.09h3.48v1.55H202.1v-1.5h3.64c0-.43,0-.75,0-1.07V132.27a3.78,3.78,0,0,0-4.84-3.73,9.93,9.93,0,0,0-4.9,3,4.3,4.3,0,0,0-1.22,3.35c0,4.18,0,8.36,0,12.54v1.16h4.47v1.51H184.25v-1.46h4.68Z"/><path class="cls-1" d="M131.53,178.32h1.64a8.41,8.41,0,0,1-1.36,4.22,15.81,15.81,0,0,1-3,3.22c-3,2.42-6.54,2.85-10.23,2.11a11.69,11.69,0,0,1-8-5.54,15.43,15.43,0,0,1-2.14-9.3,22.62,22.62,0,0,1,.56-3.44,11.29,11.29,0,0,1,3.16-5.69c3.62-3.72,8.72-5.52,14.19-3.34,3.56,1.42,6.28,3.74,7.24,7.63a23.26,23.26,0,0,1,.35,3.26H115.79c-.1.13-.18.2-.19.27a29.26,29.26,0,0,0,.4,9.52c.82,3.21,3.06,4.73,6.35,4.93C126.68,186.44,130.68,183,131.53,178.32ZM127.34,170c.24-2.19.28-4.18-.85-6.12a5.6,5.6,0,0,0-7.66-2A7.38,7.38,0,0,0,116,170Z"/><path class="cls-1" d="M158.78,138.52a12,12,0,0,1,12.52-12.34c7.8.08,12.67,5.22,12.6,12.44s-4.78,12.29-12.61,12.37A12,12,0,0,1,158.78,138.52Zm19.08.52c-.11-2.27-.08-3.87-.3-5.42-.42-3-1.69-5.36-4.78-5.83-3.56-.54-7.05.75-7.35,4.88a82.32,82.32,0,0,0,.06,12c.22,3,1.91,4.4,4.9,4.77,3.57.44,6-1,6.83-4.57A38.68,38.68,0,0,0,177.86,139Z"/><path class="cls-1" d="M106.5,126.16A12.16,12.16,0,0,1,119,138.67c-.05,7.19-5.4,12.34-12.63,12.32S94,146,94,138.47,99.46,126.13,106.5,126.16Zm4,2.57a20,20,0,0,0-2.68-.89c-4.18-.82-7,1.25-7.58,5.31a68.35,68.35,0,0,0-.21,8.83,10.11,10.11,0,0,0,.38,3c.68,2.15,1.85,4,4.33,4.3a11.91,11.91,0,0,0,3.1,0,4.42,4.42,0,0,0,3.77-2.87,7.09,7.09,0,0,0,.59-2.23q.19-5.1.22-10.2A7.81,7.81,0,0,0,110.55,128.73Z"/><path class="cls-1" d="M81.5,165.25c1.42-.84,1.44-1.9.14-2.84a7.21,7.21,0,0,0-5.53-1c-3.76.51-5.38,3.64-5.94,6.49-.76,3.89-.32,7.83-.25,11.74a8.63,8.63,0,0,0,1.64,4.34,5.86,5.86,0,0,0,2.87,1.82,7.79,7.79,0,0,0,6.78-.76,10.44,10.44,0,0,0,4.88-6.44h1.55a11.65,11.65,0,0,1-3.49,6.59c-4.35,4-9.24,4-14.33,1.75a12.69,12.69,0,0,1-3-2.13,11.24,11.24,0,0,1-3.71-7,16.51,16.51,0,0,1-.31-4.3,18,18,0,0,1,1.82-6.94,12.61,12.61,0,0,1,7.77-6,16.73,16.73,0,0,1,9.51.05,9.23,9.23,0,0,1,5,3.36,4.35,4.35,0,0,1-.73,5.16,3.57,3.57,0,0,1-4.52-.18,2.21,2.21,0,0,1-.59-2.46A9.67,9.67,0,0,1,81.5,165.25Z"/><path class="cls-1" d="M270.76,178.54h1.74c-1.53,6.4-7.16,11.05-14.31,9.51a13.47,13.47,0,0,1-7.69-4.66,15.74,15.74,0,0,1-2.23-3.92,13,13,0,0,1-.65-8.22c1.31-6.14,5.54-10.59,12.24-11.43a13.69,13.69,0,0,1,9.32,1.88c2.47,1.55,3.75,3.47,2.73,6a3.63,3.63,0,0,1-3.5,2,2.63,2.63,0,0,1-2.62-1.79,2.66,2.66,0,0,1,1.35-3.15c.43-1.06.35-1.63-.45-2.18-4.37-3-10.06-1.16-11.41,3.93-1.13,4.26-.87,8.55-.6,12.84a9.41,9.41,0,0,0,1.18,3.68c1.33,2.51,4.78,3.53,7.48,2.89A9.33,9.33,0,0,0,270.76,178.54Z"/><path class="cls-1" d="M182.72,152.78v8h7.52v1.44h-7.52v1.06c0,6.3,0,12.59,0,18.89a6.18,6.18,0,0,0,.47,2.61,2.64,2.64,0,0,0,1.62,1.18,4.64,4.64,0,0,0,5-2c.16-.21.3-.43.49-.71l1.4.66a7.29,7.29,0,0,1-3.23,3.35,10.57,10.57,0,0,1-6.18.83,7.46,7.46,0,0,1-4.1-1.51,5.08,5.08,0,0,1-1.92-4q0-6.31,0-12.62c0-2.51,0-5,0-7.65H171v-1.38a38.08,38.08,0,0,0,3.93-.44,7.71,7.71,0,0,0,6.36-6.82C181.44,152.74,181.86,152.58,182.72,152.78Z"/><path class="cls-1" d="M137.64,132.92c-.85.27-1.31,0-1.58-.94a6.11,6.11,0,0,0-2.34-3.48,5.55,5.55,0,0,0-5.83-.49,6.74,6.74,0,0,0-2.38,1.78,2.74,2.74,0,0,0,1.24,4.46,22.27,22.27,0,0,0,5.08,1.22c2.9.31,5.43,1.23,7,3.74a6.84,6.84,0,0,1,.61,6.2c-1.25,3.53-3.5,5.33-7.52,5.64a13,13,0,0,1-6.42-1.21,7,7,0,0,0-1.86-.28l-.42,1.12h-1.39v-8.44H123c.11.49.21,1,.32,1.46a7.44,7.44,0,0,0,10.6,5.11,3.51,3.51,0,0,0,2.13-3.42,4.29,4.29,0,0,0-2-3.83c-1.53-1-3.28-.72-4.93-1a9.79,9.79,0,0,1-5.27-2.6A5.87,5.87,0,0,1,122,133.8c.07-4.2,2.49-7.32,7-7.63a14,14,0,0,1,5.57.94c.42.14.86.22,1.33.34.3-.78.72-1.31,1.73-1Z"/><path class="cls-1" d="M89.9,185.71h5.26V162.3H90.51v-1.52c1.88,0,3.78,0,5.68,0a9.56,9.56,0,0,0,5.44-1.32V185.7H106v1.43H89.9Z"/><path class="cls-1" d="M158.15,146.75l.73,1c-1.18,3.28-9.55,5.13-13.41.46-.07-.83-.26-1.89-.26-2.95,0-5.25,0-10.51,0-15.76v-1.19H141v-1.2c5.06-.26,8.27-2.71,9.2-7.9h1.06V127H158v1.31h-6.76v1.1c0,5.44,0,10.87,0,16.3a3,3,0,0,0,1.17,2.82,3.47,3.47,0,0,0,3.74-.12A22.85,22.85,0,0,0,158.15,146.75Z"/><path class="cls-1" d="M209.23,185.69v1.44H193.17v-1.39h5.29v-23.5h-4.38v-1.37c3.57-.46,7.35.73,10.8-1.33v26.15Z"/></svg>