<svg id="Layer_1" data-name="Layer 1" xmlns="http://www.w3.org/2000/svg" viewBox="0 0 300 300"><defs><style>.cls-1{fill:#fff;}</style></defs><path id="path27464" class="cls-1" d="M115.38,48.8l35,35.61L185.14,48.8h65.47v90.77l-27.13-.26-9.25,10.95,9.25,9.91h27.13V181H215.27l-65.2-64.69v20.09L208.75,196l41.86.26v19.57H200.27c-17-15.52-33.25-33.65-50.2-49.17v19.17l45.25,45.51,55.29.27V251.2h-63.9l-36.25-35.34L116.29,251.2H49.39v-91l28.17-.26,9.65-9.65-9.65-10.95H49.39V120H86.3l15.51,15,10.44-10.69L93.08,105.4H49.39V84.14h50L125.68,110l10-10.3L106.12,69.8H49.39v-21Z"/></svg>