<svg id="Layer_1" data-name="Layer 1" xmlns="http://www.w3.org/2000/svg" viewBox="0 0 300 300"><defs><style>.cls-1{fill:#fff;}</style></defs><path class="cls-1" d="M22.85,68.94a4.3,4.3,0,0,1,2.63-.74c4.22.06,8.44,0,12.66,0,2,0,2.47.46,2.47,2.53,0,11,.06,21.93,0,32.89,0,1.95.61,2.29,2.37,2.26,6.54-.08,13.08-.14,19.61,0a44.07,44.07,0,0,1,4.34,87.76,43.21,43.21,0,0,1-5.68.36c-11.83,0-23.65,0-35.47,0a3.52,3.52,0,0,1-2.88-1Zm17.77,81c0,8.18,0,16.36,0,24.53,0,1.51.44,1.85,1.89,1.83,5.34-.09,10.69-.05,16,0a37.68,37.68,0,0,0,7.28-.43A26.42,26.42,0,0,0,87.36,147.2c-1.11-13-12.64-23.42-26.21-23.53-6.29,0-12.59,0-18.88,0-1.31,0-1.7.29-1.69,1.65C40.65,133.51,40.62,141.75,40.62,150Z"/><path class="cls-1" d="M194.65,168.91V109c0-2.89.24-3.13,3.17-3.13,12.24,0,24.48-.12,36.71.1,19.71.35,37.13,14.76,41.5,34.05a44.15,44.15,0,0,1-37.25,53.69c-5.61.76-11.27.29-16.91.37-2.61,0-5.23.08-7.84,0-1.25,0-1.58.32-1.58,1.57.05,11,0,22,0,33.07,0,2.68-.41,3.09-3.06,3.1H197.66c-2.56,0-3-.44-3-3Zm17.83-19v23.63c0,2.75,0,2.75,2.85,2.75,5.7,0,11.4,0,17.1,0a29.48,29.48,0,0,0,6.36-.67,26.44,26.44,0,0,0,20.43-28.36c-1.16-12.65-12.16-23.15-24.9-23.53-6.83-.21-13.66,0-20.48-.12-1.35,0-1.37.59-1.37,1.59Q212.5,137.57,212.48,149.92Z"/><path class="cls-1" d="M143.27,165.72a51.54,51.54,0,0,0-4.74,6.17Q131,182,123.61,192.23a4,4,0,0,1-3.69,1.9c-5.94-.1-11.87,0-17.81,0-.62,0-1.41.29-1.8-.4s.31-1.32.7-1.86q14.74-20.15,29.48-40.27a4.24,4.24,0,0,0,1.1-1.8c1.44-1.18,2.28-2.83,3.34-4.29,2.71-3.76,5.69-7.34,8.1-11.32a56.53,56.53,0,0,0,4.94-6.48q7.41-10,14.7-20.1a3.73,3.73,0,0,1,3.42-1.72c6,.08,12,0,18,0,.67,0,1.53-.35,2,.4s-.35,1.3-.75,1.84q-14.76,20.16-29.55,40.3c-.39.52-.72,1.08-1.07,1.62-2.13,2.82-4.32,5.58-6.36,8.46C146.63,160.9,144.65,163.1,143.27,165.72Z"/><path class="cls-1" d="M143.27,165.72c1.38-2.62,3.36-4.82,5.06-7.21,2-2.88,4.23-5.64,6.36-8.46q15.24,20.79,30.5,41.56c.17.24.37.47.53.72s.64.78.39,1.28-.89.48-1.41.48h-6.42c-4.22,0-8.43,0-12.65,0a2.72,2.72,0,0,1-2.47-1.09Q153.23,179.36,143.27,165.72Z"/><path class="cls-1" d="M143,134.14c-2.41,4-5.39,7.56-8.1,11.32-1.06,1.46-1.9,3.11-3.34,4.29q-9.86-13.38-19.7-26.78c-3.68-5-7.35-10-11-15.07-.35-.47-.9-.9-.63-1.56s1-.45,1.57-.46c6.24,0,12.48,0,18.72,0a3.15,3.15,0,0,1,2.81,1.49Q133.15,120.77,143,134.14Z"/></svg>