<svg id="Layer_1" data-name="Layer 1" xmlns="http://www.w3.org/2000/svg" xmlns:xlink="http://www.w3.org/1999/xlink" viewBox="0 0 300 300"><defs><style>.cls-1{fill:none;}.cls-2{clip-path:url(#clip-path);}.cls-3{clip-path:url(#clip-path-2);}.cls-4{fill:#95d8e8;}.cls-5{fill:#0e7ec3;}.cls-6{fill:#46c4e3;}.cls-7{clip-path:url(#clip-path-3);}.cls-8{fill:#057a3e;}.cls-9{fill:#a4ce4e;}.cls-10{fill:#63ba46;}.cls-11{clip-path:url(#clip-path-5);}.cls-12{clip-path:url(#clip-path-6);}.cls-13{fill:#e72f2b;}.cls-14{fill:#c22926;}.cls-15{fill:#e75527;}</style><clipPath id="clip-path"><rect class="cls-1" x="167.89" y="175.81" width="108.76" height="42.69"/></clipPath><clipPath id="clip-path-2"><rect class="cls-1" x="167.89" y="175.81" width="108.78" height="42.69"/></clipPath><clipPath id="clip-path-3"><rect class="cls-1" x="104.77" y="81.46" width="90.57" height="112.06"/></clipPath><clipPath id="clip-path-5"><rect class="cls-1" x="23.35" y="175.88" width="111.96" height="42.66"/></clipPath><clipPath id="clip-path-6"><rect class="cls-1" x="23.37" y="175.88" width="111.94" height="42.66"/></clipPath></defs><g class="cls-2"><g class="cls-3"><polygon class="cls-4" points="212.06 183.49 212.83 183.37 213.59 183.23 214.34 183.04 215.11 182.92 215.86 182.74 216.6 182.5 217.32 182.19 218.02 181.99 218.71 181.78 219.38 181.49 220.11 181.39 220.79 181.17 221.5 181.07 222.2 180.85 222.93 180.78 223.65 180.71 224.38 180.68 225.09 180.63 225.83 180.63 226.56 180.63 227.29 180.63 228.02 180.61 228.74 180.64 229.47 180.66 230.16 180.9 230.91 180.9 231.63 181.02 232.33 181.21 233.02 181.43 233.36 181.51 233.72 181.6 234.45 181.66 235.13 181.9 235.8 182.23 236.53 182.45 237.26 182.74 238.01 182.94 238.76 183.11 239.52 183.25 240.27 183.43 241.06 183.5 241.06 183.5 241.84 183.43 242.6 183.59 243.39 183.6 244.15 183.59 244.93 183.45 245.7 183.49 246.47 183.31 246.86 183.28 247.23 183.23 248.01 183.18 248.75 182.86 249.48 182.63 249.85 182.55 250.24 182.48 250.99 182.28 251.69 181.97 252.39 181.68 253.12 181.48 253.87 181.36 253.87 181.15 253.19 180.83 252.59 180.37 251.86 180.15 251.23 179.72 250.55 179.42 249.85 179.15 249.14 178.96 248.47 178.57 247.74 178.41 247.04 178.14 246.35 177.87 245.65 177.62 244.93 177.41 244.19 177.24 243.49 177 242.74 176.88 242.01 176.71 241.29 176.53 240.54 176.46 239.81 176.31 239.06 176.27 238.31 176.22 237.58 176.02 236.84 176.05 236.09 175.95 235.34 175.85 234.59 175.83 233.84 175.85 233.09 175.85 232.34 175.91 231.59 175.83 230.85 175.95 230.1 175.97 229.37 176.17 228.6 176.24 227.87 176.37 227.14 176.56 226.42 176.8 225.69 177 224.96 177.17 224.23 177.38 223.5 177.56 222.83 177.96 222.1 178.14 221.39 178.35 220.72 178.75 219.99 178.94 219.28 179.2 218.65 179.61 217.95 179.91 217.25 180.2 216.55 180.49 215.92 180.9 215.21 181.14 214.51 181.43 213.85 181.8 213.22 182.23 212.56 182.57 211.86 182.86 211.18 183.23 211.28 183.4 212.06 183.49"/><polygon class="cls-5" points="191.68 197.25 192.43 197.28 193.14 197.27 193.87 197.23 194.6 197.35 195.32 197.45 196.03 197.5 196.76 197.64 197.48 197.66 198.19 197.83 198.91 197.93 199.57 198.25 200.3 198.36 200.95 198.71 201.68 198.8 202.38 199.16 203.11 199.43 203.84 199.65 204.61 199.78 205.36 199.99 206.14 200.11 206.91 200.13 207.69 200.07 208.45 200.19 209.24 200.28 210 200.19 210.78 200.13 211.57 200.09 212.33 200.04 213.1 199.96 213.85 199.68 214.6 199.53 215.38 199.44 216.09 199.17 216.83 198.9 217.47 198.58 218.19 198.41 218.87 198.15 219.6 198.1 220.3 197.9 220.98 197.62 221.73 197.62 222.42 197.44 223.16 197.44 223.87 197.28 224.6 197.34 225.32 197.3 226.06 197.35 226.78 197.34 227.51 197.25 228.24 197.3 228.96 197.37 229.67 197.52 230.05 197.56 230.4 197.59 231.12 197.66 231.82 197.9 232.53 198.07 233.19 198.31 233.91 198.44 234.57 198.73 235.27 198.94 236.02 199.17 236.77 199.33 237.5 199.62 238.26 199.75 239.01 199.9 239.78 200.01 240.54 200.18 241.33 200.25 242.09 200.16 242.88 200.18 243.64 200.13 244.42 200.19 245.21 200.16 245.97 200.11 246.74 199.96 247.5 199.85 248.24 199.5 249 199.39 249.7 199.05 250.48 198.95 251.11 198.58 251.81 198.37 252.52 198.22 253.2 197.98 253.94 197.91 254.29 197.79 254.63 197.69 255.35 197.54 256.06 197.5 256.42 197.42 256.78 197.34 257.51 197.42 258.24 197.37 258.97 197.32 259.69 197.28 260.42 197.27 261.13 197.4 261.86 197.45 262.6 197.49 263.31 197.5 264.04 197.59 264.77 197.62 265.45 197.91 266.17 198.03 266.85 198.27 267.05 198.32 267.55 198.47 268.21 198.73 268.91 198.94 269.64 199.1 270.3 199.43 271.04 199.56 271.77 199.75 271.95 199.53 271.48 198.94 271.15 198.27 270.78 197.62 270.51 196.91 269.98 196.35 269.59 195.72 269.25 195.04 268.86 194.41 268.3 193.86 267.99 193.18 267.39 192.67 267 192.04 266.56 191.43 266.1 190.84 265.57 190.31 265.06 189.75 264.59 189.17 264.01 188.69 263.46 188.18 262.88 187.71 262.32 187.19 261.78 186.7 261.2 186.22 260.66 185.73 260.2 185.61 259.41 185.76 258.65 185.76 257.87 185.66 257.1 185.83 256.35 186.02 255.59 186.19 254.8 186.19 254.07 186.46 253.37 186.8 252.64 187.04 251.93 187.23 251.25 187.47 250.51 187.57 249.83 187.77 249.14 188.03 248.78 188.1 248.44 188.16 247.71 188.2 247.01 188.33 246.29 188.52 245.56 188.52 244.83 188.56 244.1 188.5 243.39 188.64 242.65 188.49 241.92 188.56 241.21 188.47 240.48 188.5 239.76 188.35 239.05 188.22 238.31 188.16 237.6 188.01 236.92 187.77 236.19 187.71 235.54 187.38 234.79 187.3 234.15 186.96 233.43 186.67 232.67 186.55 231.92 186.34 231.17 186.17 230.44 185.87 229.66 185.82 228.89 185.68 228.12 185.63 227.34 185.65 226.56 185.71 225.79 185.73 225.01 185.65 224.23 185.68 223.46 185.78 222.7 185.88 221.91 186.02 221.16 186.24 220.47 186.56 219.72 186.75 218.97 186.94 218.27 187.16 217.59 187.42 216.93 187.72 216.21 187.88 215.52 188.08 214.8 188.22 214.09 188.33 213.35 188.28 212.64 188.37 212.37 188.45 211.93 188.59 211.19 188.61 210.48 188.66 209.75 188.54 208.98 188.52 208.22 188.54 207.43 188.57 206.67 188.5 205.92 188.35 205.15 188.23 204.41 188.11 203.66 187.96 203.54 187.91 202.94 188.35 202.29 188.73 201.75 189.27 201.05 189.56 200.46 190.02 199.83 190.41 199.22 190.84 198.59 191.26 198.01 191.7 197.43 192.2 196.83 192.66 196.17 193 195.63 193.52 195.03 193.98 194.43 194.43 193.79 194.8 193.19 195.26 192.61 195.74 191.98 196.13 191.44 196.66 190.79 197.03 190.93 197.4 191.68 197.25"/><polygon class="cls-6" points="276.65 216.9 276.56 216.17 276.48 215.51 276.46 215.42 276.51 214.67 276.31 213.96 276.29 213.21 276.07 212.48 276.11 211.73 275.78 211.03 275.8 210.27 275.48 209.59 275.34 208.85 275.1 208.16 275.14 207.37 274.83 206.68 274.57 205.98 274.25 205.31 274.2 205.26 273.49 205.15 272.79 205.03 272.43 204.94 272.09 204.87 271.39 204.7 270.66 204.77 269.95 204.62 269.33 204.19 268.64 204.06 267.97 203.82 267.24 203.73 266.56 203.34 265.78 203.27 265.1 202.83 264.28 202.88 263.55 202.68 262.78 202.49 262.02 202.41 261.23 202.49 260.47 202.24 259.69 202.24 258.92 202.27 258.14 202.37 257.37 202.47 256.61 202.59 255.84 202.63 255.09 202.88 254.7 202.88 254.29 202.87 253.56 203.12 252.85 203.44 252.11 203.66 251.47 204.02 250.74 204.11 250.06 204.41 249.34 204.55 248.61 204.57 247.91 204.74 247.2 204.87 246.5 204.99 245.78 205.13 245.05 205.28 244.34 205.28 243.61 205.28 242.88 205.16 242.14 205.15 241.79 205.25 241.41 205.35 240.7 205.08 239.98 205.01 239.23 205.16 238.5 205.06 237.82 204.79 237.11 204.67 236.39 204.55 235.71 204.28 234.98 204.21 234.32 203.9 233.67 203.55 232.91 203.43 232.14 203.26 231.39 203.07 230.68 202.76 229.91 202.69 229.16 202.47 228.4 202.34 227.6 202.41 226.83 202.3 226.06 202.37 225.28 202.39 224.52 202.47 223.72 202.41 222.97 202.59 222.19 202.58 221.42 202.71 220.65 202.88 219.96 203.22 219.24 203.5 218.44 203.58 217.81 203.97 217.08 204.06 216.6 204.18 216.38 204.23 215.69 204.48 214.97 204.58 214.31 204.96 213.59 205.03 212.86 204.96 212.15 205.18 211.43 205.28 210.7 205.3 209.97 205.33 209.24 205.15 208.5 205.16 207.79 205.13 207.06 205.15 206.33 205.11 205.63 204.92 204.88 205.08 204.15 204.94 203.45 204.77 202.74 204.6 202.07 204.26 201.41 204 200.7 203.87 200.03 203.58 199.23 203.5 198.5 203.29 197.8 202.88 197.06 202.73 196.27 202.71 195.9 202.54 195.52 202.39 194.76 202.3 194.71 202.3 193.97 202.29 193.19 202.34 192.43 202.35 192.03 202.34 191.64 202.32 190.88 202.49 190.09 202.39 189.31 202.41 188.56 202.69 187.78 202.69 187.02 202.85 186.3 203.17 185.53 203.32 185.18 203.48 184.82 203.63 184.85 203.7 184.87 203.77 184.16 204.02 183.46 204.29 182.75 204.58 182.08 204.94 181.38 205.25 180.67 205.54 180.06 205.98 179.41 206.39 178.88 206.95 178.32 207.46 177.69 207.88 177.13 208.38 176.55 208.87 176.01 209.38 175.43 209.86 174.97 210.45 174.41 210.95 173.83 211.42 173.28 211.92 172.67 212.38 172.21 212.99 171.62 213.45 170.99 213.86 170.49 214.44 170 215 169.34 215.37 168.79 215.88 168.4 216.56 167.89 217.06 168.03 217.04 168.76 217.26 169.49 217.55 170.26 217.65 170.99 217.92 171.72 218.23 172.5 218.18 173.28 218.18 174.05 218.35 174.82 218.35 175.6 218.38 176.38 218.52 177.15 218.28 177.93 218.35 178.7 218.3 179.46 218.11 180.21 217.91 181.01 217.91 181.72 217.58 182.41 217.21 183.2 217.14 183.9 216.95 184.55 216.58 185.25 216.39 185.93 216.17 186.68 216.15 187.34 215.81 188.07 215.75 188.78 215.66 189.52 215.63 190.25 215.66 190.96 215.59 191.69 215.56 192.43 215.54 193.14 215.59 193.87 215.39 194.59 215.56 195.32 215.57 196.05 215.59 196.75 215.86 197.46 215.97 198.18 216.09 198.88 216.26 199.62 216.27 200.27 216.65 200.93 216.94 201.7 216.97 202.38 217.33 203.15 217.51 203.88 217.72 204.61 218.01 205.39 217.99 206.14 218.25 206.91 218.37 207.69 218.31 208.45 218.25 209.24 218.49 210.02 218.47 210.78 218.3 211.55 218.23 212.35 218.35 213.12 218.18 213.85 217.92 214.58 217.67 215.38 217.65 216.09 217.31 216.78 216.95 217.47 216.77 218.19 216.58 218.92 216.51 219.6 216.26 220.3 216.09 221.01 215.97 221.73 215.83 222.44 215.78 223.14 215.54 223.87 215.47 224.6 215.39 225.32 215.47 226.06 215.37 226.78 215.37 227.49 215.61 228.23 215.64 228.96 215.63 229.67 215.73 230.39 215.88 231.13 215.78 231.83 216 232.53 216.24 233.19 216.51 233.93 216.6 234.57 216.92 235.29 217.07 236.03 217.31 236.73 217.69 237.48 217.89 238.28 217.87 239.03 218.06 239.78 218.21 240.56 218.21 241.33 218.35 242.09 218.42 242.88 218.33 243.64 218.37 244.42 218.23 245.19 218.21 245.97 218.19 246.74 218.14 247.52 218.06 248.24 217.72 248.98 217.55 249.48 217.4 249.72 217.31 250.5 217.18 251.16 216.92 251.81 216.56 252.49 216.27 253.2 216.12 253.95 216.17 254.62 215.83 255.33 215.68 256.06 215.64 256.78 215.51 257.51 215.49 258.24 215.57 258.97 215.56 259.69 215.47 260.42 215.46 261.13 215.64 261.86 215.63 262.6 215.64 263.31 215.73 264.02 215.81 264.76 215.85 265.47 216.02 266.19 216.15 266.88 216.31 267.58 216.53 268.28 216.73 268.94 217.02 269.64 217.38 270.42 217.45 271.15 217.7 271.89 217.99 272.63 218.21 273.42 218.21 274.2 218.19 274.95 218.49 275.73 218.37 276.51 218.31 276.6 218.33 276.67 217.65 276.65 216.9"/></g></g><g class="cls-7"><g class="cls-7"><polygon class="cls-8" points="119.74 115.6 119.77 116.04 120.52 116.67 121.07 117.31 121.37 117.54 121.53 117.69 122 118.11 122.34 118.63 123.04 119.2 123.52 119.59 124.06 120.24 124.86 121.14 125.76 121.94 126.66 122.74 127.41 123.68 128.35 124.44 129.22 125.26 129.28 125.33 129.49 125.57 130.08 126.26 130.71 126.93 130.73 126.94 130.83 127.05 131.6 127.68 131.96 128.24 132.6 128.68 133.44 129.5 134.17 130.47 134.54 130.77 134.54 130.77 134.54 130.79 135.09 131.25 135.48 131.57 135.8 132.08 136.47 132.7 136.6 132.78 136.75 132.97 137.6 133.78 137.74 133.97 137.94 134.18 138.42 134.7 139.29 135.5 140.11 136.39 140.56 136.73 140.92 137.19 141.57 137.82 141.77 137.95 141.84 138.04 142.54 138.58 142.88 139.06 143.29 139.49 143.49 139.76 144.36 140.46 144.77 141 145.45 141.46 146.13 142.21 146.21 142.16 146.79 142.28 147.35 141.75 147.35 140.86 147.29 140.42 147.35 139.3 147.24 138.14 147.24 137.75 147.29 136.87 147.29 136.59 147.29 136.42 147.25 136.13 147.24 135.64 147.18 134.96 147.18 134.64 147.24 133.85 147.32 133.21 147.3 132.93 147.3 132.88 147.37 132 147.22 131.1 147.27 130.23 147.27 130.13 147.37 129.56 147.27 128.63 147.27 128.44 147.39 127.56 147.34 126.67 147.27 126.21 147.3 125.91 147.25 125.52 147.37 124.9 147.22 124.22 147.32 123.47 147.25 122.66 147.34 122.25 147.15 121.58 147.06 120.94 146.25 119.92 145.96 119.59 145.69 119.19 144.97 118.61 144.34 117.94 144.14 117.77 143.8 117.33 143.01 116.67 142.39 116.04 141.82 115.31 141.14 114.69 140.97 114.56 140.45 113.96 139.63 113.28 139.25 112.7 138.51 112.24 137.93 111.48 137.3 110.9 137.26 110.85 136.65 110.19 136 109.67 135.46 108.93 134.58 108.14 134.47 108.06 134.12 107.56 133.38 107.02 132.77 106.32 132.16 105.66 131.51 105.01 131.02 104.67 130.34 104.01 130.02 103.62 129.63 103.06 128.77 102.94 128.06 103.23 127.43 103.87 127.17 104.5 126.58 105.08 125.92 106.07 125.61 106.46 125.34 106.75 125.29 106.83 125.17 106.99 125.03 107.17 124.83 107.46 124.37 108.23 123.87 108.96 123.75 109.13 123.02 109.81 122.33 110.78 121.73 111.8 121.03 112.75 120.84 113.04 120.66 113.21 120.32 113.84 119.65 114.68 119.69 114.98 119.62 115.36 119.74 115.6"/><polygon class="cls-9" points="132.91 98.51 132.91 98.51 132.98 98.6 133.56 99.19 133.84 99.48 134.63 100.33 134.83 100.57 135.1 100.78 135.55 101.19 136.06 101.66 136.21 101.83 136.86 102.5 137.55 103.12 138.2 103.79 138.59 104.14 139.09 104.67 139.68 105.27 140.11 105.83 140.75 106.36 140.82 106.44 140.87 106.49 141.43 107.16 142.06 107.63 142.54 108.25 142.71 108.42 142.74 108.47 142.86 108.57 143.41 109.13 143.78 109.47 144.07 109.79 144.75 110.42 145.43 111.05 145.87 111.48 146.09 111.72 146.13 111.7 146.88 111.94 147.34 111.24 147.25 110.64 147.32 109.96 147.3 109.45 147.32 109.35 147.3 109.2 147.29 108.69 147.25 107.41 147.25 107.14 147.34 106.51 147.25 105.61 147.25 105.54 147.34 104.64 147.25 104.08 147.27 103.62 147.27 102.34 147.32 101.08 147.29 100.01 147.3 99.94 147.27 99.62 147.24 98.68 147.25 98.16 147.29 97.27 147.29 96.49 147.3 96.17 147.29 95.23 147.2 94.53 147.27 93.48 147.32 92.22 147.24 91.45 147.24 90.53 147.3 89.6 147.3 88.64 147.3 88.63 147.32 88.41 147.25 87.16 147.25 87.11 147.25 86.53 147.3 85.84 147.27 85.46 147.25 84.61 147.35 83.35 147.22 82.33 147.22 82.09 146.9 81.46 146.25 81.69 146.2 81.67 145.79 82.13 145.57 82.35 145.4 82.55 145.35 82.62 144.7 83.37 144.36 83.76 143.66 84.39 143.24 85.05 143.08 85.24 142.44 85.79 141.84 86.5 141.53 86.88 141.04 87.35 140.26 88.37 139.37 89.29 138.98 89.84 138.8 90.04 138.15 90.7 137.89 91.04 137.69 91.23 136.89 92.23 136.06 93.2 135.24 94.21 134.61 95.03 134.59 95.03 133.96 95.72 133.69 96.17 133.66 96.23 132.82 97.2 132.84 97.29 132.55 97.88 132.91 98.51"/><polygon class="cls-10" points="152.95 106.9 152.95 107.11 152.92 108.35 152.94 108.55 152.92 108.93 152.99 109.76 152.92 110.85 153.33 111.48 154.06 111.33 154.76 110.64 155.49 110 155.73 109.74 155.84 109.62 156.22 109.2 156.8 108.57 156.81 108.55 157.6 107.91 158.43 106.99 159.09 106.31 159.4 105.98 160.2 105.28 161.09 104.42 161.56 103.91 161.66 103.82 162.36 103.16 162.62 102.85 162.8 102.68 163.52 101.81 163.6 101.73 164.5 100.93 165.41 100.08 165.68 99.79 165.76 99.7 166.41 98.97 167.09 98.31 167.43 97.66 167.13 97.02 166.6 96.2 165.95 95.48 165.31 94.75 164.76 93.97 164.15 93.22 164.05 93.12 164 93.03 163.77 92.83 163.48 92.52 162.91 91.74 162.6 91.47 162.34 91.11 161.53 90.16 161.14 89.7 161.02 89.55 160.95 89.48 160.71 89.19 159.86 88.27 159.08 87.27 158.18 86.38 157.34 85.43 156.61 84.51 156.59 84.48 156.59 84.48 156.56 84.44 155.74 83.71 155.3 83.06 154.99 82.72 154.88 82.55 154.67 82.37 154.65 82.35 154.01 81.64 153.29 81.5 152.83 82.08 152.9 82.94 152.87 83.34 152.9 83.97 152.9 84.02 152.83 84.97 152.9 85.45 152.88 85.85 152.88 86.52 152.83 86.89 152.95 87.78 152.95 87.95 152.99 88.49 152.88 89.6 152.88 89.63 152.87 89.77 152.88 89.99 152.88 90.86 152.88 91.66 152.88 91.69 152.9 92.64 152.9 92.66 152.88 93.36 152.85 94.6 152.85 95.86 152.88 97.1 152.88 97.61 152.85 98.41 152.85 99.08 152.82 99.6 152.87 100.86 152.85 101.81 152.82 102.24 152.87 103.19 152.85 104.16 152.85 104.2 152.82 104.61 152.88 105.11 152.82 106.07 152.95 106.9"/><polygon class="cls-9" points="147.18 187.45 147.34 186.8 147.25 186.28 147.3 185.94 147.22 185.66 147.25 185.05 146.71 184.32 146.57 184.08 146.32 183.54 145.45 182.75 145.14 182.43 145.06 182.34 144.5 181.68 143.95 181.26 143.83 181.12 143.05 180.29 142.83 180.05 142.69 179.79 142.44 179.64 142.25 179.45 141.71 179.03 141.42 178.62 140.92 178.18 140.65 177.8 139.75 177.17 139.63 177.05 138.98 176.24 138.61 175.95 138.32 175.61 137.71 175.15 137.3 174.67 136.63 173.74 136.19 173.38 135.99 173.06 135.34 172.48 134.87 172.2 134.19 171.32 133.3 170.59 133.16 170.45 132.91 170.03 132.5 169.74 131.79 168.9 131.7 168.78 131.53 168.7 130.85 168.17 130.15 167.24 129.9 167.08 129.85 167 129.18 166.44 128.62 165.77 128.21 165.48 127.7 164.97 127.41 164.55 126.75 164.17 126.75 164.17 126.05 163.25 125.42 162.79 124.93 162.17 124.3 161.59 123.74 160.92 123.14 160.29 122.48 159.75 122.22 159.56 121.97 159.26 121.24 158.68 121.19 158.61 120.64 157.93 120.47 157.79 120.35 157.64 119.88 157.21 119.48 156.64 118.89 156.02 118.26 155.48 118 155.16 117.2 154.34 116.59 153.78 116.42 153.61 115.79 153.01 115.13 152.47 114.52 151.87 114.45 151.8 114 151.09 113.5 150.65 113.43 150.51 112.8 149.93 112.32 149.57 112.29 149.56 112.01 149.32 111.59 148.69 110.96 148.09 110.3 147.55 109.7 146.92 109.11 146.31 108.47 145.71 107.81 145.17 107.8 145.15 107.44 144.71 107.28 144.57 107.23 144.52 106.71 143.84 106.11 143.79 105.8 143.64 105.21 144.32 105.12 145.35 105.12 145.9 105.11 145.99 104.94 146.78 104.85 147.62 104.9 147.86 104.77 148.45 104.78 149.57 104.83 150.72 105.12 151.63 105.14 151.89 105.02 152.77 105.19 153.27 105.26 154 105.17 154.49 105.36 155.34 105.5 155.75 105.55 156.31 105.67 157.04 105.67 157.04 105.67 157.08 105.72 157.44 105.75 157.52 105.82 157.9 106.11 158.73 106.13 158.76 106.3 159.61 106.5 160.74 106.6 160.96 106.64 161.26 106.91 162.08 107.28 162.66 107.33 162.83 107.54 163.95 107.71 164.26 107.8 164.53 108.08 165.02 108.39 165.89 108.44 166.15 108.51 166.23 108.83 167.08 109.31 168.1 109.82 168.96 109.91 169.28 110.31 169.74 110.5 170.04 110.94 171.08 111.52 172.03 112.19 172.95 112.75 173.94 112.97 174.16 113.1 174.42 113.65 175.08 114.04 175.86 114.57 176.56 114.7 176.65 114.72 176.7 115.61 177.44 116.18 178.43 116.92 179.28 117.44 179.71 117.49 179.76 117.59 179.83 117.8 180 118.31 180.42 118.65 181.03 119.31 181.6 119.96 182.18 120.64 182.7 121.12 183.06 121.9 183.89 122.41 184.13 122.67 184.34 123.36 184.85 123.55 185.02 123.74 185.2 123.84 185.24 124.03 185.41 124.72 185.9 125.42 186.43 126.19 186.7 126.58 187.04 127.55 187.6 128.01 187.82 128.42 188.16 128.91 188.33 129.51 188.73 130.15 188.95 130.75 189.3 131.28 189.51 131.56 189.66 132.57 190.19 133.66 190.5 134.32 190.77 134.71 191.01 135.21 191.07 135.78 191.26 136.84 191.69 137.16 191.75 137.2 191.77 138.01 192.11 138.47 192.13 139 192.33 140.09 192.62 140.8 192.62 141.4 192.78 141.86 192.89 142.3 193.1 142.68 193.06 143.1 193.13 143.85 193.08 144.56 193.24 145.35 193.39 145.67 193.52 146.5 193.35 146.67 193.1 146.79 193.06 147.3 191.98 147.29 191.74 147.3 191.13 147.3 190.26 147.32 190 147.39 189.56 147.37 188.35 147.18 187.45"/><polygon class="cls-9" points="152.9 137.87 152.88 138.14 152.94 138.48 152.9 139.42 152.9 139.54 152.83 139.94 152.97 140.73 152.83 141.75 152.9 141.78 153.38 142.28 153.97 142.19 154.06 142.22 154.64 141.54 154.65 141.53 155.37 140.95 155.78 140.44 156.68 139.72 157.5 138.85 158.4 138.04 159.15 137.1 159.96 136.27 160.52 135.84 160.56 135.81 160.95 135.5 161.37 134.96 161.85 134.6 162.46 133.92 162.87 133.43 163.45 132.93 164.34 132.13 164.74 131.68 165.07 131.4 165.37 130.96 165.73 130.53 166.33 130.09 166.77 129.6 166.84 129.53 167.02 129.31 167.52 128.71 168.23 128.17 168.88 127.51 169.22 127.18 169.42 127.05 170.26 126.18 170.44 125.94 170.84 125.64 171.24 125.04 171.96 124.51 172.49 123.9 172.74 123.71 173.15 123.19 173.59 122.74 173.86 122.4 173.93 122.33 174.49 121.69 174.56 121.62 175.26 121.11 175.68 120.56 176.09 120.17 176.96 119.36 177.11 119.22 177.16 119.19 177.22 119.12 177.83 118.54 178.66 117.67 178.92 117.4 179.09 117.26 179.72 116.62 180.41 116.04 180.52 115.36 180.38 114.76 179.97 113.96 179.94 113.93 179.84 113.69 179.16 112.69 178.42 111.73 178 111.12 177.93 110.97 177.37 110.25 176.89 109.49 176.36 108.76 175.8 108.19 175.55 107.85 174.87 106.85 174.71 106.66 174.68 106.61 174.09 105.93 173.61 105.15 173.52 105.06 173.44 104.91 172.98 104.37 172.55 103.69 171.92 103.02 171.23 102.55 170.63 102.89 170.39 102.83 169.56 103.67 168.76 104.55 168.76 104.55 168.47 104.78 168.33 105 167.96 105.4 167.06 106.17 166.72 106.58 166.56 106.7 166.02 107.43 165.39 108.08 164.66 108.62 164.61 108.67 164.59 108.69 164.44 108.88 164.08 109.32 163.64 109.83 163.31 110.13 162.77 110.54 162.6 110.76 162.12 111.17 161.66 111.72 161.51 111.85 161.1 112.31 160.46 112.82 159.66 113.67 159.64 113.71 159.59 113.74 159.54 113.81 158.87 114.56 158.86 114.58 158.26 114.97 157.7 115.68 157.5 115.92 157.21 116.21 156.95 116.48 156.35 116.89 155.98 117.43 155.5 117.83 155.2 118.18 155.15 118.22 155.03 118.35 154.74 118.69 154.36 119.08 153.85 119.47 153.62 119.9 153.05 120.55 153.02 120.92 152.99 120.99 152.95 121.7 152.95 121.88 152.9 123.05 152.83 124.22 152.92 125.02 152.87 125.5 152.88 126.01 152.8 126.55 152.92 127.51 152.94 128.2 152.85 129.11 152.88 130.01 152.85 130.91 152.87 131.11 152.87 131.23 152.87 132.41 152.9 133.58 152.83 134.4 152.82 134.53 152.82 134.62 152.8 134.74 152.82 134.84 152.83 135.44 152.95 136.12 152.8 137.09 152.9 137.87"/><polygon class="cls-10" points="195.3 150.72 195.2 149.71 195.27 149.32 195.23 149.15 195.34 148.45 195.13 147.55 195.28 146.72 195.2 146.5 195.22 146.29 195.05 145.22 194.83 144.23 194.83 144.16 194.3 143.57 193.55 143.79 193.46 143.88 192.65 144.52 191.8 145.3 191.47 145.76 190.98 146.12 190.35 146.72 190.18 147 189.38 147.75 188.62 148.6 188.14 149.1 187.97 149.23 187.36 149.85 187.36 149.85 186.97 150.2 186.61 150.72 186.08 151 185.5 151.65 184.91 152.26 184.33 152.91 183.75 153.56 183.12 154.15 182.91 154.36 182.1 155.04 181.66 155.56 181.25 155.94 180.62 156.53 179.99 157.11 179.94 157.18 179.65 157.44 178.83 158.25 178.34 159.03 178.29 159.09 177.57 159.58 177.47 159.73 177.23 159.89 176.43 160.7 175.91 161.33 175.79 161.43 175.21 162.1 174.61 162.71 174.56 162.76 174.03 163.17 173.17 163.9 172.89 164.31 172.71 164.45 172.28 165.07 171.62 165.59 170.92 166.3 170.92 166.32 170.24 166.84 169.76 167.59 169.2 168.19 168.42 168.85 168.09 169.19 167.89 169.36 167.25 169.94 166.63 170.55 166.29 171.08 166.09 171.37 165.08 171.98 164.78 172.32 164.76 172.32 164.16 172.95 164.01 173.21 163.59 173.7 163.43 173.91 163.01 174.23 162.38 174.82 161.77 175.44 161.12 176 160.59 176.68 160.51 176.78 160.37 176.93 159.67 177.62 159.32 177.85 158.97 178.3 158.74 178.53 158.29 178.89 158.07 179.04 158.04 179.09 157.84 179.25 157.02 180.05 156.3 180.95 156.01 181.29 155.71 181.54 155.04 182.11 154.65 182.62 153.8 183.3 153.56 183.77 153.24 184.01 153.12 184.76 153.02 185.14 152.83 185.75 152.9 186.63 152.92 186.85 152.78 187.82 152.83 188.86 152.88 189.9 152.92 190.12 152.92 190.21 153.02 191.07 152.85 191.99 153.07 192.35 153.14 192.72 153.65 193.39 154.5 193.51 154.89 193.35 155.62 193.35 156.53 193.06 157.05 193 157.94 193.05 158.47 192.86 158.96 192.83 159.26 192.74 159.64 192.74 160.01 192.52 160.05 192.5 161.14 192.21 161.51 192.09 162.16 192.08 162.91 191.79 163.35 191.74 163.57 191.63 163.81 191.58 164.47 191.24 165.08 191.11 165.46 191.06 165.53 191.01 166.5 190.5 167.6 190.21 168.61 189.7 168.78 189.59 169.41 189.27 170.21 188.96 171 188.59 171.5 188.25 171.63 188.18 172.52 187.48 173.15 187.16 173.95 186.79 174.22 186.58 174.53 186.43 174.83 186.17 175.45 185.92 176.18 185.44 176.82 184.88 177.54 184.37 178.2 183.82 178.9 183.31 179.55 182.74 180.14 182.11 180.16 182.09 180.81 181.63 181.66 180.9 182.06 180.47 182.13 180.44 182.73 179.81 183.22 179.08 183.92 178.55 184.46 177.87 184.57 177.73 184.72 177.56 185.11 176.97 185.52 176.51 186.06 175.83 186.57 175.13 186.91 174.52 187.39 173.92 187.68 173.51 188.1 173.02 188.28 172.46 188.44 172.09 188.97 171.52 189.31 170.72 189.4 170.57 189.75 170.08 190.35 169.13 190.59 168.31 191 167.71 191.34 166.91 191.54 166.38 191.76 166.04 192.05 165.16 192.39 164.55 192.63 163.71 192.84 163.2 193.02 162.9 193.07 162.44 193.18 162.06 193.26 161.49 193.57 160.7 193.94 159.68 193.99 159.6 194.18 158.75 194.16 157.96 194.25 157.61 194.45 157.04 194.52 156.64 194.62 156.31 194.64 155.29 194.96 154.49 194.89 153.81 195.06 152.96 195.06 152.91 195.1 152.77 195.06 152.53 195.08 151.82 195.3 150.72"/><polygon class="cls-8" points="152.94 174.72 153.36 175.27 153.92 175.15 154.11 175.23 154.74 174.65 154.76 174.65 154.76 174.64 154.94 174.48 155.35 173.85 156.03 173.46 156.63 172.82 157.19 172.14 157.56 171.69 158.09 171.24 158.92 170.49 158.94 170.45 159.11 170.37 159.37 169.87 159.59 169.57 159.69 169.47 160.32 169.13 160.86 168.43 161.39 167.73 162.16 167.27 162.43 166.84 162.87 166.49 163.42 165.76 163.94 165.36 164.16 165.13 164.47 164.91 165.15 164 166.1 163.37 166.53 162.76 167.09 162.35 167.6 161.64 168.18 160.97 168.84 160.41 169.54 159.89 169.78 159.48 170 159.31 170.89 158.61 171.31 157.98 171.31 157.98 171.55 157.64 172.33 156.89 173.18 156.16 173.95 155.34 174 155.29 174.46 155 175.02 154.32 175.29 153.93 175.53 153.74 175.8 153.44 176.3 153.15 176.6 152.6 177.08 152.13 177.11 152.09 177.45 151.87 177.56 151.75 177.96 151.41 178.39 150.87 178.68 150.63 179.27 149.98 179.97 149.47 180.13 149.25 180.4 149.1 181.13 148.25 181.86 147.4 182.1 147.18 182.39 146.97 182.44 146.9 182.69 146.66 183.41 145.81 183.56 145.69 184.17 145.08 184.67 144.61 185.06 144.27 185.6 143.59 186.06 143.3 186.2 143.09 186.71 142.75 187.36 141.85 187.61 141.65 188.29 141.17 188.7 140.49 189.07 140.15 189.75 139.6 190.37 139.03 190.67 138.8 191.15 138.14 191.59 137.77 192.09 137.03 192.31 136.39 192.44 136.03 192.1 134.98 191.61 133.97 191.51 133.85 191.44 133.6 191.03 132.83 190.69 132.01 190.27 131.37 190.13 130.99 189.72 130.38 189.4 129.72 189.19 128.83 188.8 128.05 188.21 127.37 187.88 126.55 187.47 125.77 187.07 124.99 186.61 124.24 186.52 124.12 186.5 124.1 186.18 123.63 186.1 123.53 185.69 122.74 185.23 121.99 184.85 121.57 184.7 121.3 184 120.68 183.1 121.02 182.66 121.43 182.46 121.6 182.42 121.65 182.29 121.79 181.88 122.47 181.26 122.88 180.96 123.22 180.69 123.37 179.92 124.21 179.17 125.04 179.04 125.21 178.85 125.35 178.22 125.96 177.62 126.57 177.54 126.69 176.74 127.37 176.11 128.24 175.82 128.43 175.5 128.92 175.31 129.12 175.12 129.29 174.56 129.62 174.05 130.18 173.59 130.57 172.82 131.39 172.62 131.66 172.13 132.07 171.74 132.73 171.6 132.87 170.87 133.24 170.24 133.85 169.8 134.55 169.73 134.64 169.71 134.64 169.06 135.13 168.42 135.69 168.23 136 168.06 136.13 167.72 136.57 167.23 136.93 166.6 137.53 166.39 137.87 165.65 138.45 165.41 138.82 164.79 139.38 164.15 139.96 164.11 140 164.05 140.03 163.31 140.88 163.21 140.98 162.96 141.2 162.87 141.34 162.53 141.68 161.83 142.56 160.95 143.25 160.63 143.69 160.59 143.71 160.34 144.08 160.27 144.16 159.94 144.5 159.3 144.84 158.67 145.44 158.07 146.07 157.92 146.32 157.82 146.44 156.93 147.14 156.2 147.97 156.08 148.15 155.61 148.47 155.11 149.2 155.06 149.25 154.6 149.56 153.96 150.48 153.84 150.66 153.34 151.09 153.26 151.48 153.24 151.51 153.17 151.85 153.16 151.94 152.87 152.77 152.94 153.22 152.82 153.93 152.92 155.09 152.94 155.89 152.85 156.3 152.92 156.67 152.85 157.4 152.88 157.66 152.78 158.05 152.75 158.93 152.85 159.38 152.78 159.72 152.94 160.43 152.94 160.69 152.99 161.08 152.76 162.03 152.92 163.17 152.92 163.25 152.92 163.32 152.92 163.48 152.95 164.33 152.95 164.36 152.83 165.07 152.85 165.96 152.87 166.35 152.85 166.64 152.92 167.29 152.95 167.71 152.75 168.58 152.78 169.47 152.85 169.67 152.75 170.11 152.78 171.25 152.82 172.41 152.9 173.38 152.76 173.85 152.94 174.72"/><polygon class="cls-10" points="147.37 171.57 147.32 170.98 147.39 170.64 147.27 170.01 147.27 169.5 147.39 168.94 147.22 168.24 147.25 167.15 147.24 166.04 147.2 165.23 147.32 164.68 147.2 163.83 147.24 163.32 147.37 162.73 147.25 162.1 147.32 161.28 147.32 160.63 147.34 160.51 147.34 159.41 147.25 158.3 147.27 157.2 147.22 156.72 147.22 156.18 147.34 155.33 147.34 154.46 147.29 153.88 147.25 152.77 147.24 152.65 147.24 151.87 146.72 151.14 146.33 150.34 145.77 149.95 145.48 149.61 145.07 149.28 145.01 149.22 144.51 148.49 143.8 147.97 143.24 147.29 142.57 146.77 142.32 146.41 141.79 145.92 141.47 145.41 141.16 145.24 140.77 144.78 140.38 144.45 140.22 144.2 139.58 143.62 138.97 143.09 138.34 142.44 137.66 141.82 137.23 141.36 136.79 140.83 136.43 140.51 135.95 139.93 135.29 139.37 134.63 138.82 134.08 138.12 133.76 137.83 133.64 137.65 132.86 136.85 132.26 136.37 132.23 136.32 131.68 135.66 131.56 135.59 131.31 135.23 130.49 134.45 129.86 133.84 129.85 133.84 129.83 133.82 129.69 133.68 128.89 132.92 128.64 132.73 128.57 132.66 127.94 132.08 127.45 131.35 127.09 131.16 126.58 130.47 125.78 129.89 125.52 129.62 125.46 129.56 124.91 128.97 124.15 128.15 123.23 127.49 123.21 127.47 122.97 127.15 122.56 126.5 121.85 126.01 121.34 125.3 120.86 124.99 120.28 124.31 120.11 124.07 119.48 123.49 118.91 122.86 118.26 122.27 117.59 121.72 117.34 121.48 117.03 121.06 116.49 120.92 116.17 120.77 115.71 121.06 115.37 121.23 114.72 122.16 114.45 123.17 114.23 123.47 113.65 124.14 113.07 125.09 112.56 126.09 112.53 126.2 112.19 126.57 111.84 127.39 111.69 127.73 111.44 128.03 111.1 129.12 110.98 129.31 110.6 129.74 110.13 130.48 110.04 130.88 109.94 131.05 109.82 131.52 109.39 132.1 109.14 132.8 108.94 133.05 108.65 134.02 108.32 134.53 107.98 135.35 107.61 136.15 107.95 137.26 108.46 137.99 108.88 138.23 109.44 138.96 110.09 139.45 110.33 139.82 111.06 140.32 111.69 140.93 111.72 140.97 111.95 141.25 112.69 142.09 113.44 142.94 114.35 143.62 115.04 144.54 115.89 145.27 116.28 145.56 116.56 145.92 117.19 146.53 117.71 147.24 118.09 147.43 118.26 147.65 119.18 148.33 119.64 149 119.98 149.25 120.61 149.91 120.84 150.25 121.47 150.66 121.56 150.73 121.68 150.85 122.07 151.5 122.72 152.09 123.28 152.76 123.89 153.37 124.66 153.84 124.93 154.13 125.35 154.88 126.31 155.53 126.6 155.78 127.02 156.38 127.67 156.98 128.21 157.66 128.23 157.66 128.54 158.06 129.03 158.35 129.42 158.9 130.05 159.32 130.22 159.54 130.32 159.66 130.63 160.14 130.97 160.36 130.97 160.38 131.39 160.67 131.85 161.37 132.35 161.6 132.6 161.93 133.37 162.74 133.44 162.79 133.72 163.19 134.46 163.68 134.51 163.73 134.95 164.34 135.31 164.63 135.56 165.04 136.16 165.48 136.52 165.94 137.28 166.76 138.18 167.44 138.51 167.78 138.69 168.05 139.36 168.61 139.94 169.26 140.53 169.91 140.56 169.94 141.31 170.66 141.47 170.83 141.69 171.2 142.35 171.68 142.42 171.71 143.08 172.24 143.12 172.29 143.53 173.06 144.07 173.34 144.41 173.6 144.85 174.19 144.89 174.21 145.19 174.71 145.87 175.2 146.04 175.45 146.9 175.69 147.41 174.91 147.39 174.84 147.32 173.8 147.37 173.22 147.37 173.21 147.37 173.19 147.42 172.7 147.37 171.57"/></g></g><g class="cls-11"><g class="cls-12"><polygon class="cls-13" points="75.11 208.65 75.36 208.45 75.62 208.28 75.81 208.06 75.96 207.92 76.71 207.09 76.98 206.76 77.36 206.35 77.61 206.06 78.04 205.66 78.73 205.28 79.01 204.87 79.14 204.77 79.96 203.99 80.21 203.66 80.49 203.36 80.69 203.09 81.56 202.44 82.34 201.62 83.09 200.84 83.58 200.38 83.67 200.25 83.89 200.01 84.28 199.46 84.83 199.17 85.3 198.49 85.42 198.39 85.45 198.37 86.05 197.97 86.1 197.88 86.32 197.71 87 196.79 87.82 196.04 88.64 195.28 89.06 194.72 89.69 194.31 90.24 193.64 90.85 193.03 91.19 192.54 91.73 192.04 92.58 191.31 92.74 191.11 93.26 190.58 93.89 189.97 94.44 189.3 95.14 188.78 95.41 188.4 95.73 188.16 95.97 187.31 95.56 186.5 94.64 185.85 93.69 185.59 93.21 185.24 93.16 185.22 92.67 184.78 91.89 184.3 91.78 184.2 91.63 184.15 90.71 183.69 90.17 183.5 90.15 183.49 89.47 183.18 88.75 182.57 88.25 182.4 87.84 182.18 87.04 181.8 86.88 181.73 86.73 181.63 85.81 181.1 85.5 180.9 84.71 180.51 84.08 180.34 83.75 180.06 82.66 179.74 82.31 179.64 82.22 179.59 81.47 179.06 80.64 178.75 79.45 178.99 79.21 179.44 78.75 179.88 77.85 180.58 77.58 180.93 77 181.48 76.39 182.11 75.81 182.77 75.13 183.31 74.89 183.67 74.72 183.82 73.85 184.57 73.17 185.48 72.27 186.17 72.1 186.36 72.05 186.41 72.01 186.46 71.52 187.02 70.87 187.96 70.36 188.42 70.21 188.57 70.06 188.73 69.14 189.39 68.51 190.26 67.78 190.75 67.16 191.36 66.86 191.77 66.81 191.82 66.07 192.69 65.22 193.44 64.41 194.21 63.67 194.88 63.42 195.02 62.83 195.65 62.23 196.28 62.21 196.33 61.92 196.5 61.28 197.44 61.14 197.57 61.09 197.61 60.34 198.08 60.07 198.63 59.63 198.97 58.74 199.67 58.3 200.4 57.99 200.64 57.36 201.23 57.31 201.32 57.26 201.35 56.43 202.1 56.1 202.54 55.46 203.02 55.12 203.55 54.86 203.73 54.05 204.51 53.55 205.16 53.01 205.49 52.79 205.84 52.45 206.08 51.97 206.68 51.85 206.78 51.29 207.32 50.86 207.65 50.59 207.9 50.54 207.94 50.52 207.95 50.05 208.41 49.35 209.31 48.89 209.76 48.77 209.84 48.16 210.45 47.73 211.05 46.92 211.65 46.34 212.24 46.29 212.27 46.06 212.53 45.33 213.21 45.32 213.23 45.01 213.47 44.38 214.06 44.07 214.57 43.75 214.81 43.17 215.57 42.51 215.88 42.12 216.31 42.08 216.32 42.05 216.39 41.93 216.53 41.42 217.24 41.4 217.91 41.86 218.49 41.88 218.52 42.1 218.5 42.75 218.54 43.07 218.45 44.11 218.55 44.94 218.52 45.3 218.54 46.15 218.5 47 218.54 47.87 218.52 48.72 218.42 49.42 218.38 49.66 218.38 50.76 218.37 51.73 218.33 52.12 218.33 52.97 218.26 53.06 218.26 54.08 218.5 54.64 218.4 54.67 218.4 55.52 218.54 55.93 218.42 56.29 218.47 57.01 218.47 57.23 218.54 57.5 218.47 58.5 218.38 59.15 218.4 59.78 218.52 60.63 218.54 61.41 218.31 61.63 218.33 62.33 218.49 63.18 218.49 64.03 218.54 64.87 218.18 64.95 218.14 65.29 218.08 65.34 218.03 65.68 217.92 66.4 217.41 66.62 217.11 67.2 216.61 67.35 216.43 67.66 216.21 68.18 215.51 68.44 215.22 68.71 214.95 69 214.64 69.41 214.28 69.83 213.86 70.4 213.45 71.16 212.63 71.64 212.22 72.03 212 72.54 211.29 73.02 210.76 73.54 210.27 74.34 209.47 75.11 208.65"/><polygon class="cls-14" points="106.01 208.46 106.59 207.75 107.3 207.19 107.74 206.69 107.88 206.59 108.34 206.08 108.56 205.84 108.68 205.67 109.46 204.84 110.28 203.99 111.15 203.17 111.96 202.32 112.61 201.66 113.03 201.33 113.7 200.72 114.06 199.9 113.58 199.21 113.56 199.19 112.78 198.71 112.22 198.03 111.76 197.74 111.72 197.71 110.74 197.05 109.82 196.3 109.46 196.06 109.34 195.94 108.61 195.41 107.83 194.99 107.68 194.88 106.98 194.15 106.54 193.83 106.5 193.8 106.45 193.76 106.03 193.46 105 192.86 104.03 192.16 103.93 192.08 103.59 191.77 103.03 191.5 102.11 190.78 102.06 190.78 101.43 190.63 100.97 190.89 100.77 190.9 100.5 191.24 100.1 191.53 99.81 191.99 99.12 192.66 98.78 193.01 98.16 193.46 97.64 194.22 97.19 194.66 96.55 195.19 95.66 195.99 95.12 196.6 94.98 196.71 94.39 197.37 93.84 197.97 93.14 198.51 93.04 198.59 92.94 198.76 92.36 199.48 91.77 200.11 91.27 200.6 90.68 201.18 89.76 201.95 89.28 202.53 89.28 202.53 88.62 203.14 87.97 203.78 87.29 204.38 87.05 204.75 86.32 205.3 85.68 206.08 85.42 206.35 84.77 206.98 84.52 207.34 83.82 207.88 83.04 208.72 82.83 208.87 82.78 208.96 82.1 209.55 81.29 210.42 80.42 211.24 79.86 211.99 79.69 212.14 79.36 212.48 78.77 212.97 78.33 213.53 77.71 213.99 77.29 214.44 77.03 214.62 76.67 215.08 76.47 215.29 76.13 215.73 75.77 216.12 75.18 216.56 74.56 217.21 74.33 218.01 75.06 218.47 75.5 218.37 76.28 218.42 76.66 218.45 76.83 218.49 77.71 218.5 78.6 218.45 79.07 218.38 79.94 218.43 81.03 218.37 81.27 218.4 82.15 218.4 83.04 218.45 83.28 218.4 83.58 218.45 84.81 218.38 85.05 218.37 85.69 218.4 86.58 218.47 87.46 218.5 88.35 218.4 89.23 218.43 90.12 218.37 90.3 218.37 90.9 218.43 91.15 218.4 91.9 218.47 92.79 218.4 93.01 218.4 93.33 218.45 93.5 218.43 93.66 218.45 94.54 218.49 95.05 218.3 95.85 218.21 96.62 217.58 96.92 217.43 97.57 216.77 97.59 216.73 97.76 216.58 98.28 215.95 98.86 215.47 99.03 215.27 99.47 214.93 100.07 214.21 100.12 214.16 100.82 213.57 101.52 212.97 101.82 212.48 101.94 212.38 102.83 211.58 103.59 210.68 104.09 210.11 104.51 209.67 104.73 209.5 105.36 209.11 106.01 208.46"/><polygon class="cls-13" points="135.14 217.31 134.66 216.92 134.19 216.46 133.38 215.81 133.06 215.46 132.43 214.78 131.67 214.23 131.07 213.79 130.34 213.09 129.46 212.17 128.43 211.39 127.52 210.5 127.16 210.25 126.82 209.88 126.26 209.52 125.56 208.84 124.57 208.02 124.13 207.65 123.96 207.46 123.67 207.24 123.6 207.19 122.67 206.44 122.51 206.28 122.39 206.22 121.58 205.59 120.57 204.79 119.94 204.26 119.6 203.95 118.92 203.66 118.26 204 117.61 204.69 116.9 205.31 116.68 205.57 116.47 205.76 115.89 206.39 115.61 206.66 115.14 207.17 114.94 207.41 114.26 207.95 113.61 208.62 112.97 209.3 112.56 209.82 112.12 210.22 112.01 210.32 111.64 210.61 110.99 211.29 110.67 211.66 110.36 211.97 110.28 212.05 109.65 212.56 109 213.23 108.65 213.6 108.54 213.67 107.66 214.54 107.28 214.95 107.01 215.2 106.33 215.85 105.75 216.58 105.31 217.02 105.09 217.23 105.09 217.24 104.99 217.96 105.55 218.3 105.57 218.31 106.84 218.45 108.1 218.42 109.38 218.38 109.75 218.38 110.28 218.43 111.23 218.38 111.72 218.38 111.91 218.38 112.47 218.38 113.1 218.43 114.04 218.43 114.99 218.45 115.18 218.43 115.72 218.45 116.98 218.42 117.82 218.38 118.5 218.38 119.01 218.4 119.69 218.47 120.23 218.42 120.78 218.4 120.95 218.4 121.56 218.43 122.51 218.35 123.45 218.47 123.82 218.43 124.59 218.45 125.51 218.35 126.26 218.45 127.21 218.42 128.15 218.47 128.33 218.45 128.38 218.45 129.66 218.38 130.92 218.4 131.51 218.4 131.89 218.45 132.82 218.47 132.99 218.45 133.45 218.49 134.32 218.37 134.71 218.38 135.29 218.01 135.14 217.31"/><polygon class="cls-15" points="41.74 208.77 42.46 208.28 42.78 207.97 43.07 207.76 43.45 207.31 43.68 207.05 43.9 206.74 44.38 206.22 44.92 205.86 45.09 205.6 45.47 205.31 46.12 204.55 46.78 204.04 46.93 203.73 47.05 203.65 47.92 202.88 48.43 202.24 48.55 202.15 48.77 201.88 49.55 201.28 49.96 200.64 50.35 200.3 50.71 199.85 51.08 199.58 51.53 199.14 51.58 199.09 51.66 199 51.9 198.76 52.16 198.46 52.84 197.91 53.13 197.5 53.55 197.18 53.99 196.55 54.61 196.03 55.2 195.41 55.54 194.99 55.9 194.7 56.21 194.34 56.39 194.17 56.89 193.64 57.55 193.1 57.79 192.81 58.28 192.4 58.96 191.86 59.56 191.24 60.09 190.55 60.73 189.97 61 189.65 61.65 189.13 61.91 188.88 62.01 188.81 62.04 188.74 62.47 188.33 63.23 187.48 64 186.65 64.07 186.56 64.37 186.31 64.85 185.66 65.72 185.14 66.47 184.27 67.18 183.49 67.47 183.3 68.1 182.72 68.54 182.11 68.86 181.82 69.51 181.12 69.94 180.9 70.52 180.25 71.13 179.66 71.66 178.96 71.81 178.79 72.08 178.57 72.51 178.02 72.85 177.7 73.17 176.95 73.17 176.93 73.1 176.88 72.49 176.31 71.67 176.15 71.08 176.25 70.62 176.27 70 176.13 69.19 175.95 68.88 176.03 68.35 175.9 67.21 175.91 66.09 175.97 65.92 176.02 65.75 175.98 64.9 176.19 64.03 176.17 63.54 176.32 62.72 176.41 62.53 176.42 62.31 176.42 61.94 176.53 61.62 176.59 60.49 176.68 59.37 176.85 59.25 176.88 58.89 176.92 58.28 177.21 57.19 177.43 56.07 177.63 55.44 177.92 54.69 178.01 54.1 178.43 53.98 178.47 53.31 178.6 53.08 178.62 53.01 178.65 52.85 178.67 52.05 179.09 51.48 179.28 51.27 179.38 50.76 179.56 49.72 179.96 49.43 180.1 49.06 180.24 48.87 180.37 48.7 180.46 47.72 181.03 47.56 181.12 46.75 181.41 45.98 181.82 45.25 182.29 45.09 182.45 44.76 182.67 43.84 183.33 42.85 183.88 42.63 184.12 42.41 184.25 41.76 184.83 41.03 185.29 40.77 185.53 40.09 185.85 39.51 186.55 39 186.91 38.77 187.07 38.37 187.31 37.51 188.04 36.81 188.93 36.08 189.8 35.77 190.09 35.21 190.46 34.68 191.14 34.05 191.74 33.87 192.11 33.75 192.25 32.91 193.01 32.64 193.59 32.47 193.8 32.1 194.38 31.6 194.87 31.26 195.57 30.99 195.92 30.46 196.6 30.04 197.37 29.48 198.03 29.08 198.82 29.03 199.02 28.69 199.7 28.06 200.64 27.81 201.4 27.48 201.88 27.11 202.64 27.08 202.83 26.62 203.7 26.52 204.06 26.4 204.23 26.36 204.58 26.29 204.79 25.95 205.69 25.83 205.86 25.8 206.1 25.53 206.91 25.1 207.97 24.88 209.07 24.47 210.13 24.17 211.22 24.17 211.37 24.05 211.66 23.89 212.51 23.95 212.9 23.71 213.43 23.78 214.26 23.64 215.1 23.62 215.37 23.55 215.69 23.35 216.82 23.42 216.99 23.59 217.55 23.62 217.62 23.74 217.92 23.98 218.04 24.07 218.16 24.68 218.37 24.81 218.43 25.97 218.33 26.24 218.37 27.23 218.52 28.45 218.5 28.8 218.43 29.14 218.43 30 218.42 30.33 218.35 30.87 218.43 31.5 218.21 31.7 218.19 32.52 217.91 33.3 217.48 33.54 217.14 34.04 216.58 34.17 216.46 34.48 216.19 35.07 215.57 35.79 215.05 36.28 214.42 36.45 214.26 37 213.82 37.23 213.5 37.35 213.38 38.07 212.48 38.99 211.78 39.51 211.05 39.94 210.64 40.06 210.52 40.57 210.11 40.84 209.74 41.2 209.47 41.73 208.79 41.74 208.77"/></g></g></svg>