<svg id="Layer_1" data-name="Layer 1" xmlns="http://www.w3.org/2000/svg" viewBox="0 0 300 300"><defs><style>.cls-1{fill:#fff;}</style></defs><path id="Layer" class="cls-1" d="M190.09,51.34a119.64,119.64,0,0,1,32.67,1.41c6.79,1.48,13.53,3.91,19,8.22,4.73,3.75,8.12,9.44,8.28,15.56a18,18,0,0,1-7.89,16A22.48,22.48,0,0,1,223,94.33a14.91,14.91,0,0,1-8.71-8.11,19.05,19.05,0,0,1-.73-12.16,43.23,43.23,0,0,1,3.34-9.3c-11.46-3.7-23.85-3.05-35.53-.79A106.24,106.24,0,0,0,150.6,75.16a114.53,114.53,0,0,0-16.74,11.22,126.49,126.49,0,0,0-25.67,27.4A123.77,123.77,0,0,0,89.63,154a108.16,108.16,0,0,0-3.18,31.08c.57,7.16,1.43,14.44,4.22,21.13a44.16,44.16,0,0,0,11.32,17c8.48,7.77,20.1,11.36,31.45,11.63a83.71,83.71,0,0,0,24.43-3.12,80,80,0,0,0,23.33-11.07,134.17,134.17,0,0,0,13.77-11c3.2,0,6.41.05,9.6,0a8.1,8.1,0,0,0-1.56,1.79,99.2,99.2,0,0,1-61.61,36.66,96,96,0,0,1-19.53,1.34,95.3,95.3,0,0,1-31.2-5.49,78.7,78.7,0,0,1-13-6.54,59.57,59.57,0,0,1-15.38-15c-7.82-10.9-11.45-24.36-12-37.65a99.64,99.64,0,0,1,6.52-40.93c7.76-20.64,21.6-38.64,38.3-52.89A163,163,0,0,1,113.81,77,188.51,188.51,0,0,1,140.35,63.3a173,173,0,0,1,49.74-12Z"/></svg>