<svg id="Layer_1" data-name="Layer 1" xmlns="http://www.w3.org/2000/svg" viewBox="0 0 300 300"><defs><style>.cls-1{fill:#fff;}.cls-2{fill:#ffc400;}</style></defs><title>CAT_Logo_Dark</title><path class="cls-1" d="M89,96.65c5.28,10.81,3.92,24.33,4.18,37.19H64.85c-.43-9,1.42-22.58-2.43-26.9-1.37-2.43-4-2.88-6.56-2.55s-5.44,1.45-6.37,4.09c-1.14,2.15-1.11,9.18-1.22,14l.34,66.91c.25,2.81,1.62,5.95,4.51,6.89,2.56.68,6.09.85,8.25-.77,3.24-2.54,3.58-6.47,3.83-10.29v-22H93.54c-.26,9.28.68,19.06-.77,27.92L55,219.87c-11.66-.26-23.24-3.33-29.46-14.13-4.86-9.1-5.69-19.83-5.52-31.06l.09-56.92c.59-14.21,5-30.12,20-35.15C51.85,79,67.67,79,78.31,84.91A26.35,26.35,0,0,1,89,96.65"/><path class="cls-1" d="M256.14,108.22H233.43l-.09,109.49h-5l-23.39-18.54V108.29l-22.22-.08V83.38h73.43Z"/><path class="cls-1" d="M145.36,107.72h-.51l-6.9,37.1L153,145Zm43.23,78.11-43.14-34.62-15.59,11.66-27.22,20.68L125.75,83.39h40.42Z"/><path class="cls-2" d="M71.68,217.72l73.26-56.14,70,56.07Z"/><path class="cls-2" d="M65.68,219.76,145,159l75.79,60.68Zm79.23-55.6L77.67,215.69l131.51-.07Z"/><path class="cls-1" d="M270.28,100.47a9.44,9.44,0,0,1-6.69-2.6,8.28,8.28,0,0,1-.77-11.68,8,8,0,0,1,.77-.77,10.26,10.26,0,0,1,13.59,0,8.3,8.3,0,0,1,.76,11.71,7.79,7.79,0,0,1-.76.76A9.9,9.9,0,0,1,270.28,100.47Zm0-1.21a8.09,8.09,0,0,0,6.42-2.72,7,7,0,0,0,0-9.73,8.67,8.67,0,0,0-12.26-.34c-.12.11-.23.22-.34.34a7.26,7.26,0,0,0-1.94,4.87A7,7,0,0,0,264.6,97a8.21,8.21,0,0,0,5.68,2.23Zm-3-2.77V86.93h3.27a3.85,3.85,0,0,1,2.36.59,2,2,0,0,1,.79,1.76,2.9,2.9,0,0,1-.46,1.56,3.92,3.92,0,0,1-1.38,1.21L275,96.49h-2l-2.81-4h-1.29v4Zm1.54-5.15h.49a3.88,3.88,0,0,0,2.08-.47,1.64,1.64,0,0,0,.68-1.42,1.22,1.22,0,0,0-.58-1.11,3.17,3.17,0,0,0-1.73-.39h-.94Z"/></svg>