<svg id="Layer_1" data-name="Layer 1" xmlns="http://www.w3.org/2000/svg" viewBox="0 0 300 300"><defs><style>.cls-1{fill:#1cbfd4;}.cls-2{fill:#fff;}</style></defs><rect class="cls-1" width="300" height="300"/><path class="cls-2" d="M235.69,164.05a1.11,1.11,0,0,0,.05-.54V136h32.55a12.2,12.2,0,0,1,3.93.54,5.15,5.15,0,0,1,3.83,5.23c0,1,0,2,0,3a2.5,2.5,0,0,1-.92,2.05c-1.05.88-2.08,1.78-3.13,2.67l-.44.39c1.15,1,2.26,2,3.41,2.91a2.73,2.73,0,0,1,1.09,2.34c0,1.19,0,2.38,0,3.57-.14,2.84-1.83,4.42-4.35,5.05-.6.15-1.23.25-1.84.37Zm5.43-11.77v6.94h29.42v-6.94Zm0-4.74h29.43v-6.75H241.11Z"/><path class="cls-2" d="M178.62,164.05a1.11,1.11,0,0,0,0-.54q0-13.5,0-27V136h32.55a13,13,0,0,1,3.67.45,5.22,5.22,0,0,1,4.09,5.41c0,.94,0,1.89,0,2.83a2.54,2.54,0,0,1-.95,2.13c-1.18,1-2.34,2-3.55,3,1.16,1,2.27,2,3.42,2.91a2.75,2.75,0,0,1,1.08,2.39c0,1.23.08,2.47,0,3.7a5.09,5.09,0,0,1-4,4.78,9.33,9.33,0,0,1-2,.37c-.08,0-.16,0-.19.09Zm34.86-11.77H184.05v6.94h29.43Zm0-11.49H184.05v6.75h29.43Z"/><path class="cls-2" d="M10.8,141.27c.19-.56.25-1.15.48-1.69a5.77,5.77,0,0,1,4.64-3.43,10.92,10.92,0,0,1,2.14-.19H49.13v5H16.25v18h32.9v5.06H16.58a1.52,1.52,0,0,0-.72-.19,5.71,5.71,0,0,1-4.77-4,3,3,0,0,0-.29-1Z"/><path class="cls-2" d="M64.57,164.05a1.11,1.11,0,0,0,0-.54V136h5.32v11.44H98.24V136h5.29c.09.08,0,.18,0,.26v27.53a2.64,2.64,0,0,1,0,.28H98.24V152.42H70c0,.12,0,.21,0,.3v11c0,.1,0,.2,0,.31Z"/><path class="cls-2" d="M127.6,164.05a2.37,2.37,0,0,0-1-.25,5.68,5.68,0,0,1-4.77-5.85c0-7.24,0-14.48,0-21.72V136h5.32v23H155.1V136h5.25c.1.13.06.27.06.4v21.36a6.24,6.24,0,0,1-1.3,4.05,6.42,6.42,0,0,1-4.39,2.18c-.11,0-.25-.07-.32.09Z"/><path class="cls-2" d="M289.19,139.79a3.71,3.71,0,0,1-3.84,3.82,3.83,3.83,0,1,1,.06-7.66A3.73,3.73,0,0,1,289.19,139.79Zm-.6.06a3.23,3.23,0,1,0-3.29,3.2A3.23,3.23,0,0,0,288.59,139.85Z"/><path class="cls-2" d="M285.43,140.05h-.9V142H284v-4.42a16.64,16.64,0,0,1,2.23.05,1,1,0,0,1,.89.85,1.21,1.21,0,0,1-.5,1.36,4,4,0,0,1-.54.25l1.26,1.89h-.67Zm-.89-.53c.49,0,.95,0,1.4,0a.71.71,0,0,0,.07-1.4,5.56,5.56,0,0,0-1.47,0Z"/></svg>