<svg id="Layer_1" data-name="Layer 1" xmlns="http://www.w3.org/2000/svg" viewBox="0 0 300 300"><title>CBOE_Mark_Dark</title><path d="M196.02467,133.56679l-12.457-12.46187,12.457-12.46187,12.46187,12.46187Zm.01948-36.01232L183.58228,85.0926,196.049,72.6356l12.457,12.457ZM214.043,115.56794l-12.46675-12.457,6.92976-6.90541,5.53211-5.55159L226.5,103.11094Z" fill="#33b540"/><path d="M141.12719,208.36236c-27.831,0-45.9224-22.39143-45.9224-55.18481s19.002-55.20428,46.58469-55.20428c20.24385,0,29.23841,10.25584,36.26068,17.58005L190.48768,103.072c-6.657-6.7934-19.89321-23.419-49.36049-23.419C104.70094,79.653,73.5,107.02627,73.5,153.40644c0,46.36069,28.04042,73.958,66.71653,73.958,28.74168,0,44.35919-15.23767,50.48056-23.05374l-12.91477-12.93424a47.71221,47.71221,0,0,1-36.65513,16.98594" fill="#fff"/></svg>