<svg id="Layer_1" data-name="Layer 1" xmlns="http://www.w3.org/2000/svg" viewBox="0 0 300 300"><defs><style>.cls-1{fill:#fff;}</style></defs><path class="cls-1" d="M139.54,149.07c7.29-2.43,8.61-8.54,8.59-13.52,0-7.62-5.39-14.2-21.29-14.2H97.16v57.2h29.6c16,0,21.89-8.22,21.89-16.44C148.65,152.13,139.54,149.07,139.54,149.07Zm-28.29-15.28H131.3a4.67,4.67,0,0,1,3.9,4.57,4.9,4.9,0,0,1-4.09,4.79l-19.86,0Zm19,31.42h-19v-9.58h19.53a4.76,4.76,0,0,1,4.26,4.69A4.93,4.93,0,0,1,130.27,165.21Z"/><path class="cls-1" d="M215.11,121.35h50.17l0,12.48h-36.2l0,9.22h32.63V155.6H229.09v10h36.2v13.09H215.11"/><path class="cls-1" d="M185.93,121.43H155.6v57.21h13.93V155.49l15.34,0a8,8,0,0,1,7.81,8.11v15h13.63l0-18.46c0-8.55-8.27-11.08-8.27-11.08s8.45-2.53,8.45-12.64C206.47,124,195.84,121.43,185.93,121.43Zm7.61,17.74a4.74,4.74,0,0,1-4.48,3.93H169.48V134h19.58a4.49,4.49,0,0,1,4.48,4"/><path class="cls-1" d="M88.12,164.82c-.19,0-19,.36-25.54-.27-10.47-1-14.18-8.79-14.18-15.12,0-7.9,5.38-13.71,13.72-14.8,4-.52,25.66-.27,25.89-.27h.45l.05-13h-.46l-24.55.05a36.47,36.47,0,0,0-11.91,2.34,29,29,0,0,0-11.23,9.09,28.37,28.37,0,0,0-5.65,17,35,35,0,0,0,.47,5.74,27.88,27.88,0,0,0,15.61,19.71c2.75,1.21,7,2.66,15.56,3.15l4.62.09,17.11,0h.45l0-13.77"/></svg>