<svg id="Layer_1" data-name="Layer 1" xmlns="http://www.w3.org/2000/svg" viewBox="0 0 300 300"><defs><style>.cls-1{fill:#fff;}</style></defs><path class="cls-1" d="M254.14,187.27a8.15,8.15,0,0,1,11.53.31l0,0a8.22,8.22,0,0,1-.33,11.59,67.23,67.23,0,0,1-92.17.32,8.18,8.18,0,0,1,11.1-12l0,0a50.92,50.92,0,0,0,69.81-.25Zm-35.85-88.5a51,51,0,0,0-51,49l0,.47-.92,9.2a67.47,67.47,0,0,1-67,60.14,67.52,67.52,0,0,1-62.1-41.29,67.59,67.59,0,0,1,62.1-93.94,66.89,66.89,0,0,1,47.18,19.34,8.19,8.19,0,0,1-11.41,11.75l0,0a51.24,51.24,0,1,0,15,42.28l.88-8.84A67.34,67.34,0,0,1,265.48,101.7,8.16,8.16,0,0,1,256,114.86a8.18,8.18,0,0,1-2-1.45,50.7,50.7,0,0,0-35.74-14.65Z"/></svg>