<?xml version="1.0" encoding="UTF-8" standalone="no"?>
<!-- Generator: Adobe Illustrator 24.0.1, SVG Export Plug-In . SVG Version: 6.00 Build 0)  -->

<svg
   version="1.1"
   id="Layer_1"
   x="0px"
   y="0px"
   viewBox="0 0 300 300"
   style="enable-background:new 0 0 300 300;"
   xml:space="preserve"
   sodipodi:docname="CCL_Light_bg copy.svg"
   inkscape:version="1.1.1 (c3084ef, 2021-09-22)"
   xmlns:inkscape="http://www.inkscape.org/namespaces/inkscape"
   xmlns:sodipodi="http://sodipodi.sourceforge.net/DTD/sodipodi-0.dtd"
   xmlns="http://www.w3.org/2000/svg"
   xmlns:svg="http://www.w3.org/2000/svg"
   xmlns:rdf="http://www.w3.org/1999/02/22-rdf-syntax-ns#"
   xmlns:cc="http://creativecommons.org/ns#"
   xmlns:dc="http://purl.org/dc/elements/1.1/"><defs
   id="defs48" /><sodipodi:namedview
   id="namedview46"
   pagecolor="#ffffff"
   bordercolor="#666666"
   borderopacity="1.0"
   inkscape:pageshadow="2"
   inkscape:pageopacity="0.0"
   inkscape:pagecheckerboard="true"
   showgrid="false"
   inkscape:zoom="3.037542"
   inkscape:cx="153.90734"
   inkscape:cy="128.88711"
   inkscape:window-width="1312"
   inkscape:window-height="969"
   inkscape:window-x="0"
   inkscape:window-y="25"
   inkscape:window-maximized="0"
   inkscape:current-layer="Layer_1" />
<style
   type="text/css"
   id="style9">
	.st0{fill:#ED1721;}
	.st1{fill:#093B82;}
</style>
<title
   id="title11">Artboard 105</title>
<g
   id="g15"
   style="fill:#ffffff">
	<polygon
   points="106.9,227.9 111.2,227.9 77.9,113.3 74.1,114.4  "
   id="polygon13"
   style="fill:#ffffff" />
</g>
<g
   id="g19"
   style="fill:#ffffff">
	<path
   d="M111.3,227.9h-4.4l0,0L74.1,114.4l0,0l3.8-1.1l0,0L111.3,227.9z M106.9,227.9h4.2L77.9,113.3l-3.8,1.1L106.9,227.9z"
   id="path17"
   style="fill:#ffffff" />
</g>
<g
   id="g23">
	<path
   class="st0"
   d="M81.6,114.5c1.1-2,29.2-8.9,29-8.6c21.4-3.9,15.9,4.9,16.1,4.8c-3.9,8.2,12,4.6,11.8,4.3   c40.6-7.9,79.8,0.9,79.6,1.1c-8.3,52.2,17.8,86.4,17.7,86.5c-32.6-3.9-41.6-0.7-41.4-0.5c-28.4,9.3-49.9-0.6-50-0.5   c-14.2-12.6-38.8-3-38.7-3.2C107.3,150.2,80.6,116.1,81.6,114.5z M127.3,160.2c1.7,19.8,18.9,34.6,38.2,32.8   c19.2-1.3,33.3-18.6,31.2-38.2c-1.6-20.1-18.8-34.9-38.2-33.3S125.2,140.3,127.3,160.2z"
   id="path21" />
</g>
<g
   id="g27">
	<path
   class="st1"
   d="M137,159.1c-1.6-18.6,8.1-34.6,21.5-35.5c13.9-1.3,26.5,13,28.5,31.7c1.6,18.8-8,34.9-21.5,36   C151.6,192.4,139.1,178.1,137,159.1z"
   id="path25" />
</g>
<g
   id="g31"
   style="fill:#ffffff">
	<path
   d="M81.8,100l-17.7,4.1v-32L81.8,100z M66.1,77.9l7.5,21.5l4.8-1.1L66.1,77.9z"
   id="path29"
   style="fill:#ffffff" />
</g>
<g
   id="g35"
   style="fill:#ffffff">
	<path
   d="M67,107.5c0.2-4.1,3.5-7.4,7.6-7.6c4.1,0.3,7.3,3.5,7.6,7.6c-0.3,4.1-3.5,7.3-7.6,7.6C70.5,114.8,67.2,111.6,67,107.5z    M72,108c0,2.4,1.8,4.6,3.8,4.8c2.4-0.3,4.2-2.4,4.2-4.9c-0.1-2.9-1.9-5.1-4.3-4.8C73.7,103,71.9,105.1,72,108L72,108z"
   id="path33"
   style="fill:#ffffff" />
</g>
<g
   id="g39"
   style="fill:#ffffff">
	<path
   d="M70.4,109.7c-0.2-2.9,1.4-5,3.2-4.8c2.1-0.2,3.7,2,3.8,4.8c0,2.4-1.6,4.6-3.8,4.8C71.8,114.3,70.2,112.1,70.4,109.7z"
   id="path37"
   style="fill:#ffffff" />
</g>
<g
   id="g43"
   style="fill:#ffffff">
	<path
   d="M70.9,104.3c0.2-1.6,1.6-2.8,3.2-2.7c1.4-0.1,2.6,1.1,2.7,2.5c0,0.1,0,0.1,0,0.2c0,1.9-1.2,3.3-2.7,3.2   C72.4,107.6,71.2,106.2,70.9,104.3z"
   id="path41"
   style="fill:#ffffff" />
</g>
<metadata
   id="metadata130"><rdf:RDF><cc:Work
       rdf:about=""><dc:title>Artboard 105</dc:title></cc:Work></rdf:RDF></metadata></svg>
