<svg id="Layer_1" data-name="Layer 1" xmlns="http://www.w3.org/2000/svg" viewBox="0 0 300 300"><path d="M173.725,252.439A101.9956,101.9956,0,1,1,237.13968,70.62084L250,51.99556a122.70628,122.70628,0,0,0-75.83149-26.16408,124.16884,124.16884,0,1,0,75.388,222.61642l-12.86032-18.62528A97.64034,97.64034,0,0,1,173.725,252.439Z" fill="#3e66d2"/><path d="M72.17294,150.44346A102.01,102.01,0,0,0,174.1685,252.439a100.34383,100.34383,0,0,0,62.97118-21.7295l-12.86031-19.06873A78.40762,78.40762,0,0,1,173.725,229.8226a79.37916,79.37916,0,0,1,0-158.75831c19.5122,0,36.8071,7.09535,50.99778,18.18182l12.86032-18.18182A101.96035,101.96035,0,0,0,174.1685,48.89134C117.84921,48.44789,72.17294,94.12417,72.17294,150.44346Z" fill="#4d80df"/></svg>