<svg id="Layer_1" data-name="Layer 1" xmlns="http://www.w3.org/2000/svg" viewBox="0 0 300 300"><defs><style>.cls-1{fill:#d21c2e;}.cls-2{fill:#fff;fill-rule:evenodd;}</style></defs><path id="Layer" class="cls-1" d="M50.55,124.14h21v5.76h-21Z"/><g id="Layer-2" data-name="Layer"><path id="Layer-3" data-name="Layer" class="cls-2" d="M33.08,174.67a12.7,12.7,0,0,1-5.8,1.19c-8.58,0-14.29-6.33-14.29-18.21,0-10.82,6-18.93,15.57-18.93a9.06,9.06,0,0,1,4.52,1V146a13.18,13.18,0,0,0-4.36-.81c-5.16,0-7.82,5.62-7.82,12.26,0,7.37,3,11.87,7.82,11.87a10.9,10.9,0,0,0,4.36-.84Zm38.42-8a63.47,63.47,0,0,0,.56,8.76H56.55c-5.19,0-9.09-4.3-9.09-10.64,0-9.28,7.84-13.19,16-13.26v-.65c0-3.76-1.47-6.4-5.4-6.4a14.81,14.81,0,0,0-7.5,2v-5.41a17,17,0,0,1,9.21-2.58c9.33,0,11.7,6.05,11.7,13.73Zm-7.79,2.88V156.78c-3.1,0-8.69.9-8.69,7.19,0,4.08,2.17,5.54,3.92,5.54Z"/></g><g id="Layer-4" data-name="Layer"><path id="Layer-5" data-name="Layer" class="cls-2" d="M114.84,175.41l-15.3,0c-7,0-10.93-7.36-10.93-18.25,0-12.66,5.46-18.75,11.29-18.75a6.54,6.54,0,0,1,6.33,3.93h.15V127.83h7.9v38.82A63.67,63.67,0,0,0,114.84,175.41Zm-8.46-22.62a15.15,15.15,0,0,0-.11-2.21c-.34-2.92-2-5.47-4.3-5.47-4,0-5.45,5.68-5.45,12.14,0,7.22,1.92,12.22,5.25,12.22h4.61Zm32.68,6.66c.09,8.08,3.83,10.26,8.06,10.26a20.11,20.11,0,0,0,7.06-1.28v5.7a20.29,20.29,0,0,1-8.5,1.69c-9.32,0-14.32-6.74-14.32-17.92,0-12,5.72-19.22,13.46-19.22s11.42,6.86,11.42,16.54a33.87,33.87,0,0,1-.19,4.21Zm9.84-5.63c.06-5.8-1.85-9.24-4.66-9.24-3.44,0-5,5-5.15,9.24Zm32.38-8.43v30h-7.92V149.5c0-4.07-.22-7.27-.32-10.48h15.62c6,0,9.62,4.39,9.62,12.76v23.65h-7.93V152.54c0-3.62-.78-7.13-4.21-7.13Zm53.91,29.28a12.65,12.65,0,0,1-5.79,1.19c-8.58,0-14.29-6.35-14.29-18.23,0-10.82,6-18.93,15.57-18.93a9.24,9.24,0,0,1,4.51,1V146a13.16,13.16,0,0,0-4.35-.81c-5.17,0-7.83,5.6-7.83,12.26,0,7.37,3,11.87,7.85,11.87a10.46,10.46,0,0,0,4.33-.86ZM274,159.43l-17,0c.09,8.08,3.83,10.26,8.06,10.26a20.11,20.11,0,0,0,7.06-1.28v5.7a20.29,20.29,0,0,1-8.5,1.69c-9.32,0-14.34-6.74-14.34-17.92,0-12,5.76-19.22,13.48-19.22s11.43,6.86,11.43,16.54a33.38,33.38,0,0,1-.2,4.21Zm-7.15-5.61c.06-5.8-1.83-9.24-4.66-9.24-3.43,0-5,5-5.14,9.24Zm15.44-28.17c2.61,0,4.76,2.45,4.76,5.44s-2.15,5.41-4.76,5.41-4.76-2.43-4.76-5.41S279.61,125.65,282.25,125.65Zm0,10c2.2,0,3.86-2,3.86-4.6s-1.66-4.61-3.86-4.61-3.85,2-3.85,4.61S280,135.69,282.25,135.69Zm-1.83-7.79h2.14c1.28,0,1.93.58,1.93,1.78,0,1-.58,1.77-1.46,1.77l1.58,2.8h-.95l-1.57-2.8h-.75v2.8h-.92Zm.92,2.74h1.08c.7,0,1.15-.17,1.15-1s-.58-.94-1.15-.94h-1.08Z"/></g></svg>