<svg id="Layer_1" data-name="Layer 1" xmlns="http://www.w3.org/2000/svg" viewBox="0 0 300 300"><defs><style>.cls-1{fill:#d35c2b;}.cls-2{fill:#d56432;}.cls-3{fill:#d76d3a;}.cls-4{fill:#d87542;}.cls-5{fill:#da7d4b;}.cls-6{fill:#dc8455;}.cls-7{fill:#dd8b5e;}.cls-8{fill:#e09469;}.cls-9{fill:#e39d73;}.cls-10{fill:#e4a47c;}.cls-11{fill:#e7ae87;}.cls-12{fill:#e9b693;}.cls-13{fill:#ebbe9e;}.cls-14{fill:#eec7ac;}.cls-15{fill:#f2d2b9;}</style></defs><path class="cls-1" d="M46.93,150A102.76,102.76,0,0,1,149.59,47.33a105.15,105.15,0,0,1,60.3,19.15C166.7,73.81,77.48,96.22,48.56,168.33A92.36,92.36,0,0,1,46.93,150ZM231.07,86.85c-31,3.26-106.33,26.08-120.59,67.63-9.78,29.74,14.67,39.11,57.45,27.3,17.11-4.89,34.22-11.82,47.26-19.56v34.63c-.82,1.22-22.82,16.3-59.49,26.08-25.66,6.92-51.33,9-72.11,5.7a101.19,101.19,0,0,0,66,24c57.45,0,103.48-46,103.48-102.67A103.15,103.15,0,0,0,231.07,86.85Z"/><path class="cls-1" d="M46.93,150A102.76,102.76,0,0,1,149.59,47.33a105.15,105.15,0,0,1,60.3,19.15C166.7,73.81,77.48,96.22,48.56,168.33A92.36,92.36,0,0,1,46.93,150Zm204.92,13.85A75.69,75.69,0,0,0,253.07,150a103.15,103.15,0,0,0-22-63.15c-31,3.26-106.33,26.08-120.59,67.63-9.78,29.74,14.67,39.11,57.45,27.3,17.11-4.89,34.22-11.82,47.26-19.56v34.63c-.82,1.22-22.82,16.3-59.49,26.08-25.66,6.92-51.33,9-72.11,5.7a101.19,101.19,0,0,0,66,24h4.08a133.8,133.8,0,0,0,98.18-88.82Z"/><path class="cls-1" d="M46.93,150A102.76,102.76,0,0,1,149.59,47.33a105.15,105.15,0,0,1,60.3,19.15C166.7,73.81,77.48,96.22,48.56,168.33A92.36,92.36,0,0,1,46.93,150Zm187-59.07a35.12,35.12,0,0,0-2.86-4.08c-31,3.26-106.33,26.08-120.59,67.63-9.78,29.74,14.67,39.11,57.45,27.3,17.11-4.89,34.22-11.82,47.26-19.56v28.11a111.5,111.5,0,0,0,18.74-99.4ZM202.15,205a113.12,113.12,0,0,1-77,30.15,110.73,110.73,0,0,1-35-5.71c19.15,1.63,42.37-.4,65.59-6.51A230.89,230.89,0,0,0,202.15,205Z"/><path class="cls-2" d="M46.93,150A102.76,102.76,0,0,1,149.59,47.33a105.15,105.15,0,0,1,60.3,19.15C166.7,73.81,77.48,96.22,48.56,168.33A92.36,92.36,0,0,1,46.93,150ZM225.78,87.67c-33.41,4.89-101.85,27.29-115.3,66.81-9.78,29.74,14.67,39.11,57.45,27.3,17.11-4.89,34.22-11.82,47.26-19.56v15.89a105.31,105.31,0,0,0,10.59-90.44ZM164.26,220.48c-9,3.67-18.74,5.71-28.93,6.93,6.93-1.22,13.45-2.85,20.37-4.48Z"/><path class="cls-3" d="M204.59,62.81c.82,1.23,1.63,2.45,2.85,4.08-44,7.74-130.77,30.55-158.88,101.44A92.36,92.36,0,0,1,46.93,150,102.76,102.76,0,0,1,149.59,47.33a105.48,105.48,0,0,1,55,15.48Zm13.85,26.08c-35,6.92-95.33,28.92-108,65.59-9.78,29.74,14.67,39.11,57.45,27.3,17.11-4.89,34.22-11.82,47.26-19.56v.41a96.49,96.49,0,0,0,9-40.74A98.42,98.42,0,0,0,218.44,88.89Z"/><path class="cls-4" d="M187.48,54.67A95.17,95.17,0,0,1,199.7,68.11c-45.63,9-124.26,33.41-151.14,100.22A92.36,92.36,0,0,1,46.93,150,102.76,102.76,0,0,1,149.59,47.33a96.62,96.62,0,0,1,37.89,7.34Zm24,35.85c-35.45,8.15-89.22,29.33-101,64-9.78,29.74,14.67,39.11,57.45,27.3A269,269,0,0,0,205,167.93a91.39,91.39,0,0,0,12.22-46A89.2,89.2,0,0,0,211.52,90.52Z"/><path class="cls-5" d="M167.93,49a84.44,84.44,0,0,1,24,20.78c-45.22,9.78-114.07,33.82-141,92.89a20.73,20.73,0,0,1-3.67-7.33,23.68,23.68,0,0,1-.4-5.3A102.76,102.76,0,0,1,149.59,47.33,90.58,90.58,0,0,1,167.93,49Zm36.66,43.19c-35.44,9.37-83.11,30.15-94.11,62.33-9.78,29.74,14.67,39.11,57.45,27.3a249.45,249.45,0,0,0,24.44-8.56,83.17,83.17,0,0,0,17.52-51.33A91.34,91.34,0,0,0,204.59,92.15Z"/><path class="cls-6" d="M146.74,47.33a77.83,77.83,0,0,1,37.89,24c-42.78,10.59-101.85,33-130,83.52a70.65,70.65,0,0,1-6.11-21.19C56.3,85.63,97,48.56,146.74,47.33Zm50.93,46.45c-34.23,10.18-76.6,30.55-87.19,60.7-9.78,29.74,14.67,39.11,57.45,27.3,3.26-.82,6.92-2,10.59-3.26A76.82,76.82,0,0,0,203,121.89a73.46,73.46,0,0,0-5.29-28.11Z"/><path class="cls-7" d="M54.26,121.89a66.64,66.64,0,0,1,1.22-12.63A103.32,103.32,0,0,1,119,51.81h6.11c20.37,0,38.7,8.15,51.33,21.6C137,84,86.44,105.19,59.15,148a78,78,0,0,1-4.89-26.07ZM190.74,96.22c-33,10.59-70.48,30.15-80.26,58.26-9,27.71,11.41,37.48,48.48,29.74a70.48,70.48,0,0,0,36.67-62.33,67,67,0,0,0-4.89-25.67Z"/><path class="cls-8" d="M61.59,121.89a63.64,63.64,0,0,1,63.56-63.56,62,62,0,0,1,43.59,17.52C132.89,86,90.52,105.19,64.44,140.22a66.34,66.34,0,0,1-2.85-18.33ZM184.22,98.26c-31,11-64.78,30.15-73.74,56.22-5.29,16.71,0,26.89,13.45,30.56.4,0,.81.4,1.22.4a63.37,63.37,0,0,0,63.55-63.19v-.36A65.85,65.85,0,0,0,184.22,98.26Z"/><path class="cls-9" d="M68.52,121.89c0-31,25.67-56.63,56.63-56.63A55.28,55.28,0,0,1,161,78.3c-31.37,9.77-66.81,26.89-91.26,55.4A55.13,55.13,0,0,1,68.52,121.89ZM177.7,100.7C148.78,112.11,119,130,110.48,154.48c-2.85,9.37-2.44,16.71.82,22a51.8,51.8,0,0,0,13.85,2c31.37,0,57-25.67,57-56.63a53.5,53.5,0,0,0-4.49-21.19Z"/><path class="cls-10" d="M75.85,121.89A49.21,49.21,0,0,1,125,72.59h.18a53.77,53.77,0,0,1,27.7,8.15c-26.89,9.78-55,24-76.59,46a19.72,19.72,0,0,1-.41-4.89Zm95.34-18.33c-26.89,11.4-53,28.51-60.71,50.92a45.83,45.83,0,0,0-2,13.85,57.48,57.48,0,0,0,16.71,2.86c27.7,0,49.7-21.6,49.7-49.3A54.53,54.53,0,0,0,171.19,103.56Z"/><path class="cls-11" d="M82.78,120.26A42.55,42.55,0,0,1,144.3,84c-21.19,8.56-43.19,20-61.52,36.26Zm81.89-13.85c-24.45,11-46.86,27.29-54.19,48.07a50.52,50.52,0,0,0-1.63,6.52,44.65,44.65,0,0,0,16.3,3.26,42.43,42.43,0,0,0,42.78-42.37,40.67,40.67,0,0,0-3.26-15.48Z"/><path class="cls-12" d="M91.33,113.33a35.09,35.09,0,0,1,43.19-25.26A193.24,193.24,0,0,0,91.33,113.33Zm66.82-4.07c-21.59,11-40.74,26.07-47.26,44.41a34.89,34.89,0,0,0,47.26-44.41Z"/><path class="cls-13" d="M102.33,105.19a28.64,28.64,0,0,1,20-11.41Q112.12,99.12,102.33,105.19ZM152,112.52a25.3,25.3,0,0,1,1.63,9.37c0,15.89-12.63,28.11-28.52,28.11-4.08,0-8.15-.41-11.41-2C121.07,133.7,135.33,121.89,152,112.52Z"/><path class="cls-14" d="M145.52,116.59a23.72,23.72,0,0,1,.81,5.3,21.39,21.39,0,0,1-21.18,21.59,19.46,19.46,0,0,1-8.15-1.63c6.93-9.78,17.11-18.33,28.52-25.26Z"/><path class="cls-15" d="M139.41,120.67v1.22a13.92,13.92,0,0,1-14.26,14.26,8.92,8.92,0,0,1-3.26-.41A105.8,105.8,0,0,1,139.41,120.67Z"/></svg>