<svg xmlns="http://www.w3.org/2000/svg" xmlns:xlink="http://www.w3.org/1999/xlink" viewBox="0 0 300 300"><defs><clipPath id="clip-path"><path d="M45.03833,181.81719c-.77917.37685-1.37.71083-2.26067,1.21625,0,0-3.36546,4.76151-7.09052,10.687-3.44243,5.47234-7.18474,11.93775-9.55674,16.579C25.805,210.92461,25,212.49993,25,212.49993c6.24275-4.51272,13.84706-7.03041,24.03753-8.255,12.47689-1.4985,27.03465-1.25023,41.93488-.60787,13.09351.565,27.03478,1.43,41.01029,2.13249,23.67767,1.18175,54.32618-10.86733,70.88772-27.27494,0,0-.71083.42859-.95048.55664-30.811,17.82091-58.70222,13.93278-83.69872,9.38556C99.38176,185.01174,80.41385,177.904,63.621,177.904a41.58793,41.58793,0,0,0-18.5827,3.91322" fill="none"/></clipPath><linearGradient id="未命名的渐变_15" x1="6918.09628" y1="6129.75643" x2="6926.65968" y2="6129.75643" gradientTransform="matrix(0.00002, -12.8446, -12.8446, -0.00002, 78848.12446, 89106.58495)" gradientUnits="userSpaceOnUse"><stop offset="0" stop-color="#b5b954"/><stop offset="0.50963" stop-color="#7f9e50"/><stop offset="1" stop-color="#48824b"/></linearGradient><clipPath id="clip-path-2"><path d="M45.03833,181.81719c.12845-.05958.2484-.11132.37685-.17091-.12845.05959-.2484.11133-.37685.17091m.37685-.17091c20.44078-9.73679,46.74761,2.05513,72.806,6.79051,24.9965,4.54722,52.88767,8.43535,83.69872-9.38556.23965-.12805.95048-.55664.95048-.55664s-6.3797.5995-15.79087.71971c-9.42842.12858-28.86725-.6596-40.66754-1.66156-24.79971-2.098-43.51073-3.51077-58.49668-3.51077-18.29145,0-31.00811,2.098-42.50015,7.60431" fill="none"/></clipPath><linearGradient id="未命名的渐变_16" x1="6618.84097" y1="5780.28552" x2="6627.40478" y2="5780.28552" gradientTransform="matrix(-18.43012, 0, 0, 18.43012, 122188.88126, -106346.94505)" gradientUnits="userSpaceOnUse"><stop offset="0" stop-color="#b5b954"/><stop offset="0.1805" stop-color="#96a951"/><stop offset="0.45536" stop-color="#6c944e"/><stop offset="0.67126" stop-color="#52874c"/><stop offset="0.8" stop-color="#48824b"/><stop offset="1" stop-color="#48824b"/></linearGradient><clipPath id="clip-path-3"><path d="M250.96247,95.74673c-12.47689,1.50686-27.04314,1.25859-41.94338.61675-13.09363-.56553-27.02615-1.43054-41.01015-2.13249-23.67793-1.19011-54.31782,10.85844-70.87936,27.26606,0,0,.70221-.4197.942-.55664,30.81119-17.82039,58.71072-13.93278,83.6901-9.38556,26.21262,4.76987,52.69075,16.6726,73.19138,6.61959.78793-.37684,1.37018-.71083,2.26081-1.20788,0,0,3.36546-4.761,7.09914-10.69537,3.4423-5.47234,7.176-11.93723,9.54811-16.57017.31674-.62511,1.1389-2.201,1.1389-2.201-6.24275,4.51272-13.84706,7.02205-24.03753,8.24666" fill="none"/></clipPath><linearGradient id="未命名的渐变_17" x1="5400.19379" y1="5999.99332" x2="5408.75719" y2="5999.99332" gradientTransform="matrix(-0.00001, 9.54563, 9.54563, 0.00001, -57087.56145, -51480.79122)" gradientUnits="userSpaceOnUse"><stop offset="0" stop-color="#4588be"/><stop offset="0.24825" stop-color="#427db5"/><stop offset="0.68488" stop-color="#3a5f9b"/><stop offset="1" stop-color="#334686"/></linearGradient><clipPath id="clip-path-4"><path d="M254.61906,118.337c.11133-.05122.22266-.11132.334-.16255-.11132.05123-.22265.11133-.334.16255m-156.5475,2.60342c-.23977.13694-.942.55664-.942.55664s6.3712-.59114,15.79087-.71972c9.42829-.11969,28.85863.668,40.65918,1.66993,55.09685,4.65855,80.12772,5.926,101.03943-4.11027-20.44941,9.75352-46.78172-2.03788-72.8574-6.78214-10.85844-1.96994-22.25628-3.81914-34.21075-3.81914a95.77283,95.77283,0,0,0-49.47935,13.2047" fill="none"/></clipPath><linearGradient id="未命名的渐变_18" x1="5926.09352" y1="6362.89207" x2="5934.65682" y2="6362.89207" gradientTransform="matrix(18.43022, 0, 0, -18.43022, -109122.06441, 117387.5409)" gradientUnits="userSpaceOnUse"><stop offset="0" stop-color="#4588be"/><stop offset="0.33248" stop-color="#3c65a1"/><stop offset="0.61941" stop-color="#354e8d"/><stop offset="0.8" stop-color="#334686"/><stop offset="1" stop-color="#334686"/></linearGradient><clipPath id="clip-path-5"><path d="M157.27881,136.69678c-25.48454-1.98667-51.62006-3.965-75.22077-.54776a369.92668,369.92668,0,0,0-27.31728,30.79355c23.849-8.65749,55.31951-6.13979,87.82624-3.6221,25.519,1.98667,51.68017,3.965,75.31525.52215,5.84866-5.47182,23.06955-25.0306,27.28278-30.78519-23.87472,8.6831-55.36237,6.157-87.88622,3.63935" fill="none"/></clipPath><linearGradient id="未命名的渐变_19" x1="5374.53859" y1="5992.60245" x2="5383.10199" y2="5992.60245" gradientTransform="matrix(0.00001, 9.26198, 9.26198, -0.00001, -55353.45526, -49661.49954)" gradientUnits="userSpaceOnUse"><stop offset="0" stop-color="#d15938"/><stop offset="0.21191" stop-color="#d3603a"/><stop offset="0.52882" stop-color="#d87541"/><stop offset="0.9" stop-color="#e1954c"/><stop offset="1" stop-color="#e1954c"/></linearGradient></defs><g id="图层_1" data-name="图层 1"><g clip-path="url(#clip-path)"><rect x="38.8168" y="120.08436" width="150.23669" height="150.23623" transform="translate(-104.65823 137.73806) rotate(-45.00007)" fill="url(#未命名的渐变_15)"/></g><g clip-path="url(#clip-path-2)"><rect x="45.03807" y="171.91001" width="157.83209" height="24.96266" fill="url(#未命名的渐变_16)"/></g><g clip-path="url(#clip-path-3)"><rect x="108.77878" y="30.57772" width="154.5719" height="154.57208" transform="translate(-21.77403 163.16044) rotate(-45.00007)" fill="url(#未命名的渐变_17)"/></g><g clip-path="url(#clip-path-4)"><rect x="97.12958" y="107.73571" width="157.82346" height="20.63757" fill="url(#未命名的渐变_18)"/></g><g clip-path="url(#clip-path-5)"><rect x="70.41088" y="70.4673" width="159.08344" height="159.08344" transform="translate(-62.15229 149.96888) rotate(-44.99993)" fill="url(#未命名的渐变_19)"/></g></g></svg>