<svg id="Layer_1" data-name="Layer 1" xmlns="http://www.w3.org/2000/svg" viewBox="0 0 300 300"><defs><style>.cls-1{fill:#fff;}</style></defs><path class="cls-1" d="M136.81,79.16l70.93,30.19a5.73,5.73,0,0,0,6.39-1.32l28.76-30.19a5.73,5.73,0,0,0-4.16-9.68H139C132.81,68.16,131.09,76.73,136.81,79.16Z"/><path class="cls-1" d="M201.81,130.63l-60.43,45.81a5.72,5.72,0,0,0-2.2,5.43l7,45.33c.77,5,8.05,6.39,10.59,2.05l53.65-91.07C213.59,132.77,206.81,126.83,201.81,130.63Z"/><path class="cls-1" d="M112.47,79.94,62.57,68.32A5.73,5.73,0,0,0,56.45,77l57.88,90.07c3.25,5.07,11.32,2.28,10.71-3.72l-8-78.16A6,6,0,0,0,112.47,79.94Z"/><path class="cls-1" d="M152.75,152.93l32.12-31.57a5.74,5.74,0,0,0-2.47-9.62L139,99.71a5.73,5.73,0,0,0-7.07,7l11.28,43.63A5.73,5.73,0,0,0,152.75,152.93Z"/></svg>