<svg id="Layer_1" data-name="Layer 1" xmlns="http://www.w3.org/2000/svg" viewBox="0 0 300 300"><defs><style>.cls-1{fill:#fff;}</style></defs><path class="cls-1" d="M186.4,91.52q16.56-17,33.11-33.93c2.69-2.77,5.62-4.92,9.54-5.52,7.29-1.11,14,2.12,17.25,8.33a15.93,15.93,0,0,1-3.06,18.89c-9.91,10.09-20,20-29.93,30.08-1.47,1.49-3.51,2.59-4.29,5.56,7,0,13.76.16,20.48,0,11.29-.32,17.79,4.71,18.28,14.46.54,10.69-5.64,17.24-16.93,17.48-9.72.21-19.45,0-29.17.06-7.92,0-13.46-3.36-16.55-10.78-4.29-10.29-11.68-17.44-22-21.74-6.79-2.84-10.12-8.07-10-15.6.17-10.17,0-20.34.06-30.51.07-9.9,6.49-16.38,16.05-16.37s15.46,5.94,15.65,15.87c.15,7.51,0,15,0,22.52Z"/><path class="cls-1" d="M92.7,114.83,58.82,81.71C56,78.92,53.23,76.07,52.32,72c-1.61-7.21,1.12-14.25,7-17.85A16,16,0,0,1,78.39,55.8C86.48,63.31,94.2,71.22,102,79.06c3.87,3.9,7.54,8,12.37,13.17,1.56-9.16.13-16.73.46-24.24.48-11.21,7.88-17.46,18.86-15.77a14.81,14.81,0,0,1,12.86,14.53c.15,11,0,22.1,0,33.15,0,7-3.52,11.8-9.7,14.42a40.61,40.61,0,0,0-22.42,22.22c-2.88,6.73-8,10.31-15.49,10.32-10.16,0-20.33.22-30.49-.05-10.66-.28-17-7.17-16.47-17.32.48-9.47,7.05-14.89,17.55-14.69C76.51,114.94,83.46,114.83,92.7,114.83Z"/><path class="cls-1" d="M208.81,186.51c11.51,11.33,23.07,22.6,34.5,34,4.84,4.83,5.93,10.82,3.74,17.15s-6.88,9.59-13.37,10.4c-5.72.71-10.24-1.67-14.18-5.64Q205,227.82,190.41,213.32c-1.5-1.5-3.08-2.92-5.48-5.2,0,8.32,0,15.48,0,22.63-.06,11.28-5.41,17.1-15.66,17.08-10,0-16-6.31-16.07-16.91,0-10,.12-19.92-.05-29.88-.12-7.57,3.35-12.74,10.09-15.61,10.26-4.38,17.61-11.48,22-21.79,3.08-7.28,8.63-10.75,16.7-10.55,9.95.25,19.92,0,29.87.09,9.76.1,16.17,6.71,16.07,16.34s-5.8,15.27-16,15.39c-7.44.08-14.88,0-22.32,0C209.28,185.45,209.05,186,208.81,186.51Z"/><path class="cls-1" d="M90.43,184.9c-7.33,0-14.73,0-22.13,0C57.91,184.82,51.87,179,52,169.18c.08-9.57,6.5-15.94,16.4-16,10.16-.1,20.33.06,30.49,0,7.49-.07,12.75,3.3,15.57,10.1,4.28,10.32,11.38,17.68,21.7,22,7.33,3.06,10.77,8.47,10.53,16.58-.31,10.16,0,20.34-.1,30.51-.09,9.24-6.19,15.32-15.34,15.53-9.86.22-15.93-5.31-16.33-15.09-.16-4,.09-7.94.12-11.92s0-7.71,0-13.59c-12.79,13-24.14,24.57-35.65,36a15.85,15.85,0,0,1-19.44,2.9c-6.07-3.38-9-10.23-7.72-17.57.67-3.66,2.73-6.39,5.3-8.94q15.52-15.42,30.91-31C89.26,187.83,90.71,187.29,90.43,184.9Z"/></svg>