<svg id="Layer_1" data-name="Layer 1" xmlns="http://www.w3.org/2000/svg" viewBox="0 0 300 300"><g id="Слой_1"><g id="_845968320" data-name=" 845968320"><path d="M25,142.75188v14.494c.32808.79549,1.22244,10.793,1.591,13.00639a125.47125,125.47125,0,0,0,69.3442,92.54357c24.94314,12.01541,44.36959,11.19521,46.8257,12.20192h14.49174c.70336-.29662,10.9278-1.2494,12.98617-1.58422a123.1327,123.1327,0,0,0,33.644-10.52556c31.943-15.01758,57.93551-45.51563,66.86786-80.23379,1.04042-4.04259,1.93253-7.96833,2.62689-12.17271.33932-2.05837,1.31008-12.47382,1.62243-13.23335V142.76087c-.33258-.809-1.24716-10.984-1.62917-13.25582-.71683-4.24708-1.58423-8.11664-2.62015-12.157a117.117,117.117,0,0,0-7.95035-21.4129,124.9,124.9,0,0,0-92.54357-69.34195c-2.24938-.37528-12.175-1.24941-13.00864-1.591H142.76087c-.80672.33257-11.03791,1.25165-13.22886,1.61793C89.16456,33.33685,54.2082,59.68671,37.11428,96.12392a123.861,123.861,0,0,0-10.539,33.65528c-.33033,2.0741-1.25839,12.20641-1.573,12.98167Z" fill="#c3234b" fill-rule="evenodd"/><path d="M143.26647,32.69417c-25.01056,1.51906-45.73359,9.80423-64.42073,23.7679A111.72107,111.72107,0,0,0,60.08669,74.34474c-1.20221,1.42917-2.1505,2.49431-3.26058,4.00888C50.0173,87.65224,45.368,94.9262,40.78384,106.49443a118.95108,118.95108,0,0,0-8.1009,50.46381C36.22666,219.442,89.87016,271.18213,156.96049,267.31257c62.57134-3.60889,114.24635-57.23891,110.35432-124.282-1.45838-25.10719-10.02894-45.446-23.78138-64.19827L233.36067,67.18987a111.73123,111.73123,0,0,0-20.41518-16.49169C192.22021,37.91426,169.068,31.12792,143.262,32.69417Z" fill="#f8f8f8" fill-rule="evenodd"/><path d="M143.36535,34.97726C117.29639,36.73,95.31046,45.71854,76.29974,61.46643A114.8065,114.8065,0,0,0,34.966,156.77622,115.19165,115.19165,0,0,0,223.7115,238.52683l7.638-6.90544c1.26514-1.28086,2.2741-2.54824,3.51227-3.76169,8.71212-8.54134,17.73435-23.97239,22.26456-35.33837a115.15934,115.15934,0,0,0-18.595-116.23507l-6.90094-7.64249C208.70516,45.81292,176.64984,32.73687,143.36535,34.97726Z" fill="#c3234b" fill-rule="evenodd"/><path d="M144.6125,76.57164A72.73718,72.73718,0,0,0,77.76712,154.7538c2.68082,38.181,36.56081,70.51046,78.64057,67.00044,38.0619-3.17519,69.81385-36.26419,66.60944-78.19339C220.08912,105.26076,186.69676,73.21443,144.6125,76.57164Z" fill="#f8f8f8" fill-rule="evenodd"/><path d="M119.06713,118.26265l-.64493.37078c-2.93925-.04045-.96177-1.09435-2.99767-1.73254a3.43443,3.43443,0,0,0-3.70327.96852c-1.2,1.1348-1.73254.991-3.36171,1.66287-2.00669.82919-1.24491,1.382-3.16171,1.86737-1.95725.49661-1.78647.5101-2.773,1.99545-.83144,1.25165-1.29435,1.67411-2.18871,2.83588a11.20712,11.20712,0,0,0-2.86284,7.26048c-2.09208,2.05387-6.50544,2.41117-4.29651,7.69642,2.42465,5.80434,4.87177,3.20216,7.70541,2.1887,1.48535.84043,6.35488,5.98411,7.12565,9.5593,1.64714,7.64024,3.883,15.3052,5.84254,22.68253a65.27628,65.27628,0,0,0,6.3796,16.26248c1.92579,3.51676,12.15023,17.60178,15.43554,18.6804,6.80656,2.23589,11.92327-3.74147,15.94788-6.20208A106.15645,106.15645,0,0,0,167.62312,192.218a66.84454,66.84454,0,0,0,8.26045-9.07616c.91458-1.20446,4.03135-6.1414,4.874-6.65375,1.4876.50785,2.0359,1.5303,4.37291.53257a5.966,5.966,0,0,0,3.07183-2.87633c5.12795.24045,4.1864-2.155,7.65148-2.87408a9.49866,9.49866,0,0,0,2.79094-.91458,3.50768,3.50768,0,0,1-.48314-1.591l1.86512-1.61793c-.0764-1.07188-.0809-.3146-.23145-.71684-.773-2.06061.764-2.58869.1573-4.87177l-1.03368,3.26508-.4337-1.04717c-.63369.41123-.50785.85616-1.14379.96852l.27864-1.928a2.35127,2.35127,0,0,0-1.0112,1.537c-.06292-2.29657.45392-4.692.30336-7.38632-.11236-2.02467-.51235-5.26053-1.26514-6.75263.10337,1.36176.70336,2.91453.49887,4.51673-.16854,1.31682-.55055.982-.87863,1.81344-.01573.04045-.0382.1191-.04944.16179l-.97076,3.50328c-.24718.773.08764-.35505-.06067.92806-.11236.96852-.9011,1.44491-1.38873,2.26062-.50335.84267.34831.10336-.573.92806l-.31909-.564c-.02472-.05168-.06292-.13707-.08988-.1955-.31235-.65392.01573-.32359-.42921-.90784a4.75694,4.75694,0,0,0-.19325.54605c-.02247.05618-.05393.14607-.07865.20449-.02472.06517-.06292.15281-.08988.21573l-.65841-1.69884c-.37527.11686.12808.03146-.30337.24494-.88986.44044.37078.4719-.50111.11685a4.14609,4.14609,0,0,1,.67639-3.58866c.77526.63593,1.30783,1.82017,2.68982.2337-.6292-1.79771-1.83591-1.1348-3.37295-1.80894-.40673-.17753-.2337-.182-.627.32583-.02921.036-.0764.13932-.12808.2-.34157-.90785-.22247-.84043-1.00672-1.28312l1.17975,3.17969a11.53851,11.53851,0,0,1-2.937-5.4403,2.13456,2.13456,0,0,0,2.7797.09213c.06966-1.88084-.45617-1.1303-1.85164-2.0359a16.6193,16.6193,0,0,1-2.14376-2.04489c-.955-.84716-1.37524-1.00671-1.56625-2.67633-.17752-1.55726-.10562-1.72579,1.08312-2.164.04494-.01573.14831-.05843.18426-.07191a.575.575,0,0,0,.18651-.07865c-3.04036-2.91453-1.6022,2.92576-9.44918-2.7842-5.04256-3.66731-7.07172-1.08761-12.20192-2.6179a4.14461,4.14461,0,0,1,.17528-2.79319,14.29989,14.29989,0,0,1,1.8404-2.01118,4.15029,4.15029,0,0,0-2.528,1.33255c-1.66513,2.74824-.182,2.55274-5.47851,6.53241-7.70091,5.78861-2.41342,8.27393-2.59094,10.81544-.173,2.45611-4.0718,3.60664-6.1841,9.775-1.0629,3.10554-1.61569,10.67612-3.60215,12.548-1.737-1.51007-2.17747-3.84709-3.69878-5.18862-1.86736-1.6494-2.71678-2.79319-4.40213-4.537a48.66043,48.66043,0,0,1-7.34362-10.8469c-1.07188-2.04264-5.73018-10.99521-4.665-12.87156l1.73928-2.76173c6.27623-13.33447-3.90776-8.13461,7.78855-14.58162,2.03365-1.12132,3.937-2.21118,5.9122-3.30778l8.84021-4.865c1.48086-.782,1.63591-1.31906,3.65608-1.1303,1.71456,2.10331,3.08082,4.51448,5.02683,6.46724a9.37078,9.37078,0,0,0,3.11677,2.49206c2.24489,1.08986,2.08534.87414,3.89653-.24493,2.21791-1.36851,4.87852-2.7842,7.3953-4.05607a55.999,55.999,0,0,0,7.10318-4.29652c-.49886-5.33918-2.88082-10.32556-3.26508-13.75468.72133-.73706.89885-.609,1.69883-1.39772.01573-3.2089-3.41788-10.34579-7.25149-7.66721-2.71453-2.70779-4.20213-6.36387-7.97731-7.99079-1.346-.57976-2.43814.4-3.60889,1.0966-2.22017,1.32131-4.42235,2.5842-6.76836,3.86057-2.08983,1.13705-4.97515,3.11677-6.92565,3.85383.009,4.43134,1.33929,8.12787,2.68082,11.75249-4.292,3.01565-13.858,7.82675-18.85117,10.52106a60.68959,60.68959,0,0,1-6.483,3.25385c-1.04491-1.8-.86514-1.30558-3.23811-1.47412Z" fill="#0a4a78" fill-rule="evenodd"/><path d="M113.33245,224.25305c-6.656,1.155-10.52556,9.55705-11.01543,14.98162-.427,4.737,1.23142,7.30992,3.64259,9.33233a13.83316,13.83316,0,0,0,10.184,2.91453c8.62-1.50108,15.39509-18.53882,7.09194-24.38586-2.42914-1.71006-6.074-3.50552-9.90085-2.84262Zm1.20446,5.37065c-4.91447,1.39322-8.65145,10.38623-5.43581,14.676a5.57286,5.57286,0,0,0,5.847,1.81793c3.06508-.9348,5.57513-4.93694,6.27848-8.81549.8629-4.74594-2.09882-8.97953-6.68971-7.6762Z" fill="#f8f8f8" fill-rule="evenodd"/><path d="M180.07447,227.5878l4.883,17.14335c-1.93477-1.57748-12.84909-13.0783-14.54342-14.28276l-5.465,1.60221,7.18182,24.86,4.73246-1.27637-4.86728-17.022c1.19772.61571,12.44685,12.06035,14.6378,14.02883l5.3639-1.42243-7.211-24.88248-4.71448,1.25166Z" fill="#f8f8f8" fill-rule="evenodd"/><path d="M99.73731,234.073a52.34713,52.34713,0,0,1-4.2673-3.10778c-1.48535.8629-5.36165,4.47853-8.811-.018-2.919-3.80664,2.02691-10.35029,4.99537-12.34124,3.83361-2.57072,7.38857-1.04492,8.447,1.99545.82919,2.3842-.2809,3.63585-.782,5.456a24.71692,24.71692,0,0,0,4.32124,3.32351c1.27187-2.74375,3.27406-5.3257,1.94826-9.54132a12.17883,12.17883,0,0,0-5.5257-6.483c-10.03793-6.06051-18.89836,7.15486-19.82643,13.05133-1.0921,6.93465,6.15714,12.38618,11.57947,12.13226a10.6595,10.6595,0,0,0,7.92113-4.46954Z" fill="#f8f8f8" fill-rule="evenodd"/><path d="M212.67134,228.26868l-4.78863,2.76172c.33257,1.9213,1.22244,3.04936.427,5.22008a5.47882,5.47882,0,0,1-3.3617,3.09205c-5.85827,1.70558-12.60191-9.57277-9.22223-14.26253a5.3368,5.3368,0,0,1,4.61336-1.91456c2.08534.22921,2.96846,1.45839,4.19315,2.57521a18.45889,18.45889,0,0,0,4.64482-2.75947c-.77976-1.76175-3.92574-4.43134-6.59533-5.03357-6.16388-1.391-19.0714,5.23132-10.611,18.99724,2.68082,4.36392,7.25149,10.37724,15.12319,7.04924a12.52653,12.52653,0,0,0,6.25151-5.76613c1.82692-3.90327.38876-6.60881-.67638-9.957Z" fill="#f8f8f8" fill-rule="evenodd"/><path d="M165.54,141.03283l1.86737.75054c-1.43817,1.04941-2.13927-.35954-4.283.0382-3.74148.69436-4.60662-.21123-7.79755,3.43586a8.44081,8.44081,0,0,0-1.46288,4.24483c1.73029.81346,1.17974.87863,3.692.73257,1.94152-.11461,2.73251.21123,3.48754,1.29434-.00449-1.2-.02921-.52807.26292-.96177,1.44041-.22921,1.04267-.49212,2.23364.15505a2.36594,2.36594,0,0,0,1,.41347c1.89658.48763,1.80894.81122,3.3662.85841,2.22241.06966,1.06064-.355,2.07859-.72807,1.02694.89436.86066,1.782,1.728,2.60892l.991-.78875c.04494-.04044.12809-.11235.16629-.14606a1.69707,1.69707,0,0,1,.16629-.14606c.42021.391.62695.63593,1.05165,1.06963a7.49649,7.49649,0,0,1,.57078.55954c1.04941,1.25389.964,3.46507,3.09205,2.11005.218.991,1.65164,2.97071,2.07635,5.02683-.21573-1.04941.14381-1.06289.36852-1.346.76852,3.61563.973,2.59993,1.51457,3.937.61122,1.51682-.01573,3.25385.45167,4.77291.56853-.88986.48314-3.2471.564-4.67179a9.64674,9.64674,0,0,1,.28539-2.26061c.24269-.81121.08539-.5438.39325-.53257,1.70107.05393-.81346,1.16177.418.28314a11.61958,11.61958,0,0,1,.32808-3.8763l.65617-1.04267c.209-.24269.23819-.191.52583-.47864,1.146,1.04267.89885,3.66058.982,5.12571.00674.13033.04719.73256.06517.83593l.31909.98424c.30561-7.91439-.87863-6.99082-2.58195-7.89641l-.04045-4.4246c-.973-.746-.155-.018-1.18424-.391-2.24713-.81122-2.31454-1.67636-2.43589-2.81791-1.01121.63819-.6.56853-1.45614-.44268l-1.08087-.8c-1.30109-.5438-1.65164-1.32356-2.13252-1.6022l-2.11455-.99323c-.83818-.47864-1.85389.164-3.728-1.83366-2.1213-2.25612-.98874-.91458-2.83139-.85167-.26067.009-.98874-.17078-1.57524-.19774Z" fill="#f8f8f8" fill-rule="evenodd"/><path d="M223.24634,181.29916c.84267.70559,19.732,8.14135,21.83312,8.68516l-2.71229,7.229,5.26278,2.173,7.73013-19.99946-5.21334-1.89883-2.89431,7.1279c-3.81787-1.11682-19.90508-8.30989-22.02637-8.30539l-1.97972,4.99087Zm6.665-29.82392,12.49629,1.19772-1.009,11.62441c-3.22239.07191-10.17276-1.4112-12.62663-.96177l-.52358,5.58636,28.84866,2.76622c.68313-1.40895.5483-3.99765.75953-5.67176l-10.72555-1.07413a93.02186,93.02186,0,0,1,1.02244-11.56373l10.84016.88088.5056-5.65154-28.952-2.86734-.63819,5.73243Zm2.64936-11.54575-2.60217,1.36176.48313,2.81116c1.97073-.09214,14.61084-2.88532,15.83778-3.61564l-2.25388-10.2986-4.95267,1.05616,1.018,4.97739c-4.546.19775-7.87844-1.62692-7.69193-6.36837.15056-3.84034,3.77293-5.874,7.16385-6.91217,3.919-1.2,8.984-.71684,10.89859,1.82242a6.13685,6.13685,0,0,1,1.09435,5.41559,5.31162,5.31162,0,0,1-1.34828,2.01792l-1.8786,1.43592a1.78684,1.78684,0,0,0-.13033.14156l1.3258,5.97063c12.4918-3.16845,10.52781-24.9791-6.69645-23.59487-6.38409.51459-13.04908,3.31677-15.18386,7.73912a13.14354,13.14354,0,0,0-.32358,9.7458c1.40221,4.36168,3.78192,4.99987,5.23806,6.28972Zm-11.48733-26.52963a21.53555,21.53555,0,0,0,2.47185,5.15717l26.2712-12.25136-2.382-5.21109-26.36333,12.30528ZM205.19289,91.31507a25.70949,25.70949,0,0,0,3.81338,4.57291l18.36131-9.43121c-.80448,1.78647-11.43565,14.04906-12.77045,16.28046a24.36265,24.36265,0,0,0,3.63811,4.5392c1.44041-.32134,5.15042-2.41342,6.68521-3.17295l20.07811-10.08287-3.4808-4.3819a32.07905,32.07905,0,0,0-4.63134,2.3842L222.77,99.58l13.29627-16.36136a12.19262,12.19262,0,0,0-1.66288-2.24263c-.71234-.85391-1.24266-1.573-1.81793-2.25163l-18.79724,9.81322c.17527-.51459,11.721-14.69174,13.33222-16.22653a30.03963,30.03963,0,0,0-3.57294-4.41336l-18.35456,23.4151ZM181.225,75.61212c1.44715,1.17749,11.97945,7.50317,13.89176,8.00652,6.59758,1.73479,11.33-4.78189,13.51874-8.37505,2.80217-4.59988,5.40659-11.46261,1.0921-16.013-1.7977-1.89658-7.13464-4.81785-10.00422-6.49421a38.60216,38.60216,0,0,0-3.58193-2.0741,13.73918,13.73918,0,0,0-1.93253,2.87857L181.22275,75.60987Zm7.7908-1.973c.0764.06966.15955.07191.18427.16853.027.09663.12359.1191.15954.15056l3.328,2.03365c4.50325,2.67858,6.7751,2.719,10.85364-3.892,3.20441-5.19311,3.58418-8.4155-1.4449-11.39744a23.45764,23.45764,0,0,0-3.99989-2.19994l-9.08291,15.13891ZM153.55384,53.197c-2.79543,1.07188-4.60887,2.26286-5.692,4.901-3.65384,8.8874,4.06955,15.57711,12.01091,12.566,1.57748-.59774,2.54824-1.64715,3.55046-1.98871,1.66737,1.87635-.06516,3.38642,8.638,3.38193-.87863-2.337-3.39766-5.00436-4.40662-7.34812.42246-.86065,1.22693-1.6022,1.83141-2.59993a15.1845,15.1845,0,0,0,1.54378-3.27182,17.65771,17.65771,0,0,0-2.85386-2.41791c-.70559.64942-1.164,2.37072-3.07632,4.37067l-.97076-1.26289c-.39549-.61571-.63144-1.00672-.97076-1.55277a13.36613,13.36613,0,0,1-1.83366-3.24935c6.38635-1.88984,7.029-11.18172-.14831-12.94572-6.13017-1.50782-11.83563,2.99767-7.62226,11.42217Zm5.11447-1.56849c3.15946-.955,3.93922-5.04931,1.34378-5.68749a2.11244,2.11244,0,0,0-2.82914,1.97523A4.56331,4.56331,0,0,0,158.66831,51.6285Zm2.29881,13.076-4.63583-7.465a1.86,1.86,0,0,0-.45841-.43594,5.30739,5.30739,0,0,0-2.5505,7.38407c1.3685,2.60217,5.37963,2.75273,7.64474.51459ZM119.57048,45.37923l3.60215,10.33005L112.2718,59.5766c-1.18873-1.74827-2.73026-8.46045-3.937-10.13681l-5.27177,1.77973,9.70536,27.49589,5.4021-1.85838-4.19314-12.00642,11.16149-3.84484L129.24438,72.783a13.7469,13.7469,0,0,0,5.4066-1.92354c-.94605-3.69878-6.81106-19.23769-8.97729-25.44651l-.71908-1.63366c-.027-.04719-.07865-.13483-.12135-.2l-5.26053,1.8022Zm-14.01984,24.642c-1.77524.81346-3.32351,2.75049-5.08526,3.56619,1.13255,2.87184,2.99767,7.82226-2.51229,9.82-6.292,2.28309-15.04454-9.64243-11.65587-15.01307a5.97907,5.97907,0,0,1,4.69426-2.64263c2.3842-.03146,4.00663,1.41569,5.31446,2.43364,1.66962-1.01795,3.328-2.764,4.82684-3.41564-.48313-1.14828-2.24039-2.5415-3.501-3.355-5.36165-3.44935-10.539-1.55951-14.62208,2.01792-6.38859,5.5976-3.7999,13.36593.60448,18.99724,3.62687,4.63583,9.68513,10.48511,17.88491,5.638a14.2331,14.2331,0,0,0,6.08972-7.32564c1.41345-4.68078-.54155-7.43351-2.04264-10.72556ZM55.99467,94.906c.04045.05618.1146.06517.13707.1573L79.52887,111.919a34.34305,34.34305,0,0,0,3.30553-4.42909c-.93256-1.31682-6.87847-4.74369-8.41551-6.43129.85841-1.40221,1.71681-2.519,2.64937-3.85607.8629-1.23592,1.70332-3.02464,3.5617-2.93475,3.06059.14606,5.33019,3.99989,8.75931,4.38415.65841-1.555,2.3932-3.27183,3.25385-4.86279-.9438-.61347-2.44038-.92582-3.44935-1.555-3.07856-1.92129-6.54139-5.23356-10.184-3.77967.209-6.45825-8.50764-11.25363-13.08729-7.15486a19.46184,19.46184,0,0,0-2.60442,3.26957L55.99242,94.90823ZM63.954,93.50826a19.1141,19.1141,0,0,0,2.7797,2.17747l3.0089,1.97748c1.31233-1.41794,2.40443-3.31,3.546-4.80212,1.73029-2.25612,1.58422-3.90551-.53707-5.43805-2.5797-1.86512-3.96394-.88987-5.39761,1.18648-1.00671,1.45614-2.58644,3.39766-3.3999,4.901ZM41.89393,140.898l10.74353.29887c.44043,1.71006-.1236,9.384-.15506,11.739l-10.97723-.28539-.1191,5.7549,29.197.8247c0-1.72355.37527-4.17742-.05842-5.75266l-12.42888-.3528.32134-11.64013,12.6446.218.14157-5.68524-29.14079-.88312-.17078,5.76389Zm17.831,22.02412,1.67186,5.93692c2.11905-.05618,4.22011-.13483,5.79535,1.02469,3.76394,2.76622,3.7954,9.211-5.3257,11.957-13.30975,4.00439-14.467-8.73234-7.08969-10.8042a19.00692,19.00692,0,0,0-1.81119-6.01557,13.31308,13.31308,0,0,0-7.40879,5.80209c-1.72355,3.26508-1.22019,7.67845.173,11.01544,2.95722,7.07846,9.34581,8.39752,18.0512,5.81782,16.876-5.00436,11.93226-18.8332,6.66274-22.97691-2.39769-1.88534-6.97509-2.80442-10.71657-1.75726ZM49.28474,109.54379c4.19539,1.23143,8.70763,2.99767,12.90752,4.37965,4.16168,1.36851,10.348,2.75948,8.44921,8.4582-2.83139,8.4964-16.97483-1.88983-24.83529-2.77071l-1.773,5.20436c1.61794,1.11008,14.31423,5.03806,17.17707,6.0268,7.811,2.7033,12.321.27415,14.63781-6.3414,4.36617-12.47158-6.01782-14.0985-15.96811-17.49391a81.90781,81.90781,0,0,0-8.84471-2.90105L49.287,109.546Z" fill="#f8f8f8" fill-rule="evenodd"/><path d="M246.248,251.98264c-10.63342,2.87858-6.12568,18.46243,4.30325,15.61082a8.09807,8.09807,0,0,0,5.50322-10.02A7.92194,7.92194,0,0,0,246.248,251.98264Z" fill="#c3234b" fill-rule="evenodd"/><path d="M246.35808,253.02306c-8.80426,2.67409-5.22009,15.72093,3.51,13.6311a7.03959,7.03959,0,1,0-3.51-13.6311Z" fill="#f8f8f8" fill-rule="evenodd"/><path d="M157.70653,232.48879,160.275,258.0454l5.02908-.44044c.02023-2.45162-2.24039-24.70045-2.719-25.7611l-3.70327.28988c-.67863.1191.34831-.11685-.47639.09887l-.7011.25393Z" fill="#f8f8f8" fill-rule="evenodd"/><path d="M148.68206,93.03861a1.87649,1.87649,0,0,0,.68088.94155c1.0539.51235-1.1775-.61571,1.00671-.06067l.51684,1.51681-.72807-.07415a12.187,12.187,0,0,0,1.40221,3.29654l2.146,3.06059c-.57751-2.00219-1.5258-2.18421-1.91006-4.31674,2.382,1.42468,1.00447,4.07405,4.15045,4.60887-.44044-1.43367-.98649-1.64715-1.28761-3.29879l.93481.964a9.99628,9.99628,0,0,1,.68538,1.25165,9.37845,9.37845,0,0,0,1.555,2.45387l-.80672-2.22691c1.73479,1.69883,4.45157,7.44025,5.80883,10.01321.87638,1.66288,1.764,3.49429,2.737,5.08076,1.1348,1.85164,1.973,3.24037,3.05609,4.87852-1.22243-10.92554-2.22016-9.04919-5.883-15.48048-1.409-2.47409-2.4696-3.25609-2.48533-4.93245.05618.05169.14157.05618.16854.15955l1.10334,1.52355c.39324.72358.72807,1.30334,1.08536,1.982a21.85453,21.85453,0,0,0,2.37746,3.6426c-.91907-3.7999-5.59086-10.75252-8.45819-13.50525-3.3707-3.23587-2.8651-5.19986-7.85372-1.47637Z" fill="#f8f8f8" fill-rule="evenodd"/><path d="M170.52192,177.679c-.27865,2.62465-.782,1.22244-1.91006,2.97295l-1.11008,1.17076c-.0427.0382-.11011.08764-.15056.12808l-.7101,1.182c-.74829,1.009-1.07188.44269-1.67186,1.73928-.73257,1.58648-.7865,2.83588-2.17522,3.59541.40448.37752,1.34378.94829,1.89658.80223.44942-.1191.09662-.57527,1.61119-.57751l-1.03368-1.23143a4.2832,4.2832,0,0,0,2.55723-.33482l.66965-.20225a15.70664,15.70664,0,0,0-2.13927-1.05165c.61122-.44494-.39774-.45168,1.10109-.2382a8.90525,8.90525,0,0,0,1.28536.42021l-1.43367-1.30333,2.53027.6629c-.57976-.83144-.97525-.82694-1.37075-1.54378.90784.13708.60223.173,1.38873.46741.77751-.92133.15056-.89886,1.55277-.964a5.54406,5.54406,0,0,1-.8292-1.06964,3.98225,3.98225,0,0,0,1.81569-.96851c.74155-1.13031-.35056-1.18873,1.46512-1.64939a.61226.61226,0,0,0,.17753-.04944c-.24719-.90335.03146-.53706-.08539-1.75052.49212.09663,1.02918.34157,1.55276-.01573l-1.173-.52582c.03371.00449.14831-.11236.17977-.05393l1.51457-1.07863c.40448-.30111-.02023.15955.364-.24493.94155-.98649.15056-2.528.13483-2.7842-.03146-.54156.44943-.98874.28988-2.182-2.24264,2.7415-.42021-1.12132-3.46283,3.17519-.03595.04944-.08314.11685-.1191.164l-1.22019,1.85838c-1.14828,2.02916-1.0157,1.22693-1.49434,1.47861Z" fill="#f7ddc5" fill-rule="evenodd"/><path d="M137.87336,257.369l2.22915.418c-.15055,2.16848-.87638,3.18868-2.72352,3.71l-.23145,2.59094c5.33019-.52133,6.57061-6.7661,6.36162-12.21764l-5.04256-.5528-.59324,6.05377Z" fill="#f8f8f8" fill-rule="evenodd"/><path d="M245.20754,264.21377l1.155.06967.06067-4.10551,2.01793.018,2.4988,4.09652,1.2966-.02022-2.37971-3.82911c.62919-.54156,1.70557-.56852,2.2314-1.37749a2.60213,2.60213,0,0,0-.30336-3.09205c-1.08087-1.04267-4.94369-.93256-6.55039-.67639l-.027,8.91437Z" fill="#c3234b" fill-rule="evenodd"/><path d="M99.84967,129.58145c-.81571.14157-.20674-.964-.73706.27864.00225,1.93928-.28089,1.4112-.61572,3.119,4.28753-1.88984,1.54378-1.52131,3.2179-2.755.41347-.30561.04718-.02921.55054-.28763l.755-.37752a35.6609,35.6609,0,0,1,3.901,2.546c1.51456.94379,4.15494,1.54153,2.94823-1.54378-1.42018-.20449-1.0157.582-2.56847.33482-.01348-1.10109.49886-1.86287.20674-2.528-.7865-1.8022-.53707.32134-1.4112-1.537l-1.14828.373-.1236-1c-.14606.009-.74155.18427-.77526.18651-.49212.02922-.08763.25168-1.42243-.57526-.6292-.38875.06966-.20674-.75054-.39325C100.41594,127.07815,100.10809,126.53434,99.84967,129.58145Z" fill="#f7ddc5" fill-rule="evenodd"/><path d="M103.508,123.70745c1.45614,2.02691,5.1684.10562,6.83352,6.93914.30561,1.25615.06292.92132.92806,1.42019a4.43168,4.43168,0,0,0,3.00217.03146,2.38022,2.38022,0,0,0-.63594-2.71454c-.96177.28988-.13258.25617-.54605,1.03593l-2.11455.32808c.32134-1.65613,1.03143-2.05837,2.6606-2.52353-.44942-1.2112.01348.0427-.76852-.86739l-.50785-.64493c-.05393-.04269-.24718-.16628-.3146-.209l-.37077-.209c-1.30559-.76852-1.773-.92807-1.05166-1.75052-1.919-.13033-2.84711-1.537-4.43134-1.24041l.26741-.90335C103.51024,122.88051,103.91473,122.35693,103.508,123.70745Z" fill="#f7ddc5" fill-rule="evenodd"/><polygon points="126.498 255.421 131.462 256.475 132.84 250.342 127.919 249.369 126.498 255.421" fill="#f8f8f8" fill-rule="evenodd"/><path d="M218.06221,227.97655c.61347.71908,1.28536,1.35277,1.96624,2.15275a12.96857,12.96857,0,0,0,2.119,2.24488,24.82176,24.82176,0,0,0,3.69429-3.24036l-4.04259-4.62459c-.9438,1.07188-2.71454,2.10781-3.73923,3.46957Z" fill="#f8f8f8" fill-rule="evenodd"/><path d="M108.05394,146.63492a15.55655,15.55655,0,0,1,2.48757-2.80442c-.8584-1.75051-.33931-1.62018-1.73253-3.06284a4.84137,4.84137,0,0,1,.88312-2.17746c-2.62465,1.07862-5.04706,2.58869-5.90995,5.0493a5.912,5.912,0,0,0,1.89208-1.60221c-.33482,1.24267-.97975,1.05615-1.47861,2.64712.0337.02247.10337-.01123.11235.03146.21348,1.04492-.29212-.9393.86065.91009l.164.26966c.55728.7775.24943.05617,1.2.61122.98874.57751.38651-.0854.6.88312.62695-1.0966.05393-.50111.91907-.75279Z" fill="#f7ddc5" fill-rule="evenodd"/><path d="M184.68783,187.8046a4.3,4.3,0,0,0-.82919-1.737c.02921-.05618.10112-.1955.11685-.15506a2.17185,2.17185,0,0,0,.59773-2.2651c-1.009-.76852-2.02466-.62695-3.58192-.62246l-.06966,4.82909c1.61568-.13933,1.1348-.1955,1.12581-2.05163.818.54155.88312,1.07637,1.50558,1.95725l1.1303.04269Zm-3.34148-6.57286c-5.4066,1.5303-3.22688,10.30085,2.91452,8.34584C189.2158,188.00235,187.58438,179.46325,181.34635,181.23174Z" fill="#0a4a78" fill-rule="evenodd"/><path d="M246.45246,259.25211c1.71006-.00225,4.51448.41122,4.75043-1.35951.30336-2.26961-3.02689-1.75951-4.78864-1.75951Z" fill="#f8f8f8" fill-rule="evenodd"/><path d="M169.40959,171.81177l-.00674-.00674C169.7916,171.614,169.56689,171.72189,169.40959,171.81177Zm.03371.03371c-.22921.08539-.14831.03146-.03371-.03371ZM148.745,200.37729c.92357-.55054.53931-.37077,1-.95053.55729-.70335.74155-.38876,1.5258-.9056l1.555-1.2494c.0382-.0427.08988-.10786.12584-.15281l2.04713-2.41566c.8-.7438.6247.17752,1.43817-.69436l-.17978-1.50783,1.26514-.39549-.81122-.591c2.0022-.809-.72807-.99548,2.29433-.9775-.72133-1.27188-.58651-.418-.34831-2.05613l1.77973.44943-1.04267-1.34154a1.22374,1.22374,0,0,0,.42021-.08763,1.71775,1.71775,0,0,0,.53257-.31685l-1.11907-.79324c.68088-.58425,1.26963-.10561.63594-1.3685.9011.12584.75953.39325,1.53254-.02022a5.99766,5.99766,0,0,1-1.47412-1.17525c.44269-.24494.72807.07865,1.24491-.31235l-.77526-.95054,2.06736.35055-1.86287-1.39771,3.05161.91907c-.382-1.0539-1.31457-1.19547-2.4696-1.63141.05618-.045.15955-.1618.191-.09888l.82919-.1528c.08764.00674.94379.2337,1.25614.28089-.04719-.05618-.12359-.209-.14831-.16179l-.946-.87414c-.418-.40448-.12359-.018-.48538-.52358,1.34828.34831,1.64715.96177,3.08306.76627-.33707-.18651-.68987-.47864-1.164-.73706l-1.09435-.65616c-.49437-.43369-.06517.07191-.47415-.53257l2.68532.73931c-.51009-.84942-.19774-.32584-.71908-.84492-.59773-.59325-.31235-.009-.69436-.81346l2.13927.51459-.75729-1.05391,1.85164.20449c-.46965-.5101-1.22469-1.17749-1.65164-1.72355l1.92579.4-.61571-1.20671,1.764.56628c-.26516-.91458-.43594-.773-.83144-1.59321l1.92355.51009c-.34606-1.04491-.33932-.43819-.77526-1.41119,1.45164-.02023.76627.173,2.10556.5865l-1.13705-1.15053c.09663-.036.24943-.09888.47864-.19326.04719-.02022.13708-.05393.18876-.0764l.58425-.32808a2.572,2.572,0,0,1-.83143-1.03817l1.65838-.07865c-.49662-.618-.618-.5146-1.155-1.11907,1.06739-.47864.89211.11685,2.00444.555-.55279-1.21121-1.17749-1.1011-1.72355-2.155,1.78647.50785,1.70333.209,3.03812,1.23367-.74829-1.51232-1.7168-1.14379-2.58869-2.89655,1.20671.11011,1.19547,1.2584,2.76622,1.12806a13.14611,13.14611,0,0,1-2.5842-2.82689c1.49659.59774,1.97073,1.4,3.29878,1.9595-.66515-1.355-1.82242-1.52356-2.84262-3.11228,1.55277.50336,1.38424,1.26514,3.07183,1.537-.60223-1.6022-2.75723-1.90107-3.48754-3.501l2.12578.73257c-.82245-1.47412-1.55951-1.4112-2.53476-2.38421,0-.77975-.27415-.00674.85166-.5438l-4.03135-2.173c1.46063-.31685,1.81343.41572,3.22014.64268a8.87848,8.87848,0,0,0-3.30778-1.70108c.55055-.22921.42471-.08314.83144-.2.07415-.02247.155-.0427.23145-.06517l.2337-.0764.47415-.17977c-2.90329-.54156-2.79768-1.43142-3.19542-1.55951a47.51814,47.51814,0,0,0-5.0493-.46066c-3.0943.10786-1.12132,1.71231-3.03138.582.3483,1.81569.018.77077-.21573,1.03593-.02921.03146-.10336.0764-.13707.10786l-1.23143,1.182c-.09438.04045-.14157.04944-.16179.04045-.01124.01349-.02472.027-.0382.0427l-1.41345-.22921.75054,2.05163c-.84042-.32808-.79548-.53931-1.39771-1.25615.03371,1.04941.24943,1.00447.60672,1.86288l-.96626-.15056.33931,1.26963c-.41122-.227-.55953-.30337-.9393-.54381.50336,2.24938.0809.34381-.44942,1.98422-.009.02472-.02247.10561-.03146.12808l-.04719.10112c-.56178.97526.06741-.14381-.227.191-.6247.7056-.50111,2.13028-1.182,2.88307l-1.22244-1.22469c.2764,1.6067.8247,1.34379.84941,2.82015-.97525-.49437-.83143-1.919-1.24715-.67189-.33483,1.00447.23819,1.62018.44043,2.6606-.74155-.24718-.12134.15505-.72582-.52807l-.49662-.67639c-.02921-.0382-.08314-.12134-.13258-.17528.30786,1.33031.66515,1.66962.19326,2.71-.30786.67864.27415-.35729-.13708.40224-.28314.52133-.04719.22921-.49661.28539.47639,1.27187.52133.56852.609,2.04713l.29437,1.53929c.00674.05168.00674.13482.01349.18651.10112.809,2.16848,3.57968,2.84711,4.33471-.0382.02472-.11685-.01348-.13033.0382-.18427.69886-.66291-.51684-.83369.75279a7.36392,7.36392,0,0,0,.10112.81346l-1.23592-.5483.85391,1.51232-1.50108-1.17075a4.39992,4.39992,0,0,1-1.1775-1.41345,6.01069,6.01069,0,0,1-.55055,1.61794c-.6629-.1955-.7438.08763-1.22693-.34606a14.153,14.153,0,0,1-.91458-1.26738c.155,1.155.86739,2.25836.51684,2.99317a3.588,3.588,0,0,1-.97975-1.73478,10.62724,10.62724,0,0,0,.182,1.49209l-.40224,5.28076c-1.42468,5.77962-2.12129,4.42235-2.55049,6.07849l.66515-3.78192-1.20446,3.46507c-.39325-.44493-.3955-.52358-.22247-1.45839a8.882,8.882,0,0,0,.25842-1.6786l-.96177,1.0584c-.0427.04045-.12135.11011-.18427.16179l.58426-2.78419c-.36853.49212-.87863,1.5258-1.4876,1.7213l.48762-1.96175-1.27861,1.1011.71009-2.72353-1.31008.51909a11.61494,11.61494,0,0,1,.81571-1.95725c-.782.382-.85166.65167-1.43367,1.29884-.32808.36628-.09438.16854-.46291.45168l.9011-2.41342a5.67084,5.67084,0,0,1-1.24041,1.07188c-.66066.36179-.71908,0-1.19772,1.17525-.05393-.05843-.12135-.2382-.14831-.18651l-1.08762-.95054c-.43594-.33033-.16853-.01348-.43144-.35729,1.45838-1.9595.64043-.9011,1.70332-.85391l.57751.00224c.99773-.05617,1.20222-.44718,1.78422-1.38648-.209-.62919-.18426-.24718-.4674-.618l-.24494-.31684c-.755-1.08761-.87862-2.4696-1.382-3.55946l-.17528-.64717c-.16179-.74155-1.83366-2.2741-2.37971-2.97969l-.555-.85391c-.03146-.05394-.07415-.12584-.10337-.17977-.5438-1.03593-.28089-.69437-.04494-1.91007-1.46288.3146-.20224.88987-1.919,1.28986.45167-1.70333.95728-1.11233,1.57973-2.60218-1.164.55279-.33707.28089-1.07862.79324-.8584.59324.155.44268-1.33929.43819.13033-1.79321,1.2157-1.33929,1.555-3.39317-.05169-.04944-.14607-.182-.173-.13033l-1.26963-1.30334c-.2764-.56852-.57077-1.56625-.73481-2.00669-1.30559.35056-1.83591,1.17525-2.8988,1.67412l.8966-1.62693-1.57973.91459c.42246-1.65614.91683-1.06739,1.66063-2.45387l-1.964,1.17974a14.355,14.355,0,0,1,1.19772-2.10331c-1.23592.427-.88537,1.0539-2.18646,1.6.10337-2.24938,2.97745-1.54154,1.66512-3.63361-1.10334.33707-1.46513,1.10334-2.38645,1.60669.09213-1.79321,3.35272-1.57748,1.63367-4.42235l-1.41345-2.28084c-.34156-.364-1.53479-.55054-.43145-1.90332l-1.08312.29213c.50561-1.7595-.49436-1.80444-.32358-2.42915.02022-.06966.39774-.65841.50785-.87413l-.98649-.27864c.28763-2.42241-.31235-1.71906-.65167-3.22913-.22022-.973.1573-.7438-.13258-1.34154-.364-.75279-.33482.11461-1.00222-1.12356l2.91678-.227,1.03817-1.8067c-1.40221.0809-1.71456.3528-2.58645-.48313.69661-.30561.62695-.10337,1.12581-.32359,1.07863-.47639.65167-.52133,1.03818-.91682l1.04716-.6292c1.16626-.50336.60223.06966,1.10334-.79324-2.16848.58426-1.51007.31909-1.93478-.1146l2.13028-.69886c-.71009-.48313-1.88534-.13707-1.58422-1.04941.15505-.4674,1.37524-.77751,1.97522-1.02694l-.52807-.61571,1.53254-.6292-1.14154-.33707a.77038.77038,0,0,1-.16854-.04269c.58875-.63145.78875-.71909.89211-1.39322l.20449-.64493c.05393-.28314.06517.03146-.01123-.56178l-.28539-3.00666c.0382-1.11458.15281-1.7685-.64492-2.45836l-1.89433-1.37525c-1.01571-1.04491-.28988-.14157-.17978-1.71006-1.34378.64492-.23819.8539-1.57748.18426a9.45164,9.45164,0,0,1-1.71456-1.1348,2.08987,2.08987,0,0,1-.9438-1.73479c.018-.30561.06966-.35055.11011-.32808-.02247-.04494-.05168-.10786-.09213-.2-.21123-.26741-.71009-.36179-.89211-.62246-1.67636,1.20671-.93256,4.08753-.02472,5.28525,2.06511,2.72128,3.71,1.35952,4.0381,4.10551.22021,1.84265-.55954,1.91006-1.65389,3.96619l-.191.36628-.09663.18876c-.982,1.98421-.43369,1.15053-.48538,1.95725-.10336,1.63142-1.84264,1.4494-3.1662,2.24938-1.03144.62245-.72358,1.0921-.7438,1.182l-.12135.5056c-.27415.49886-1.1303.773-1.58422,1.34828a1.73942,1.73942,0,0,1-.01349.28763c-.0764.6674-.26291.73706-.82919,1.2966,1.91006-1.03144,1.4494-.24494,1.61794-.12135a10.77673,10.77673,0,0,0-1.573,1.1775,1.60009,1.60009,0,0,1,1.03818.13707l-.92133.82245c.02248-.00449.11686-.05842.13933,0,.02247.06067.13707.02247.16628.02922l1.12582.27864-1.08986.58875,1.05615.59549c-.57527.48088-.37752.27415-.73032.76177,1.27862,1.24267.60448,1.04492,1.04267,1.81344.15281.26965.8629.9011.8202,1.50558-.06067.84492-1.31906,1.08761.50786,2.27409-.85616.98874-.373.59774-.46966,1.44041-.12359,1.07863-.27864.50336-.57975,1.70108,1.37524-.6247.06741-.57976,1.70332-.9393a10.86173,10.86173,0,0,1-.77077,1.37524c.78875-.43819.34831-.53032,1.19548-.0382-.64268.64493-1.7258,2.54375-2.8224,2.78644-1.364.30112-.09887.15281-1.28086-.39774l.97975-1.70332c-.33483-.182.02471-.38651-1.54378.09662.28538-.8584.43145-.7056.26291-1.2539l-.58875-1.03817c-.9393-1.55951-.25842-1.4112-.627-3.04261-.19325-.84717-.80672-1.61569-1.06064-2.54825a9.72,9.72,0,0,0-.37977-1.58647,2.42485,2.42485,0,0,0-.35954-.47864c-.45392-.45617-.36628-.26966-.67414-.48314l-2.15724,1.63816-.627,1.60221,1.146-.63369c.1955.43144.03595.49886-.21348,1.06738,1.41794-.67414.82919-.45617,1.07413.29213l-.12584,1.31008.764.15055c-.59773,1.38424-.64268,1.43143-.29662,2.60892l.98424,4.28528c.15281,1.22693.364.82694.73482,1.7258.04943.12134.88312-.6-.09214,1.24491l1.12357-.53257c-.182,1.12806.16853.31909.12359,1.39771-.00225.0427-.02022.13258-.02247.17528-.08764,1.07862.79773,3.09654.13707,4.865l1.04267-.73482c.00225,1.39322-.4674,1.01346-.573,1.973l.88987-.73256-.71684,2.01118c.88537.46066.13708-.36628,1.02919.01573l-.7483,2.50555c.73257-.85166.53707-1.47636,1.38424-2.119.57976,1.164-.82021,1.89208-.80448,3.44485.53482-.83818.33932-1.12581,1.24267-1.50333l-.63145,2.35724c.65617-.89661.44943-.946,1.42019-1.373l-.60672,1.728c.01572.02023.08539.0045.09662.05394.11236.46965.173-.018.61572.218l-.72133,1.68984c.3101.209.427-.36179.97525-.01348l-.49437,1.41344c.555.29887-.12808-.00674.3528-.01348l.39774-.00674a.28419.28419,0,0,1,.13483.00674L116.42,178.497c.04943.02248.14381-.02921.15954.03146.03371.12584.81571-.17527.51684,1.31682.391-.42471.48538-.71009.88313-.50785l-.49662,1.68085c.3483.12584.07415.236.79773-.46965l-.74155,3.74822,1.2112-2.37747c.34831,1.35952-.52807,2.46735-.49212,3.99091.25393-.755,1.23817-2.16848,1.37524-2.80217l-.50335,2.92351a9.249,9.249,0,0,0,1.43367-1.9168l-.53707,2.49432,1.55277.55953-.42471,2.2314.7438-.32359-.32359,2.15276a2.00242,2.00242,0,0,1,.90784-1.209l-.26516,1.90332c.38651.17977.28764.13483.8-.164.04494-.027.12359-.11011.191-.1573-.17977,3.17519.45392-.37078.48538,3.02239a4.56649,4.56649,0,0,0,.40673-.36179l.5101-.45392c.02022.87189.08988.83818.1573.89436l.65166.01573-.28538,1.70557c1.2157-.87413,1.47636-.5056,1.54378,1.28087l.40223-.33258a1.8466,1.8466,0,0,1,.427-.28539l.12584,1.86288c.73256-.66291.18651-.49887.68762-.24269l.14831,3.03137c.33033-.64268.191-1.11682.55279-1.69883l.3573,1.546c.946-.573.182-.5056.82469-.43594l-.13932,1.89433,1.02919-1.05391c-.13483,2.1595.364,1.02469.90784,2.8988.28763.99548.30786,1.72355,1.17075,2.46286.764.65391,1.71456,1.65838,2.70555,1.79321a3.588,3.588,0,0,1,.71459.08539,7.478,7.478,0,0,0,1.93478.29212c2.50779-.009,6.85374-2.16174,7.51665-4.50325.49886-1.76624.27415-1.90331,1.85163-1.77073.05169-1.33929-1.06289-1.75277.84492-2.89206Z" fill="#f7ddc5" fill-rule="evenodd"/><path d="M182.09464,183.94852v.97975C184.05189,184.92827,184.05189,183.94852,182.09464,183.94852Z" fill="#0a4a78" fill-rule="evenodd"/></g></g></svg>