<svg id="Layer_1" data-name="Layer 1" xmlns="http://www.w3.org/2000/svg" viewBox="0 0 300 300"><defs><style>.cls-1{fill:#14a2dd;}</style></defs><polygon class="cls-1" points="127.39 99.34 145.4 88.94 145.4 132.26 149.51 134.63 153.63 132.26 153.63 88.94 171.65 99.34 175.76 92.21 149.51 77.07 123.27 92.21 127.39 99.34"/><polygon class="cls-1" points="116.7 194.5 98.69 184.1 136.21 162.44 136.21 157.69 132.09 155.31 94.58 176.97 94.58 156.17 86.35 156.17 86.35 186.47 112.59 201.63 116.7 194.5"/><path class="cls-1" d="M149.53,53.31,65.76,101.68v96.66l83.77,48.35,83.76-48.35V101.68ZM225,193.59l-75.5,43.66L74,193.59V106.41L149.53,62.8,225,106.41Z"/><polygon class="cls-1" points="182.33 105.52 200.34 115.91 149.51 145.26 98.69 115.91 116.7 105.52 112.59 98.38 86.35 113.54 86.35 143.84 94.58 143.84 94.58 123.04 145.4 152.38 145.4 211.07 127.39 200.67 123.27 207.8 149.51 222.94 175.76 207.8 171.65 200.67 153.63 211.07 153.63 152.38 204.46 123.04 204.46 143.84 212.68 143.84 212.68 113.54 186.44 98.38 182.33 105.52"/><polygon class="cls-1" points="204.46 156.17 204.46 176.97 166.94 155.31 162.83 157.68 162.83 162.44 200.34 184.1 182.33 194.5 186.44 201.63 212.68 186.47 212.68 156.17 204.46 156.17"/><path class="cls-1" d="M226.11,209.88h2.28c1.42,0,2.13.59,2.13,1.73a1.55,1.55,0,0,1-.47,1.22,2.32,2.32,0,0,1-1.1.45l1.74,2.68h-1l-1.64-2.62h-1V216h-.92Zm.91,2.71h1.56a1.52,1.52,0,0,0,.51-.12.77.77,0,0,0,.36-.31,1,1,0,0,0,.14-.57,1,1,0,0,0-.12-.49.89.89,0,0,0-.32-.29,1.69,1.69,0,0,0-.44-.12H227Z"/><path class="cls-1" d="M228.08,219.08a6.16,6.16,0,1,1,6.16-6.16A6.15,6.15,0,0,1,228.08,219.08Zm0-11.27a5.12,5.12,0,1,0,5.13,5.11,5.11,5.11,0,0,0-5.13-5.11Z"/></svg>