<svg id="Layer_1" data-name="Layer 1" xmlns="http://www.w3.org/2000/svg" viewBox="0 0 300 300"><defs><style>.cls-1{fill:#fff;}</style></defs><title>CHTR_Dark_bg</title><g id="g1851"><path id="path1853" class="cls-1" d="M94,126.66a16.54,16.54,0,0,0-11.88,4.59V111.87H75.06v56.87h7.09V145.19c0-6.8,4.78-11.73,11.36-11.73,6.42,0,10.25,4.16,10.25,11.14v24.14h7.09V143.93c0-10.33-6.76-17.27-16.82-17.27"/></g><g id="g1855"><path id="path1857" class="cls-1" d="M121.18,155.69c0-4.43,4-7.07,10.7-7.07A47.26,47.26,0,0,1,142.94,150v2.92c0,5.63-5.39,9.88-12.54,9.88-4.58,0-9.22-2.38-9.22-6.92ZM132.39,127a32.28,32.28,0,0,0-14.12,3.41l-1.51.7,2.7,6.45,1.67-.85a23.53,23.53,0,0,1,11-2.84c4.75,0,10.38,1.63,10.67,9.21a47.07,47.07,0,0,0-10.74-1.14c-11.08,0-18.23,5.5-18.23,14v.15c0,8.82,8.4,13.57,16.3,13.57a19,19,0,0,0,12.7-4.51v3.62h7V143.49c0-10.36-6.54-16.53-17.49-16.53"/></g><g id="g1859"><path id="path1861" class="cls-1" d="M161.08,134v-6.41H154v41.19h7.09V151.55c0-11.83,7.34-17.13,14.61-17.13h2.1V127h-1.66a19.48,19.48,0,0,0-15,7"/></g><g id="g1863"><path id="path1865" class="cls-1" d="M197.78,162.54c-4,0-5.8-1.72-5.8-5.59V134.42h13.23V127H192V115.49h-7.1V127H180.1v7.45h4.78v22.9c0,7.46,4.72,12.09,12.31,12.09a15.62,15.62,0,0,0,6.87-1.49l1-.47v-7.19l-2.45,1.1a10.94,10.94,0,0,1-4.84,1.18"/></g><g id="g1867"><path id="path1869" class="cls-1" d="M224.24,133.46c7.27,0,10.67,5.48,11.59,11.18H212.36c1.24-6.57,6-11.18,11.88-11.18m.15-6.8c-11,0-19.64,9.4-19.64,21.41v.15c0,12.2,8.7,21.41,20.23,21.41,8.66,0,13.57-4.09,16.88-7.65l1.21-1.31L238,156.16l-1.15,1.23c-3.42,3.66-7.13,5.37-11.68,5.37-5.43,0-11.48-3.59-12.83-11.4h31l.08-1.53.08-1.54v-.14c0-12.65-7.83-21.49-19-21.49"/></g><g id="g1871"><path id="path1873" class="cls-1" d="M269.34,127a18.78,18.78,0,0,0-15.06,7v-6.41h-7.09v41.19h7.09V151.55c0-11.83,7.35-17.13,14.62-17.13H271V127Z"/></g><g id="g1875"><path id="path1877" class="cls-1" d="M66.38,158a17.77,17.77,0,0,1-12,4.51c-10.15,0-18.1-9.4-18.1-21.42s7.78-21.27,18.1-21.27A17.55,17.55,0,0,1,65.92,124l1.21,1,5.23-5.24-1.44-1.22a24.09,24.09,0,0,0-16.49-5.83C39.93,112.7,29,125,29,141.26s10.84,28.41,25.22,28.41a23.86,23.86,0,0,0,17-6.52l1.34-1.22L67.6,157Z"/></g><g id="g1879"><path id="path1881" class="cls-1" d="M33.24,182.62v0A5.43,5.43,0,0,1,38.77,177a5.6,5.6,0,0,1,4.2,1.67l-1.21,1.39a4.3,4.3,0,0,0-3-1.33,3.6,3.6,0,0,0-3.54,3.78v0a3.62,3.62,0,0,0,3.54,3.8A4.21,4.21,0,0,0,41.83,185L43,186.23a5.5,5.5,0,0,1-4.35,1.9,5.39,5.39,0,0,1-5.45-5.51"/></g><g id="g1883"><path id="path1885" class="cls-1" d="M59,182.62v0a3.68,3.68,0,0,0-3.65-3.81,3.62,3.62,0,0,0-3.61,3.78v0a3.65,3.65,0,0,0,3.64,3.8A3.61,3.61,0,0,0,59,182.62m-9.24,0v0a5.61,5.61,0,0,1,11.22,0v0a5.5,5.5,0,0,1-5.63,5.55,5.44,5.44,0,0,1-5.59-5.51"/></g><g id="g1887"><path id="path1889" class="cls-1" d="M68.78,177.22h2l3.26,5.07,3.27-5.07h2V188H77.44v-7.69l-3.39,5.05H74l-3.35-5V188H68.78Z"/></g><g id="g1891"><path id="path1893" class="cls-1" d="M87.59,177.22h2l3.26,5.07,3.27-5.07h2V188H96.25v-7.69l-3.39,5.05H92.8l-3.35-5V188H87.59Z"/></g><g id="g1895"><path id="path1897" class="cls-1" d="M106.23,183.4v-6.18h1.89v6.1c0,2,1,3.05,2.71,3.05s2.7-1,2.7-3v-6.18h1.88v6.09c0,3.2-1.81,4.81-4.61,4.81s-4.57-1.61-4.57-4.72"/></g><g id="g1899"><path id="path1901" class="cls-1" d="M123.51,177.22h1.74l5.75,7.42v-7.42h1.85V188h-1.58l-5.91-7.63V188h-1.85Z"/></g><path id="path1903" class="cls-1" d="M141.24,177.22h1.88V188h-1.88Z"/><g id="g1905"><path id="path1907" class="cls-1" d="M151,182.62v0a5.43,5.43,0,0,1,5.54-5.54,5.61,5.61,0,0,1,4.2,1.67l-1.22,1.39a4.26,4.26,0,0,0-3-1.33,3.6,3.6,0,0,0-3.54,3.78v0a3.62,3.62,0,0,0,3.54,3.8,4.21,4.21,0,0,0,3.08-1.37l1.21,1.22a5.51,5.51,0,0,1-4.35,1.9,5.39,5.39,0,0,1-5.46-5.51"/></g><g id="g1909"><path id="path1911" class="cls-1" d="M174.84,183.69,173,179.4l-1.83,4.29Zm-2.7-6.54h1.75l4.72,10.8h-2l-1.09-2.59h-5.07L169.35,188h-1.93Z"/></g><g id="g1913"><path id="path1915" class="cls-1" d="M187.22,179h-3.4v-1.75h8.71V179h-3.41v9h-1.9Z"/></g><path id="path1917" class="cls-1" d="M200.13,177.22H202V188h-1.89Z"/><g id="g1919"><path id="path1921" class="cls-1" d="M219.17,182.62v0a3.68,3.68,0,0,0-3.65-3.81,3.63,3.63,0,0,0-3.62,3.78v0a3.66,3.66,0,0,0,3.65,3.8,3.61,3.61,0,0,0,3.62-3.76m-9.24,0v0a5.49,5.49,0,0,1,5.62-5.54,5.44,5.44,0,0,1,5.59,5.51v0a5.61,5.61,0,0,1-11.21,0"/></g><g id="g1923"><path id="path1925" class="cls-1" d="M229,177.22h1.75l5.74,7.42v-7.42h1.86V188h-1.58l-5.92-7.63V188H229Z"/></g><g id="g1927"><path id="path1929" class="cls-1" d="M245.84,186.39,247,185a5,5,0,0,0,3.39,1.39c1.17,0,1.9-.55,1.9-1.35v0c0-.76-.43-1.18-2.42-1.64-2.28-.55-3.57-1.22-3.57-3.2v0c0-1.84,1.53-3.11,3.66-3.11a5.92,5.92,0,0,1,3.9,1.35l-1,1.42a4.85,4.85,0,0,0-2.91-1.1c-1.1,0-1.75.57-1.75,1.27v0c0,.83.49,1.2,2.56,1.69,2.27.55,3.44,1.36,3.44,3.14v0c0,2-1.58,3.2-3.83,3.2a6.66,6.66,0,0,1-4.48-1.71"/></g></svg>