<svg id="Layer_1" data-name="Layer 1" xmlns="http://www.w3.org/2000/svg" viewBox="0 0 300 300"><path d="M284.83486,194.06876h-1.30359v-6.69264h2.04148l1.20519,5.26551,1.2052-5.26551H290v6.69264h-1.30358v-5.61005l-1.25441,5.61005h-1.35277l-1.2544-5.61005v5.61005Z" fill="#fff"/><path d="M279.79268,193.10917a2.61722,2.61722,0,0,0,.81167-.0984.78429.78429,0,0,0,.5903-.7874.57844.57844,0,0,0-.29517-.51673,3.15138,3.15138,0,0,0-.91-.31987l-.71329-.14759a4.13417,4.13417,0,0,1-1.45115-.51674,1.65351,1.65351,0,0,1-.66409-1.45173,2.00753,2.00753,0,0,1,.63951-1.50092,2.75567,2.75567,0,0,1,1.91848-.59054,2.89688,2.89688,0,0,1,1.79552.56594,2.00562,2.00562,0,0,1,.78707,1.62392h-1.35281a.9387.9387,0,0,0-.51649-.8612,1.65061,1.65061,0,0,0-.81169-.17219,1.48741,1.48741,0,0,0-.86084.22147.68021.68021,0,0,0-.31973.61513.56775.56775,0,0,0,.31973.54126,3.51008,3.51008,0,0,0,.86084.27074l1.156.27059a2.874,2.874,0,0,1,1.13142.49213,1.65178,1.65178,0,0,1,.59029,1.37794,1.88612,1.88612,0,0,1-.71327,1.52552,2.98734,2.98734,0,0,1-1.9677.61513,3.3725,3.3725,0,0,1-2.06606-.59053,1.98244,1.98244,0,0,1-.73786-1.6486h1.32819a1.49959,1.49959,0,0,0,.24594.68893,1.43441,1.43441,0,0,0,1.156.41834Z" fill="#fff"/><polygon points="116.131 118.407 126.585 118.407 126.585 115.725 119.132 115.725 119.132 112.847 125.601 112.847 125.601 110.165 119.132 110.165 119.132 107.384 126.486 107.384 126.486 104.702 116.131 104.702 116.131 118.432 116.131 118.407" fill="#fff"/><polygon points="99.259 118.407 102.284 118.407 102.284 112.896 107.867 112.896 107.867 118.407 110.892 118.407 110.892 104.678 107.867 104.678 107.867 110.115 102.284 110.115 102.284 104.678 99.259 104.678 99.259 118.407" fill="#fff"/><polygon points="87.797 107.458 83.616 107.458 83.616 104.678 95.004 104.678 95.004 107.458 90.822 107.458 90.822 118.407 87.797 118.407 87.797 107.458" fill="#fff"/><path d="M270.30023,187.4746h-5.63338v13.80394h3.02586v-4.13417H270.004c3.07476,0,5.55705-1.64877,5.55705-4.84863v-.04884C275.56105,189.39511,273.59475,187.4746,270.30023,187.4746Zm2.21364,4.84863a2.14191,2.14191,0,0,1-2.41207,2.0915l.02445-.02747h-2.40909v-4.20745h2.33574c1.52366,0,2.461.73891,2.461,2.09152Z" fill="#fff"/><path d="M247.62129,195.34823v-7.87371h3.0253v7.79991c0,2.26365,1.1068,3.39552,2.9761,3.39552s2.97612-1.10719,2.97612-3.29713v-7.8983h3.0253v7.77531c0,4.18292-2.33661,6.22518-6.0506,6.22518s-5.95221-2.04226-5.95221-6.12678Z" fill="#fff"/><path d="M235.914,187.25172a7.11944,7.11944,0,0,0-7.33088,7.1111v.05191a7.32058,7.32058,0,0,0,14.63433-.02747v-.04887A7.07787,7.07787,0,0,0,235.914,187.25172Zm4.131,7.163h-.0243a4.11553,4.11553,0,0,1-4.13119,4.28072,4.1781,4.1781,0,0,1-4.15847-4.33263V194.314a4.10137,4.10137,0,0,1,4.134-4.28072,4.18165,4.18165,0,0,1,4.17994,4.32956Z" fill="#fff"/><path d="M221.54835,196.35663a4.31765,4.31765,0,0,0,2.95251-4.28072v-.04884a4.23476,4.23476,0,0,0-1.18166-3.151,5.37416,5.37416,0,0,0-4.00894-1.40147h-6.29592v13.80394h3.02586v-4.4059h2.38464l2.95251,4.4059h3.54185Zm-.1221-4.13417c0,1.18163-.81222,1.94495-2.31144,1.94495H216.0402v-3.96317h3.00141c1.49907,0,2.38464.64119,2.38464,1.96938Z" fill="#fff"/><path d="M195.03516,194.364v-.0492a7.0582,7.0582,0,0,1,7.2066-7.111,7.53646,7.53646,0,0,1,5.41109,1.89467l-1.91846,2.31285a5.034,5.034,0,0,0-3.591-1.40245,4.12965,4.12965,0,0,0-3.95994,4.28131v.0492a4.13283,4.13283,0,0,0,4.15672,4.37972,4.66618,4.66618,0,0,0,2.85312-.83653v-1.96839H202.1434V193.306h5.9768v5.97912a8.9423,8.9423,0,0,1-5.87842,2.18993,6.88672,6.88672,0,0,1-7.2312-7.08638Z" fill="#fff"/><path d="M256.03221,128.39647c-7.84389,0-11.82852,1.67321-17.26645,4.012l2.95265,8.41488c4.37838-1.74648,7.20565-3.151,12.71693-3.151,6.61646,0,10.47586,3.59373,10.47586,8.71105v2.41209l-.24435-.07328c-3.81348-1.47778-5.4348-1.96938-10.89718-1.96938-9.41943,0-18.81442,6.59512-18.81442,16.19162,0,11.09565,9.395,14.73822,16.381,14.73822,8.01787,0,10.99483-3.34639,13.47712-5.70964v4.873h10.824V146.77728C275.63738,133.81,268.4286,128.39647,256.03221,128.39647Zm9.053,29.60166c0,5.92949-6.00282,10.9491-10.57665,10.9491v-.02441c-6.17367,0-8.75674-2.7327-8.75674-7.06227,0-3.838,3.19671-6.88822,10.52774-6.88822a22.189,22.189,0,0,1,8.80565,1.96632Z" fill="#fff"/><path d="M218.54884,149.92679c0-8.415-2.50877-12.13043-10.05972-12.13043-6.86227,0-11.31412,5.01952-11.31412,12.3273v26.77056H186.67254V129.20906H197.175v5.88071c3.44343-5.04412,8.48559-6.69264,13.69993-6.69264,10.69921,0,18.15178,7.03711,18.15178,18.23253v30.19077H218.52426V149.87759Z" fill="#fff"/><path d="M158.11665,128.42173c8.01826,0,13.60153,1.87,19.18482,6.422l-6.61631,7.7261c-3.68939-2.95265-7.182-4.798-12.93746-4.798-7.94448,0-14.41321,6.791-14.41321,15.13228v.1476c0,8.93177,6.39493,15.403,15.20028,15.403a18.215,18.215,0,0,0,10.37947-2.90339l.07379-.0492v-7.13558H158.01826v-8.7349h21.12791v20.57006a32.29965,32.29965,0,0,1-20.95574,7.50464c-7.35417,0-13.99506-2.48512-18.6683-6.96331a24.03339,24.03339,0,0,1-7.182-17.5436v-.1476a24.02884,24.02884,0,0,1,7.305-17.396,26.212,26.212,0,0,1,18.47154-7.234Z" fill="#fff"/><polygon points="116.058 129.234 126.56 129.234 126.56 176.82 116.058 176.82 116.058 129.209 116.058 129.234" fill="#fff"/><path d="M90.35488,128.37253c8.11666,0,13.89671,2.16526,19.25862,7.234l-6.69009,7.48c-4.23051-3.69078-8.14126-5.33931-12.64231-5.33931-8.31342,0-14.56078,6.52038-14.56078,15.13228v.1476c0,8.7103,6.24736,15.28,14.56078,15.28,5.55868,0,9.00211-2.04226,13.01124-5.56085l6.6655,6.545c-5.78,5.95452-11.60928,8.39044-20.04569,8.39044a25.51405,25.51405,0,0,1-18.0288-7.111,24.17066,24.17066,0,0,1-7.182-17.37134v-.14767c0-14.04961,11.019-24.62991,25.62894-24.62991Z" fill="#fff"/><path d="M63.34856,182.30741l-.09838-.0492-.07379.07379a6.83912,6.83912,0,0,0,1.7709,10.35883l.09839.0492.07378-.0738a6.85464,6.85464,0,0,0-1.77091-10.35882m-.36893-2.43593.09838-.0984a9.06806,9.06806,0,0,0-2.33661-13.72982l-.123-.0738-.09838.123a9.05123,9.05123,0,0,0,2.33661,13.70522l.123.0492Zm-3.56641-41.01712.83626-.66433a12.66769,12.66769,0,0,0-.34434-19.5366l-.83626-.56593-.81167.59053a12.08767,12.08767,0,0,0-4.47646,9.6699v.246a12.07807,12.07807,0,0,0,4.72242,9.62071l.86086.63973ZM58.331,115.184l.71328.54133.71328-.56593a10.49713,10.49713,0,0,0-.29515-16.19035l-.68869-.46746-.66409.49206a10.05218,10.05218,0,0,0-3.714,8.02138v.19687A9.954,9.954,0,0,0,58.331,115.184M45.88545,180.38821h-.123a6.67208,6.67208,0,0,0-4.59943,3.617,6.89517,6.89517,0,0,0-.14758,6.27438l.04919.123h.123a6.66369,6.66369,0,0,0,4.67323-3.81386,6.90789,6.90789,0,0,0,.04919-6.10211l-.04919-.0984Zm7.50176-8.046a9.38832,9.38832,0,0,0,.29515-8.58723l-.0492-.123h-.14757a9.02621,9.02621,0,0,0-6.44413,5.14252,9.40334,9.40334,0,0,0-.17217,8.34116l.04919.12307h.123a9.04592,9.04592,0,0,0,6.32115-4.87185m-19.65214-5.41318v-.12307l-.123-.0492a9.189,9.189,0,0,0-8.23963.812,9.59289,9.59289,0,0,0-4.79621,7.52917v.14767l.123.0492a8.74218,8.74218,0,0,0,3.24666.61513,9.532,9.532,0,0,0,5.21434-1.59933,9.63623,9.63623,0,0,0,4.57484-7.38157m36.7709,11.41682-.17216-.0492-.09839.17227a8.18585,8.18585,0,0,0,0,7.48,7.95183,7.95183,0,0,0,5.38651,4.50279h.17217l.07379-.123a8.22947,8.22947,0,0,0,.123-7.25857,7.95688,7.95688,0,0,0-5.4849-4.72426m-15.47083.14767-.17217.0984a8.69,8.69,0,0,0-4.52566,6.52045,8.97544,8.97544,0,0,0,2.09066,7.603l.123.123.17217-.0738a8.75976,8.75976,0,0,0,4.501-6.27438,8.90647,8.90647,0,0,0-2.04146-7.8491l-.123-.1476Zm-13.15882-7.8491-.0492-.14767h-.17217a10.78579,10.78579,0,0,0-8.80534,4.50278,11.42933,11.42933,0,0,0-2.09065,9.916l.04919.14759h.5903a10.92361,10.92361,0,0,0,8.16585-4.25671,11.26929,11.26929,0,0,0,2.28742-10.162m-1.67252-4.67506a11.29894,11.29894,0,0,0,5.23893-1.35326,10.50643,10.50643,0,0,0,5.55868-7.97217v-.123l-.09839-.0492a9.994,9.994,0,0,0-9.24806.68893,10.52755,10.52755,0,0,0-5.28813,7.82451v.09839l.09839.04928a8.36051,8.36051,0,0,0,3.76317.83652m36.59874-60.65219-.39353-.66433-.73788.14767c-3.66479.71353-7.03443,3.64159-8.78074,7.65224a13.66207,13.66207,0,0,0,.44273,12.25349l.41813.73813.78706-.19687a12.03618,12.03618,0,0,0,6.17358-3.64158,14.12828,14.12828,0,0,0,2.70556-4.37972,13.70338,13.70338,0,0,0-.6149-11.93363M48.09909,125.02621l.88545.22139.44273-.78732a14.495,14.495,0,0,0,1.7955-7.89831,15.79029,15.79029,0,0,0-1.37737-5.58545c-1.96767-4.42891-5.70625-7.726-9.76458-8.56263l-.81167-.17227-.44272.7136c-2.189,3.59239-2.41041,8.61183-.6149,13.11462a14.47755,14.47755,0,0,0,9.88756,8.95637m-21.84118-1.20566a10.16324,10.16324,0,0,0,8.95292,2.26365l.54111-.14759.04919-.59053a10.07321,10.07321,0,0,0-.02459-1.7224,11.27815,11.27815,0,0,0-3.73859-6.91411,10.17447,10.17447,0,0,0-9.17428-2.48512l-.5903.14759v.63981a10.62779,10.62779,0,0,0,3.98454,8.8087m12.052,3.88765-.71329.1476-.09838.73812a12.46618,12.46618,0,0,0,3.73858,10.26044,11.7818,11.7818,0,0,0,10.40408,3.56778l.78707-.123.09839-.812a10.79888,10.79888,0,0,0,.04918-1.993,12.62229,12.62229,0,0,0-4.05832-8.48891c-2.92692-2.73119-6.83767-4.01065-10.18271-3.297M20.69923,138.85436a13.4026,13.4026,0,0,0,12.59311.59053l.51651-.246-.09838-.59053a13.98388,13.98388,0,0,0-7.57554-10.3097c-4.05833-2.09146-8.75615-2.23906-12.24877-.36907l-.46733.24607.07379.54134a13.99354,13.99354,0,0,0,7.2312,10.13736m5.82924,8.78417.246-.29534-.19677-.34446a10.04412,10.04412,0,0,0-7.67393-4.77338,9.89144,9.89144,0,0,0-8.65776,3.24785L10,145.79306l.22136.36907a9.97508,9.97508,0,0,0,7.96908,4.77345,9.87682,9.87682,0,0,0,8.36262-3.27245m22.45607,2.41133.29516-.34454-.246-.39367a11.56372,11.56372,0,0,0-9.14968-5.56077,11.41179,11.41179,0,0,0-9.6416,3.69078l-.27055.31987.19676.36906a11.54218,11.54218,0,0,0,8.80534,5.53625,11.253,11.253,0,0,0,9.96135-3.64158M24.38862,164.7392a12.292,12.292,0,0,1-11.21575-3.00186l-.14757-.14759.07379-.19687a13.04382,13.04382,0,0,1,9.0513-7.67684,12.2511,12.2511,0,0,1,11.58468,2.928l.17217.14767-.09839.22139a12.99619,12.99619,0,0,1-9.42023,7.75071" fill="#04ca54"/></svg>