<svg id="Layer_1" data-name="Layer 1" xmlns="http://www.w3.org/2000/svg" viewBox="0 0 300 300"><defs><style>.cls-1{fill:#fff;}</style></defs><path class="cls-1" d="M159,119.94a35.07,35.07,0,0,1,8.18.46c5.95,1.33,9.47,5.61,9.47,11.68q0,30.85,0,61.71c0,1.28.3,1.71,1.6,1.67,2.37-.08,4.76-.05,7.14,0,1,0,1.35-.24,1.34-1.32q-.19-19.47-.29-38.93-.09-17-.16-33.95c0-4.58-.09-9.16-.14-13.74,0-.43.11-.89-.38-1.2-3.12-1.93-6.22-3.88-9.55-6v5.12c0,2.6,0,5.21,0,7.81,0,.39.25.88-.28,1.17-.7-3.05-2.93-4.49-5.68-5.37l-.07-.07h-.09a2.72,2.72,0,0,0-1.46-.44l-.29,0a5.85,5.85,0,0,0-2.67-.49l-.55,0a26.22,26.22,0,0,0-10.51.5c-.38,0-.78,0-1.08.28a3.09,3.09,0,0,0-1.61.56h0l-.36.13h0a7,7,0,0,0-2.67,1.61h0a1,1,0,0,0-.72.64c-1.06.73-1.52,1.91-2.38,2.95v-3.46c0-.45.07-.9.07-1.34,0-6.64,0-13.29,0-19.93,0-2.47-.28-2.19,2.16-1.82,4.3.64,8.6,1.34,12.91,2l.1-.23-5.79-4.06h0l-.47-.37-.07.06.07-.06a12.44,12.44,0,0,0-2.46-1.8l-.32-.24c-1.77-1.46-3.33-3.31-5.94-3.18l-.24-.12c.43-1.71-.82-2.35-1.95-3.07l-.07-.06a31.16,31.16,0,0,0-3.67-3c-.52-.74-1.46-1-1.9-1.88,1.07.13,1.62,1.16,2.57,1.48h0a2.29,2.29,0,0,0,1.13.81l1,.72A15.24,15.24,0,0,0,145.67,77l.23-2.71h.59a2.72,2.72,0,0,0,1.35.23c9,1.3,18,2.63,27,3.89,1,.15,1.5.43,1.4,1.55a21.46,21.46,0,0,0,0,3.76c.09,1.13-.34,1.24-1.3,1.08-3.31-.56-6.63-1-9.95-1.57-.22,0-.44,0-.67,0l-11.92-2C157.5,84.81,162.74,88,168,91.1a3.86,3.86,0,0,0,2.2.49h0l5.92,1.06,0,0c0,.76,0,1.52,0,2.29,0,.46,0,.87.52,1.12.81.38,1.59.81,2.38,1.22h0l.31.18c2,1.12,4,2.23,6,3.36.57.32.77.22.76-.47q-.12-10-.21-20c.7-.46,1.4-.94,2.11-1.38.52-.31,1-.92,1.64-.77a47.08,47.08,0,0,1,7,1.63.12.12,0,0,0,0,.18l0,0a.46.46,0,0,0-.76.07l-1.35,1.57a2.32,2.32,0,0,0-1,2.09c0,1,0,2.06,0,3.09-.12,5.8-.23,11.61-.36,17.42a1.09,1.09,0,0,0,.68,1.16c1.45.7,2.88,1.41,4.32,2.12a26.3,26.3,0,0,0,4.88,2.47l.33.19a.94.94,0,0,0,.73.37l0,0a13,13,0,0,0,3.32,1.64l.3.16a33.59,33.59,0,0,0,4.8,2.4l.25.09a40.37,40.37,0,0,0,5.42,2.62l0,0c0,.1.06.18.18.08l.57.25a2.45,2.45,0,0,0,1.3.63q4.39,2.28,9,4.17c2.44,1.25,4.94,2.37,7.48,3.39l.89.38a52.07,52.07,0,0,0,6.18,2.7q7.58,3.48,15.36,6.48v8.35c-3.18-1.08-6.2-2.56-9.28-3.92a534,534,0,0,1-51.37-26c-1.73-1-3.47-2-5.61-3.21,0,4.57,0,8.78,0,13a4.63,4.63,0,0,0,.42,2.07c1.44,3.16,3.26,6.22,3,9.91a17.52,17.52,0,0,0,.07,2.29l1.92,38.07q.48,9.28.95,18.56c0,.6,0,1.12.9,1.13,2.69,0,5.38.09,8.07.15,3.68.31,7.37.33,11.06.4l.56,0c5.28.25,10.57.49,15.85.75l17.59.9,2.41.07a14.76,14.76,0,0,0,3.51.26v8.9l-2.69,0-17-.51-4,0h-.27c-5.15-.29-10.32-.26-15.48-.34-6.15-.09-12.3-.08-18.46-.21-1.27,0-1.45.37-1.39,1.5.32,5.38.52,10.76.86,16.14.08,1.18-.31,1.53-1.39,1.69-2.09.28-4.17.67-6.23,1.1a4.35,4.35,0,0,1-2.68-.66c-1.16-.48-2.74-.71-3.32-1.59s-.18-2.43-.19-3.69c0-4.4,0-8.8,0-13.21,0-.83-.13-1.29-1.17-1.27-9.56.22-19.13.39-28.69.58l-9.07.23c-2,.05-2,.05-2.19-1.9v-.53c.07-3.35.2-6.71.22-10.06,0-7.36,0-14.72,0-22.08q0-20.85.05-41.71v-.11a12.76,12.76,0,0,1,10-10.07h0Zm6.19,2.48a1.73,1.73,0,0,0-1.2-.67,12.23,12.23,0,0,0-9.41-.17,1.65,1.65,0,0,0-1.09.47l-.27.1-.26.17h0a8.12,8.12,0,0,0-3.86,4,7,7,0,0,0-.41.69,16.58,16.58,0,0,0-1.26,6.83q0,30.26,0,60.51c0,1,.11,1.39,1.29,1.36,6.64-.17,13.29-.25,19.94-.3,1,0,1.14-.36,1.14-1.25,0-6.6,0-13.21,0-19.81V132.31a12.32,12.32,0,0,0-2-7.28,5.83,5.83,0,0,0-2.51-2.57Z"/><path class="cls-1" d="M76.12,160.87c-5.47,3.06-10.9,6.17-16.41,9.17-5.9,3.2-11.86,6.3-17.8,9.43-.32.17-.63.57-1.08.27v-4.85l.27,0a21.52,21.52,0,0,0,3.84-2.14c6.47-3.43,12.76-7.16,19.06-10.89a4.75,4.75,0,0,0,1.63-1l.25-.14a4.13,4.13,0,0,0,1.62-1l.3-.2A9.64,9.64,0,0,0,70.42,158l1.57-1A18,18,0,0,0,75.38,155a76.89,76.89,0,0,0,7-4.33A63.66,63.66,0,0,0,89,146.3a47,47,0,0,0,4.62-3,43.92,43.92,0,0,0,5.07-3.45l.34-.24a.51.51,0,0,0,.48-.3c3.14-2,6.23-4.17,9.22-6.45,1.35-.41,1.62-1.45,1.54-2.68a36,36,0,0,0,.93-8.14c-.09-3.19-.11-6.38-.15-9.57-.1-9.25-.21-18.5-.28-27.75,0-.87-.26-1.37-1.12-1.52a3.22,3.22,0,0,0-1.45-.76h0a3.07,3.07,0,0,0-.75-.48c-.92-.3-1-.74-.3-1.38l1.29-1.16a.75.75,0,0,0,.52-.49,2,2,0,0,0,.85-.78l.28-.27h0l.3-.26h0l.29-.28,0,0,.3-.28h0c.74-.16,1-1.54,2.09-.83h0c1.23,1.19,1.17-.5,1.74-.79.18-.19.15-.33-.11-.42h0a.31.31,0,0,0,.5,0c.44,0,.52-.94,1.17-.49V96.18l0,.56c0,.36,0,.72,0,1.08q0,64.11,0,128.21c0,.94-.05,1.88-.08,2.82l-1-.09c-2.36-.51-4.71-1.07-7.09-1.51-.84-.16-1.06-.39-1-1.28.21-5.33.34-10.66.48-16,0-.34.37-1-.51-.91-3.79.28-7.6.36-11.38.88l-1.91.1a44.53,44.53,0,0,0-5.64.47,4.17,4.17,0,0,0-1.61.12,20.52,20.52,0,0,0-4.06.37l-.53.05H81.8l-.82,0a29.26,29.26,0,0,0-4.57.47l-.54,0a29.52,29.52,0,0,0-5.13.5l-1.33.07a25.25,25.25,0,0,0-4.07.47c-4.82.3-9.61.93-14.41,1.46-3.37.37-6.76.64-10.1,1.24v-9.71c2.86-.19,5.68-.78,8.51-1.19,14.69-2.16,29.42-4,44.21-5.35,4.47-.39,8.94-.83,13.41-1.16,1-.08,1.24-.44,1.27-1.39q.27-11.64.63-23.27.52-17.14,1.1-34.3a2.11,2.11,0,0,0-.14-.35l-7.56,5.49-.09,0,0,.1-.39.28c-2.83,1.78-5.61,3.66-8.31,5.64l-.15.17,0,0a10.15,10.15,0,0,0-2.56,1.56.7.7,0,0,0-.57.38h0l-.38.23-.41.27a1.2,1.2,0,0,0-.84.52l-.23.14a3.75,3.75,0,0,0-1.46,1,.19.19,0,0,0-.21.11,11.25,11.25,0,0,0-2.74,1.71h0a3.52,3.52,0,0,0-1.53.91h0Z"/><path class="cls-1" d="M241.92,118.35,230.6,110.2c-2.06-1.82-4.27-3.44-6.48-5.07L219,101a14.08,14.08,0,0,0-2.66-2.21l-.05,0,.06,0a1.66,1.66,0,0,0-.88-.73l-.28-.25a3.69,3.69,0,0,0-1.32-1.13h0a.78.78,0,0,0-.57-.5h0L208.57,92l-.23-.18c-2.22-2.14-4.47-4.25-6.66-6.42a42.59,42.59,0,0,1-5-5.37l0,0c.73.53,1.45,1.07,2.17,1.61a74.21,74.21,0,0,0,7.92,6.22l.43.32,0,0,.33.24a11.33,11.33,0,0,0,2.61,2l0-.07,0,.08a31.13,31.13,0,0,0,4.39,3.16A4.24,4.24,0,0,0,216,94.6a34.16,34.16,0,0,0,4.38,3.08.16.16,0,0,0,.17.1,7.11,7.11,0,0,0,2,1.36h0a.58.58,0,0,0,.51.32h0a3.65,3.65,0,0,0,1.62,1.08h0a.63.63,0,0,0,.53.37l.29.2a10.08,10.08,0,0,0,2.44,1.6l.08,0,.43.29.29.17a62.79,62.79,0,0,0,6.75,4.32h0c3.31,2.23,6.72,4.32,10.23,6.22l.48.27a9.94,9.94,0,0,0,2.76,1.61h0a.56.56,0,0,0,.53.33l.31.19c3,2,6.25,3.66,9.42,5.4v7.82c-.56.19-.89-.29-1.28-.51-1-.57-2-1.18-3-1.78a.85.85,0,0,0-.62-.4,16.43,16.43,0,0,0-2.92-1.9,1.64,1.64,0,0,0-1-.6,2,2,0,0,0-1.12-.78l-.34-.24a1.19,1.19,0,0,0-.82-.53h0l-.29-.21-.06,0,0-.1h-.11l-1.12-.73a9.39,9.39,0,0,0-2.16-1.5l-.22-.14a.63.63,0,0,0-.51-.35h0A5.44,5.44,0,0,0,241.92,118.35Z"/><path class="cls-1" d="M137.62,71.64l-.82-.3-.12-.07s-.05,0-.06.06c0,.31,0,.63,0,.94V204.68c0,7.55,0,15.09,0,22.64,0,.9-.21,1.26-1.18,1.27-1.34,0-2.67.21-4,.32A3.11,3.11,0,0,0,130,229a.51.51,0,0,0-.6,0c-1.07,0-2.15,0-3.22.13-.78.06-1.23-.09-1.08-1a3.25,3.25,0,0,0,0-.54L125,171.34l-.12-69c0-10.06,0-20.11-.07-30.17,0-1.1.24-1.43,1.39-1.4,3.09.09,6.19,0,9.29,0a3.52,3.52,0,0,1,1.78.42Z"/><path class="cls-1" d="M158.47,227.6c-2.4.08-7.11.2-11.82.41-1,0-1.3-.2-1.28-1.23.07-3.37,0-6.73,0-10.1,0-.82.23-1.06,1-1.09q14.6-.48,29.19-1c.7,0,.95.18.95.9,0,3.54,0,7.09,0,10.64,0,.92-.52.85-1.12.87Z"/><path class="cls-1" d="M213.79,225.53l-2.29,0a3.31,3.31,0,0,0-1.35-.33h0l-2.44-1.37a7.57,7.57,0,0,1-2.17-7.74,7.12,7.12,0,0,1,6.81-5.14c.59,0,1.17,0,1.75.05l1.23.51a7.29,7.29,0,0,1,3.58,10.23A8.06,8.06,0,0,1,213.79,225.53Zm-1.22-13.22a5.94,5.94,0,0,0-6,5.91,6,6,0,0,0,6,6,6,6,0,0,0,6-5.95A5.85,5.85,0,0,0,212.57,212.31Z"/><path class="cls-1" d="M137.59,71.64c.26.11.62.13.55.57C137.85,72.12,137.57,72,137.59,71.64Z"/><path class="cls-1" d="M62.71,132.87l-.31.26Z"/><path class="cls-1" d="M115.7,74.25v0Z"/><path class="cls-1" d="M44,156.79l.32-.25Z"/><path class="cls-1" d="M106,82.91h0Z"/><path class="cls-1" d="M106.11,81.7a53.68,53.68,0,0,1-5.4,8.11.48.48,0,0,1-.3.46,19.49,19.49,0,0,1-2.58,3.53l-2.6,3.45a35.8,35.8,0,0,1-3.72,4.6h0l-.23.3h0a13.48,13.48,0,0,1-2.21,2.67,6.05,6.05,0,0,1-1.33,1.61A19.92,19.92,0,0,1,85,109.58a.12.12,0,0,1-.15.12l-.34.36c0,.07,0,.11-.08.13a52.88,52.88,0,0,1-5.33,6c-.16.22-.32.44-.49.65a15.77,15.77,0,0,1-1.11,1.2l-.61.55-.24.26-.29.28-.25.27-.26.28a33.24,33.24,0,0,1-2.72,3c-.33.31-.66.61-1,.9a.13.13,0,0,1,0,.06.18.18,0,0,1-.12.1,110.7,110.7,0,0,1-8,7.92l-.2.2a2.64,2.64,0,0,1-1.13,1.09h0l-.3.25c0,.19-.11.26-.27.28a30.18,30.18,0,0,1-4.06,3.77l-.22.19a82.15,82.15,0,0,1-7.57,6.87A40.32,40.32,0,0,1,46,148a36.39,36.39,0,0,1-5.14,4.3V159l.52-.12.2-.16A13.14,13.14,0,0,1,44,156.77v0l.32-.25h0l9.82-8.3c.13-.11.26-.22.4-.32l.3-.29,7.27-6.71,7.77-7.83,1.74-1.86a5.88,5.88,0,0,1,1.33-1.44c1.68-1.87,3.36-3.73,5-5.6a12.94,12.94,0,0,1,2.12-2.49l.08,0-.08,0,4.37-5.37L86.33,114,91,107.73c2-3,4.09-6.07,6.1-9.13,3.23-4.94,6-10.13,8.76-15.36a.28.28,0,0,1,.17-.34C105.87,82.49,106.4,82.14,106.11,81.7Z"/><polygon class="cls-1" points="62.13 133.4 62.14 133.4 62.14 133.4 62.13 133.4"/><polygon class="cls-1" points="62.4 133.13 62.41 133.12 62.41 133.12 62.4 133.13"/><path class="cls-1" d="M213.65,219a16.65,16.65,0,0,1,2.23,3.21c-1.07.35-1.7.12-2.11-.84a4.94,4.94,0,0,0-1.38-2A1.49,1.49,0,0,0,211,219c-.62.18-.29.76-.33,1.16a9,9,0,0,0,0,1.47c0,.56-.26.67-.74.68s-.61-.21-.61-.65c0-2.2,0-4.39,0-6.59,0-.57.28-.67.75-.66,1,0,2.06,0,3.09,0a2.13,2.13,0,0,1,1,4.08C214,218.67,213.69,218.64,213.65,219Zm-1.75-1.14c.82-.09,2,.22,2-1.12s-1.3-1-2.16-1.15-1.07.33-1.1,1.16C210.6,217.7,211,218,211.9,217.81Z"/></svg>