<svg id="Layer_1" data-name="Layer 1" xmlns="http://www.w3.org/2000/svg" viewBox="0 0 300 300"><defs><style>.cls-1{fill:#6eb3e2;}.cls-2{fill:#aadef8;}.cls-3{fill:#253e92;}.cls-4{fill:#416db5;}</style></defs><path class="cls-1" d="M156,91.4l-10.47,8.43q-10.35,8.33-20.71,16.65l-23,18.47L85.75,147.88c-.71.58-1.43,1.15-2.15,1.72-.13.1-.3.18-.27.39a.81.81,0,0,0-.39.2c-.79.66-1.57,1.31-2.37,1.95-2.23,1.78-4.47,3.54-6.69,5.33q-5.49,4.44-11,8.88-4.15,3.36-8.33,6.67a9.81,9.81,0,0,1-2.12,1.61c-.33-.33-.29-.78-.38-1.18A95.74,95.74,0,0,1,50,161.08c-.25-2.37-.47-4.74-.51-7.13,0-.16,0-.34-.11-.48v-7.18a16.85,16.85,0,0,0,.22-3.17A103.65,103.65,0,0,1,51,131.32a101,101,0,0,1,7.2-23.22A102.89,102.89,0,0,1,93.4,65.84a104,104,0,0,1,13-7.61,50.86,50.86,0,0,1,5.54-2.48c.51.42,1,.85,1.52,1.27l6.26,5,7,5.65,6.16,5,7.06,5.69,6.85,5.52c2.12,1.71,4.25,3.4,6.36,5.13C154.09,89.8,155.13,90.5,156,91.4Z"/><path class="cls-2" d="M156,91.4c-.89-.9-1.93-1.6-2.89-2.4-2.11-1.73-4.24-3.42-6.36-5.13l-6.85-5.52-7.06-5.69-6.16-5-7-5.65-6.26-5c-.52-.42-1-.85-1.52-1.27a64.49,64.49,0,0,1,6.61-2.56A98.43,98.43,0,0,1,139,48.55a75,75,0,0,1,8.2-.63c.21,0,.44.06.61-.12h7.05c.16.17.36.11.55.12,3.32.12,6.62.42,9.91.87a97.46,97.46,0,0,1,12.8,2.62,101.8,101.8,0,0,1,30.61,14.23,102.89,102.89,0,0,1,8.72,6.7c1.81,1.56,3.54,3.2,5.26,4.87a101.52,101.52,0,0,1,27.66,49.19c.28,1.16.27,1.16-.95,1.16q-23.33,0-46.67,0a4.29,4.29,0,0,1-2.94-1c-5-4-10-8-15-12.06L175,106.55l-11.15-9-7.46-6A1.17,1.17,0,0,0,156,91.4Z"/><path class="cls-3" d="M250.67,172.58a31.05,31.05,0,0,0-1,3.67A102.17,102.17,0,0,1,197.3,241a6.14,6.14,0,0,1-.59.25,11.75,11.75,0,0,0-1.75-1.47q-4.67-3.78-9.35-7.54l-8.36-6.72c-2.41-1.94-4.83-3.86-7.23-5.8-2.86-2.29-5.71-4.6-8.55-6.9l-5.32-4.3,13-10.48,26.2-21.09c1.81-1.46,3.64-2.91,5.44-4.38a1.25,1.25,0,0,1,.89-.23h49Z"/><path class="cls-4" d="M156.15,208.5l5.32,4.3c2.84,2.3,5.69,4.61,8.55,6.9,2.4,1.94,4.82,3.86,7.23,5.8l8.36,6.72q4.68,3.76,9.35,7.54a11.75,11.75,0,0,1,1.75,1.47,68.11,68.11,0,0,1-6.66,3.09,102.48,102.48,0,0,1-23.23,6.51,100.94,100.94,0,0,1-20.32,1.07,99.77,99.77,0,0,1-33.83-7.46A102.24,102.24,0,0,1,55,183.4c-1-2.7-1.76-5.44-2.46-8.21a.78.78,0,0,1,0-.56A9.81,9.81,0,0,0,54.58,173q4.19-3.3,8.33-6.67,5.49-4.42,11-8.88c2.22-1.79,4.46-3.55,6.69-5.33.8-.64,1.58-1.29,2.37-1.95a.81.81,0,0,1,.39-.2l21.07,16.94,27.12,21.81q10.68,8.59,21.37,17.19C154,206.8,155,207.74,156.15,208.5Z"/></svg>