<svg id="Layer_1" data-name="Layer 1" xmlns="http://www.w3.org/2000/svg" viewBox="0 0 300 300"><defs><style>.cls-1,.cls-4{fill:#fff;}.cls-2{fill:#4187c7;}.cls-3{fill:#9cdae7;}.cls-4{isolation:isolate;font-size:8.7px;font-family:ArialMT, Arial;}.cls-5{fill:none;}</style></defs><g id="New_Co_logo" data-name="New Co logo"><path class="cls-1" d="M71,139.71c12.64-9.31,48-21.1,89.46-4.27L178,131.6C128.13,113.06,85.83,126.64,71,139.71Z"/><path class="cls-2" d="M71,139.71c18-17.08,72.62-33.32,135-3.84l18-3.93C153.08,100.67,91.3,118.78,71,139.71Z"/><path class="cls-3" d="M71,139.71C91.64,117.5,152.14,99,223.48,124.51l17.43-3.76C161.28,93.32,94,113.91,71,139.71Z"/><path class="cls-1" d="M142.48,176.45v1.29H128v-1.29c3-.34,4.19-1.19,4.19-4.35V158c.08-6.49-1-8.12-5.13-8.12a7.79,7.79,0,0,0-6.92,4.1V172.1c-.08,3.16,1.2,4.1,4.19,4.35v1.29H109.76v-1.29c3.07-.34,4.27-1.19,4.36-4.35V157.74c0-3.59-.26-7.86-4.62-7.86a10.09,10.09,0,0,0-7.69,3.93V172.1c.09,3.16,1.28,4.1,4.36,4.35v1.29H91.47v-1.37c3.34-.34,4.28-1.45,4.19-4.36V155.35c0-3.76-.43-4.36-4.19-4.36v-1.54l10.26-3.67v5.55c3.41-3.76,7.34-5.46,10.51-5.46a7.29,7.29,0,0,1,6.92,5.72c2.47-2.9,6.66-5.72,10.42-5.72,8.2,0,8.72,7.17,8.72,13.24v13C138.3,175.26,139.41,176.2,142.48,176.45Zm25.72-10.33c-2,3.58-5.72,7.34-10.25,7.34-7.35,0-10.6-8.28-10.77-14.78h21c-.17-7.17-4.36-12.81-12-12.81-8.46,0-13.84,7.09-13.84,16.91,0,8.29,5.13,15.64,13,15.55,7.09.09,12.22-5.72,14.35-11.87ZM154.7,148.6c4.19,0,6.07,3.67,6.24,7.52h-13.5C148.12,152,150.17,148.6,154.7,148.6Zm-78.78-2.73a13.6,13.6,0,0,0-12.81,7.86l-.43-13.93H61.06c-1,2.65-2.23,2.82-4.62,2-1.11-.34-2.48-.94-4.1-1.37a23.52,23.52,0,0,0-6-.77c-13.67,0-23.24,10.17-23.24,24-.17,15.13,10,23.76,23.24,23.84a21.6,21.6,0,0,0,16.83-8.37l-1.28-1.63c-4.7,4.7-8.29,6.5-14.95,6.58-10.94,0-15.81-10.25-15.81-19.9,0-12.39,4.87-22,15.29-21.45,11.45.6,14.53,9.06,14.7,19.74,0,8.46,6,15.89,14.7,15.8,9.48.09,15.29-8.2,15.29-17.26S84.89,146,75.92,145.87Zm8.46,19.31c-.51,5.89-3.42,11.27-8.46,10.85-6.23-.52-8.8-8.21-7.94-17.86.59-6,3.5-10.34,8.37-10C83.78,148.86,84.89,158.94,84.38,165.18ZM202.8,172.1l-.08-26.92-10.08,4.1a4.31,4.31,0,0,0-4.53-3.41c-3.25,0-6.07,3.41-7.52,5.72v-5.81l-11.11,3.76V151c5.21-1.54,5,1.11,5,6V172.1c0,2.82-.94,4-5,4.35v1.29h16.15v-1.29c-3.33-.25-5-.76-5-4.35V155.61c0-1.88,2.14-5.13,4-5.22,3-.17,2.22,2.74,5.21,2.82,1.71.09,2.82-1.45,4.78-1.53,2.22-.17,2.14,2.39,2.14,4.27v16.23c-.09,2.82-1,4.1-5.21,4.36v1.37h16.23v-1.28C204.6,176.2,202.8,175.69,202.8,172.1Zm58.45,6.15-16.41-38.62h-1.62l-10.94,26.14c-1.88,4.62-4.87,7.35-10.08,7.35-6.84.17-10.34-6.92-10.34-13.24,0-5.64,2.82-11.79,8.55-11.88,3.5,0,5,2,5,4.62a3.41,3.41,0,0,0,3.24,3.16,3.23,3.23,0,0,0,3.25-3.16c-.34-4.79-6.41-6.93-10.25-6.93-10.17,0-15.3,7.95-15.3,16.92,0,8.63,5.39,15.64,12.73,15.55a12.49,12.49,0,0,0,10.17-5,55.45,55.45,0,0,1-3.67,7.95c-1.11,1.88-2.48,3.42-4.87,3.59v1.88h13.58v-1.63c-1.62,0-4.53-.25-4.61-2.82s2.73-7.77,3.59-10.42h17.51l2.4,5.72c2.22,5.22,3.33,7.18-3.08,7.52v1.63h17.6v-1.63c-4,.09-5.21-3.93-6.49-6.66Zm-26.49-9.66,7.43-18.45,7.61,18.45Z"/><text class="cls-4" transform="translate(269.71 186.46)">®</text><rect class="cls-5" x="267.74" y="172.44" width="2.14" height="19.82"/><rect class="cls-5" x="249.71" y="186.54" width="27.17" height="2.14"/></g></svg>