<svg id="Layer_1" data-name="Layer 1" xmlns="http://www.w3.org/2000/svg" viewBox="0 0 300 300"><path d="M149.8626,85.62666a38.11712,38.11712,0,0,1,16.55524-15.10157,35.1294,35.1294,0,0,1,36.09845,5.24922,34.20071,34.20071,0,0,1,11.4675,31.97983,60.24542,60.24542,0,0,0,6.78357-2.665,34.241,34.241,0,0,1,42.15524,44.65869,36.3412,36.3412,0,0,1-9.93316,13.93059l.44417.44417a34.76593,34.76593,0,0,1,29.83976,23.17732,33.91793,33.91793,0,0,1-8.641,35.089,36.583,36.583,0,0,1-27.82083,9.77161H52.631a35.25043,35.25043,0,0,1-34.92747-20.91607A33.95841,33.95841,0,0,1,24.689,174.21723a37.02724,37.02724,0,0,1,22.08708-10.37732,34.96783,34.96783,0,0,1-11.22524-33.3931,34.20063,34.20063,0,0,1,20.83536-24.22714,35.412,35.412,0,0,1,29.19369,1.8978l.28268-.3634a33.716,33.716,0,0,1,15.465-34.564,34.56406,34.56406,0,0,1,37.2694.60568,37.63339,37.63339,0,0,1,11.10411,12.11357" fill="#fff"/><path d="M204.77748,90.91625c4.03786,8.39875,1.73625,19.46247-2.62458,27.01327L168.43677,193.599l-.28268.36339L156.04052,117.0008c-.96911-7.38928,6.90476-10.53881,11.54827-14.09211-.20191-1.04985-1.41328-1.00947-2.18042-1.53438H154.02159l-.323-.323A26.08459,26.08459,0,0,1,167.58879,78.0355a27.13443,27.13443,0,0,1,29.83976,2.90727,27.94163,27.94163,0,0,1,7.42964,9.93312" fill="#514999"/><path d="M142.67522,88.25128a27.37655,27.37655,0,0,1,3.39178,17.32241L132.2979,193.599v.28268l-3.55334-7.10661L94.30164,109.81348a26.69024,26.69024,0,0,1,35.69465-32.747,28.70925,28.70925,0,0,1,12.84035,11.10411" fill="#ba0b3a"/><path d="M254.84689,125.35916a27.1345,27.1345,0,0,1-1.57477,27.21515c-3.18988,5.1281-8.47952,7.71233-12.92113,11.10411l-71.4297,48.97923h0l.80756-2.342,37.51173-85.36029a27.29591,27.29591,0,0,1,27.942-13.64795,27.69978,27.69978,0,0,1,19.66435,14.05172" fill="#0e74c3"/><path d="M92.48462,124.95539,131.85373,212.698h-.64607L51.82337,157.985a26.20565,26.20565,0,0,1-8.641-27.33628,26.771,26.771,0,0,1,49.30226-5.69336" fill="#ec591a"/><path d="M275.39956,187.29991a27.1344,27.1344,0,0,1-3.27065,26.9325A26.69019,26.69019,0,0,1,250.20337,224.529h-84.795l70.90477-49.34262a27.417,27.417,0,0,1,25.0347-1.65554,27.9421,27.9421,0,0,1,13.93059,13.72869" fill="#19a53b"/><path d="M24.689,187.29991a27.05364,27.05364,0,0,0,3.27065,26.9325A26.64982,26.64982,0,0,0,49.88525,224.529h84.795L63.77545,175.18634a27.417,27.417,0,0,0-25.0347-1.65554,28.02261,28.02261,0,0,0-13.89024,13.72869" fill="#faab13"/></svg>