<svg id="Layer_1" data-name="Layer 1" xmlns="http://www.w3.org/2000/svg" viewBox="0 0 300 300"><path d="M218.2133,145.16576H154.5014V85.77348h53.3241C214.05819,103.72929,217.52079,123.75691,218.2133,145.16576Z" fill="#fff"/><path d="M83.17175,85.77348H36.77285L25,97.51382v47.65194H73.47645A181.06585,181.06585,0,0,1,83.17175,85.77348Z" fill="#fff"/><path d="M73.47646,154.14365H25V202.4862l11.08033,11.04972H83.17175A181.06575,181.06575,0,0,1,73.47646,154.14365Z" fill="#fff"/><path d="M154.50139,222.51382V275H164.8892c16.62049-13.12156,29.7784-30.38675,39.47367-52.48619Z" fill="#fff"/><path d="M121.26039,25H97.02216L45.77562,76.79558H86.63435C94.9446,56.07735,106.71745,38.81215,121.26039,25Z" fill="#fff"/><path d="M216.13573,213.53592h47.09141L275,201.79559V153.453H226.52354Q225.48476,186.60223,216.13573,213.53592Z" fill="#fff"/><path d="M254.22438,76.79559,202.28532,25H178.73961c14.54294,13.81216,26.31579,31.07735,34.626,51.79558Z" fill="#fff"/><path d="M218.21329,154.14367H154.50137v59.39225H207.133C214.05818,195.58012,217.52078,175.5525,218.21329,154.14367Z" fill="#fff"/><path d="M263.22714,85.7735h-46.3989a181.06579,181.06579,0,0,1,9.69529,59.39227H275V97.51384Z" fill="#fff"/><path d="M92.17451,213.53592h53.3241V154.14365H81.7867C82.47923,175.5525,85.94183,195.58012,92.17451,213.53592Z" fill="#fff"/><path d="M95.63712,76.79559h49.86149V25H134.41827C117.79778,37.43094,104.63988,55.38674,95.63712,76.79559Z" fill="#fff"/><path d="M165.58172,25H154.50139V76.79558h49.86148C195.36011,55.38674,182.20222,37.43094,165.58172,25Z" fill="#fff"/><path d="M45.0831,222.51382,97.71468,275h24.23823a149.38419,149.38419,0,0,1-35.31856-52.48619Z" fill="#fff"/><path d="M135.11081,275h10.38781V222.51381H95.63712C105.33241,243.92265,118.49031,261.87844,135.11081,275Z" fill="#fff"/><path d="M178.04709,275h24.23823l52.63157-52.48619H213.36564A149.38462,149.38462,0,0,1,178.04709,275Z" fill="#fff"/><path d="M81.7867,145.16576h63.71191V85.77348H92.17451C85.94183,103.72929,82.47923,123.75691,81.7867,145.16576Z" fill="#fff"/></svg>