<svg id="Layer_1" data-name="Layer 1" xmlns="http://www.w3.org/2000/svg" viewBox="0 0 300 300"><defs><style>.cls-1{fill:#fff;}</style></defs><title>CMG_Dark_bg</title><g id="path3938"><path class="cls-1" d="M150,261.82A111.82,111.82,0,1,1,261.82,150,111.94,111.94,0,0,1,150,261.82Zm0-220.64A108.82,108.82,0,1,0,258.82,150,108.95,108.95,0,0,0,150,41.18Z"/></g><g id="path3936"><path class="cls-1" d="M150,217.88A67.88,67.88,0,1,1,217.88,150,68,68,0,0,1,150,217.88Zm0-133.76A65.88,65.88,0,1,0,215.88,150,66,66,0,0,0,150,84.12Z"/></g><path id="text3313" class="cls-1" d="M81.64,122a13,13,0,0,1-7.45,6.77,12.84,12.84,0,0,1-5,.69,13.49,13.49,0,0,1-5.09-1.27l-.06,0a13.34,13.34,0,0,1-4.24-3A13,13,0,0,1,57.2,121a12.12,12.12,0,0,1-.8-4.93,13.18,13.18,0,0,1,1.35-5.25A17,17,0,0,1,59.4,108a13.48,13.48,0,0,1,1.87-2.06,11.88,11.88,0,0,1,2.08-1.47,15.8,15.8,0,0,1,2.26-1l2.22,4.91a14,14,0,0,0-3.22,1.84A7.72,7.72,0,0,0,62.44,113a6.87,6.87,0,0,0-.15,5.72,8.17,8.17,0,0,0,1.65,2.43,8.53,8.53,0,0,0,2.57,1.77l.07,0a8.81,8.81,0,0,0,3,.81,8.35,8.35,0,0,0,3-.28,7,7,0,0,0,2.56-1.36A6.82,6.82,0,0,0,77,119.68a7.56,7.56,0,0,0,.85-3.64,14,14,0,0,0-.71-3.6l4.8-1.68a18.62,18.62,0,0,1,.86,2.62,11.62,11.62,0,0,1,0,5.5A16.3,16.3,0,0,1,81.64,122Z"/><path id="text3318" class="cls-1" d="M70.44,88.74l3.91-4,8.47,8.46L91,84.76l-8.47-8.59L86,72.89l18,17.78-2.87,3.66L94.29,88,86,96l6.75,6.48-3.91,4.06Z"/><path id="text3322" class="cls-1" d="M101,62.6l4.23-2.3L117.3,82.89l-4.24,2.29Z"/><path id="text3327" class="cls-1" d="M133.12,64.67a5.15,5.15,0,0,0,3.24-1.7A3.46,3.46,0,0,0,137,60.1l0-.07a3.43,3.43,0,0,0-1.83-2.53,6,6,0,0,0-3.73-.3L127,58l1.6,7.5ZM120.26,54.25l10.59-2a13.42,13.42,0,0,1,4.29-.17,9.87,9.87,0,0,1,3.62,1.14,7.77,7.77,0,0,1,2.53,2.31,8.81,8.81,0,0,1,1.43,3.32v.07a8.27,8.27,0,0,1,0,3.9,7.62,7.62,0,0,1-1.67,3.12,10.34,10.34,0,0,1-3.12,2.27,15.19,15.19,0,0,1-4,1.32l-5.14,1.09,1.44,7.75-4.9.82Z"/><path id="text3331" class="cls-1" d="M168.25,56.55a7.86,7.86,0,0,0-3.25-.2,6.89,6.89,0,0,0-2.8,1.06,7.88,7.88,0,0,0-2.13,2.1,8.09,8.09,0,0,0-1.24,2.91l0,.07a8.53,8.53,0,0,0-.11,3.22,8.18,8.18,0,0,0,1,3A8.42,8.42,0,0,0,161.83,71a8.16,8.16,0,0,0,3,1.45,7.77,7.77,0,0,0,3.26.2,6.87,6.87,0,0,0,2.78-1.07,7.6,7.6,0,0,0,2.13-2.1,8.13,8.13,0,0,0,1.25-2.9v-.08a8.74,8.74,0,0,0,.12-3.22,8.39,8.39,0,0,0-1-3A8.63,8.63,0,0,0,171.23,58a8,8,0,0,0-3-1.45Zm1.2-5.12a15,15,0,0,1,5.22,2.46,14.8,14.8,0,0,1,3.68,3.91A13.45,13.45,0,0,1,180.13,68l0,.08A12.58,12.58,0,0,1,178,72.89a12.65,12.65,0,0,1-8.69,5.1,14.45,14.45,0,0,1-5.69-.4,14.81,14.81,0,0,1-5.22-2.46,14.65,14.65,0,0,1-3.68-3.91A13.45,13.45,0,0,1,152.91,61l0-.07a12.63,12.63,0,0,1,2.14-4.82,12.75,12.75,0,0,1,8.69-5.1,14.45,14.45,0,0,1,5.69.4Z"/><path id="text3335" class="cls-1" d="M198,66.81l-7.62-4.52,2.46-3.71,18.55,11-2.45,3.85-6.42-4.12-11.12,18L187,84.81Z"/><path id="text3339" class="cls-1" d="M222,79.13l3.44,3.93L209.38,96.63l8.94,10.12-4,3L202.68,96.13Z"/><path id="text3343" class="cls-1" d="M241.28,105.82l6.89,17.52-4.18,1.5-5.2-12.76L232,114.72,236,125l-4.44,1.5-4-10.23L223.09,118l5.53,13.21-4.44,1.5-7-18Z"/><path id="path3349" class="cls-1" d="M64.77,151.33a2.59,2.59,0,0,1-5.17,0h0a2.59,2.59,0,1,1,5.17,0Z"/><path id="path3351" class="cls-1" d="M241.47,151.33a2.59,2.59,0,0,1-5.17,0h0a2.59,2.59,0,1,1,5.17,0Z"/><path id="text3353" class="cls-1" d="M73.13,171.84,74.31,175,70,180.6l6.94,1.4,1.18,3.15-13.31,5-1.09-2.91L72.4,184l-7.09-1.61,0-.08,4.24-5.82-8.63,3.24-1.08-2.87Z"/><path id="text3357" class="cls-1" d="M81.63,191.53l6,8.87L85.36,202l-4.29-6.3-2.38,1.63,3.77,5.54-2.3,1.56-3.77-5.54-2.47,1.68,4.34,6.38L76,208.48l-6.09-8.95Z"/><path id="text3361" class="cls-1" d="M90.53,213.47l1.19-8.36,2.7,2.46L93.53,213l5.32-1.39,2.63,2.39-8.19,1.94-1.23,8.72-2.7-2.47.92-5.75-5.65,1.45L82,215.48Z"/><path id="text3365" class="cls-1" d="M107.27,218.33l2.65,1.65-7.51,12.07-2.66-1.65Z"/><path id="text3369" class="cls-1" d="M118.32,239.69a7.09,7.09,0,0,1-4.9-6.42,7.61,7.61,0,0,1,.43-2.89l0,0a7.4,7.4,0,0,1,1.46-2.51,7.27,7.27,0,0,1,2.21-1.7,6.9,6.9,0,0,1,2.73-.72,7.5,7.5,0,0,1,3,.44,9.23,9.23,0,0,1,1.67.76,7.85,7.85,0,0,1,1.26.91,6.67,6.67,0,0,1,.94,1.06,8,8,0,0,1,.7,1.2l-2.64,1.51a7.55,7.55,0,0,0-1.21-1.68,4.32,4.32,0,0,0-1.69-1,3.88,3.88,0,0,0-1.67-.22,3.83,3.83,0,0,0-1.56.47,4.37,4.37,0,0,0-1.27,1.05,4.6,4.6,0,0,0-.85,1.52l0,0a5,5,0,0,0-.28,1.73,4.34,4.34,0,0,0,.33,1.62,3.9,3.9,0,0,0,.9,1.35,4,4,0,0,0,1.47.88,4.27,4.27,0,0,0,2.09.26,7.93,7.93,0,0,0,2-.59l1.21,2.55a9.71,9.71,0,0,1-1.42.62,6.77,6.77,0,0,1-1.48.34,7.36,7.36,0,0,1-1.62,0,9.52,9.52,0,0,1-1.82-.46Z"/><path id="text3373" class="cls-1" d="M142.25,238.62l-1.33-4.81-2.42,4.36Zm-2.27-8.7,2.86.34,4.35,14.94-3.25-.39-.91-3.32-6-.71-1.67,3-3.16-.38Z"/><path id="text3377" class="cls-1" d="M155.14,230.8l2.87-.29,7.49,8.05-.86-8.71,3.07-.3,1.4,14.15-2.64.26-7.75-8.31.89,9-3.07.31Z"/><path id="text3381" class="cls-1" d="M191.28,236.67a8.14,8.14,0,0,1-3,.73,6.8,6.8,0,0,1-5.11-1.92,7.59,7.59,0,0,1-1.69-2.45l0,0a7.3,7.3,0,0,1-.65-2.83,7.35,7.35,0,0,1,4.46-6.92,11.34,11.34,0,0,1,1.64-.59,8.27,8.27,0,0,1,1.48-.24,6.52,6.52,0,0,1,1.4,0,8.52,8.52,0,0,1,1.38.3l-.83,3a7.71,7.71,0,0,0-1-.22,4.39,4.39,0,0,0-.95-.07,4.8,4.8,0,0,0-1,.13,5.18,5.18,0,0,0-1.07.36,3.71,3.71,0,0,0-1.31,1,4.54,4.54,0,0,0-.8,1.4,4.6,4.6,0,0,0,.19,3.33l0,0a4.83,4.83,0,0,0,1,1.52,4.27,4.27,0,0,0,1.39.94,4.15,4.15,0,0,0,1.63.31,4.44,4.44,0,0,0,1.73-.4,5,5,0,0,0,2.34-2l-.83-1.86-2.87,1.29L187.75,229l5.64-2.52,2.52,5.64a10,10,0,0,1-1.74,2.52,8.58,8.58,0,0,1-2.89,2Z"/><path id="text3385" class="cls-1" d="M206.06,218.59a2.58,2.58,0,0,0,1.07-1.52,1.85,1.85,0,0,0-.41-1.54l0,0a1.84,1.84,0,0,0-1.45-.81,2.91,2.91,0,0,0-1.74.71l-2.45,1.91,2.5,3.22ZM196.85,217l5.14-4a5.6,5.6,0,0,1,4.15-1.4,4.39,4.39,0,0,1,3,1.82l0,0a4.51,4.51,0,0,1,1.07,2.74,4.92,4.92,0,0,1-.77,2.61l5.86,1.88-2.89,2.24-5.19-1.72,0,0-1.9,1.48,2.79,3.6-2.47,1.92Z"/><path id="text3389" class="cls-1" d="M211.43,204.53l2-2.37,10.77,9.29-2.05,2.37Z"/><path id="text3393" class="cls-1" d="M218.37,195.56l1.58-2.7,9.81,5.76,3.59-6.12,2.45,1.44-5.17,8.81Z"/><path id="text3397" class="cls-1" d="M226,180.65l1-3,10.81,3.56,2.22-6.73,2.7.89-3.2,9.7Z"/><path id="path3419" class="cls-1" d="M137,175.81a5.68,5.68,0,0,0-1.31-2.75,9,9,0,0,1-1.3-2c-.58-1.15-1.42-2-1.89-3.19a47,47,0,0,0-2.62-7c-.08-1.34-.7-2.76-.87-4.07a21,21,0,0,1-.14-2.76c0-.93.14-1.94.14-2.9V147.2c0-1.23.58-2.26.58-3.48,0-.84,1.44-2,1.75-2.61,3.49-.69,6.23-1.8,9.87-2.18,4.81.14,5.1.62,7.55.87,2.26.44,3.28,1.81,5.09,2.9.88.44-.39,1.83-.58,2.62a7.91,7.91,0,0,1-.9,2c-.94,2.06-2.33,3.76-2.88,6a40.92,40.92,0,0,0-2.18,4.8c-.32.64-.69,1.75-1,2.42s-.19,3.62,0,4.4a21.32,21.32,0,0,0,.59,3.05c.11.29.19.58.29.87.18.74.37,1.46.58,2.16a52.73,52.73,0,0,0,2.61,7c.65,1.51,1.53,2-.33,1.58-.81-.21-.72-.44-1.12-.85a14.3,14.3,0,0,0-1.6-1.16A12.31,12.31,0,0,1,146,176.1c-.84-.84-1-1.77-2-2.75-.55-2.86-2.78-5.77-4.21-8.72-.58-1.16-1.35-2.11-1.89-3.19a11.24,11.24,0,0,1-1.16-2.18,20.82,20.82,0,0,1-.15-4.36c-.26-2.28-.45-3.86.29-6,.15-2.95,2.39-2.35,4.36-2.18,1.29,0,1.89-.07,2.76.58,2,1.49,1,1.28,1,3.49a5.47,5.47,0,0,1-.73,2.9c-.59,1-1,2.22-1.6,3.34a11,11,0,0,1-.14-2,1.53,1.53,0,0,0-1.74-1.6c-1.29.26-1.37.87-1.89,2.18-.32.8.27,2.24.43,3.05.43,2,2,3.59,3.92,2.76a3.5,3.5,0,0,0,1.17-2.18,9.06,9.06,0,0,1,1-3,27.22,27.22,0,0,1,1.6-3.49c.66-1.86,1.85-3.67.73-5.95-.76-1.75-1.55-3.12-3.34-3.63a18.37,18.37,0,0,0-3.78,0c-2.29.07-4.15.81-6.39,1.31-.73.18-.69,1.15-.87,1.88-.26,1-.32,2.16-.58,3.2-.33,1.3.19,3-.29,4.21a6.68,6.68,0,0,0,.14,4.07c.58,1.15.78,2.54,1.6,3.63,1.42,1.89,1.75,4,3.2,5.81a16.49,16.49,0,0,1,1.88,3.63c.1.19.2.38.29.58.77,1.53,2.44,3.41,3.2,4.94a9.68,9.68,0,0,0,2.47,2.9,13.29,13.29,0,0,1,2.32,2.47c4.62,3,7.85,3.42,9.44,2,.77-.77-.87-2-1.16-2.18a13,13,0,0,1-3.05-5.37,22.8,22.8,0,0,0-1.89-4.5,25.77,25.77,0,0,1-1.6-7,16.16,16.16,0,0,1,.15-3.49c.3-2.9,3-5.49,3.49-7.68a7.31,7.31,0,0,0,1.45-2.77c2.09-1.8,3.75-5,4.68-7.86.2-.79-1.06-1.74-1.34-2.31a13.49,13.49,0,0,0-2-2c-.61-.62-.74-1.33-1.3-1.89s-1.65-1.36-2.33-1c-.83.42-1,1.31-2,1.31h-2.47a22.49,22.49,0,0,1-4.21-.73,20,20,0,0,1-3.78-1.16c-.76-.38-1.95,0-2.9.15-4.84,1.06-9.88-.78-10.17,5.08a60.59,60.59,0,0,0-1.27,7.11c-.21,3.28,0,6.86,0,10.17a9.4,9.4,0,0,0,.72,3.63c.64,1.59,1.67,3,2.33,4.65a79.18,79.18,0,0,0,7.11,9.15C136.22,175.68,135.56,174.36,137,175.81Z"/><path id="path3930" class="cls-1" d="M143.64,128.92l-6.91-5.68-.77.15c-2.47.62-7.19.2-9.22,1.53-3.36,1.92-5.56,5.31-8,7.68-.78.39-.44,2.25-.77,3.08-.57,1.43-.47,3.1-1.08,4.6a17.63,17.63,0,0,0-.61,5.84c0,2.67.15,5.33.15,8a38.06,38.06,0,0,0,.93,7.22c0,5,11.35,16.76,17.81,28,.92,1.85,1.55,1.87,3.23,2.15l1.07.16c2.33.33,3.61,1.69,6,1.69a16.22,16.22,0,0,1,3.69.92,21.14,21.14,0,0,0,4.3.15c2.05,0,4.22-.15,6.29-.15a15.14,15.14,0,0,0,3.23,0,15.28,15.28,0,0,1,3.38,0c1,0,2.38-.46,3.53-.46.74,0,2.06-1.87,2.76-2.15,1.67-.67,2.51-2.54,3.38-4a12.58,12.58,0,0,0,1.54-3.38c.29-1.18,0-2.3-1.23-2.61s-1.27-.81-2.31-1.07a5.85,5.85,0,0,1-2.45-.92c-1.39-1-3.07-2.12-4.46-3.23a26.51,26.51,0,0,0-4.6-2.92c-1.06-.53-1.15-1.13-2.15-.92s-1.5-2.33-1.08-4.3c.31-1.45-.34-1.7-.77-2.76-1-2.45-2.2-1.17.31-3.38,1.63-1.23,3-4.61,4-6.3,1.66-2.47,3.93-5.3,4-7.83.82-1.37,1.75-4.49,1.38-6-.12-1.79-2.06-5.16-3.69-8.14-2.62-1.58-2.94-6.21-5.53-7.37a6.32,6.32,0,0,0-2.15.15c-.67.17-1.61,2.46-2.3,2.46a69.17,69.17,0,0,1,6,7.83c1.37,2.79,3,4.5,2.76,7.68-.39,4.23-3.36,8.33-4.45,10.14-.15.31-1.69,2.3-1.84,2.61-.62,1.22-.78,1.09-1.23,2s-1.14,1.8-1.54,2.61,0,3.52.16,4.45c.27,1.36,1.34,1.09,1.69,2.46a18.25,18.25,0,0,1,0,3.84c0,1,.15,2.81.15,3.84s1.49.25,2.3.46c1.38.34,1.71,2,3.38,2.61,1.48.52,4.42,3.19,5.68,4.14s.1-.53-.3,1.08c-4.31,3.11-9.94,3.45-15.21,3.07-10.46-.88-11.17.12-15.2-4.61-5.11-7.14-10.41-14-15.51-22.11-.17-5.17,0-11.35.31-16.59,0-3,.76-3.5.76-6.45.74-4.16,4.34-6.74,7.53-7.83A50.82,50.82,0,0,1,143.64,128.92Z"/><path id="path3932" class="cls-1" d="M134,121.27c-1.71-.8-3.77-.52-5.53-.23-.55-.11,1.53-1.1,1.88-1.53.69-.87,1.9-1.13,2.94-1.65a27.44,27.44,0,0,1,5.41,1.53,22.59,22.59,0,0,0,4.82.94c5.33-4.9,11.56-9.87,17.65-14.47a77.53,77.53,0,0,1,11.41-1.52c1.53.76,3.24.08,4.11,1.52,1.53,2.19,5.12,5.31,4.59,7.06a28.66,28.66,0,0,1-1.29,6.71c0,.06-3.34.23-3.53.23h-2.24c-.92,0-1.21-.16-1.41-.35a17,17,0,0,0,3.65-3.41c.42-.42-.1-1.59-.24-2-.64-1.82-1.84-3.2-2.35-5.06-2.63.15-6.09.06-8.7.71a9.62,9.62,0,0,0-2.71,1.41c-1.5,1.6-2,1.67-4.35,4.11.25,2.32-1.11,4.51-.82,6.94,1.24,2.66.69,2,4.94,2.36a12.66,12.66,0,0,1,2.39.13c.16.08.21.22.08.45s-.1,1.64-1.3,2.24a25.79,25.79,0,0,1-4.94,1.17l-.59.12c-.8.16-1.2.31-2,.47-2.42.28-3.17,2-4.65,2.91-1,.63-3,.5-4.64.39a3.06,3.06,0,0,1-1.76-.47c-.45-.23-.59-1.18-.71-1.65s-1.2-1.32-1.53-1.65c-.51-.51-1.05-.58-1.64-1.17a18.59,18.59,0,0,0-2.24-2,13,13,0,0,1-1.29-1.42C136.28,122.81,135.73,121.84,134,121.27Z"/></svg>