<svg id="Layer_1" data-name="Layer 1" xmlns="http://www.w3.org/2000/svg" viewBox="0 0 300 300"><defs><style>.cls-1{fill:#fff;fill-rule:evenodd;}</style></defs><g id="Layer"><path id="Layer-2" data-name="Layer" class="cls-1" d="M265.62,129.34H222.23c-9.73,0-11.86,12.7-3,12.7h17.92c26.31,0,25.28,44.74-9.21,44.74H159.57l9.74-43.07-29,43.07H120.77l6-43.39-25,43.39H53.92c-42.94,0-36.62-73.56,17-73.56h43.64L105,129.6h-36c-27.92,0-32.69,41.19-9.48,41.19H91.18l33.65-57.57H146L140,161.31l32-48.09h21.72L181,170.79h50.47c8.38,0,8.83-12.44.9-12.44h-18.3c-26.11,0-24.69-45.13,14.11-45.13h46.16Z"/></g></svg>