<svg id="Layer_1" data-name="Layer 1" xmlns="http://www.w3.org/2000/svg" viewBox="0 0 300 300"><defs><style>.cls-1{fill:#1f9cd7;}</style></defs><g id="layer1-6"><path class="cls-1" d="M241,153.81a2.64,2.64,0,0,1,.71,2,91.93,91.93,0,1,1,0-11.36,2.67,2.67,0,0,1-2.66,2.85H150.24v3a2.67,2.67,0,0,0,2.67,2.67h86.18a2.65,2.65,0,0,1,1.87.77v1.93C241,155,241,154.42,241,153.81Z"/><path class="cls-1" d="M241,153.81c0,.61,0,1.21-.08,1.84v-1.93Z"/><path class="cls-1" d="M241.05,152.7c0,.38,0,.74,0,1.11,0,.61,0,1.21-.08,1.84V150C241.05,150.9,241.05,151.8,241.05,152.7Z"/></g></svg>