<svg id="Layer_1" data-name="Layer 1" xmlns="http://www.w3.org/2000/svg" viewBox="0 0 300 300"><defs><style>.cls-1{fill:#fff;}</style></defs><path class="cls-1" d="M194.58,170h-.06c-10.62,7.52-23.16,15.4-36.71,23.7l-.54.3a.43.43,0,0,0-.23.55.42.42,0,0,0,.55.22.36.36,0,0,0,.16-.11l.42-.24c11.52-6,24.71-13.08,38-20.42l.23-.12A15,15,0,0,1,194.58,170Zm69.73-56.48C247.6,95.07,139.78,111.66,94,121.69l-1.08.24a.48.48,0,0,0-.35.48.35.35,0,0,0,.39.32l.08,0,1.08-.18c38-6.75,117-16.12,133.91.72,5.19,5.13,4,11.76-2,19.58a15.32,15.32,0,0,1,6.56,9.43C256,136.68,271.78,121.75,264.31,113.51Z"/><path class="cls-1" d="M104.62,155.54a6.3,6.3,0,0,0-3.65,1.2,5.64,5.64,0,0,0-2,3.58c-.35,1.85-.18,3.1.54,3.94a4.22,4.22,0,0,0,3.16,1.19,6.07,6.07,0,0,0,2.63-.53,4.84,4.84,0,0,0,2-1.67,7.47,7.47,0,0,0,1.14-2.75c.29-1.67.06-2.87-.72-3.7A4,4,0,0,0,104.62,155.54ZM86.05,178.71l5-27.94h9l-.72,3.58a8.5,8.5,0,0,1,3.76-2.69,16.23,16.23,0,0,1,5.79-1.19,10.75,10.75,0,0,1,5.5,1,7.46,7.46,0,0,1,3.58,3.94,10.11,10.11,0,0,1,.48,5.68,12.34,12.34,0,0,1-5,8.17c-2.74,2-5.19,2.51-8.71,2.51a12.1,12.1,0,0,1-3.17-.36,7,7,0,0,1-2-.77,9.45,9.45,0,0,1-1.67-1.55l-1.67,9.61Zm103.34-7.23H179l5.26-29,10.08.24Zm-51.82-20.95.72-4.24L148.91,144l-1.13,6.51H153l-1,4.24h-5.08l-3,16.71H133.57l3.1-16.71h-3.88l.78-4.18h4ZM54.83,164a37.83,37.83,0,0,1-8.48.9c-4.84,0-8.72-2.39-8.48-6.87.12-2.92,3.64-9.13,12.48-9.13a14.45,14.45,0,0,1,7.94,2.15l1.25-7.23a24.17,24.17,0,0,0-10-1.67c-11.64.12-22.8,5.37-24.18,16.12S37.27,172,43.18,172c3.41,0,7-.18,10.27-.48Zm113.25-2.09-1.73.48-4,.72a6.36,6.36,0,0,0-2.69.83,1.81,1.81,0,0,0-.9,1.31,1.33,1.33,0,0,0,.54,1.44,4.76,4.76,0,0,0,2.57.48,9.63,9.63,0,0,0,2.62-.36,6,6,0,0,0,2.15-1.14,3,3,0,0,0,.9-1.37A14,14,0,0,0,168.08,161.93Zm11-6.86c-.06,1-.24,2-.48,3.46L176.73,169a1.92,1.92,0,0,0,1,2.15v.35H167.06V168.8a21.79,21.79,0,0,1-5.13,2.21,19,19,0,0,1-5.14.59c-3.4,0-5.37-.36-6.74-1.55s-2-2-2-3.7a5.64,5.64,0,0,1,1.31-3.1,7.79,7.79,0,0,1,2.81-2,14.81,14.81,0,0,1,4.24-1.2c1.91-.3,4.53-.6,8.05-.89a14.67,14.67,0,0,0,3.47-.78c.71-.3,1-.6,1.13-1.19a1.7,1.7,0,0,0-1.55-2c-3.82-.78-11,.47-14.69,1.37l2-5.37a96.07,96.07,0,0,1,14.27-1.2c7.58.06,10,2.27,10,5Zm-61,16.41,3.7-20.83H132l-3.7,20.83Zm4.3-25.61c.29-1.73,3-3.1,6-3.1s5.19,1.37,4.89,3.1-3,3.11-6,3.11S122.05,147.54,122.35,145.87Zm-46.09,16a7.54,7.54,0,0,1-1.73.48l-3.94.72a6.34,6.34,0,0,0-2.75.83,1.94,1.94,0,0,0-.9,1.37,1.28,1.28,0,0,0,.6,1.38,4.47,4.47,0,0,0,2.51.54,9.83,9.83,0,0,0,2.63-.42,6.06,6.06,0,0,0,2.14-1.14,3,3,0,0,0,.9-1.37A8.91,8.91,0,0,0,76.26,161.87Zm11-6.8c-.06,1-.24,1.91-.48,3.46l-1.85,10.39a1.92,1.92,0,0,0,1,2.15v.41H75.24v-2.62A24.32,24.32,0,0,1,70.11,171a19.34,19.34,0,0,1-5.08.65c-3.46,0-5.43-.36-6.74-1.55s-2.09-2-2-3.76a5.77,5.77,0,0,1,1.31-3,8,8,0,0,1,2.81-2,16.87,16.87,0,0,1,4.3-1.2c1.85-.3,4.47-.6,8-.89a9.42,9.42,0,0,0,3.46-.78c.77-.3,1-.6,1.13-1.19a1.7,1.7,0,0,0-1.55-2c-3.82-.72-11,.47-14.69,1.43l2-5.43a97.43,97.43,0,0,1,14.27-1.2C84.85,150.05,87.3,152.26,87.24,155.07Z"/><path class="cls-1" d="M230.94,157.87l2.33-.24c.78,0,1.43.18,1.49.9a30,30,0,0,1-.95,4.36l-1.62,7c-.59,2.87-1.31,5.85-1.91,8.24h4.06l2.27-11.1c7-7.29,9.73-9.68,11.35-9.68a1.2,1.2,0,0,1,1.31,1.07,1,1,0,0,1,0,.25,23.08,23.08,0,0,1-1,5l-2.38,8.06a17.87,17.87,0,0,0-.84,4.66,2.78,2.78,0,0,0,2.69,2.57c3,0,5.19-3.11,7-6.15l-.54-1c-.77,1.2-2.5,3.88-3.94,3.88-.41,0-.83-.3-.83-1a12.32,12.32,0,0,1,.6-3.29l2.62-9.49a27.78,27.78,0,0,0,1-5.19,3,3,0,0,0-2.69-2.57c-2.69,0-6.27,2-13.79,10.63h-.12l1-4.24c.53-2.33,1-4.72,1.49-6.39a68.32,68.32,0,0,1-8.66,2.45Zm39.94.24c-.06-1.67-.89-2.8-2.63-2.8-4.18,0-8.59,8.17-9.37,11.46C265.69,166.77,271.06,162.71,270.88,158.11Zm.9,12.84.77.53c-2,4.12-6.15,7.47-11,7.47-4,0-7.23-2.63-7.41-7.59-.35-9,8.06-17.25,14.87-17.25,2.93,0,5.67,1.31,5.79,4.48.24,7.1-9.73,9.25-16.3,9.37a9,9,0,0,0-.24,2.63c.12,3,1.91,5.43,5.56,5.43S270.16,173.45,271.78,171Zm-70.39-5.79c.18,6.5,4.3,11.82,9.67,11.82,10.39,0,14.81-12.78,14.51-21.32-.24-6.5-4.42-11.82-9.79-11.82C206.82,143.84,201,156.56,201.39,165.16Zm-5.49-.36c-.42-11.11,8.3-22.45,20.89-22.45,8.48,0,14,5.67,14.27,14.27.42,11.7-7.7,22.45-20.89,22.45C201.69,179.07,196.2,173.45,195.9,164.8Z"/></svg>