<svg id="Layer_1" data-name="Layer 1" xmlns="http://www.w3.org/2000/svg" viewBox="0 0 300 300"><defs><style>.cls-1{fill:#fff;}</style></defs><title>COST_Logo_Dark</title><path class="cls-1" d="M110.09,167.4l.64,10.1h.16a20.34,20.34,0,0,1,1.22-3.12l3.48-7h5.65l.85,10.1h.17a21.39,21.39,0,0,1,1.07-3l3.4-7.11h7.67L124,184.32h-6.44l-.56-9.2h-.25a14.54,14.54,0,0,1-.86,2.56l-3.31,6.64h-6.27l-3.89-16.92Z"/><path class="cls-1" d="M133.87,167.4H141l-1.08,5.7h4.52l1.09-5.7h7.1l-3.21,16.92h-7.11l1.12-5.88h-4.52l-1.12,5.88h-7.11Z"/><path class="cls-1" d="M173.42,175.91c-1,5.42-6.69,8.68-12.88,8.68s-10.61-3.26-9.57-8.68,6.72-8.78,12.89-8.78,10.57,3.46,9.56,8.78Zm-15,.08c-.37,1.93.94,3.26,3.18,3.26A4.26,4.26,0,0,0,166,176c.34-1.79-.82-3.29-3.17-3.29A4.33,4.33,0,0,0,158.38,176ZM175,167.4h7.38l-2.18,11.49h6.19l-1,5.43H171.82Zm28.84,10.86.33.25a7.29,7.29,0,0,0,4.31,1.55c.73,0,1.93-.25,2.08-1s-.81-.83-1.46-1l-1.44-.22c-2.8-.43-4.95-1.84-4.45-4.49.76-4,5.57-6.25,10-6.25a12.31,12.31,0,0,1,6.15,1.48L216.57,173a7.4,7.4,0,0,0-4-1.28c-.65,0-1.63.2-1.76.89s.78.72,1.32.83l1.62.32c3,.58,5,2,4.46,4.84-.77,4-5.56,6-9.95,6A19.24,19.24,0,0,1,200.7,183l3.17-4.78Z"/><path class="cls-1" d="M229.22,178.19l-.3-3a19.85,19.85,0,0,1-.07-2.18h-.27l-2.32,5.16Zm-6.43,6.13H215l10.26-16.92h8.16l4,16.92h-7.81l-.27-2.11h-5.57l-1,2.11Z"/><path class="cls-1" d="M240,167.4h7.37l-2.18,11.49h6.19l-1,5.43H236.82Zm14.94,0h13.65l-.88,4.63h-6.22l-.31,1.61h5.68l-.84,4.4h-5.68l-.31,1.66h6.44l-.88,4.62H251.76Z"/><path class="cls-1" d="M154.89,137l9.31-.35-7.81,25.75H173.1l7.81-25.75L190,137l3.71-12.23H158.6L154.89,137Zm-34.6,6.68C118,155.77,105.15,163,91.12,163s-24-7.24-21.69-19.32c2.29-11.83,15.24-19.51,29.2-19.51s24,7.68,21.66,19.51Zm-34.07.2c-.83,4.29,2.14,7.24,7.2,7.24s9.17-2.94,10-7.24c.77-4-1.88-7.33-7.18-7.33s-9.25,3.34-10,7.33Z"/><path class="cls-1" d="M115.1,159.56a43.84,43.84,0,0,0,17,3.45c9.95,0,20.81-4.44,22.54-13.43,1.24-6.39-3.28-9.48-10.11-10.78l-3.64-.7c-1.24-.25-3.27-.45-3-1.84.3-1.55,2.52-2,4-2A17.06,17.06,0,0,1,151,137.1l6.37-9.63a28.34,28.34,0,0,0-13.93-3.29c-10,0-20.91,5-22.64,13.92-1.14,5.89,3.74,9,10.08,10l3.26.49c1.48.25,3.64.4,3.31,2.1s-3,2.24-4.7,2.24a16.63,16.63,0,0,1-9.76-3.44l-.75-.55Zm111.15-33.83a38.73,38.73,0,0,0-10.92-1.55c-13.48,0-25.73,8.78-27.85,19.76C185.4,154.67,194,163,207.15,163c3,0,9.29-.45,12.18-1.5l3.21-14.07a17.66,17.66,0,0,1-10.25,3.49c-5,0-8.71-3.19-7.91-7.33s5.51-7.34,10.51-7.34a13.56,13.56,0,0,1,9.09,3.8l2.27-14.33ZM253,124.18c-14,0-26.92,7.68-29.2,19.51C221.47,155.77,231.47,163,245.5,163s26.83-7.24,29.17-19.32C277,131.86,267,124.18,253,124.18Zm-2.39,12.38c5.3,0,7.95,3.34,7.17,7.33-.82,4.29-4.93,7.24-10,7.24s-8-2.95-7.2-7.24c.77-4,4.71-7.33,10-7.33ZM73.74,117.28a49.81,49.81,0,0,0-13.63-1.87C43.3,115.41,28,126,25.38,139.3c-2.59,13,8.18,23,24.53,23,3.73,0,11.59-.54,15.19-1.81l4-17a22.42,22.42,0,0,1-12.79,4.22c-6.24,0-10.86-3.86-9.87-8.87S53.32,130,59.56,130a17.21,17.21,0,0,1,11.33,4.58l2.85-17.31Z"/><path class="cls-1" d="M264.38,160.58a3.33,3.33,0,0,1,3.31-2.37c1.59,0,2.66,1.06,2.41,2.37a3.34,3.34,0,0,1-3.31,2.38C265.2,163,264.13,161.9,264.38,160.58Zm5,0c.2-1.06-.55-1.75-1.78-1.75a2.32,2.32,0,0,0-2.44,1.75c-.2,1.06.54,1.76,1.78,1.76a2.34,2.34,0,0,0,2.44-1.76Zm-1,1.24h-.74l-.47-1h-.48l-.2,1h-.63l.48-2.49h1.44c.64,0,1,.18.88.77a.84.84,0,0,1-.8.67l.52,1Zm-.92-1.53c.31,0,.58,0,.64-.26s-.23-.22-.55-.22h-.68l-.09.48Z"/><polygon class="cls-1" points="26.55 184.34 104.76 184.34 104.75 184.32 104.69 184.32 103.7 180.02 26.55 180.02 26.55 184.34"/><polygon class="cls-1" points="26.55 178.2 103.28 178.2 102.28 173.87 26.55 173.87 26.55 178.2"/><polygon class="cls-1" points="26.55 172.02 101.83 172.02 101.49 170.45 100.8 167.44 26.55 167.44 26.55 172.02"/><polygon class="cls-1" points="189.97 167.4 203.62 167.4 202.75 172.03 196.53 172.03 196.22 173.64 201.9 173.64 201.06 178.04 195.38 178.04 195.07 179.7 201.5 179.7 200.63 184.32 186.76 184.32 189.97 167.4"/></svg>