<svg id="Layer_1" data-name="Layer 1" xmlns="http://www.w3.org/2000/svg" viewBox="0 0 300 300"><defs><style>.cls-1{fill:#fff;}</style></defs><path class="cls-1" d="M220.23,64.29c0-6.87-3-11.52-11.13-11.52-26.33,0-59.85,47.82-71.94,67.66-16.38,26.86-35.09,67.75-35.09,100.37,0,12.66,5.47,22.09,19,22.09,28.67,0,51.09-37.31,51.09-62.31a26.81,26.81,0,0,0-4-15.71,17.38,17.38,0,0,1,13.93-6.79c9.71,0,14.7,6.37,14.7,17.23,0,35.1-37.18,81-81.46,81-33.55,0-51.57-17-51.57-49.91,0-66.6,70-162.63,146.61-162.63,18,0,36.29,5.45,36.29,25.19,0,26-26.56,44.4-49,51.74a100.89,100.89,0,0,1-30.89,4.76A92.66,92.66,0,0,1,149,123.79l.63-2.57C177.26,120.3,220.23,92.93,220.23,64.29Zm-166.87,1A16.64,16.64,0,0,1,69,47.74a15.55,15.55,0,0,1,2.46,0,17.91,17.91,0,0,1,16.23,9.09,14.83,14.83,0,0,0-10.55,15c0,10.49,7.81,22.55,15.44,28.94l-1.23,2.31C76.4,97.64,53.36,84.38,53.36,65.29Z"/></svg>