<svg id="Layer_1" data-name="Layer 1" xmlns="http://www.w3.org/2000/svg" viewBox="0 0 300 300"><defs><style>.cls-1{fill:#fff;fill-rule:evenodd;}</style></defs><path id="Layer" class="cls-1" d="M177.54,256.69c-16.38,7-35.12,9.28-56.17,9.28-26.84,0-46.79-3.48-60.76-10.47-15.16-7-24.54-19.77-31.53-37.32-7.08-18.64-5.88-40.8,3.48-68.73C44.24,112.14,64.1,84.11,91,64.35,119.07,44.5,151.78,34,190.31,34c30.42,0,51.47,5.79,65.53,17.45C274.51,66.66,278,91.18,278,113.33H207.86c-1.2-10.57-4.68-18.65-14-23.34-4.68-3.49-11.77-4.69-18.74-4.69-16.37,0-31.54,5.88-44.4,18.65-10.58,9.38-17.57,24.54-24.55,44.31-7,24.54-9.38,42-3.5,51.28,4.7,9.36,15.18,14.06,29.24,14.06a57.68,57.68,0,0,0,35-11.68,100.85,100.85,0,0,0,19.86-23.34h70.12c-8.17,17.47-24.54,38.51-38.51,51.28-14.06,11.67-28.12,19.84-40.89,26.83Z"/></svg>