<svg id="Layer_1" data-name="Layer 1" xmlns="http://www.w3.org/2000/svg" viewBox="0 0 300 300"><path d="M190.73973,186.44755a126.7615,126.7615,0,0,1-4.24122,13.96285,86.59712,86.59712,0,0,1-7.01974,13.39421c-.68238,1.09782-1.44533,2.38361-3.29662,1.687-11.84856-4.45131-22.8552-10.27529-31.90156-19.3327-1.00147-1.00542-1.8971-2.11982-3.29188-3.69152A39.80443,39.80443,0,0,1,127.14827,219.18c4.633.70608,8.5551.462,12.245-1.44059,1.77863-.91617,2.60634-.61526,2.371,1.51009-.26695,2.40415.40912,4.68035.90827,6.99051.37594,1.73282,1.3,1.94765,2.85749,1.49825a22.2,22.2,0,0,0,6.76226-3.79419c.38542-.278.68871-.78585,1.23841-.59551.72977.25273.50863.94934.49757,1.4706a20.48777,20.48777,0,0,0,1.99029,8.98476c1.13257,2.49734,1.5796,2.65846,4.02008,1.43269,2.72165-1.36951,4.79408-3.55409,7.25983-5.55228a21.044,21.044,0,0,0,3.86528,11.77906c1.06623,1.488,1.88446,1.6412,3.32031.46361a27.0006,27.0006,0,0,0,5.16529-5.49147c.40754-.58761.60025-1.59224,1.41216-1.50694.99515.10425.89247,1.26052,1.082,1.965a18.90291,18.90291,0,0,0,5.07525,9.02661c2.14984,2.06217,2.20828,2.09929,3.393-.58524,6.14306-13.91942,8.31816-28.37116,5.54755-43.41367A50.1405,50.1405,0,0,0,190.73973,186.44755Z" fill="#fff"/><path d="M240.15587,74.75891a28.27155,28.27155,0,0,0,7.60735-9.739c1.84971-3.54225,2.74534-7.2859,1.69491-11.29255-.30171-1.15784-.84509-1.62778-1.72966-.48257-2.243,2.90094-4.93309,5.37617-7.4178,8.04569A187.97535,187.97535,0,0,1,222.47385,77.5548q-5.516,4.5836-11.02085,9.17588l.00158-.00316c-7.80164,5.11474-15.18152,10.82736-22.901,16.0661-8.76045,5.94323-17.79891,11.39837-26.8737,16.81877a2.73737,2.73737,0,0,1-3.31715-.1319,53.67074,53.67074,0,0,0-16.897-7.38936c-6.95971-1.59224-13.99524-2.52025-20.99444-.32935-4.603,1.4406-8.77309,3.81552-10.96241,8.32212a21.4219,21.4219,0,0,1-12.948,11.41417c-2.92857.99436-6.05934.91222-8.99581,1.8197-.46282.06081-1.04885.12321-1.25894.14532-3.63307.38068-1.87814.18955-5.70393.72425-.32066.045-1.80074.20929-2.1214.25273l-.01263.00158c-4.95836.56155-4.51449.43676-7.01816.665-6.56165.59788-13.07749,1.61672-19.61387,2.44759-.714.09-1.77231.22746-1.74071,1.01568.04107,1.07887,1.15626.88853,1.92869.84351,4.7151-.27564,9.42862-.59788,14.14372-.8751,8.53614-.50231,17.06755-1.12388,25.6116-1.41137a14.19756,14.19756,0,0,1,10.36374,3.532,33.95545,33.95545,0,0,0,14.59865,7.88456c6.8902,1.84892,11.539,6.23626,13.28916,13.455,1.70754,7.04817,5.26006,13.40921,9.24222,19.26162a69.49437,69.49437,0,0,0,18.97256,19.05627,85.62023,85.62023,0,0,0,14.88139,7.81269c1.46587.60183,2.61739.77084,3.64729-.98251a60.34356,60.34356,0,0,0,7.60734-19.60044l.00158-.00079q.0616-.481.12163-.96119a12.36873,12.36873,0,0,0,.64132-1.8347,61.0679,61.0679,0,0,0-.10267-24.716c-.80718-3.61807-.63026-3.92372,2.63161-5.3114,11.0098-4.68272,19.19211-12.05391,22.53612-23.97909.33962-1.21313.575-2.53367,1.91132-3.26108a19.09035,19.09035,0,0,0,5.11157-4.49c1.77073-2.03216,3.52409-4.17172,3.23028-7.13189a3.97819,3.97819,0,0,1,.03159-.70055,27.54043,27.54043,0,0,1,2.14194-2.67979c.11373-.05055.199-.109.32066-.158,5.79712-2.31727,9.92935-8.59854,9.64976-14.56468a2.76566,2.76566,0,0,1,1.29527-2.77536,20.75508,20.75508,0,0,0,8.85523-16.34963c.05844-1.32607-.05371-2.34886-1.81022-1.95238-.56392.12716-1.28263.18007-1.5796-.3404C238.9459,75.59768,239.67725,75.12459,240.15587,74.75891Z" fill="#fff"/></svg>