<svg id="Layer_1" data-name="Layer 1" xmlns="http://www.w3.org/2000/svg" viewBox="0 0 300 300"><defs><style>.cls-1{fill:#fff;}</style></defs><path class="cls-1" d="M188.31,148.34c14.19-8.54,26-11.87,41.62-10.44-39.25-29.43-54.39,18-95.54,5.69-15.61-4.74-24.59-18-43.51-15.18C66.28,131.73,48.78,159.25,10,137c21.76,30.85,49.66,22.3,69.05,10.91,9.46-5.69,29.33-15.18,40.21-9,3.31,1.9,5.2,4.27,7.56,6.64a41.16,41.16,0,0,0,7.1,6.17h0a32.07,32.07,0,0,0,5.2,3.32c-19.39,7.6-37.36,24.68-70,5.7,21.76,30.85,49.66,22.3,69.06,10.91,9.46-5.69,29.32-15.18,40.2-9,3.31,1.9,5.2,4.27,7.57,6.64a41.12,41.12,0,0,0,7.09,6.17h0c17.5,12.34,38.31,6.65,55.34-3.32,14.19-8.54,26-11.87,41.62-10.44-39.26-29.43-54.39,18-95.54,5.69-8-2.37-14.66-7.12-21.28-10.91,4.25-2.38,9.93-5.22,15.13-8.07"/></svg>