<svg id="Layer_1" data-name="Layer 1" xmlns="http://www.w3.org/2000/svg" viewBox="0 0 300 300"><defs><style>.cls-1{fill:#0f9bd7;}.cls-2,.cls-3{fill:#fff;}.cls-3{fill-rule:evenodd;}</style></defs><title>CRM_Light_bg</title><path class="cls-1" d="M129.56,83.31A42.7,42.7,0,0,1,160.46,70a43.14,43.14,0,0,1,37.6,22.29,52,52,0,0,1,21.25-4.52c29,0,52.55,23.73,52.55,53s-23.53,53-52.55,53a52.73,52.73,0,0,1-10.35-1,38.4,38.4,0,0,1-50.32,15.8,43.82,43.82,0,0,1-81.46-2,40.46,40.46,0,0,1-8.36.87,41.18,41.18,0,0,1-20.34-76.7,47.33,47.33,0,0,1,81.08-47.47"/><path class="cls-2" d="M63.44,153.17c-.15.4.05.48.1.55.46.33.93.57,1.39.84a14.86,14.86,0,0,0,7.29,1.7c5,0,8.11-2.66,8.11-6.94v-.08c0-4-3.51-5.4-6.79-6.43l-.43-.14c-2.48-.81-4.62-1.5-4.62-3.13v-.09c0-1.39,1.25-2.42,3.19-2.42A14.38,14.38,0,0,1,78,138.65s.49.32.66-.15l1-2.74a.47.47,0,0,0-.24-.56,14.23,14.23,0,0,0-7.17-1.93h-.5C67.23,133.28,64,136,64,140v.09c0,4.17,3.53,5.53,6.83,6.47l.53.16c2.41.74,4.48,1.38,4.48,3.07v.09c0,1.54-1.35,2.7-3.52,2.7a11.84,11.84,0,0,1-6.44-1.85c-.35-.21-.55-.36-.83-.52a.39.39,0,0,0-.65.22Z"/><path class="cls-2" d="M136.63,153.17c-.16.4.05.48.1.55a15.56,15.56,0,0,0,1.39.84,14.86,14.86,0,0,0,7.29,1.7c5,0,8.11-2.66,8.11-6.94v-.08c0-4-3.51-5.4-6.8-6.43l-.43-.14c-2.47-.81-4.61-1.5-4.61-3.13v-.09c0-1.39,1.25-2.42,3.19-2.42a14.42,14.42,0,0,1,6.35,1.62s.48.32.66-.15l1-2.74a.47.47,0,0,0-.25-.56,14.19,14.19,0,0,0-7.16-1.93H145c-4.58,0-7.77,2.76-7.77,6.72v.09c0,4.17,3.53,5.53,6.83,6.47l.53.16c2.4.74,4.48,1.38,4.48,3.07v.09c0,1.54-1.35,2.7-3.52,2.7a11.84,11.84,0,0,1-6.44-1.85c-.36-.21-.56-.35-.83-.52a.41.41,0,0,0-.65.22Z"/><path class="cls-2" d="M190.76,140.3a10.07,10.07,0,0,0-1.9-3.63,9,9,0,0,0-3.2-2.43,11.58,11.58,0,0,0-8.95,0,9,9,0,0,0-3.2,2.44,10,10,0,0,0-1.9,3.62,16.53,16.53,0,0,0,0,9,10.1,10.1,0,0,0,1.9,3.62,9,9,0,0,0,3.2,2.42,11.94,11.94,0,0,0,8.95,0,9,9,0,0,0,3.2-2.42,10.1,10.1,0,0,0,1.9-3.62,16.53,16.53,0,0,0,0-9m-4.17,4.48a10.31,10.31,0,0,1-1.34,5.68,5.14,5.14,0,0,1-8.11,0,10.49,10.49,0,0,1-1.32-5.68,10.35,10.35,0,0,1,1.32-5.65,5.17,5.17,0,0,1,8.11,0,10.17,10.17,0,0,1,1.34,5.65"/><path class="cls-3" d="M225,151.79a.4.4,0,0,0-.53-.25,9.9,9.9,0,0,1-1.94.55,14.82,14.82,0,0,1-2.29.17,6.34,6.34,0,0,1-4.77-1.79c-1.15-1.19-1.8-3.11-1.79-5.71a8.77,8.77,0,0,1,1.6-5.49,5.43,5.43,0,0,1,4.63-2,14,14,0,0,1,4.41.63s.33.14.48-.29c.37-1,.64-1.73,1-2.85a.38.38,0,0,0-.26-.49,15.84,15.84,0,0,0-2.79-.7,20.56,20.56,0,0,0-3.13-.21,11.31,11.31,0,0,0-4.65.9,9.66,9.66,0,0,0-3.36,2.43,10.36,10.36,0,0,0-2,3.62,14.48,14.48,0,0,0-.68,4.5,12,12,0,0,0,2.78,8.3c1.85,2.06,4.62,3.1,8.24,3.1a17,17,0,0,0,5.91-1,.39.39,0,0,0,.17-.5Z"/><path class="cls-3" d="M246.38,139.51a8.68,8.68,0,0,0-1.8-3.3,8.33,8.33,0,0,0-2.69-2.05,10.35,10.35,0,0,0-4-.82,11.05,11.05,0,0,0-4.67.91,9.26,9.26,0,0,0-3.25,2.48A10.11,10.11,0,0,0,228,140.4a15.54,15.54,0,0,0-.62,4.5,15,15,0,0,0,.64,4.51,9,9,0,0,0,5.6,6,14.29,14.29,0,0,0,5.13.83c4.08,0,6.22-.92,7.11-1.41.16-.09.3-.24.12-.68l-.93-2.59a.41.41,0,0,0-.53-.24,13.65,13.65,0,0,1-5.8,1,5.77,5.77,0,0,1-6.47-6.36h14.12a.41.41,0,0,0,.41-.37,14.91,14.91,0,0,0-.42-6.08m-14,3a8.13,8.13,0,0,1,1.15-3.33,4.49,4.49,0,0,1,4-2,4.38,4.38,0,0,1,4,2,7.05,7.05,0,0,1,.94,3.34Z"/><path class="cls-3" d="M133.25,139.51a8.69,8.69,0,0,0-1.81-3.3,8.2,8.2,0,0,0-2.68-2.05,10.35,10.35,0,0,0-4-.82,11.05,11.05,0,0,0-4.67.91,9.26,9.26,0,0,0-3.25,2.48,10.29,10.29,0,0,0-1.92,3.67,15.89,15.89,0,0,0-.61,4.5,15,15,0,0,0,.64,4.51,9.36,9.36,0,0,0,2,3.6,9.47,9.47,0,0,0,3.55,2.35,14.33,14.33,0,0,0,5.13.83c4.08,0,6.23-.92,7.12-1.41.16-.09.3-.24.12-.68l-.93-2.59a.41.41,0,0,0-.53-.24,13.65,13.65,0,0,1-5.8,1,5.77,5.77,0,0,1-6.47-6.36h14.12a.41.41,0,0,0,.41-.37,14.91,14.91,0,0,0-.42-6.08m-14,3a8.28,8.28,0,0,1,1.14-3.33,4.52,4.52,0,0,1,4-2,4.38,4.38,0,0,1,4,2,7.05,7.05,0,0,1,.94,3.34Z"/><path class="cls-2" d="M94.29,141.79c-.58,0-1.32-.07-2.21-.07a13.66,13.66,0,0,0-3.48.45,9.14,9.14,0,0,0-2.94,1.37,6.61,6.61,0,0,0-2.81,5.58,7.41,7.41,0,0,0,.65,3.23,5.82,5.82,0,0,0,1.84,2.21,7.72,7.72,0,0,0,2.88,1.24,16.46,16.46,0,0,0,3.74.39,25.43,25.43,0,0,0,4.29-.36c1.39-.24,3.08-.58,3.56-.69l1-.25a.44.44,0,0,0,.32-.46V141.51c0-2.84-.75-4.94-2.24-6.24s-3.67-2-6.49-2a22.83,22.83,0,0,0-3.79.35,13.44,13.44,0,0,0-4.35,1.59.44.44,0,0,0-.13.56l1,2.69a.36.36,0,0,0,.47.23l.23-.12A14.25,14.25,0,0,1,92,137.19a5.77,5.77,0,0,1,3.5.91c.77.59,1.16,1.48,1.16,3.37v.59c-1.21-.17-2.33-.27-2.33-.27m-5.62,9.92a2.87,2.87,0,0,1-.82-.83,3.41,3.41,0,0,1-.42-1.84,3.07,3.07,0,0,1,1.26-2.73s1.22-1.06,4.1-1a29.05,29.05,0,0,1,3.83.33V152a28,28,0,0,1-3.81.51c-2.87.17-4.15-.83-4.14-.83"/><path class="cls-3" d="M208.22,134.51A.39.39,0,0,0,208,134a12.77,12.77,0,0,0-2.37-.4,7.08,7.08,0,0,0-3.64.58,6.28,6.28,0,0,0-2.38,1.77v-1.73a.41.41,0,0,0-.4-.42h-3.62a.41.41,0,0,0-.41.42V155.3a.42.42,0,0,0,.43.42h3.71a.42.42,0,0,0,.43-.42V144.77a12.41,12.41,0,0,1,.47-3.71,5.32,5.32,0,0,1,1.23-2.08,4.41,4.41,0,0,1,1.75-1,6.83,6.83,0,0,1,1.89-.26,7.93,7.93,0,0,1,1.55.19.48.48,0,0,0,.52-.38c.24-.65.93-2.59,1.06-3"/><path class="cls-3" d="M173.39,124.74a11.63,11.63,0,0,0-1.4-.32,9.84,9.84,0,0,0-1.92-.16,8.1,8.1,0,0,0-6,2.15,11.65,11.65,0,0,0-2.84,6.41l-.17,1h-3.21a.48.48,0,0,0-.47.42l-.53,2.93c0,.28.08.46.46.46h3.12l-3.17,17.68a22,22,0,0,1-.84,3.48,7,7,0,0,1-1,2,2.63,2.63,0,0,1-1.29,1,5.37,5.37,0,0,1-1.66.24,6.11,6.11,0,0,1-1.13-.13,3.33,3.33,0,0,1-.77-.24.39.39,0,0,0-.51.22l-1,2.87a.42.42,0,0,0,.21.57,12.39,12.39,0,0,0,1.29.37,8.34,8.34,0,0,0,2.07.2,10.2,10.2,0,0,0,3.47-.54,6.52,6.52,0,0,0,2.61-1.82,9.5,9.5,0,0,0,1.84-3.16,27.43,27.43,0,0,0,1.24-4.75l3.18-18h4.65a.47.47,0,0,0,.47-.41l.53-2.94c0-.28-.08-.46-.46-.46h-4.51a18.36,18.36,0,0,1,.74-3.18,4.17,4.17,0,0,1,1-1.51,3.05,3.05,0,0,1,1.19-.74,5,5,0,0,1,1.51-.21,6.44,6.44,0,0,1,1.16.11l.72.18c.46.14.52,0,.62-.22l1.08-3a.39.39,0,0,0-.26-.5"/><path class="cls-3" d="M110.28,155.3a.42.42,0,0,1-.41.43h-3.74a.42.42,0,0,1-.41-.43V125.15a.41.41,0,0,1,.41-.43h3.74a.41.41,0,0,1,.41.43Z"/></svg>