<svg id="Layer_1" data-name="Layer 1" xmlns="http://www.w3.org/2000/svg" viewBox="0 0 300 300"><defs><style>.cls-1{fill:#fff;fill-rule:evenodd;}</style></defs><title>Artboard 2</title><path class="cls-1" d="M10,170.66a6,6,0,0,0,6.5,5.6h0a6.42,6.42,0,0,0,3.69-1.57,6,6,0,0,0,1.91-4V157.22a6.05,6.05,0,0,0-12.1,0Z"/><path class="cls-1" d="M43.6,170.66a6.07,6.07,0,0,0,12.1,0V140.42a6.05,6.05,0,0,0-12.1,0Z"/><path class="cls-1" d="M77,182.75a6.05,6.05,0,0,0,12.09,0v-65.4a6.05,6.05,0,0,0-12.09,0Z"/><path class="cls-1" d="M110.58,170.66a6.06,6.06,0,0,0,12.09,0V140.42a6,6,0,0,0-12.09,0Z"/><path class="cls-1" d="M144,170.66a6.07,6.07,0,0,0,12.1,0V157.22a6,6,0,0,0-6.27-5.83,6.1,6.1,0,0,0-5.83,5.83Z"/><path class="cls-1" d="M177.55,170.66a6.07,6.07,0,0,0,12.1,0V140.42a6.05,6.05,0,0,0-12.1,0Z"/><path class="cls-1" d="M210.93,182.75a6.06,6.06,0,0,0,12.09,0v-65.4a6,6,0,0,0-12.09,0Z"/><path class="cls-1" d="M244.42,170.66a6.06,6.06,0,0,0,12.09,0V140.42a6,6,0,0,0-12.09,0Z"/><path class="cls-1" d="M277.9,170.66a6.07,6.07,0,0,0,12.1,0V157.22a6.05,6.05,0,0,0-12.1,0v13.44Z"/></svg>