<svg id="Layer_1" data-name="Layer 1" xmlns="http://www.w3.org/2000/svg" viewBox="0 0 300 300"><defs><style>.cls-1{fill:#fff;fill-rule:evenodd;}</style></defs><g id="Layer_1-2" data-name="Layer 1"><path id="_Compound_Path_" data-name="&lt;Compound Path&gt;" class="cls-1" d="M48.79,224.48,21.51,138.72A5.25,5.25,0,0,1,23,133.6l41.81-33.33a3.1,3.1,0,0,1,4.37.46c0,.07,0,.1.1.1l31,43.57a5.17,5.17,0,0,1,.1,5.31l-48.7,75.14C50.65,226.34,49.44,226.15,48.79,224.48Zm136.87,54.09-88.54-.09a4.88,4.88,0,0,1-4.29-3L74.58,224.76a3.28,3.28,0,0,1,2-4.19L126.82,204a4.91,4.91,0,0,1,4.93,1.59L186.88,276c1.11,1.39.55,2.51-1.22,2.6ZM278.5,162.75,251.12,248.5a4.87,4.87,0,0,1-4.19,3.17l-53,2a3.31,3.31,0,0,1-3.35-3.25l.09-53.73a4.94,4.94,0,0,1,3-4.38l82.78-31.65c1.58-.56,2.6.37,2.05,2.05ZM199,37.05l71.6,53.07a5,5,0,0,1,1.77,4.93L257.83,147.1v.1a3.17,3.17,0,0,1-4,2l-50.19-16.66a4.84,4.84,0,0,1-3.16-4.19l-4-89.95c0-1.77,1.11-2.42,2.51-1.39ZM57.08,75.22l71.6-53a4.82,4.82,0,0,1,5.22-.09L178,52.22a3.35,3.35,0,0,1,.74,4.57l-31.09,43.48a5,5,0,0,1-4.94,1.77L57.54,78c-1.67-.46-1.95-1.76-.46-2.79Z"/></g></svg>