<svg id="Layer_1" data-name="Layer 1" xmlns="http://www.w3.org/2000/svg" viewBox="0 0 300 300"><defs><style>.cls-1{fill:#fff;}</style></defs><g id="g2806"><path id="path2808" class="cls-1" d="M229.06,174.28c.34-.17,0-.54-.08-.71L220.24,163l-.25-.12-9.46,11.05c-.08.13,0,.21.13.3h7.8v17.13H179V177.1h-.31c-4.26,9.57-14.25,16.59-24.8,16.22-5.08,0-9.5-2-13.67-4.34l-.2.38v1.9l-.34.12-18.07-.08-.08-.46-.08-25.72-.09-.09c-1.35,2.86-2.44,5.93-4.2,8.66-8.74,14.92-25,20.84-41.65,19-14-1.18-27.23-11.39-32.9-24.29-6.18-13.9-5-33,4.62-45,10.38-13.61,27.15-19.2,43.58-15.8A46.08,46.08,0,0,1,103,112.47v-.29c.08-1.26-.3-2.48,0-3.66h16V135.8l-20.25-.14a21,21,0,0,0-21.94-8.06c-8.15,1.51-15.59,9.33-16.93,17.48a23.17,23.17,0,0,0,9.79,23.61c6.09,4.62,15.93,4.8,22.27.63a26.12,26.12,0,0,0,8.2-8.57l.46-.12,26.39,0,.42,0,15.43.12.17.12c.67,4.55.5,9.42,3.6,12.95a7.43,7.43,0,0,0,6.52,1.56,7.94,7.94,0,0,0,6.05-5.26,7.86,7.86,0,0,0-1.93-7.61,16.66,16.66,0,0,0-5.38-3.15c-10.34-3.61-23-8-27-20A25.37,25.37,0,0,1,134,111.68c7-5.3,18.4-6.9,26.26-2.31l2.31,1.51c.38,0,.21-.51.26-.8l.12-2.23c5,0,10.55-.17,15.47,0l0,28.07-.09.17L160.9,136c-1-4.12-.71-9.32-5.16-11.51-2.48-.93-5.89-1-7.87,1a6.85,6.85,0,0,0-2.22,6.51c.38,3.41,3.7,5.55,6.69,6.43,6.46,2.43,13.14,4.2,18.77,8.66,8.41,6,11.65,16.05,9,26a1.36,1.36,0,0,0-.17.84l.42.3h5.93l11.93-13.7,10.21-11.81-1.6-2.1L188.68,125l-5.27,0V108.17h35.43v16.91c-2,.21-3.89-.17-5.79.17l.17.5c2.48,2.94,4.79,5.92,7.28,8.74l.67-.5c2.43-2.86,5.2-5.68,7.52-8.66-2.15-.3-4.33,0-6.47-.25l0-16.91h39l-.13,17-.13.13-8.15.08L232.3,149l0,.42,20.55,24.87h8v17.05H222.17l0-17.05h6.92"/></g></svg>