<svg id="Layer_1" data-name="Layer 1" xmlns="http://www.w3.org/2000/svg" viewBox="0 0 300 300"><defs><style>.cls-1{fill:#fff;}</style></defs><title>CTAS_Dark_bg</title><g id="layer1"><g id="g153"><path id="path67" class="cls-1" d="M256.62,183.48a6.2,6.2,0,1,1,6.21,6.53,6.3,6.3,0,0,1-6.21-6.53m6.21,5.44c2.76,0,4.94-2.3,4.94-5.44a5,5,0,1,0-9.92,0c0,3.14,2.18,5.44,5,5.44m-1.29-1.67h-1.07v-7.51h2.68c1.67,0,2.49.66,2.49,2.14a1.9,1.9,0,0,1-1.82,2.06l2,3.31h-1.2L262.77,184h-1.23Zm1.28-4.22c.9,0,1.7-.07,1.7-1.22,0-.93-.78-1.1-1.53-1.1h-1.45V183Z"/><path id="path69" class="cls-1" d="M73.36,150.16c-4.65-3.41-7.19-5.32-13.35-5.32-7.5,0-13.58,7.09-13.58,15.84S52.51,176.51,60,176.51c5.89,0,7.36-.61,13.61-5.11v15.72A29.09,29.09,0,0,1,60,190.5c-16,0-29-13.36-29-29.82s13-29.82,29-29.82a28.53,28.53,0,0,1,13.35,3.31Z"/><rect id="rect71" class="cls-1" x="78.21" y="131.71" width="14.54" height="57.65"/><path id="path73" class="cls-1" d="M85.48,128.69a8.79,8.79,0,1,0-8.23-8.77,8.51,8.51,0,0,0,8.23,8.77"/><path id="path75" class="cls-1" d="M245.69,154.13c-1.93-.84-7.31-2.54-8.2-2.93-7-3.07-4.47-8.79.74-8.79,3.85,0,6.83,1.7,9.45,3.57V132.27c-5.09-1.65-7.71-2.26-11.93-2.26-11.33,0-17.15,8.83-17.18,17.73,0,6.26,4.54,13.13,9.86,15.22,4.69,1.84,5.39,2.14,8.19,3.17,5.6,2.06,5.62,10.55-2,10.55-2.48,0-8.61-.78-12.25-9.16L200.8,109.29l-27.46,77.34V145.05h11.35V131.71H137.86v34.37L113,131.74v0H98.44v57.65H113v-35l25.29,35h14.14V145.05h6.38v44.31h29.05l3.36-11.23h16.24L203.57,166h-8.74l6-18.76,8,23.81c5.09,14.58,14.7,19.62,25.46,19.62S256,184,256,170.17c0-9.87-5.43-13.95-10.28-16"/></g></g></svg>