<svg id="Layer_1" data-name="Layer 1" xmlns="http://www.w3.org/2000/svg" xmlns:xlink="http://www.w3.org/1999/xlink" viewBox="0 0 300 300"><defs><linearGradient id="linear-gradient" x1="-294030.73976" y1="604670.35293" x2="-294341.37684" y2="602862.76792" gradientTransform="matrix(0.01945, 0, 0, -0.00748, 5852.8247, 4726.00293)" gradientUnits="userSpaceOnUse"><stop offset="0" stop-color="#00999e"/><stop offset="0.1" stop-color="#00999e"/><stop offset="0.75" stop-color="#003946"/><stop offset="1" stop-color="#003946"/></linearGradient><linearGradient id="linear-gradient-2" x1="5657.07673" y1="9982.17834" x2="5652.66658" y2="9974.28167" gradientTransform="matrix(20.96214, 0, 0, -27.23815, -118336.32596, 271969.28087)" xlink:href="#linear-gradient"/><linearGradient id="linear-gradient-3" x1="304542.39206" y1="-596529.99069" x2="304231.75498" y2="-598337.57571" gradientTransform="matrix(-0.01945, 0, 0, 0.00748, 6089.79832, 4559.58142)" xlink:href="#linear-gradient"/><linearGradient id="linear-gradient-4" x1="6212.49596" y1="9652.27" x2="6208.08581" y2="9644.37333" gradientTransform="matrix(-20.96159, 0, 0, 27.23516, 130275.71984, -262654.313)" xlink:href="#linear-gradient"/></defs><path d="M130.88673,209.92612l-.119-.0448Z" fill="url(#linear-gradient)"/><path d="M136.78061,212.14223a109.46707,109.46707,0,0,0,126.17383-38.59977A109.44141,109.44141,0,0,0,199.33441,52.17L180.7559,94.90035a62.69052,62.69052,0,0,1-43.97532,117.218Z" fill="url(#linear-gradient-2)"/><path d="M262.95446,173.54246a109.4511,109.4511,0,0,1-128.03173,37.8979c-1.37277-.48683-2.78675-.9647-4.15957-1.55307l-27.68474,63.66394,34.19181-13.46691q5.20721.896,10.47676,1.28725,5.26959.38976,10.55218.27179,5.28262-.121,10.529-.74965,5.24634-.63169,10.40739-1.76214,5.161-1.13344,10.1885-2.75969t9.87441-3.73334q4.847-2.10113,9.468-4.66519,4.62109-2.56256,8.97316-5.5582,4.35208-2.99712,8.39447-6.40044,4.04239-3.4048,7.7373-7.18,3.69489-3.77666,7.00779-7.89378T247.092,212.408q2.89993-4.41729,5.35977-9.09442t4.45664-9.5693q1.99678-4.89217,3.51186-9.95459T262.95446,173.54246Z" fill="#00999e"/><path d="M169.11914,90.07388l.119.0448Z" fill="url(#linear-gradient-3)"/><path d="M163.21612,87.86374A109.463,109.463,0,0,0,37.04225,126.46053a109.44762,109.44762,0,0,0,63.62007,121.35453l18.57851-42.73034a62.68944,62.68944,0,0,1,43.97529-117.221Z" fill="url(#linear-gradient-4)"/><path d="M37.04684,126.45754A109.47449,109.47449,0,0,1,165.07855,88.55665c1.37277.48982,2.78675.96769,4.15957,1.55606l27.68476-63.66394L162.73107,39.91568A109.19318,109.19318,0,0,0,37.04684,126.45754Z" fill="#00999e"/></svg>