<svg id="Layer_1" data-name="Layer 1" xmlns="http://www.w3.org/2000/svg" viewBox="0 0 300 300"><rect x="185.8" y="138.7" width="3.7" height="22.1" fill="#fff"/><path d="M172.3,138.2a9.851,9.851,0,0,0-6.4,2.3v-1.8h-3.7v22.1h3.7V148.3a6.38028,6.38028,0,0,1,6.4-6.4,6.44485,6.44485,0,0,1,6.4,6.4v12.5h3.7V148.3a10.07206,10.07206,0,0,0-10.1-10.1Z" fill="#fff"/><path d="M154.7967,138.60259l.1,2.5a11.53364,11.53364,0,1,0,0,16.9v1.8a8.18951,8.18951,0,0,1-7.9,7.9,7.482,7.482,0,0,1-7-4.3h-4a11.2822,11.2822,0,0,0,11,8,11.69942,11.69942,0,0,0,11.5-11.5v-21.3Zm-7.8,18.9a7.85013,7.85013,0,1,1,7.8-7.8A7.81,7.81,0,0,1,146.99672,157.50255Z" fill="#fff"/><path d="M97.8,141.8a7.98034,7.98034,0,0,1,7.1,4.5h3.9a11.54667,11.54667,0,1,0,0,6.7h-3.9a7.82981,7.82981,0,1,1-7.1-11.2Z" fill="#fff"/><path d="M122.09669,138.20257a11.50022,11.50022,0,1,0,11.6,11.5A11.41643,11.41643,0,0,0,122.09669,138.20257Zm0,19.3a7.85013,7.85013,0,1,1,7.9-7.8A7.89615,7.89615,0,0,1,122.09669,157.50255Z" fill="#fff"/><path d="M250.5,138.2a9.851,9.851,0,0,0-6.4,2.3v-1.8h-3.7v22.1h3.7V148.3a6.45019,6.45019,0,1,1,12.9-.1v12.5h3.7V148.3a10.22212,10.22212,0,0,0-10.2-10.1Z" fill="#fff"/><path d="M232.99672,138.70257v2.6a11.73392,11.73392,0,0,0-7.9-3.1,11.30571,11.30571,0,0,0-7.8,3.1,11.53364,11.53364,0,1,0,15.7,16.9v2.6h3.7v-22.1Zm-7.9,18.9a7.85016,7.85016,0,1,1,7.9-7.9A7.98178,7.98178,0,0,1,225.09669,157.60259Z" fill="#fff"/><path d="M272.9,142.3v-3.7h-5.5v-6h-3.7v20.8a7.3833,7.3833,0,0,0,7.4,7.4h1.8v-3.7h-1.8a3.75709,3.75709,0,0,1-3.7-3.7V142.3h5.5Z" fill="#fff"/><path d="M187.6,130.7a2.4,2.4,0,1,0,2.4,2.4,2.30943,2.30943,0,0,0-2.4-2.4Z" fill="#fff"/><polygon points="211.6 138.7 193.2 138.7 193.2 142.4 206.8 142.4 193.2 157.1 193.2 160.8 211.6 160.8 211.6 157.1 197.9 157.1 211.5 142.4 211.6 138.7 211.6 138.7" fill="#fff"/><polygon points="27.1 150 42.4 172 58.2 162.5 49.3 150 27.1 150" fill="#fff"/><polygon points="42.4 172 64.2 172 79.2 150 42.4 172" fill="#fff"/><polygon points="42.4 128 27.1 150 49.3 150 58.2 137.5 42.4 128" fill="#fff"/><polygon points="42.4 128 79.2 150 64.2 128 42.4 128" fill="#fff"/></svg>