<svg id="Layer_1" data-name="Layer 1" xmlns="http://www.w3.org/2000/svg" viewBox="0 0 300 300"><defs><style>.cls-1{fill:#fff;}</style></defs><path class="cls-1" d="M48.07,144.37,144.25,48.2a102,102,0,0,0-96.18,96.17"/><path class="cls-1" d="M251.93,150.05c0-.45,0-.86,0-1.31H169.75l-18.62-18.62H250a101.83,101.83,0,0,0-9-26H153.17l18.59-18.62h57.12a102.21,102.21,0,0,0-58.53-35.41L50,170.48a102.09,102.09,0,0,0,93,81.32L74.18,183.07,88.27,169l81.16,81.2a101.27,101.27,0,0,0,27.32-9.5l-90.09-90.09,14.06-14.06,93.05,93.06a103.22,103.22,0,0,0,18.08-18.75l-36.09-36.09H248.9a101.4,101.4,0,0,0,3-24.7"/></svg>