<svg id="Layer_1" data-name="Layer 1" xmlns="http://www.w3.org/2000/svg" viewBox="0 0 300 300"><defs><style>.cls-1{fill:#fff;fill-rule:evenodd;}</style></defs><title>CVS_Dark_bg</title><path class="cls-1" d="M89.85,75.31a23.1,23.1,0,0,1,32.29.24Q135.6,89,149.05,102.45l25.78-25.79a25,25,0,0,1,6.55-5.12A23.1,23.1,0,0,1,207.86,75q16.8,16.77,33.57,33.56a23.23,23.23,0,0,1,4.16,26.14c-2,4.31-5.67,7.4-8.92,10.72L149,233.05l-92-92a23.69,23.69,0,0,1-6.88-14.5v-3.94a23.29,23.29,0,0,1,6.9-14.59Q73.48,91.7,89.85,75.31Z"/></svg>