<svg id="Layer_1" data-name="Layer 1" xmlns="http://www.w3.org/2000/svg" xmlns:xlink="http://www.w3.org/1999/xlink" viewBox="0 0 300 300"><defs><style>.cls-1{fill:url(#linear-gradient);}.cls-2{fill:url(#linear-gradient-2);}</style><linearGradient id="linear-gradient" x1="71.95" y1="206.42" x2="228.08" y2="103.7" gradientUnits="userSpaceOnUse"><stop offset="0" stop-color="#976c2a"/><stop offset="0.26" stop-color="#edb01f"/><stop offset="0.46" stop-color="#713d18"/><stop offset="0.7" stop-color="#fdc712"/><stop offset="1" stop-color="#643316"/></linearGradient><linearGradient id="linear-gradient-2" x1="68.8" y1="201.63" x2="224.92" y2="98.9" xlink:href="#linear-gradient"/></defs><title>Artboard 1</title><path class="cls-1" d="M264.69,157.4c-.28-2.52-.56-5-1-7.53-.57-3.16-1.14-6.34-2-9.43-1.18-4.21-2.61-8.35-4-12.5-1-2.91-1.88-5.85-3.06-8.68a67.65,67.65,0,0,0-9.31-15.36c-5.35-6.9-11.16-13.4-17-19.84a78.18,78.18,0,0,0-9.61-9.39q-10.5-8.16-21.16-16.11a49.33,49.33,0,0,0-13.32-7.42c-3.68-1.27-7.46-2.31-11.24-3.27-5.15-1.31-10.34-2.45-15.52-3.65a65.9,65.9,0,0,0-10.73-1.54,59.94,59.94,0,0,0-9.75.18,78.5,78.5,0,0,0-17,3.55,89.13,89.13,0,0,0-33.2,19.77c-4.86,4.5-9.54,9.18-14.27,13.82a64,64,0,0,0-7.46,8.88,76.94,76.94,0,0,0-8.54,16.42c-2.8,7.13-5.49,14.31-8.32,21.43-1.88,4.74-3.86,9.43-5.89,14.11-1.3,3-2.87,5.92-4.12,9-2.37,5.79-3.8,11.76-2.94,18.1a42.56,42.56,0,0,0,1.16,6.83q2.66,8.6,5.38,17.18a38.08,38.08,0,0,0,9.43,15.52,56.33,56.33,0,0,0,8.48,6.92,73.43,73.43,0,0,1,10.68,8.84,97.5,97.5,0,0,0,12.67,10.53,110.41,110.41,0,0,0,18.75,10.41,153.83,153.83,0,0,0,38.87,12,88.93,88.93,0,0,0,15.87,1.33c1.31,0,2.61,0,3.91,0a124.79,124.79,0,0,0,16.92-1.9,107.13,107.13,0,0,0,15.68-3.86c3.67-1.24,7.32-2.51,11-3.76a91.49,91.49,0,0,0,19.59-9.21,79.73,79.73,0,0,0,14.94-11.82,96.14,96.14,0,0,0,16.59-23.23,68.58,68.58,0,0,0,6.63-18.75c.57-3.17,1.09-6.35,1.81-9.48A54,54,0,0,0,264.69,157.4ZM91,214c-3.56-1.59-6.94-3.58-10.41-5.36-4.41-2.27-8.5-5.1-13-7.22a14.12,14.12,0,0,1-4.22-3.2,22.19,22.19,0,0,1-4-6.38,56.49,56.49,0,0,1-4-12.82,78.33,78.33,0,0,1-.95-21.29,72.3,72.3,0,0,1,6-22.33A106.91,106.91,0,0,1,86.6,99c2.92-2.69,6-5.26,9.08-7.75a39.82,39.82,0,0,1,15.47-7.33,93.2,93.2,0,0,1,13.48-2.16,147.14,147.14,0,0,1,18.54-.59,62.77,62.77,0,0,1,11.76,1.17,64,64,0,0,1,9.79,3.19q13.2,5.24,26.38,10.54c4.13,1.66,8.27,3.28,12.31,5.14a52.63,52.63,0,0,1,18.23,13.57q3.11,3.61,6,7.43A23.28,23.28,0,0,1,232,133.87a57,57,0,0,1-.34,12.45,69.64,69.64,0,0,1-4.75,19.2,76.06,76.06,0,0,1-11.29,18.95,102.27,102.27,0,0,1-18.57,17.85A84.6,84.6,0,0,1,178,212.75c-5.07,2.06-10.33,3.54-15.51,5.27A51.43,51.43,0,0,1,152,220.61q-4.53.49-9.08.78c-3.43.2-6.87.29-9.09.38-4.26,0-7.3.06-10.33,0a71.76,71.76,0,0,1-15.22-2.2A101.36,101.36,0,0,1,91,214ZM249.9,170a78.57,78.57,0,0,1-4.46,20.72,72.93,72.93,0,0,1-8.49,17,59.12,59.12,0,0,1-15.52,15.46,101.11,101.11,0,0,1-31.93,14.55c-4.82,1.28-9.68,2.4-14.6,3.27A101.17,101.17,0,0,1,151,242.61c-3-.17-6-.6-9-1-3.91-.52-7.81-1.13-11.71-1.71-4.79-.71-9.59-1.38-14.37-2.2-2.09-.36-4.13-1.06-6.19-1.61-.07,0-.16,0-.2-.08s-.21-.33-.32-.5c.17-.1.34-.29.5-.29.72,0,1.45.08,2.17.15,4.86.45,9.72,1,14.59,1.33,3.24.22,6.51.21,9.76.21A111.49,111.49,0,0,0,151,235.85a116.19,116.19,0,0,0,28.15-7.4,122.94,122.94,0,0,0,30.57-17.79,95.6,95.6,0,0,0,28.57-36.85,77.59,77.59,0,0,0,6-20.79,58.49,58.49,0,0,0,.09-17,46.15,46.15,0,0,0-2.36-8.9q-3.13-8.55-6.26-17.11a16.12,16.12,0,0,0-4.64-6.72,98.51,98.51,0,0,0-16.67-12.08,61.59,61.59,0,0,0-12.06-4.82c-10-3-20.1-6-30.14-9a122.08,122.08,0,0,0-12.07-3.11A89.85,89.85,0,0,0,138,72.72a101.19,101.19,0,0,0-18.62,3c-4.39,1.09-8.72,2.35-13,3.83A44.93,44.93,0,0,0,95.46,85.2a111.28,111.28,0,0,0-11.35,9.43,112,112,0,0,0-14.94,16.29,108,108,0,0,0-7.88,12.6c-2.22,4.14-4.52,8.26-6.45,12.53a66.88,66.88,0,0,0-5.65,19.63A79.84,79.84,0,0,0,49,168.15c.18,4.22.11,8.46.14,12.69a2.88,2.88,0,0,1-.15.48c-.29-.34-.49-.55-.65-.78a31,31,0,0,1-5.19-26,88.18,88.18,0,0,1,3.79-11.3q4.53-12,9-24A137.11,137.11,0,0,1,67.31,95,87.39,87.39,0,0,1,79.89,79a160.28,160.28,0,0,1,13-11.94,82.5,82.5,0,0,1,24.21-13.78,60.57,60.57,0,0,1,21.09-3.5A66.38,66.38,0,0,1,149.66,51c4.06.76,8.11,1.51,12.14,2.36a75.14,75.14,0,0,1,19.76,7q13,6.9,25.42,14.77A69.94,69.94,0,0,1,223.2,89.63c3.74,4.46,7.31,9.07,10.9,13.66,1.89,2.42,3.8,4.84,5.49,7.41A44.42,44.42,0,0,1,245.92,127c.65,3.42.7,6.9,1.13,10.35s.92,6.66,1.46,10A99.13,99.13,0,0,1,249.9,170Z"/><path class="cls-2" d="M126.2,184.62a21.58,21.58,0,0,0,1,6.19,11.42,11.42,0,0,1,0,7.35c-.27.9-.51,1.81-.72,2.72-.16.68.1,1,.77,1.16a2,2,0,0,0,.65,0c1.47-.17,3-.31,4.41-.54a34.88,34.88,0,0,0,11.1-3.93,50.82,50.82,0,0,1,7.65-3.32,58.24,58.24,0,0,1,14.52-3,33.88,33.88,0,0,1,6.83-.13,13.63,13.63,0,0,0,2.71,0,1.84,1.84,0,0,0,1.75-2.42,13,13,0,0,0-2.63-5.41c-1-1.27-2-2.5-2.9-3.79a9.18,9.18,0,0,1-1.76-7.48,4.84,4.84,0,0,1,2.55-3.67,5.63,5.63,0,0,0,1-.62,12.68,12.68,0,0,0,1-1c-.19-.17-.25-.25-.34-.31-.68-.5-.7-.95,0-1.41a2.67,2.67,0,0,1,.68-.33c1.34-.42,2.7-.8,4-1.25a4.51,4.51,0,0,0,3.32-4.12c0-.54.05-1.08.08-1.59,2.37-1.5,2.37-1.5,2.51-2.48-1.3,1-2.72.82-4.2.76.2.77-.23,1-.76.9a11.9,11.9,0,0,1-2.93-.67,6.21,6.21,0,0,1-4.05-5.67,4.61,4.61,0,0,0-1.31-3.13,19.89,19.89,0,0,0-2-1.62l-.68-.53c.32-.06.45-.1.58-.11a6.75,6.75,0,0,1,5.36,1.87c.21.19.38.55.78.35a1.61,1.61,0,0,0,0-.26,1.11,1.11,0,0,0-.14-.29,5.11,5.11,0,0,0-3.52-2.5,28.59,28.59,0,0,0-4.51-.61,5.59,5.59,0,0,1-4.11-1.9c-1-1.11-1.83-2.33-2.73-3.5-.05-.07,0-.2,0-.38,1.95-.69,3.91-.26,6,0a2.67,2.67,0,0,0-2.05-1,22,22,0,0,0-3.24-.23,10,10,0,0,1-5.75-1.63,9.89,9.89,0,0,0-6.47-1.77,4,4,0,0,1-.91-.19,11.76,11.76,0,0,1,1-.89,6.79,6.79,0,0,1,3.12-1.17c1-.11,2-.14,3-.2.37,0,.81.05.95-.49a1.59,1.59,0,0,0-1.43-.35c-.4,0-.79.13-1.18.19a10.41,10.41,0,0,1-9.43-3.31c-.26-.26-.64-.5-.49-1.1h1.6c.69,0,1.38,0,2.06,0,.37,0,.81,0,.78-.54s-.45-.35-.76-.36c-.94,0-1.89,0-2.82-.06a15.32,15.32,0,0,1-6-1.6,5.26,5.26,0,0,1-2.68-3,9.15,9.15,0,0,0-1.58-3.07c0-.06,0-.2,0-.4.45,0,.88,0,1.29.11a9.43,9.43,0,0,1,4.56,2.16c.22.19.39.5.86.41a2.9,2.9,0,0,0-1.19-1.58,25.23,25.23,0,0,0-2.84-1.56c-1.08-.5-2.24-.83-3.31-1.35a5.79,5.79,0,0,1-3.14-3.28,2.18,2.18,0,0,1,0-1.93c.66-.15.86.9,1.67.46-.27-.48-.53-.93-.78-1.4a5.83,5.83,0,0,1-.74-4.48c.14-.49.21-1.08,1-1.29,1,1.41,2.55,2.16,3.93,3.14a5.12,5.12,0,0,1,1.79,2c.07.14.22.23.45.46.19-.49.31-.86.47-1.21a5.87,5.87,0,0,1,.65-1.11c.35-.43.61-.41,1,0a5.59,5.59,0,0,1,.5.7,9.66,9.66,0,0,0,2.63,2.7,21.59,21.59,0,0,1,2.73,2.32,7.14,7.14,0,0,1,2.47,5.24.9.9,0,0,0,.54.86,17.06,17.06,0,0,1,1.56,1,1.93,1.93,0,0,1,.91,1.91,7.48,7.48,0,0,0,2,5.68,2.37,2.37,0,0,0,.47.26l.16-.16c-.18-.29-.36-.59-.53-.89a5.93,5.93,0,0,1-.53-5.11,12.77,12.77,0,0,0,.34-1.25c.22-1,.54-1.06,1.33-.46a9.38,9.38,0,0,1,3.33,4.59,22.57,22.57,0,0,1,.56,3.08,8.38,8.38,0,0,0,1.82,4.23,4.62,4.62,0,0,0,.71.54l-.18-1.13a5.06,5.06,0,0,1,1.14-4.16c.31-.37.63-.79,1.2-.71.06.1.12.16.13.23a.85.85,0,0,1,0,.32,4.48,4.48,0,0,0,2.11,4.35c.74.52,1.48,1,2.21,1.57a8.94,8.94,0,0,1,3.34,4.31c.34,1,.53,2,.8,3,.07.26.18.49.28.76.69-.23.57-.73.61-1.13a8.72,8.72,0,0,1,1-3.64,3,3,0,0,1,1.57-1.54c.11.39.18.73.29,1.06a6.28,6.28,0,0,0,.6,1.49,11,11,0,0,1,1.73,10.08,5,5,0,0,0-.07.82c.79-.19.84-.17,1.07-.6a22.55,22.55,0,0,0,.95-2.06c.16-.39.2-.84.74-1a3.89,3.89,0,0,1,1.05,3.78c-.2,1.07-.48,2.12-.7,3.18a4.73,4.73,0,0,0,.33,3.07A2.21,2.21,0,0,0,183,155a2.34,2.34,0,0,0,2.1-1.64,5,5,0,0,0,.26-1.27,5.72,5.72,0,0,1,1-3.73l-2.12.19a15.05,15.05,0,0,0,.82-6.91l-.94.12c.57-.8,1.15-1.49,1.6-2.27a11.34,11.34,0,0,0,1.25-6.19,6.81,6.81,0,0,0-1.68-4.89,7.82,7.82,0,0,1-2-4.79,8.24,8.24,0,0,0-1.72-4.28,29.58,29.58,0,0,0-2.74-3.07,47.08,47.08,0,0,0-8.87-6.4c-.37-.22-.73-.47-1.1-.69a39.52,39.52,0,0,0-3.55-2.07,46,46,0,0,0-9-2.88,23.59,23.59,0,0,0-11.8-.23c-.6.17-1.19.33-1.79.45a9.31,9.31,0,0,1-4.51.19c-.52-.15-1-.34-1.53-.54s-.73-.24-1,.13c-.45.67-1,.45-1.5.17a7.55,7.55,0,0,1-2.78-2.69c-.17-.25-.36-.5-.51-.73a2.08,2.08,0,0,0-.32.1,2.24,2.24,0,0,0-.34.27,5.89,5.89,0,0,0-1.93,4c-.05,1-.07,1-1.07,1a1.13,1.13,0,0,0-1,.59,3,3,0,0,0,.3,3.89c.18.2.34.43.61.77-.41.13-.68.31-.91.26a6,6,0,0,1-1.42-.49c-1-.48-1.1-1.5-1.38-2.54a.88.88,0,0,0-.38.44l-1.9,3.65a3.57,3.57,0,0,1-.29.69.85.85,0,0,1-.61.34.74.74,0,0,1-.55-.42,2.86,2.86,0,0,1-.09-1.06,12.57,12.57,0,0,1,.25-1.31c-2,1-3.32,2.32-3.16,4.53a3.48,3.48,0,0,1-.78,2.6,5.14,5.14,0,0,0-.35.55,16.42,16.42,0,0,0-2.82,7.2,7.85,7.85,0,0,1-1.6,4,12.58,12.58,0,0,0-1,1.46,4.48,4.48,0,0,0-.75,2.55,8.76,8.76,0,0,1-2.55,6.81,11.2,11.2,0,0,0-2.38,4c-.4,1.12-.77,2.26-1.21,3.37a7.24,7.24,0,0,1-2,3A6.7,6.7,0,0,0,99.56,154c-.53,1.34-.09,2.11,1.34,2.27,1,.12,2.09,0,3.14.09a9.5,9.5,0,0,1,1.93.2c1.38.34,1.65.92,1.16,2.22-.58,1.53-.58,1.53.66,2.67s1.32,1.21.29,2.73l-.12.18a1.55,1.55,0,0,0,.14,2,2.07,2.07,0,0,1,.49,2.35,9.3,9.3,0,0,0-.3,5,2.53,2.53,0,0,0,1,1.52,6.07,6.07,0,0,0,3.08,1.21,42.61,42.61,0,0,1,8.26,1.18C124.27,178.65,126,180.82,126.2,184.62Z"/></svg>