<?xml version="1.0" encoding="UTF-8" standalone="no"?>
<!-- Generator: Adobe Illustrator 24.0.1, SVG Export Plug-In . SVG Version: 6.00 Build 0)  -->

<svg
   version="1.1"
   id="Layer_1"
   x="0px"
   y="0px"
   viewBox="0 0 300 300"
   style="enable-background:new 0 0 300 300;"
   xml:space="preserve"
   sodipodi:docname="DAL_Dark_bg.svg"
   inkscape:version="1.1.1 (c3084ef, 2021-09-22)"
   xmlns:inkscape="http://www.inkscape.org/namespaces/inkscape"
   xmlns:sodipodi="http://sodipodi.sourceforge.net/DTD/sodipodi-0.dtd"
   xmlns="http://www.w3.org/2000/svg"
   xmlns:svg="http://www.w3.org/2000/svg"
   xmlns:rdf="http://www.w3.org/1999/02/22-rdf-syntax-ns#"
   xmlns:cc="http://creativecommons.org/ns#"
   xmlns:dc="http://purl.org/dc/elements/1.1/"><defs
   id="defs24" /><sodipodi:namedview
   id="namedview22"
   pagecolor="#ffffff"
   bordercolor="#666666"
   borderopacity="1.0"
   inkscape:pageshadow="2"
   inkscape:pageopacity="0.0"
   inkscape:pagecheckerboard="true"
   showgrid="false"
   inkscape:zoom="1.7339202"
   inkscape:cx="76.416435"
   inkscape:cy="156.00487"
   inkscape:window-width="1312"
   inkscape:window-height="969"
   inkscape:window-x="0"
   inkscape:window-y="25"
   inkscape:window-maximized="0"
   inkscape:current-layer="Layer_1" />
<style
   type="text/css"
   id="style9">
	.st0{fill:#FFFFFF;}
</style>
<title
   id="title11">DAL_Dark_bg</title>
<path
   class="st0"
   d="m 242.07419,206.70945 -91.3,-43.9 v -96.5 z m 7.3,16.8 -98.5,-41.6 v 41.6 z"
   id="path13" />
<polyline
   class="st0"
   points="51.5,211.9 142.7,71.3 142.7,168 51.5,211.9 "
   id="polyline15"
   transform="translate(8.0741894,-5.1905503)" />
<polyline
   class="st0"
   points="44.3,228.7 142.7,228.7 142.7,187.1 44.3,228.7 "
   id="polyline17"
   transform="translate(8.0741894,-5.1905503)" />
<path
   class="st0"
   d="m 257.27419,194.70945 c 3.6,0 6.5,2.8 6.5,6.4 0,3.6 -2.8,6.5 -6.4,6.5 -3.6,0 -6.5,-2.8 -6.5,-6.4 v 0 c -0.1,-3.6 2.8,-6.5 6.4,-6.5 z m 0,11.8 c 3.1,0 5.5,-2.4 5.6,-5.5 0,-3.1 -2.4,-5.5 -5.5,-5.6 -3.1,0 -5.5,2.4 -5.6,5.5 v 0 0 c 0,3.1 2.4,5.5 5.5,5.6 -0.1,0 -0.1,0 0,0 z m -1.4,-1.7 h -1 v -7.5 h 2.8 c 1.7,0 2.4,0.7 2.4,2.1 0,1.1 -0.8,2 -1.9,2.1 l 2.2,3.3 h -1 l -2.2,-3.3 h -1.3 z m 0,-4.2 h 1.2 c 1,0 2.1,0 2.1,-1.3 0,-1.3 -0.9,-1.2 -1.6,-1.2 h -1.6 v 2.7 z"
   id="path19" />
<metadata
   id="metadata108"><rdf:RDF><cc:Work
       rdf:about=""><dc:title>DAL_Dark_bg</dc:title></cc:Work></rdf:RDF></metadata></svg>
