<svg id="Layer_1" data-name="Layer 1" xmlns="http://www.w3.org/2000/svg" viewBox="0 0 300 300"><defs><style>.cls-1{fill:#fff;}</style></defs><g id="layer1"><g id="g9175"><path id="path8097" class="cls-1" d="M77.87,123.51c-2.81,0-6.87.9-14.2,3.34v46.28c6.45,2.1,11.39,3.33,14.2,3.33,6.48,0,10.13-4.26,10.13-11.11V134.62c0-6.84-3.65-11.11-10.13-11.11M80,164.16c0,2.68-1.49,3.57-3.28,3.57a22.09,22.09,0,0,1-5.29-1.06V133.28a23.54,23.54,0,0,1,5.29-1c1.79,0,3.28.89,3.28,3.57Z"/><path id="path8101" class="cls-1" d="M170.5,115.18c-8.2-.43-13.09,3.47-13.09,12.4v44.35c0,9.42,4.42,13.3,13.09,12.89,8.48-.39,12.91-3.86,12.91-13.88V128.6c0-9.55-4-12.95-12.91-13.42m4,55.95c0,2.68-.83,4.07-4,4.17s-4.1-1.39-4.1-4.17V128.87c0-2.78.88-4.32,4.1-4.22s4,1.54,4,4.22Z"/><path id="path8105" class="cls-1" d="M250.25,132.49v34.93c10.07-5.14,15.85-11.12,15.85-17.53s-5.78-12.29-15.85-17.4"/><path id="path8109" class="cls-1" d="M33.9,149.89c0,6.4,5.77,12.39,15.84,17.53V132.5c-10.07,5.1-15.84,11.05-15.84,17.39"/><path id="path8113" class="cls-1" d="M110.58,169.59c0,2.68-.85,4.37-4,4s-3.87-1.79-3.87-5V118.23c-2,.23-6.55.91-8.48,1.21v50.94c0,8.13,3.67,11.3,12.35,12.37,7.95,1,12.81-3.34,12.81-12.37V116.56c-1.65.1-7.09.59-8.85.79Z"/><path id="path8117" class="cls-1" d="M208,152.94l-9.82-34.47c-2.67-.38-5.9-.76-8.38-1v65.06c1.75-.18,6.21-.72,8.51-1l-.7-38.34L208,180c2.21-.37,5.44-1,7.56-1.41V121.4c-2.21-.47-6.23-1.2-8.17-1.52Z"/><path id="path8121" class="cls-1" d="M138.66,115.56c-1.54,0-7.15.2-12.31.53v67.8c1.75.1,6.36.36,8.85.43v-23h3.46c9.28,0,13.13-4.51,13.13-13.12v-20c0-8.43-4.33-12.64-13.13-12.64m4.19,31.9c0,2.92-.95,4.39-4.55,4.41h-3.1V125.12c1.38-.08,2.11-.1,3-.1,3.88,0,4.7,1.59,4.7,4.56Z"/><path id="path8125" class="cls-1" d="M219.91,131.4c2.19.42,4.35.89,6.45,1.39v43.26c1.94-.49,5.53-1.5,7.93-2.27V134.83c2.3.64,4.47,1.28,6.45,1.89v-8.34a156.7,156.7,0,0,0-20.83-6Z"/></g></g></svg>