<?xml version="1.0" encoding="utf-8"?>
<!-- Generator: Adobe Illustrator 24.0.1, SVG Export Plug-In . SVG Version: 6.00 Build 0)  -->
<svg version="1.1" id="Layer_1" xmlns="http://www.w3.org/2000/svg" xmlns:xlink="http://www.w3.org/1999/xlink" x="0px" y="0px"
	 viewBox="0 0 300 300" style="enable-background:new 0 0 300 300;" xml:space="preserve">
<style type="text/css">
	.st0{fill:#247218;}
	.st1{fill:#FCDF17;}
	.st2{fill:url(#SVGID_1_);}
</style>
<title>DE_Light_bg</title>
<g>
	<path class="st0" d="M150.1,37.1c37.1,0,73.7,8.3,107.1,24.4c23.6,56.6,23.6,120.3,0,176.9c-67.8,32.6-146.8,32.6-214.6,0
		c-23.6-56.6-23.6-120.3,0-176.9c33.4-16.1,70.1-24.5,107.2-24.4"/>
	<path class="st1" d="M50.4,231.4c-20.8-52.3-20.8-110.5,0-162.8c63.2-29.2,136.1-29.2,199.4,0c20.8,52.3,20.8,110.5,0,162.8
		c-63.3,29.3-136.2,29.3-199.5,0"/>
	
		<radialGradient id="SVGID_1_" cx="-2855.6953" cy="453.9927" r="86.5003" gradientTransform="matrix(-5.000000e-02 -1.32 -1.36 5.000000e-02 658.32 -3726.27)" gradientUnits="userSpaceOnUse">
		<stop  offset="7.000000e-02" style="stop-color:#2C702A"/>
		<stop  offset="0.93" style="stop-color:#2C702A"/>
	</radialGradient>
	<path class="st2" d="M244.2,226.1c-4.3-6.8-9.2-13.1-14.8-18.8l-1.7-0.6c-11.9-3.3-23.6-7.4-35-12.3c-5.9-3.7-11.1-8.4-15.5-13.8
		c-7.3-0.6-14.7-0.5-22,0.3l-4.3,0.5c-8.2,1.5-16.5,1.8-24.7,0.8c-5.6-1-11.1-2.5-16.4-4.4c-8.9-3.4-18.2-5.4-27.7-5.8h-0.4v0.4
		c2.3,4.4,11.4,18.1,22.8,21.8c1.8,0.3,3.5,1,5.1,1.9l5.6,11.3c-17.9-8.5-33.7-20.7-46.4-35.9l0,0c0-0.3-0.5-4.4-0.6-5.4
		c12-3.3,24.4-5.5,36.8-6.5l0,0v-0.2c1.1-11.6,4.4-23,9.7-33.4c0.1-0.3,0.1-0.6,0-0.9c0-0.2,0-0.4,0-0.5c-0.2-0.4-0.6-0.6-1.1-0.7
		L98,121c0-0.3-1.6-4.8-1.7-5.3c11.2-4.1,22.6-7.5,34.2-10.2c1.1-1.4,1.7-3.1,1.8-4.8c0-1.3-0.7-2.4-1.8-3c-5.8-4-24.2-1.6-42.7,5.5
		l0,0c5-3.7,10.3-6.9,15.9-9.7l0,0l0,0c-1.4-4.8-10.4-8.3-11.5-8.7c0,0,0-0.2,0-0.4c6.5-0.9,13,1.7,17.2,6.8l0,0l0,0
		c3.2-1,6.4-1.8,9.7-2.2h0.3v-0.2c-1.8-6.2-6-11.4-11.6-14.5c0-0.1,0-0.2,0-0.3c8.6,1,15.9,6.8,19,14.8l0,0l0,0
		c2.4,0.1,4.9,0.3,7.3,0.7l0,0l0,0c0.7-1.7,1.1-3.5,1.1-5.4c-0.3-6.1-3-11.8-7.3-16.1c0-0.1,0-0.2,0-0.3c9,2.8,15,11.3,14.5,20.7
		c-0.2,4.8-1,9.5-2.4,14l-0.4,1.4l18.4-2.2c-3.3,3.9-7.3,7.2-11.8,9.7l-7.8-1l0,0v0.2c-2.7,8.6-4.3,17.5-4.8,26.5
		c-0.2,3.3,1,6.6,3.3,9c4.3,3.1,9.6,4.5,14.8,3.8c14.9-1.1,30,0.1,44.5,3.5h0.6l0,0c0.9-1.6,1.3-3.4,1.2-5.3
		c-0.4-7.2-3.3-14-8.1-19.3l0,0c1,0.5,17.8,10.1,20.1,24.5l-8.1,3.3l0,0c5.8,6.7,9.8,14.9,11.5,23.6c0.8,4.3,2.9,8.3,5.9,11.5
		c5.4,3.5,11.1,6.6,17,9.2c2.7,3.9,7.3,11.1,10.7,16.7l0,0c15.8-46.9,14.7-97.8-3-144c-59.8-26.7-128.1-26.7-187.9,0
		c-18.9,49-18.9,103.3,0,152.3c59.8,26.7,128.2,26.7,188,0L244.2,226.1z"/>
</g>
</svg>
