<?xml version="1.0" encoding="utf-8"?>
<!-- Generator: Adobe Illustrator 24.0.1, SVG Export Plug-In . SVG Version: 6.00 Build 0)  -->
<svg version="1.1" id="Layer_1" xmlns="http://www.w3.org/2000/svg" xmlns:xlink="http://www.w3.org/1999/xlink" x="0px" y="0px"
	 viewBox="0 0 300 300" style="enable-background:new 0 0 300 300;" xml:space="preserve">
<style type="text/css">
	.st0{fill:#FEF100;}
	.st1{fill:#1C1A00;}
</style>
<title>DG_Dark_bg</title>
<g>
	<path class="st0" d="M83.6,239.1c-1.2,0-2.3,0-3.5,0c-0.2,0-0.4-0.1-0.6-0.1c-8.4-1.2-14.2-5.8-17.3-13.7c-0.7-1.7-0.9-3.5-1.2-5.3
		c0-46.7,0-93.5,0-140.2c0-0.1,0.1-0.1,0.1-0.2c0.2-2.3,0.8-4.4,1.8-6.5c2.6-5.3,6.7-9,12.3-11c1.6-0.6,3.2-0.8,4.9-1
		c1.2,0,2.3,0,3.5,0c0,0.1,0.2,0.1,0.3,0.1c1.8,0.1,3.7,0.3,5.5,0.4c6.7,0.4,13.3,0.8,20,1.3c7.2,0.5,14.5,0.8,21.7,1.2
		c6.4,0.3,12.8,0.6,19.2,0.6c6.6,0.1,13.1-0.2,19.7-0.6c6.4-0.3,12.8-0.7,19.2-1.1c8-0.5,16-1.1,24.1-1.6c1.3-0.1,2.7-0.1,4-0.4
		c0.8,0,1.7,0,2.5,0c0.7,0.1,1.4,0.2,2.1,0.3c7.5,1.5,12.7,5.9,15.7,12.9c0.8,1.9,1.1,3.9,1.4,6c0,46.6,0,93.1,0,139.7
		c0,0.2-0.1,0.4-0.1,0.6c-1.2,8.4-5.8,14.2-13.7,17.3c-1.7,0.7-3.5,0.9-5.2,1.2c-0.9,0-1.8,0-2.7,0c-2.1-0.3-4.2-0.4-6.3-0.5
		c-4.9-0.4-9.9-0.7-14.8-1c-5.9-0.4-11.7-0.7-17.6-1.1c-5.5-0.3-11-0.6-16.5-0.8c-6.5-0.3-13-0.3-19.5-0.1s-13,0.5-19.4,0.9
		c-6.5,0.4-13.1,0.7-19.6,1.1c-6.5,0.4-13.1,0.9-19.6,1.3C83.8,238.9,83.6,238.9,83.6,239.1z M152.7,171.8c0.1,0.3,0.2,0.4,0.3,0.6
		c3.1,5.8,7.7,10.1,13.9,12.6c4.2,1.7,8.6,2.4,13.1,2.5c6.8,0.1,13.3-1.3,19.2-4.7c0.3-0.2,0.5-0.2,0.7,0.1c0.6,0.9,1.2,1.9,1.8,2.8
		c0.2,0.3,0.4,0.5,0.9,0.5c3.5,0,7,0,10.5,0c0.6,0,0.6-0.2,0.6-0.7c0-11.9,0-23.8,0-35.7c0-0.5-0.1-0.6-0.6-0.6
		c-8.7,0-17.4,0-26.1,0c-0.4,0-0.6,0.1-0.6,0.5c0,3.4,0,6.9,0,10.3c0,0.5,0.2,0.6,0.7,0.6c2.1,0,4.2,0,6.3,0c0.6,0,0.8,0.1,0.7,0.7
		c0,2.8,0,5.7,0,8.5c0,0.5-0.1,0.7-0.6,0.9c-3.1,1.2-6.3,1.7-9.6,1.4c-4-0.3-7.4-1.8-9.9-4.9c-1.8-2.2-2.9-4.8-3.5-7.6
		c-1-4-1.2-8.2-1.1-12.3c0.1-3.5,0.6-6.9,1.7-10.2c1-2.9,2.4-5.5,4.9-7.4c3.6-2.7,10.8-3,13.8,3.2c0.8,1.6,1.3,3.2,1.7,4.9
		c0.1,0.7,0.4,0.7,0.9,0.6c3.3-0.6,6.7-1.1,10.1-1.7c3.1-0.5,6.2-1.1,9.3-1.6c0.5-0.1,0.5-0.2,0.4-0.6c-0.2-0.6-0.3-1.1-0.4-1.7
		c-2.7-9.9-8.9-16.4-18.9-18.9c-7.2-1.8-14.4-1.6-21.5,0.2c-6.3,1.7-11.6,5-15.7,10.1c-1,1.3-1.9,2.7-2.7,4.1
		c-0.3-0.2-0.3-0.4-0.5-0.6c-1.6-2.6-3.7-4.9-6.1-6.7c-3.6-2.6-7.6-4.2-11.9-5.2c-5.5-1.3-11.1-1.7-16.7-1.8
		c-10.4-0.1-20.8,0-31.2,0c-0.4,0-0.5,0.1-0.5,0.5c0,4.3,0,8.6,0,12.9c0,0.4,0.1,0.5,0.5,0.5c2,0,4,0,5.9,0c0.6,0,0.8,0.1,0.8,0.8
		c0,12.3,0,24.7,0,37c0,6.5,0,13,0,19.5c0,0.4,0,0.7,0.6,0.7c9-0.1,18.1,0.1,27.1-0.1c4.8-0.1,9.6-0.7,14.3-2.1
		c4.7-1.3,9-3.4,12.7-6.7C149.9,175.7,151.4,173.9,152.7,171.8z"/>
	<path class="st1" d="M152.7,171.8c-1.3,2.1-2.9,3.9-4.6,5.5c-3.7,3.3-8,5.3-12.7,6.7c-4.7,1.3-9.4,2-14.3,2.1
		c-9,0.2-18.1,0-27.1,0.1c-0.6,0-0.6-0.3-0.6-0.7c0-6.5,0-13,0-19.5c0-12.3,0-24.7,0-37c0-0.7-0.2-0.8-0.8-0.8c-2,0-4,0-5.9,0
		c-0.4,0-0.5-0.1-0.5-0.5c0-4.3,0-8.6,0-12.9c0-0.4,0.2-0.5,0.5-0.5c10.4,0,20.8,0,31.2,0c5.6,0,11.2,0.5,16.7,1.8
		c4.3,1,8.3,2.6,11.9,5.2c2.5,1.8,4.5,4.1,6.1,6.7c0.1,0.2,0.2,0.4,0.5,0.6c0.8-1.4,1.7-2.8,2.7-4.1c4.1-5.2,9.4-8.5,15.7-10.1
		c7.1-1.9,14.3-2.1,21.5-0.2c10,2.6,16.2,9,18.9,18.9c0.2,0.6,0.3,1.1,0.4,1.7c0.1,0.4,0,0.6-0.4,0.6c-3.1,0.5-6.2,1-9.3,1.6
		c-3.4,0.6-6.7,1.1-10.1,1.7c-0.5,0.1-0.8,0.1-0.9-0.6c-0.3-1.7-0.9-3.3-1.7-4.9c-3-6.2-10.2-5.9-13.8-3.2c-2.5,1.9-3.9,4.5-4.9,7.4
		c-1.1,3.3-1.6,6.7-1.7,10.2c-0.1,4.1,0.1,8.3,1.1,12.3c0.7,2.8,1.7,5.4,3.5,7.6c2.5,3.2,6,4.6,9.9,4.9c3.3,0.3,6.5-0.2,9.6-1.4
		c0.5-0.2,0.6-0.4,0.6-0.9c0-2.8,0-5.7,0-8.5c0-0.6-0.2-0.7-0.7-0.7c-2.1,0-4.2,0-6.3,0c-0.5,0-0.7-0.1-0.7-0.6c0-3.4,0-6.9,0-10.3
		c0-0.5,0.1-0.5,0.6-0.5c8.7,0,17.4,0,26.1,0c0.5,0,0.6,0.2,0.6,0.6c0,11.9,0,23.8,0,35.7c0,0.5-0.1,0.7-0.6,0.7c-3.5,0-7,0-10.5,0
		c-0.4,0-0.6-0.1-0.9-0.5c-0.6-0.9-1.2-1.9-1.8-2.8c-0.2-0.3-0.3-0.3-0.7-0.1c-5.9,3.5-12.4,4.8-19.2,4.7c-4.5-0.1-8.9-0.8-13.1-2.5
		c-6.2-2.5-10.7-6.8-13.9-12.6C153,172.2,152.9,172.1,152.7,171.8z M113.5,150.1c0,4.4,0,8.7,0,13.1c0,2.8,0,5.6,0,8.4
		c0,0.3-0.1,0.6,0.4,0.6c3.5-0.1,7,0.2,10.5-0.4c2.9-0.5,5.6-1.5,7.8-3.7s3.2-5,3.9-8c0.6-3,0.8-6.1,0.8-9.1c0.1-4-0.1-8-1.1-11.9
		c-0.7-2.7-1.8-5.1-3.9-7.1c-2.3-2.1-5-3.1-8-3.5c-3.1-0.5-6.3-0.4-9.4-0.4c-0.7,0-0.9,0.1-0.9,0.8
		C113.5,135.9,113.5,143.1,113.5,150.1z"/>
	<path class="st0" d="M113.5,150.1c0-7.1,0-14.1,0-21.2c0-0.7,0.2-0.9,0.9-0.8c3.2,0,6.3-0.1,9.4,0.4c3,0.5,5.8,1.4,8,3.5
		c2.1,1.9,3.2,4.4,3.9,7.1c1,3.9,1.2,7.9,1.1,11.9c0,3.1-0.2,6.1-0.8,9.1s-1.6,5.8-3.9,8c-2.1,2.2-4.8,3.2-7.8,3.7
		c-3.5,0.6-7,0.3-10.5,0.4c-0.5,0-0.4-0.3-0.4-0.6c0-2.8,0-5.6,0-8.4C113.5,158.8,113.5,154.4,113.5,150.1z"/>
</g>
</svg>
