<svg id="Layer_1" data-name="Layer 1" xmlns="http://www.w3.org/2000/svg" xmlns:xlink="http://www.w3.org/1999/xlink" viewBox="0 0 300 300"><defs><style>.cls-1{fill:#fff;}.cls-2{clip-path:url(#clip-path);}.cls-3{clip-path:url(#clip-path-2);}.cls-4{clip-path:url(#clip-path-3);}</style><clipPath id="clip-path"><path class="cls-1" d="M126.92,237.45A75.18,75.18,0,0,1,109,235.34h-.1a.43.43,0,0,0-.4.4.52.52,0,0,0,.2.41,95.71,95.71,0,0,0,98-9.26l-14.19-14.28c-20.41,16.29-44,24.84-65.57,24.84M235.44,108.91v.2c6.24,25.75-1.81,57.13-22.73,83.38l14.18,14.19A95.33,95.33,0,0,0,245.5,150a94,94,0,0,0-9.35-41.14c-.1-.1-.21-.2-.31-.2h0c-.2-.1-.4.1-.4.3"/></clipPath><clipPath id="clip-path-2"><path class="cls-1" d="M172.48,90.41c-18.71,0-39.73,9.75-56,26-14,14-23.24,31.68-25.45,48.48-1.11,8.24-1.31,23.63,9.25,34.29,8,8.05,19,9.76,26.66,9.76,14.88,0,31.08-6,45.26-16.6L152,172.08h40.43c8.75-11.67,14.49-25,16.1-37.62,1.1-8.25,1.3-23.64-9.26-34.3-9.75-9.75-23.33-9.75-26.75-9.75h0"/></clipPath><clipPath id="clip-path-3"><path class="cls-1" d="M54.5,150a95.06,95.06,0,0,0,8.55,39.63.38.38,0,0,0,.7-.3c-6.63-29.17,4.93-65.38,32.49-92.94,22.53-22.53,50.79-34.4,76.24-34.4a78,78,0,0,1,16.8,1.81.55.55,0,0,0,.5-.3c0-.2-.1-.4-.3-.4A95.49,95.49,0,0,0,54.5,150"/></clipPath></defs><path class="cls-1" d="M126.92,237.45A75.18,75.18,0,0,1,109,235.34h-.1a.43.43,0,0,0-.4.4.52.52,0,0,0,.2.41,95.71,95.71,0,0,0,98-9.26l-14.19-14.28c-20.41,16.29-44,24.84-65.57,24.84M235.44,108.91v.2c6.24,25.75-1.81,57.13-22.73,83.38l14.18,14.19A95.33,95.33,0,0,0,245.5,150a94,94,0,0,0-9.35-41.14c-.1-.1-.21-.2-.31-.2h0c-.2-.1-.4.1-.4.3"/><g class="cls-2"><polygon class="cls-1" points="173.18 40.22 313.79 173.18 180.73 313.79 40.22 180.73 173.18 40.22"/></g><path class="cls-1" d="M172.48,90.41c-18.71,0-39.73,9.75-56,26-14,14-23.24,31.68-25.45,48.48-1.11,8.24-1.31,23.63,9.25,34.29,8,8.05,19,9.76,26.66,9.76,14.88,0,31.08-6,45.26-16.6L152,172.08h40.43c8.75-11.67,14.49-25,16.1-37.62,1.1-8.25,1.3-23.64-9.26-34.3-9.75-9.75-23.33-9.75-26.75-9.75h0"/><g class="cls-3"><rect class="cls-1" x="89.6" y="90.41" width="120.19" height="118.48"/></g><path class="cls-1" d="M54.5,150a95.06,95.06,0,0,0,8.55,39.63.38.38,0,0,0,.7-.3c-6.63-29.17,4.93-65.38,32.49-92.94,22.53-22.53,50.79-34.4,76.24-34.4a78,78,0,0,1,16.8,1.81.55.55,0,0,0,.5-.3c0-.2-.1-.4-.3-.4A95.49,95.49,0,0,0,54.5,150"/><g class="cls-4"><rect class="cls-1" x="54.5" y="54.4" width="135.28" height="135.38"/></g></svg>