<svg id="Layer_1" data-name="Layer 1" xmlns="http://www.w3.org/2000/svg" viewBox="0 0 300 300"><g id="Group"><path d="M41.97405,120.59854c.98709.21152.84608.91659.84608.91659s-.0705,24.95952,0,28.41436c-.49355,3.31384-5.78158,3.03181-5.78158,3.03181V120.59854Zm-4.23043-1.62166H26.251s-1.12811.21152-.98709.84608.63456.84609,1.76267.84609v31.86921l-.49354.49354s-1.19863,0-1.48066.70508.63456.91659,1.33963.91659H42.74963s9.9415-.423,9.9415-6.9802V125.393s-1.33965-6.20462-7.8968-6.41614Z" fill="#fff"/><path d="M59.17777,138.57785a2.542,2.542,0,1,0-2.67926-2.53825A2.60567,2.60567,0,0,0,59.17777,138.57785Z" fill="#fff"/><path d="M96.82856,138.57785a2.542,2.542,0,1,0-2.67926-2.53825A2.69906,2.69906,0,0,0,96.82856,138.57785Z" fill="#fff"/><path d="M84.56033,119.11789c1.83319,0,5.147,3.10232,5.42905,5.57006a43.19129,43.19129,0,0,1,.282,5.07651,6.85436,6.85436,0,0,1-5.006,6.62767c.84609.282,2.74977.35254,4.442,1.41014a5.32676,5.32676,0,0,1,2.11521,3.31383v11.49266l.49354.423h1.69216c.282,0,.42305-.0705.49356.63457a.77765.77765,0,0,1-.84609.91659H83.2207c-1.12812,0-1.97419-1.9742-1.97419-1.9742V139.0714c0-1.0576-2.04473-1.19862-2.04473-1.19862H75.81745v14.66548l.282.35253h1.26914c.21151,0,.63456-.21152.63456.70507.07051,1.05761-.42305.77558-.42305.77558H64.25429c-.35253,0-.63456-.07051-.63456-.63456,0-.49355.63456-.84609.63456-.84609h.91659l.70507-.70507V121.02158l-.49354-.423H64.3248c-.77558,0-.423-.282-.423-.9871-.07051-.63456.63456-.49355.63456-.49355Zm-6.34564,1.48065H75.888v15.37055H80.1889s1.05761-.07051,1.05761-1.41014V121.58564a1.47089,1.47089,0,0,0-1.41014-1.05761C78.77876,120.59854,78.21469,120.59854,78.21469,120.59854Z" fill="#fff"/><path d="M183.6228,119.11789c1.83319,0,5.147,3.10232,5.429,5.57006a43.19129,43.19129,0,0,1,.282,5.07651,6.823,6.823,0,0,1-4.9355,6.62767c.84609.282,2.74977.35254,4.44194,1.41014a5.32661,5.32661,0,0,1,2.11521,3.31383v11.49266l.49356.423h1.69217c.282,0,.423-.0705.49355.63457a.77764.77764,0,0,1-.84609.91659H182.42419c-1.12812,0-1.97421-1.9742-1.97421-1.9742V139.0714c0-1.0576-2.11521-1.19862-2.11521-1.19862h-3.38434v14.66548l.282.35253h1.26912c.21153,0,.63458-.21152.63458.70507.07049,1.05761-.423.77558-.423.77558H163.38727c-.35253,0-.63458-.07051-.63458-.63456,0-.49355.63458-.84609.63458-.84609h.91659l.70507-.70507V121.02158l-.49356-.423h-1.05761c-.77556,0-.423-.282-.49353-.9871-.07051-.63456.63456-.49355.63456-.49355Zm-6.34564,1.48065h-2.32673v15.37055h4.30094s1.05761-.07051,1.05761-1.41014V121.58564a1.47089,1.47089,0,0,0-1.41014-1.05761C177.77072,120.59854,177.27716,120.59854,177.27716,120.59854Z" fill="#fff"/><path d="M117.0641,138.0138h2.25624l.49354.423s-.07052,15.018,0,15.58207a.66736.66736,0,0,0,.49355.63456H131.236c.63456,0,.91659-.423.91659-.63456s-.07051-.98711-1.19861-.98711-.98712-.77557-.98712-.77557-.07049-30.67059,0-31.16414,0-.56406.91661-.56406,1.05761-.21152,1.05761-.70507-.70508-.84608-.70508-.84608H120.16641c-.35253,0-.42305.63456-.42305.63456V134.559l-.49353.49354h-5.07652l-.49354-.49354V119.61144s-.07051-.63456-.42305-.63456H102.1871s-.70507.35254-.70507.84608.141.70507,1.05761.70507.84609.07051.9166.56406,0,31.16414,0,31.16414.07049.77557-.98711.77557-1.19861.77558-1.19861.98711.282.63456.91658.63456h10.9286a.66737.66737,0,0,0,.49356-.63456c.07051-.56406,0-15.58207,0-15.58207l.49354-.423h2.9613" fill="#fff"/><path d="M147.45267,154.79448c-6.20464,0-8.03781-.91659-10.22353-2.96129-2.11522-2.04471-2.46775-5.99311-2.60877-7.68528-.141-1.62166-.141-2.74978-.141-8.53136a36.81747,36.81747,0,0,1,1.12809-10.08251c.98712-4.15992,2.7498-4.9355,4.9355-5.9226,2.11521-.9871,7.12122-1.0576,7.12122-1.0576l.70507-.07051s4.51245.141,6.62766,1.12811c2.18573.9871,3.9484,1.83319,4.9355,5.9226a36.81656,36.81656,0,0,1,1.12812,10.08251c0,5.78158,0,6.83919-.141,8.53136-.141,1.62167-.42305,5.57006-2.60877,7.68528-2.11522,2.0447-3.80738,2.96129-10.012,2.96129Zm.423-1.0576c3.73687,0,3.17282-1.9742,3.17282-1.9742V122.36122c0-2.67927-2.18572-2.82029-3.03182-2.82029h-.49353c-.77558,0-3.24333.141-3.24333,2.82029v29.40146s-.63456,1.9742,3.10231,1.9742Z" fill="#fff"/><path d="M226.27961,154.79448c-6.20463,0-8.03782-.91659-10.22355-2.96129-2.11521-2.04471-2.46775-5.99311-2.60875-7.68528-.141-1.62166-.141-2.74978-.141-8.53136a36.81656,36.81656,0,0,1,1.12812-10.08251c.98709-4.15992,2.74977-4.9355,4.9355-5.9226,2.11521-.9871,7.12122-1.0576,7.12122-1.0576l.70507-.07051s4.51243.141,6.62764,1.12811c2.18574.9871,3.94842,1.83319,4.9355,5.9226a36.81574,36.81574,0,0,1,1.12813,10.08251c0,5.78158,0,6.83919-.141,8.53136-.141,1.62167-.49356,5.57006-2.60877,7.68528-2.11521,2.0447-3.80736,2.96129-10.08251,2.96129Zm.49352-1.0576c3.66638,0,3.17282-1.9742,3.17282-1.9742V122.36122a2.6849,2.6849,0,0,0-3.0318-2.82029h-.49356c-.77556,0-3.24331.141-3.24331,2.82029v29.40146s-.63456,1.9742,3.10233,1.9742Z" fill="#fff"/><path d="M202.4482,119.04739h12.19772s.49356.423.49356.77557v3.73688s-.07051.84608-.77558.84608c-.70507.07051-.8461-.282-.8461-.9871a4.44079,4.44079,0,0,1,0-1.12811h-5.78157s-.70507-.0705-.70507.56406v29.472s-.07051.70507,1.19861.70507c.70507,0,.70507.282.70507.77558a.67608.67608,0,0,1-.77556.77558H195.609a.67609.67609,0,0,1-.77558-.77558c0-.49355-.07049-.77558.63458-.77558,1.26912,0,1.19861-.70507,1.19861-.70507v-29.472c0-.63456-.70507-.56406-.70507-.56406H190.18a4.71634,4.71634,0,0,1,0,1.12811c-.07051.77558-.21153,1.12812-.84609.9871-.70507-.0705-.77558-.84608-.77558-.84608V119.823c0-.35253.49355-.77557.49355-.77557Z" fill="#fff"/><path d="M257.2322,154.65347H265.27V121.02158s-.21151-.49355.84609-.49355,1.05761-.63456,1.05761-.91659a.93475.93475,0,0,0-.91663-.70507h-4.583a.71459.71459,0,0,0-.70507.77558c0,.63456.21156.91659.56409.91659s.98708-.07051,1.05761.49355c.07049.77558,0,20.51757,0,20.51757l-8.53139-20.72909a.95522.95522,0,0,1,.8461-.35254.8732.8732,0,0,0,.98711-.91659c0-.56405-.35253-.70507-.63458-.70507H242.28469s-.70507.282-.70507.77558,0,.77558.56409.77558,1.19859.141,1.19859.423v31.65769s.21155.49354-.846.49354-1.05761.63457-1.05761.9166a.93467.93467,0,0,0,.91658.70507h4.583a.71459.71459,0,0,0,.70508-.77558c0-.63456-.21152-.91659-.56405-.91659s-.98712.0705-1.05761-.49355c-.07053-.70507,0-25.94661,0-25.94661Z" fill="#fff"/></g><path d="M272.32074,124.829A2.67927,2.67927,0,1,1,275,122.1497,2.59057,2.59057,0,0,1,272.32074,124.829Zm0-4.79448a1.93168,1.93168,0,0,0-1.9037,2.0447,1.8914,1.8914,0,0,0,1.9037,2.04471,2.04993,2.04993,0,0,0,0-4.08941Zm-.49356,3.52535h-.63458v-2.89079h1.05761c.7756,0,1.19863.21152,1.19863.84608,0,.56406-.282.70508-.70508.77558l.70508,1.26913h-.70508l-.63453-1.19862h-.28205Zm.56405-1.69217c.282,0,.42307-.07051.42307-.35254s-.35254-.35253-.56409-.35253h-.423v.70507Z" fill="#fff"/><rect x="25.05234" y="108.2598" width="242.96744" height="2.46775" fill="#fff"/><path d="M58.3317,182.7858c-.141,0-.21153.141-.282.35254a6.85224,6.85224,0,0,1-1.05761,1.76268,16.86022,16.86022,0,0,1-1.55114,1.62166,7.85261,7.85261,0,0,1-1.69217,1.12811,15.63569,15.63569,0,0,1-.21153-2.60876,71.17343,71.17343,0,0,1,.63455-7.19172l.07052-.70508v-.141l1.97421-.21152,2.0447-.21152h.35253c.49354-.07052.70508-.21153.56405-.49355-.07051-.21153-.35253-.35254-.70507-.423a31.10208,31.10208,0,0,0-3.80738,0h-.21151l.07049-.141.42305-2.53826c.21153-1.26912.56407-2.82028.98709-4.79447a2.59305,2.59305,0,0,0,0-1.48066,3.28683,3.28683,0,0,0-1.12809-1.33963,2.4427,2.4427,0,0,0-1.41015-.63457,1.76446,1.76446,0,0,0-.77558.35254l-.35253.282c-.42305.35254-1.05761.77557-1.76268,1.41014-.77558.63456-1.62168,1.33963-2.53826,2.18572l-3.73687,3.24333-4.23043,3.80738c-.07051,0-.141.07051-.282.21152H39.5063c-.9871.07051-2.11522.141-3.17282.141H34.07725a4.79089,4.79089,0,0,1-1.33964-.21152q.52881.95185.8461,1.48065a3.175,3.175,0,0,0,.63456.70507,2.43777,2.43777,0,0,0,.84608.49355,2.08247,2.08247,0,0,0,.91659.141,4.18842,4.18842,0,0,0,.77559-.0705l.70507-.07051h.141l-.07051.07051a17.60193,17.60193,0,0,1-1.62167,1.62167c-.21151.21151-.49355.49355-.91658.84608-.35254.35254-.9166.84608-1.48066,1.48064-.423.423-.84608.8461-1.19861,1.12812a7.82082,7.82082,0,0,0-.77559.77558c-3.73687,3.52536-5.07651,2.74978-5.9931,4.15992-.282.49355.282,1.48065.98711,2.0447a4.5579,4.5579,0,0,0,2.46774.77558,2.68521,2.68521,0,0,0,1.33963-.423,13.38053,13.38053,0,0,0,1.55116-1.48064c.77558-.84608,5.49955-6.41615,3.73688-4.37144-.49355.63456.56406-.49355,2.89079-3.52535l1.48065-1.83319,1.48065-1.83319,2.67927-.282,2.67926-.282,1.9037-.21152,1.90368-.21152-.35254,2.32673-.35253,2.32674a15.84081,15.84081,0,0,0-.21151,5.006,2.76467,2.76467,0,0,0,.282.9871,6.01674,6.01674,0,0,0,.9871,1.48065,8.47927,8.47927,0,0,0,1.48065,1.33964,2.6131,2.6131,0,0,0,1.33963.49354,1.64569,1.64569,0,0,0,.98712-.49354,17.6582,17.6582,0,0,0,3.80737-6.8392c.07052-.35254.141-.564.07052-.70507C58.68424,182.8563,58.54321,182.7858,58.3317,182.7858Zm-5.78159-13.60787c-.21151.9166-.423,1.83319-.63456,2.82028L51.563,173.8314,51.14,175.59408l-2.53826.0705-2.53826.07051-1.55114.0705-1.55117.07051.07051-.141A74.58552,74.58552,0,0,1,49.30678,169.46c.70507-.63455,1.33963-1.19861,1.9037-1.62165s1.26912-.84609,2.0447-1.33964C52.97316,167.41525,52.76162,168.26134,52.55011,169.17793Z" fill="#fff"/><path d="M106.27653,179.331a7.45693,7.45693,0,0,1,1.0576-1.69217l.84608-1.0576a1.17607,1.17607,0,0,0,.21153-.9166,2.15118,2.15118,0,0,0-.70507-.91659,2.10024,2.10024,0,0,0-.98712-.35254,2.24738,2.24738,0,0,0-1.19861.423,20.87817,20.87817,0,0,0-2.18572,1.83319l-2.25624,1.97419a14.519,14.519,0,0,0-1.12809,1.0576l-1.62168,1.62167a10.49517,10.49517,0,0,1,1.41014-2.53825l1.41015-1.9742a.98245.98245,0,0,0,.141-1.05761,1.80489,1.80489,0,0,0-.70507-.91659,1.68465,1.68465,0,0,0-.9871-.35254c-.21153,0-.35253,0-.423.07051a2.63019,2.63019,0,0,0-.42305.564l-.282.56406a16.72892,16.72892,0,0,1-4.01891,4.08942,33.838,33.838,0,0,1-5.006,3.38434,6.99256,6.99256,0,0,1-4.01889.63456,2.277,2.277,0,0,1-1.19863-.70507,1.03264,1.03264,0,0,1-.141-1.19862c.21151-.56406.56405-1.33963.84607-1.26913a9.39554,9.39554,0,0,0,3.10231.77558,3.86481,3.86481,0,0,0,2.60877-.63457,5.95372,5.95372,0,0,0,2.0447-1.76268,3.10431,3.10431,0,0,0,.77559-2.53825,1.96483,1.96483,0,0,0-.49356-.91659,3.7881,3.7881,0,0,0-1.1281-.70507,4.5948,4.5948,0,0,0-1.26914-.141,5.39637,5.39637,0,0,0-2.39724.56406,14.22662,14.22662,0,0,0-3.03179,1.76267,9.21837,9.21837,0,0,0-2.53826,2.74978,3.63821,3.63821,0,0,0-.77558.141,10.2073,10.2073,0,0,0-4.30094,1.69217,21.67477,21.67477,0,0,1,2.67928-5.006.74944.74944,0,0,0,.07049-.84609,2.15088,2.15088,0,0,0-.70507-.91659,1.68463,1.68463,0,0,0-.9871-.35254,1.95458,1.95458,0,0,0-.84607.35254c-.56407.423-1.48065,1.12812-2.67928,2.18572l-2.32673,1.97419q-1.26914,1.16339-2.32674,2.32674c.141-.35254.35253-.84608.56407-1.33963a4.69262,4.69262,0,0,1,.423-.84608c.141-.21153.282-.49356.423-.70508.141-.282.56407-.91659,1.12812-1.83318a1.34041,1.34041,0,0,0,.282-1.05761,2.20388,2.20388,0,0,0-.63456-.77558,1.87121,1.87121,0,0,0-.98709-.35254,2.05608,2.05608,0,0,0-1.05761.423c-.91658.63456-2.18572,1.69216-3.80738,3.10231a43.52912,43.52912,0,0,0-3.73689,3.52535c.56407-1.19862,1.05761-2.0447,1.55117-2.89078l.35253-.70507a8.377,8.377,0,0,0,.49356-1.62167,2.77058,2.77058,0,0,0,.07049-1.41014,1.77325,1.77325,0,0,0-.49354-.84608,2.06674,2.06674,0,0,0-.56407-.282c-.21151-.0705-.70507-.21151-.77556.141-.07051.21152,1.48063.21152.282,1.97419l-1.69217,2.11522a20.80922,20.80922,0,0,0-2.39726,4.08941,3.8616,3.8616,0,0,0-.49353,2.67927,2.985,2.985,0,0,0,.77558.9166,2.056,2.056,0,0,0,1.0576.423c.21152,0,.35254,0,.423-.0705a2.66146,2.66146,0,0,0,.35254-.56406,21.81954,21.81954,0,0,1,2.74979-4.23042,10.54881,10.54881,0,0,1,3.24331-2.60876,1.0103,1.0103,0,0,1,.49356-.141.259.259,0,0,1,.21151.07051.5331.5331,0,0,1-.07049.282l-.141.21151-.141.21153a14.44775,14.44775,0,0,0-1.76267,4.79448,1.56489,1.56489,0,0,0,.07051.63456,2.84108,2.84108,0,0,0,.9166.98711,1.85741,1.85741,0,0,0,1.05761.423.66118.66118,0,0,0,.56405-.423,13.266,13.266,0,0,1,2.60877-4.23043,10.44639,10.44639,0,0,1,3.45484-2.82028,2.07551,2.07551,0,0,1,.63456-.21153c.141,0,.21151.07051.21151.141a.25908.25908,0,0,1-.07048.21152l-.141.21152a15.53612,15.53612,0,0,0-.98709,2.11522,12.07584,12.07584,0,0,0-.70507,2.11521,2.593,2.593,0,0,0,0,1.48064,2.50943,2.50943,0,0,0,.84607.9166,2.24739,2.24739,0,0,0,1.19863.423.52831.52831,0,0,0,.35253-.07051,1.54038,1.54038,0,0,0,.21152-.35253c0-.07051.07051-.141.141-.282a3.43509,3.43509,0,0,0,.21151-.49355,7.63953,7.63953,0,0,1,1.76268-2.67927,6.52006,6.52006,0,0,1,2.04472-1.19862,6.92908,6.92908,0,0,1,1.1281-.35253,3.50759,3.50759,0,0,0,1.69219,4.865,7.5656,7.5656,0,0,0,3.80737.07051A8.53462,8.53462,0,0,0,91.47,183.34986c.91658-.70507,2.67926-2.32673,3.31382-2.89079.56407-.423,1.33963-1.33963,2.18572-1.9742a32.99023,32.99023,0,0,0-2.46775,5.006,1.41152,1.41152,0,0,0-.07051,1.05761,3.2154,3.2154,0,0,0,.8461.91659,1.8979,1.8979,0,0,0,1.12811.49355c.282,0,.564-.282.91659-.91659a17.30462,17.30462,0,0,1,3.52535-4.865,11.52712,11.52712,0,0,1,3.38433-2.11521,1.85734,1.85734,0,0,0-.35253,1.26912,2.10228,2.10228,0,0,0,.98711.91659,5.07447,5.07447,0,0,0,1.83317.56406,1.7675,1.7675,0,0,1-.282-.49355C106.1355,180.10653,106.1355,179.754,106.27653,179.331Zm-17.62678-1.90369a6.49713,6.49713,0,0,1,2.39724-.77557.42637.42637,0,0,1,.42305.21151,1.63673,1.63673,0,0,1-.35254,1.19863,4.40788,4.40788,0,0,1-2.32675,2.18571,4.73077,4.73077,0,0,1-3.52535-.21152A22.46691,22.46691,0,0,1,88.64975,177.42726Z" fill="#fff"/><path d="M267.24422,175.45306a2.15112,2.15112,0,0,0-.70507-.91659,2.10021,2.10021,0,0,0-.98712-.35253,2.24718,2.24718,0,0,0-1.19858.423,20.8797,20.8797,0,0,0-2.18575,1.83318l-2.25624,1.9742a14.51542,14.51542,0,0,0-1.12809,1.05761c-.423.423-.98712.9871-1.62166,1.62166a10.49348,10.49348,0,0,1,1.41015-2.53825l1.41014-1.9742a.98253.98253,0,0,0,.141-1.05761,2.29087,2.29087,0,0,0-.70507-.91659,1.68469,1.68469,0,0,0-.98712-.35254c-.21151,0-.35253,0-.423.07051a2.62886,2.62886,0,0,0-.42307.56406l-.282.564a16.72969,16.72969,0,0,1-4.01892,4.08941,33.83594,33.83594,0,0,1-5.006,3.38434,6.99215,6.99215,0,0,1-4.01887.63456,2.27675,2.27675,0,0,1-1.19863-.70507,1.03264,1.03264,0,0,1-.141-1.19862c.21151-.56405.564-1.33963.84609-1.26913a9.39513,9.39513,0,0,0,3.10229.77559,3.86487,3.86487,0,0,0,2.60877-.63456,5.9541,5.9541,0,0,0,2.04473-1.76268,3.10442,3.10442,0,0,0,.77556-2.53826,1.96465,1.96465,0,0,0-.49356-.91659,3.78789,3.78789,0,0,0-1.1281-.70507,4.59443,4.59443,0,0,0-1.26912-.141,6.61747,6.61747,0,0,0-2.39726.56406,14.22757,14.22757,0,0,0-3.03179,1.76268,9.5003,9.5003,0,0,0-2.46775,2.60876,5.20751,5.20751,0,0,0-.84609.141,14.08872,14.08872,0,0,0-1.48064.282,15.51534,15.51534,0,0,0-3.45486,1.41014,15.21618,15.21618,0,0,1,.70507-1.76268c.282-.49356.63458-1.12812,1.12814-1.83319,1.26912-1.90369,4.15989-4.30093,5.429-5.64057l2.74979-3.1023c.35254-.35254.77557-.9166.564-1.26913a1.1,1.1,0,0,0-1.0576-.56406,2.641,2.641,0,0,0-1.19863.77558c-1.33961,1.12811-2.96127,2.60876-2.96127,2.60876-1.12814,1.12811-4.442,4.08941-5.147,5.07651l-.07049.07051a2.22741,2.22741,0,0,0-.98712-.9871,3.27719,3.27719,0,0,0-1.48063-.35254,4.74028,4.74028,0,0,0-1.26912.21152,15.4672,15.4672,0,0,0-3.24335,1.62167,18.44362,18.44362,0,0,0-2.39721,1.69216,26.267,26.267,0,0,0-2.96131,1.48066c-.9871.49355-2.82028,1.41014-4.01891,1.9742a14.46523,14.46523,0,0,1,1.83319-3.59587,13.7507,13.7507,0,0,1,1.26914-1.76268c.49353-.63455.91658-1.19861,1.41014-1.76267a12.0956,12.0956,0,0,1,1.19863-1.33963l1.90365-1.9742c.35254-.35254.8461-.77559.70508-1.12812-.07049-.141-.141-.21153-.21152-.35254a.90036.90036,0,0,0-.77556-.282,1.68941,1.68941,0,0,0-.91658.49355,46.52119,46.52119,0,0,0-6.41617,6.48665,10.08683,10.08683,0,0,0-.77556,1.0576,43.25627,43.25627,0,0,1-3.66638,2.60876c-1.9037,1.26913-3.59587,2.46775-3.52536,2.32674a21.82148,21.82148,0,0,1,1.83319-3.87789l.141-.21152a15.47242,15.47242,0,0,0,.91661-1.33963,1.45093,1.45093,0,0,0,.35253-.63456,1.98422,1.98422,0,0,0-.07051-.56406,5.88138,5.88138,0,0,0-.56405-.84609,1.48614,1.48614,0,0,0-.77558-.35253.9624.9624,0,0,0-.70507.423l-1.41014,2.18572c-.91661.63456-2.39724,1.76268-3.87789,2.82028a26.08458,26.08458,0,0,1-3.52536,2.32674s-.49355.423.07052-.63457a27.27843,27.27843,0,0,1,1.55114-2.82028c.07051-.141.21153-.282.282-.423a2.14319,2.14319,0,0,1,.35254-.49356,4.17742,4.17742,0,0,1,.282-.423,10.54476,10.54476,0,0,1,.70507-1.0576.77254.77254,0,0,0,0-.56406,1.69988,1.69988,0,0,0-.77558-.84608,2.04628,2.04628,0,0,0-1.12812-.42305c-.282,0-.49355.141-.70507.49355-.63456.91659-1.0576,1.62166-1.41014,2.11521s-.77558,1.05761-1.26912,1.62167-.84609.9871-1.12812,1.26913-.70507.70507-1.33963,1.26913q-.5288.423-1.26914,1.0576a4.8973,4.8973,0,0,1-1.26912.84608,1.002,1.002,0,0,1-.423.141c-.141,0-.282-.0705-.282-.21153a3.42391,3.42391,0,0,1,.423-1.62165,19.78474,19.78474,0,0,1,1.62165-2.74978c.35254-.49355.63456-.9871.91659-1.41015a7.31806,7.31806,0,0,0,.49356-.84608.91656.91656,0,0,0,0-.70507,1.64654,1.64654,0,0,0-.70507-.84608,1.37518,1.37518,0,0,0-.91659-.35254,1.08993,1.08993,0,0,0-.84609.49355l-1.69217,2.96129a13.13061,13.13061,0,0,0-1.33963,2.32674,9.53358,9.53358,0,0,0-2.39726-.77558,3.19117,3.19117,0,0,0-.91658-3.17282c-2.39724-2.46775-6.62766-2.0447-6.62766-2.0447,7.68527-3.52536,2.74977-7.75578-1.9037-7.8968-8.67237-.21152-14.03091,6.34564-14.03091,6.34564,14.10142-9.73,16.07561-2.89079,16.07561-2.89079.423,1.12812-.56405,2.96129-2.89078,3.87789a18.81493,18.81493,0,0,1-2.39725.77558c-.56405.141-1.83317.423-2.11522.49355l-2.53824.423h-.141l.07051-.07052a2.46105,2.46105,0,0,0,.423-.63456,4.78047,4.78047,0,0,0,.423-.63457,19.922,19.922,0,0,1,1.41014-1.83317,1.06065,1.06065,0,0,0,.282-.9166c-.07051-.282-.49356-.63457-1.26914-.9871a1.68133,1.68133,0,0,0-.84607-.282c-.282,0-.56407.21153-.9166.56406a37.71767,37.71767,0,0,0-2.60875,3.52536c-.70508,1.1281-1.41015,2.25622-2.04473,3.38434a34.03151,34.03151,0,0,0-1.62165,3.17282l-.07051.141a14.72025,14.72025,0,0,0-4.15992,1.55115c-1.12812.70507-1.55116,1.55116-1.12812,2.53826a7.71633,7.71633,0,0,0,1.48066,2.25623,11.16639,11.16639,0,0,0,2.25623,1.90369,6.54113,6.54113,0,0,0,3.10231.91659,35.41551,35.41551,0,0,0,10.57607-1.9742,45.34456,45.34456,0,0,0,5.147-1.90369,18.675,18.675,0,0,0,3.66637-2.18572,13.0912,13.0912,0,0,0,2.0447-1.90369,3.93815,3.93815,0,0,0,1.05761-1.69217h.141a14.985,14.985,0,0,1,1.97419.423h.07051a6.55487,6.55487,0,0,1-.35253.70507,11.33445,11.33445,0,0,0-.63456,1.76268,1.34058,1.34058,0,0,0,.07049.91659,4.21217,4.21217,0,0,0,1.05761,1.26913,2.27256,2.27256,0,0,0,1.41014.63456,1.68061,1.68061,0,0,0,.98711-.423,29.34559,29.34559,0,0,0,3.38434-3.31384l1.62165-1.76268a4.22338,4.22338,0,0,1,.49356-.423,17.21788,17.21788,0,0,0-1.12812,2.89078,3.28035,3.28035,0,0,0-.21151,1.69218,5.86439,5.86439,0,0,0,.98709.9871,2.082,2.082,0,0,0,1.12812.49354.5386.5386,0,0,0,.35254-.141,2.54481,2.54481,0,0,0,.63456-.63456c.70507-.91659,1.26912-1.55115,1.48065-1.83319a9.359,9.359,0,0,1,1.33963-1.48064,23.75662,23.75662,0,0,1,3.73687-3.10232c-.564.98711-.91659,1.69218-1.19861,2.25623a11.28085,11.28085,0,0,0-.77558,2.46774,2.56677,2.56677,0,0,0,0,1.05761,2.507,2.507,0,0,0,.98709.9166,2.84459,2.84459,0,0,0,1.12812.49354.53856.53856,0,0,0,.35254-.141,4.9365,4.9365,0,0,0,.63456-.63456c.70507-.91659,1.26914-1.55115,1.48065-1.83319a15.18643,15.18643,0,0,1,1.33963-1.55115,19.08864,19.08864,0,0,1,3.59587-2.9613c-.141.35254-.35254.70507-.49356.9871a14.911,14.911,0,0,0-1.33963,3.59586,1.7856,1.7856,0,0,0,0,1.05761,2.09583,2.09583,0,0,0,.98709.91659,2.84464,2.84464,0,0,0,1.12812.49355.53863.53863,0,0,0,.35254-.141,2.15139,2.15139,0,0,0,.49355-.56406c.70508-.91659,1.12812-1.55115,1.33963-1.83319a22.92144,22.92144,0,0,1,1.9037-1.83318c.282-.21152.9871-.70507,1.90368-1.26913q-1.37487,1.79793-.84607,3.17282a4.65632,4.65632,0,0,0,1.19863,1.69217,2.664,2.664,0,0,0,1.55112.77558,1.60728,1.60728,0,0,0,.77561-.21152,9.56576,9.56576,0,0,0,1.26912-.84608,33.48519,33.48519,0,0,0,5.429-5.21754l.141-.141-.07053.141a12.413,12.413,0,0,0-1.41014,3.80739,2.5675,2.5675,0,0,0,0,1.05761,2.09594,2.09594,0,0,0,.98711.91659,2.8447,2.8447,0,0,0,1.1281.49355.53856.53856,0,0,0,.35254-.141,4.4975,4.4975,0,0,0,.42307-.63457,23.8312,23.8312,0,0,1,1.48063-2.32674,8.47307,8.47307,0,0,1,1.41014-1.26912,9.33293,9.33293,0,0,1,3.17282-1.26913,3.75871,3.75871,0,0,0-.282,2.9613,3.67443,3.67443,0,0,0,1.9037,2.0447,7.56573,7.56573,0,0,0,3.8074.07051,8.53444,8.53444,0,0,0,3.94838-2.11521c.91659-.70507,2.67926-2.32674,3.31385-2.8908.564-.423,1.33965-1.33963,2.1857-1.97419a32.9907,32.9907,0,0,0-2.46775,5.006,1.4116,1.4116,0,0,0-.07049,1.05761,3.21506,3.21506,0,0,0,.84609.91659,1.898,1.898,0,0,0,1.1281.49355c.28205,0,.56405-.282.91658-.91659a17.30591,17.30591,0,0,1,3.52536-4.865,13.33776,13.33776,0,0,1,3.38437-2.18572,1.85712,1.85712,0,0,0-.35253,1.26913,2.10192,2.10192,0,0,0,.98707.91659,5.07507,5.07507,0,0,0,1.83321.56406,1.76674,1.76674,0,0,1-.282-.49355,1.55381,1.55381,0,0,1,0-1.12812,7.45819,7.45819,0,0,1,1.0576-1.69216l.8461-1.05761A.97515.97515,0,0,0,267.24422,175.45306Zm-19.742,1.69217a6.38591,6.38591,0,0,1,2.46775-.77558.4263.4263,0,0,1,.423.21153,1.63648,1.63648,0,0,1-.35254,1.19861,4.40785,4.40785,0,0,1-2.32672,2.18573,4.731,4.731,0,0,1-3.52536-.21152A17.46374,17.46374,0,0,1,247.50223,177.14523Zm-67.75732,7.40325a46.42859,46.42859,0,0,1-6.41615,1.83318,29.37681,29.37681,0,0,1-5.57006.77558c-2.0447,0-3.17282-.423-3.45484-1.19862a1.41509,1.41509,0,0,1,.35253-1.41014,4.76263,4.76263,0,0,1,1.83319-1.33964v.141a3.09851,3.09851,0,0,0,.141,1.97419,2.34805,2.34805,0,0,0,.98712,1.19863l.21151-.35253,1.97419-3.66638.07051-.141.07052-.141a35.94768,35.94768,0,0,1,5.006-1.41014,48.40819,48.40819,0,0,1,5.85208-.91659,60.99856,60.99856,0,0,1,6.20464-.35254h.9871C186.30208,181.51667,183.55229,183.13834,179.74491,184.54848Zm8.74287-5.9226h-.21151c-1.26912-.0705-2.53826-.141-3.9484-.141-1.55114,0-3.10231.07051-4.583.141a40.40032,40.40032,0,0,0-4.30094.423c-1.41014.21153-2.67926.423-3.87789.70508l-.21151.07051-.21151.0705.07049-.141.49355-.84609c.141-.21152.35254-.56406.63456-.9871l.63456-.9871.21154-.07051.35253-.141a21.68382,21.68382,0,0,1,2.8908-.70507,35.66587,35.66587,0,0,1,3.66635-.56406,26.41963,26.41963,0,0,1,3.10231-.21151,10.97762,10.97762,0,0,1,3.66638.49354c.98709.35254,1.55116.77557,1.76268,1.33963A2.04232,2.04232,0,0,1,188.48778,178.62588Zm45.40659-1.62166a5.66619,5.66619,0,0,1-1.41014,1.90369,15.1444,15.1444,0,0,1-4.65349,3.17282,5.86124,5.86124,0,0,1-1.76268.56406c-.21151,0-.35254-.07051-.35254-.21152a1.24,1.24,0,0,1,.07054-.423,7.8487,7.8487,0,0,1,1.9037-2.39724,12.72544,12.72544,0,0,1,3.03179-2.04471,11.61573,11.61573,0,0,1,1.55117-.63456,4.59169,4.59169,0,0,1,1.26912-.282.41435.41435,0,0,1,.35253.141A.13222.13222,0,0,1,233.89437,177.00422Z" fill="#fff"/><path d="M143.01071,179.54247a9.47518,9.47518,0,0,0-1.55115.21153,13.48865,13.48865,0,0,0-4.01891,1.26913,8.27484,8.27484,0,0,1,.70507-1.41015l.77558-1.33964c.141-.282.21152-.49355.07052-.70507a1.00091,1.00091,0,0,0-.56407-.49355,1.31166,1.31166,0,0,0,.282-1.26913,1.66731,1.66731,0,0,0-.84609-.98709,2.5423,2.5423,0,0,0-1.41014-.423,8.7362,8.7362,0,0,0-3.31385.9166,16.55481,16.55481,0,0,0-3.80738,2.11521,16.85329,16.85329,0,0,0-2.32672,1.90369,11.69329,11.69329,0,0,1-5.07652,3.45485c-.84607.282-3.24333.9871-3.73687-.141-.21153-.423.07051-.98711.49354-1.9037a8.63214,8.63214,0,0,1,5.07652-4.30093c.07051,0,.282-.07051.35253,0,.141.141-.77558,1.19862-.564,1.62167a6.38606,6.38606,0,0,1,1.90367-1.76268c.423-.282.63456-.56406.49356-.84609a1.69031,1.69031,0,0,0-.70507-.70507,2.069,2.069,0,0,0-1.12812-.282,4.3246,4.3246,0,0,0-1.12811.21153,11.89,11.89,0,0,0-1.90368.77557,16.618,16.618,0,0,0-1.76268,1.0576,10.36541,10.36541,0,0,0-.91661.70508c-.77558.49355-2.46774,1.41014-4.30093,2.74978a26.08331,26.08331,0,0,1-3.52536,2.32674,40.61146,40.61146,0,0,1,1.83319-3.8779l.141-.21152a15.47245,15.47245,0,0,0,.91659-1.33964,1.45066,1.45066,0,0,0,.35253-.63456,1.98436,1.98436,0,0,0-.07051-.56406,2.43155,2.43155,0,0,0-.63456-.84608,1.486,1.486,0,0,0-.77558-.35254.96248.96248,0,0,0-.70507.42305l-1.83317,2.9613-.07051.0705c-.84609,1.48065-1.41014,2.53826-1.76268,3.24333a11.2806,11.2806,0,0,0-.77558,2.46775,2.56675,2.56675,0,0,0,0,1.0576,2.507,2.507,0,0,0,.9871.9166,2.84465,2.84465,0,0,0,1.12811.49354.53858.53858,0,0,0,.35254-.141,4.93757,4.93757,0,0,0,.63456-.63457c.70507-.91658,1.26914-1.55115,1.48065-1.83318a9.35914,9.35914,0,0,1,1.33963-1.48065,20.22575,20.22575,0,0,1,3.38436-2.82028,5.71462,5.71462,0,0,0-.70508,1.26913,3.37642,3.37642,0,0,0-.141,2.46774,4.1452,4.1452,0,0,0,1.9037,2.32674,4.90738,4.90738,0,0,0,3.31382.35254,7.51222,7.51222,0,0,0,4.23043-2.39725,1.01912,1.01912,0,0,0,.141.49356,3.80363,3.80363,0,0,0,1.26912,1.62165,2.82045,2.82045,0,0,0,1.62168.77558,3.19653,3.19653,0,0,0,1.62165-.84608,43.66,43.66,0,0,0,5.006-4.79448l.423-.423-.21154.49356q-.7403,1.79793-1.0576,2.74977a2.698,2.698,0,0,0-.141,1.41014,2.59462,2.59462,0,0,0,1.19861,1.05761,2.39128,2.39128,0,0,0,.9871.35253.59605.59605,0,0,0,.423-.141,1.14777,1.14777,0,0,0,.21154-.423,7.854,7.854,0,0,1,.98709-2.18572,5.33158,5.33158,0,0,1,1.33963-1.48065,6.46849,6.46849,0,0,1,1.83319-.9871,11.94248,11.94248,0,0,1,2.39724-.56406q.74034-.10577.63456-.423A1.2854,1.2854,0,0,0,143.01071,179.54247Zm-6.9802-2.11521a6.92741,6.92741,0,0,1-1.41014,1.90369,13.81412,13.81412,0,0,1-4.65348,3.10232,6.52762,6.52762,0,0,1-1.76267.56406c-.21152,0-.35254-.07052-.35254-.21153-.07049-.21152.141-.56406.56407-1.19862a9.69452,9.69452,0,0,1,1.19861-1.33964,14.87657,14.87657,0,0,1,1.62167-1.33963,10.518,10.518,0,0,1,1.69217-.9871,10.38007,10.38007,0,0,1,1.55117-.70507,3.77342,3.77342,0,0,1,1.26911-.282.41436.41436,0,0,1,.35254.141A.63564.63564,0,0,0,136.03051,177.42726Z" fill="#fff"/><path d="M148.08723,171.99821a1.87125,1.87125,0,0,0,.35253-.98709.90521.90521,0,0,0-.282-.70507,1.56517,1.56517,0,0,0-.77558-.35254,3.16527,3.16527,0,0,0-1.69217.63456c-.91661.63456-1.26914,1.90369-2.32675,3.17282-.91658,1.05761-1.97419,1.55116-1.97419,1.83319a.33308.33308,0,0,0,.35254.35254,6.02225,6.02225,0,0,0,2.18572-.9166,19.58175,19.58175,0,0,0,2.82029-1.83319A13.52952,13.52952,0,0,0,148.08723,171.99821Z" fill="#fff"/><path d="M154.57389,175.8761a1.19122,1.19122,0,0,0-.70507-.21152,13.66918,13.66918,0,0,0-2.96131.56406,23.86926,23.86926,0,0,0-2.8908,1.05761,9.16974,9.16974,0,0,0-2.11521,1.33963.96461.96461,0,0,0-.35253,1.0576,1.56368,1.56368,0,0,0,1.0576.9166,9.60774,9.60774,0,0,0,2.60877.21152,17.28724,17.28724,0,0,1,2.25622.141c-.91659.35254-1.62166.56406-2.0447.77559-1.41015.56406-2.74978,1.19861-3.9484,1.76267a6.33271,6.33271,0,0,0-1.33964.84609.56115.56115,0,0,0-.141.63456,1.33272,1.33272,0,0,0,.70507.70507,1.30691,1.30691,0,0,0,.70508.282.60939.60939,0,0,0,.423-.21152,41.80329,41.80329,0,0,1,3.66638-2.11521c1.55116-.77559,2.39724-1.19862,3.80738-1.76268,0,0,1.12811-.35254.35253-1.12812a2.52467,2.52467,0,0,0-.77558-.423c-.35254-.07051-.98709-.141-1.83317-.21152a9.63585,9.63585,0,0,1-1.33965-.141,4.31315,4.31315,0,0,1-.98709-.21152.70406.70406,0,0,1-.35254-.282c-.07051-.141,0-.21152.21153-.35253a6.56759,6.56759,0,0,1,3.17282-1.33965l2.11522-.423c.84607-.141.98709-.35254,1.12809-.49356a.4093.4093,0,0,0,0-.49355C154.99691,176.22864,154.7854,176.01712,154.57389,175.8761Z" fill="#fff"/><path d="M215.98555,172.42126a1.17481,1.17481,0,0,0,.77558.282,1.1253,1.1253,0,0,0,.56407-.21153,11.10211,11.10211,0,0,0,.91659-.70507c.35253-.282.564-.49355.77558-.63456.35254-.282.49354-.56406.35254-.77558a1.82684,1.82684,0,0,0-.70508-.77557,1.87113,1.87113,0,0,0-.98709-.35254c-.35254,0-.84609.35254-1.48065,1.12811-.56407.70507-.77559,1.19862-.63456,1.55115C215.56253,172.06873,215.774,172.28024,215.98555,172.42126Z" fill="#fff"/><path d="M115.0194,172.7738a1.83048,1.83048,0,0,0,.70507.282,1.12524,1.12524,0,0,0,.56405-.21152,11.10038,11.10038,0,0,0,.91661-.70507c.35253-.282.564-.49355.77556-.63456.35253-.282.49356-.56406.35253-.77559a1.82668,1.82668,0,0,0-.70507-.77557,1.87119,1.87119,0,0,0-.98709-.35253c-.35254,0-.84608.35253-1.48066,1.1281-.564.70508-.77556,1.19862-.63456,1.55116A1.57466,1.57466,0,0,0,115.0194,172.7738Z" fill="#fff"/></svg>