<svg id="Layer_1" data-name="Layer 1" xmlns="http://www.w3.org/2000/svg" viewBox="0 0 300 300"><defs><style>.cls-1{fill:#fff;}</style></defs><path class="cls-1" d="M261.8,110.87c-7.83-26.11-59.75-33.6-116-16.7-2.65.77-5.25,1.63-7.83,2.52,50.26-11.65,93.93-4,100.84,19.07,7.61,25.25-31.8,59.42-88,76.29l-3.83,1.1,26.19-90.48-.12,0,.07,0-6.87.47a215.08,215.08,0,0,0-40.49,8.15C69.56,128.18,30.34,163,38.2,189.15s59.77,33.57,116,16.68c2.65-.8,5.26-1.64,7.84-2.5-50.28,11.64-93.95,4-100.87-19.06C53.56,159,93,124.83,149.21,108c1.18-.36,2.36-.7,3.54-1l-25.84,90.4,6.86-.45a217.12,217.12,0,0,0,40.48-8.16C230.45,171.83,269.65,137,261.8,110.87Z"/></svg>