<svg id="Layer_1" data-name="Layer 1" xmlns="http://www.w3.org/2000/svg" viewBox="0 0 300 300"><defs><style>.cls-1{fill:#fff;}</style></defs><title>DIS_Dark_bg</title><path class="cls-1" d="M150.72,111.84a7.17,7.17,0,0,1,4.35,1.74,6,6,0,0,1,1.31,6.28c-3,6.26-10.29,10.45-15.24,11.84a17.29,17.29,0,0,1-9.4-.35c-1.31.78-2.41,3.31-4,2.26-2.31-1.8-.31-4.63-1.64-6.63-.28-.41-1-.44-1.32-1.12-1.83-4,.44-7.83,3-10.88,4.21-4.7,16.29-9.93,23-3.14Zm-14,3.14c-2.35.43-5,1.46-6.44,3.13s-2.35,3.31-1.48,5c3.05-2.26,4.53-5.4,7.92-7.31C136.7,115.5,137.22,115.24,136.7,115Zm14.2.87c-6-.52-10.54,4-14.81,8.36-.26.69-1.83,1.48-.61,2.26a19.79,19.79,0,0,0,15.42-5c1.22-1.13,2.08-2.61,1.48-4.18A3.08,3.08,0,0,0,150.9,115.85Zm52.07,26c2.78,6.79,5.13,17.5,0,24-1.4,1.57-3.84,3-5.4,1.83-5.75-4.62-8.19-11.23-11.76-17.16-.52-.26-.52.44-.78.7-1.31,6,1.13,13.85-3,18.55a3.14,3.14,0,0,1-3.57-2.09c-2-6.18.08-12.63.61-18.81,1.22-3.14,1.74-6.79,4.44-9.14,4.35,1.74,6.44,6.62,9,10.19,1.83,2.69,3.3,5.74,5.39,8.18,1.83-.78.93-3.17.88-4.61-.7-5.66-2.27-10.89-3.75-16.29-.09-1.39-.87-3.74.61-4.61C199.57,134.31,201.22,138.4,203,141.8Zm-26.3-2.09c0,1.3-1,2.94-1.92,3.13-8.36,1.31-17.67.52-25.51,3.14-.26,1,.87,1.13,1.48,1.39,6.7,1,13.76,1.3,20.29,3,3.45.88,4.7,5,5,8.36a8.9,8.9,0,0,1-3.48,7.75c-6.44,4.09-16.28,3.92-22.81.18-2.5-1.41-4.88-3.66-5.05-6.45a5.2,5.2,0,0,1,2.52-4.79c6.27-2.52,14-1.13,19.42,2.09.35,1.74-1.54,1.65-2.44,2.27-6,3.48-10.54-3.92-16.11-1.22-.78.52-1.35,2-.43,2.44,6.87,3,14.54.87,21.33-1.05a2.75,2.75,0,0,0,1.83-1.83c-.26-2.78-3.4-3.39-5.4-4.18-5.92-1.48-12.45-1.48-18.81-2.09-1.22-.26-2.77-1.11-3.13-2.08-.7-2.09-.7-5,.87-6.71,8.09-7.14,20.37-6.53,30.65-4.61.69.25,1.48.51,1.74,1.3Zm-38,3.31a211.94,211.94,0,0,1,1,24.9c-.17,1.13-1.48,1.39-2.35,1.83-1.39.26-3.19,0-3.74-.79-2-3.22-1.31-7.57-1.48-11.49.26-6.18.17-12.89,1.91-18.63.34-.84,1.31-1.57,2.09-1.05,2.09,1.05,2.44,3.14,2.53,5.23Zm96.74-1.22c.42.7.86,1.79,0,2.26-3.92,1.74-9.23,1-13.76,1.48-1.22,1.05-2.18,2.79-1.74,4.35.44.27.83.66,1.31.61,2.78.18,7-1.3,8.79,1.31.45.78-.06,3.68-1.3,3.74-3.4.44-9-.42-10.63.44-2.09,1.39-1.91,4.09-2.7,6.27,1.48,1,3,0,4.79-.26,3.22-.52,6.79-1.48,10-.78.61,1.13,1.49,2.35.88,3.74-5.49,4.35-12.57,8.82-20.12,5.66-2.83-1.27-4.09-5.57-3.13-9.23.61-2.61,3.3-5.14,1.65-7.92a2.08,2.08,0,0,1,1.48-2.53c2.88,0,2.27-3.57,3.75-5.22-1.66-1.83-5.84-1.74-5.4-5.4,2-1,4.44-.7,6.7-1a52.9,52.9,0,0,1,16.11-1C233.1,138.44,234.49,140.49,235.36,141.8ZM111,121.94c8,6.57,18.46,17.77,17.16,30.65-1.57,10.19-12.37,17.86-21.51,20.29-8.88,2.62-20,2.35-29.08.27-.61,1.65-1.22,3.65-3.14,4.35a4.1,4.1,0,0,1-3.74-.61c-2.7-2.53-.53-7.4-4.44-9-7.67-3.22-15.94-9.58-19.86-17.41a4.69,4.69,0,0,1,1.05-4.36c6-4.79,13.58-6.7,21.16-8.18.43.17.26-.44.61-.61.43-5.23.61-10.54,2.26-15.24a1.37,1.37,0,0,1,1.92-.44c4.79,3.66,2.52,10.54,4.61,15.5,9.15.44,18.29.87,25.52,6a8,8,0,0,1,2.26,8,6.65,6.65,0,0,1-5.66,3.92c-1.57,0-4.53.15-4.36-1s5.33-3.16,3.75-4.79c-2.28-2.35-13.66-3.75-20.71-4.62-.87-.17-1.67.09-1.67,1.05-.17,6.61-.7,13.93.44,20.29a1.57,1.57,0,0,0,1,1c12.45,2,25.6.87,35.35-6.27,4.53-3.65,6-8.8,5.23-14.45-3.92-15.76-20.38-25.26-33.87-31.35a95.28,95.28,0,0,0-43.28-7.93c-2.48.19-6.41,1-6.44,1.92s4.45.6,3.91,2.26-5.09.68-6.44.27-1.22-2.36-.87-3.57c3.4-6,12.87-6.5,17.15-6.71,23.69-.61,46.59,8.41,61.65,20.72ZM68.35,145.28c-6,.09-12.37.7-17.94,2.79-1.13.43-2.53,1.65-1.66,3.13a28.9,28.9,0,0,0,8.54,7.32c3,1.76,7.05,4,10.71,4.52A100.74,100.74,0,0,0,68.78,146c-.35-.18,0-.52-.43-.7Zm180-7.92c-.26,7.57-7.31,12.27-7.31,19.85.26.26.43.61.78.44,5.66-6.19,11.23-15,19.51-17.59,2.18-.18,4.15,1.72,5,3.13a19,19,0,0,1-1.83,19.07c-4.13,5.13-11.32,10.28-19.5,9.41A111.64,111.64,0,0,0,237.88,198c-.69,1.83-2.35.18-3.39-.17-7.05-5.57-1.26-20.33-.78-22.21s2.36-6.3,3.74-10c-3.31-5.92-1.22-13.06,1.48-18.55a37.11,37.11,0,0,1,8.36-10.1,1.17,1.17,0,0,1,1,.44Zm14,9.4c-1-.17-1.48,1.22-2.35,1.48-4,4.53-8,9.06-10,14.46,2.7.34,5-1.4,7.32-2.35a12.73,12.73,0,0,0,6.26-11.5c-.17-.78-.87-1.39-1.22-2.09Z"/></svg>