<svg id="Layer_1" data-name="Layer 1" xmlns="http://www.w3.org/2000/svg" viewBox="0 0 300 300"><defs><style>.cls-1{fill:#fff;}</style></defs><path class="cls-1" d="M125.83,62.36a23.83,23.83,0,1,1,23.83,23.82A24,24,0,0,1,125.83,62.36Zm69.43,156.5c-16.1,9.35-33.37,11.82-45.26,11.84s-29.17-2.48-45.26-11.84c-2.64-1.47-4,1.1-3.5,3.35,5.47,22.46,25.14,39.12,48.62,39.26h.28c23.48-.14,43.15-16.79,48.62-39.26C199.31,220,197.9,217.38,195.26,218.86Zm-9.52-56.72A72.9,72.9,0,0,1,150,171.49c-9.39,0-23-2-35.74-9.35-2.08-1.17-3.19.87-2.76,2.65,4.31,17.73,19.85,30.88,38.38,31h.23c18.54-.11,34.07-13.26,38.38-31C188.93,163,187.82,161,185.74,162.14ZM175.59,113.8a52.29,52.29,0,0,1-51.18,0c-1.5-.84-2.29.62-2,1.89a28.69,28.69,0,0,0,27.49,22.19h.16a28.68,28.68,0,0,0,27.49-22.19C177.88,114.42,177.08,113,175.59,113.8Z"/></svg>