<svg id="Layer_1" data-name="Layer 1" xmlns="http://www.w3.org/2000/svg" viewBox="0 0 300 300"><defs><style>.cls-1{fill:#fff;}</style></defs><path class="cls-1" d="M220.65,66.94V86.1l13.12,4.08v19.26l-13.15-2.68V90.13l-13.15-3.31V61.49L168,45.12V83.68l-13.15-3.39V39.59l-13.1-5.38V265.79l13.16-5.67V230.57L168,226.32v28.21l79-34.07V77.87L220.65,66.94Zm-39.53,6.88,13.18,4.09V101l-13.18-2.68V73.82Zm-26.34,32.25,13.16,2.06v23.22l-13.16-.86V106.07ZM168,200.8l-13.18,2.69V178.2L168,176.62V200.8Zm26.33,3.77-13.18,3.35V163.67l-13.15.94V143.12l13.15.24v20.31l13.18-.91Zm0-82.76,13.18,1.51v20.61l-13.18-.24V121.82Zm26.36,87.56-13.18,4.25V192.13l13.18-2.83v20.07Zm13.17-22.81-13.18,2.85V133.17l13.18,1v52.44Z"/><path class="cls-1" d="M53,78.6V219L129.8,261.9V36.47Z"/></svg>