<svg id="Layer_1" data-name="Layer 1" xmlns="http://www.w3.org/2000/svg" viewBox="0 0 300 300"><defs><style>.cls-1{fill:#fff;fill-rule:evenodd;}</style></defs><title>DLTR_Dark_bg</title><path class="cls-1" d="M182.15,229.51a4.91,4.91,0,0,0-4,1.73,5.8,5.8,0,0,0-1.73,4.2,5.92,5.92,0,0,0,5.69,5.69,6.7,6.7,0,0,0,4.2-1.49,5.77,5.77,0,0,0,1.74-4.2,5.4,5.4,0,0,0-1.74-4.2,6,6,0,0,0-4.2-1.73Zm0,1a5,5,0,0,1,3.71,1.48,4.49,4.49,0,0,1,1.48,3.46,6.18,6.18,0,0,1-1.48,3.46,5,5,0,0,1-3.71,1.49,5.09,5.09,0,0,1-5-4.95,5.47,5.47,0,0,1,1.49-3.71,5.9,5.9,0,0,1,3.46-1.23ZM179.92,232v6.68h1.24v-2.72h1l1.48,2.72h1.49l-1.49-3a1.89,1.89,0,0,0,1.49-2c0-1-1-1.73-2.72-1.73Zm1.24,1h1c1,0,1.48.25,1.48,1s-.49,1-1.48,1h-1v-2Z"/><path class="cls-1" d="M140.6,173.62v48.47c-.49,11.87-.74,12.12-.74,12.61-.49.25-.74.74-1.48,1.48-.5.5-1.24,1.49-2,1.74s-1.24.74-1.73.74c0,.24-.25.24-.5.24a.87.87,0,0,1-.49.25c-.25.25-.25.25,0,.49h36.6v-.49c-.25-.25-.25-.25-.5-.25a8.8,8.8,0,0,0-1.48-.74,14.79,14.79,0,0,1-2-2,3.62,3.62,0,0,1-1.24-2c-.24-.5-.49-.75-.49-19.05v-93l-31.9,31.65a5.69,5.69,0,0,1,6.43,1.24c1.48,1.73,1.48,4.94,1.48,18.55Z"/><path class="cls-1" d="M58.5,150.37c0-3.21,0-6.43.25-9.4l81.6-81.61c3-.24,6.19-.49,9.4-.49a78.22,78.22,0,0,1,13.11,1L59.24,163.23a113,113,0,0,1-.74-12.86Z"/><path class="cls-1" d="M89.9,219.37a101.38,101.38,0,0,1-11.12-11.62L128.73,158c2-1,5.69-.5,7.17,1.23,1,1.49,1,2.48,1,13.11l-47,47Z"/><path class="cls-1" d="M207.37,79.4A81,81,0,0,1,219,90.53L168.55,141V118L207.37,79.4Z"/><path class="cls-1" d="M189.57,68a104.65,104.65,0,0,1,14.34,8.66L76.06,204.28a101.49,101.49,0,0,1-8.66-14.1L189.57,68Z"/><path class="cls-1" d="M167.8,60.6A97.46,97.46,0,0,1,185.36,66L65.67,186a85.4,85.4,0,0,1-5.44-17.56L167.8,60.6Z"/><path class="cls-1" d="M60,133.8a91.41,91.41,0,0,1,73.2-73.45L60,133.8Z"/><path class="cls-1" d="M221.22,206.26a86.27,86.27,0,0,1-11.37,11.87l-41.3-41.55v-23l52.67,52.67Z"/><path class="cls-1" d="M232.6,189.2a84.58,84.58,0,0,1-7.91,13.85l-56.14-56.14L179.43,136,232.6,189.2Z"/><path class="cls-1" d="M239.77,167.68A99.89,99.89,0,0,1,234.58,185L182.4,133.06l11.37-11.37,46,46Z"/><path class="cls-1" d="M211.33,104.13l10.38-10.39c8.66,11.38,15.34,24.23,18.06,38.82l-28.44-28.43Z"/><path class="cls-1" d="M208.36,107.09l32.4,32.65a74,74,0,0,1,.74,10.38,67,67,0,0,1-1,12.12L197,118.72l11.37-11.63Z"/></svg>