<svg id="Layer_1" data-name="Layer 1" xmlns="http://www.w3.org/2000/svg" viewBox="0 0 300 300"><defs><style>.cls-1{fill:#fff;}.cls-2{fill:#253c7a;}</style></defs><path class="cls-1" d="M234.54,109.38H30v28H55.76v25.1H30v28.17H235s35,.12,35-42.27c0-38.89-35.46-39-35.46-39"/><path class="cls-2" d="M126.83,170.39c-12.94,0-16.45-4.75-16.45-20.89s3.51-20.9,16.45-20.9,16.48,4.75,16.48,20.9-3.52,20.89-16.48,20.89"/><path class="cls-2" d="M108.39,156.28c0,9-3.82,13.16-13,13.16H76.4V130.15l0-.05h18.9c9.23,0,13,4.18,13,13.16Z"/><path id="path3860" class="cls-1" d="M91.72,138.47H89.59v22.59h2.13C94.15,161.06,95,160,95,157V142.55c0-3-.85-4.08-3.28-4.08"/><path id="path3862" class="cls-1" d="M126.83,136.77c-2,0-2.86,1.32-2.86,3.3v18.85c0,2,.88,3.31,2.86,3.31s2.89-1.34,2.89-3.31V140.07c0-2-.9-3.3-2.89-3.3"/><polygon class="cls-2" points="168.54 169.18 151.04 169.18 142.37 129.82 156.45 129.82 159.78 156.72 159.88 156.72 163.34 129.82 177.48 129.82 168.54 169.18"/><polygon class="cls-2" points="204.18 139.18 191.95 139.18 191.95 145.03 203.05 145.03 203.05 153.41 191.95 153.41 191.95 159.79 204.18 159.79 204.18 169.18 178.56 169.18 178.56 129.82 204.18 129.82 204.18 139.18"/><path class="cls-2" d="M240.43,169.18H227.18c-1.18,0-1.93-1.13-1.93-2.88v-8.66c0-3.36-.93-4.68-3.43-4.68H220v16.22h-13.4V129.82h20.73c7.75,0,11.52,3.2,11.52,10.92,0,4.95-2.69,8.09-7.06,8.58v.13c2.79.32,6.9,2.3,6.9,7.16v8.87c0,2.15.94,3.25,1.83,3.58"/><path id="path3866" class="cls-1" d="M221.78,137.42H220v7.94h2.12c2.45,0,3.34-2,3.34-4.23,0-2.83-1.6-3.71-3.63-3.71"/></svg>