<svg id="Layer_1" data-name="Layer 1" xmlns="http://www.w3.org/2000/svg" viewBox="0 0 300 300"><defs><style>.cls-1{isolation:isolate;}.cls-2{fill:#eb192e;}.cls-3{fill:#fff;}</style></defs><title>DOW_Logo_Dark</title><g class="cls-1"><path class="cls-2" d="M219.14,175.75a6.84,6.84,0,0,1,3.29.87,6.09,6.09,0,0,1,2.51,2.47,6.72,6.72,0,0,1,0,6.7,6.19,6.19,0,0,1-2.48,2.49,6.76,6.76,0,0,1-6.67,0,6.25,6.25,0,0,1-2.48-2.49,6.71,6.71,0,0,1-.89-3.33,6.84,6.84,0,0,1,.9-3.37,6.15,6.15,0,0,1,2.51-2.47A6.84,6.84,0,0,1,219.14,175.75Zm0,1.11a5.71,5.71,0,0,0-2.75.72,5.25,5.25,0,0,0-2.1,2.08,5.6,5.6,0,0,0,0,5.58,5.31,5.31,0,0,0,2.08,2.07,5.59,5.59,0,0,0,5.56,0,5.28,5.28,0,0,0,2.07-2.07,5.7,5.7,0,0,0,.74-2.78,5.56,5.56,0,0,0-.76-2.8,5.17,5.17,0,0,0-2.09-2.08A5.73,5.73,0,0,0,219.14,176.86Zm-2.94,9.31V179h2.47a6.16,6.16,0,0,1,1.84.2,1.75,1.75,0,0,1,.91.7,1.88,1.88,0,0,1,.34,1.06,1.91,1.91,0,0,1-.57,1.37,2.22,2.22,0,0,1-1.49.66,2,2,0,0,1,.61.38,8,8,0,0,1,1.06,1.43l.89,1.42h-1.43l-.64-1.14a5.59,5.59,0,0,0-1.21-1.68,1.5,1.5,0,0,0-.94-.25h-.68v3.07Zm1.16-4.07h1.41a2.26,2.26,0,0,0,1.38-.3,1,1,0,0,0,.19-1.37,1,1,0,0,0-.49-.38,3.79,3.79,0,0,0-1.17-.12h-1.32Z"/></g><path class="cls-2" d="M20,150l130-44.2L280,150,150,194.2"/><path class="cls-3" d="M87.23,164.59h-.1c0,.68-1.66,1.23-3.71,1.25v1.94h26.75c5.75,0,14.67-7.09,14.67-17.6,0-9.71-7.89-18.15-14.67-18.15H83.42v1.74h0c2,0,3.55.51,3.75,1.14h0V135s0,0,0,.08,0,0,0,.06Zm8.19-25h14c2.75,0,7.83,3.67,7.84,10.45,0,6.54-4.36,9.89-7.84,9.89h-14Zm72.85,13.52c0-8.87-7.47-16.06-18.87-16.06s-18.87,7.22-18.87,16.06c0,9.13,6.44,15.14,16.45,16h4.84C161.84,168.24,168.27,162.23,168.27,153.1Zm-29.47.43c0-5,4.19-9,10.63-9s10.62,4,10.62,9-4.18,9-10.62,9S138.8,158.5,138.8,153.53Zm72.87,11.39s10.18-22.77,10.2-22.79a2.62,2.62,0,0,1,1.64-1c.26-.05,1.43,0,1.43,0v-2.22l-14.27.05v2.16h.47c1.75,0,2,.55,2,1.19l-5.56,14.59-6.3-17-4.71,0h-4.94l-5.84,16.33-4.74-14h.07c0-1.1.71-1.19,1.78-1.19V139H169V141c2.19,0,2,.5,2.43,1.19,0,0,0,0,0,0l8.47,21.89a1.9,1.9,0,0,1,.08.68c0,1.21-1,1.42-2.29,1.45v2.05l15.19.06v-2h0c-1.6,0-2.2-.3-2.2-1.45a.7.7,0,0,1,.16-.5l5.75-12.51s4.91,12.54,4.91,13c0,1.09-.38,1.48-1.75,1.48v2l14.09-.11v-2C211.66,166.3,211.64,165.85,211.67,164.92Z"/></svg>