<svg id="Layer_1" data-name="Layer 1" xmlns="http://www.w3.org/2000/svg" viewBox="0 0 300 300"><defs><style>.cls-1{fill:#fff;}.cls-2{fill:#006491;}.cls-3{fill:#e31837;}</style></defs><title>DPZ_Dark_bg</title><path id="path3022" class="cls-1" d="M113.88,113.75l61.7-61.69c4.6-4.6,9.82-5.47,15.42,0l57.34,57.34a9.87,9.87,0,0,1,0,14L123.59,248.08c-4.48,4.48-10.33,5.23-15.55,0L51.94,192a11.17,11.17,0,0,1,0-15.68Z"/><path id="path3000" class="cls-2" d="M114.88,120.1l64.55,64.55-58.71,58.7c-3.6,3.61-7.33,3.74-11.07,0L55.92,189.62c-3.36-3.36-3.11-7.09,0-10.2Z"/><path id="path3002" class="cls-3" d="M183.54,180.79,119,116.24l58.71-58.71c3.61-3.6,7.34-3.73,11.07,0l53.73,53.73c3.36,3.36,3.11,7.09,0,10.2Z"/><circle class="cls-1" cx="183.16" cy="116.36" r="15.92"/><circle class="cls-1" cx="138.51" cy="184.65" r="15.92"/><circle class="cls-1" cx="91.99" cy="184.65" r="15.92"/></svg>