<svg id="Layer_1" data-name="Layer 1" xmlns="http://www.w3.org/2000/svg" viewBox="0 0 300 300"><defs><style>.cls-1{fill:#fff;}.cls-1,.cls-2{fill-rule:evenodd;}.cls-2{fill:#772022;}</style></defs><path class="cls-1" d="M111.2,55.93l4,2.45C132,68.8,144.45,82.22,152,98a87.51,87.51,0,0,1,5.89,17.67c4.19,21-5.1,45.6-27.07,71.86a206.17,206.17,0,0,1-26.4,25.68,239.44,239.44,0,0,1-50.23,30.1c-1.12.52-1.91.89-1.77.93.51,0,10.21-3,16-5,27-9.26,51-22.51,69.6-38.28a171.55,171.55,0,0,0,17.85-18.21c10.29-12.85,16.35-25.31,19.07-39.17a74.12,74.12,0,0,0,.55-20c-3.54-25.3-21.7-47.06-51.8-62.21-5-2.5-13.93-6.41-12.43-5.42"/><path class="cls-2" d="M240.66,84a199.59,199.59,0,0,0-53.13,12.26c-6,2.36-16.31,7-17.16,7.8a8.68,8.68,0,0,1-1.74,1,24.86,24.86,0,0,0-2.22,1.23,19,19,0,0,1-1.87,1.09c-.48.23-2.62,1.6-4.77,3-24.31,16.18-35.76,37.05-30.24,55.07.92,3.07,3.34,8.28,3.74,8s6.38-9.4,8.21-12.63c1.61-2.8,1.61-2.83,1.61-6a35.81,35.81,0,0,1,3.84-16.21c7.6-15.63,25.21-30.08,50-41a192.27,192.27,0,0,1,47-13.36c2-.3,3.64-.61,3.75-.67.2-.25-1.5-.14-7,.33m-78.4,103.81c-1.36,1.53-3.27,3.68-4.26,4.77-2,2.28-2.28,2,2.63,4.09a100.64,100.64,0,0,0,14.4,5l3.82,1,3.64-3.88c2-2.18,3.71-4.05,3.78-4.19a18.43,18.43,0,0,0-4-1.7,97.73,97.73,0,0,1-14.2-6.27A25.34,25.34,0,0,0,165,185a25.59,25.59,0,0,0-2.72,2.83"/></svg>