<svg id="Layer_1" data-name="Layer 1" xmlns="http://www.w3.org/2000/svg" viewBox="0 0 300 300"><defs><style>.cls-1{fill:#fff;fill-rule:evenodd;}</style></defs><path id="Layer" class="cls-1" d="M194,127H168.86v67.87H136.22V127H111V105.2h83Zm43.86-.35v12.66h40.86v19.89H237.86V168a5,5,0,0,0,5,5h38v21.57H227.73a21.28,21.28,0,0,1-21.28-21.29V105.15h74v21.48ZM74.43,194.78H19.18V105.29H74.26a26.35,26.35,0,0,1,26.35,26.35v37A26.18,26.18,0,0,1,74.43,194.78Zm-4-28.3V133.19a6.86,6.86,0,0,0-6.85-6.86H51.5v47H63.58A6.86,6.86,0,0,0,70.43,166.48Z"/></svg>