<svg id="Layer_1" data-name="Layer 1" xmlns="http://www.w3.org/2000/svg" viewBox="0 0 300 300"><defs><style>.cls-1{fill:#fff;}</style></defs><title>DUK_Dark_bg</title><g id="g3153"><path id="path3155" class="cls-1" d="M179.12,230.5c-.37.39-8.2,8.66-17.71,9.24-10.38.6-20.25-5.68-23.3-28.61l-41.4-12.2c18.14,64.4,68.54,62.17,85.44,33.8,1.16-1.81.84-2.79,0-3.26s-2-.11-3,1"/></g><g id="g3157"><path id="path3159" class="cls-1" d="M179.08,61.29c-16.63-33.67-75.85-.45-86,85.64-.67,5.69,2.11,8.6,4.54,9.87,5.43,2.83,8.26,3.94,16.87,5.62,5.59,1.07,9,1.48,13.85,1.15a8.67,8.67,0,0,0,8.31-7.54c8.8-92.48,29.88-113.1,39.66-93.27,1.15,2.28,4,1.26,2.78-1.47"/></g><g id="g3161"><path id="path3163" class="cls-1" d="M169,90.39c-4.67-.1-8.28.83-10.59,4.64s-3.7,8.32-4.71,14.2c-.9,5.17-1.74,13-.94,15.51a6.41,6.41,0,0,0,6.12,4.66c18.88,1.17,74.25,9.07,81.84,25.16,5.21,11.07-10.27,13.9-21.64,16.84-4.33,1.12-6.94,4-7.44,7.44-1.29,9,1,13.58,3.08,16.6,1.4,2.11,4.17,3.38,7.7,1.27,8.41-5,15.32-13.8,15.61-14.19,37-51.68-40.71-91.57-69-92.13"/></g><g id="g3165"><path id="path3167" class="cls-1" d="M188,174.94C95.11,185.16,21.79,142.74,77.3,132.45c.26,0,7.07-1.63,8.42-5.64s1.73-5.31,3.3-11c1-3.63,1.82-5.7,2.76-8.5,1.46-4.35-1.26-7-7.44-3.93-50.7,24.74-35.66,71,5.51,94.21,44.64,25.17,85.85,16,89.81,14.84s8-2.12,12.25-8.53c2.33-4.27,6-9.53,5-21.27,0-.08-.17-8.6-8.91-7.64"/></g></svg>