<svg id="Layer_1" data-name="Layer 1" xmlns="http://www.w3.org/2000/svg" viewBox="0 0 300 300"><defs><style>.cls-1{fill:#fff;}</style></defs><path class="cls-1" d="M105.66,157.75a43.23,43.23,0,0,1-3.5,11.73,52,52,0,0,1-47.85,31.4H19V180.55H54.28a30.23,30.23,0,0,0,21.79-8.82,32,32,0,0,0,8.07-14Zm0-15.5a43.23,43.23,0,0,0-3.5-11.73,52.12,52.12,0,0,0-11.07-16.27A52.66,52.66,0,0,0,54.28,99.12H19v20.33H54.28a30.23,30.23,0,0,1,21.79,8.82,32,32,0,0,1,8.07,14ZM150,166.91l-27,34H96.26L136.65,150,96.28,99.12H123l27,33.95,27-33.95h26.76L163.32,150l40.4,50.86H177l-27-34Zm65.86-9.16a32.05,32.05,0,0,0,8.07,14,30.23,30.23,0,0,0,21.79,8.82H281v20.33H245.72a51.93,51.93,0,0,1-47.84-31.4,42.53,42.53,0,0,1-3.5-11.73Zm0-15.5a32.05,32.05,0,0,1,8.07-14,30.23,30.23,0,0,1,21.79-8.82H281V99.12H245.72a52.5,52.5,0,0,0-36.78,15.14,51.86,51.86,0,0,0-11.06,16.27,42.37,42.37,0,0,0-3.5,11.72Z"/></svg>