<svg id="Layer_1" data-name="Layer 1" xmlns="http://www.w3.org/2000/svg" viewBox="0 0 300 300"><defs><style>.cls-1{fill:#63a844;}</style></defs><title>DXCM_Light_bg</title><path class="cls-1" d="M117.58,155.21l-.4.4c-.2.2-5.35,5.35-7.18,10.5h-9c2-7.69,11.93-15.57,12-15.65l.51-.4-.51-.4c-.12-.12-8.68-7.29-11.93-15.34h9.07A22.92,22.92,0,0,0,117,144.51l.32.32.31-.32a25,25,0,0,0,7.06-10.19h9.08c-3.45,8.09-12,15.26-12.13,15.34l-.52.4.52.4c.12.11,10,7.88,12.21,15.65h-9c-1.71-5-7.06-10.3-7.29-10.5v-.4Z"/><path class="cls-1" d="M78.09,152.4c7.77,0,13.64-1.43,18.71-4.64a11.91,11.91,0,0,0,.4-2.81c0-5.28-3.53-11.3-13.44-11.3-10.5,0-15.65,5.47-15.65,16.57,0,11.57,4.59,16.53,15.49,16.53a20.41,20.41,0,0,0,12.65-4.05c-1-.51-4.56-2.22-5-2.53-.72.79-3,1.62-6.86,1.62-4.76,0-6.78-2-6.78-8.88v-.51Zm-.55-4v-.59c0-4.84.71-9.59,6.38-9.59,2.93,0,5,1.42,5,5a7.66,7.66,0,0,1-.6,2.42l-.12.2-.31.2c-2.82,1.5-4.36,2.33-9.8,2.33Z"/><path class="cls-1" d="M44.2,133.17H31.68v33.54H44.2c11.54-.08,17.17-5.51,17.17-16.85S55.7,133.17,44.2,133.17Zm1.87,28.42-1.51.12H40.91V138.37h3.61a8.54,8.54,0,0,1,2.54.39c2.93,1.51,4.36,4.44,4.36,11.22C51.42,157.47,49.71,160.48,46.07,161.59Z"/><path class="cls-1" d="M265.83,138.56a8.69,8.69,0,0,1-.56-.83c-.12-.12-.2-.2-.32-.2a1,1,0,0,0,.8-.39,1.23,1.23,0,0,0,.31-.8,2,2,0,0,0-.19-.59,1,1,0,0,0-.52-.4,2.14,2.14,0,0,0-1-.12h-1.43v4.05h.6v-1.63h.39a.73.73,0,0,1,.52.12,2.9,2.9,0,0,1,.71.91l.4.6h.79Zm-1.47-1.42h-.79v-1.23h.71c.32,0,.52,0,.59.12s.2.12.32.2a.34.34,0,0,1,.12.31.76.76,0,0,1-.2.4A1.1,1.1,0,0,1,264.36,137.14Z"/><path class="cls-1" d="M267.81,135.43a3.32,3.32,0,0,0-1.43-1.42,3.46,3.46,0,0,0-3.65,0,3.25,3.25,0,0,0-1.42,1.42,4,4,0,0,0-.52,1.91,3.71,3.71,0,0,0,.52,1.82,4.12,4.12,0,0,0,1.42,1.43,4.08,4.08,0,0,0,1.83.51,3.78,3.78,0,0,0,1.82-.51,4.16,4.16,0,0,0,1.43-1.43,4.08,4.08,0,0,0,.51-1.82A3.6,3.6,0,0,0,267.81,135.43Zm-.52,3.41a2.87,2.87,0,0,1-1.11,1.11,2.65,2.65,0,0,1-1.5.4,2.75,2.75,0,0,1-1.51-.4,4.76,4.76,0,0,1-1.23-1.11,2.65,2.65,0,0,1-.4-1.5,3.5,3.5,0,0,1,.4-1.63,2.53,2.53,0,0,1,1.23-1.11,2.68,2.68,0,0,1,1.51-.4,3,3,0,0,1,1.5.4,4.76,4.76,0,0,1,1.23,1.11,2.83,2.83,0,0,1,.4,1.63A4.19,4.19,0,0,1,267.29,138.84Z"/><path class="cls-1" d="M265.83,138.56a8.69,8.69,0,0,1-.56-.83c-.12-.12-.2-.2-.32-.2a1,1,0,0,0,.8-.39,1.23,1.23,0,0,0,.31-.8,2,2,0,0,0-.19-.59,1,1,0,0,0-.52-.4,2.14,2.14,0,0,0-1-.12h-1.43v4.05h.6v-1.63h.39a.73.73,0,0,1,.52.12,2.9,2.9,0,0,1,.71.91l.4.6h.79Zm-1.47-1.42h-.79v-1.23h.71c.32,0,.52,0,.59.12s.2.12.32.2a.34.34,0,0,1,.12.31.76.76,0,0,1-.2.4A1.1,1.1,0,0,1,264.36,137.14Z"/><path class="cls-1" d="M265.83,138.56a8.69,8.69,0,0,1-.56-.83c-.12-.12-.2-.2-.32-.2a1,1,0,0,0,.8-.39,1.23,1.23,0,0,0,.31-.8,2,2,0,0,0-.19-.59,1,1,0,0,0-.52-.4,2.14,2.14,0,0,0-1-.12h-1.43v4.05h.6v-1.63h.39a.73.73,0,0,1,.52.12,2.9,2.9,0,0,1,.71.91l.4.6h.79Zm-1.47-1.42h-.79v-1.23h.71c.32,0,.52,0,.59.12s.2.12.32.2a.34.34,0,0,1,.12.31.76.76,0,0,1-.2.4A1.1,1.1,0,0,1,264.36,137.14Z"/><path class="cls-1" d="M249.93,166V142.69c0-3.33-.4-4.36-2.81-4.36a7.2,7.2,0,0,0-6.07,3l-.12.12V166h-9V142.65c0-3.33-.39-4.36-2.81-4.36a7.17,7.17,0,0,0-6.06,3l-.12.12V166h-8.88V140.7c0-2.14-2.14-4.12-4.44-5.35,1.82-.51,6.86-2,7.17-2.14,1,.4,3.45,1.51,4.12,2.54l.32.4.4-.32a19.18,19.18,0,0,1,9.27-2.54c3.85,0,6.58.72,8.17,2.22l.32.2.31-.12a22.61,22.61,0,0,1,9.08-2.34c7.29,0,9.91,2.94,9.91,5.67v27c-.67.11-7.85.11-8.76.11Z"/><path class="cls-1" d="M148.77,150.18c0,8.48,2.34,11.61,7.29,11.61,3.73,0,5.67-.71,6.39-1.5.59.31,4.12,2.14,5.15,2.61a18.33,18.33,0,0,1-11.73,3.93c-11,0-16.77-5.75-16.77-16.57s5.75-16.57,16.77-16.57a18.34,18.34,0,0,1,11.73,3.92c-1,.52-4.56,2.34-5.15,2.62-.72-.79-2.54-1.51-6.27-1.51-5.07-.16-7.41,2.86-7.41,11.46Z"/><path class="cls-1" d="M187.9,133.49c-10,0-16.06,6.14-16.06,16.57s5.95,16.57,16.06,16.57,15.85-6.15,15.85-16.57S197.88,133.49,187.9,133.49Zm0,27.91c-4.37,0-6.27-2.74-6.27-11.22S183.53,139,187.9,139s6.06,2.62,6.06,11.22S192.22,161.4,187.9,161.4Z"/></svg>