<svg id="Layer_1" data-name="Layer 1" xmlns="http://www.w3.org/2000/svg" viewBox="0 0 300 300"><defs><style>.cls-1{fill:#e43238;}.cls-2{fill:#3566af;}.cls-3{fill:#f2ae1c;}.cls-4{fill:#85b940;}</style></defs><title>EBAY_Dark_bg</title><path class="cls-1" d="M58.16,122c-17.47,0-32,7.42-32,29.78,0,17.72,9.79,28.88,32.48,28.88,26.72,0,28.43-17.6,28.43-17.6h-13s-2.77,9.48-16.26,9.48c-11,0-18.9-7.43-18.9-17.84H88.39v-6.53C88.39,137.9,81.86,122,58.16,122Zm-.45,8.35c10.46,0,17.6,6.41,17.6,16H39.21C39.21,136.19,48.52,130.37,57.71,130.37Z"/><path class="cls-2" d="M88.38,100.37v69.08c0,3.92-.28,9.43-.28,9.43h12.35s.44-4,.44-7.57c0,0,6.1,9.54,22.69,9.54,17.46,0,29.32-12.13,29.32-29.5,0-16.16-10.89-29.16-29.29-29.16-17.24,0-22.59,9.31-22.59,9.31V100.37Zm32,30.37c11.86,0,19.4,8.8,19.4,20.61,0,12.67-8.71,21-19.31,21-12.66,0-19.49-9.89-19.49-20.85C101,141.26,107.15,130.74,120.42,130.74Z"/><path class="cls-3" d="M183.59,122c-26.29,0-28,14.4-28,16.7H168.7s.68-8.41,14-8.41c8.65,0,15.34,4,15.34,11.57v2.7H182.68c-20.36,0-31.13,6-31.13,18,0,11.9,9.95,18.37,23.39,18.37,18.32,0,24.23-10.12,24.23-10.12,0,4,.31,8,.31,8h11.63s-.45-4.91-.45-8.06v-27.2c0-17.83-14.39-21.59-27.07-21.59ZM198,152.71v3.6c0,4.71-2.9,16.42-20,16.42-9.37,0-13.38-4.68-13.38-10.1C164.64,152.77,178.16,152.71,198,152.71Z"/><path class="cls-4" d="M203.61,124.28h14.72l21.13,42.33,21.08-42.33h13.33l-38.39,75.35h-14l11.08-21-29-54.35Z"/></svg>