<svg id="Layer_1" data-name="Layer 1" xmlns="http://www.w3.org/2000/svg" viewBox="0 0 300 300"><defs><style>.cls-1{fill:#fff;fill-rule:evenodd;}</style></defs><path id="path44" class="cls-1" d="M151,125.83c-4-.39-6.51.66-9.41,1.34-20.1-11.89-42.32-25.26-62.43-34.91,17.73,14,36.77,26.79,53,42.3-1.94.3-1.58,2.89-3.35,3.36-19.71-10.29-40.13-23.44-59.08-32.23,18.88,14.47,38.11,28.57,56.4,43.64-.45,3.81.61,6.1,1.34,8.73-11,20.95-25,42.57-34.24,63.12,13.69-17.88,26.3-36.81,41.62-53.05.3,1.94,2.89,1.58,3.36,3.36-9.51,20.25-23.45,39.67-31.55,59.08,13.79-19.32,28.56-37.68,43-56.4a20.7,20.7,0,0,0,9.39-1.34c20.1,11.68,42.26,24.88,62.44,34.24-18-13.29-35.91-26.74-53-40.95,1.78-.68,1.82-3.11,3.36-4,19.9,9.87,40,23.13,59.08,31.55q-28.33-21-55.73-43c-.29-3.28-1.37-5.78-1.33-9.39,11.24-20.54,24.74-42.39,34.23-62.45-13.76,17.79-26.91,36.2-41.62,53.05-1.19-1.28-2.85-2.09-4-3.36,10.5-19.49,23.24-40.31,32.23-59.09-14.51,18.84-28.58,38.12-43.64,56.4m-6.72-76.54h12.09C192.62,52.76,218,69.63,234.24,95c16.59,25.81,22.64,64.61,7.39,97.35-15.09,32.38-41.89,53.36-85.27,58.41H144.27c-28.89-2-50.42-15.19-66.47-31.55A98.16,98.16,0,0,1,49.61,150c0-58.21,41.92-94.35,94.66-100.71"/></svg>