<svg id="Layer_1" data-name="Layer 1" xmlns="http://www.w3.org/2000/svg" viewBox="0 0 300 300"><defs><style>.cls-1{fill:#fff;}</style></defs><path id="path2892" class="cls-1" d="M256.7,216.37H132.79a66.38,66.38,0,1,1,0-132.76H256.7V60.52H132.79a89.48,89.48,0,1,0,0,179H256.7Z"/><path id="path2896" class="cls-1" d="M83.27,150.18a51.5,51.5,0,0,0,51.44,51.44H256.53v-23.1H134.71a28.34,28.34,0,0,1,0-56.68H256.53V98.74H134.71a51.5,51.5,0,0,0-51.44,51.44"/><path id="path2900" class="cls-1" d="M256.7,138.55H133.94a11.55,11.55,0,0,0,0,23.1H256.7Z"/></svg>