<svg id="Layer_1" data-name="Layer 1" xmlns="http://www.w3.org/2000/svg" viewBox="0 0 300 300"><path d="M267.66149,133.20233a3.63119,3.63119,0,0,1,.48833-1.831,3.58184,3.58184,0,0,1,1.34267-1.34766,3.68339,3.68339,0,0,1,3.66516-.00984,3.57723,3.57723,0,0,1,1.34751,1.34517,3.68252,3.68252,0,0,1,.01317,3.66467,3.66971,3.66971,0,0,1-6.85684-1.82134Zm.60066,0a3.01344,3.01344,0,0,0,.40517,1.52584,3.051,3.051,0,0,0,1.11817,1.1255,3.06619,3.06619,0,0,0,4.21865-1.13517,3.08744,3.08744,0,0,0-.00484-3.03233,3.017,3.017,0,0,0-1.11168-1.13283,2.9812,2.9812,0,0,0-1.55433-.42234,3.07462,3.07462,0,0,0-3.07114,3.07133Zm4.68717-.85933a1.17439,1.17439,0,0,1-.22133.708,1.49669,1.49669,0,0,1-.638.4785l1.03017,1.82133h-.97651l-.83985-1.58683h-.44433v1.58683h-.86917v-4.28716h1.3135Q272.94933,131.06367,272.94932,132.343Zm-2.08967.71767h.35152a.98757.98757,0,0,0,.62983-.17584.585.585,0,0,0,.21967-.48333.5348.5348,0,0,0-.22132-.49317,1.20737,1.20737,0,0,0-.62818-.13666h-.35152Z" fill="#fff"/><polygon points="57.998 146.833 59.498 139.833 44.332 139.833 45.666 133.833 62.998 133.833 64.498 126.667 33 126.667 25 162 57.498 162 58.998 154.5 41.166 154.5 42.832 146.833 57.998 146.833" fill="#fff"/><path d="M100.16283,146.83333c.66667-3.33333,1.16667-6.5,1.16667-6.5,1.99984-11-8.9995-11-15.99916-11.16667-10.16617-.33333-18.83234-.33333-21.99884,12.16667a77.285,77.285,0,0,0-1.99983,11.5C60.83167,163,71.6645,162.66667,77.4975,163a31.3148,31.3148,0,0,0,9.4995-1l9.66616,11.33333H111.329l-22.16567-26.5Zm-11.33283-6a67.34963,67.34963,0,0,1-2.99984,12c-1,2.83334-4.33316,4.33334-6.833,4.33334-2.83316,0-5.99966-1.5-5.16633-5.66667a75.53712,75.53712,0,0,1,2.99983-12s1.83317-4.66667,6.833-4.33333C83.66366,135.16667,89.99666,134.16667,88.83,140.83333Z" fill="#fff"/><path d="M130.49449,130.66667,125.32816,153.5c-1,4.16667-6.16633,3.5-6.16633,3.5a3.70373,3.70373,0,0,1-3.99983-3.66667c.83333-4.5,4.99967-22.5,4.99967-22.5H107.329C106.329,134.5,103.1625,149,103.1625,149l11.83266,13.83333a52.92308,52.92308,0,0,0,7.99967.5c9.83283-.5,14.166-4.33333,14.99917-7.16666.83333-2.83334,5.833-25.33333,5.833-25.33333H130.49433Z" fill="#fff"/><polygon points="148.327 130.667 141.494 162 154.327 162 161.493 130.667 148.327 130.667" fill="#fff"/><polygon points="189.658 142.5 176.825 142.5 178.325 136.667 193.158 136.667 194.658 130.667 166.326 130.667 159.493 162 172.492 162 175.659 148.5 188.325 148.5 189.658 142.5" fill="#fff"/><path d="M252.15482,130.66667l-8.16617,8-4.99967-8H222.32315L232.656,146.33333,222.15649,156,218.99,130.66667H203.32416L181.15849,162h9.16617l4.66649-7h13.666l.66667,6.83333h19.499l8.9995-9.33333,5.49967,9.33333h15.99917l-10.9995-16.66666,16.49918-14.5Zm-52.83049,17.66666L206.49066,138l1,10.33333Z" fill="#fff"/></svg>