<svg id="Layer_1" data-name="Layer 1" xmlns="http://www.w3.org/2000/svg" viewBox="0 0 300 300"><path d="M250,171.84086V184.932c-18.04219,11.66075-37.26717,13.20119-56.624,5.38072-15.15048-6.121-23.83633-18.40509-24.67846-34.876-.35646-6.96914-.25347-14.35938,1.706-20.96306,4.194-14.13472,14.172-23.80136,28.715-27.338,17.30887-4.20923,34.27935-3.06372,50.04542,7.1042v11.29776c-21.493-18.70147-47.47643-19.90887-62.23043-3.42295-14.22225,15.89178-12.81,44.05116,2.90219,57.86756C206.47676,194.6155,232.74557,191.44076,250,171.84086Z" fill="#fff"/><path d="M57.7431,151.031v34.73374H99.82377v7.23533H50V105.07359H99.06827V110.875s-33.50589.08131-40.99688.08131v34.59589h37.079V151.031C88.87129,151.43716,65.257,151.031,57.7431,151.031Z" fill="#fff"/><path d="M114.98477,106.177h7.01728c.29259,26.047-.00539,52.07462.18152,79.25486h42.366c.26448,2.9554.43046,4.81.66616,7.44419-16.79962,0-33.05241,0-49.31036.00514C113.83391,183.61963,113.20963,130.66318,114.98477,106.177Z" fill="#fff"/></svg>