<svg id="Layer_1" data-name="Layer 1" xmlns="http://www.w3.org/2000/svg" viewBox="0 0 300 300"><path d="M241.45013,136.65468h17.65615l5.67728,18.81065h.09179V136.65468H275v26.68865H257.65431l-5.98918-19.34842h-.0884v19.34842H241.45038V136.65468Z" fill="#fff"/><path d="M213.30066,163.32113l4.28622-10.11082V143.0198h5.1506v10.19051l4.643,10.11082h12.20364l-10.96315-26.672H212.37579l-10.783,26.672h11.70791Z" fill="#fff"/><path d="M155.62961,136.65468H173.064l4.009,14.60556h.0884l3.96231-14.60556h17.38867v26.68865H187.85753V142.38856h-.17671l-6.029,20.95477H171.832l-6.00991-20.95477h-.02081l.02081,20.95477H155.62978V136.65468Z" fill="#fff"/><path d="M153.46747,144.5271h-10.142v18.81344h-11.8V144.5271H121.38167v-7.87589h32.08572v7.87589Z" fill="#fff"/><path d="M119.13646,143.95884a31.65732,31.65732,0,0,0-9.11291-1.33748c-1.85033,0-5.06414.03811-5.06414,1.75854,0,3.47885,16.15926.19233,16.15926,10.47462,0,7.15172-8.14617,8.94824-14.96868,8.94824a61.05166,61.05166,0,0,1-12.68016-1.263v-6.91955a32.377,32.377,0,0,0,10.56649,1.7602c2.77367,0,5.28231-.49894,5.28231-1.83477,0-3.59664-16.15791-.34476-16.15791-10.70678,0-7.34049,8.80448-8.64163,15.80583-8.64163a60.12615,60.12615,0,0,1,10.16974.91822v6.84333Z" fill="#fff"/><path d="M25,136.65468H51.636v6.42408H36.5356v3.78377h14.442v6.42408H36.5356v3.63129H51.94645v6.42573h-26.945V136.655Z" fill="#fff"/><path d="M65.67879,163.37658l4.2896-10.11082V143.07347h5.1473v10.19229l4.643,10.11082H91.96405L81.00251,136.70319H64.756L53.96952,163.37658H65.67879Z" fill="#fff"/></svg>