<svg id="Layer_1" data-name="Layer 1" xmlns="http://www.w3.org/2000/svg" xmlns:xlink="http://www.w3.org/1999/xlink" viewBox="0 0 300 300"><defs><style>.cls-1{fill:none;}.cls-2{clip-path:url(#clip-path);}.cls-3{fill:url(#linear-gradient);}.cls-4{clip-path:url(#clip-path-2);}.cls-5{fill:url(#linear-gradient-2);}.cls-6{clip-path:url(#clip-path-3);}.cls-7{fill:url(#linear-gradient-3);}.cls-8{clip-path:url(#clip-path-4);}.cls-9{fill:url(#linear-gradient-4);}.cls-10{clip-path:url(#clip-path-5);}.cls-11{fill:url(#linear-gradient-5);}.cls-12{clip-path:url(#clip-path-6);}.cls-13{fill:url(#linear-gradient-6);}.cls-14{clip-path:url(#clip-path-7);}.cls-15{fill:url(#linear-gradient-7);}.cls-16{clip-path:url(#clip-path-8);}.cls-17{fill:url(#linear-gradient-8);}.cls-18{clip-path:url(#clip-path-9);}.cls-19{fill:url(#linear-gradient-9);}.cls-20{clip-path:url(#clip-path-10);}.cls-21{fill:url(#linear-gradient-10);}.cls-22{clip-path:url(#clip-path-11);}.cls-23{fill:url(#linear-gradient-11);}</style><clipPath id="clip-path"><path class="cls-1" d="M139.1,47a2.26,2.26,0,0,0-.12,1.45c.76,1.94,55.42,69,55.42,69L222,128.86c8.86,3.81,10.64,2.81,11.24,2.13l.14-.23c.53-1-1-3.18-3.2-5.93L157.69,36.05c-6.76-8.1-6.17-9.71-5.84-10.53Z"/></clipPath><linearGradient id="linear-gradient" x1="-1108.38" y1="-188.92" x2="-1101.13" y2="-188.92" gradientTransform="translate(14832.74 12365.16) rotate(30.29) scale(17.05)" gradientUnits="userSpaceOnUse"><stop offset="0" stop-color="#949698"/><stop offset="0.1" stop-color="#9ea0a3"/><stop offset="0.28" stop-color="#bcbebf"/><stop offset="0.5" stop-color="#e8e8e8"/><stop offset="0.6" stop-color="#dddedf"/><stop offset="0.77" stop-color="#c3c3c5"/><stop offset="0.99" stop-color="#96989a"/><stop offset="1" stop-color="#949698"/></linearGradient><clipPath id="clip-path-2"><path class="cls-1" d="M102.91,108.12l-.07.14c-.58,1,.82,3.34,3,6.08l5.28,6.48,45,18.69-14.45-17.7-27.61-11.48c-5-2.18-7.78-2.78-9.31-2.78h0a2.38,2.38,0,0,0-1.81.57"/></clipPath><linearGradient id="linear-gradient-2" x1="-1077.27" y1="-220.58" x2="-1070.02" y2="-220.58" gradientTransform="matrix(7.36, 4.3, -4.3, 7.36, 7080.24, 6360.12)" gradientUnits="userSpaceOnUse"><stop offset="0" stop-color="#949698"/><stop offset="0.21" stop-color="#9ea0a3"/><stop offset="0.57" stop-color="#bcbebf"/><stop offset="1" stop-color="#e8e8e8"/></linearGradient><clipPath id="clip-path-3"><path class="cls-1" d="M115.82,86.54a1.86,1.86,0,0,0-.39.4L102.8,108.27a1.43,1.43,0,0,1,.11-.15c.65-.66,2.54-1.51,11.16,2.21l99.79,41.49c1.51.55,5,1.64,6.4.83a3.14,3.14,0,0,0,.6-.71l12.44-21-.06.06c-.6.68-2.38,1.68-11.25-2.13L122.14,87.35a16.82,16.82,0,0,0-4.92-1.1,2.85,2.85,0,0,0-1.4.29"/></clipPath><linearGradient id="linear-gradient-3" x1="-1108.52" y1="-186.54" x2="-1101.27" y2="-186.54" gradientTransform="translate(14885.85 12414) rotate(30.29) scale(17.11)" gradientUnits="userSpaceOnUse"><stop offset="0" stop-color="#144985"/><stop offset="0.2" stop-color="#144985"/><stop offset="0.27" stop-color="#165591"/><stop offset="0.42" stop-color="#5177aa"/><stop offset="0.51" stop-color="#7289b7"/><stop offset="0.56" stop-color="#5c7dae"/><stop offset="0.73" stop-color="#1b5792"/><stop offset="0.8" stop-color="#144985"/><stop offset="1" stop-color="#144985"/></linearGradient><clipPath id="clip-path-4"><path class="cls-1" d="M84.8,138.68l-.06.12c-.58,1,.83,3.33,3.05,6.07l5.28,6.48,43.85,18.25.3.11.83.34-14.46-17.69L96,140.87c-5-2.18-7.77-2.79-9.3-2.79a2.39,2.39,0,0,0-1.87.6"/></clipPath><linearGradient id="linear-gradient-4" x1="-1077.3" y1="-216.98" x2="-1070.05" y2="-216.98" gradientTransform="matrix(7.36, 4.3, -4.3, 7.36, 7078.59, 6365.02)" xlink:href="#linear-gradient-2"/><clipPath id="clip-path-5"><path class="cls-1" d="M66.71,169.21l-.06.12c-.59,1,.83,3.34,3,6.07l72.47,88.8c6.47,7.74,6.55,9.31,6,10.28l12.6-21.19a2,2,0,0,0,.19-1.65,20.55,20.55,0,0,0-3.14-4.67l-52.32-64.08L77.87,171.4c-5-2.18-7.77-2.79-9.3-2.79a2.34,2.34,0,0,0-1.86.6"/></clipPath><linearGradient id="linear-gradient-5" x1="-1108.41" y1="-180.85" x2="-1101.16" y2="-180.85" gradientTransform="translate(14816.52 12380.1) rotate(30.29) scale(17.05)" xlink:href="#linear-gradient"/><clipPath id="clip-path-6"><path class="cls-1" d="M79.63,147.61a.69.69,0,0,0-.15.15,1.82,1.82,0,0,0-.24.25s-12.57,21.26-12.53,21.21c.63-.67,2.48-1.57,11.16,2.19l99.78,41.48c1.52.55,5,1.64,6.41.83a3,3,0,0,0,.61-.71l12.44-21a.14.14,0,0,1-.06.07c-.59.67-2.36,1.7-11.25-2.13L93.06,151.36,86,148.42a16.58,16.58,0,0,0-4.91-1.1,2.86,2.86,0,0,0-1.41.29"/></clipPath><linearGradient id="linear-gradient-6" x1="-1108.54" y1="-182.97" x2="-1101.28" y2="-182.97" gradientTransform="matrix(14.77, 8.63, -8.63, 14.77, 14877.51, 12419.74)" xlink:href="#linear-gradient-3"/><clipPath id="clip-path-7"><path class="cls-1" d="M161.85,130.2l14.45,17.71,27.61,11.48c8.88,3.82,10.64,2.8,11.24,2.13l.14-.22c.54-1-1-3.18-3.2-5.93l-5.26-6.47Z"/></clipPath><linearGradient id="linear-gradient-7" x1="-1071.03" y1="-221.56" x2="-1063.77" y2="-221.56" gradientTransform="translate(7093.35 6367.36) rotate(30.29) scale(8.53)" gradientUnits="userSpaceOnUse"><stop offset="0" stop-color="#e8e8e8"/><stop offset="0.2" stop-color="#dddedf"/><stop offset="0.54" stop-color="#c3c3c5"/><stop offset="0.99" stop-color="#96989a"/><stop offset="1" stop-color="#949698"/></linearGradient><clipPath id="clip-path-8"><path class="cls-1" d="M97.72,117.07a2.58,2.58,0,0,0-.38.41L84.71,138.79l.09-.11c.64-.67,2.48-1.57,11.17,2.19l99.79,41.48c1.52.55,5,1.63,6.39.83a2.78,2.78,0,0,0,.62-.71l12.45-21a.27.27,0,0,1-.08.07c-.59.67-2.36,1.69-11.24-2.13l-27.61-11.48-65.14-27.09-7.1-2.95a17.25,17.25,0,0,0-4.92-1.08,2.86,2.86,0,0,0-1.41.28"/></clipPath><linearGradient id="linear-gradient-8" x1="-1108.53" y1="-184.75" x2="-1101.28" y2="-184.75" gradientTransform="translate(14884 12418.61) rotate(30.29) scale(17.12)" xlink:href="#linear-gradient-3"/><clipPath id="clip-path-9"><path class="cls-1" d="M125.65,191.27l34.62,42.4c6.48,7.75,6.54,9.3,6,10.28l12.67-21.3a2.14,2.14,0,0,0,.1-1.57c-.43-1.15-8.4-11.1-8.4-11.1Z"/></clipPath><linearGradient id="linear-gradient-9" x1="-1071.07" y1="-213.51" x2="-1063.82" y2="-213.51" gradientTransform="translate(7087.77 6376.79) rotate(30.29) scale(8.53)" xlink:href="#linear-gradient-7"/><clipPath id="clip-path-10"><path class="cls-1" d="M143.74,160.73l14.46,17.71,27.61,11.48c8.89,3.83,10.66,2.81,11.25,2.13l.13-.21c.53-1-1-3.19-3.2-5.94l-5.26-6.46Z"/></clipPath><linearGradient id="linear-gradient-10" x1="-1071.07" y1="-217.96" x2="-1063.82" y2="-217.96" gradientTransform="translate(7091.99 6372.4) rotate(30.29) scale(8.53)" gradientUnits="userSpaceOnUse"><stop offset="0" stop-color="#e8e8e8"/><stop offset="0.04" stop-color="#e8e8e8"/><stop offset="0.24" stop-color="#dddedf"/><stop offset="0.56" stop-color="#c3c3c5"/><stop offset="0.99" stop-color="#96989a"/><stop offset="1" stop-color="#949698"/></linearGradient><clipPath id="clip-path-11"><path class="cls-1" d="M121,77.5a2.12,2.12,0,0,0-.13,1.42,17.5,17.5,0,0,0,3.1,4.89l5.27,6.48,45,18.69L139.6,66.58c-6.77-8.1-6.18-9.71-5.85-10.53Z"/></clipPath><linearGradient id="linear-gradient-11" x1="-1077.3" y1="-225.05" x2="-1070.04" y2="-225.05" gradientTransform="matrix(7.36, 4.3, -4.3, 7.36, 7089.22, 6359.52)" xlink:href="#linear-gradient-2"/></defs><g class="cls-2"><polygon class="cls-3" points="163.02 -15.9 280.58 52.78 209.73 174.09 92.16 105.42 163.02 -15.9"/></g><g class="cls-4"><polygon class="cls-5" points="115.96 84.08 170.05 115.68 142.43 162.98 88.33 131.38 115.96 84.08"/></g><g class="cls-6"><polygon class="cls-7" points="136 29.41 262.58 103.34 200.1 210.3 73.53 136.36 136 29.41"/></g><g class="cls-8"><polygon class="cls-9" points="97.86 114.61 151.97 146.21 124.34 193.52 70.24 161.92 97.86 114.61"/></g><g class="cls-10"><polygon class="cls-11" points="90.27 127.17 207.33 195.55 137.02 315.93 19.95 247.55 90.27 127.17"/></g><g class="cls-12"><polygon class="cls-13" points="99.86 90.51 226.39 164.41 163.93 271.34 37.4 197.43 99.86 90.51"/></g><g class="cls-14"><polygon class="cls-15" points="175.58 106.69 230.2 138.6 202.09 186.72 147.47 154.82 175.58 106.69"/></g><g class="cls-16"><polygon class="cls-17" points="117.91 59.94 244.48 133.88 182.02 240.83 55.44 166.89 117.91 59.94"/></g><g class="cls-18"><polygon class="cls-19" points="139.28 167.93 202.18 204.68 165.61 267.29 102.71 230.55 139.28 167.93"/></g><g class="cls-20"><polygon class="cls-21" points="157.48 137.22 212.1 169.13 183.99 217.26 129.37 185.35 157.48 137.22"/></g><g class="cls-22"><polygon class="cls-23" points="134.34 32.74 197.28 69.51 160.62 132.28 97.68 95.52 134.34 32.74"/></g></svg>