<svg id="Layer_1" data-name="Layer 1" xmlns="http://www.w3.org/2000/svg" viewBox="0 0 300 300"><defs><style>.cls-1{fill:#f37830;fill-rule:evenodd;}</style></defs><title>ENPH_Light_bg</title><path class="cls-1" d="M150,231A80.2,80.2,0,0,1,77.4,185.12a9.79,9.79,0,1,1,17.69-8.38,60.75,60.75,0,0,0,109.82-.07A9.78,9.78,0,1,1,222.6,185,80.07,80.07,0,0,1,153.3,231c-1.12.05-2.23.07-3.34.07Z"/><path class="cls-1" d="M219.21,158.9H80.79a9.79,9.79,0,0,1,0-19.57H208.61A60.73,60.73,0,0,0,94.9,121.09,9.78,9.78,0,1,1,77.57,112,80.29,80.29,0,0,1,229,149.1a9.78,9.78,0,0,1-9.78,9.8Z"/></svg>