<svg id="Layer_1" data-name="Layer 1" xmlns="http://www.w3.org/2000/svg" viewBox="0 0 300 300"><path d="M190.66046,123.93333A66.27834,66.27834,0,0,1,185.9822,85.6879,87.63584,87.63584,0,0,1,220,29.942c-34.12431,4.08836-64.16845,34.04236-69.89545,70.35422-2.15479,13.73168-3.23628,35.04194,18.86875,57.2453,13.33837,13.38753,26.857,28.02042,22.9653,54.07451-3.99007,26.685-27.7091,48.23283-53.075,48.1345-25.37406-.1147-42.2191-21.76908-38.79438-48.52777,4.3915-34.29637,41.195-44.85727,44.66065-66.05286,1.31908-8.103-.64728-16.47633-2.56444-23.47324-2.91677-9.504-8.29144-25.05456-1.655-44.0462,0,0-19.67986,15.2392-24.481,47.29067-1.03232,6.95594-2.94949,16.91057-12.54364,26.8406a87.48373,87.48373,0,0,0-22.77683,47.42175c-5.29275,39.05657,19.58971,70.69018,56.62258,70.854,37.041.15565,71.52585-31.33044,77.49041-70.26412C220,166.05411,198.55862,141.41742,190.66046,123.93333Z" fill="#ff1001"/><path d="M138.921,246.43669h.13108c18.55739,0,36.73791-16.81221,39.72019-36.787,2.83483-18.93425-5.5795-29.42145-19.23742-42.72707-13.73983-13.39572-13.35478-19.78634-14.41167-28.65129.295,19.18826,1.17978,31.12563-9.43847,41.17036-10.438,9.87272-20.54013,18.94248-22.40816,33.46888-1.26992,9.95464,1.0733,18.91788,6.61183,25.22661C124.6076,243.52818,131.18668,246.39575,138.921,246.43669Z" fill="#fff"/></svg>