<svg id="Layer_1" data-name="Layer 1" xmlns="http://www.w3.org/2000/svg" viewBox="0 0 300 300"><defs><style>.cls-1{fill:#fff;}.cls-2{fill:#04b5d0;}</style></defs><path class="cls-1" d="M61.47,144.76v18.31c0,4.67,2.27,7,7,7h2c4.67,0,6.94-2.28,6.94-7v-9H88.12v8.59c0,11.75-5.94,17.81-17.81,17.81H68c-11.75,0-17.81-5.94-17.81-16.42v-45C50.23,106,56.17,99.93,68,99.93h2.27c11.75,0,17.81,5.93,17.81,17.8v26.9H61.47Zm0-10.74H77.26V117.35c0-4.67-2.28-6.94-7-6.94H68.54c-4.67,0-6.94,2.27-6.94,6.94V134Z"/><path class="cls-1" d="M95.44,100.94h11.12v5a18.59,18.59,0,0,1,13.51-5.94c9.47,0,14.14,6.32,14.14,15.54v49.25c0,9.34-4.67,15.53-14.14,15.53a18.77,18.77,0,0,1-13.51-5.68v25.38H95.44Zm11.12,64.91a15.43,15.43,0,0,0,10.23,4c4,0,6.44-1.89,6.44-6.44V117c0-4.54-2.28-6.44-6.44-6.44a16.07,16.07,0,0,0-10.23,4Z"/><path class="cls-1" d="M140.91,152.21c0-9.72,3.15-13.64,11.62-16.54l14.9-5.06V117.35c0-4.67-2.28-7.19-7-7.19h-1.77c-4.67,0-6.94,2.52-6.94,7.19v11.12H141V117.73c0-11.74,5.94-17.8,17.81-17.8H161c11.74,0,17.8,5.93,17.8,17.8v61.76H167.68v-4.93c-3,2.91-7.2,5.81-13.51,5.81-8.84,0-13-5.05-13-13.89V152.21Zm26.52,14V140.34l-10.11,3.79c-4,1.64-5.43,3.66-5.43,8.21v12c0,3.79,1.9,5.69,5.43,5.69S163.77,168.75,167.43,166.23Z"/><path class="cls-1" d="M223.25,179.49H212.14V116.22c0-3.92-1.9-5.69-5.31-5.69-3,0-6.31,1.14-10.23,3.92v65H185.49V100.94H196.6v5c3.16-3,7.45-5.94,13.51-5.94,5.69,0,9.48,2.28,11.5,6.44,3.91-3.41,8.58-6.44,15-6.44,8.58,0,13,5.31,13,13.89v65.68H238.53v-63.4c0-3.92-1.89-5.69-5.3-5.69-3,0-6.32,1.14-10.23,3.92v65Z"/><path class="cls-2" d="M7.8,135.16l28.41-27v14.53L17.65,140.34l18.56,17.43v14.77L7.8,145.77"/><path class="cls-2" d="M292.2,145.77l-28.41,26.77V157.77l18.56-17.43-18.56-17.81v-14.4l28.41,27"/></svg>