<svg id="Layer_1" data-name="Layer 1" xmlns="http://www.w3.org/2000/svg" viewBox="0 0 300 300"><path d="M190.26682,84.93407l48.63085,16.95071v81.78167c5.54555-1.92674,10.61325-3.68746,15.97529-5.55047V107.47151l16.0576,5.60184v76.71482c-15.9041,5.54527-31.87865,11.11511-48.24193,16.82046V113.5078l-16.04652-5.56165V212.22279l-48.585,16.93593c-.30518-4.4103-.11853-8.488-.15156-12.55376-.03447-4.24165-.0077-8.48379-.0077-12.72572V91.39758c-1.136-1.244-2.59745-1.32651-3.84336-1.83853-1.26767-.52092-2.60358-.876-4.09188-1.3633l-7.93978,2.73673V229.16923L93.478,212.258V107.945c-5.59385,1.81261-10.71432,3.66689-16.02988,5.53v93.17363L29.06944,189.786V113.11112l15.37639-5.42128c.235.15233.32858.20173.40828.26782a.63463.63463,0,0,1,.28362.52748c.02405.31638.04924.63371.0497.9507q.05183,34.03631.10361,68.07259a4.27416,4.27416,0,0,0,.26927.72535l15.53984,5.43034V101.90219c16.10847-5.62169,32.06864-11.1916,48.51408-16.93088.25824,4.212.08806,7.9791.12,11.73506.03245,3.81747.00723,7.63541.00723,11.45315v80.80866c0,3.80721,0,7.61443,0,11.66431,5.19816,1.80945,10.26046,3.57159,15.13786,5.26937.367-.29873.45122-.35554.52044-.42694.07341-.07572.17394-.15787.19046-.25011a8.23928,8.23928,0,0,0,.11087-.93983c.01955-.31712.01325-.636.01329-.95414q.01295-61.56052.02779-123.12107a1.13251,1.13251,0,0,1,.06715-.307c.02981-.10156.07135-.19966.22971-.63316,7.854-2.76657,15.92446-5.60938,23.95712-8.43888l24.20064,8.49455V205.47265c2.43469.07065,11.23919-2.75417,16.07011-5.1019Z" fill="#fff"/></svg>