<svg id="Layer_1" data-name="Layer 1" xmlns="http://www.w3.org/2000/svg" viewBox="0 0 300 300"><defs><style>.cls-1{fill:#fff;}</style></defs><g id="layer1"><g id="g14442"><path id="path14030" class="cls-1" d="M41.29,174.46H170.54V125.3H41.29Z"/><path id="path14032" class="cls-1" d="M183.73,174.48H257V125.3H183.73Z"/><path id="path14044" class="cls-1" d="M41.29,61.56a3.9,3.9,0,0,1,4.26-4h125V106.7H41.29V61.56"/><path id="path14048" class="cls-1" d="M183.73,57.53h67.81c5.71,0,5.48,3.08,5.48,8.27v40.94H183.73V57.53"/><path id="path14052" class="cls-1" d="M220.38,242.48c21.22,0,38.43-11.42,38.43-25.49S241.6,191.5,220.38,191.5,182,202.94,182,217s17.24,25.49,38.43,25.49"/><path id="path14056" class="cls-1" d="M170.46,241.62H47.05c-5.72,0-5.86-1.45-5.86-6.64V192.4H170.46v49.22"/></g></g></svg>