<svg id="Layer_1" data-name="Layer 1" xmlns="http://www.w3.org/2000/svg" viewBox="0 0 300 300"><defs><style>.cls-1{fill:#e1136f;}.cls-2{fill:#fff;}</style></defs><path class="cls-1" d="M125.6,238.45l.29-.14,8.19,0a.48.48,0,0,1,.23.17Z"/><path class="cls-2" d="M257,120.41a94.13,94.13,0,0,1-48.95,41.41c-.39-.3-.73-.55-1.05-.82s-.55-.5-.92-.83A27.79,27.79,0,0,0,212.22,146a54,54,0,0,0-1.63-24.23c-3-9.44-9.78-14.82-19-17.59a94.26,94.26,0,0,0-22.06-3.51,336.23,336.23,0,0,0-38.36,0c-8.8.51-17.57,1.38-25.91,4.56-9.55,3.65-15.37,10.41-17.23,20.54-1.44,7.86-1.8,15.68.11,23.51a25.12,25.12,0,0,0,5.49,10.83,7.33,7.33,0,0,1-1.85,1.61A56.28,56.28,0,0,1,81,157.22a97.48,97.48,0,0,1-35.77-32.47,10.63,10.63,0,0,1-1.47-9.45c5.43-20.6,18.59-34.25,37.73-42.63,11.2-4.91,23-7.49,35.08-9.12a261,261,0,0,1,41.35-1.89c17.08.4,34,2.12,50.36,7.36,12.76,4.08,24.31,10.17,33.53,20.19,7.7,8.37,12.29,18.26,14.75,29.24C256.71,119,256.83,119.61,257,120.41Z"/><path class="cls-1" d="M156.24,212.69c-9.72,0-19.46.11-29.18-.13-15.32-.38-30.21-3.06-44.23-9.5-13.4-6.15-24.6-15-32-27.9A68.05,68.05,0,0,1,42,148.94a90.67,90.67,0,0,1-.61-13.47c.31-.17.42.05.53.2,9.92,14.14,23,24.31,38.8,31.16a97.27,97.27,0,0,0,38.74,7.67q19.18.09,38.37,0a86.76,86.76,0,0,0,10.07-.22c-4-2.89-8-5.75-11.93-8.69-7.17-5.33-14.21-10.85-21.18-16.46a2.86,2.86,0,0,1,1.73-.21q20.57,0,41.13,0a3.43,3.43,0,0,1,2.36.75q26.8,21.59,53.65,43.14c.25.2.48.42.9.79l-55.63,44.62H136.39c-.59,0-1.18,0-1.77-.06a2.28,2.28,0,0,1,.3-.38l25.76-21.17c1.49-1.22,2.95-2.46,4.64-3.87Z"/><path class="cls-1" d="M234.58,183.56a61.42,61.42,0,0,1-6.3-4.94c-3.68-3-7.32-6-11-9-.49-.4-1-.83-1.57-1.37,17.35-7.07,31.68-17.81,42.78-33.26v2.25a4.89,4.89,0,0,0-.57,2.29C255,156.81,248.36,172.08,234.58,183.56Z"/><path class="cls-2" d="M234.58,183.56c13.78-11.48,20.42-26.75,23.36-44a4.89,4.89,0,0,1,.57-2.29c1.06,19.53-4.12,36.88-17.95,51.32Z"/><path class="cls-2" d="M134.8,149.11c7,5.61,14,11.13,21.18,16.46,4,2.94,8,5.8,11.93,8.69-2.68,0-5.36.14-8,0-1.74-.07-3-1.45-4.26-2.38-10.11-7.15-19.78-14.89-29.55-22.48a.47.47,0,0,1-.24-.66C128.78,149,131.8,148.42,134.8,149.11Z"/><path class="cls-2" d="M156.24,212.69h9.08c-1.69,1.41-3.15,2.65-4.64,3.87l-25.76,21.17a2.28,2.28,0,0,0-.3.38l-.54.17-8.19,0c-.39-.75.37-.84.69-1.1q14.55-12,29.11-24A7.27,7.27,0,0,0,156.24,212.69Z"/></svg>