<svg id="Layer_1" data-name="Layer 1" xmlns="http://www.w3.org/2000/svg" viewBox="0 0 300 300"><path d="M110.87259,165.36535a16.95461,16.95461,0,0,1-7.89474,13.98892,24.78007,24.78007,0,0,1-13.98892,3.4626,32.02886,32.02886,0,0,1-12.46538-2.21606c-1.24654-.554-1.385-.96953-1.385-3.1856,0-4.15512.41551-7.61773.41551-8.86427.1385-.96953.277-1.385.69252-1.385s.69252.277.69252.96953a10.86548,10.86548,0,0,0,.277,3.04709c1.385,6.23269,7.47923,8.58726,13.71192,8.58726,8.86427,0,13.15789-5.81717,13.15789-11.21883,0-5.81718-2.63158-9.14128-10.66482-15.097l-4.15512-3.04709c-9.8338-7.34072-12.04987-12.46538-12.04987-18.28255.277-9.00277,7.61773-15.097,19.39059-15.097a44.03282,44.03282,0,0,1,8.58726.831,13.42444,13.42444,0,0,0,3.18559.41551c.69252,0,.96953.1385.96953.554a85.55358,85.55358,0,0,0-.41551,8.86426c0,1.385-.1385,1.93906-.69252,1.93906-.41551,0-.69252-.41551-.69252-1.108a11.10325,11.10325,0,0,0-1.24654-4.15513c-.554-.96952-3.04709-4.43213-11.49585-4.43213-6.37119,0-11.35734,3.60111-11.35734,9.69529,0,4.84765,2.63158,7.61773,11.35734,14.12743l2.63158,1.80055C108.241,153.454,110.87259,158.71715,110.87259,165.36535Z" fill="#fff"/><path d="M141.759,145.69775l-2.63158-1.80055c-8.72577-6.5097-11.21884-9.27978-11.21884-14.12743,0-6.09418,4.98615-9.69529,11.35734-9.69529,8.58725,0,11.08033,3.4626,11.63435,4.43213a20.61423,20.61423,0,0,1,1.24654,4.15513c.1385.69252.277,1.108.69252,1.108s.69252-.554.69252-1.93906a85.55154,85.55154,0,0,1,.41552-8.86426c0-.41552-.13851-.554-.96954-.554a11.80636,11.80636,0,0,1-3.1856-.41551,44.03265,44.03265,0,0,0-8.58725-.831c-11.77286,0-19.11358,6.09418-19.11358,15.097,0,5.81717,2.21606,10.94183,12.04986,18.28255l4.15512,3.04709c8.03325,5.95568,10.66482,9.27978,10.66482,15.097,0,5.40166-4.29363,11.21884-13.1579,11.21884-6.23269,0-12.32687-2.35458-13.71191-8.58726a11.36279,11.36279,0,0,1-.277-3.0471c0-.69252-.1385-.96953-.69252-.96953-.41552,0-.69252.41551-.69252,1.385-.1385,1.38505-.41552,4.70915-.41552,8.86427,0,2.21607.13851,2.63158,1.385,3.1856a29.29794,29.29794,0,0,0,12.46537,2.21606,27.59258,27.59258,0,0,0,13.98892-3.4626,16.95464,16.95464,0,0,0,7.89474-13.98892c-.554-6.78671-3.04709-12.04987-13.98892-19.8061Z" fill="#fff"/><path d="M65.44322,170.49c-.41551,0-.69252.277-.831,1.24654-.69253,3.4626-1.80056,5.12465-4.15513,6.09418s-6.50969.96953-8.86427.96953c-9.00277,0-10.52631-1.108-10.80332-6.92521-.13851-1.80055,0-11.49584,0-14.40443v-7.34072c0-.277.1385-.554.69252-.554,1.52354,0,10.80332.13851,13.1579.41551,3.60111.277,4.43213,1.80056,4.84764,2.90859a8.93031,8.93031,0,0,1,.41551,2.77008c0,.41552,0,.69252.69252.69252s.69253-.96953.69253-1.52354a49.95989,49.95989,0,0,1,.41551-5.40166c.277-2.77009.69252-4.15513.69252-4.70915s-.13851-.69252-.41551-.69252-.554.277-1.385,1.108c-.96953.69252-2.35457.96953-4.57063,1.108-2.07756.1385-13.57341.1385-14.68145.1385-.41551,0-.554-.277-.554-.831V122.29054c0-.554.1385-.831.554-.831.96953,0,11.08034.1385,12.74239.277,4.98615.554,5.95568,1.52354,6.6482,2.90859a7.45358,7.45358,0,0,1,.554,3.04709c0,.69252.41551,1.108.69252,1.108s.554-.554.69252-.96953c.13851-.96953.41552-4.70914.41552-5.54016.277-2.35458.69252-3.60111.69252-4.01663s.1385-.69252-.41551-.69252a4.40157,4.40157,0,0,0-1.24654.41552,18.80321,18.80321,0,0,1-4.01662.41551H36.91136c-.41551,0-6.23269-.13851-10.38781-.13851-1.108,0-1.52355.277-1.52355.554s.41551.554.69252.554a24.72529,24.72529,0,0,1,3.1856.277c3.04709.554,3.73961,2.07756,4.01662,4.70914.1385,2.77008.1385,5.12465.1385,18.28255v14.82c0,8.03324,0,14.68144-.41551,18.28255-.41551,2.49307-.831,4.29363-2.63158,4.57064a18.771,18.771,0,0,1-2.77008.277c-.554,0-.69252.277-.69252.554,0,.554.41551.69253,1.52354.69253,2.77008,0,8.58726-.277,9.14128-.277,2.63158,0,8.86426.554,22.85319.554,3.60111,0,4.29363,0,4.98615-2.21607a77.331,77.331,0,0,0,1.24653-8.17175C65.99723,171.18252,65.85873,170.49,65.44322,170.49Z" fill="#fff"/><path d="M203.25487,170.49c-.41551,0-.69252.277-.831,1.24654-.69252,3.4626-1.80056,5.12465-4.15513,6.09418s-6.50969.96953-8.86426.96953c-9.00278,0-10.38782-1.108-10.80334-6.92521-.1385-1.80055,0-11.49584,0-14.40443v-7.34072c0-.277.13851-.554.69253-.554,1.52354,0,10.80333.13851,13.29639.41551,3.60111.277,4.43213,1.80056,4.84765,2.90859a8.93031,8.93031,0,0,1,.41552,2.77008c0,.41552,0,.69252.69252.69252s.69252-.96953.69252-1.52354a49.95785,49.95785,0,0,1,.41552-5.40166c.277-2.77009.69252-4.15513.69252-4.70915s-.1385-.69252-.41552-.69252c-.41552,0-.69252.41551-1.385,1.108-.831.831-2.21607.96953-4.29363,1.24653-2.07756.13851-13.57341.13851-14.68144.13851-.41552,0-.554-.277-.554-.831V122.29054c0-.554.1385-.831.554-.831.96953,0,11.08033.1385,12.74238.277,4.98615.554,5.95568,1.52354,6.50969,2.90859a7.45342,7.45342,0,0,1,.554,3.04709c0,.69252.41552,1.108.69252,1.108.41552,0,.554-.554.69252-.96953.13851-.96953.41552-4.70914.41552-5.54016.277-2.35458.69252-3.60111.69252-4.01663s.1385-.69252-.41552-.69252a4.40177,4.40177,0,0,0-1.24654.41552,18.80314,18.80314,0,0,1-4.01662.41551H174.723c-.554,0-6.23268-.277-10.38781-.277-.96952,0-1.52354.277-1.52354.69252s.41551.554.69252.554a24.72514,24.72514,0,0,1,3.1856.277c3.04709.69252,3.87812,2.07756,4.01662,4.84764.1385,2.63158.1385,4.98615.1385,18.144v14.82c0,8.03324,0,14.68144-.41551,18.28255-.41552,2.49307-.831,4.29363-2.63159,4.57064a18.77089,18.77089,0,0,1-2.77008.277c-.554,0-.69252.277-.69252.554,0,.554.41552.69253,1.52354.69253,2.77009,0,8.58726-.277,9.00278-.277,2.63158,0,8.86427.554,22.85319.554,3.6011,0,4.29362,0,4.98615-2.21607a77.331,77.331,0,0,0,1.24653-8.17175c-.13851-.554-.277-1.24654-.69252-1.24654Z" fill="#fff"/><path d="M273.892,180.6008a11.79872,11.79872,0,0,1-3.1856-.554,9.41952,9.41952,0,0,1-5.40165-3.73961c-1.93905-2.21607-17.72854-26.73131-19.5291-29.36289l14.95846-20.36011c2.63157-3.60111,4.43213-6.09419,7.06372-6.78671a11.53612,11.53612,0,0,1,3.04709-.41551c.69252,0,.96952-.277.96952-.554s-.41551-.554-1.52355-.554c-3.1856,0-6.92521.277-7.75624.277s-4.70914-.277-8.17174-.277c-1.108,0-1.52356.1385-1.52356.554s.277.554.831.554a9.42359,9.42359,0,0,1,2.77008.277,1.87889,1.87889,0,0,1,1.52355,1.52354,6.08662,6.08662,0,0,1-.96952,3.0471c-.96953,1.80055-10.80333,16.205-13.57341,19.8061-4.84765-7.20222-8.58726-13.43491-12.46538-20.08311a6.6381,6.6381,0,0,1-.96953-2.77008,1.34879,1.34879,0,0,1,1.108-1.385,15.26243,15.26243,0,0,1,2.49308-.277c.554,0,.831-.13851.831-.554s-.277-.554-1.52355-.554c-3.1856,0-8.03325.277-8.72577.277s-8.17176-.277-10.80333-.277c-1.24653,0-1.52355.277-1.52355.554s.277.554.831.554a18.7052,18.7052,0,0,1,3.87812.554c3.1856.96953,5.12465,3.4626,7.20222,6.6482L238.712,149.29886l-16.759,24.09972c-3.04709,4.29363-4.84765,6.09419-7.61773,6.78671a14.79106,14.79106,0,0,1-3.46261.41551.63367.63367,0,0,0-.69252.554c0,.277.13852.554.96953.554,3.04709,0,7.61773-.277,8.44876-.277s6.64821.277,8.86426.277c.69252,0,1.108-.277,1.108-.554a.63367.63367,0,0,0-.69252-.554c-.554,0-1.108-.1385-1.80056-.1385a1.9192,1.9192,0,0,1-1.52356-1.52355,8.5598,8.5598,0,0,1,1.24653-3.73961L241.205,152.9c5.54017,8.44875,10.94182,16.759,15.928,25.06925l1.80056,3.60111c4.70913.1385,9.14128.1385,14.81994.1385.831,0,1.24653-.277,1.24653-.69252s-.554-.41551-1.108-.41551Z" fill="#fff"/></svg>