<svg id="Layer_1" data-name="Layer 1" xmlns="http://www.w3.org/2000/svg" viewBox="0 0 300 300"><polygon points="105.919 128.964 111.977 150.757 99.429 150.757 105.919 128.964" fill="#fff"/><polygon points="94.905 166.023 89.393 184.101 121.618 184.101 116.435 166.023 94.905 166.023" fill="#fff"/><path d="M179.01257,115.89883H117.14983v19.41386h19.51729v48.78848h31.40637c-1.93763-1.19462-15.26583-11.77626-15.26583-31.51928,0-16.41328,9.96087-32.4692,26.2049-36.68306" fill="#fff"/><path d="M189.73533,166.63434c7.299,0,13.15887-6.05737,13.15887-13.71374,0-7.60948-5.49305-14.49456-12.8861-14.49456-7.43069,0-13.27177,6.88508-13.27177,14.49456,0,7.65637,5.48367,13.71374,12.999,13.71374" fill="#fff"/><polygon points="254.617 158.771 242.06 115.899 209.911 115.899 209.911 184.101 229.993 184.101 229.993 141.351 230.134 141.351 242.578 184.101 275 184.101 275 115.899 254.74 115.899 254.74 158.771 254.617 158.771" fill="#fff"/><polygon points="63.912 184.101 69.716 164.979 48.204 164.979 48.204 159.194 71.475 159.194 77.005 140.862 48.204 140.862 48.204 135.313 78.604 135.313 84.474 115.899 25 115.899 25 184.101 63.912 184.101" fill="#fff"/></svg>