<svg id="Layer_1" data-name="Layer 1" xmlns="http://www.w3.org/2000/svg" xmlns:xlink="http://www.w3.org/1999/xlink" viewBox="0 0 300 300"><defs><style>.cls-1{fill:url(#linear-gradient);}</style><linearGradient id="linear-gradient" x1="-1583.43" y1="298.98" x2="-1584.24" y2="300.73" gradientTransform="matrix(115.52, 0, 0, -143.76, 183124.95, 43272.87)" gradientUnits="userSpaceOnUse"><stop offset="0.25" stop-color="#6c55a4"/><stop offset="0.75" stop-color="#ee2a5b"/></linearGradient></defs><g id="Page-1"><g id="horizLogo"><path id="Shape" class="cls-1" d="M55.26,142.27c7-28.82,29.9-45,60.14-45,29.52,0,53.51,15.87,60.52,45Zm173-46.57A130.55,130.55,0,0,0,49.81,47.9L66.27,76.42A105.18,105.18,0,0,1,115.44,64.8c57.56,0,97.4,40.59,97.4,95.94v12.92H54.16c5.17,32.46,29.52,50.54,61.24,50.54,23.62,0,40.22-7.38,50.87-23.25H205a87.07,87.07,0,0,1-41.22,44.6l16.57,28.58A130.55,130.55,0,0,0,228.15,95.71Z"/></g></g></svg>