<?xml version="1.0" encoding="utf-8"?>
<!-- Generator: Adobe Illustrator 24.0.1, SVG Export Plug-In . SVG Version: 6.00 Build 0)  -->
<svg version="1.1" id="Layer_1" xmlns="http://www.w3.org/2000/svg" xmlns:xlink="http://www.w3.org/1999/xlink" x="0px" y="0px"
	 viewBox="0 0 300 300" style="enable-background:new 0 0 300 300;" xml:space="preserve">
<style type="text/css">
	.st0{fill:#F26423;}
	.st1{fill:#FFFFFF;}
</style>
<title>ETSY_Dark_bg</title>
<circle class="st0" cx="150" cy="150" r="150"/>
<path class="st1" d="M129.9,146.1V89.3c0-2.1,0.2-3.4,3.8-3.4h48.1c8.4,0,13,7.1,16.4,20.6l2.7,10.7h8.2c1.5-30.5,2.7-43.7,2.7-43.7
	s-20.6,2.3-32.8,2.3h-61.6l-33-1.1v8.8l11.1,2.1c7.8,1.5,9.7,3.1,10.3,10.3c0,0,0.6,21,0.6,55.7s-0.6,55.5-0.6,55.5
	c0,6.3-2.5,8.6-10.3,10.1l-11.1,2.1v8.8l33-1.1h55.1c12.4,0,41.2,1.1,41.2,1.1c0.6-7.6,4.8-41.8,5.5-45.6h-7.7l-8.2,18.7
	c-6.5,14.8-16,15.8-26.5,15.8h-31.3c-10.5,0-15.6-4.2-15.6-13.2v-47.9c0,0,22.9,0,30.9,0.6c5.9,0.4,9.5,2.1,11.4,10.3l2.5,10.9h9
	l-0.6-27.5l1.2-27.7h-9l-2.9,12.2c-1.9,8-3.1,9.5-11.3,10.3c-9.2,1.1-31.1,0.8-31.1,0.8L129.9,146.1L129.9,146.1L129.9,146.1z"/>
</svg>
