<svg id="Layer_1" data-name="Layer 1" xmlns="http://www.w3.org/2000/svg" viewBox="0 0 300 300"><defs><style>.cls-1{fill:#fff;}</style></defs><path class="cls-1" d="M229.2,156.74c7.05,0,14.09,0,21.13,0a15.52,15.52,0,0,1,7,1.16c2.87,1.41,3.77,3.89,2.33,6.74a17,17,0,0,1-2.09,3c-13.12,16.15-26.35,32.23-39.37,48.47-6.6,8.23-15.35,11.92-25.47,12.17-14.31.36-28.64.1-43,.08a14.08,14.08,0,0,1-6.32-1.23c-2.93-1.45-3.79-3.83-2.35-6.72a15.56,15.56,0,0,1,1.81-2.68c13.71-16.88,27.36-33.8,41.19-50.58,5.41-6.56,13-9.59,21.17-10.18,7.93-.56,15.93-.12,23.9-.12Z"/><path class="cls-1" d="M70.75,67.2c6.81,0,13.63-.12,20.44,0C102,67.47,111.07,71.3,118,80c12.55,15.74,25.4,31.23,38.12,46.83a25.44,25.44,0,0,1,2.59,3.56c1.71,3.08.71,5.78-2.54,7.18a15.94,15.94,0,0,1-6.37,1.06c-14,0-28,.23-42-.06-10.4-.22-19.36-3.86-26.14-12.32C68.56,110,55.24,93.87,42,77.67a13.42,13.42,0,0,1-1.87-2.92c-1.19-2.64-.37-4.87,2.22-6.24a12.34,12.34,0,0,1,5.83-1.29H70.75Z"/><path class="cls-1" d="M168.87,67.2c6.81,0,13.63-.12,20.44,0,10.73.23,19.77,4,26.7,12.61,12.88,16.07,26,31.94,39,47.9,1.69,2.07,3.48,4.27,2.32,7.11s-3.88,3.32-6.56,3.59c-1.46.15-2.93.22-4.4.23H206.67a37.08,37.08,0,0,1-19.6-5.59,23.14,23.14,0,0,1-5.9-5.18q-20.23-24.85-40.53-49.66l-.15-.18c-1.58-2.11-3.6-4.19-2.32-7.08s4.35-3.65,7.24-3.7c7.81-.15,15.64-.05,23.46-.05Z"/><path class="cls-1" d="M70.51,232.75H49.37a17.65,17.65,0,0,1-5.06-.53c-4.77-1.38-6-4.83-3.1-8.82,1.56-2.12,3.27-4.12,4.93-6.16,12.33-15.12,24.61-30.28,37-45.32,5.37-6.5,12.78-9.65,20.92-10.26,13.67-1,27.4-.23,41.1-.38a59.24,59.24,0,0,1,7.88.26,10.36,10.36,0,0,1,3.76,1.11,4.59,4.59,0,0,1,2.13,6.49,26.38,26.38,0,0,1-4,5.4q-19,23.33-38,46.61c-6.19,7.62-14.47,11-23.92,11.5-7.49.4-15,.08-22.53.08Z"/></svg>