<svg id="Layer_1" data-name="Layer 1" xmlns="http://www.w3.org/2000/svg" viewBox="0 0 300 300"><defs><style>.cls-1{fill:#a2a0a1;}.cls-1,.cls-3{fill-rule:evenodd;}.cls-2{fill:none;stroke:#fff;stroke-miterlimit:33.89;stroke-width:6.9px;}.cls-3{fill:#fff;}</style></defs><path class="cls-1" d="M54.46,53.5H245.54v193H54.46Z"/><path class="cls-2" d="M101.85,53.5v193m28.66-193V212.14M201.91,53.5l-16.72,193M54.46,83.61H245.54m-191.08,132H245.54m-57.32-39.37h57.32M101.85,165.06c0-45.17,35.92-81.45,80.63-81.45a80.3,80.3,0,0,1,63.06,30.68m0,101.37a80.32,80.32,0,0,1-63.06,30.84c-44.71,0-80.63-36.67-80.63-81.44m48.53-63.7c0-26.24,21-47.86,47.39-47.86a47.94,47.94,0,0,1,47.77,47.86c0,26.64-21.4,48.25-47.77,48.25S150.38,128,150.38,101.36"/><path class="cls-3" d="M148.47,145.76A15.93,15.93,0,0,0,162.23,133l1.15-8.49h2.67v48.24h-2.29l-1.53-10.42a15.7,15.7,0,0,0-15.66-12.73H130.9V205.2c0,3.86,2.67,7,6.49,7h26.38c10.7-.77,19.87-8.11,22.16-18.53l2.29-17.37h3.44l-3.44,39.37h-86v-3.47h9.55a4.17,4.17,0,0,0,3.06-3.09V90.56a3.46,3.46,0,0,0-3.42-3.48h-9.19V83.22h82.55l2.29,30.5H184.4l-1.53-10.43a20.61,20.61,0,0,0-20.25-16.21H130.9v58.67h17.57Z"/></svg>