<svg id="Layer_1" data-name="Layer 1" xmlns="http://www.w3.org/2000/svg" xmlns:xlink="http://www.w3.org/1999/xlink" viewBox="0 0 300 300"><defs><linearGradient id="linear-gradient" x1="109.20062" y1="219.39142" x2="172.79" y2="134.96905" gradientUnits="userSpaceOnUse"><stop offset="0" stop-color="#6923a6"/><stop offset="0.29814" stop-color="#6825a6"/><stop offset="0.44937" stop-color="#632da5"/><stop offset="0.56758" stop-color="#5c3aa4"/><stop offset="0.66874" stop-color="#514da3"/><stop offset="0.75895" stop-color="#4266a1"/><stop offset="0.84139" stop-color="#31849f"/><stop offset="0.91795" stop-color="#1ca89c"/><stop offset="0.98786" stop-color="#05d099"/><stop offset="1" stop-color="#00d898"/></linearGradient></defs><path d="M242.95633,102.50188c.33258,3.85468-.45885,8.19691-1.04363,12.54468-1.65991,12.34132,1.3791,23.45361,7.88074,34.01049,6.09657,9.89924,11.33244,20.30193,13.95067,31.76558a35.997,35.997,0,0,1,1.01514,13.0633c-1.30094,9.34818-6.24349,16.25487-14.16783,21.15979-9.27624,5.74173-19.55262,8.13687-30.3015,8.94724-4.38786.33081-8.781.64742-13.1508,1.151-13.627,1.57051-24.49757,8.445-33.96542,17.88637-7.19772,7.17754-15.08169,13.34954-24.59058,17.21746-9.39235,3.82052-18.92838,4.76629-28.61949,1.19039a33.06209,33.06209,0,0,1-14.60451-10.63793,51.118,51.118,0,0,1-10.06724-20.3976,53.38563,53.38563,0,0,0-9.50159-19.79012,31.4114,31.4114,0,0,0-16.11873-11.299,52.41987,52.41987,0,0,1-21.22877-12.14019c-13.8268-13.36459-17.17734-31.26216-9.168-48.6945,5.24079-11.40655,13.68047-20.08132,23.50848-27.56781,3.04648-2.32065,6.13383-4.61572,9.37572-6.64713,6.34768-3.97754,10.78785-9.52733,14.12535-16.1052,6.07624-11.97562,9.27144-24.89575,12.507-37.80266a30.39832,30.39832,0,0,1,3.10219-8.32261c2.58045-4.33238,6.396-6.14353,11.43864-5.61937a31.15567,31.15567,0,0,1,10.06989,3.221c8.85252,4.17027,17.26855,9.21056,26.33885,12.95737,11.761,4.8583,23.67058,6.17858,36.19709,3.13011,10.49165-2.55326,21.15693-2.84191,31.35738,1.5235,14.47452,6.19454,21.80094,17.88989,24.729,32.84193A59.63558,59.63558,0,0,1,242.95633,102.50188ZM69.71154,193.311l-.0472.04089c-.01805-.53256-.12161-.98173-.82674-.84413.32644-.55689-.0216-.92323-.36611-1.29056a13.60256,13.60256,0,0,0-.73965-1.52438C57.26367,173.444,56.32862,156.169,62.088,138.14423c1.72546-5.4,4.63991-10.25557,6.89207-15.41284a1.46417,1.46417,0,0,0,.70682-1.8325c.49663.054.81332-.0025.35274-.58673l-.28557.661c-.78922.07477-1.011.73909-1.34375,1.2881-1.7189,1.10944-2.7072,2.883-3.89981,4.437-8.697,11.33278-14.33495,23.76171-12.72114,38.43783a35.602,35.602,0,0,0,16.05382,26.66571.965.965,0,0,0,1.05131.6443A.92215.92215,0,0,0,69.71154,193.311ZM214.65787,87.867c.14415.36511.28351.73788.80225.49972.25859-.46766-.03621-.71236-.37751-.93832l-.65117-.97982a2.40189,2.40189,0,0,0-1.08018-1.52916C203.12187,69.52,182.66265,61.906,167.58051,64.27671c.33844.62315.98045.4532,1.50614.5445a85.91833,85.91833,0,0,1,35.66582,15.06292c2.6485,1.89268,4.83589,4.38059,7.77965,5.86967a2.05694,2.05694,0,0,0,1.23338,1.294A1.03987,1.03987,0,0,0,214.65787,87.867ZM60.39525,190.71439c-.08249.4576-.0418.77342.54924.47219l-.61509-.41653c-.17589-.70113-.77517-.98035-1.31732-1.3165-.40972-.57312-.791-1.16918-1.23337-1.71594C49.90816,178.01025,46.464,167.08626,48.201,154.5283c1.41624-10.23917,5.74446-19.12722,11.552-27.48689,4.63926-6.678,10.74182-12.0624,15.88681-18.28576.71945-.87025,1.91782-1.63162,1.54652-3.50577-11.24069,7.1557-21.62129,14.74473-29.23066,25.4292-6.41639,9.00934-10.2947,18.946-8.9466,30.23921,1.54614,12.95215,8.253,22.5917,19.55832,29.07913A1.45588,1.45588,0,0,0,60.39525,190.71439Zm53.65454,37.56413c.26179-.54542.03877-.65322-.47135-.51616l.543.465c.96128,1.80309,2.59449,2.96911,4.11881,4.20935,10.4132,8.47254,22.4068,11.171,35.48688,9.20346a44.691,44.691,0,0,0,15.75263-5.46142,10.26555,10.26555,0,0,0-4.54731-.03576,85.74885,85.74885,0,0,1-46.92539-6.76578C116.77118,228.83209,115.62047,227.72187,114.04979,228.27852Zm-32.32491-29.036c-.22682.49284-.18679.77375.41825.59759l-.49422-.54025a5.30426,5.30426,0,0,0-.42484-1.17628c-12.38194-18.82685-16.66029-39.39376-13.33567-61.607a24.57782,24.57782,0,0,0,.013-2.85684,38.0107,38.0107,0,0,0-3.22333,8.24862,57.92826,57.92826,0,0,0-2.03942,10.82044c-1.89893,17.84476,3.85776,32.85192,16.64767,45.29046C79.92973,198.64487,80.46364,199.73824,81.72488,199.24249Zm81.04362,44.364a8.273,8.273,0,0,0-3.74065.58562,42.33112,42.33112,0,0,1-13.44648,1.744c-14.17463-.31014-26.13935-5.71642-35.53168-16.48419-1.48467-1.70208-2.80053-3.61828-5.29862-5.08106,10.23288,27.20779,36.77083,33.02941,57.95854,19.17534l1.2451-.30367C163.31515,242.80826,162.88807,242.77782,162.7685,243.60649Zm-60.609-189.93618c6.10028-4.05021,12.744-4.32118,19.56125-2.55385,7.66809,1.98789,15.2502,4.30759,22.92472,6.2686,4.48194,1.14524,9.00271,2.42139,13.73494,1.88935-4.687-1.655-9.35735-3.19138-13.88321-5.21812-7.643-3.42263-14.76951-7.83532-22.37236-11.31416-4.274-1.95568-8.60936-3.7457-13.8059-2.48192-4.39337,3.19762-6.17446,7.86659-6.17971,13.38869-.64719-.0741-.70366.18835-.38521.67583Zm52.31037,13.29688c-44.69508-.927-82.68149,35.56056-84.09611,80.006-1.4903,46.82338,35.06694,84.51171,79.5111,86.28458,49.98116,1.99372,85.72532-37.3793,87.29126-79.80313C238.94375,105.5671,200.27117,66.75364,154.46986,66.96719Zm42.29883-9.05992c1.58051,1.25154,3.05736,1.233,4.33456,1.72253a47.07192,47.07192,0,0,1,11.9707,6.31791c11.881,9.06787,17.53664,21.49042,19.684,35.85623.87683,5.86609,1.58924,11.76261,3.23552,17.48766.31565,1.09766.46534,2.28827,1.8872,3.08143.20882-2.58933.23593-4.84449.56527-7.08958,1.17309-7.997,1.84858-16.00983.32276-24.06936-2.4045-12.701-8.03123-23.21593-19.8934-29.51451C212.09986,58.102,204.84951,57.05422,196.76869,57.90727Zm43.73994,84.124a89.63443,89.63443,0,0,1-6.282,41.23427c-5.32571,13.127-13.876,24.05186-24.32532,33.57556C241.26531,204.66577,252.177,174.86436,240.50863,142.03128ZM96.28641,220.46712c2.41543,6.77836,3.18089,14.01182,6.75067,20.36033,4.27,7.59366,9.57012,14.10351,18.1091,17.1371,13.70257,4.86808,25.59073.31942,36.85138-7.20727-2.05072.40922-4.0094,1.18167-6.02583,1.74995-16.41473,4.62645-30.53916,1.07143-41.981-11.84868a44.50834,44.50834,0,0,1-6.941-10.64209C101.38676,226.48332,99.54059,223.03682,96.28641,220.46712Zm132.66273-1.69978c9.5523-1.10717,18.15147-4.405,25.23912-10.98882A20.69428,20.69428,0,0,0,260.7962,195.663c1.68022-10.82225-1.64659-20.60164-6.59086-30.06032,1.90175,10.74858,2.7196,21.27536-1.93459,31.68632C247.525,207.90482,238.41782,213.37426,228.94914,218.76734Zm20.003-55.66665c.74194,24.49516-9.95277,42.47013-31.57506,54.71053C245.32823,211.9999,258.85924,191.0911,248.95212,163.10069ZM182.3372,60.6573c.12081.74509.6354.73145.996.88886a8.85752,8.85752,0,0,0,1.61116.51828c12.2655,2.73113,22.002,9.36415,29.944,18.96105,5.03782,6.0876,8.26307,13.16891,11.83373,20.08418.63344,1.22676.85922,2.878,2.61175,3.53264C228.0518,81.345,211.41312,58.92992,182.3372,60.6573Zm-35.63093,1.247c-2.85376-1.57249-5.9891-1.87123-8.96224-2.74436-6.512-1.9124-12.94973-4.09757-19.66819-5.27408-7.96479-1.39476-12.65551.434-16.37853,6.66194C100.249,62.97055,99.5332,65.67,98.4547,69.254c8.66581-7.034,18.14763-7.92512,27.86866-7.8322C133.12518,61.48679,139.92791,61.56,146.70627,61.90434ZM90.85244,89.93783A103.75863,103.75863,0,0,1,111.415,74.27249c7.288-4.09073,15.14468-6.73543,23.153-9.12852a82.327,82.327,0,0,0-10.63178-.30925c-2.97286.10444-5.94345.39917-8.90358.71627C103.70811,66.7641,94.49605,75.77974,90.85244,89.93783Zm138.83211,16.3377q.41071-.23719.057-.55206Q229.33182,105.95926,229.68455,106.27553Zm-134.059,112.8132c-.04467.09532-.14912.21172-.12409.28252.14042.397.3317.40154.49075.01161.02835-.06949-.04947-.21248-.11879-.2802C95.8299,219.06014,95.71077,219.09473,95.62555,219.08873Zm8.65247,4.31006c-.07356.08334-.202.16456-.20531.2506-.00333.0867.11762.17813.18413.2675.0737-.08355.20207-.16482.20569-.2513C104.46613,223.57938,104.34466,223.48793,104.278,223.39879Z" fill="url(#linear-gradient)"/></svg>