<svg id="Layer_1" data-name="Layer 1" xmlns="http://www.w3.org/2000/svg" viewBox="0 0 300 300"><title>Consolidated list_logos1</title><path d="M149.97709,93.36989C96.71786,93.36989,59.40891,102.045,25,116.1661v67.622c30.64218,13.59606,74.58458,22.84205,124.96042,22.84205,51.38835,0,94.4599-9.58349,125.03958-22.87538v-67.5803C240.10358,102.045,202.45713,93.36989,149.97709,93.36989Z" fill="#90c63e"/><path d="M149.89792,98.595c-51.66753,0-91.82654,9.51266-119.69783,21.18369v60.34267c29.80049,12.346,69.35532,21.27119,119.68116,21.27119,51.02167,0,91.60986-9.09182,119.91867-21.22118V119.78283C242.22029,108.47014,202.84464,98.595,149.89792,98.595Zm0,3.33339a360.85971,360.85971,0,0,1,68.822,6.29177,268.5104,268.5104,0,0,1,47.74247,13.80857v55.92593a248.01937,248.01937,0,0,1-48.72164,14.08357,366.88719,366.88719,0,0,1-67.85946,6.00427c-43.9924,0-83.118-6.78761-116.33528-20.17534V122.03287c23.05455-9.37516,61.45519-20.092,116.35194-20.092" fill="#fff"/><path d="M246.67036,125.71209a2.5,2.5,0,1,1,2.50005-2.5A2.5,2.5,0,0,1,246.67036,125.71209Zm0-5.79593a3.31256,3.31256,0,1,0,3.33339,3.30839A3.31257,3.31257,0,0,0,246.67036,119.91616Z" fill="#fff"/><path d="M246.60785,122.79538H246.162v-.65h.52918a.59168.59168,0,0,1,.35417.075.225.225,0,0,1,.075.2C247.09535,122.637,247.07453,122.762,246.60785,122.79538Zm.87086.41667a.83333.83333,0,0,0,.47919-.775.85836.85836,0,0,0-.4375-.83335,1.821,1.821,0,0,0-.89586-.19167h-1.1792v3.48756h.72084v-1.4h.33751c.19167,0,.325,0,.41667.10833a1.40954,1.40954,0,0,1,.16251.64168c.025.2.07917.41667.11251.59584v.075h.87917a6.11252,6.11252,0,0,1-.23333-1.05835.72924.72924,0,0,0-.375-.64168Z" fill="#fff"/><polygon points="79.243 127.475 67.763 127.475 67.763 129.141 66.43 129.141 66.43 124.604 78.413 124.604 78.418 119.008 79.555 122.012 79.559 124.862 79.376 124.85 85.022 134.991 84.251 136.391 79.243 127.475"/><polygon points="96.685 124.85 97.014 128.958 92.455 137.304 91.159 135.008 96.685 124.85"/><polygon points="66.43 134.725 75.138 134.725 75.13 129.137 76.305 132.25 76.305 137.466 67.755 137.466 67.755 140.304 66.43 140.304 66.43 134.725"/><polygon points="90.489 148.617 87.934 143.558 85.472 148.617 61.559 148.617 60.142 145.875 78.797 145.875 78.797 140.296 79.888 143.083 79.888 144.267 78.997 145.875 85.639 145.862 88.168 140.717 90.755 145.858 97.193 145.858 98.005 148.617 90.489 148.617 90.489 148.617"/><polygon points="106.131 124.895 106.118 119.199 106.831 122.637 106.831 124.895 106.131 124.895"/><polygon points="98.618 133.162 97.68 130.221 100.222 130.221 100.222 133.162 98.618 133.162 98.618 133.162"/><path d="M106.18469,140.804l-.05417-.41667V130.208h3.58339v-5.32926l.65,3.38339v4.88342H106.8222V140.954S106.293,140.954,106.18469,140.804Z"/><path d="M109.73058,140.37484v4.83341h0v.68334l-.3375.04584s-2.59588.34584-3.8834.34584h0a5.2691,5.2691,0,0,1-4.02924-1.45,4.53758,4.53758,0,0,1-1.01668-1.91669h0l.83335,2.825a4.28336,4.28336,0,0,0,1,1.85,5.14086,5.14086,0,0,0,3.92924,1.42086h.025c1.25,0,3.81256-.33334,3.81673-.33334l.34167-.04167v-5.00008l-.675-3.27923Z"/><path d="M122.85163,124.49957h0v6.63761l-.46251-.08333-.41667-.07917a3.6218,3.6218,0,0,0-.58751-.02917h-.13751a3.58925,3.58925,0,0,0-2.1792,1.09169,5.58353,5.58353,0,0,0-1.10834,1.33335v12.53771h-5.8751l.68751,2.74172h5.73342V136.28727a5.45012,5.45012,0,0,1,1.07086-1.31669,3.46776,3.46776,0,0,1,2.13336-1.07085h.17917a2.81608,2.81608,0,0,1,.52084.02917l.41668.07916.4625.08334V127.908l-.41667-3.40839Z"/><path d="M140.52276,145.90826h-5.9376l-.19584-1.16252a9.32515,9.32515,0,0,1-5.13758,1.5417h-.05834a5.4876,5.4876,0,0,1-4.2959-1.85837,6.02924,6.02924,0,0,1-1.32085-2.84588l.41667,2.625a6.02092,6.02092,0,0,0,1.32919,2.99588,5.37925,5.37925,0,0,0,4.21257,1.81669h.05a9.20849,9.20849,0,0,0,5.04175-1.48335l.19167,1.13751h5.76259l-.05834-2.75Z"/><path d="M127.17671,134.0664a18.81347,18.81347,0,0,1,6.81678-2.05v-.94585c-.0375-1.025-.57918-1.46669-1.9167-1.53753a3.87582,3.87582,0,0,0-3.41256,2.05837l-.4625.67084-3.96257-3.20005.55,3.05838,2.38754,1.9292Z"/><path d="M129.36841,139.76233c.04583.69584.20417,1.075.53334,1.28335a3.83347,3.83347,0,0,1,1.15835-.83335,13.4006,13.4006,0,0,1,2.91671-.9v-2.5a13.82533,13.82533,0,0,0-3.07922.93334c-1.05835.55-1.52086,1.05-1.55,2.05421Z"/><path d="M144.22282,125.13292c0,.125.025.75418.12084,3.21255.17084,4.58341,3.69173,6.60011,6.92512,8.00847h0c2.525,1.06252,4.83757,2.05,5.63759,3.22505a2.83755,2.83755,0,0,0,.47917-1.71253v-.075c.1-1.73336-2.74588-2.96255-6.10426-4.35007-3.27922-1.42086-7.04179-3.44173-7.046-8.12931v-.32083c-.05.16667-.02082.1-.02917.14167Z"/><path d="M162.919,127.42046l.33333-3.08339-.1.03333-.53751.17917-5.28342,1.73753-.12916-.35417-.11667-.35417c-.70418-1.88753-1.87921-2.97922-3.83341-3.00422-1.99169.1-2.825.60835-2.88338,2.24171a.51359.51359,0,0,0,0,.07083,1.77252,1.77252,0,0,0,.77918,1.27919,3.67086,3.67086,0,0,1,2.08336-.525c1.925.02916,3.07089,1.09585,3.75007,2.95838l.11666.33334.02917.08333.375.18751.41667-.13334,5.00009-1.66669Z"/><path d="M163.444,138.34564a8.33821,8.33821,0,0,1-2.55838,5.65843,10.22686,10.22686,0,0,1-7.08345,2.2792h0a10.86962,10.86962,0,0,1-10.25433-6.90428l-.25834-.675h0l.24166,3.09588.15.41668a10.68681,10.68681,0,0,0,10.08767,6.81261,10.10254,10.10254,0,0,0,6.97511-2.23337,8.14147,8.14147,0,0,0,2.5-5.58343l.21251-2.84171h0Z"/><polygon points="165.986 155.663 166.007 153.004 171.898 153.004 171.532 155.663 165.986 155.663 165.986 155.663"/><path d="M175.66084,146.28744a7.13346,7.13346,0,0,1-3.75006-1.25v2.96671a6.98771,6.98771,0,0,0,3.36256,1.03335c4.55424-.02084,7.26679-4.00424,7.87513-8.2668l.41667-2.31254a.974.974,0,0,1,0-.10834h0c-.73751,4.16674-3.41256,7.9168-7.8918,7.95847Z"/><path d="M177.76088,137.004c.05417-.48334.09584-1.01252.1125-1.6-.07917-4.00423-1.27085-5.55009-3.33339-5.57926-1.43753.02917-1.76669.54585-2.63754,1.31253v2.12087a3.05,3.05,0,0,1,2.25838-.83335c2.05,0,3.33339,1.48752,3.60006,4.58341Z"/><path d="M196.732,145.90826l-.19167-1.16252a9.33767,9.33767,0,0,1-5.13342,1.5417h-.05a5.46259,5.46259,0,0,1-4.2959-1.8542,6.25013,6.25013,0,0,1-1.43753-4.10007,8.04881,8.04881,0,0,1,.125-1.36669h0l-.48752,2.50005a7.68318,7.68318,0,0,0-.17084,1.66669,6.25014,6.25014,0,0,0,1.41253,4.05423,5.39176,5.39176,0,0,0,4.21674,1.8167h.0625a9.22932,9.22932,0,0,0,5.03758-1.49586l.18751,1.13752h5.64176l1.05419-2.74171H196.732Z"/><polygon points="202.682 145.925 202.686 145.921 202.678 145.908 202.682 145.925"/><path d="M191.61945,133.04138a3.4418,3.4418,0,0,1,1.9-.54168q1.25-.2875,2.63754-.48334v-.94584c-.04167-1.025-.575-1.46669-1.93337-1.54586a3.89061,3.89061,0,0,0-3.40006,2.08337l-.4625.675-3.95007-3.18755-.50418,3.01255,2.87089,2.3292a12.50058,12.50058,0,0,1,2.84172-1.375Z"/><path d="M195.83618,139.154v.73751l.32918-.2625v-2.85838a14.02555,14.02555,0,0,0-3.08338.92918c-1.05419.55418-1.5167,1.05419-1.5417,2.05837a2.66234,2.66234,0,0,0,.14584.76668,4.77878,4.77878,0,0,1,.56251-.3375A16.09233,16.09233,0,0,1,195.83618,139.154Z"/><path d="M221.59078,140.32484l-.16667.32917-.16667.32917c-1.77919,3.60006-4.34174,5.31676-7.82513,5.30009h-.2a7.85428,7.85428,0,0,1-6.44177-3.04172,12.55954,12.55954,0,0,1-2.29171-7.83763,16.034,16.034,0,0,1,.50417-4.07507l-.72918,2.45838a15.663,15.663,0,0,0-.61668,4.50841,12.44937,12.44937,0,0,0,2.25,7.73763A7.72931,7.72931,0,0,0,212.224,149.025h.27918c3.40423,0,5.9126-1.69587,7.64179-5.22926l.17084-.32917,1.275-3.14172Z"/><path d="M216.424,133.00805l-.15-.35834-.14167-.325c-.7625-1.66669-1.15835-2.45-2.91671-2.5a2.16253,2.16253,0,0,0-2.08337,1.17919,6.73791,6.73791,0,0,0-.675,2.56671,2.12918,2.12918,0,0,1,1.76669-.775c1.71253.05,2.08337.83335,2.85,2.45838l.1375.325.15.35417.67918-.27917,4.0584-1.66669,1.28752-3.01255h-.04583l-4.25007,1.75-.69168.27917Z"/><path d="M234.07432,132.233c-.30418-1.88336-1.18335-2.65-2.68755-2.7h0c-1.44169.05-2.31254.74584-2.65421,2.44587h0a3.58337,3.58337,0,0,1,1.37919-.2625h0a3.36676,3.36676,0,0,1,1.8417.51667Z"/><path d="M239.58691,141.93736c-1.8,2.99589-4.62508,4.35424-8.28764,4.34591h-.04583a7.63763,7.63763,0,0,1-6.27093-3.05,12.748,12.748,0,0,1-2.25838-7.8293,15.20841,15.20841,0,0,1,.83335-5.14175l-1.05419,2.58337a14.67553,14.67553,0,0,0-.95,5.44593,12.61487,12.61487,0,0,0,2.225,7.7293,7.50012,7.50012,0,0,0,6.12093,2.99588h.10417c3.60007,0,6.37927-1.31669,8.15431-4.2834l.2-.32918,1.40419-2.77921h0l-.18751.32084Z"/><path d="M239.68274,136.93728H228.64923a6.3709,6.3709,0,0,0,.83335,2.85838h4.94174c.24167-.25.48751-.53334.75835-.86251l.41667-.525,2.1167,1.38752h.41667l1.54169-2.85838Z"/><path d="M122.8183,124.51207l-.78335.02084a5.85845,5.85845,0,0,0-4.44591,1.9542v-1.58336h-5.55425v21.017h5.90426V133.37055a5.58364,5.58364,0,0,1,1.08752-1.33335,3.58928,3.58928,0,0,1,2.1792-1.09169h.13334a3.213,3.213,0,0,1,.58334.02917l.41667.075.46251.08334v-6.62095Z" fill="#fff"/><path d="M133.97682,139.64149a6.50414,6.50414,0,0,1-3.23755,1.6292h-.03334c-.91252-.07083-1.28335-.36667-1.35835-1.49586.025-1.00418.4875-1.50419,1.54169-2.05837a13.94229,13.94229,0,0,1,3.08338-.92918v2.85421Zm6.21261,5.24592a8.4497,8.4497,0,0,1-.31251-2.56671v-9.41265c0-2.91672-.625-5.02509-1.9667-6.40428s-3.33339-1.95-5.83343-1.9667H131.881a8.812,8.812,0,0,0-7.32928,3.95007l-.16667.3-.1625.29167,3.97506,3.20423.46251-.67085a3.91322,3.91322,0,0,1,3.41255-2.05837c1.33336.075,1.88336.51668,1.9167,1.54169v.95419c-6.76261.91251-10.53768,3.49172-10.52934,8.30013a6.25012,6.25012,0,0,0,1.43752,4.10424,5.4876,5.4876,0,0,0,4.2709,1.83337h.05417a9.30861,9.30861,0,0,0,5.12926-1.53753l.19583,1.16669h5.96677l-.32917-1.04585Z" fill="#fff"/><path d="M109.70558,140.39567l-.92918.22917a8.70871,8.70871,0,0,1-1.83754.35418h-.04167a1.53335,1.53335,0,0,1-.7-.1125.89176.89176,0,0,1-.09584-.45835V130.21634h3.58756v-5.30426h-3.58756v-5.70843h-5.9001v5.65843H97.647v5.35009h2.54588V140.979a.1703.1703,0,0,0,0,.05,5.4399,5.4399,0,0,0,1.25,3.8084,5.32674,5.32674,0,0,0,4.04174,1.45h0c1.27919,0,3.87089-.34584,3.8834-.34584l.3375-.04167v-5.50426Z" fill="#fff"/><polygon points="90.73 145.883 97.168 145.883 91.151 135.004 96.668 124.862 90.23 124.866 88.093 129.275 85.98 124.866 79.359 124.866 84.993 135.008 78.968 145.883 85.626 145.883 88.134 140.742 90.73 145.883" fill="#fff"/><path d="M153.81049,140.67484c-2.525-.0375-3.67507-1.32085-4.85009-3.75006l-.16251-.34167-.16666-.35-5.37093,2.5.2625.68335a10.88182,10.88182,0,0,0,10.25435,6.90428h0a10.22691,10.22691,0,0,0,7.08345-2.2792,8.81047,8.81047,0,0,0,2.60838-6.76678v-.02917c0-4.87508-3.75006-7.08345-7.03345-8.47514-1.6667-.7-3.24172-1.3-4.37091-1.93336s-1.75-1.27919-1.73336-1.91254a.60155.60155,0,0,1,0-.075c.05417-1.62919.89169-2.13753,2.87922-2.23754,1.96253.025,3.13755,1.11252,3.84173,3.00422l.12084.33751.12917.3625,5.26259-1.725.53751-.17917.11667-.04166-.11667-.3-.125-.3375-.05834-.14167h0a10.042,10.042,0,0,0-9.69183-6.58761h-.0375c-4.67508,0-8.98765,3.01255-8.98348,8.33347,0,4.68758,3.75006,6.70845,7.046,8.12931,3.35839,1.39585,6.20428,2.61671,6.10426,4.35424v.07916c-.04166,2.11671-1.22919,2.69588-3.55839,2.8Z" fill="#fff"/><polygon points="66.426 134.741 75.118 134.746 75.118 129.145 66.426 129.145 66.426 124.616 78.397 124.616 78.397 119.016 60.042 119.016 60.042 145.871 78.78 145.887 78.78 140.308 66.426 140.308 66.426 134.741" fill="#fff"/><path d="M216.56153,138.304c-.87918,1.66669-1.725,2.66671-3.21255,2.66671a2.24464,2.24464,0,0,1-2.19587-1.175,9.39607,9.39607,0,0,1-.78752-4.39174,9.037,9.037,0,0,1,.775-4.40007,2.17087,2.17087,0,0,1,2.08337-1.17919c1.74169.05,2.13753.83335,2.91671,2.5l.14167.325.15.35834.68751-.27917,4.30008-1.77087-.22084-.69584a8.05013,8.05013,0,0,0-7.95013-5.74593h-.04167a7.89178,7.89178,0,0,0-6.45009,3.02088h0a14.58381,14.58381,0,0,0,0,15.6961,7.871,7.871,0,0,0,6.44177,3.04172h.20416c3.48339,0,6.05427-1.7042,7.82513-5.30009l.16667-.32917.16667-.32918-4.64175-2.75421-.35834.73335Z" fill="#fff"/><path d="M174.51916,140.979h0a3.93758,3.93758,0,0,1-2.62088-1.21253v-8.621c.875-.76251,1.2-1.27919,2.63754-1.30419,2.05837.02917,3.25422,1.575,3.33339,5.57926-.075,3.9834-1.25,5.52509-3.33339,5.55843Zm1.125-16.44611h0a6.60429,6.60429,0,0,0-3.9209,1.25v-.87085h-5.74176v28.113h5.9001v-7.98763a7.12938,7.12938,0,0,0,3.75006,1.25c5.34176-.04167,8.121-5.35426,8.11681-10.35434,0-6.22094-2.64171-11.39186-8.10846-11.41269Z" fill="#fff"/><path d="M231.35344,129.53716c1.50835.05,2.39587.83335,2.69171,2.70421h-5.38342C228.96174,130.35384,229.84508,129.59132,231.35344,129.53716Zm4.22508,8.87515-.41668.52917c-1.125,1.32919-1.72919,1.99587-3.51672,2.03754-1.48336-.05834-2.69588-.83335-3.00422-4.02924h11.046v-2.68754c0-4.92509-2.91671-9.7085-8.1918-9.72517h-.07917a7.91684,7.91684,0,0,0-6.43762,3.02506h0a14.68251,14.68251,0,0,0-.03332,15.68776,7.62928,7.62928,0,0,0,6.25844,3.03755h.05c3.65839,0,6.48344-1.34586,8.28347-4.34591l.20834-.32917.2-.32917-4.37925-2.875Z" fill="#fff"/><path d="M196.14036,139.64149c-.87918.73751-2.10837,1.6667-2.95839,1.6292h-.30833c-.92085-.075-1.28752-.36667-1.35836-1.49586.025-1.00418.48751-1.50419,1.5417-2.05837a13.87047,13.87047,0,0,1,3.08338-.92918Zm6.2126,5.24176a8.33341,8.33341,0,0,1-.3125-2.56671v-9.41266c0-2.91672-.625-5.02925-1.9667-6.40844s-3.33339-1.95-5.85843-1.9667a1.41243,1.41243,0,0,0-.19167,0,8.81767,8.81767,0,0,0-7.32928,3.95006l-.16251.30418-.16251.2875,3.97507,3.20422.4625-.675a3.91673,3.91673,0,0,1,3.40006-2.05837c1.35419.075,1.8917.51668,1.93337,1.54169v.95419c-6.75845.91251-10.53768,3.49172-10.52934,8.30013a6.25018,6.25018,0,0,0,1.43753,4.10424,5.49592,5.49592,0,0,0,4.30006,1.84587h.05a9.37106,9.37106,0,0,0,5.12925-1.53336l.19167,1.16252h5.9751l-.34168-1.03335Z" fill="#fff"/><polygon points="202.686 145.896 202.678 145.887 202.682 145.904 202.686 145.896" fill="#00703c"/><polygon points="212.116 177.025 212.116 177.021 212.107 177.021 212.116 177.025" fill="#fff"/><path d="M105.10967,174.23374h0l-.62918-2.08337h0a9.35847,9.35847,0,0,1,.22084,2.15837v.13334c0,5.39592-4.58341,8.3668-9.40433,8.35847h-.22083c-4.61675,0-7.86263-2.01254-9.68767-5.83343l1.32086,2.89171c1.8042,3.60006,4.92925,5.45843,9.29182,5.45843h.19167c4.72925,0,9.196-2.97088,9.196-8.35847v-.15834a10.10888,10.10888,0,0,0-.275-2.575Z"/><path d="M86.776,165.57526s.71251,1.25,1.15835,1.86253h0c1.30419,1.8,4.10007,2.91671,6.38761,3.78339a23.7496,23.7496,0,0,1,4.89175,2.15421,5.35818,5.35818,0,0,1,1.12085,1.01668v-.225a3.71244,3.71244,0,0,0-1.9542-3.30839,23.60913,23.60913,0,0,0-5.00008-2.15837c-2.91672-1.02918-6.21677-2.38337-7.5418-5.44175h0l.94168,2.28754v.02917Z"/><path d="M104.21382,160.29184l-3.8959,1.175-.12917-.41667-.14584-.41668c-.98335-2.91671-2.71671-4.65424-5.86676-4.69174-2.91672.0875-4.52508,1.425-4.58341,4.28757a2.40071,2.40071,0,0,0,.65,1.98336,3.26223,3.26223,0,0,0,.41667.36251c.14584-2.73338,1.68753-4.02924,4.46258-4.11674,3.06672.0375,4.75841,1.77086,5.7251,4.67508l.13334.45834.12083.41668,3.8334-1.17919-.7-2.525Z"/><polygon points="104.105 159.929 103.985 159.504 103.98 159.513 104.105 159.929"/><polygon points="114.781 160.113 114.768 153.571 115.247 155.975 115.247 160.113 114.781 160.113"/><polygon points="108.493 166.267 107.722 163.742 110.701 163.742 110.701 166.267 108.493 166.267 108.493 166.267"/><path d="M119.54741,162.97938l-.45-2.85422v3.6209h-4.32507V177.663a1.27083,1.27083,0,0,0,.18334.775.79157.79157,0,0,0,.44167.16666.83348.83348,0,0,0-.02917-.09166,4.28331,4.28331,0,0,1-.125-1.37919V166.25859h4.3084v-3.27922Z"/><polygon points="119.097 177.925 119.097 177.917 119.093 177.925 119.097 177.925"/><path d="M119.0974,177.90046v3.9084l-.3625.05417-.41667.0625a17.11324,17.11324,0,0,1-2.45838.35834,5.96091,5.96091,0,0,1-3.93756-1.05418,3.371,3.371,0,0,1-.95-1.37919l.41668,1.58336a4.62087,4.62087,0,0,0,1.48753,2.30837,5.69269,5.69269,0,0,0,3.85839,1.05418,10.41644,10.41644,0,0,0,1.9667-.24167l.52918-.1.34584-.06667v-3.48756l-.51251-3Z"/><path d="M139.74358,172.00453h.10834l-.1125-1.85419h0c0,.32917.025.65418.025.99168a13.8367,13.8367,0,0,1-1.88336,7.6043h0a7.90515,7.90515,0,0,1-6.96678,3.50839h-.09583a7.93923,7.93923,0,0,1-6.98345-3.50839,11.15442,11.15442,0,0,1-1.50419-3.78757l.3875,2.16254a11.54188,11.54188,0,0,0,1.53753,4.13757,7.68853,7.68853,0,0,0,6.84178,3.51673h.09167a7.66672,7.66672,0,0,0,6.80844-3.51673,14.314,14.314,0,0,0,1.83336-7.60013l-.06249-.02083h.06249V172.017h-.10834Z"/><path d="M130.8351,163.62106c-3.41256.05417-4.77091,2.26671-4.88758,7.50013a17.37469,17.37469,0,0,0,.45,3.87506c-.02917-.41667-.05-.87918-.05417-1.35.11667-5.25426,1.45419-7.46679,4.76675-7.50013,2.78754.05417,4.10423,1.57086,4.61258,5.15425v-.15c-.125-5.25425-1.48753-7.46679-4.89176-7.521Z"/><polygon points="146.96 184.384 143.373 184.384 143.294 181.863 147.327 181.871 146.96 184.384"/><path d="M154.03965,163.99607h-1.9292a4.71024,4.71024,0,0,0-3.1,1.66669,6.2501,6.2501,0,0,0-1.68752,4.18757v2.5h0a6.34171,6.34171,0,0,1,1.64586-4.18757,4.5349,4.5349,0,0,1,3.00422-1.66669h1.9542l.10834-2.5Z"/><path d="M167.78988,175.91293v-4.95425c-3.75006.88752-5.8876,1.76253-7.00428,2.56672a2.80356,2.80356,0,0,0-1.35419,2.6417,3.75,3.75,0,0,0,.15417.95418,3.40019,3.40019,0,0,1,.98334-1.06668c1.08336-.80835,3.17088-1.66669,6.821-2.56671v2.78755c.13749-.11667.27083-.22917.39584-.35Z"/><path d="M172.2608,181.84636v.025h-3.9959l-.20417-1.66669a10.30851,10.30851,0,0,1-6.30844,2.025H161.669a6.44184,6.44184,0,0,1-4.41258-1.58336,5.80845,5.80845,0,0,1-1.825-4.16674l-.11667,2.18754v.0375a5.92928,5.92928,0,0,0,1.7917,4.44591,6.221,6.221,0,0,0,4.3209,1.58752h.09584a9.88346,9.88346,0,0,0,6.14593-2.0167l.2,1.63753h3.80006l.64168-2.50005-.03332-.03333Z"/><path d="M159.2314,169.27532c1.30836-2.08337,2.86672-3.125,4.78758-3.13755,2.125.1,2.83755.44584,3.20005,1.33752l.68335-.15416v-.61669a3.15789,3.15789,0,0,0-.69585-2.325,4.52126,4.52126,0,0,0-2.88755-.73751c-1.97919,0-3.57089,1.04168-4.90841,3.14172l-.46667.73334-2.91672-1.775-.02083,2.57921,2.74588,1.7167.4625-.75418Z"/><path d="M194.58616,163.46272h-.54167a5.29574,5.29574,0,0,0-1.77919.25834,6.54593,6.54593,0,0,1,.83335,2.2667h1.075l.80835-2.5h-.41667Z"/><path d="M185.111,163.62106c-2.775.08334-4.10007,1.46252-4.16674,4.13757v.25833a3.76087,3.76087,0,0,1,3.5834-1.87919c2.82087.13334,3.97923,1.05418,4.10839,4.16673v.09584a5.21668,5.21668,0,0,0,.64584-2.60838c-.12917-3.09588-1.30836-4.0209-4.16673-4.16673Z"/><path d="M178.94423,172.89205a7.00016,7.00016,0,0,1-2.025-4.89175h0a.13323.13323,0,0,1,0-.05834,8.48978,8.48978,0,0,1,.09584-1.22918l-.39584,2.16254a8.8597,8.8597,0,0,0-.14167,1.58752v.06667a6.91674,6.91674,0,0,0,1.08751,3.67089A4.63765,4.63765,0,0,1,178.94423,172.89205Z"/><path d="M190.75276,173.56706a9.165,9.165,0,0,1-5.8751,1.82086h0a9.41257,9.41257,0,0,1-3.1-.54168c-.775.35418-.93335.71668-.94585.90835a.5013.5013,0,0,0,.02917.26251h0l.075.05a3.54551,3.54551,0,0,0,.33333.15417,17.23264,17.23264,0,0,0,4.67925.37918h.03333a20.906,20.906,0,0,1,3.02921.2,6.979,6.979,0,0,0,1.07919-.725,6.63759,6.63759,0,0,0,2.12919-3.27505h0l.7-2.45421h0a6.53763,6.53763,0,0,1-2.14171,3.23339Z"/><path d="M178.16922,179.17132a3.06253,3.06253,0,0,1-1.36668-2.65005.337.337,0,0,1,0-.075,3.7493,3.7493,0,0,1,.03332-.37918h0l-.41667,2.23754a5.2093,5.2093,0,0,0-.06667.67918v.04167a3.2628,3.2628,0,0,0,.375,1.55836,5.0375,5.0375,0,0,1,1.43336-1.41253Z"/><path d="M192.83613,187.08395c-1.61253,1.12919-4.0084,1.74587-7.46263,1.75s-5.74593-.57918-7.26262-1.5917a4.60423,4.60423,0,0,1-2.13336-3.9084v-.1375a3.75755,3.75755,0,0,1,.0375-.64167l-.41668,2.2292a5.09691,5.09691,0,0,0-.08334.97085v.09167a4.65842,4.65842,0,0,0,2.13337,3.91257c1.48753,1.02084,3.75006,1.59586,7.13345,1.6s5.64592-.625,7.21679-1.75a5.21669,5.21669,0,0,0,1.93753-2.52921l.9-2.57921h0a5.23349,5.23349,0,0,1-1.98753,2.58338Z"/><path d="M191.11943,182.77138a1.52258,1.52258,0,0,0-.925-1.45836h0c-.80835-.475-2.45837-.88752-5.27092-.87918h-.04167c-4.2959.10833-4.83757,1.32919-4.89174,2.43754a2.4044,2.4044,0,0,0,.10416.60835,7.47227,7.47227,0,0,1,4.22091-.95418c2.84172,0,4.52924.41667,5.41676.93751a2.60434,2.60434,0,0,1,.71251.60835,1.53751,1.53751,0,0,0,.65418-1.3Z"/><path d="M205.41968,165.67526h.04582a4.34805,4.34805,0,0,1,4.16674,2.82505h1.37086c-.62084-3.25006-1.98337-4.82092-4.60841-4.88758h-.1c-2.29587-.02917-3.72089,1.81669-4.3334,3.75006a4.31261,4.31261,0,0,1,3.44173-1.6667Z"/><path d="M215.19068,172.1212H201.66961a12.705,12.705,0,0,0,.41668,2.5h10.20017l.11667-.1875.35.1875h1.2167l1.25-2.5Z"/><path d="M215.54484,176.59211l-.25.41667h0c-2.05419,3.53339-4.4209,5.22092-8.2168,5.23342h-.27918a8.48245,8.48245,0,0,1-6.72094-2.82088c-1.6167-1.91254-2.46255-4.69174-2.46255-8.28348a14.51325,14.51325,0,0,1,.50834-4.07923l-.675,2.08337a16.22046,16.22046,0,0,0-.59584,4.46674c0,3.5959.83334,6.37511,2.40837,8.28764a8.18889,8.18889,0,0,0,6.54594,2.82505h.24583c3.75007,0,6.07927-1.69587,8.096-5.24592l.24583-.41668,1.35-2.80421-.2.325Z"/><path d="M104.69716,174.45874c0,5.39176-4.58341,8.36264-9.40432,8.35847H95.072c-5.49176,0-9.05015-2.825-10.57518-8.1793l-.25834-.83335,3.21256-1.00835.90835-.28333.10416.4375.125.47918c1.10835,4.02089,2.91671,5.39592,7.08345,5.49592,3.07922-.07917,4.58341-1.7,4.67508-4.72091a3.72433,3.72433,0,0,0-1.95837-3.30839,23.60913,23.60913,0,0,0-5.00008-2.15837c-3.75006-1.32085-8.1418-3.16255-8.15014-8.47931a7.98348,7.98348,0,0,1,2.35421-5.8751A9.28259,9.28259,0,0,1,94.16366,152.05h.0625a9.75529,9.75529,0,0,1,9.746,7.40429l.25417.86252L100.3221,161.496l-.12917-.39584-.14584-.44167c-.98335-2.89588-2.71671-4.65424-5.86676-4.69174-2.91672.0875-4.52508,1.425-4.58341,4.29174a2.40071,2.40071,0,0,0,.65,1.98336c.60834.64584,1.925,1.41669,4.45424,2.40838,7.76679,2.82921,10.046,5.31258,10.00017,9.696v.13334Z" fill="#fff"/><path d="M119.0974,163.33356v.41667h-4.33757v13.75023a1.4684,1.4684,0,0,0,.19167.94168c.1.10833.34584.20834.92918.20834a7.27956,7.27956,0,0,0,2.05-.37918l1.16251-.36667v3.91673l-.3625.05417-.39584.06249a17.1117,17.1117,0,0,1-2.45837.35834,5.97317,5.97317,0,0,1-3.94174-1.05418,4.1,4.1,0,0,1-1.25-3.33339V163.78773h-2.97088V160.146h2.97088v-6.54594h4.06673v6.52927h4.33341v3.20423Z" fill="#fff"/><path d="M130.8351,178.65881c-3.40006-.05417-4.76258-2.2667-4.87925-7.521.11667-5.24592,1.475-7.45845,4.88758-7.50012,3.40423.05417,4.76675,2.2667,4.88758,7.50012-.12083,5.25009-1.48335,7.46679-4.89591,7.50013Zm7.02928-15.12525a7.90631,7.90631,0,0,0-6.97928-3.50423h-.1a7.93576,7.93576,0,0,0-6.97511,3.50423,16.3252,16.3252,0,0,0,0,15.20858,7.979,7.979,0,0,0,6.98344,3.5084h.09167a7.90292,7.90292,0,0,0,6.96678-3.51256h0a13.96694,13.96694,0,0,0,1.88336-7.60846,13.73113,13.73113,0,0,0-1.87086-7.596Z" fill="#fff"/><path d="M154.03965,163.57939v.41668h-1.9292a4.692,4.692,0,0,0-3.1,1.66669,6.25,6.25,0,0,0-1.68752,4.16674v12.021h-4.01674v-21.442h4.01674v1.8a6.66673,6.66673,0,0,1,4.81674-2.17087h1.9v3.54172Z" fill="#fff"/><path d="M167.78988,175.9171a9.07413,9.07413,0,0,1-5.73343,2.73755h0c-1.7-.08334-2.52921-.75835-2.6-2.50005a2.792,2.792,0,0,1,1.35419-2.6417c1.11252-.80835,3.25839-1.6667,7.00428-2.57088v4.95425Zm4.29591,4.92091a20.9839,20.9839,0,0,1-.28334-3.45005V166.97111a6.86519,6.86519,0,0,0-1.88336-5.25425c-1.29585-1.20419-3.19172-1.67919-5.51677-1.67919h-.06666a8.51079,8.51079,0,0,0-7.95013,4.94175l-.2.39167-.18751.35,2.95422,1.79587.47084-.73752c1.33752-2.1042,2.91672-3.12921,4.90841-3.14171,1.57086.04583,2.44171.30417,2.88755.73334a3.26242,3.26242,0,0,1,.69585,2.3292v.63751c-3.75006.83335-6.66678,1.51669-8.83349,2.68755a6.49592,6.49592,0,0,0-3.66255,6.12094v.06667h0a5.88344,5.88344,0,0,0,1.83336,4.44174,6.40846,6.40846,0,0,0,4.41675,1.59169h.08334a10.31269,10.31269,0,0,0,6.30844-2.02087l.20417,1.6667h3.9959l-.16667-1.03335Z" fill="#fff"/><path d="M189.93191,184.43391a11.1147,11.1147,0,0,1-4.87508.83334h-.05416a8.19284,8.19284,0,0,1-4.00007-.77917,1.72688,1.72688,0,0,1-1.00836-1.58753c.05417-1.10835.59584-2.3292,4.89175-2.44171h.04167c2.81255,0,4.46257.41668,5.27092.87919h0a1.48484,1.48484,0,0,1,.925,1.46669c-.03333.69584-.24583,1.11668-1.18752,1.66669ZM185.111,163.62523c2.86671.13333,4.04589,1.05834,4.16673,4.16673-.12917,3.02922-1.28335,3.8834-4.16673,4.02924-2.45422-.09584-4.10424-1.1-4.16674-4.04174.08334-2.67921,1.40419-4.06257,4.16674-4.1459Zm10.02516,18.94615h0a5.09175,5.09175,0,0,0-2.35-4.45008c-1.57086-1.02085-3.80841-1.48753-6.81679-1.49586H185.936a17.46277,17.46277,0,0,1-4.67925-.37917,2.55507,2.55507,0,0,1-.3375-.15417.37919.37919,0,0,1-.07084-.05h0a2.24826,2.24826,0,0,1-.025-.25833c0-.19584.17084-.55.94584-.90835a9.50036,9.50036,0,0,0,3.10006.54168h0a9.15592,9.15592,0,0,0,5.87093-1.825,7.37516,7.37516,0,0,0,2.54586-5.93343V167.592a7.02514,7.02514,0,0,0-1.00835-3.8459,5.26689,5.26689,0,0,1,1.77919-.25417h.96252v-3.82506h-.85a6.521,6.521,0,0,0-4.19591,1.52919,8.61689,8.61689,0,0,0-4.42924-1.15835h-.02083a8.99216,8.99216,0,0,0-6.2126,2.1542,7.60844,7.60844,0,0,0-2.37505,5.76259.10827.10827,0,0,0,0,.05417h0a7.02516,7.02516,0,0,0,2.025,4.89592,4.32507,4.32507,0,0,0-2.13754,3.55839.35881.35881,0,0,0,0,.075,3.08757,3.08757,0,0,0,1.36669,2.65,4.62094,4.62094,0,0,0-2.19171,4.01257v.14167a4.58343,4.58343,0,0,0,2.13754,3.90423c1.51253,1.01668,3.80423,1.59586,7.25846,1.6s5.85426-.61667,7.46263-1.75a5.28345,5.28345,0,0,0,2.3-4.44175v-.08333Z" fill="#fff"/><path d="M206.31969,163.62523h.1c2.625.06667,3.99173,1.63752,4.60841,4.88341h-9.321c.35-2.2542,1.85421-4.91675,4.61258-4.88758Zm6.07094,10.77518-.44167.7c-2.01253,3.05839-2.67921,3.48756-4.95426,3.55839-3.49172,0-5.05842-2.69587-5.33341-6.55427h13.52939v-.88335a13.68123,13.68123,0,0,0-2.08337-7.95429,7.73349,7.73349,0,0,0-6.56261-3.22922h-.05a8.04593,8.04593,0,0,0-6.55011,3.16672,12.88933,12.88933,0,0,0-2.33753,7.946c0,3.59589.83335,6.37927,2.46254,8.28763a8.50575,8.50575,0,0,0,6.72095,2.82089h.29582c3.79173,0,6.15427-1.70837,8.21263-5.23342h0l.25-.41668.22917-.37917-3.37089-1.81253Z" fill="#fff"/></svg>