<svg id="Layer_1" data-name="Layer 1" xmlns="http://www.w3.org/2000/svg" viewBox="0 0 300 300"><defs><style>.cls-1{fill:#003478;}.cls-2{fill:#fff;}</style></defs><title>F_Logo_Dark</title><path id="path737" class="cls-1" d="M150,103.13c-69.38,0-125,20.79-125,46.87,0,25.91,56.08,46.87,125,46.87s125-21,125-46.87-56.08-46.87-125-46.87"/><path id="path741" class="cls-2" d="M199.24,159.93c0,.21.31.42.58.52.1,0,.15.1.05.32a27.47,27.47,0,0,1-2.47,4.08,15.32,15.32,0,0,1-3.13,3.39c-1.85,1.53-4.41,3.19-6.53,2.08a3.19,3.19,0,0,1-1.33-2.88c0-3,1.37-6.08,3.84-9.1,3-3.7,6.32-5.62,8.5-4.57s1.54,3.69.53,5.73a.61.61,0,0,0-.05.43m24.2-23.38c.17-.28,0-.49-.37-.49h-6.31c-.47,0-.71.06-.93.49-.73,1.39-9.56,14.62-11.2,17.19-.28.39-.61.34-.65-.11a5.54,5.54,0,0,0-3.56-4.12,9,9,0,0,0-4.74-.54,16.91,16.91,0,0,0-7.77,3.65c-3.42,2.6-6.38,6-10.2,8.47-2.08,1.36-4.94,2.55-6.85.78-1.72-1.6-1.53-5.16,1.12-7.92a.31.31,0,0,1,.56.22,3.48,3.48,0,0,0,1,3.35,3.78,3.78,0,0,0,4.22.46,5.56,5.56,0,0,0,2.93-4.24,4.82,4.82,0,0,0-4.43-5.48,8.85,8.85,0,0,0-6.36,2.31,12,12,0,0,0-2.5,2.75c-.22.31-.55.34-.54-.12.1-3.6-1.39-5.62-4.36-5.69a11.15,11.15,0,0,0-6.7,2.73,65.25,65.25,0,0,0-5.92,6c-.24.26-.46.25-.53-.25a12.09,12.09,0,0,0-1.76-6.33,1.47,1.47,0,0,0-1.9-.47,14.56,14.56,0,0,0-2.23,1.33,1.25,1.25,0,0,0-.38,1.42,16.65,16.65,0,0,1-.62,11c-1.32,3.13-3.9,6-6.93,6.91a4.56,4.56,0,0,1-5.35-1.45c-1.77-2.44-1-6.68,1.57-10.21a19.85,19.85,0,0,1,9-6.35.52.52,0,0,0,.37-.74c-.18-.55-.48-1.3-.59-1.64-.31-.81-1.17-.95-2.22-.83a18.8,18.8,0,0,0-6.79,2.27c-5.67,3-8.52,8.92-9.76,12.07a12.46,12.46,0,0,1-1.78,3.29,34.08,34.08,0,0,1-4.07,3.95.71.71,0,0,0-.17.83,8.94,8.94,0,0,0,1.58,2.07.92.92,0,0,0,.88-.17,21.46,21.46,0,0,0,4-3.57c.3-.36.6-.2.76.34a8.8,8.8,0,0,0,5.68,6c5.2,1.76,10.6-.78,14.67-5.2a57.12,57.12,0,0,0,4.51-5.85c1.69-2.08,5-6.74,9-9.73,1.45-1.11,3.17-1.95,4-1.39.69.45.91,1.49-.2,3.51-4,7.35-9.95,16-11,18.09-.2.36,0,.65.36.65,2.11,0,4.2,0,6.11,0a.75.75,0,0,0,.62-.39c3.09-4.84,6-9.44,9.12-14.2.17-.29.33-.07.34.05a7.89,7.89,0,0,0,1,3.61,5.4,5.4,0,0,0,4.7,2.63,8.6,8.6,0,0,0,3.81-.8,13.49,13.49,0,0,0,3.13-1.68c.46-.32.55.22.53.3-.71,3.85.17,8.4,4,10.28,4.57,2.26,9.59-.91,12.47-3.77.29-.27.59-.24.62.35a5.26,5.26,0,0,0,1.46,3.29c2.42,2.43,7.3,1.47,12.2-2.32a60.93,60.93,0,0,0,9.41-9.5.4.4,0,0,0,0-.59c-.45-.48-1.11-1-1.56-1.44a.55.55,0,0,0-.67,0c-3,2.9-5.8,6.2-9.76,8.94-1.34.93-3.47,1.68-4.43.39a2.13,2.13,0,0,1,0-2.11c1.15-2.89,19.46-30.76,20.41-32.4"/><path id="path745" class="cls-2" d="M137.3,139.92c.08.41.24.49.43.46a4.54,4.54,0,0,0,2.56-1.85c.55-.8.8-2,.26-2.43a1.45,1.45,0,0,0-1.87.22,4.15,4.15,0,0,0-1.38,3.6M90.64,175.8c-6.83,0-12.84-4.17-13.53-11.48a14.75,14.75,0,0,1,3-10.62,15.11,15.11,0,0,1,8.38-5.39,3.18,3.18,0,0,1,2.75.57,1.48,1.48,0,0,1-.24,2.43A14.14,14.14,0,0,0,84.84,157a7,7,0,0,0,.34,7.25c2.75,4.14,10.39,4.25,17.49-2.35a59.83,59.83,0,0,0,4.94-5,111.44,111.44,0,0,0,8.33-10.65.27.27,0,0,0,0-.2c0-.08-.09-.09-.21-.1a12.69,12.69,0,0,0-7.55,2.66,1.46,1.46,0,0,1-2.08-.22,1.66,1.66,0,0,1,.64-2.24c3.79-2.63,7.92-3.11,12.15-3.82a.7.7,0,0,0,.53-.31c1.74-2.22,3-4.23,4.89-6.48a49,49,0,0,1,6.11-6,27,27,0,0,1,5.88-3.86c.44-.23-.06-.51-.19-.51-9.33-1.75-19-4-28.31-.59-6.42,2.4-9.23,7.49-7.88,10.89,1,2.41,4.14,2.81,7.11,1.35a16.11,16.11,0,0,0,6.37-5.66c.91-1.4,2.82-.39,1.78,2-2.71,6.37-7.89,11.43-14.2,11.64a8.28,8.28,0,0,1-8.83-8.65c0-9.62,10.73-16,22-16.9,13.55-1.12,26.38,2.49,39.84,4.12,10.3,1.25,20.19,1.28,30.55-1.1a1.56,1.56,0,0,1,2,1.75c-.1,1.79-1.48,3.51-4.9,5.37a25,25,0,0,1-12.18,2.81c-10.25.09-19.8-3.91-29.68-6.06,0,.43.12.95-.24,1.22-5.48,4-10.42,8.14-13.74,13.9-.11.13,0,.26.14.25,2.88-.16,5.47-.23,8.15-.45.47,0,.49-.15.45-.49a6.67,6.67,0,0,1,2.09-5.81c1.79-1.6,4-1.79,5.51-.63,1.68,1.31,1.54,3.68.61,5.45a6.59,6.59,0,0,1-4,3.23.31.31,0,0,0-.26.35c.05.45,2.08,1.58,2.26,1.87a1,1,0,0,1-.23,1.07,1.25,1.25,0,0,1-1,.47,2.06,2.06,0,0,1-1-.37,9.49,9.49,0,0,1-2.81-2.26c-.26-.32-.39-.33-1-.29-2.9.16-7.44.6-10.51,1-.74.09-.85.23-1,.49-4.9,8.07-10.13,16.78-15.87,22.61-6.16,6.25-11.27,7.89-16.71,7.94"/><path id="path749" class="cls-2" d="M150,110.79c-63.83,0-115.57,17.64-115.57,39.22S86.17,189.24,150,189.24,265.56,171.6,265.56,150,213.82,110.79,150,110.79m0,82c-66.16,0-119.78-19.15-119.78-42.78S83.84,107.23,150,107.23,269.77,126.38,269.77,150,216.14,192.79,150,192.79"/></svg>