<svg id="Layer_1" data-name="Layer 1" xmlns="http://www.w3.org/2000/svg" viewBox="0 0 300 300"><defs><style>.cls-1{fill:#a76f29;}.cls-2{fill:#fff;}</style></defs><title>FANG_1</title><path class="cls-1" d="M107.66,230.09q9.61-10,19.21-20c11.54-12,23.22-23.85,34.59-36,13.31-14.23,15.2-30.36,5.34-45.09-5.87-8.77-14.29-13.95-24.87-14.58-9.28-.56-18.63-.23-27.94-.37-1.73,0-3.57.55-4.93-.38l46.06-45.94a82.14,82.14,0,0,1,55.23,33.21c36.19,49,8.19,116.32-51.75,128.49-16.71,3.4-33.54,1.09-50.29,2Z"/><path class="cls-2" d="M90.56,113.68H53.64V67.19H135.7Z"/><path class="cls-2" d="M53.46,230.3V184.17h82.11L90.79,230.3Z"/><path class="cls-2" d="M90.65,172.46h-37v-46.2h81.88Z"/></svg>