<svg id="Layer_1" data-name="Layer 1" xmlns="http://www.w3.org/2000/svg" viewBox="0 0 300 300"><defs><style>.cls-1{fill:#fff;}</style></defs><path class="cls-1" d="M228.19,160.53h-6.76L229.57,144h.13Zm-147.53,0H73.9L82,144h.13Zm171,6.25,8.46-29.48H248.46l-9.61,33.5-.22-33.5h-14l-19.1,32.81,9.41-32.81H203.83l-4.77,20.57h-.2l-3.19-20.57h-12l-8.46,29.48H158.53l2.27-7.94h14.58l2.1-7.34H162.91l2-6.86h15L182,137.3H126.58l-.94,3.29c-1.71-2.57-5.38-4.13-11-4.13-9.06,0-15.71,3.53-17.69,10.43-.92,3.24-.31,5.49,1.28,7.35s4.29,3.28,7.45,4.8c2.68,1.37,5.83,2.55,4.94,5.63a5.07,5.07,0,0,1-5,3.67c-3.69,0-4.09-1.86-3.48-4l.75-2.61-10.81,0-.75,2.61L91.1,137.3h-14l-8,13.84,2.17-7.58H51.82l2.49-8.68h21L78.17,125H41.61L27.54,174.11H43.05L49,153.41H67.67L55.62,174.12H67.35L70.78,167h9.15l-.38,7.11H91.34v-3.57c1.46,2.59,5.25,4.41,12.11,4.41,9.69,0,16.12-3.92,18.14-11,1.28-4.46.39-6.91-1.79-8.77s-5.6-3.13-9.39-5.18c-2-1.18-3.25-2.31-2.29-4.51.74-1.62,2.42-2.6,4.78-2.45,3.83.2,2.85,3.13,2.37,5.29H126a11.55,11.55,0,0,0,.75-3.72h6.88l-8.46,29.47h11.66l8.46-29.47h7.93l-8.46,29.47h39.41L189,153.6l.16-.1,3.24,20.62h22.49l3.43-7.11h9.15l-.39,7.11h36.73l2.12-7.34Zm17-26.4v-1.12h.74c.38,0,.79.09.79.53s-.41.59-.87.59Zm1.16.44a1,1,0,0,0,.94-1c0-.71-.42-1-1.27-1h-1.37v3.59h.55v-1.55h.62l.95,1.55h.61Z"/><path class="cls-1" d="M269.32,143.19a2.51,2.51,0,0,1-2.55-2.48v-.12a2.54,2.54,0,1,1,2.55,2.6m0-5.7a3.12,3.12,0,0,0-3.17,3v.05a3.16,3.16,0,0,0,6.31.06v-.06a3.09,3.09,0,0,0-3.14-3.1"/></svg>