<?xml version="1.0" encoding="utf-8"?>
<!-- Generator: Adobe Illustrator 24.0.1, SVG Export Plug-In . SVG Version: 6.00 Build 0)  -->
<svg version="1.1" id="Layer_1" xmlns="http://www.w3.org/2000/svg" xmlns:xlink="http://www.w3.org/1999/xlink" x="0px" y="0px"
	 viewBox="0 0 300 300" style="enable-background:new 0 0 300 300;" xml:space="preserve">
<style type="text/css">
	.st0{fill:#00ACD4;}
</style>
<title>FCX_Light_bg</title>
<g>
	<rect x="35.3" y="64.4" width="229.7" height="171.1"/>
	<rect x="120.5" y="186.8" class="st0" width="42" height="21.1"/>
	<polygon class="st0" points="203.7,145.1 192.1,174.8 192.1,174.7 192.1,174.8 180.4,145.1 120.5,145.1 120.5,165.7 162.2,165.7 
		162.2,166.1 162.2,165.6 178.6,207.5 205.5,207.5 221.9,165.6 221.9,207.5 264.8,207.5 264.8,145.1 	"/>
	<polygon class="st0" points="120.5,144.9 120.5,123.9 35,123.9 35,207.9 78.6,207.9 78.6,186.9 120.5,186.9 120.5,165.9 
		78.6,165.9 78.6,144.9 	"/>
</g>
</svg>
