<svg id="Layer_1" data-name="Layer 1" xmlns="http://www.w3.org/2000/svg" viewBox="0 0 300 300"><path d="M152.39738,136.21507v32.76419a4.59546,4.59546,0,1,1-9.19,0V136.21507H120.83188a13.67506,13.67506,0,0,0-13.98472,13.71834,14.15661,14.15661,0,0,0,13.98472,13.98471h8.524a4.491,4.491,0,0,1,4.52839,4.52839,4.60526,4.60526,0,0,1-4.52839,4.66157h-8.524A23.2848,23.2848,0,0,1,98.05677,149.9334a22.85154,22.85154,0,0,1,22.64192-22.90829h41.155a4.44385,4.44385,0,0,1,4.52839,4.66157,4.60526,4.60526,0,0,1-4.52839,4.66157l-9.45633-.13318Z" fill="#fff"/><path d="M37.19,168.97926a4.60526,4.60526,0,0,1-4.52839,4.66157A4.81041,4.81041,0,0,1,28,168.97926V131.55349a4.60526,4.60526,0,0,1,4.52838-4.66157H54.1048a4.60527,4.60527,0,0,1,4.66158,4.52839,4.719,4.719,0,0,1-4.66158,4.66157H37.19Zm6.393-24.107a3.95721,3.95721,0,0,0-4.12882,3.99563,4.007,4.007,0,0,0,3.99563,3.99564H53.70524a3.99564,3.99564,0,0,0,0-7.99127Z" fill="#fff"/><path d="M79.27729,157.39192a3.99778,3.99778,0,1,1,0,7.99127H73.68341a4.03723,4.03723,0,0,1-4.12883-3.99564,3.95546,3.95546,0,0,1,4.12883-3.99563ZM68.08952,137.41376,53.83843,166.84825a4.58677,4.58677,0,1,0,8.25764,3.99564l14.25109-29.4345,14.25109,29.4345a4.58677,4.58677,0,0,0,8.25764-3.99564L84.738,137.41376l-4.3952-8.92359a4.18627,4.18627,0,0,0-3.99563-2.131,4.41459,4.41459,0,0,0-3.99563,2.131Z" fill="#fff"/><path d="M199.54586,161.38755a11.59567,11.59567,0,0,1-11.58733,11.58734H171.8428a4.719,4.719,0,0,1-4.66157-4.66157,4.90713,4.90713,0,0,1,4.66157-4.66157h15.31659a2.38109,2.38109,0,0,0,2.66376-2.39738,2.4192,2.4192,0,0,0-1.06551-2.131l-17.714-11.9869c-1.0655-.93231-3.86245-2.66375-3.86245-8.12445a12.22106,12.22106,0,0,1,12.25328-12.25328h13.31877a4.63257,4.63257,0,0,1,4.66158,4.66158,4.52091,4.52091,0,0,1-4.66158,4.52838H179.16811a2.789,2.789,0,0,0-2.66375,2.79694,2.41823,2.41823,0,0,0,.79912,1.86463l17.98035,12.51965A9.36721,9.36721,0,0,1,199.54586,161.38755Z" fill="#fff"/><path d="M229.64628,144.73908a3.99564,3.99564,0,1,1,0,7.99127H219.39083a3.99673,3.99673,0,1,1,.13319-7.99127Zm-25.83842-13.18559a4.41041,4.41041,0,0,1,4.52838-4.52838h59.00219a4.44384,4.44384,0,0,1,4.52837,4.66157,4.60525,4.60525,0,0,1-4.52837,4.66157h-9.58952v32.631a4.59546,4.59546,0,1,1-9.19,0V136.21507H212.99783v27.56986h16.91485a4.66158,4.66158,0,0,1,0,9.32315H208.33626a4.719,4.719,0,0,1-4.66157-4.66158Z" fill="#fff"/><path d="M267.47162,173.64083A4.66353,4.66353,0,1,1,272,168.97926,4.60525,4.60525,0,0,1,267.47162,173.64083Zm0-8.79039a4.03722,4.03722,0,0,0-3.99563,4.12882,3.92432,3.92432,0,0,0,3.99563,3.99563,4.007,4.007,0,0,0,3.99564-3.99563A4.21674,4.21674,0,0,0,267.47162,164.85044Zm.79912,4.52838.93231,1.99782h-.66594L267.738,169.512h-1.19868v1.86463h-.53274v-4.928H267.738a1.53537,1.53537,0,0,1,1.59824,1.59825C269.20307,168.5797,268.93668,169.24563,268.27074,169.37882Zm-.66594-2.26419h-1.06551v1.86463h1.06551a.94566.94566,0,0,0,1.06551-.93232C268.67031,167.51419,268.40393,167.11463,267.6048,167.11463Z" fill="#fff"/></svg>