<svg id="Layer_1" data-name="Layer 1" xmlns="http://www.w3.org/2000/svg" viewBox="0 0 300 300"><defs><style>.cls-1{fill:#f60;}.cls-1,.cls-2{fill-rule:evenodd;}.cls-2{fill:#fff;}</style></defs><title>FDX_Logo_Dark</title><polygon class="cls-1" points="231.06 182.16 221.8 171.77 212.62 182.16 193.31 182.16 212.19 160.95 193.31 139.74 213.22 139.74 222.56 150.04 231.57 139.74 250.79 139.74 232 160.86 251.06 182.16 231.06 182.16"/><polygon class="cls-1" points="156.22 182.16 156.22 115.33 193.31 115.33 193.31 130.24 171.94 130.24 171.94 139.74 193.31 139.74 193.31 154.07 171.94 154.07 171.94 167.21 193.31 167.21 193.31 182.16 156.22 182.16"/><path class="cls-2" d="M140.58,115.33v27.36h-.18a15.85,15.85,0,0,0-12.81-5.36,21.6,21.6,0,0,0-20.74,16.22c-3.11-10.19-11.18-16.42-22.95-16.42-9.64,0-17.24,4.31-21.22,11.37v-8.76H42.75v-9.52H64.47V115.33H25v66.83H42.75V154.07H60.43a26.54,26.54,0,0,0-.81,6.7c0,13.95,10.64,23.72,24.25,23.72,11.42,0,19-5.37,22.94-15.16H91.61a7.66,7.66,0,0,1-7.74,3.83,9.15,9.15,0,0,1-8.94-9.1h31c1.34,11.18,10,20.61,21.79,20.61A15.17,15.17,0,0,0,140.38,178h.18v4.2H156.2V115.33ZM75.47,154.27a8.56,8.56,0,0,1,8.38-7,8.14,8.14,0,0,1,8.47,7ZM131.08,172h0c-5.77,0-9.35-5.36-9.35-11,0-6,3.13-11.76,9.35-11.76S140,155,140,161,137.38,172,131.08,172Z"/><path class="cls-1" d="M273.44,174.18a6.53,6.53,0,1,0-6.53,6.71,6.4,6.4,0,0,0,6.53-6.71Zm-8.23.34V179H263.8v-9.75h3.51c2.06,0,3,.9,3,2.66a2,2,0,0,1-1.68,2.06c.8.13,1.12.85,1.3,2.24a9,9,0,0,0,.6,2.7h-1.68a30.28,30.28,0,0,1-.64-3.26,1.41,1.41,0,0,0-1.64-1.12Zm1.77-1.25c1.36,0,1.76-.74,1.76-1.37s-.38-1.36-1.76-1.36h-1.77v2.75H267Zm-8.12.89a8.07,8.07,0,1,1,8.07,8,7.89,7.89,0,0,1-8.07-8Z"/></svg>