<svg id="Layer_1" data-name="Layer 1" xmlns="http://www.w3.org/2000/svg" viewBox="0 0 300 300"><title>Consolidated list_logos1</title><path id="path2860" d="M25,164.57549c64.705-5.48077,183.45676-10.67109,222.982,7.43136l-1.24229,6.94605C204.47318,155.41652,33.83671,164.12015,25,164.57549" fill="#fff"/><path id="path2864" d="M65.16961,157.16885h6.49066l3.60133-25.635h-6.489l-3.60316,25.635Z" fill="#fff" fill-rule="evenodd"/><path id="path2868" d="M73.94758,157.16885h6.49066l1.7444-12.41183c.78134-5.57258,5.04984-7.54941,9.46453-7.54941l.88254-6.28087c-3.77553,0-6.92543,1.21607-8.88173,4.15415h-.1065l.49846-3.54705h-6.489l-3.60316,25.635Z" fill="#fff" fill-rule="evenodd"/><path id="path2872" d="M114.45077,135.0972c-1.06241-1.51963-4.02677-4.66194-10.46309-4.66194-6.64821,0-12.27134,2.53334-13.08269,8.30828-1.366,9.72673,15.78831,6.131,15.17549,10.48747-.191,1.36785-2.54642,2.98864-5.63246,2.98864-3.457,0-6.11975-1.113-7.317-3.191l-5.40026,3.59575c2.03114,2.58393,6.04857,4.66193,12.378,4.66193,6.17025,0,12.35935-2.78629,13.22872-8.966,1.35848-9.67613-16.14258-5.878-15.51677-10.3357.21355-1.51962,2.271-2.53333,5.29522-2.48274,3.83006,0,5.68132,1.97683,6.24345,3.64822l5.091-4.053Z" fill="#fff" fill-rule="evenodd"/><path id="path2876" d="M113.69193,151.009c-.54914,3.90117.94054,6.18155,6.2601,6.18155a26.26883,26.26883,0,0,0,5.24472-.609l.712-5.0648c-.97257.09922-2.01064.30355-2.9155.30355-2.50159,0-2.76948-1.11488-2.48457-3.14231l1.82308-12.96833h5.79751l.62783-4.4577h-5.79935l1.07174-7.6225h-6.49066L113.69211,151.009Z" fill="#fff" fill-rule="evenodd"/><path id="path2880" d="M38.3601,157.19021h7.14831l2.22053-15.67593h18.0855l.84119-5.97733H48.57012l1.15244-8.2071H69.40461l.88254-6.28275H43.47728L38.3601,157.19019Z" fill="#fff" fill-rule="evenodd"/><path id="path2884" d="M126.94279,157.16885h28.19268l.88263-6.28275H134.95323L136.263,141.566h18.0856l.83944-5.97919H137.10431l1.15226-8.20711h19.682l.88263-6.28087h-26.81l-5.0685,36.07Z" fill="#fff" fill-rule="evenodd"/><path id="path2888" d="M156.57822,157.16885H163.069l1.9-13.52671c.66149-4.71065,3.55265-6.73806,6.69121-6.73806,3.3522,0,4.14855,2.28038,3.82064,4.61134L173.281,157.16887h6.48883l2.464-17.52909c.79077-5.62318-1.64705-8.713-8.03094-8.713a11.028,11.028,0,0,0-7.7818,3.14044h-.10641l.356-2.53334h-6.49076l-3.60142,25.635Z" fill="#fff" fill-rule="evenodd"/><path id="path2892" d="M189.9148,141.0586a8.16693,8.16693,0,0,1,7.68061-5.06668,5.03831,5.03831,0,0,1,5.40392,5.06668Zm19.22486,4.27219c1.2873-9.1702-1.84375-14.89457-10.83225-14.89457-8.72427,0-14.58912,5.77494-15.66471,13.42555-1.07559,7.6487,3.16665,13.42366,11.89092,13.42366,7.34145,0,11.6942-3.34279,14.12818-6.28087l-5.05167-3.03924a10.337,10.337,0,0,1-8.27833,3.64634c-3.51149,0-6.51509-2.48086-6.086-6.28087h19.89385Z" fill="#fff" fill-rule="evenodd"/><path id="path2896" d="M208.904,157.16885h6.49075L217.1373,144.757c.78327-5.57258,5.05167-7.54941,9.46627-7.54941l.88254-6.28087c-3.77755,0-6.92544,1.21607-8.88164,4.15415h-.10677l.49845-3.54705h-6.48883l-3.60325,25.635Z" fill="#fff" fill-rule="evenodd"/><path id="path2900" d="M243.272,143.389c-.4366,2.73569-2.4434,6.78865-7.3377,6.78865-4.89238,0-5.76-4.053-5.42834-6.78865.4366-2.7357,2.4434-6.78865,7.3377-6.78865,4.89238,0,5.76,4.05295,5.42834,6.78865m7.94293-11.85533h-6.48884l-.34849,2.48275h-.10677c-1.33973-1.82318-3.236-3.08984-7.12032-3.08984-6.70054,0-12.37244,4.76124-13.4536,12.46242-1.08117,7.6993,3.24908,12.46242,9.95154,12.46242a12.51512,12.51512,0,0,0,8.0572-2.83688l-.38408,2.73569c-.44036,3.14044-2.64011,5.16784-6.843,5.16784-3.24533,0-4.853-1.41843-5.08351-3.1929h-6.80741c-.44969,3.1929,1.32847,7.95413,9.83911,7.95413,8.19214,0,14.23879-1.77258,15.26369-9.06716l3.52457-25.07849Z" fill="#fff" fill-rule="evenodd"/><path id="path2904" d="M274.99991,131.53443h-6.70247l-7.67311,18.6421h-.10677l-3.1779-18.6421h-6.96853l5.98672,26.29271a3.847,3.847,0,0,1-3.92366,2.17919l-2.55767.02624-.78885,5.6213,3.87874.02623c4.68066,0,7.12781-1.51962,9.28072-6.23215L275,131.53445Z" fill="#fff" fill-rule="evenodd"/><path id="path2908" d="M268.58134,159.66827a3.37871,3.37871,0,0,1,1.2142.16114,1.10187,1.10187,0,0,1,.69141,1.12613.9726.9726,0,0,1-.4366.87879,1.72917,1.72917,0,0,1-.64649.21549,1.07773,1.07773,0,0,1,.76826.43658,1.2212,1.2212,0,0,1,.24356.68955v.326c0,.103.00146.21362.012.33167a.68858.68858,0,0,0,.03751.23234l.02818.05426h-.7345c-.00448-.015-.0075-.03-.012-.04317-.003-.015-.00751-.03193-.012-.05052l-.01683-.14422v-.35227a1.09334,1.09334,0,0,0-.41977-1.02307,1.88044,1.88044,0,0,0-.87129-.1424h-.62022v1.75571h-.78327v-4.45207h1.55711Zm.83945.70266a2.0062,2.0062,0,0,0-.94439-.16677h-.6689v1.61331h.70824a2.13117,2.13117,0,0,0,.74393-.09922.68478.68478,0,0,0,.45911-.697.67588.67588,0,0,0-.2979-.65019m2.10982,4.41273a1.68423,1.68423,0,1,1,.00009,0m-5.33466-5.34774a3.36643,3.36643,0,0,0-1.01749,2.46964,3.40781,3.40781,0,0,0,1.01182,2.48461,3.47656,3.47656,0,0,0,4.93739,0,3.5288,3.5288,0,0,0,0-4.95425,3.47434,3.47434,0,0,0-4.93181,0" fill="#fff" fill-rule="evenodd"/></svg>