<svg id="Layer_1" data-name="Layer 1" xmlns="http://www.w3.org/2000/svg" viewBox="0 0 300 300"><defs><style>.cls-1{fill:#fff;}</style></defs><path class="cls-1" d="M224.91,220.82a6.36,6.36,0,0,1,1.78,4.56,6.28,6.28,0,0,1-6,6.49,5.91,5.91,0,0,1-4.34-1.89,6.59,6.59,0,0,1-1.77-4.6,6.3,6.3,0,0,1,6.06-6.48A5.65,5.65,0,0,1,224.91,220.82Zm.72-.75a6.69,6.69,0,0,0-5-2.19,7.52,7.52,0,0,0,0,15,6.9,6.9,0,0,0,5-2.22,7.83,7.83,0,0,0,0-10.61h0Zm-4,5a3.21,3.21,0,0,1-1.3.18h-1.22v-3h1.16a3.41,3.41,0,0,1,1.65.31,1.33,1.33,0,0,1,.51,1.2A1.28,1.28,0,0,1,221.66,225Zm-3.89,4.44h1.37v-3.24h1.08a3,3,0,0,1,1.52.27,2.08,2.08,0,0,1,.72,1.88V229l0,.25s0,.06,0,.1a.08.08,0,0,0,0,.07h1.27l0-.1a.85.85,0,0,1-.07-.42c0-.22,0-.43,0-.61v-.61a2.33,2.33,0,0,0-.42-1.28,1.93,1.93,0,0,0-1.35-.81,3.06,3.06,0,0,0,1.13-.4,1.83,1.83,0,0,0,.76-1.63,2,2,0,0,0-1.2-2.09,5.53,5.53,0,0,0-2.12-.3h-2.71Z"/><path class="cls-1" d="M193.22,97.91c-.82,3.58-1.24,7.3-2,11.1-10-1.38-21.73-2.39-34.91-2.88-1.06,3.55-2.06,7-3.2,10.83,22,1.44,32.77,7.62,39.13,14.89,6.18,7.36,7.49,15.49,7.14,23-.8,12.27-5.89,20-12.88,25.78A43.25,43.25,0,0,1,164,189.75c-10.09.8-23.6-1.75-26.47-3.62-1.73-4.18-3.43-8.39-5.27-13a2.35,2.35,0,0,1,.54-3.14c2-2,3.85-3.94,5.84-6,.88-.91,1.85-1.76,2.59-.45,2.71,4.45,5.26,8.53,7.81,12.59,2.89,4.54,7.3,8.67,16.93,8,8.1-.77,14.26-7.28,14.92-14.44.7-13.25-11.91-22.65-44.72-25.66,6.3-20.19,12.43-39.73,17.34-55.26,7.79.38,15,1.06,21.9,2,5.1.69,9.83,2,14.58,2.54-12.21-16-30.85-26.22-51.75-26.22-36.78,0-66.61,31.68-66.61,70.77a73.39,73.39,0,0,0,13,41.93c2.82,0,4.77-.64,5-1.94a22,22,0,0,0-.18-5.55,345.52,345.52,0,0,1-1.3-43.91c-3.38.16-6.41.32-9.32.5.12-2.78.26-5.41.47-8.15,2.87-.29,5.92-.55,9.26-.85.14-2.39.3-4.71.5-7.05,1.5-14.33,15.7-23.1,27.53-26.48a54.82,54.82,0,0,1,11-1.93c.91,0,1.9-.06,2.87-.06,2.46,0,5,.24,6.52,1.38,2.55,2,5.08,4,7.76,6.3a1.63,1.63,0,0,1-.11,2c-1.23,1.53-2.42,3-3.67,4.57-.72.93-1.92.68-2.92.39-2.11-1.15-4.14-2.2-6.2-3.26-3.73-1.76-7.6-3.58-11.9-3.4-2.68.23-5.28,3.15-5.54,7.14-.38,6.06-.62,12.29-.84,19,7.46-.23,14.9-.37,22.74-.4,0,1.89,0,3.63,0,5.57-2.55,1.21-5,2.44-7.53,3.68-5.29.07-10.32.11-15.39.2-.24,16,0,32,.67,46.78a21.64,21.64,0,0,0,.83,6c.73,1.9,4.89,3.37,13.94,3.91,0,1.67.08,3.26.13,4.88a265.61,265.61,0,0,1-40.23-4.13c12.19,14.47,29.9,23.58,49.61,23.58,36.79,0,66.62-31.68,66.62-70.76A73.52,73.52,0,0,0,193.22,97.91Z"/></svg>