<svg id="Layer_1" data-name="Layer 1" xmlns="http://www.w3.org/2000/svg" viewBox="0 0 300 300"><path d="M92.07731,127.97673v-16.8908H35.5V189.919H52.47974V161.76761H86.42051V144.87692H52.47974V127.97673Z" fill="#fff"/><path d="M114.33855,111.08593H97.36817V189.919h16.97038Z" fill="#fff"/><path d="M177.96034,167.491a24.13319,24.13319,0,1,1-.15938-35.20067,48.67185,48.67185,0,0,1,8.60232-14.38856,40.98038,40.98038,0,0,0-59.90823,10.64646,40.62219,40.62219,0,0,0,17.09723,58.13093,41.03986,41.03986,0,0,0,43.13-4.87432A49.12006,49.12006,0,0,1,177.96034,167.491Z" fill="#fff"/><path d="M223.51579,109.33048a40.88512,40.88512,0,0,0-37.77155,25.12135,40.55191,40.55191,0,0,0,8.86635,44.34592,40.869,40.869,0,0,0,69.78785-28.78545,40.70991,40.70991,0,0,0-25.23813-37.58777A41.04171,41.04171,0,0,0,223.51579,109.33048Zm0,64.84621a24.28032,24.28032,0,0,1-22.43686-14.91059,24.08239,24.08239,0,0,1,5.25674-26.33753,24.22162,24.22162,0,1,1,17.18012,41.24812Z" fill="#fff"/><path d="M253.60948,184.62469a5.93688,5.93688,0,0,1,.75041-2.91324,5.68291,5.68291,0,0,1,.84429-1.1484,5.51131,5.51131,0,0,1,1.10695-.87772,5.38891,5.38891,0,0,1,4.19353-.56012,5.32339,5.32339,0,0,1,1.29449.56012,5.19994,5.19994,0,0,1,1.09756.87772,5.38025,5.38025,0,0,1,.85369,1.1484,5.91289,5.91289,0,0,1,.55347,1.37258,6.18606,6.18606,0,0,1,0,3.0907,5.91138,5.91138,0,0,1-.55347,1.37235,5.20879,5.20879,0,0,1-.85369,1.15779,5.92361,5.92361,0,0,1-1.09756.88711,5.33338,5.33338,0,0,1-1.29449.56035,5.18339,5.18339,0,0,1-2.88941,0,5.2413,5.2413,0,0,1-1.30412-.56035,6.30733,6.30733,0,0,1-1.10695-.88711,5.47331,5.47331,0,0,1-.84429-1.15779,5.93163,5.93163,0,0,1-.55347-1.37235A5.99206,5.99206,0,0,1,253.60948,184.62469Zm.88185,0a4.91926,4.91926,0,0,0,.36569,1.86743,4.80838,4.80838,0,0,0,.9382,1.53127,4.57862,4.57862,0,0,0,1.45409,1.01763,4.49354,4.49354,0,0,0,3.54594,0,4.6868,4.6868,0,0,0,1.44472-1.01763,4.80458,4.80458,0,0,0,.93818-1.53127,4.9191,4.9191,0,0,0,.36592-1.86743,4.82479,4.82479,0,0,0-.36592-1.86744,4.76554,4.76554,0,0,0-.93818-1.52188,4.46876,4.46876,0,0,0-4.99066-1.00848,4.4079,4.4079,0,0,0-1.45409,1.00848,4.76967,4.76967,0,0,0-.9382,1.52188A4.82916,4.82916,0,0,0,254.49133,184.62469Zm3.4429.57889v2.57707h-1.08841v-6.51734h2.12024a3.83721,3.83721,0,0,1,1.02246.12137,2.315,2.315,0,0,1,.77879.36409,1.57154,1.57154,0,0,1,.49715.60706,2.062,2.062,0,0,1,.16877.85895,1.47878,1.47878,0,0,1-.24388.8404,1.96756,1.96756,0,0,1-.73164.59744,1.59724,1.59724,0,0,1,.44083.2709,1.49958,1.49958,0,0,1,.29081.3547,1.86771,1.86771,0,0,1,.15962.44815,2.88875,2.88875,0,0,1,.04669.50424v.4202a4.86292,4.86292,0,0,0,0,.54157,1.70578,1.70578,0,0,0,.10329.42958v.12136H260.392a1.21519,1.21519,0,0,1-.06573-.25212V186.24a1.14537,1.14537,0,0,0-.25327-.81247,1.20474,1.20474,0,0,0-.87245-.26128Zm0-.98032h1.19122a1.88834,1.88834,0,0,0,.46919-.06549,1.51746,1.51746,0,0,0,.39388-.17747.78212.78212,0,0,0,.26266-.28945.69651.69651,0,0,0,.10326-.40142,1.41421,1.41421,0,0,0-.10326-.53218.66159.66159,0,0,0-.2345-.31738.93724.93724,0,0,0-.422-.16808,3.2388,3.2388,0,0,0-.65674-.0561h-1.03184Z" fill="#fff"/></svg>