<svg id="Layer_1" data-name="Layer 1" xmlns="http://www.w3.org/2000/svg" viewBox="0 0 300 300"><title>Consolidated list_logos1</title><path d="M271.98646,135.94489a5.52219,5.52219,0,0,0-5.51768-5.5267H202.70205c-11.62591,0-21.07675,8.95948-21.07675,20.58765s9.45084,20.58539,21.0745,20.58539h51.20993c4.98575,0,9.03612,4.553,9.03612,9.53424s-4.05035,9.53875-9.03387,9.53875H190.15879a5.5222,5.5222,0,0,0,0,11.04214h63.75544c11.62591,0,21.08577-8.955,21.08577-20.58089,0-11.63043-9.45986-20.58089-21.08577-20.58089H202.70205c-4.97448,0-9.02934-4.55976-9.02934-9.53876,0-4.98124,4.05487-9.53424,9.02934-9.53424h63.76a5.52219,5.52219,0,0,0,5.52219-5.5222v-.0045" fill="#fff"/><path d="M159.5365,105.82073a8.03424,8.03424,0,1,0-8.03423,8.03424,8.03423,8.03423,0,0,0,8.03423-8.03424" fill="#fff"/><path d="M125.90068,113.85385a8.03311,8.03311,0,1,1,8.0331-8.03311,8.03312,8.03312,0,0,1-8.0331,8.03311" fill="#fff"/><path d="M100.29572,113.85385a8.03311,8.03311,0,1,1,8.0331-8.03311,8.03311,8.03311,0,0,1-8.0331,8.03311" fill="#fff"/><path d="M74.693,113.85385a8.03311,8.03311,0,1,1,8.03311-8.03311,8.03311,8.03311,0,0,1-8.03311,8.03311" fill="#fff"/><path d="M49.09481,113.85385a8.03311,8.03311,0,0,1-.009-16.06621h0a8.03311,8.03311,0,1,1,.009,16.06621" fill="#fff"/><path d="M115.86155,130.42269c-.17355,0-.33809.03607-.50263.04959v-.04959H61.13771C39.59663,130.42269,25,144.52346,25,166.06453v30.12414a6.02145,6.02145,0,0,0,12.0429,0V166.06453c0-14.93473,9.03386-24.59745,24.09481-24.59745h54.2212v-.04958c.16455.01577.32908.04958.50263.04958a5.5222,5.5222,0,1,0,0-11.04439" fill="#fff"/><path d="M43.07,166.06453a5.52669,5.52669,0,0,0,5.5222,5.5267h55.21746a5.52219,5.52219,0,0,0,5.5222-5.52219v-.00451a5.5222,5.5222,0,0,0-5.51995-5.52445h-55.222a5.5267,5.5267,0,0,0-5.52219,5.52445" fill="#fff"/><path d="M145.47856,135.94489v60.23928a6.026,6.026,0,1,0,12.05191,0V135.94489a6.02256,6.02256,0,0,0-6.02483-6.02032h-.00225a6.02257,6.02257,0,0,0-6.02483,6.01807" fill="#fff"/></svg>