<svg id="Layer_1" data-name="Layer 1" xmlns="http://www.w3.org/2000/svg" viewBox="0 0 300 300"><defs><style>.cls-1{fill:#34b45f;}.cls-2{fill:#fff;}.cls-3{fill:#284396;}</style></defs><path class="cls-1" d="M50.52,61.4V185.68a53.08,53.08,0,0,0,52.92,52.92h146V114.33A53.09,53.09,0,0,0,196.56,61.4h-146"/><path class="cls-2" d="M196.69,70.86H60v115a43.45,43.45,0,0,0,43.34,43.33H240V114.19A43.46,43.46,0,0,0,196.7,70.86"/><path class="cls-3" d="M196.28,77.16h-130V185.4a37.55,37.55,0,0,0,37.44,37.44h130V114.61a37.55,37.55,0,0,0-37.44-37.45"/><path class="cls-2" d="M131.54,95.36l-.42,25.3-48.27,0V95.27ZM134.73,160c3-3,4-9.51,2.43-14.8A22,22,0,0,0,128.7,133a23.52,23.52,0,0,0-11.79-4.79l-34-.07a27.47,27.47,0,0,1,17.74,17.28c3.61,17.39-16.35,20.69-16.35,20.69h37.31A19.69,19.69,0,0,0,134.73,160m65.86,6.83c8.24-1.6,11.71-5.76,12.83-6.9,2.75-2.84,4.49-8.87,3.05-13.79a20.2,20.2,0,0,0-7.85-11.21,19.6,19.6,0,0,0-11.31-4l-31.69-.08c13.39,4.52,16.17,16.1,16.17,16.1s5,15.67-15.69,19.8c0,0-.28-.07-.06,0a31.85,31.85,0,0,1,10.8,7.24,21.21,21.21,0,0,1,4.81,9.17c3.34,16.2-16.15,20.19-16.15,20.19l30.95-.06c10.76,0,15.58-6,16.52-6.95,2.74-2.85,5-8.39,4-13.22a18.54,18.54,0,0,0-6.25-10.55c-3.72-3.21-10.16-5.79-10.16-5.79s0,0,0,0m-60.84,38.82L169.66,92.42l-7.09-.23L132.66,205.64h7.08"/></svg>