<svg id="Layer_1" data-name="Layer 1" xmlns="http://www.w3.org/2000/svg" viewBox="0 0 300 300"><defs><style>.cls-1{fill:#fff;}</style></defs><path class="cls-1" d="M19.87,26.08l.5-5H69.23c.28,113,93.45,208.54,210.63,208.74v48.81a218.93,218.93,0,0,1-59.52-5.73C116.6,249,37,162.52,22.23,57.91c-1.1-7.76-1.58-15.6-2.35-23.41Z"/><path class="cls-1" d="M120.16,21.31h48.53c1.43,29.7,11.11,56.24,32.8,77.4s47.7,32,78.64,32.11v47.73C202.21,183.55,119.1,116.08,120.16,21.31Z"/><path class="cls-1" d="M280,21.42V80.78c-32.2,3-63.6-27.29-61.52-59.36Z"/></svg>