<svg id="Layer_1" data-name="Layer 1" xmlns="http://www.w3.org/2000/svg" viewBox="0 0 300 300"><title>Consolidated list_logos1</title><path d="M275,186.2522H247.80929c-14.8196,0-30.54124-10.03521-30.54124-37.00484,0-22.07746,14.30412-35.625,30.54124-35.625H275v23.45731H255.15464c-3.60824,0-11.85568,1.37984-11.85568,12.544,0,11.28961,8.37628,12.92033,11.85568,12.92033H275Z" fill="#fff"/><path d="M92.7835,163.29666c9.53609,0,12.37114-5.26849,12.37114-11.66594s-2.835-11.66593-12.37114-11.66593H79.38144v-6.272h30.02578v-19.945h-56.701v26.217H37.37113C27.83505,139.96479,25,145.23328,25,151.63072s2.70619,11.66594,12.37113,11.66594H52.44846v23.081h26.933v-23.081Z" fill="#fff"/><path d="M176.67526,186.2522l11.85567-52.30854V186.2522h23.71135V113.7478H187.11342c-15.07733,0-16.49485,7.401-18.55671,16.30722l-5.02577,23.58274L158.634,130.055c-2.06186-8.90625-3.47938-16.30722-18.55671-16.30722H114.94846v72.62984h23.71135V134.0691l11.85567,52.30854h26.15979Z" fill="#fff"/></svg>