<svg id="Layer_1" data-name="Layer 1" xmlns="http://www.w3.org/2000/svg" viewBox="0 0 300 300"><g id="g3"><g id="g5"><path id="path7" d="M62.93937,127.546v12.87229h27.2075v26.9158H62.93937V199.2217H35V100.48458H94.38881l1.9019,27.06144Z" fill="#fff"/><path id="path9" d="M176.05431,115.662a47.17962,47.17962,0,0,1,13.906,34.2609,47.35561,47.35561,0,0,1-13.906,34.40574,46.9093,46.9093,0,0,1-67.2313,0,47.34451,47.34451,0,0,1-13.90518-34.40573A47.17012,47.17012,0,0,1,108.823,115.662a46.90742,46.90742,0,0,1,67.23129,0Zm-41.57152,54.04338a7.83767,7.83767,0,0,0,2.437,5.73449,8.00328,8.00328,0,0,0,5.8773,2.43741,7.77157,7.77157,0,0,0,5.8059-2.43741,7.959,7.959,0,0,0,2.3656-5.73449v-39.995a8.1341,8.1341,0,0,0-2.3656-5.87729,7.779,7.779,0,0,0-5.8059-2.437,8.32048,8.32048,0,0,0-8.3143,8.3143v39.995Z" fill="#fff"/><path id="path11" d="M233.54975,199.51542l-14.0419-25.01431-13.60376,25.01431H175.18571l29.25585-51.19784-27.64687-47.833H208.391l11.55621,21.35657,11.70185-21.35657h30.57152l-27.06145,47.54009L265,199.515H233.54975Z" fill="#fff"/></g></g></svg>