<svg id="Layer_1" data-name="Layer 1" xmlns="http://www.w3.org/2000/svg" viewBox="0 0 300 300"><path d="M128.84422,65.20006v79.60126h33.32087l18.32223-21.997a3.03886,3.03886,0,0,1,2.3139-.10611v52.45025c-1.834,1.0717-2.61148-.322-3.436-1.38015-4.00929-5.14563-7.98257-10.3193-11.96975-15.48216-1.71622-2.2223-3.43523-4.44245-5.23713-6.7724H128.91173v70.12344c6.81314,5.35457,13.82709,10.867,20.81275,16.35708a3.098,3.098,0,0,1,.02659,2.31219H75.30982c-.52771-.54944-.24682-1.33453-.12979-2.20789,6.12441-5.52791,12.3032-11.10488,18.42064-16.62649V77.74323L75.31112,61.34071a3.811,3.811,0,0,1-.12662-2.59511H207.56822v47.94617c-1.48481.2642-1.70258-1.10093-2.22572-1.91309Q197.60535,92.76719,189.9468,80.705c-3.28741-5.15119-6.5719-10.30423-9.88864-15.505Z" fill="#fdfdfd"/><path d="M185.17139,201.66816H225V241.2544H185.17139Z" fill="#e14b34"/></svg>