<?xml version="1.0" encoding="utf-8"?>
<!-- Generator: Adobe Illustrator 24.0.1, SVG Export Plug-In . SVG Version: 6.00 Build 0)  -->
<svg version="1.1" id="Layer_1" xmlns="http://www.w3.org/2000/svg" xmlns:xlink="http://www.w3.org/1999/xlink" x="0px" y="0px"
	 viewBox="0 0 300 300" style="enable-background:new 0 0 300 300;" xml:space="preserve">
<style type="text/css">
	.st0{fill:#E52713;}
</style>
<title>FSLR_Light_bg</title>
<g>
	<path class="st0" d="M157.2,120.5c0.1,30.1-24.1,54.5-54.2,54.7C73,175.3,48.5,151.1,48.3,121c-0.1-30.1,24.1-54.5,54.2-54.7
		c0.1,0,0.2,0,0.2,0C132.8,66.3,157.1,90.5,157.2,120.5C157.2,120.5,157.2,120.5,157.2,120.5"/>
	<path class="st0" d="M32.5,175.1c0,0,38.9,20.5,70.4,19.7c19.6-0.5,33.2-4.3,49.1-7.8c15.9-3.4,39.3-8.4,54.2-7.9
		c13.7,0.4,41,7.8,61.3,29.2c0,0-23.9-20.1-63.4-19.5c0,0-18.9,0.4-49.5,8.1c-37.1,9.4-57,7.5-57,7.5S58.5,204.5,32.5,175.1"/>
	<path class="st0" d="M32.5,200.4c0,0,38.9,20.5,70.4,19.7c19.6-0.5,33.2-4.3,49.1-7.8s39.3-8.4,54.2-7.9c13.7,0.5,41,7.8,61.3,29.2
		c0,0-23.9-20.1-63.4-19.5c0,0-18.9,0.4-49.5,8.1c-37.1,9.4-57,7.5-57,7.5S58.5,229.8,32.5,200.4"/>
</g>
</svg>
