<svg id="Layer_1" data-name="Layer 1" xmlns="http://www.w3.org/2000/svg" viewBox="0 0 300 300"><rect x="20" y="126.00802" width="73.54062" height="48.24474" fill="#d54433"/><rect x="113.88165" y="57.42227" width="72.2367" height="48.24474" fill="#d54433"/><rect x="113.88165" y="194.333" width="72.2367" height="48.24474" fill="#d54433"/><rect x="206.19859" y="126.00802" width="73.80141" height="48.24474" fill="#d54433"/><path d="M50.25075,57.42227C34.86459,61.334,22.8686,78.54564,20,100.45136v5.47643H93.54062V57.42227Z" fill="#d54433"/><path d="M20,194.333v5.998c2.60782,20.86258,13.82147,37.55265,28.42528,42.24674H93.80141V194.333Z" fill="#d54433"/><path d="M280,105.667v-5.47643c-2.86862-21.64493-14.86459-38.85657-30.25077-43.02909H206.19859v48.24474H280Z" fill="#d54433"/><path d="M251.57474,242.83852c14.343-4.95487,25.55668-21.38416,28.42526-42.24675v-5.998H206.19859v48.24474h45.37615Z" fill="#d54433"/></svg>