<svg id="Layer_1" data-name="Layer 1" xmlns="http://www.w3.org/2000/svg" viewBox="0 0 300 300"><defs><style>.cls-1{fill:#67bd4a;fill-rule:evenodd;}</style></defs><path id="Layer" class="cls-1" d="M264.4,149.85A114.5,114.5,0,0,1,107,256.38V222.1a85.16,85.16,0,0,0,42.84,11.62A83.8,83.8,0,0,0,192.73,77.9v35.58l-85.46,49.3V127.2l85.46-49.59A85.94,85.94,0,0,0,149.82,66,83.85,83.85,0,0,0,107,221.89l-29.34,17A114.65,114.65,0,0,1,149.82,35.27c63.39,0,114.87,51.27,114.58,114.58Zm-89.46,32.9-67.67,39.14V186.23l67.67-39.06Z"/></svg>