<svg id="Layer_1" data-name="Layer 1" xmlns="http://www.w3.org/2000/svg" viewBox="0 0 300 300"><defs><style>.cls-1{fill:#fff;}</style></defs><title>GD_Dark_bg</title><path class="cls-1" d="M142.13,115.19v17.19h-3.65c-18.41,0-36.83,0-55.24.12a17.88,17.88,0,0,0-16.36,11.2c-2.53,6.84-.83,14.5,4.26,19.11,4,3.62,8.93,5,14.09,5.13,11.09.22,22.19.07,33.59.07V157.2H94.5V141.71h47.57v43c-.73,0-1.37.13-2,.13-21,0-41.95.09-62.92,0C61.3,184.76,47.21,174,43.25,159.34a34.43,34.43,0,0,1,30-43.57c3.48-.35,7-.54,10.48-.55,18.32-.06,36.64,0,55,0Z"/><path class="cls-1" d="M154.72,184.88V115.39c.83-.07,1.64-.19,2.45-.19,21.55,0,43.1-.28,64.64.08,17,.29,31.28,10,35.22,26.7a34.42,34.42,0,0,1-29.46,42.32,75.82,75.82,0,0,1-8.78.56q-30.47.06-60.94,0Zm23.38-52.5v35.18c.39.19.56.35.73.35,13.35-.12,26.73.22,40-.56,6.68-.39,12.06-4.4,14.36-11.21,4-11.85-4-23.35-16.51-23.63-9.76-.23-19.53-.1-29.29-.13Z"/></svg>