<?xml version="1.0" encoding="utf-8"?>
<!-- Generator: Adobe Illustrator 24.0.1, SVG Export Plug-In . SVG Version: 6.00 Build 0)  -->
<svg version="1.1" id="Layer_1" xmlns="http://www.w3.org/2000/svg" xmlns:xlink="http://www.w3.org/1999/xlink" x="0px" y="0px"
	 viewBox="0 0 300 300" style="enable-background:new 0 0 300 300;" xml:space="preserve">
<style type="text/css">
	.st0{fill:#FFFFFF;}
</style>
<title>GE_Dark_bg</title>
<g id="_3a73b8ff">
	<path class="st0" d="M144.4,35.6c62.1-4.5,116.2,42.2,120.7,104.3S222.9,256,160.8,260.6c-62.1,4.5-116.2-42.2-120.7-104.3
		c-1.3-17.7,1.6-35.4,8.4-51.8C65,65.3,102,38.7,144.4,35.6 M144.4,41c-13.2,1-26.2,4.4-38.2,10.2C86.8,60.5,70.7,75.4,59.9,94
		c-15.9,26.7-19,60.5-8.5,89.7c14.9,42.3,54.7,70.9,99.5,71.6c17.2,0.4,34.2-3.5,49.5-11.2c19.5-9.8,35.6-25.2,46.2-44.4
		c10.5-19,14.9-40.8,12.7-62.4c-3.1-34.8-24.8-67-55.5-83.6C185.6,43.8,165,39.4,144.4,41L144.4,41z"/>
	<path class="st0" d="M125.4,51.2c18.9-5.3,38.9-4.9,57.6,1c0.8,0.3,1.5,0.8,2.1,1.4c-3.1-0.2-5.9-1.6-8.9-2.1
		c-7.6-1.5-15.4-2.3-23.1-1.1c-4.8,0.9-9.9,2.7-12.9,6.8c-2.3,3-2.6,7.7,0.1,10.5c3,3.1,8.2,3,11.5,0.4c3.9-2.8,7.6-6.2,12.5-7.3
		c9.8-2.4,20.1-0.5,29.6,2.3c11.5,3.1,22.1,8.8,31,16.7c14.6,12.9,23.4,31.4,26.7,50.4c3,16.3,2,33-3,48.8c-0.1,0.7-0.7,1.2-1.4,1.3
		c2.9-10.7,5.1-22,2.9-33.1c-1.1-5.3-3.8-11.3-9.4-13.2c-4.3-1.5-9.5,1.4-9.9,6.1c-0.8,5,3.3,8.6,5.8,12.3c5.5,7.8,4.8,18,3.4,27
		c-2.5,12.2-6.6,24.3-13.9,34.4c-11.4,16.3-29.5,27.1-48.7,31.7c-16.7,4-34.2,3.9-50.9-0.1c-2.2-0.6-4.7-0.9-6.4-2.6
		c3.2,0,6.1,1.4,9.2,1.9c8.5,1.5,17.3,2.5,25.8,0.4c3.8-1.1,7.7-2.9,10.1-6.2c2.2-3.1,2.2-7.8-0.6-10.5c-2.5-2.5-6.3-3.1-9.4-1.4
		c-3.6,2-6.4,5.2-10.1,7c-7.4,3.6-16.1,3.1-24,1.7c-13.1-2.6-26.1-7.3-36.7-15.7c-14.1-10.8-23.8-26.6-28.6-43.6
		c-5-17.9-5.2-36.8-0.5-54.8c0.8-1.8,0.5-4.8,2.6-5.7c-2.7,10.2-4.8,20.9-3.2,31.5c0.8,4.7,2.5,9.7,6.4,12.7c2.7,2.2,6.9,3,9.9,0.9
		c3.2-1.9,4.2-6.3,2.8-9.5c-1.6-3.7-4.7-6.4-6.5-9.9c-3.9-7.1-3.5-15.7-2.4-23.5c2.2-12.5,6.4-24.9,13.8-35.3
		C89.8,67,107,56.2,125.4,51.2 M128,89.2c-6.1,3.3-10.3,9.2-13.4,15.2c-3.3,6.2-4.6,13.2-5.2,20.1c-3-0.4-5.5-2.7-6.1-5.7
		c-1.4-4.3,0.1-8.7,0.8-12.9c0.3-1.2-0.6-2.2-1.1-3.2c-2.6-0.2-5.2,1.1-6.4,3.4c-3.5,6.5-3.2,15.3,1.6,21.1
		c2.8,3.5,7.1,5.2,11.5,5.7c1.5,4.5,4.3,8.9,8.9,10.7c5.6,2.3,11.8-0.1,16.7-3.1c-0.1,1.8-0.4,3.7-0.9,5.4c-1.8,1.2-3.7,2.3-5.7,3.3
		c-9.4,5-19,10-27,17.2c-5.7,5.4-10.3,12.6-11.1,20.6c-0.4,6.3,2.1,13.2,7.6,16.6c5.8,3.8,13.3,3.6,19.6,1.2c7.9-3,13.8-9.7,17.7-17
		c5.8-10.4,6.8-22.4,7.6-34c0.2-1.4,0-3.3,1.6-3.9c9.4-5.3,18.5-11.1,27.3-17.4c1,1.3,2.1,2.6,3,3.9c-4.5,2.7-9,5.6-12.4,9.6
		c-12.7,13.9-12.9,37.8,0.4,51.3c6.8,7.2,17.3,10.3,27,8.8c9-1.4,16.9-6.8,21.5-14.6c6-9.9,5-23.7-2.8-32.4
		c-7.3-8.1-21.5-7.9-28.6,0.3c-5.6,5.9-5.8,16.3,0.1,22.1c2.4,2.4,6.5,3.8,9.5,1.8c1.9-1.4,1.7-4.3,0.2-5.9c-2-2.4-4.4-5.2-3.8-8.6
		c0.6-4.4,5.5-7.1,9.7-6.2c3.5,0.7,6.4,3.2,7.7,6.6c3,7.6,1.4,16.3-4.2,22.3c-5.9,6.2-16.2,7.1-23.3,2.6c-6.3-3.9-9.9-11.1-11-18.3
		c-1.2-8.6,0.5-17.9,5.9-25c3.4-4.6,8.3-7.9,13.8-9.4c4.6,0.4,9.5,1.2,14-0.3c2.1-0.7,4.2-3.1,3.1-5.5s-4.1-3.1-6.5-3.6
		c-3.6-0.7-7.2,0.2-10.7,0.9c-2.5-0.9-3.8-3.4-4.7-5.7c6.8-5.1,13.6-10.7,18.2-17.9c2.7-4.4,4.5-9.7,3.2-14.9
		c-1-3.5-3.8-6.2-7.3-6.9c-5.9-1.5-12,1.5-16,5.8c-6.4,7.2-9.8,16.6-9.5,26.3c-0.1,2,0.7,4,0.1,5.9c-4.9,3.9-10.3,7-15.5,10.4
		c-2.9,1.9-5.9,3.6-9,5.2c0-3,0.3-6.1,1.1-9c2.3-3.1,5.2-5.9,7-9.4c1.3-2.4,2.6-5.4,1.2-8.1c-1.3-2-4.1-1.8-5.9-0.8
		c-3.9,2-6.1,6.2-7.7,10.1c-1.1,2.5-1.2,5.6-3.5,7.4c-3.2,2.8-7.1,5.7-11.7,5.5c-2.6,0-4.3-2.4-4.8-4.7c7.1-2.8,13.1-7.9,17.9-13.8
		c4.5-5.7,8-12.5,8.6-19.9c0.3-3.7-1-7.9-4.4-9.8C137.4,86.3,132.1,87,128,89.2L128,89.2z"/>
	<path class="st0" d="M132,96c1.5-1.1,3.7-0.8,4.8,0.7c0,0,0,0,0,0c0.1,0.2,0.3,0.4,0.4,0.6c0.6,2.5-0.3,5-1.4,7.2
		c-3.1,6.1-7.4,11.6-12.7,16c-1.3,1.2-2.7,2.1-4.3,2.8c0.2-5.5,2.1-10.8,4.4-15.7C125.4,103.2,127.9,98.8,132,96z"/>
	<path class="st0" d="M185.3,98.1c1.5-1.7,4-3.4,6.2-2.2c2.4,1.4,1.2,4.7,0.2,6.7c-3.4,6.2-8.4,11.5-13.8,15.9
		C177.8,111.1,180.4,103.8,185.3,98.1z"/>
	<path class="st0" d="M112.3,169.7c6.4-5.4,13.4-9.9,21-13.4c-0.8,8.4-2.8,16.6-5.9,24.4c-2.7,6.3-6.7,12.7-13.4,15.3
		c-3.4,1.3-8,2.1-10.9-0.6c-2.8-2.5-2.6-6.8-1.8-10.1C103,178.9,107.6,173.9,112.3,169.7z"/>
</g>
</svg>
