<svg id="Layer_1" data-name="Layer 1" xmlns="http://www.w3.org/2000/svg" viewBox="0 0 300 300"><title>GEHC_Mark_Dark</title><path d="M171.48277,125.07508c0-10.87982,7.37652-21.452,11.40205-19.42386C187.4641,107.92623,179.44305,118.19078,171.48277,125.07508Z" fill="#fff"/><path d="M121.35681,129.03984c0-8.72862,8.63557-25.386,13.92167-23.634C141.51749,107.49554,130.11544,124.276,121.35681,129.03984Z" fill="#fff"/><path d="M133.7418,156.91544c-2.12044,15.9198-7.49883,34.11386-21.11361,34.72839-3.99552.18458-6.63819-2.3658-6.63819-6.60743C105.99,173.63435,121.78675,162.75453,133.7418,156.91544Z" fill="#fff"/><path d="M133.7418,156.91544c-2.12044,15.9198-7.49883,34.11386-21.11361,34.72839-3.99552.18458-6.63819-2.3658-6.63819-6.60743C105.99,173.63435,121.78675,162.75453,133.7418,156.91544Z" fill="#fff"/><path d="M121.35681,129.03984c0-8.72862,8.63557-25.386,13.92167-23.634C141.51749,107.49554,130.11544,124.276,121.35681,129.03984Z" fill="#fff"/><path d="M171.48277,125.07508c0-10.87982,7.37652-21.452,11.40205-19.42386C187.4641,107.92623,179.44305,118.19078,171.48277,125.07508Z" fill="#fff"/><path d="M133.7418,156.91544c-2.12044,15.9198-7.49883,34.11386-21.11361,34.72839-3.99552.18458-6.63819-2.3658-6.63819-6.60743C105.99,173.63435,121.78675,162.75453,133.7418,156.91544Z" fill="#fff"/><path d="M121.35681,129.03984c0-8.72862,8.63557-25.386,13.92167-23.634C141.51749,107.49554,130.11544,124.276,121.35681,129.03984Z" fill="#fff"/><path d="M171.48277,125.07508c0-10.87982,7.37652-21.452,11.40205-19.42386C187.4641,107.92623,179.44305,118.19078,171.48277,125.07508Z" fill="#fff"/><path d="M186.84958,78.3909c-6.8843-2.12044-12.72339-3.44178-19.36233-3.44178-15.36681,0-15.889,8.75863-23.05021,8.75863a6.34632,6.34632,0,0,1-6.6382-6.36207c0-6.116,7.16118-10.87982,18.56323-10.87982a59.29745,59.29745,0,0,1,20.40679,3.381c.09229.03076.27687,0,.36916-.24611a.41241.41241,0,0,0-.09229-.49147c-.46145-.36841-12.8772-4.61-27.04573-4.487-30.51827.21534-61.52876,15.64368-71.60948,48.5285-2.12044,6.8843-3.44177,12.72339-3.44177,19.36233,0,15.36681,8.75938,16.16516,8.75938,23.32633a6.28478,6.28478,0,0,1-6.39284,6.36207c-6.08519,0-10.84905-6.8843-10.84905-18.56322a69.585,69.585,0,0,1,3.16565-20.4068c.03076-.06152-.03076-.2461-.27687-.3384-.24536-.09229-.42994,0-.46071.0923a87.69377,87.69377,0,0,0-4.30315,27.015c0,30.76438,15.67444,61.80488,48.55926,71.85483,6.8843,2.152,12.72339,3.47329,19.33157,3.47329,15.39757,0,15.9198-9.03625,23.081-9.03625a6.57278,6.57278,0,0,1,6.6382,6.63894c0,5.83909-6.8843,10.603-18.56248,10.603a66.13194,66.13194,0,0,1-20.40754-3.16565c-.09229-.03077-.30764.09229-.36916.27687a.41956.41956,0,0,0,.123.52223c2.98182,1.3521,12.97025,4.21087,27.015,4.21087,30.519,0,61.80564-15.36681,71.60948-48.49774,2.12044-6.669,3.44177-12.75491,3.44177-19.11622,0-15.64369-8.72786-16.16592-8.72786-23.32709,0-3.99552,2.64267-6.63819,6.36132-6.63819,6.08519,0,10.81829,7.16042,10.8498,18.83935a73.30141,73.30141,0,0,1-3.1664,20.40679c-.03.15382.06153.27687.27687.3384.30764.12305.46146,0,.49147-.09229a83.49555,83.49555,0,0,0,4.24163-27.29109C235.10121,119.75823,220.01127,88.47161,186.84958,78.3909Zm-8.974,121.45931c-18.31711,0-27.59873-15.39757-27.59873-29.19693,0-19.33157,13.27714-27.568,18.83935-30.48826a10.96578,10.96578,0,0,1-2.67343-3.16491A248.1586,248.1586,0,0,1,142.102,152.39769c-.523,8.48251-1.35285,17.7326-3.50405,24.09467-4.487,13.554-13.7686,23.35785-25.96976,23.35785-10.35759,0-15.39757-7.438-15.39757-15.39757,0-5.83909,3.47254-13.24637,9.55773-18.83935,7.68341-6.88505,16.16592-11.12593,27.84484-17.21112.27687-1.59821.52223-3.19642.79911-5.04074a16.2668,16.2668,0,0,1-10.60295,3.71865c-5.563,0-10.08072-4.79387-11.156-9.83461-7.40728-.52223-12.97024-5.83908-13.24637-14.32159,0-6.0852,2.36655-11.40205,6.36132-11.40205a2.1562,2.1562,0,0,1,2.12044,2.39731c0,1.04446-1.32133,4.51775-1.32133,7.95952,0,3.44253,1.56744,7.96028,5.83984,7.96028,0-13.79936,10.04995-31.56348,22.005-31.56348,7.96027,0,9.00474,5.83908,9.00474,8.4825,0,12.478-12.44652,26.24663-22.52724,29.71917.24536,1.04522,1.32134,3.96476,4.487,3.96476,3.99552,0,8.75863-3.71865,11.15594-6.63819,1.04522-5.563,5.04074-13.52249,10.32683-13.52249A3.14458,3.14458,0,0,1,151.076,123.723c0,3.99552-4.36394,9.15856-7.56035,12.60034a48.80079,48.80079,0,0,0-1.01445,8.05256c9.28161-5.59373,14.41388-8.69785,21.29818-13.73783a23.29351,23.29351,0,0,1-.52223-6.116c0-12.44727,8.20564-26.24663,19.08546-26.24663,6.0852,0,9.28161,4.24088,9.28161,9.0355,0,9.00549-7.6834,16.965-18.56322,25.17065a8.64129,8.64129,0,0,0,3.934,4.88692,21.88706,21.88706,0,0,1,7.06888-1.13676c3.16565.15307,7.52959,1.25981,7.74493,4.21012.49147,6.69972-14.72152,3.99552-14.78305,3.99552-5.80832,1.56744-16.965,8.20564-16.965,25.17065,0,11.40206,7.16117,22.03577,18.28635,22.03577,8.51327,0,15.70521-6.822,15.98208-16.65738,0-6.36132-2.98182-12.508-9.34314-12.508-3.16565,0-6.36207,2.27351-6.60818,5.65451-.3384,5.16379,4.21087,5.9929,4.21087,9.46619a3.396,3.396,0,0,1-3.68789,3.44178c-5.31685,0-9.28161-5.31686-9.28161-11.955,0-7.92951,6.88355-14.5677,15.91981-14.5677v-.03077c11.67892,0,17.76412,10.08072,17.76412,20.96054C203.32313,187.37218,192.96554,199.85021,177.8756,199.85021Z" fill="#fff"/><path d="M133.7418,156.91544c-2.12044,15.9198-7.49883,34.11386-21.11361,34.72839-3.99552.18458-6.63819-2.3658-6.63819-6.60743C105.99,173.63435,121.78675,162.75453,133.7418,156.91544Z" fill="#fff"/><path d="M121.35681,129.03984c0-8.72862,8.63557-25.386,13.92167-23.634C141.51749,107.49554,130.11544,124.276,121.35681,129.03984Z" fill="#fff"/><path d="M171.48277,125.07508c0-10.87982,7.37652-21.452,11.40205-19.42386C187.4641,107.92623,179.44305,118.19078,171.48277,125.07508Z" fill="#fff"/><path d="M186.84958,78.3909c-6.8843-2.12044-12.72339-3.44178-19.36233-3.44178-15.36681,0-15.889,8.75863-23.05021,8.75863a6.34632,6.34632,0,0,1-6.6382-6.36207c0-6.116,7.16118-10.87982,18.56323-10.87982a59.29745,59.29745,0,0,1,20.40679,3.381c.09229.03076.27687,0,.36916-.24611a.41241.41241,0,0,0-.09229-.49147c-.46145-.36841-12.8772-4.61-27.04573-4.487-30.51827.21534-61.52876,15.64368-71.60948,48.5285-2.12044,6.8843-3.44177,12.72339-3.44177,19.36233,0,15.36681,8.75938,16.16516,8.75938,23.32633a6.28478,6.28478,0,0,1-6.39284,6.36207c-6.08519,0-10.84905-6.8843-10.84905-18.56322a69.585,69.585,0,0,1,3.16565-20.4068c.03076-.06152-.03076-.2461-.27687-.3384-.24536-.09229-.42994,0-.46071.0923a87.69377,87.69377,0,0,0-4.30315,27.015c0,30.76438,15.67444,61.80488,48.55926,71.85483,6.8843,2.152,12.72339,3.47329,19.33157,3.47329,15.39757,0,15.9198-9.03625,23.081-9.03625a6.57278,6.57278,0,0,1,6.6382,6.63894c0,5.83909-6.8843,10.603-18.56248,10.603a66.13194,66.13194,0,0,1-20.40754-3.16565c-.09229-.03077-.30764.09229-.36916.27687a.41956.41956,0,0,0,.123.52223c2.98182,1.3521,12.97025,4.21087,27.015,4.21087,30.519,0,61.80564-15.36681,71.60948-48.49774,2.12044-6.669,3.44177-12.75491,3.44177-19.11622,0-15.64369-8.72786-16.16592-8.72786-23.32709,0-3.99552,2.64267-6.63819,6.36132-6.63819,6.08519,0,10.81829,7.16042,10.8498,18.83935a73.30141,73.30141,0,0,1-3.1664,20.40679c-.03.15382.06153.27687.27687.3384.30764.12305.46146,0,.49147-.09229a83.49555,83.49555,0,0,0,4.24163-27.29109C235.10121,119.75823,220.01127,88.47161,186.84958,78.3909Zm-8.974,121.45931c-18.31711,0-27.59873-15.39757-27.59873-29.19693,0-19.33157,13.27714-27.568,18.83935-30.48826a10.96578,10.96578,0,0,1-2.67343-3.16491A248.1586,248.1586,0,0,1,142.102,152.39769c-.523,8.48251-1.35285,17.7326-3.50405,24.09467-4.487,13.554-13.7686,23.35785-25.96976,23.35785-10.35759,0-15.39757-7.438-15.39757-15.39757,0-5.83909,3.47254-13.24637,9.55773-18.83935,7.68341-6.88505,16.16592-11.12593,27.84484-17.21112.27687-1.59821.52223-3.19642.79911-5.04074a16.2668,16.2668,0,0,1-10.60295,3.71865c-5.563,0-10.08072-4.79387-11.156-9.83461-7.40728-.52223-12.97024-5.83908-13.24637-14.32159,0-6.0852,2.36655-11.40205,6.36132-11.40205a2.1562,2.1562,0,0,1,2.12044,2.39731c0,1.04446-1.32133,4.51775-1.32133,7.95952,0,3.44253,1.56744,7.96028,5.83984,7.96028,0-13.79936,10.04995-31.56348,22.005-31.56348,7.96027,0,9.00474,5.83908,9.00474,8.4825,0,12.478-12.44652,26.24663-22.52724,29.71917.24536,1.04522,1.32134,3.96476,4.487,3.96476,3.99552,0,8.75863-3.71865,11.15594-6.63819,1.04522-5.563,5.04074-13.52249,10.32683-13.52249A3.14458,3.14458,0,0,1,151.076,123.723c0,3.99552-4.36394,9.15856-7.56035,12.60034a48.80079,48.80079,0,0,0-1.01445,8.05256c9.28161-5.59373,14.41388-8.69785,21.29818-13.73783a23.29351,23.29351,0,0,1-.52223-6.116c0-12.44727,8.20564-26.24663,19.08546-26.24663,6.0852,0,9.28161,4.24088,9.28161,9.0355,0,9.00549-7.6834,16.965-18.56322,25.17065a8.64129,8.64129,0,0,0,3.934,4.88692,21.88706,21.88706,0,0,1,7.06888-1.13676c3.16565.15307,7.52959,1.25981,7.74493,4.21012.49147,6.69972-14.72152,3.99552-14.78305,3.99552-5.80832,1.56744-16.965,8.20564-16.965,25.17065,0,11.40206,7.16117,22.03577,18.28635,22.03577,8.51327,0,15.70521-6.822,15.98208-16.65738,0-6.36132-2.98182-12.508-9.34314-12.508-3.16565,0-6.36207,2.27351-6.60818,5.65451-.3384,5.16379,4.21087,5.9929,4.21087,9.46619a3.396,3.396,0,0,1-3.68789,3.44178c-5.31685,0-9.28161-5.31686-9.28161-11.955,0-7.92951,6.88355-14.5677,15.91981-14.5677v-.03077c11.67892,0,17.76412,10.08072,17.76412,20.96054C203.32313,187.37218,192.96554,199.85021,177.8756,199.85021Z" fill="#fff"/><path d="M133.7418,156.91544c-2.12044,15.9198-7.49883,34.11386-21.11361,34.72839-3.99552.18458-6.63819-2.3658-6.63819-6.60743C105.99,173.63435,121.78675,162.75453,133.7418,156.91544Z" fill="#fff"/><path d="M121.35681,129.03984c0-8.72862,8.63557-25.386,13.92167-23.634C141.51749,107.49554,130.11544,124.276,121.35681,129.03984Z" fill="#fff"/><path d="M171.48277,125.07508c0-10.87982,7.37652-21.452,11.40205-19.42386C187.4641,107.92623,179.44305,118.19078,171.48277,125.07508Z" fill="#fff"/><path d="M186.84958,78.3909c-6.8843-2.12044-12.72339-3.44178-19.36233-3.44178-15.36681,0-15.889,8.75863-23.05021,8.75863a6.34632,6.34632,0,0,1-6.6382-6.36207c0-6.116,7.16118-10.87982,18.56323-10.87982a59.29745,59.29745,0,0,1,20.40679,3.381c.09229.03076.27687,0,.36916-.24611a.41241.41241,0,0,0-.09229-.49147c-.46145-.36841-12.8772-4.61-27.04573-4.487-30.51827.21534-61.52876,15.64368-71.60948,48.5285-2.12044,6.8843-3.44177,12.72339-3.44177,19.36233,0,15.36681,8.75938,16.16516,8.75938,23.32633a6.28478,6.28478,0,0,1-6.39284,6.36207c-6.08519,0-10.84905-6.8843-10.84905-18.56322a69.585,69.585,0,0,1,3.16565-20.4068c.03076-.06152-.03076-.2461-.27687-.3384-.24536-.09229-.42994,0-.46071.0923a87.69377,87.69377,0,0,0-4.30315,27.015c0,30.76438,15.67444,61.80488,48.55926,71.85483,6.8843,2.152,12.72339,3.47329,19.33157,3.47329,15.39757,0,15.9198-9.03625,23.081-9.03625a6.57278,6.57278,0,0,1,6.6382,6.63894c0,5.83909-6.8843,10.603-18.56248,10.603a66.13194,66.13194,0,0,1-20.40754-3.16565c-.09229-.03077-.30764.09229-.36916.27687a.41956.41956,0,0,0,.123.52223c2.98182,1.3521,12.97025,4.21087,27.015,4.21087,30.519,0,61.80564-15.36681,71.60948-48.49774,2.12044-6.669,3.44177-12.75491,3.44177-19.11622,0-15.64369-8.72786-16.16592-8.72786-23.32709,0-3.99552,2.64267-6.63819,6.36132-6.63819,6.08519,0,10.81829,7.16042,10.8498,18.83935a73.30141,73.30141,0,0,1-3.1664,20.40679c-.03.15382.06153.27687.27687.3384.30764.12305.46146,0,.49147-.09229a83.49555,83.49555,0,0,0,4.24163-27.29109C235.10121,119.75823,220.01127,88.47161,186.84958,78.3909Zm-8.974,121.45931c-18.31711,0-27.59873-15.39757-27.59873-29.19693,0-19.33157,13.27714-27.568,18.83935-30.48826a10.96578,10.96578,0,0,1-2.67343-3.16491A248.1586,248.1586,0,0,1,142.102,152.39769c-.523,8.48251-1.35285,17.7326-3.50405,24.09467-4.487,13.554-13.7686,23.35785-25.96976,23.35785-10.35759,0-15.39757-7.438-15.39757-15.39757,0-5.83909,3.47254-13.24637,9.55773-18.83935,7.68341-6.88505,16.16592-11.12593,27.84484-17.21112.27687-1.59821.52223-3.19642.79911-5.04074a16.2668,16.2668,0,0,1-10.60295,3.71865c-5.563,0-10.08072-4.79387-11.156-9.83461-7.40728-.52223-12.97024-5.83908-13.24637-14.32159,0-6.0852,2.36655-11.40205,6.36132-11.40205a2.1562,2.1562,0,0,1,2.12044,2.39731c0,1.04446-1.32133,4.51775-1.32133,7.95952,0,3.44253,1.56744,7.96028,5.83984,7.96028,0-13.79936,10.04995-31.56348,22.005-31.56348,7.96027,0,9.00474,5.83908,9.00474,8.4825,0,12.478-12.44652,26.24663-22.52724,29.71917.24536,1.04522,1.32134,3.96476,4.487,3.96476,3.99552,0,8.75863-3.71865,11.15594-6.63819,1.04522-5.563,5.04074-13.52249,10.32683-13.52249A3.14458,3.14458,0,0,1,151.076,123.723c0,3.99552-4.36394,9.15856-7.56035,12.60034a48.80079,48.80079,0,0,0-1.01445,8.05256c9.28161-5.59373,14.41388-8.69785,21.29818-13.73783a23.29351,23.29351,0,0,1-.52223-6.116c0-12.44727,8.20564-26.24663,19.08546-26.24663,6.0852,0,9.28161,4.24088,9.28161,9.0355,0,9.00549-7.6834,16.965-18.56322,25.17065a8.64129,8.64129,0,0,0,3.934,4.88692,21.88706,21.88706,0,0,1,7.06888-1.13676c3.16565.15307,7.52959,1.25981,7.74493,4.21012.49147,6.69972-14.72152,3.99552-14.78305,3.99552-5.80832,1.56744-16.965,8.20564-16.965,25.17065,0,11.40206,7.16117,22.03577,18.28635,22.03577,8.51327,0,15.70521-6.822,15.98208-16.65738,0-6.36132-2.98182-12.508-9.34314-12.508-3.16565,0-6.36207,2.27351-6.60818,5.65451-.3384,5.16379,4.21087,5.9929,4.21087,9.46619a3.396,3.396,0,0,1-3.68789,3.44178c-5.31685,0-9.28161-5.31686-9.28161-11.955,0-7.92951,6.88355-14.5677,15.91981-14.5677v-.03077c11.67892,0,17.76412,10.08072,17.76412,20.96054C203.32313,187.37218,192.96554,199.85021,177.8756,199.85021ZM150,54.26471a95.73529,95.73529,0,1,0,95.73492,95.73567A95.69087,95.69087,0,0,0,150,54.26471Zm0,186.95283a91.23255,91.23255,0,1,1,91.24793-91.21716A91.22457,91.22457,0,0,1,150,241.21754Z" fill="#fff"/></svg>