<svg id="Layer_1" data-name="Layer 1" xmlns="http://www.w3.org/2000/svg" viewBox="0 0 300 300"><path d="M61.1898,204.87225c16.197,0,29.498-5.63878,38.1767-18.93955V201.842h17.78881V161.78577c0-9.39805-5.0634-13.44474-14.60516-13.44474H67.26v8.09366c0,6.9429,3.75928,9.68547,10.11714,9.68547H90.24648c-2.02322,10.70218-11.85266,18.65212-25.45105,18.65212-16.48467,0-29.64165-13.44474-29.64165-34.70513,0-18.93954,11.42145-34.12016,31.66513-34.12016a28.097,28.097,0,0,1,10.98986,2.02343c4.047,1.59189,6.07018,3.47145,9.1101,6.358,2.59885,2.59886,4.62233,4.47836,9.68573,4.47836h17.93277c-3.61529-21.24118-25.44164-33.679-48.00616-33.679C33.28378,95.12775,10,120.57881,10,152.5317S35.5949,204.87225,61.1898,204.87225Z" fill="#fff"/><path d="M200.94027,162.93626c0-22.84253-15.61222-37.73538-37.304-37.73538-21.692,0-39.61515,16.77236-39.61515,40.63159s17.06,39.03978,39.18349,39.03978c14.02979,0,27.47454-6.35813,33.97636-17.63568a47.89888,47.89888,0,0,0-4.19066-3.18364,12.31216,12.31216,0,0,0-7.51827-2.74256c-2.89623,0-5.20739,1.59181-8.23764,3.61529a22.078,22.078,0,0,1-11.709,3.32761c-9.54176,0-18.50814-5.63877-19.95625-17.204h54.79542a46.5277,46.5277,0,0,0,.57565-8.09366Zm-21.692-6.21389h-33.401c1.59208-9.68573,8.23763-15.75591,17.348-15.75591,9.1101,0,16.053,6.21415,16.053,15.61194Z" fill="#fff"/><path d="M207.93961,201.83206h21.54806V163.08024c0-12.58169,6.21416-20.38766,16.62866-20.38766,8.391,0,14.17348,4.19068,14.17348,14.74888v34.26406c0,6.50184,3.03994,10.27052,10.27053,10.11714H281.8371V154.98658c0-20.24394-10.70139-29.7857-27.47374-29.7857-8.67871,0-14.74888,2.59886-19.81228,7.08688-2.74256,2.31117-3.47157,3.03992-4.62234,3.03992-1.73553,0-2.31091-1.30413-3.18363-2.74256-2.16719-3.61556-5.35109-5.06341-11.56523-5.06341h-7.23061v74.31035Z" fill="#fff"/><path d="M283.14358,125.22v1.14134h-1.688v5.62911h-1.28557V126.3613h-1.6488V125.22Z" fill="#fff"/><path d="M284.0738,131.99041V125.22H285.848l1.168,4.43054,1.1889-4.43054H290v6.77045h-1.07392v-5.31268h-.03919l-1.37181,5.31268h-.959l-1.37964-5.31268h-.0209v5.31268Z" fill="#fff"/></svg>