<svg id="Layer_1" data-name="Layer 1" xmlns="http://www.w3.org/2000/svg" viewBox="0 0 300 300"><defs><style>.cls-1{fill:#fff;fill-rule:evenodd;}</style></defs><title>GILD_Dark_bg</title><path class="cls-1" d="M218.28,59.65a.5.5,0,0,0-.49-.49h-.07C104.36,69.94,89.91,148.12,127,173.09c-6.39,28.22-.44,27.56-.44,27.56a209,209,0,0,1,5-25c14.46-55,50.24-103,86.33-115.54h0a.52.52,0,0,0,.45-.5Z"/><path class="cls-1" d="M212.29,77.61a.5.5,0,0,0-.51-.49.51.51,0,0,0-.47.33c-9.36,18.37-12.07,44.67-19.21,64.8-8.17,23-22.68,38.53-45.09,37.06v56S87.15,208.2,87.15,164.67V83.1l48.92-4.47h0a.5.5,0,0,0,.5-.51.5.5,0,0,0-.48-.49v0H81.72v87.06c0,49,65.28,76.18,65.28,76.18s65.3-27.66,65.3-76.18V77.61Z"/></svg>