<svg id="Layer_1" data-name="Layer 1" xmlns="http://www.w3.org/2000/svg" viewBox="0 0 300 300"><defs><style>.cls-1{fill:#fff;}.cls-2{fill:#e02426;}</style></defs><title>GIS_Dark_bg</title><path class="cls-1" d="M166.77,124.59c7.67-2,13.19-6.28,15.92-13.8a35.37,35.37,0,0,0,1.25-4.15c.1-.44.25-.6.74-.6q10.88,0,21.76,0c.57,0,.67.09.46.64a113.23,113.23,0,0,0-4.71,15.65,72,72,0,0,0-1.54,21.42A117.13,117.13,0,0,0,203.18,159c1.14,5.22,2.35,10.44,3.07,15.75a72.51,72.51,0,0,1-.32,24.15,51.33,51.33,0,0,1-21.88,33.22,64,64,0,0,1-23.26,9.71,88.23,88.23,0,0,1-23.88,1.68A75.61,75.61,0,0,1,115,239c-10.35-3.86-19.15-9.87-25.76-18.85A43.34,43.34,0,0,1,80.9,200a40,40,0,0,1,4.66-25.44,37,37,0,0,1,15.5-14.82,49.38,49.38,0,0,1,17.16-5.12,63.22,63.22,0,0,1,14.09-.13.64.64,0,0,0,.82-.5q1.94-5.11,3.94-10.21c.19-.5.1-.66-.35-.86a46.12,46.12,0,0,1-14.7-10,35.26,35.26,0,0,1-10.26-22.57,34.62,34.62,0,0,1,6-22.88,29.12,29.12,0,0,1,19.63-12.65,31.91,31.91,0,0,1,21.05,3.09,25,25,0,0,1,12.89,17.25,37.46,37.46,0,0,1-1.65,21.36C168.71,119.16,167.76,121.82,166.77,124.59Zm-6.18,64.77-.53-.49A42.9,42.9,0,0,0,146.91,180c-.54-.22-.69-.09-.87.41-2.7,7.29-5.43,14.58-8.11,21.88a1,1,0,0,1-1.16.79c-5.21,0-10.43,0-15.64,0h-5.55c-.38,0-.52-.08-.33-.45.06-.13.11-.28.16-.41q4.73-12.72,9.46-25.42c.26-.7.26-.71-.51-.69a21.64,21.64,0,0,0-15.9,7.05c-3.31,3.57-5,7.7-4.35,12.71a24.61,24.61,0,0,0,9.1,16.16A36.73,36.73,0,0,0,128,219.08a63.72,63.72,0,0,0,18.77,1.67,47.09,47.09,0,0,0,15.34-3.18c8.91-3.58,15.37-9.64,18.78-18.72,2.57-6.83,2.75-13.85,1.54-21-.83-4.91-1.89-9.77-2.8-14.66A118.73,118.73,0,0,1,177.15,142c0-.42-.1-.51-.49-.36a71,71,0,0,1-17.4,4.21.59.59,0,0,0-.57.45q-2.46,6.71-5,13.39c-.14.39,0,.54.31.71,1.48.69,3,1.4,4.42,2.14a38.47,38.47,0,0,1,9.66,6.55.68.68,0,0,1,.19.87c-.86,2.12-1.68,4.25-2.53,6.37C164.07,180.67,162.34,185,160.59,189.36Zm-10.4-84.3a10.57,10.57,0,0,0-.44-3,7.58,7.58,0,0,0-6.39-5.78,7.4,7.4,0,0,0-7.89,3.78,14.15,14.15,0,0,0-2,6.7,14.81,14.81,0,0,0,2.39,8.79,20,20,0,0,0,8,7.87c.45.23.62.17.79-.3,1.34-3.51,2.72-7,4-10.51A21.17,21.17,0,0,0,150.19,105.06Z"/><path class="cls-2" d="M195.64,63.41a12.62,12.62,0,0,1,23.59,2.66A14.73,14.73,0,0,1,218,75.21a32.3,32.3,0,0,1-6.79,9.55,126.41,126.41,0,0,1-12.95,10.93c-.76.59-1.54,1.17-2.3,1.77a.4.4,0,0,1-.59,0c-5.34-4.12-10.78-8.12-15.52-13a30.4,30.4,0,0,1-6.92-10.2c-1.34-3.44-1.72-6.95-.22-10.43a11.82,11.82,0,0,1,10.12-7.39c5.64-.6,9.91,1.74,12.69,6.72Z"/></svg>