<svg id="Layer_1" data-name="Layer 1" xmlns="http://www.w3.org/2000/svg" viewBox="0 0 300 300"><defs><style>.cls-1{fill:#349b47;}.cls-2{fill:#03568c;}.cls-3{fill:#fff;}</style></defs><path class="cls-1" d="M279.73,127a131.54,131.54,0,0,0-33.17-66.61c0,.33-.08.67-.11,1a65.28,65.28,0,0,0,8.15,37.91A86.72,86.72,0,0,0,279.73,127ZM215.1,236.53c10.29-10.45,17.64-20.07,21.84-28.62s5.07-15.45,2.86-21.33c-1.07-2.83-3.77-6.28-7.57-9.65a78.35,78.35,0,0,0-16.6-10.88,109.27,109.27,0,0,0-21.49-8,87,87,0,0,0-21.86-3c-7.14,0-13.29,1.12-18.2,3.32a17.16,17.16,0,0,1-18.5-3L119.76,141a14.92,14.92,0,0,1-4.49-7.48,15.18,15.18,0,0,1,4.57-15,15,15,0,0,1,7.91-3.69l1.66-.24c8-1.12,16.35-2.3,24.64-8.71,10.53-8.16,19.19-23.63,25.74-46,3.21-11,5.24-24.33,6.68-36.49A131.83,131.83,0,0,0,57.91,55.79a29.41,29.41,0,0,1,9.59,6.5c3.69,3.77,7.57,10.48,5,21-1.23,5-3.61,9.87-6.15,15-5.4,11-8.69,18.68-5.35,24.88C63,126.84,69.37,135,89,149.35c12.7,9.27,25.61,17.21,32.16,21.14a18,18,0,0,1,8.26,19.75c-1.39,5.64-2.46,11.52-1.1,16.14.53,1.8,2.14,7.3,14.38,11.63a16.16,16.16,0,0,1,8.93,22.67c-3.85,7.43-11.87,22.8-21,39.66A131,131,0,0,0,150,281.76c3.47,0,6.92-.13,10.32-.4C175.89,270.21,197.91,254,215.1,236.53Z"/><path class="cls-2" d="M138.55,229.72c-27.51-9.78-24.51-29-21.2-42.47a5.51,5.51,0,0,0-2.54-6.07c-12.48-7.46-54.26-33.3-64.71-51.93C37.75,106.71,69.29,81.88,58.63,71a17.69,17.69,0,0,0-10.08-5,131.7,131.7,0,0,0,69.34,211.75c10-18.36,18.87-35.44,22.71-42.85A3.71,3.71,0,0,0,138.55,229.72Zm143-86.66c-16.2-9.54-29.65-22.9-37.85-37.74a77.49,77.49,0,0,1-9.65-45,83.13,83.13,0,0,1,1.58-10.42,131.67,131.67,0,0,0-37.1-22.4C197,39.41,195,52.27,191.74,63.33c-17.3,59.15-45,61.29-62.23,63.78a2.64,2.64,0,0,0-1.41,4.57l15.82,14.38a4.68,4.68,0,0,0,3.15,1.23,4.87,4.87,0,0,0,1.9-.4c6.82-3,14.81-4.39,23.28-4.39,32.42,0,71.72,19.78,79.2,39.69,11.39,30.29-29,67.79-62.87,93.77a131.77,131.77,0,0,0,93.15-126C281.73,147.66,281.68,145.34,281.55,143.06Z"/><path class="cls-3" d="M279.73,127A128.87,128.87,0,0,1,281.55,143c-16.2-9.55-29.65-22.91-37.85-37.74a77.51,77.51,0,0,1-9.65-45,83.28,83.28,0,0,1,1.58-10.43,127.62,127.62,0,0,1,10.93,10.51c0,.32-.08.67-.11,1a65.23,65.23,0,0,0,8.15,37.9A86.52,86.52,0,0,0,279.73,127ZM151.67,240.65A16.15,16.15,0,0,0,142.74,218c-12.24-4.35-13.84-9.83-14.38-11.62-1.36-4.63-.26-10.51,1.1-16.15a18,18,0,0,0-8.26-19.75c-6.55-3.9-19.46-11.84-32.16-21.14C69.43,135,63,126.79,61,123.18c-3.34-6.2-.06-13.87,5.34-24.89,2.51-5.13,4.92-10,6.15-15,2.59-10.56-1.26-17.27-5-21A29.27,29.27,0,0,0,58,55.77,134.77,134.77,0,0,0,48.58,66a17.66,17.66,0,0,1,10.07,5c10.67,10.85-20.87,35.68-8.52,58.21,10.45,18.66,52.23,44.51,64.71,51.94a5.53,5.53,0,0,1,2.54,6.06c-3.29,13.5-6.31,32.69,21.19,42.48a3.7,3.7,0,0,1,2.06,5.18c-3.85,7.4-12.75,24.48-22.72,42.85,4.2,1,8.45,1.89,12.81,2.54C139.8,263.42,147.79,248.08,151.67,240.65Zm99.78-58.46c-7.48-19.91-46.78-39.69-79.2-39.69-8.44,0-16.44,1.34-23.28,4.39a4.87,4.87,0,0,1-1.9.4,4.68,4.68,0,0,1-3.15-1.23L128.1,131.68a2.64,2.64,0,0,1,1.41-4.57c17.27-2.49,44.93-4.63,62.23-63.78C195,52.27,197,39.41,198.53,27.46c-3.93-1.55-7.94-2.94-12.06-4.11C185,35.51,183,48.82,179.79,59.83c-6.52,22.37-15.18,37.85-25.74,46-8.29,6.39-16.6,7.56-24.64,8.71l-1.66.24a15.14,15.14,0,0,0-12.48,18.66,14.94,14.94,0,0,0,4.49,7.49l15.82,14.38a17,17,0,0,0,11.52,4.46,17.52,17.52,0,0,0,7-1.47c4.94-2.19,11.06-3.32,18.2-3.32a88.19,88.19,0,0,1,21.86,3,110.55,110.55,0,0,1,21.49,8,78.87,78.87,0,0,1,16.6,10.88c3.82,3.4,6.52,6.82,7.57,9.65,2.21,5.91,1.28,12.89-2.86,21.33s-11.52,18.18-21.84,28.63c-17.19,17.45-39.21,33.68-54.8,44.77a129.94,129.94,0,0,0,28.26-5.35C222.4,250,262.84,212.48,251.45,182.19Z"/></svg>