<svg id="Layer_1" data-name="Layer 1" xmlns="http://www.w3.org/2000/svg" viewBox="0 0 300 300"><defs><style>.cls-1{fill:#fff;}</style></defs><title>glw_Light_bg copy</title><path class="cls-1" d="M77.06,130.39c1.23.24,2.47.46,3.7.73C87.84,132.67,92.3,137,93.91,144a22.22,22.22,0,0,1-2.26,16.76c-3,5.05-7.67,7.56-13.29,8.43a24.34,24.34,0,0,1-12.31-1,15.22,15.22,0,0,1-9.56-9.48,22.77,22.77,0,0,1,.61-17.9c2.74-5.76,7.63-8.71,13.74-9.85l3.32-.6Zm-16.4,20a21,21,0,0,0,1.13,7.42,13.55,13.55,0,0,0,5.76,7.58,13.93,13.93,0,0,0,9.34,1.72,12.26,12.26,0,0,0,10.18-7.48,24.19,24.19,0,0,0,1.22-15.55c-1.38-6.29-5.71-10.89-12.71-11.24-4.77-.23-8.8,1.31-11.66,5.27C61.39,141.62,60.61,145.67,60.66,150.38Z"/><path class="cls-1" d="M265.94,130.39c1.46.2,2.94.32,4.39.62,2.18.44,4.34,1,6.5,1.56a11.37,11.37,0,0,1,1.89.86v8.9l-1.23.08c-.33-1-.61-1.85-.92-2.71a9.32,9.32,0,0,0-7-6.42,14.73,14.73,0,0,0-12.6,2.38,12,12,0,0,0-4.25,6c-2,6-2.09,12,.63,17.92a13.59,13.59,0,0,0,14.56,7.57,13.75,13.75,0,0,0,7-3.06v-9.94l-7.09-1.44v-1.16H284.5v1.17l-4.68,1.4v11.39a23.65,23.65,0,0,1-8.84,3.52c-4.46.72-8.91.84-13.25-.65-6.58-2.26-10.39-7-11.64-13.71a22.46,22.46,0,0,1,1.56-13.89c2.59-5.54,7-8.68,13-9.81,1.24-.23,2.49-.41,3.73-.62Z"/><path class="cls-1" d="M36.81,130.39l3.32.6a27.4,27.4,0,0,1,8,2.33v9.07H46.72c-.12-.41-.26-.82-.37-1.23-1.43-5.6-4.48-8.22-10.23-8.35s-10.3,2.24-12.89,7.59a22,22,0,0,0-1.89,11.79,19.85,19.85,0,0,0,2.69,8.7,13.26,13.26,0,0,0,13.31,6.28c2.85-.38,5.37-1.25,7.24-3.52a14.39,14.39,0,0,0,2.53-5.29c.19-.66.42-1.31.65-2h1.62L48.56,166c-1.11.53-2.22,1.14-3.39,1.59a25.59,25.59,0,0,1-17.85.69c-5.92-2-9.43-6.29-10.93-12.28-.35-1.43-.59-2.89-.89-4.34v-2.89a9.51,9.51,0,0,0,.32-1.38A18.2,18.2,0,0,1,31.13,131c1-.17,2-.38,3.05-.58Z"/><path class="cls-1" d="M108.11,166l5.26,1.46v1.18H97.19L97,167.47l6-1.49V134.1l-5.9-1.45-.08-1a3.1,3.1,0,0,1,.7-.19c6.49,0,13,0,19.46.16a10.82,10.82,0,0,1,6.47,2.28,8.67,8.67,0,0,1-.18,13.34,26.2,26.2,0,0,1-4,2.25c-.48.26-1,.43-1.7.71,1.37,1.7,2.62,3.27,3.88,4.82,2.1,2.59,4.18,5.19,6.32,7.74A12.53,12.53,0,0,0,133.8,167a5.2,5.2,0,0,0,2.29.08c1.49-.26,3-.67,4.58-1V134l-5.84-1.41v-1.08h11.32l22.54,27.4c.55-1,0-20.55-.66-24.86l-7.93-1.44,0-1.1h16.51l.15,1.06-5,1.52q-.23,17.69-.44,35.3l-.41.16-27.1-33.37-.35.1c-.34,2.43.16,4.88.12,7.32s.15,4.9.23,7.35.16,5,.23,7.5.11,4.89.16,7.48l7.36,1.48v1.15a1.78,1.78,0,0,1-.41.12c-5.53,0-11,0-16.57,0a29.06,29.06,0,0,1-4.83-.56,11,11,0,0,1-6.92-4.19q-4.08-5.24-8.15-10.48c-1.54-2-1.53-2-3.67-3a1.71,1.71,0,0,1-.12-.47,4.39,4.39,0,0,1,.13-.65l.54-.11a41.84,41.84,0,0,0,5.13-1,6.61,6.61,0,0,0,4.53-4.75c.77-2.89.88-5.77-1.58-8.05a6.11,6.11,0,0,0-1.89-1.15c-3.14-1.26-6.34-.86-9.63-.45Z"/><path class="cls-1" d="M211.22,166l7.21,1.43.17,1.2H201.89v-1.18l5.82-1.47V134l-5.84-1.42v-1.08h11.27q11.16,13.59,22.48,27.34l.47-.19c-.3-8.14-.61-16.29-.92-24.59l-8-1.45-.07-1.12h16.56l.06,1.06-5,1.5c-.08,6-.17,11.86-.25,17.77s-.15,11.7-.22,17.54l-.44.15-27.08-33.34-.43.15C210.45,146.17,211,156,211.22,166Z"/><path class="cls-1" d="M180.86,168.64a3,3,0,0,1-.14-.55,4,4,0,0,1,.08-.64l5.92-1.47v-31.9l-5.92-1.43v-1.1h16.77a1.25,1.25,0,0,1,.16.36,5.32,5.32,0,0,1,0,.74l-5.92,1.43V166l5.89,1.43.1,1.21Z"/></svg>