<svg id="Layer_1" data-name="Layer 1" xmlns="http://www.w3.org/2000/svg" viewBox="0 0 300 300"><defs><style>.cls-1{fill:#fff;}.cls-2{fill:#e3701e;}</style></defs><title>GNRC_Logo_Dark</title><path class="cls-1" d="M30.33,123c2.27-.84,4.72-.64,7.09-.79,3.17-.08,6.35-.15,9.52,0,2.58.13,5.56.31,7.37,2.41,1.89,2.28,1.91,5.43,2,8.23q-3.6,0-7.2,0c-.08-1-.07-2.17-1-2.79a6.32,6.32,0,0,0-3.38-.59c-2.61-.05-5.21,0-7.82-.06-1.2,0-2.61.09-3.41,1.12-1,1.24-.94,2.91-1,4.4,0,2-.06,3.91,0,5.86a6.27,6.27,0,0,0,1.17,3.74,5.06,5.06,0,0,0,3.73,1.29c2.78,0,5.55.08,8.32,0a3.43,3.43,0,0,0,2.71-1.12,5,5,0,0,0,.67-3.37H39.89c0-1.9,0-3.82,0-5.72H56.31c0,2.45,0,4.89,0,7.34a20.28,20.28,0,0,1-.68,5.48,6.31,6.31,0,0,1-2.25,3.39,7.65,7.65,0,0,1-4.49,1.21c-4.24.08-8.48,0-12.71,0-2.48-.11-5.15-.13-7.32-1.53-1.94-1.23-2.88-3.51-3.29-5.68-.66-3.68-.42-7.43-.45-11.14.12-2.83.18-5.8,1.42-8.41A6.38,6.38,0,0,1,30.33,123m211.77-.36a39.78,39.78,0,0,1,7.56-.53,65.9,65.9,0,0,1,10.88.53,5.52,5.52,0,0,1,4.07,3.43,20.06,20.06,0,0,1,1,7.06c-2.35,0-4.71,0-7.07,0a4.33,4.33,0,0,0-.76-2.7,4.17,4.17,0,0,0-2.79-.84c-2.67,0-5.34,0-8,0-1.3,0-2.83.33-3.55,1.55a9.15,9.15,0,0,0-.74,4.24c0,2-.07,3.92.09,5.87a5,5,0,0,0,1.1,3.08,5.23,5.23,0,0,0,3.31,1.13c2.68.19,5.36.12,8,.1a3.38,3.38,0,0,0,2.67-1,6.13,6.13,0,0,0,.83-3.44c2.38,0,4.76,0,7.15,0a24.49,24.49,0,0,1-.62,7.44,5.14,5.14,0,0,1-2.6,3.25,13.68,13.68,0,0,1-5.22,1.06,120.23,120.23,0,0,1-12.45,0c-2.29-.05-4.83-.3-6.63-1.87s-2.4-3.91-2.69-6.14a85.94,85.94,0,0,1-.31-11.46c.16-2.59.41-5.31,1.79-7.58a7.41,7.41,0,0,1,4.92-3.26m-180.36-.26H88.43c0,2.32,0,4.64,0,7-6.46,0-12.91,0-19.36,0,0,1.72,0,3.44,0,5.16h18.1c0,2,0,4,0,6-6,.05-12.06,0-18.09,0v5.29q9.68,0,19.36,0,0,3.46,0,6.93H61.74q0-15.21,0-30.43m32,0h11.59c4.82,7.54,9.55,15.15,14.4,22.67q0-11.34,0-22.67h6.89q0,15.21,0,30.43H115c-4.83-7.57-9.6-15.18-14.4-22.77,0,7.59,0,15.18,0,22.77H93.77q0-15.21,0-30.43m39,0h26.7c0,2.32,0,4.64,0,7H140.13v5.16h18.1q0,3,0,6c-6,.11-12.07,0-18.1,0v5.29q9.68,0,19.36,0c0,2.31,0,4.62,0,6.93H132.8q0-15.21,0-30.43m32,0q11.15,0,22.28,0c2,0,4.23.24,5.77,1.67,1.68,1.6,2.08,4,2.21,6.25a21.26,21.26,0,0,1-.56,7,4.71,4.71,0,0,1-1.5,2.35,14.15,14.15,0,0,1-2.84,1.47,6.15,6.15,0,0,1,3.5,1.67,6.56,6.56,0,0,1,1.17,4.38c0,1.89,0,3.78,0,5.67-2.46,0-4.92,0-7.38,0,0-1.56,0-3.12,0-4.68A2.74,2.74,0,0,0,184,145h-11.8c0,2.6,0,5.19,0,7.79-2.44.06-4.89,0-7.33,0q0-15.21,0-30.43m7.34,7.4c0,2.6,0,5.2,0,7.8,4,0,8,0,12,0a4.14,4.14,0,0,0,2.9-.73,5,5,0,0,0,.67-3.13c0-1.06.08-2.29-.66-3.16a4.36,4.36,0,0,0-2.91-.78h-12m38.94-7.38c3.31,0,6.61,0,9.91,0,4.31,10.15,8.73,20.26,13,30.41H226c-.74-1.85-1.51-3.67-2.25-5.52-5.14,0-10.28,0-15.42,0-.79,1.84-1.59,3.68-2.37,5.52h-8.16c4.44-10.14,8.92-20.26,13.33-30.41M216,129c-1.68,4-3.37,7.93-5.07,11.88,3.39,0,6.79,0,10.18,0C219.33,137,217.72,133,216,129m54.55-6.43a3.21,3.21,0,0,1,4.47,2.56,3.16,3.16,0,0,1-6.25,1,3.25,3.25,0,0,1,1.78-3.52m.24.42a2.76,2.76,0,0,0-1.55,3.09,2.73,2.73,0,0,0,3.41,2,2.67,2.67,0,0,0,1.9-3,2.71,2.71,0,0,0-3.76-2.1m-.2.61a5.28,5.28,0,0,1,2.56.29,1.05,1.05,0,0,1-.45,1.75c.26.54.51,1.07.76,1.61-1.37.45-.9-1.76-2.14-1.6,0,.53,0,1,0,1.57h-.74c0-1.21,0-2.42,0-3.62m.73.43c0,.41,0,.82,0,1.23.53-.06,1.36.1,1.47-.63-.16-.66-1-.5-1.46-.6"/><path class="cls-2" d="M195.68,159.91c23.44-1,46.88-1.83,70.31-2.83.11,1.32.05,2.64.06,4v16.87h-.5q-48.24-2-96.5-3.9-72-2.88-144-5.78c0-.5,0-1,0-1.5,6.41-.32,12.83-.52,19.25-.8l151.43-6"/></svg>