<svg id="Layer_1" data-name="Layer 1" xmlns="http://www.w3.org/2000/svg" viewBox="0 0 300 300"><path d="M69.17758,102.64692l-4.99622,9.47432h9.4003l.074,76.20163H64.18136l5.47734,9.51133H230.12993l5.36632-9.51133h-9.47432l.074-76.20162h9.40029l-5.29229-9.47432H69.17758Z" fill="#fff"/><path d="M226.02192,188.32287h9.47431L250.929,161.56533c4.40409-7.73488,5.29229-14.21147.48112-22.31645l-15.95089-27.09062h-9.4003C226.02192,112.12125,226.02192,188.32287,226.02192,188.32287Zm4.108,9.51132-16.469,28.571a20.05514,20.05514,0,0,1-16.173,8.9932H102.22666a19.53207,19.53207,0,0,1-15.83988-8.29L69.6587,197.79718H230.12992Zm.074-95.18727L212.92071,72.96567a18.34265,18.34265,0,0,0-15.5438-8.47507H101.93058c-6.84667,0-12.65709,3.33081-16.506,9.99244l-16.284,28.12687H230.20394Zm-156.54827,85.676H64.18136L48.74859,161.56533c-4.44109-7.73488-5.32931-14.24848-.51813-22.35346l15.9509-27.09062h9.4003C73.65567,112.12125,73.65567,188.32287,73.65567,188.32287Z" fill="#fdbf2c" stroke="#fdbf2c" stroke-miterlimit="3.8637" stroke-width="0.1572"/><path d="M169.99022,127.18392c0-11.17673-7.3648-14.95165-21.87235-14.95165H133.49929V188.841h13.95242V159.45581h5.81042c10.80665,0,16.7281-5.18126,16.7281-15.72884v-16.543Zm-22.53851-5.81042h2.51661c4.73715,0,6.06948,2.0355,6.06948,7.32779v18.17145c0,3.44184-4.4781,3.44184-8.54909,3.44184V121.37351h-.037Zm64.43275,18.8376v-16.58c0-9.99244-9.62235-12.91616-18.31948-12.91616-8.54909,0-18.17144,2.92372-18.17144,12.91616V177.4422c0,9.99244,9.62235,12.91616,18.17144,12.91616,8.69713,0,18.31948-2.92372,18.31948-12.91616V159.89992H197.93205v16.58c0,3.886-1.44335,4.73716-4.219,4.73716-2.8867,0-4.33007-.85121-4.33007-4.73716V124.59329c0-3.88595,1.44335-4.73716,4.33007-4.73716,2.77568,0,4.219.85121,4.219,4.73716V140.2111Zm-85.41688,10.43655H107.00083v9.14124h5.51434l.037,16.69108c0,3.88595-1.44335,4.73716-4.219,4.73716-2.8867,0-4.33-.85121-4.33-4.73716V124.59329c0-3.88595,1.44335-4.73716,4.33005-4.73716,2.77568,0,4.219.85121,4.219,4.73716V140.2111h13.95241v-16.58c0-9.99244-9.62235-12.91616-18.31948-12.91616-8.54909,0-18.17144,2.92372-18.17144,12.91616V177.4422c0,9.99244,9.62236,12.91616,18.17144,12.91616,8.69713,0,18.31948-2.92372,18.31948-12.91616Z" fill="#16287b" fill-rule="evenodd"/><path d="M241.12161,228.66273a6.93982,6.93982,0,1,1,6.95769,6.84667A6.82406,6.82406,0,0,1,241.12161,228.66273Zm6.95769,5.69939a5.68165,5.68165,0,1,0-5.58835-5.69939A5.51027,5.51027,0,0,0,248.0793,234.36212Zm-1.44336-1.77643h-1.18429v-7.84592h2.99772c1.85045,0,2.77568.70317,2.77568,2.22054a2.01371,2.01371,0,0,1-2.0355,2.14652l2.25755,3.47885h-1.33232l-2.0725-3.40484H246.673v3.40484Zm1.40634-4.40407c.99925,0,1.92448-.074,1.92448-1.29532,0-.96224-.88823-1.14728-1.70241-1.14728h-1.62841v2.4426Z" fill="#16287b" fill-rule="evenodd"/></svg>