<?xml version="1.0" encoding="utf-8"?>
<!-- Generator: Adobe Illustrator 24.0.1, SVG Export Plug-In . SVG Version: 6.00 Build 0)  -->
<svg version="1.1" id="Layer_1" xmlns="http://www.w3.org/2000/svg" xmlns:xlink="http://www.w3.org/1999/xlink" x="0px" y="0px"
	 viewBox="0 0 300 300" style="enable-background:new 0 0 300 300;" xml:space="preserve">
<style type="text/css">
	.st0{fill:#FFFFFF;}
	.st1{fill-rule:evenodd;clip-rule:evenodd;fill:#FFFFFF;}
</style>
<title>GPN_Dark_bg</title>
<g>
	<path class="st0" d="M176.5,67c0-1.2,0.1-2.3,0.4-3.3c7.5,2.3,14.6,5.5,21.2,9.5c-2,3.2-5.6,5.4-9.7,5.4
		C181.9,78.7,176.6,73.5,176.5,67z"/>
	<path class="st0" d="M129.9,112.6c-0.8-9.3,6.1-17.5,15.5-18.3c0.6,0,1.3-0.1,1.9,0c9.5-0.7,17.8,6.4,18.6,16c0,0.7,0.1,1.3,0,2
		c0.5,9.2-6.5,17-15.7,17.6c-0.8,0-1.5,0-2.3,0C136.7,129.8,129.9,123.6,129.9,112.6z"/>
	<path class="st0" d="M174.8,194c0,7.7-10.4,13.5-28.8,13.5c-13.6,0-21.6-5-21.6-12.1c0-4.6,3.6-8,11.2-11.5l24.3,1.3
		C170,185.6,174.8,187.9,174.8,194z"/>
	<path class="st0" d="M202.1,75.7c-2.9,4.5-7.9,7.5-13.7,7.6c-9.1,0.1-16.6-7.2-16.7-16.3c0-1.6,0.2-3.2,0.6-4.7
		c-7.1-1.8-14.6-2.7-22.3-2.7c-51.1,0-92.6,41.5-92.6,92.6c0,51.2,41.5,92.6,92.6,92.6s92.6-41.5,92.6-92.6
		C242.6,120.5,226.6,92.4,202.1,75.7z M146.5,226c-31.1,0-47-9.6-47-27.4c0-10.3,6.2-15.9,19.2-20.1c-9.9-4.8-14.6-9.2-14.6-16.8
		c0-7.7,5.8-15.2,16.5-20.7c-10.1-5.9-16-16.9-15.5-28.6c0-22.4,16.9-38,42.1-38c10.4-0.1,20.5,3.4,28.5,10
		c5.3,4.4,9.3,10.1,11.6,16.5c1.4,4.4,2.1,9,2,13.6c0,21.1-15.7,34.9-41.5,34.9c-4.1,0.1-8.1-0.4-12.1-1.3c-4.8,1.9-7.1,4.5-7.1,7.4
		c0,6.2,7.4,6.7,21.3,7.6c2.5,0.2,5.1,0.3,7.9,0.5c28.5,2.1,40.6,7.5,40.6,28.4C198.5,213.6,180.5,226,146.5,226z"/>
	<path class="st1" d="M200,66.7c0,2.4-0.6,4.6-1.8,6.5c-2,3.2-5.6,5.4-9.7,5.4c-6.5,0.1-11.8-5.1-11.9-11.6c0-1.2,0.1-2.3,0.4-3.3
		c1.4-4.9,5.8-8.5,11.1-8.6h0.1C194.7,55.1,199.9,60.3,200,66.7z"/>
	<path class="st1" d="M200,66.7c0,2.4-0.6,4.6-1.8,6.5c-2,3.2-5.6,5.4-9.7,5.4c-6.5,0.1-11.8-5.1-11.9-11.6c0-1.2,0.1-2.3,0.4-3.3
		c1.4-4.9,5.8-8.5,11.1-8.6h0.1C194.7,55.1,199.9,60.3,200,66.7z"/>
</g>
</svg>
