<svg id="Layer_1" data-name="Layer 1" xmlns="http://www.w3.org/2000/svg" viewBox="0 0 300 300"><g id="Layer_1-2" data-name="Layer 1"><path d="M32.91423,118.08375H49.847V145.8189a71.029,71.029,0,0,1-14.73057,1.726C16.54692,147.54491,10,136.90615,10,119.39314,10,100.57073,19.07642,89.932,37.16973,89.932a83.00127,83.00127,0,0,1,12.02253.982v17.75109H45.26411l-2.217-6.785c-2.12776-6.45765-4.65725-9.65672-8.67468-9.65672-6.94867,0-10.63875,9.40377-10.63875,27.00606,0,17.67669,1.47306,26.024,10.54947,26.024a15.19119,15.19119,0,0,0,4.09183-.56542V124.05038l-5.47561-3.76448v-2.20215Zm16.60538,74.45637c0,11.12978-7.60336,17.513-21.02455,17.513a96.98672,96.98672,0,0,1-14.15028-1.39867V186.90084h3.92815l1.63673,5.14826c3.67521,11.85886,6.294,15.787,10.9661,15.787,4.91019,0,8.42172-4.3299,8.42172-10.05846,0-4.65723-2.20215-7.9307-6.94867-10.47507l-8.18365-4.41918c-6.30885-3.34785-9.746-8.58539-9.746-14.96864,0-9.65671,7.93071-15.45966,20.95016-15.45966a88.83286,88.83286,0,0,1,11.85885.982v17.75109H43.3l-2.20214-6.785c-2.217-7.20162-4.58285-9.82038-8.91275-9.82038-4.83579,0-7.69263,3.10979-7.69263,7.60336,0,4.00255,2.217,6.87426,6.54692,9.32936l8.25805,4.65725C46.24615,180.101,49.51961,185.33851,49.51961,192.54012ZM85.69136,205.3959l1.63673,2.45509v1.235H74.81454l-.5803-4.74653c-1.30938,3.60081-4.74651,5.72856-9.16569,5.72856-6.54693,0-10.63875-4.09183-10.63875-10.80243,0-6.54692,3.6752-10.87682,14.96865-15.296l4.82092-1.8748v-6.1303c0-5.40122-.982-7.60336-4.00255-7.60336-2.4551,0-3.83888,1.30938-6.21958,7.276L61.30407,182.318H57.62886V168.9712a49.319,49.319,0,0,1,13.82294-2.4551c9.24009,0,14.23956,4.41918,14.23956,12.43916ZM90.423,125.77639c0,13.91221-7.43969,21.76852-17.022,21.76852-9.56743,0-17.00712-7.85631-17.00712-21.76852s7.43969-21.76852,17.022-21.76852C82.98331,104.00787,90.423,111.86417,90.423,125.77639ZM74.23424,198.52163V184.37135l-1.54745.6547c-4.8358,1.96407-6.6362,6.38325-6.6362,12.84089,0,4.83579,1.14571,7.60336,3.83887,7.60336S74.23424,202.85153,74.23424,198.52163Zm4.16623-72.74524c0-15.71262-1.30938-19.87884-4.98459-19.87884s-4.98458,4.16622-4.98458,19.87884,1.30938,19.87883,4.98458,19.87883S78.40047,141.489,78.40047,125.77639Zm41.08194,73.147,1.47305.744c-2.61877,7.529-5.96663,10.38581-12.43915,10.38581-10.54947,0-16.4417-7.93071-16.4417-21.76852,0-13.82294,6.87426-21.76852,18.07843-21.76852a29.47069,29.47069,0,0,1,10.47508,1.8748v13.91221h-3.83888l-1.54746-5.23754c-2.05335-6.94867-3.18418-8.74907-5.23753-8.74907-3.27346,0-5.89223,4.2555-5.89223,20.45913,0,13.00457,1.96407,17.75109,6.94866,17.75109C114.40855,206.54161,117.26539,204.41386,119.48241,198.92337Zm-9.0913-52.3605H95.66053v-1.22011l1.63673-2.4551V97.22287l-1.63673-2.45509v-1.235l13.09385-.982v50.322l1.63673,2.4551Zm20.13179.982c-9.002,0-14.40323-8.18366-14.40323-22.17027,0-13.91221,5.63928-21.35189,14.314-21.35189,4.41917,0,6.87427,1.71112,7.93071,5.14826V97.22287l-1.63673-2.45509v-1.235l13.09385-.982v50.322l1.63673,2.4551V146.548H139.8374l-.89276-6.21958C137.65012,145.65522,135.195,147.54491,130.5229,147.54491Zm28.71719,57.851,1.63673,2.45509v1.235H146.14624v-1.235l1.63673-2.45509V175.93474c0-3.51153-1.05644-5.63928-3.60081-5.63928-3.03539,0-5.23753,2.54437-5.23753,7.529V205.3959l1.63673,2.45509v1.235H125.85078v-1.235l1.63673-2.45509V159.73111l-1.63673-2.4551V156.0559l13.09385-.982v16.93273c1.47305-3.51153,4.82091-5.47561,9.56744-5.47561,6.7106,0,10.71314,4.2555,10.71314,12.51355V205.3959Zm-31.083-79.87246c0,14.73057,1.30938,19.22415,4.91019,19.22415,4.49357,0,5.31194-6.45765,5.31194-19.38782,0-12.51355-.89276-18.73313-5.23754-18.73313C129.46647,106.62664,128.15709,111.04581,128.15709,125.52344Zm82.149,17.34934,1.63674,2.4551V146.548H197.21225v-1.22011l1.63673-2.4551V112.51887c0-2.94612-.982-4.74652-3.27346-4.74652-2.85683,0-5.14826,2.54437-5.14826,7.43968v27.66075l1.63673,2.4551V146.548H177.33341v-1.22011l1.63673-2.4551V112.51887c0-2.94612-.982-4.74652-3.27346-4.74652-2.85683,0-5.14826,2.54437-5.14826,7.43968v27.66075l1.63673,2.4551V146.548H157.45457v-1.22011l1.63673-2.4551v-33.3l-1.63673-1.96408v-1.2201l11.78446-1.39866h.982l.32735,4.58284c1.38378-3.60081,4.82092-5.56488,9.493-5.56488,4.98458,0,8.258,2.45509,9.73111,6.87427,1.2201-4.2555,5.07387-6.87427,9.984-6.87427,6.45765,0,10.54947,4.2555,10.54947,12.51355Zm-15.296,54.17579c0,7.11234-4.58285,13.00457-15.62334,13.00457a72.3903,72.3903,0,0,1-12.67723-1.39867V193.44776h3.34786l1.05643,3.27346c2.61878,8.34733,5.14826,11.45711,9.16569,11.45711,3.76448,0,6.21958-2.708,6.21958-6.87427,0-3.43713-1.726-5.803-5.803-8.02l-7.038-3.76448c-4.49356-2.4551-6.94866-6.294-6.94866-11.04049,0-7.43969,5.81784-11.94813,15.45966-11.94813a52.70891,52.70891,0,0,1,10.31141,1.2201v11.94814h-3.34786l-1.726-4.34478c-1.96408-5.23754-3.83888-6.94866-6.94867-6.94866-3.34785,0-5.31193,1.96408-5.31193,5.23754,0,2.78244,1.63673,4.65724,5.63928,6.94867l6.94867,3.92815C192.46573,187.22819,195.0101,191.06707,195.0101,197.04857Zm52.94081-54.17579,1.63674,2.4551V146.548H237.07409l-.56542-4.74652c-1.3094,3.60081-4.74653,5.72856-9.1657,5.72856-6.54692,0-10.63874-4.09183-10.63874-10.80242,0-6.54692,3.6752-10.87682,14.96864-15.296l4.82092-1.8748v-6.13031c0-5.40121-.982-7.60336-4.00255-7.60336-2.45509,0-3.83888,1.30939-6.21957,7.276l-2.69316,6.71059h-3.69008V106.47785a49.41062,49.41062,0,0,1,13.82293-2.4551c9.2401,0,14.23955,4.41917,14.23955,12.43915Zm-11.45712-6.87426V121.84823l-1.54744.6547c-4.82092,1.96407-6.62132,6.38325-6.62132,12.8409,0,4.83579,1.14572,7.61823,3.83888,7.61823S236.49379,140.34329,236.49379,135.99852ZM290,145.32788v1.2201H275.26943v-1.2201l1.63674-2.4551V113.41162c0-3.52641-1.05644-5.63928-3.6008-5.63928-3.03539,0-5.23755,2.54438-5.23755,7.529v27.57147l1.63674,2.4551V146.548H254.974v-1.22011l1.63674-2.4551v-33.3l-1.63674-1.96408v-1.2201l11.78446-1.39866h.98205l.32734,4.58284c1.38377-3.60081,4.74653-5.56488,9.56743-5.56488,6.71059,0,10.71314,4.2555,10.71314,12.51355v26.35136Z" fill="#fff"/></g></svg>