<svg id="Layer_1" data-name="Layer 1" xmlns="http://www.w3.org/2000/svg" xmlns:xlink="http://www.w3.org/1999/xlink" viewBox="0 0 300 300"><defs><style>.cls-1{fill:#fff;}.cls-1,.cls-2{fill-rule:evenodd;}.cls-2{fill:#be2526;}.cls-3{mask:url(#mask);}.cls-4{mask:url(#mask-2-2);}.cls-5{mask:url(#mask-5);}</style><mask id="mask" x="6.94" y="117.99" width="287.46" height="40.26" maskUnits="userSpaceOnUse"><g id="mask-2"><polygon id="path-1" class="cls-1" points="6.94 117.99 294.4 117.99 294.4 158.25 6.94 158.25 6.94 117.99"/></g></mask><mask id="mask-2-2" x="6.94" y="117.99" width="287.46" height="40.26" maskUnits="userSpaceOnUse"><g id="mask-4"><polygon id="path-3" class="cls-1" points="6.94 117.99 294.4 117.99 294.4 158.25 6.94 158.25 6.94 117.99"/></g></mask><mask id="mask-5" x="6.94" y="117.99" width="287.46" height="41.7" maskUnits="userSpaceOnUse"><g id="mask-10"><polygon id="path-9" class="cls-1" points="6.94 119.42 294.4 119.42 294.4 159.69 6.94 159.69 6.94 119.42"/></g></mask></defs><g id="Style-Guide"><g id="Components"><g id="Header"><g id="Grainger"><g id="Group"><g id="Grainger-2" data-name="Grainger"><polygon id="Fill-10" class="cls-2" points="65.14 166.4 62.34 183.71 281.11 183.71 283.93 166.4 65.14 166.4"/><polygon id="Fill-12" class="cls-2" points="24.25 166.4 20.23 166.4 17.33 183.71 21.35 183.71 24.25 166.4"/><polygon id="Fill-14" class="cls-2" points="38.1 166.4 32.38 166.4 29.45 183.71 35.17 183.71 38.1 166.4"/><polygon id="Fill-16" class="cls-2" points="12.14 166.4 9.79 166.4 6.94 183.71 9.28 183.71 12.14 166.4"/><polygon id="Fill-18" class="cls-2" points="64.07 166.4 54.92 166.4 51.95 183.71 61.1 183.71 64.07 166.4"/><polygon id="Fill-20" class="cls-2" points="50.22 166.4 42.79 166.4 39.83 183.71 47.27 183.71 50.22 166.4"/></g><g id="Grainger-Logo"><polygon id="Fill-1" class="cls-1" points="125.7 119.2 124.36 127.45 127.23 127.45 123.69 149.53 120.79 149.53 119.4 158.25 136.1 158.23 137.49 149.53 134.61 149.53 138.2 127.45 141.07 127.45 142.38 119.2 125.7 119.2"/><g id="Group-45"><g id="Group-4"><g class="cls-3"><path id="Fill-2" class="cls-1" d="M24.06,136.3l-1.26,7.92H32.93A8.72,8.72,0,0,1,27,149a7.75,7.75,0,0,1-8-3.52c-2.57-4.17-1.66-10.33,1.06-14.15a10,10,0,0,1,10.22-3.51,6.79,6.79,0,0,1,4.8,4.6h9.1l2.12-13.23h-8l-.35,2.16-.65-.81A7.76,7.76,0,0,0,35,119.24,20.46,20.46,0,0,0,12.52,125a23.48,23.48,0,0,0-4.65,21.59c1.92,6,8.08,10.47,14,11.5,4.29.15,8.94-.36,12.38-3.16l-.55,3.28h8.23l3.54-21.95Z"/></g></g><path id="Fill-5" class="cls-1" d="M68,135.33c-1.87,1.73-4.78,1.06-7.32,1.17L62.05,128c2.89.07,6.85-.81,7.92,2.49a5.15,5.15,0,0,1-2,4.89Zm2.58,7.23a12.33,12.33,0,0,0,5.15-3c3.54-3.25,5.51-8,4.09-12.87-1.36-4.58-6.16-7.15-10.61-7.46H49.92l-1.3,8.24h2.86l-3.56,22.09H45l-1.4,8.7H59.35l1.42-8.7H58.58l.83-5.21,7.72,13.91h9.68l1.42-8.7H74.61Z"/><path id="Fill-7" class="cls-1" d="M99.12,138.1l3.95-9.19.8,9.19Zm11.93-18.89H92.5l-1.31,8.25h2.88L82.85,149.54H80l-1.42,8.71H94.82l1.42-8.71H93.33l1.45-3.22h10l.41,3.22h-2.87l-1.4,8.71h16.69l1.41-8.71h-2.89Z"/><polygon id="Fill-9" class="cls-1" points="183.53 119.21 167.4 119.21 166.08 127.46 168.94 127.46 167.14 138.6 157.08 119.21 144.09 119.21 142.78 127.46 145.66 127.46 142.07 149.54 139.21 149.54 137.82 158.25 154.07 158.25 155.46 149.54 152.59 149.54 154.68 136.38 165.67 158.25 174.35 158.25 179.32 127.46 182.21 127.46 183.53 119.21"/><path id="Fill-11" class="cls-1" d="M290.25,157.82a3.79,3.79,0,1,1,3.78-3.77,3.75,3.75,0,0,1-3.78,3.77m0-7.94a4.16,4.16,0,1,0,4.15,4.18,4.12,4.12,0,0,0-4.15-4.18"/><path id="Fill-13" class="cls-1" d="M273.59,135.32c-1.87,1.73-4.78,1.06-7.32,1.17l1.38-8.55c2.88.07,6.85-.81,7.91,2.5a5.16,5.16,0,0,1-2,4.88m11.82-8.65c-1.36-4.58-6.16-7.15-10.61-7.46H255.52l-1.31,8.25h2.87l-3.56,22.08h-2.9l-1.4,8.71H265l1.42-8.71h-2.19l.82-5.21,7.73,13.92h9.68l1.41-8.71h-3.61l-4-7a12.48,12.48,0,0,0,5.15-3c3.54-3.26,5.51-8,4.09-12.88"/><path id="Fill-15" class="cls-1" d="M290.23,153.59h-.87V152h.71c.63,0,.88,0,1.1.2a.76.76,0,0,1,.25.57c0,.83-.86.82-1.19.82m.79.37a1.25,1.25,0,0,0,1.16-1.24,1.26,1.26,0,0,0-.79-1.19,3.48,3.48,0,0,0-1.2-.11H288.6v5.2h.75V154.2h.37c.75,0,1.16.11,1.32.88,0,.13.1.71.12.83a2.62,2.62,0,0,0,.21.71h.87a4.29,4.29,0,0,1-.38-1.51A1.23,1.23,0,0,0,291,154"/><polygon id="Fill-17" class="cls-1" points="239.81 144.62 239.05 149.54 231.39 149.54 232.53 142.58 240.97 142.58 242.48 133.19 234.03 133.19 234.93 127.46 242.15 127.46 241.52 131.43 251.13 131.43 253.09 119.21 223.16 119.21 221.82 127.46 224.69 127.46 221.11 149.54 218.19 149.54 216.78 158.25 247.49 158.25 249.7 144.62 239.81 144.62"/><g id="Group-21"><g class="cls-4"><path id="Fill-19" class="cls-1" d="M197.24,136.3,196,144.22h10.14a8.73,8.73,0,0,1-6,4.79,7.74,7.74,0,0,1-8-3.52c-2.58-4.17-1.67-10.33,1.06-14.15a9.93,9.93,0,0,1,10.21-3.51,6.77,6.77,0,0,1,4.8,4.6h9.1l2.12-13.23h-8l-.35,2.16-.64-.81a7.76,7.76,0,0,0-2.33-1.32,20.48,20.48,0,0,0-22.44,5.8A23.51,23.51,0,0,0,181,146.63c1.92,6,8.09,10.47,14,11.5,4.3.15,8.95-.36,12.38-3.16l-.55,3.28h8.24l3.54-21.95Z"/></g></g><g id="Group-24"><g class="cls-4"><polygon id="Fill-22" class="cls-1" points="138.2 127.45 141.07 127.45 142.38 119.2 125.7 119.2 124.36 127.45 127.23 127.45 123.69 149.53 120.79 149.53 119.4 158.25 136.1 158.23 137.49 149.53 134.61 149.53 138.2 127.45"/></g></g><g id="Group-27"><g class="cls-3"><path id="Fill-25" class="cls-1" d="M24.06,136.3l-1.26,7.92H32.93A8.72,8.72,0,0,1,27,149a7.75,7.75,0,0,1-8-3.52c-2.57-4.17-1.66-10.33,1.06-14.15a10,10,0,0,1,10.22-3.51,6.79,6.79,0,0,1,4.8,4.6h9.1l2.12-13.23h-8l-.35,2.16-.65-.81A7.76,7.76,0,0,0,35,119.24,20.46,20.46,0,0,0,12.52,125a23.48,23.48,0,0,0-4.65,21.59c1.92,6,8.08,10.47,14,11.5,4.29.15,8.94-.36,12.38-3.16l-.55,3.28h8.23l3.54-21.95Z"/></g></g><path id="Fill-28" class="cls-1" d="M68,135.33c-1.87,1.73-4.78,1.06-7.32,1.17L62.05,128c2.89.07,6.85-.81,7.92,2.49a5.15,5.15,0,0,1-2,4.89Zm2.58,7.23a12.33,12.33,0,0,0,5.15-3c3.54-3.25,5.51-8,4.09-12.87-1.36-4.58-6.16-7.15-10.61-7.46H49.92l-1.3,8.24h2.86l-3.56,22.09H45l-1.4,8.7H59.35l1.42-8.7H58.58l.83-5.21,7.72,13.91h9.68l1.42-8.7H74.61Z"/><path id="Fill-30" class="cls-1" d="M99.12,138.1l3.95-9.19.8,9.19Zm11.93-18.89H92.5l-1.31,8.25h2.88L82.85,149.54H80l-1.42,8.71H94.82l1.42-8.71H93.33l1.45-3.22h10l.41,3.22h-2.87l-1.4,8.71h16.69l1.41-8.71h-2.89Z"/><polygon id="Fill-32" class="cls-1" points="183.53 119.21 167.4 119.21 166.08 127.46 168.94 127.46 167.14 138.6 157.08 119.21 144.09 119.21 142.78 127.46 145.66 127.46 142.07 149.54 139.21 149.54 137.82 158.25 154.07 158.25 155.46 149.54 152.59 149.54 154.68 136.38 165.67 158.25 174.35 158.25 179.32 127.46 182.21 127.46 183.53 119.21"/><path id="Fill-34" class="cls-1" d="M290.25,157.82a3.79,3.79,0,1,1,3.78-3.77,3.75,3.75,0,0,1-3.78,3.77m0-7.94a4.16,4.16,0,1,0,4.15,4.18,4.12,4.12,0,0,0-4.15-4.18"/><path id="Fill-36" class="cls-1" d="M273.59,135.32c-1.87,1.73-4.78,1.06-7.32,1.17l1.38-8.55c2.88.07,6.85-.81,7.91,2.5a5.16,5.16,0,0,1-2,4.88m11.82-8.65c-1.36-4.58-6.16-7.15-10.61-7.46H255.52l-1.31,8.25h2.87l-3.56,22.08h-2.9l-1.4,8.71H265l1.42-8.71h-2.19l.82-5.21,7.73,13.92h9.68l1.41-8.71h-3.61l-4-7a12.48,12.48,0,0,0,5.15-3c3.54-3.26,5.51-8,4.09-12.88"/><path id="Fill-38" class="cls-1" d="M290.23,153.59h-.87V152h.71c.63,0,.88,0,1.1.2a.76.76,0,0,1,.25.57c0,.83-.86.82-1.19.82m.79.37a1.25,1.25,0,0,0,1.16-1.24,1.26,1.26,0,0,0-.79-1.19,3.48,3.48,0,0,0-1.2-.11H288.6v5.2h.75V154.2h.37c.75,0,1.16.11,1.32.88,0,.13.1.71.12.83a2.62,2.62,0,0,0,.21.71h.87a4.29,4.29,0,0,1-.38-1.51A1.23,1.23,0,0,0,291,154"/><polygon id="Fill-40" class="cls-1" points="239.81 144.62 239.05 149.54 231.39 149.54 232.53 142.58 240.97 142.58 242.48 133.19 234.03 133.19 234.93 127.46 242.15 127.46 241.52 131.43 251.13 131.43 253.09 119.21 223.16 119.21 221.82 127.46 224.69 127.46 221.11 149.54 218.19 149.54 216.78 158.25 247.49 158.25 249.7 144.62 239.81 144.62"/><g id="Group-44"><g class="cls-5"><path id="Fill-42" class="cls-1" d="M197.24,136.3,196,144.22h10.14a8.73,8.73,0,0,1-6,4.79,7.74,7.74,0,0,1-8-3.52c-2.58-4.17-1.67-10.33,1.06-14.15a9.93,9.93,0,0,1,10.21-3.51,6.77,6.77,0,0,1,4.8,4.6h9.1l2.12-13.23h-8l-.35,2.16-.64-.81a7.76,7.76,0,0,0-2.33-1.32,20.48,20.48,0,0,0-22.44,5.8A23.51,23.51,0,0,0,181,146.63c1.92,6,8.09,10.47,14,11.5,4.3.15,8.95-.36,12.38-3.16l-.55,3.28h8.24l3.54-21.95Z"/></g></g></g></g></g></g></g></g></g></svg>