<?xml version="1.0" encoding="utf-8"?>
<!-- Generator: Adobe Illustrator 24.0.1, SVG Export Plug-In . SVG Version: 6.00 Build 0)  -->
<svg version="1.1" id="Layer_1" xmlns="http://www.w3.org/2000/svg" xmlns:xlink="http://www.w3.org/1999/xlink" x="0px" y="0px"
	 viewBox="0 0 300 300" style="enable-background:new 0 0 300 300;" xml:space="preserve">
<style type="text/css">
	.st0{fill-rule:evenodd;clip-rule:evenodd;fill:#EC1B2E;}
</style>
<title>HAL_Light_bg</title>
<path class="st0" d="M259.3,120h-45c-10.2,0-10.9,10.9-10.9,10.9l-8.9,53.1c-2.7,13.6-17.7,17-17.7,17h-30.7l5.4-38.1
	c0.7-0.7,0-1.4-3.4-1.4s-3.4,2-3.4,2l-6.1,37.5H89l12.3-70.2c3.4-19.1,19.1-19.8,19.1-19.8H153l-5.4,36.9c0,0-0.7,2,2,2
	c3.4,0,3.4-0.7,4.1-2s6.8-36.8,6.8-36.8h96c-21.6-59-86.9-89.4-145.9-67.8C65.8,59.8,36,102.3,35.9,150
	c0,62.7,51.1,113.8,113.8,113.8c63.3,0,114.4-51.1,114.4-113.8C264.1,139.1,262,129.6,259.3,120z"/>
</svg>
