<svg id="Layer_1" data-name="Layer 1" xmlns="http://www.w3.org/2000/svg" viewBox="0 0 300 300"><defs><style>.cls-1{fill:#fff;}</style></defs><path class="cls-1" d="M255.2,93.43V206.57a8.75,8.75,0,0,1-4.11,6.45l-22.68,13.09V73.89L251.09,87A8.54,8.54,0,0,1,255.2,93.43Z"/><polyline class="cls-1" points="154.89 268.52 181.68 253.08 181.68 179.6 154.89 195.04 154.89 268.52"/><polyline class="cls-1" points="144.91 268.52 144.91 189.76 191.65 162.8 191.65 247.22 218.43 231.98 218.43 68.02 191.65 52.78 191.65 131.34 118.32 173.75 118.32 253.08 144.91 268.52"/><polygon class="cls-1" points="144.91 31.48 118.32 46.92 118.32 120.39 144.91 104.95 144.91 31.48"/><polygon class="cls-1" points="181.68 46.92 154.89 31.48 154.89 110.24 108.16 137.2 108.16 52.78 81.56 68.22 81.56 231.97 108.16 247.22 108.16 168.66 181.68 126.25 181.68 46.92"/><path class="cls-1" d="M44.8,93.43V206.57A8.54,8.54,0,0,0,48.91,213l22.68,13.09V73.88L48.91,87A8.73,8.73,0,0,0,44.8,93.43Z"/></svg>