<svg id="Layer_1" data-name="Layer 1" xmlns="http://www.w3.org/2000/svg" viewBox="0 0 300 300"><defs><style>.cls-1{fill:#df5a28;}</style></defs><path class="cls-1" d="M70.76,188.11h24a17.12,17.12,0,0,1,17.11,17.11v24c0,14.76,12,28.77,26.75,28.72a1.68,1.68,0,0,0,1.62-1.67V196.22a36.47,36.47,0,0,0-36.49-36.48H43.72A1.68,1.68,0,0,0,42,161.36c0,14.75,14,26.75,28.72,26.75"/><path class="cls-1" d="M70.76,111.89h24a17.12,17.12,0,0,0,17.11-17.11v-24c0-14.75,12-28.77,26.75-28.72a1.68,1.68,0,0,1,1.62,1.67v60.09a36.47,36.47,0,0,1-36.49,36.48H43.72A1.68,1.68,0,0,1,42,138.64c0-14.75,14-26.75,28.72-26.75"/><path class="cls-1" d="M229.24,188.11H205.19a17.12,17.12,0,0,0-17.11,17.11v24c0,14.76-12,28.77-26.75,28.72a1.68,1.68,0,0,1-1.62-1.67V196.22a36.47,36.47,0,0,1,36.49-36.48h60.08a1.67,1.67,0,0,1,1.67,1.62c.05,14.75-13.91,26.75-28.71,26.75"/><path class="cls-1" d="M229.24,111.89H205.19a17.12,17.12,0,0,1-17.11-17.11v-24c0-14.75-12-28.77-26.75-28.72a1.68,1.68,0,0,0-1.62,1.67v60.09a36.47,36.47,0,0,0,36.49,36.48h60.08a1.67,1.67,0,0,0,1.67-1.62c.05-14.75-13.91-26.75-28.71-26.75"/><path class="cls-1" d="M154.25,132.35a47.81,47.81,0,0,0,13.43,13.42c4.18,2.66,4.18,5.8,0,8.46a47.81,47.81,0,0,0-13.43,13.42c-2.65,4.18-5.8,4.18-8.45,0a47.81,47.81,0,0,0-13.43-13.42c-4.18-2.66-4.18-5.8,0-8.46a47.81,47.81,0,0,0,13.43-13.42c2.65-4.18,5.75-4.18,8.45,0"/></svg>