<svg id="Layer_1" data-name="Layer 1" xmlns="http://www.w3.org/2000/svg" viewBox="0 0 300 300"><defs><style>.cls-1{fill:#fff;}.cls-1,.cls-2{fill-rule:evenodd;}.cls-2{fill:#f48120;}</style></defs><title>HD_Light_bg</title><polygon class="cls-1" points="58.71 58.71 241.29 58.71 241.29 241.29 58.71 241.29 58.71 58.71 58.71 58.71"/><polygon class="cls-2" points="61.6 62.65 237.35 61.6 238.4 237.35 62.65 238.4 61.6 62.65 61.6 62.65"/><path class="cls-1" d="M101.11,201.25l-4.56,4.56-3-3,4.55-4.56L86.32,186.46c-1.91-1.91-2.17-2.28-4.56-1a2,2,0,0,1-2.54-.26c-1.5-1.5.11-3.31.32-3.52L94.19,167c.2-.21,2-1.81,3.52-.32a2.05,2.05,0,0,1,.26,2.55c-1.24,2.38-.88,2.64,1,4.55L126.2,201c1.91,1.92,2.17,2.29,4.56,1a2.05,2.05,0,0,1,2.54.27c1.5,1.51-.1,3.32-.3,3.53l-14.66,14.64c-.21.21-2,1.81-3.52.32a2.05,2.05,0,0,1-.27-2.55c1.25-2.38.88-2.64-1-4.56l-12.41-12.4Zm-.19,36.62h-6a.41.41,0,0,1,0-.09c1.23-2.37.87-2.64-1-4.56L66.76,206c-1.93-1.93-2.18-2.29-4.57-1l-.06,0v-6l12.49-12.49c.2-.21,2-1.82,3.51-.32a2,2,0,0,1,.27,2.54c-1.25,2.39-.88,2.65,1,4.57l27.19,27.18c1.92,1.93,2.18,2.29,4.56,1.05a2,2,0,0,1,2.54.26c1.5,1.51-.1,3.32-.31,3.52l-12.5,12.51Z"/><path class="cls-1" d="M175.57,85.61l13.66-13.67L228,110.74l-13.66,13.68c-.21.2-2,1.81-3.53.31a2,2,0,0,1-.26-2.55c1.24-2.38.88-2.64-1-4.56l-27.2-27.19c-1.92-1.91-2.17-2.28-4.56-1a2,2,0,0,1-2.54-.26c-1.5-1.5.11-3.32.32-3.52ZM199,62.13h8.13l6.47,6.46c.26.26,1.2,1.31-.36,2.85-.88.89-1.66.63-2.7.11-5.54-2.87-10.73-2.76-16,1.07l-3-3L199,62.13Zm38.83,30v8.81l-7.5,7.5-3-3c3.67-4.72,4-10.78,1.27-16.32-.41-1.15-.94-2.29,0-3.22a2.07,2.07,0,0,1,3.26.27l6,6Zm-29-5.17c1.61-2.75.56-5.75-.94-8.19-.62-1.14-1.14-2.29,0-3.37,1.6-1.6,3.22.52,3.63.94l11.2,11.2c.42.41,2.54,2,.94,3.63-1.09,1.09-2.23.56-3.37-.06-2.44-1.5-5.45-2.53-8.19-.94l-3.22-3.21Z"/><path class="cls-1" d="M160.73,231.47l-6.41,6.4h-3.41c.09-.2.2-.41.3-.63.39-.72-.46-1.46-.9-1.9L135,220.06c-.44-.44-1.17-1.28-1.9-.9s-1.43.84-2.16.11-.11-1.57.47-2.15l7.47-7.47,21.82,21.82Z"/><path class="cls-1" d="M209.61,138.94l7.15-7.15,18.55,18.55c1.08,1.08,1.23,1.29,2.56.59v3.39l-7,7c-.12.12-1.14,1-2,.18a1.15,1.15,0,0,1-.15-1.43c.7-1.34.49-1.49-.58-2.57l-18.56-18.55Zm19.46-5.87a1.24,1.24,0,0,1-.12,1.81c-.81.82-1.72.21-2.44-.35-1.81-1.28-4.15-2.79-6.74-2.36l-1.7-1.69,4.2-4.2,6.8,6.79Zm-25,11.38,4.2-4.2,1.7,1.69c-.44,2.6,1.07,4.93,2.36,6.74.55.73,1.16,1.64.35,2.45a1.24,1.24,0,0,1-1.81.12l-6.8-6.8Z"/><path class="cls-1" d="M223.94,229.28a5,5,0,1,1,5,4.95,4.93,4.93,0,0,1-5-4.95Zm5,4.13a4.12,4.12,0,1,0-4-4.13,4,4,0,0,0,4,4.13Zm-1-1.27h-.86v-5.69h2.17c1.34,0,2,.49,2,1.62a1.48,1.48,0,0,1-1.48,1.56l1.62,2.51h-1l-1.5-2.47h-1v2.47Zm1-3.2c.73,0,1.39-.05,1.39-.93,0-.7-.64-.83-1.25-.83h-1.17v1.76Z"/><path class="cls-1" d="M115.06,150.58c-1.56,3.31-.21,5.07,1.09,6.37L143,183.83c1.29,1.3,3.06,2.64,6.37,1.09l3,3c-12,10-25.95,6.25-36.28-4.08s-14.07-24.32-4.08-36.28l3,3Zm36.68,32c1.55-3.32.2-5.09-1.11-6.38l-26.87-26.88c-1.3-1.29-3.06-2.64-6.37-1.09l-3-3c12-10,26-6.25,36.28,4.08s14.07,24.32,4.08,36.28l-3-3Z"/><path class="cls-1" d="M208.94,126.63a2,2,0,0,0-2.54-.26c-2.38,1.24-2.64.88-4.56-1L174.65,98.14c-1.92-1.92-2.29-2.17-1-4.56a2,2,0,0,0-.26-2.54c-1.51-1.51-3.32.1-3.52.31L156.15,105l11.17,20.7-.11.09-21.46-10.38-13.14,13.15c-.62.61-2.18,2.17-.58,3.78,1.25,1.25,2.75,0,3.42-.62.94-.83,1.77-.41,3-.1a14.65,14.65,0,0,1,3.17,1.31l42.92,21.29,1.5-1.5-21-38.81L189.15,138c1.92,1.92,2.28,2.19,1,4.56a2,2,0,0,0,.27,2.55c1.5,1.5,3.31-.1,3.52-.31l14.66-14.66c.21-.2,1.8-2,.3-3.52Z"/><path class="cls-1" d="M168.39,154l-8.92-8.92L148,139.41l-.11.11L165.38,157c5.66,7.31.33,8.6,2.56,10.83,1.61,1.61,3.62-.62,4.19-1.19l5.91-5.9c.56-.57,2.79-2.58,1.18-4.19-2.23-2.23-3.52,3.1-10.83-2.56Z"/><path class="cls-1" d="M140.22,208.33c4.9-5,12.48-5.72,20.36,1.47,7.17,6.53,6.3,15.51,1.46,20.35l-1.69-1.69c1.55-2,0-3.77-1.14-4.87l-12.43-12.43c-1.11-1.11-2.86-2.68-4.87-1.13l-1.69-1.7Z"/><path class="cls-1" d="M151.1,197.46l7.69-7.7,21.83,21.82-7.7,7.7c-.12.11-1.14,1-2,.17a1.15,1.15,0,0,1-.15-1.43c.71-1.34.5-1.48-.58-2.57l-15.28-15.28c-1.08-1.08-1.23-1.28-2.57-.59a1.13,1.13,0,0,1-1.43-.14c-.85-.84.06-1.87.18-2Zm9-9,6.5-6.5,5.93,5.92c.14.15.67.73-.21,1.61-.5.49-.93.35-1.51.05a8,8,0,0,0-9,.61l-1.69-1.69Zm20.13,20.13a8.47,8.47,0,0,0,.73-9.19c-.24-.64-.53-1.28,0-1.81a1.17,1.17,0,0,1,1.84.15l5.84,5.84-6.71,6.7-1.69-1.69Zm-10.39-10.39c.9-1.54.32-3.23-.52-4.6-.36-.64-.65-1.29,0-1.9.9-.9,1.81.29,2,.53l6.3,6.3c.23.23,1.43,1.13.52,2-.61.61-1.25.32-1.89,0-1.37-.84-3.06-1.43-4.61-.52l-1.81-1.82Z"/><path class="cls-1" d="M177.87,170.68c2.77-2.77,4.7-4.12,6.86-4.7,3.45-.87,6.21.21,8.67,2.65s3.53,5.23,2.65,8.67c-.59,2.16-1.93,4.09-4.7,6.86l-1.69-1.69c1.4-2.05.29-3.33-1.14-4.76l-4.4-4.41c-1.31-1.31-2.78-2.24-4.56-.93l-1.69-1.69Zm-5.19,11.73c-1.08-1.08-1.23-1.28-2.57-.58a1.15,1.15,0,0,1-1.43-.15c-.84-.85.06-1.87.18-2l7.7-7.69,18.55,18.55c1.08,1.08,1.22,1.29,2.57.58a1.15,1.15,0,0,1,1.43.15c.85.84-.06,1.86-.18,2l-8.25,8.25a1.19,1.19,0,0,1-1.76,0,1.08,1.08,0,0,1-.21-1.37c.7-1.34.33-1.33-.75-2.41l-15.28-15.28Z"/><path class="cls-1" d="M196.36,154.7a2.77,2.77,0,0,0,.61,3.59l15.11,15.11a2.77,2.77,0,0,0,3.59.61l1.69,1.69c-6.73,5.64-14.61,3.54-20.41-2.27S189,159.75,194.67,153l1.69,1.69Zm20.62,18a2.76,2.76,0,0,0-.61-3.59L201.26,154a2.76,2.76,0,0,0-3.59-.61L196,151.7c6.74-5.64,14.62-3.53,20.42,2.27s7.91,13.68,2.28,20.42L217,172.7Z"/><path class="cls-1" d="M83.19,128.67,89.9,122l17.44,17.43c1,1,1.15,1.21,2.41.55a1.07,1.07,0,0,1,1.35.14c.79.79-.06,1.75-.17,1.86l-7.76,7.76c-.11.11-1.06,1-1.86.17a1.1,1.1,0,0,1-.14-1.35c.66-1.26.47-1.39-.55-2.41L83.19,128.67Zm18.28-5.51a1.16,1.16,0,0,1-.11,1.7c-.76.77-1.61.19-2.3-.33-1.7-1.2-3.89-2.63-6.33-2.22l-1.59-1.59,4-4,6.38,6.39ZM78,133.86l4-4,1.59,1.59c-.41,2.44,1,4.63,2.22,6.33.52.69,1.1,1.54.33,2.3a1.16,1.16,0,0,1-1.7.11L78,133.86Z"/><path class="cls-1" d="M121.6,125.14c1,1,1.15,1.2,2.41.54a1.08,1.08,0,0,1,1.34.14c.8.8,0,1.76-.16,1.87l-7.76,7.76c-.11.11-1.07,1-1.86.16a1.06,1.06,0,0,1-.14-1.34c.66-1.26.47-1.4-.55-2.42l-14.37-14.36c-1-1-1.15-1.21-2.41-.55a1.06,1.06,0,0,1-1.34-.14c-.8-.79,0-1.75.16-1.86l7.76-7.76c.11-.11,1.07-1,1.87-.17a1.08,1.08,0,0,1,.13,1.35c-.65,1.26-.46,1.4.55,2.41l14.37,14.37Zm-2.91-10.2-2.41,2.41-1.59-1.59,2.41-2.41-6.22-6.23c-1-1-1.15-1.2-2.41-.55a1.08,1.08,0,0,1-1.35-.13c-.79-.8.06-1.76.17-1.87l7.76-7.76c.11-.11,1.07-1,1.86-.16a1.09,1.09,0,0,1,.14,1.34c-.66,1.26-.47,1.4.55,2.42L132,114.77c1,1,1.15,1.21,2.42.55a1.06,1.06,0,0,1,1.34.14c.79.79-.06,1.75-.16,1.86l-7.76,7.76c-.11.11-1.07,1-1.87.17a1.1,1.1,0,0,1-.14-1.35c.66-1.26.47-1.4-.54-2.41l-6.56-6.55Z"/><path class="cls-1" d="M117.63,94.23,124.87,87l20.51,20.51-7.24,7.24c-.11.11-1.07,1-1.87.16a1.07,1.07,0,0,1-.13-1.34c.66-1.26.46-1.4-.55-2.41L121.22,96.78c-1-1-1.15-1.21-2.41-.55a1.06,1.06,0,0,1-1.34-.14c-.8-.79,0-1.75.16-1.86Zm8.47-8.47,6.12-6.12,5.56,5.57c.14.14.63.68-.19,1.51-.47.46-.88.33-1.42,0a7.46,7.46,0,0,0-8.48.58l-1.59-1.59ZM145,104.68a8,8,0,0,0,.69-8.64c-.22-.6-.5-1.21,0-1.7a1.09,1.09,0,0,1,1.72.14l5.49,5.48-6.31,6.31L145,104.68Zm-9.76-9.77c.85-1.45.3-3-.49-4.33-.33-.6-.61-1.2,0-1.78.85-.85,1.7.27,1.92.49l5.92,5.93c.22.22,1.34,1.07.5,1.92-.58.57-1.18.3-1.79,0-1.29-.8-2.88-1.35-4.33-.5l-1.7-1.7Z"/></svg>