<svg id="Layer_1" data-name="Layer 1" xmlns="http://www.w3.org/2000/svg" viewBox="0 0 300 300"><title>Consolidated list_logos1</title><path d="M35.76657,182.3695V117.62874c0-12.68329.42932-14.84927,19.49912-20.20763,35.89619-10.07741,67.6041-12.06451,92.98416-12.08973v-9.8915H25V224.56012H148.24927V215.539a344.09915,344.09915,0,0,1-92.98416-12.96011c-19.06922-5.35836-19.49854-7.52435-19.49854-20.20939" fill="#fff"/><path d="M264.23519,182.3695V117.62874c0-12.68329-.42932-14.84927-19.50088-20.20763C208.83578,87.34369,177.129,85.3566,151.75073,85.33138v-9.8915H275V224.56012H151.75073V215.539a344.113,344.113,0,0,0,92.98358-12.96011c19.07156-5.35836,19.50088-7.52435,19.50088-20.20939" fill="#fff"/><polyline points="84.761 122.995 84.761 143.166 61.71 143.166 61.71 122.995 47.718 122.995 47.718 176.871 61.71 176.871 61.71 156.64 84.761 156.64 84.761 176.871 98.758 176.871 98.758 122.995 84.761 122.995" fill="#fff"/><path d="M147.373,136.47625V122.99531H113.76891c-7.11964,0-9.50909,1.57888-9.50909,11.0041v31.861c0,9.42816,2.39,11.01056,9.50909,11.01056H147.373v-13.5132H117.98533v-6.71789H147.373V143.1654H117.98533v-6.68915H147.373" fill="#fff"/><path d="M190.60059,143.166H166.32316v-6.68915h32.6657V122.99531H162.27331c-7.56012,0-9.67507,1.75308-9.67507,11.06334v12c0,10.80645,2.095,10.58123,9.67507,10.58123H186.546v6.71789H152.59355V176.871h38.007c7.55835,0,9.67154-1.75484,9.67154-11.06158V154.085c0-10.81-2.09207-10.91906-9.67154-10.91906" fill="#fff"/><path d="M242.60118,143.166H218.32494v-6.68915h32.66569V122.99531H214.2704c-7.55836,0-9.6698,1.75308-9.6698,11.06334v12c0,10.80645,2.09326,10.58123,9.6698,10.58123h24.27624v6.71789H204.5953V176.871h38.00588c7.55662,0,9.67332-1.75484,9.67332-11.06158V154.085c0-10.81-2.09678-10.91906-9.67332-10.91906" fill="#fff"/></svg>