<svg id="Layer_1" data-name="Layer 1" xmlns="http://www.w3.org/2000/svg" viewBox="0 0 300 300"><path d="M65.00749,144.91516V165.4133c10.929-.24674,21.81766-.33792,32.575-.20383,20.62418-8.70829,39.961-16.5959,61.51586-19.78741.14214-.18774.26819-.36206.37011-.50421H65.01016Z" fill="#ecf1f6"/><path d="M140.57946,158.73256a23.25733,23.25733,0,0,1,7.35391-3.48653c.582-.17164,3.00379-1.703,3.43289-1.939.63026-.34865,1.35438-2.0651,2.03829-2.74363a43.2206,43.2206,0,0,1,5.0796-4.452,4.77242,4.77242,0,0,0,.61148-.692c-21.55215,3.19152-40.88632,11.07646-61.51587,19.79279,5.57309.06974,11.10327.21456,16.59322.4023,11.31245-4.04974,23.333-4.98038,26.40379-6.88188Z" fill="#dbe7f0"/><path d="M65.00749,178.48244c11.48411-4.29916,22.19313-8.8853,32.575-13.27029-10.75462-.13409-21.64333-.04559-32.575.20383v13.06646Z" fill="#dbe7f0"/><path d="M91.96376,192.65922c-.4023-15.3622,10.532-22.8663,22.20654-27.04477-5.49264-.18774-11.01476-.33256-16.59322-.4023-10.37914,4.3823-21.08817,8.97113-32.57228,13.27565v28.54935a160.90071,160.90071,0,0,0,29.34052,1.65209,44.37377,44.37377,0,0,1-2.42716-9.14545,17.367,17.367,0,0,1-.13409-5.10911c.09386-.73485.17969-1.43484.17969-1.77545Z" fill="#cbdeeb"/><path d="M185.83317,207.82984v-.01327a28.15791,28.15791,0,0,1-4.48169.557c-.51706.02647-1.02092.03974-1.53806.053.053.57015.09282,1.10056.13256,1.57788v.01327c.02655.31821.05309.62315.09283.9149.05309.45078.11937.86182.19892,1.27294a9.57872,9.57872,0,0,0,.63643,1.98891,1.40186,1.40186,0,0,1,.07955.29167,7.522,7.522,0,0,1,.15911.79553c.02654.15911.06636.33149.09282.53041.2122,1.23312.50387,2.99665.79562,4.62753.09274.49059.18557.96791.27839,1.41877.13265.68952.27848,1.2994.411,1.7768.17238-.05309.34476-.1061.54368-.15911.3845-.11937.84855-.27848,1.39223-.46413.27847-.10609.57014-.21211.90163-.31821v-.01327h.01327a.979.979,0,0,0,0-.27848,2.14671,2.14671,0,0,1,.01327-.29167c0-.21211.01328-.43758.02647-.68951,0-.15911.01327-.33149.01327-.50387v-.01319c.02654-1.04755.06628-2.29394.09283-3.56679.02654-.84862.03981-1.71052.06628-2.5326,0-.411.01327-.8088.02654-1.1933,0-.305.01327-.61.02655-.90171.01327-.55687.02646-1.06074.03973-1.47177a2.66142,2.66142,0,0,1,.01327-.33149c0-.29167.01328-.53033.02655-.70271a.64459.64459,0,0,1,.01327-.1591.41142.41142,0,0,0,.01319-.11938c0-.07955.02655-.23866.02655-.39776l.02654-.38458v-.01319A11.66756,11.66756,0,0,0,185.83317,207.82984Zm-11.32352,17.6483c-.18565-.42431-.37131-.82208-.5436-1.20657-.17238-.37131-.33149-.72926-.46413-1.03428-.14584-.31821-.2784-.59661-.3845-.8088-.06628-.14584-.11937-.26521-.17238-.358a.013.013,0,0,0-.01327-.01319,1.48635,1.48635,0,0,0-.09282-.19892.1626.1626,0,0,0-.02655-.03974,25.41276,25.41276,0,0,1-1.67062-2.87735c-.67624-1.14029-1.20665-3.11593-2.00218-3.885a1.53449,1.53449,0,0,0-.37131-.25194.637.637,0,0,0-.22538-.06628,8.34746,8.34746,0,0,1-1.379.78235c-.19892.07955-.39784.17229-.61.25185-.50386.19892-1.06074.39784-1.64416.58341-.21219.07956-.45085.14592-.67624.2122h-.01327c-.60988.18565-1.24639.358-1.86954.51714l-.01328.02646a.47633.47633,0,0,1-.11937.06636,1.74251,1.74251,0,0,1-.31821.15911c-.053.02646-.1061.03974-.15911.06628a5.19976,5.19976,0,0,1-.55687.19884c-.15911.05309-.34476.1061-.54368.17238-.29167.07956-.6497.17238-1.04747.25194a5.06453,5.06453,0,0,1-.51714.10609c-.37122.06628-.769.13257-1.20657.19893l-2.82426.38449c-.34476.053-.70279.11937-1.06074.17238-.26521.053-.54368.1061-.82208.14584-.21219.03981-.411.06628-.62323.10609-.31822.053-.63643.09283-.94145.11929-.31822.02655-.62316.05309-.9281.05309-.33148,0-.663.01327-.98118.02647h-.01327c-.31822.01327-.62324.02654-.92818.03981v.01328c-.06628.34475-.1061.67624-.15911.99445a4.31451,4.31451,0,0,1-.17238.86182.768.768,0,0,1-.06628.18565,1.37685,1.37685,0,0,1-.19892.33148.69223.69223,0,0,1-.13256.14584,1.61954,1.61954,0,0,1-.82208.43758H147.182a10.24465,10.24465,0,0,1-3.06293-.01327c-.01327.01327-.01327.01327-.01327,0a16.24274,16.24274,0,0,0-5.317.19892,10.08088,10.08088,0,0,0-1.82981.6497c-.17238.17238-.34476.358-.50387.5436a6.825,6.825,0,0,0-.79553,1.14038v.01327a3.73586,3.73586,0,0,0-.29175.55687c-.37122.83535-.663,1.48505-.90163,2.01546-.11929.26512-.23866.49059-.34476.70271a13.508,13.508,0,0,1-1.69716,2.61215c-.30494.42423-2.47951,2.70489-3.50051,3.75236-.07955.07955-.15911.14583-.21212.21219l-.1591.15911c-.02655.02646-.05309.03974-.06636.06628-.0132,0-.02647.01327-.03974.02655v.01319a10.89737,10.89737,0,0,0-1.61769,2.042c-.14584.22539-.26513.464-.3845.68952a9.49181,9.49181,0,0,0-.47732,1.074c-.06628.17229-.13264.35795-.18565.53033,19.929-3.80545,37.81591-8.39324,49.08643-13.0075C174.74831,226.03509,174.629,225.75661,174.50965,225.47814Zm26.71778-31.39832c-.11937.15911-.22547.31822-.33149.47732a4.51769,4.51769,0,0,0-.7558,1.33922h-.01327c-.18565,1.06082-.3713,2.10828-.59669,3.2353-.39777,1.86963-.92818,3.95137-1.76353,6.61644,0,.01328-1.51151,3.97783-2.12147,5.264-.92818,1.96237-1.44532,4.70708-2.29386,7.26614-.01327.02654-.02654.07955-.05309.14583-.03973.1061-.09282.26521-.17238.45086l-.07955.19892c-.053.14584-.11929.29167-.18557.464l-.23874.5436c3.92482-1.47178,7.73027-2.89054,8.67172-3.11593V194.00027A.35049.35049,0,0,0,201.22743,194.07982ZM112.25662,234.362c-.18565-.31821-.37122-.663-.5436-1.00773-1.24639-2.43969-2.26739-5.51589-3.9911-7.22632-.25193-.23874-.51714-.46413-.78234-.68952-.59661-.50386-1.21985-.95472-1.80327-1.44531-.19884-.15911-.39776-.33149-.58342-.50387-.74252-.67616-1.44523-1.33913-2.095-1.98891a36.12591,36.12591,0,0,1-2.42641-2.7579,30.85228,30.85228,0,0,1-2.13483-3.03646l-.0132-.01328a37.34,37.34,0,0,1-2.00218-3.59325c-.17238-.33149-.33149-.67624-.50387-1.021-.3713-.7558-.70278-1.55133-1.03427-2.38668v-.01327c-.9281.03981-1.86954.06628-2.811.09282-2.22758.03974-4.46842.03974-6.76228-.02654a3.59522,3.59522,0,0,1-.3713-.01328c-.31821,0-.62316-.01319-.94137-.02646-.305,0-.62323-.02654-.94145-.03982-1.60442-.053-3.222-.14583-4.85291-.2652-.411-.02647-.83535-.06628-1.25966-.09275-.2122-.01327-.42432-.03981-.6497-.05309-.09283-.01327-.18565-.01327-.27848-.02646-.61-.03982-1.21984-.1061-1.84308-.15919-.53033-.053-1.04747-.106-1.57787-.1591s-1.06074-.106-1.59107-.17238c-.61-.06628-1.2332-.14584-1.84308-.21212-1.19338-.14583-2.39995-.31821-3.61988-.49059v40.53408c14.8373-1.1271,31.1862-3.169,46.97822-5.78109.11929-1.021.1723-1.89617.21212-2.042C112.19034,239.69229,112.41573,234.53435,112.25662,234.362Z" fill="#b8d3e6"/><path d="M234.94614,59.49663a.16023.16023,0,0,0-.11937.09283c-1.24639,3.0762-2.453,8.64517-4.41541,11.23078-1.45851,1.89608-5.84737,6.80209-8.00867,8.19431l-.29167.17238c.06629-.1591.15911-.39785.21212-.54368a3.25746,3.25746,0,0,0,.17238-.7558c.50386-3.07619,1.9491-5.27722,1.9491-10.50144,0-.50387.94144-1.41877,1.1801-1.82981,1.67071-2.82426,1.85636-6.66945,1.39223-9.56007-.31822-1.89609-3.08939-6.82856-4.13694-7.9954-.07955-.11937-1.69716-2.08174-1.92255-1.82981-.1061.07956.06628.47732.14584.63643h.01327c.9149,2.20111,4.49488,9.85175,4.05738,12.02631a21.23828,21.23828,0,0,1-.84862,3.58006c-.1061.19893-.716,1.25967-1.35249,1.20658-1.32594-.11929-1.432-4.12367-1.85627-5.37006a13.41863,13.41863,0,0,0-2.94364-4.32258,22.81726,22.81726,0,0,0-1.84308-1.55133c-2.94355-2.61207-6.61644-7.95566-10.85947-8.93684-.02647-.01328-.053-.02655-.07955.03981a.33057.33057,0,0,0,.10609.23866,41.44693,41.44693,0,0,1,3.1823,3.00984,38.10721,38.10721,0,0,1,3.68608,4.08392c1.11382,1.59115,3.91154,4.0972,4.86618,5.51589a10.21024,10.21024,0,0,1,1.76353,4.05746c.1061.96792.1061,1.25958-.46405,1.379-.358.1061-2.758-.8088-6.44406-1.08728-.33149,0-3.421-.27848-3.75244-.27848-4.65407-.517-4.37559-.31821-8.327-1.5646a89.79231,89.79231,0,0,0-8.75119-2.57233c-.358-.06628-4.16348-1.39222-4.40214-1.10047-.17238.18557,1.10056.98118,1.379,1.10047,1.11383.50386,4.37568,1.69725,5.62207,2.29394,1.57787.78226,2.99656,1.39222,4.41533,1.94909a46.22508,46.22508,0,0,0,6.89492,2.25412c-.25193,3.15575-.8619,8.44625-2.12148,10.72683a51.81574,51.81574,0,0,1-9.67945,12.42416c-.769.72925-1.52478,1.81654-2.58552,2.77118-.90163.83535-2.08174,2.20111-2.95691,2.4-.53032.1061-1.28612-.053-1.90936.07955-.87508.18565-1.5646.67625-2.3204.57015-.74252-.14584-.98118-.79553-1.64415-1.127a14.01073,14.01073,0,0,0-3.34132-.83535c-.80889-.09283-1.1271,0-.99446-.72925a1.91787,1.91787,0,0,0,.07955-.54369c.18557-2.41322.22539-4.65407.19885-6.3645-.1061-6.9612-4.4817-12.50363-7.09377-17.21072a33.71652,33.71652,0,0,0-3.02318-4.97228c-1.16684-1.29948-.46405.94137-.29167,1.6707.22538.83535.95464,1.77672,1.20657,2.47951.17238.39776.31821.98118.46413,1.379,1.379,4.11039,4.89273,9.66609,5.42306,14.62519a9.29194,9.29194,0,0,1,.07955.94136c-.31821,3.23531-.79553,7.33251-3.85846,7.99548a2.77112,2.77112,0,0,1-.6497.106c-4.82645-.03973-9.0032-6.65617-11.138-10.13014a46.23915,46.23915,0,0,1-5.17121-11.24405c-.63642-2.08166-.9149-8.16777-1.11374-10.3688-.03982-.3713-.07956-2.65188-.09283-2.95691,0-.11928-.053-.29166-.13256-.29166-.25193,0-.63651,2.06846-.76907,2.59879a40.8619,40.8619,0,0,0-.57014,7.16013,30.18437,30.18437,0,0,0,3.06292,12.5169c1.04747,2.30713,3.36787,6.90819,4.66726,9.12249.39785.6497,1.36576,1.90936,1.29948,2.4-.13264,1.11375-2.26739,1.08729-2.94363,1.28613a30.55469,30.55469,0,0,1-11.72129-1.02092,39.15778,39.15778,0,0,1-10.4087-4.22976,3.88445,3.88445,0,0,1-.9149-.80889c-4.1634-3.275-6.66945-10.77984-7.55781-16.49465a23.07426,23.07426,0,0,1-.19893-2.4265c.3845-.09282.70279-.18565,1.04747-.2652,4.38887-1.11383,10.3026-4.94574,13.60418-7.001a25.82117,25.82117,0,0,0,3.24858-2.254c.11937-.10609.15911-.1591.13256-.21219-.02646-.02647-.11929-.01327-.23866.03982-4.76009,1.49832-11.1246,5.42306-15.56655,6.56343-.31822.09274-1.56461.42423-2.37341.55687,0-.42431.02646-1.28621.02646-1.47178.01327-.51713-.01319-.99445-.01319-1.432.50387-.34475,1.02092-.87516,1.72371-1.41876,3.80545-3.00992,6.35124-11.602,8.95011-15.845.02647-.03973.11929-.17238.07956-.19884-.02655-.03982-.09283.01319-.19893.053-4.58771,2.16129-6.76227,11.62854-10.85947,14.32016-3.32813,2.21431-7.51807,3.89828-9.77219,7.01429-.26521.37123-.82208,1.737-1.28613,1.85627-.18565.03982-.84862.63643-1.20665.45086-1.21985-.74252-2.30713-3.08947-3.14248-4.40214-1.20657-1.9359-.88836-7.53134-.63643-9.61308.3845-3.20876,3.03638-7.359,4.57452-9.99766.03974-.053.053-.09275.03974-.106-.01327-.02655-.06628,0-.11929.02646a11.68112,11.68112,0,0,0-2.37349,1.8829c-2.16129,2.453-4.93247,6.56335-5.15786,9.98431-.22546,3.222.663,10.36888,2.75791,12.47716a6.85127,6.85127,0,0,0,1.20665,1.1933c2.57233,2.29394,3.76563,5.71481,5.06511,9.02967a12.15474,12.15474,0,0,0,1.57788,2.94363c2.34686,3.5137,6.78882,5.42307,10.76664,7.39871a90.05613,90.05613,0,0,0,12.45055,5.14466,80.64947,80.64947,0,0,0,9.401,2.30721,7.01124,7.01124,0,0,1,2.89054.96791c.42431.37122.70279,1.89609.94145,2.63862.30494.96791.67624,1.90936.92809,2.63861a53.65112,53.65112,0,0,0,1.86963,5.27731c1.03419,1.90928,3.48724,2.73143,5.74135,3.5667a11.34777,11.34777,0,0,0,3.30159.38458c1.04746-.03982,1.18011,1.20657,1.11375,1.79-.03974.83535.07955,1.39222.05308,2.22757a21.647,21.647,0,0,1-.13264,4.01765c-.053.42431-.55687,1.72371-.88836,2.78445a2.03643,2.03643,0,0,0-.19892.4774c-.22539,1.03419-.34468,2.9701-.68944,4.01756a36.93078,36.93078,0,0,0-1.98891,9.58654,16.99182,16.99182,0,0,1-1.84308,6.01983,18.37922,18.37922,0,0,0-.70279,2.49278,12.8882,12.8882,0,0,1-.92809,2.51925,1.98688,1.98688,0,0,1-.14592.22546c-.106.14584-.22539.31822-.37122.50379a4.289,4.289,0,0,1-.47732.557.22636.22636,0,0,1-.07955.07956c-.02655.02646-.05309.03973-.06637.06628-.47732.37122-.92809.716-1.33913,1.04746-.23874.19893-.4774.39785-.71606.58342-.411.358-.80881.68952-1.20657,1.04755-.29175.26512-.58342.5436-.88836.83535-.14592.14583-.29175.29167-.45086.45077q-.23866.21876-.47732.47732c-.67624.68952-1.40549,2.4-2.042,2.74471a36.13825,36.13825,0,0,1-3.42088,1.93591l-.01327.01327c-.22539.06628-.43758.13256-.6497.19884-.82208.26521-1.48505.4906-2.08174.72934q-.43762.17894-.83535.358c-.2652.13264-.51713.25193-.76907.38457s-.50386.2784-.75579.42423c-.26521.15919-.53033.3183-.80881.49068-.33149.19884-.67624.411-1.04747.64969-.13264.07956-.2652.17238-.39784.25194a3.21509,3.21509,0,0,1-.67617.33148,6.70894,6.70894,0,0,1-.87516.33149,22.57505,22.57505,0,0,1-2.28059.63642c-.88844.21212-1.86962.43759-2.94363.6497-.47732.09283-.98119.19893-1.49832.30494s-1.04747.2122-1.59115.3183c-.67616.14583-1.379.29167-2.09493.4375-.358.06636-.71606.14592-1.074.22547-.31822.06628-.6497.13256-.98119.21212-.61.13256-1.23319.27847-1.86962.42431-1.35249.30494-2.74471.63642-4.15021,1.021-.411.11929-.82208.22539-1.23312.34468-.29166.07955-.58341.15918-.87508.25193-1.41877.411-2.83754.86189-4.25631,1.379H114.166c-.716.25193-1.432.53033-2.13475.80881-.53041.21211-1.06074.43758-1.57787.663-.53041.22539-1.04747.464-1.56461.70279a3.41872,3.41872,0,0,1-.31821.14583c-.09283.03974-.18565.09283-.2652.13256-.02655.01327-.03982.02655-.06629.02655a.3981.3981,0,0,1-.10609.053c-.14584.07955-.29175.14583-.42431.22538-.29167.13265-.57015.29175-.84863.43759q-.45741.23865-.87508.47732c-.09283.05309-.17238.1061-.27848.15918-.31821.18558-.63643.37123-.95464.57015q-.45753.27835-.87517.55687c-.29167.18566-.57014.3845-.86181.58342a4.89046,4.89046,0,0,0-.53041.3845,4.21347,4.21347,0,0,0-.49059.358c-.27848.21211-.54361.42431-.82208.63642-.26521.2122-.53041.43759-.79554.663l-.05309.05309c-.53032.464-1.04746.95464-1.55133,1.45851a10.71978,10.71978,0,0,0-.75579.79553c-.25194.27848-.50387.57023-.74253.8619s-.47732.59669-.70279.90163-.45077.61-.663.92817-.411.63643-.60988.96792c-.18565.305-.3713.61-.53041.9149a2.61905,2.61905,0,0,0-.17238.33149c-.106.19892-.21211.39776-.30494.61-.14583.2784-.27848.58342-.411.87509-.1591.3713-.30494.74252-.43758,1.1271a3.2687,3.2687,0,0,0-.13256.38449,3.03774,3.03774,0,0,0-.11937.3713c-.06629.1723-.11929.358-.17238.53033-.11929.3713-.21212.72925-.30494,1.11383-.1061.38449-.18566.78226-.26521,1.1933a.04876.04876,0,0,0-.01327.03982c-.07955.39776-.14584.79553-.19884,1.20657-.05309.31821-.09283.6497-.11937.98118-.02647.23874-.053.4774-.06629.71606-.02654.23866-.03973.4906-.053.74253-.02655.39776-.03982.79553-.03982,1.21984v.2122c0,.30494,0,.62315.01327.92809,0,.34476-.09282,1.04755-.18565,1.7768-.03974.33149-.06628.67625-.09283,1.021a19.56453,19.56453,0,0,0,.02655,2.47951c0,.02647.01327.06628.01327.11929.01327.22547.03974.47732.07955.72925.01328.11937.03974.23874.053.37131a3.33034,3.33034,0,0,0,.06628.38449c.07964.51714.17238,1.04755.26521,1.55141.1061.51706.21219,1.02092.31821,1.52479.11937.54368.25193,1.074.38458,1.59114.01327.03982.01327.06629.02646.1061.13264.4906.26521.96792.41112,1.432.106.358.22539.71606.33149,1.06082.09274.26513.17229.51706.27839.78226.11937.37131.26521.72925.39777,1.08729v.01327c.33149.83535.663,1.63088,1.03427,2.38668.17238.34476.33149.68951.50387,1.021.67624,1.32594,1.32594,2.506,2.00218,3.59325l.0132.01328a30.85228,30.85228,0,0,0,2.13483,3.03646,36.12591,36.12591,0,0,0,2.42641,2.7579c.64978.663,1.35249,1.32594,2.095,2.00219.18566.17237.38458.33148.58342.49059.58342.49059,1.20666.94145,1.80327,1.44531.2652.22539.53041.45078.78234.68952,1.72371,1.71043,2.74471,4.78663,3.9911,7.22632.17238.34476.358.68952.5436,1.00773.15911.17238-.06628,5.33032-.06628,5.38332-.03982.14584-.09283,1.021-.21212,2.042v.01319c-15.792,2.61215-32.12764,4.65407-46.96495,5.78117V259.1173H201.29371V216.96561c-.94145.22539-4.7469,1.64415-8.67172,3.11593l.23874-.5436c.06628-.17238.13256-.31821.18557-.464l.07955-.19892c.06637-.18565.13265-.34476.17238-.45086.02655-.06628.03982-.11929.05309-.14583.84854-2.55906,1.36568-5.30377,2.29386-7.26614.61-1.28621,2.12147-5.25076,2.12147-5.264.83535-2.66507,1.36576-4.74681,1.76353-6.61644.23866-1.127.43758-2.17448.61-3.2353a4.51769,4.51769,0,0,1,.7558-1.33922c.106-.1591.21212-.31821.33149-.47732a.35049.35049,0,0,1,.06628-.07955c.49059-.67624.96791-1.25966.96791-1.25966.61-.79554,1.10055-1.86955,1.7768-2.83746,0,0,3.28831-6.86837,3.20876-12.79538-.02655-1.10055.30494-6.00648.2652-10.276a4.42226,4.42226,0,0,0,.06628-.74253,18.71483,18.71483,0,0,0-.17238-2.3204,1.00346,1.00346,0,0,0-.01327-.19892c-.01327-.15911-.01327-.34468-.02646-.50387-.17238-1.10047.06628-3.24849.01319-4.22968-.06628-1.2862-.51706-1.14037-.60988-2.46631a13.12519,13.12519,0,0,0-.59669-2.43969,8.286,8.286,0,0,0-.80881-1.737c-.05309-.358-.09282-.62324-.09282-.72934.1591-4.601-2.89055-10.06386-2.9701-10.26278-1.44532-3.34132-1.28621-3.46069-1.04755-7.57108a27.09321,27.09321,0,0,0-1.49832-9.00321,49.34524,49.34524,0,0,1-2.26731-4.548,2.01288,2.01288,0,0,1-.14592-1.37895c.34476-1.44531,2.83754-1.85635,3.832-2.54579a5.57608,5.57608,0,0,0,1.6707-2.3204.71732.71732,0,0,0,.03981-.25193V112.057c0-.11937-.07955-.21211-.09282-.33148-.05309-.22539.02646-.57015,0-.83535a.65808.65808,0,0,1,.02646-.22539c.87517-2.705,1.79007-5.09166-.79553-6.44406-1.06074-.57023-2.47951-.80889-2.41323-1.86963.02655-.8088,1.06074-1.11374,1.684-1.52478a10.72774,10.72774,0,0,0,3.65961-3.56679c.3845-.663.3845-2.41323.86182-2.86408a9.86256,9.86256,0,0,1,1.84308-.92818c1.94909-1.00773,3.87173-1.6707,5.622-2.67835,4.70708-2.6917,9.812-7.86283,13.44508-11.602a42.94,42.94,0,0,0,5.98-7.53134c1.06074-1.93591,2.00219-6.65626,2.12148-9.20205.03982-.61.18565-2.63869.17238-2.74471C234.99915,59.60273,234.99915,59.49663,234.94614,59.49663ZM119.536,63.15625a19.31926,19.31926,0,0,1,4.42869-3.31486,2.20239,2.20239,0,0,0,.31821-.22539c-.13256,1.11375-.19892,2.13475-.27848,2.61207-.5436.19893-1.4585.51714-2.4.8619-.58342.19884-1.32594.663-2.16129.88836C118.79351,64.15071,119.25764,63.501,119.536,63.15625Zm2.78453,15.2086a6.20061,6.20061,0,0,1-1.021-1.021,10.2075,10.2075,0,0,1-2.50605-4.70708c-.91491-3.56679-1.89609-2.85081.305-5.03865a8.821,8.821,0,0,1,2.38668-1.67062,12.828,12.828,0,0,1,2.04192-.90163,3.59642,3.59642,0,0,1,.54368-.13264c.03974.3713.07956.92818.09283,1.57788.358,5.87391,1.32594,10.42189,3.76563,14.74447A50.52516,50.52516,0,0,1,122.32056,78.36485ZM187.11938,100.455c.411.25194,1.39222.50387,1.72371-.18565.18565-.47732-.47732-.67624-.70271-1.074.01319-.78226.34467-1.074,1.0872-1.10055.62323,0,1.00773.11937,1.45859-.45078a.84748.84748,0,0,1-.14584,1.36568l-.23874.2122a1.01171,1.01171,0,0,0-.411.79553c.411.25193.68952.968,1.28621.87517.43758-.19893.76907.13256.84862-.33149.11929-.54368,1.9491.7558,1.32594.84854-.61.09283-.87516-.33148-1.45858.05309a1.80169,1.80169,0,0,1-2.06847-.13264c-1.14029,1.29948-2.71817-.30494-4.28277.25193a.44021.44021,0,0,0-.33148.15911l-.30495.27848a.83486.83486,0,0,1-1.06081.21219C184.53377,100.94562,185.85971,100.76,187.11938,100.455Zm-9.59982-4.296a6.762,6.762,0,0,1,2.79772,1.08729l.92818.67624v.01319c.35795.45086,1.10047,1.432.25193,2.16129a2.14443,2.14443,0,0,1-1.85635.19893c.03982.94145-1.81654.92817-1.27293-.30494a.82034.82034,0,0,1,.2652-.14592,2.75113,2.75113,0,0,1-.42431-.25193,14.0287,14.0287,0,0,0-1.57788-1.00765,3.4314,3.4314,0,0,0-2.62534.50378c.42431-1.15356,2.12148-1.40549,3.14248-1.63088-.464-.76907-2.13475-.37122-2.73144-.29167-1.021.46405-1.6707.57015-2.28058,1.56461l-.29175-.17238C173.35608,96.75567,174.881,95.801,177.51956,96.159Zm2.08174,38.05458h-.13264a.67477.67477,0,0,1-.11929-.01328,1.07563,1.07563,0,0,1-.13264-.11937.55706.55706,0,0,1-.11929-.18565c-.01327-.03973-.22547-.23866-.23866-.38449v-.01327a.651.651,0,0,1,.053-.15911v-.02647s.01327-.76906.22538-.95472a2.07261,2.07261,0,0,1,.82208-.2652c.06628,0,.34476.2652.38458.305.07955.053.03973.053.03973.07955,0,.19885-.5436.86182-.57014,1.127-.02655.13257-.03982.26521-.053.37131-.03982.106-.03982.14583-.05309.1591C179.68086,134.16047,179.7736,134.16047,179.6013,134.21356Zm-2.13483-2.47951a.42608.42608,0,0,1-.11929.06628h-.18565c-.02654-.02654-.06628,0-.14583-.05309a1.50909,1.50909,0,0,1-.18565-.21211h.01327a3.81669,3.81669,0,0,1-.13264-.411,3.53655,3.53655,0,0,1-.33149-.84863v-.03973a3.05983,3.05983,0,0,0,.05309-.37131h.01327a.013.013,0,0,0,.01319-.01327.04857.04857,0,0,1,.01328-.03973.37377.37377,0,0,0,.05309-.14584,3.65215,3.65215,0,0,0,.21211-.45085,3.62537,3.62537,0,0,1,.50387-.91491,1.50345,1.50345,0,0,1,.38449-.34476.66081.66081,0,0,1,.411-.1591.24365.24365,0,0,1,.19892.06628c.03982.06628.03982.07955.03982.1061,0,.38449-.57023,1.63088-.71606,2.50605-.07955.63642-.06628,1.14029-.09283,1.20657C177.46647,131.69423,177.493,131.681,177.46647,131.73405Zm.05309-27.55313a11.46175,11.46175,0,0,1-1.84308-.31821c-.1591-.053-1.52486-1.2994-1.021-1.326a6.18593,6.18593,0,0,1,1.16684.25194c1.15356.17238,2.74471.22538,3.421-.25194C178.819,103.08037,178.59357,104.04836,177.51956,104.18092Zm-3.54032-3.48724c.90171-.464,2.36021-1.69716,3.18229-.5436C175.96815,100.07053,174.53619,102.55,173.97924,100.69368Zm-3.31486,5.22422a4.46776,4.46776,0,0,1,.663,2.06847,1.27672,1.27672,0,0,1-.18557.38449,11.60353,11.60353,0,0,1,1.4055,1.86963l-.305.02654a3.29913,3.29913,0,0,0-1.28613-.663l.02655.21212c.35794.411.53032.94145.86181,1.36576.47732.60988,1.41877.95464,1.72371,1.68389l-.30494.01327a6.65273,6.65273,0,0,0-1.98892-1.04746l.01328.411c.03973.03974.053.09283.09282.13257.01327.01327.03974.01327.06628.02654l.03974.14584c.06636.11937.15919.21219.22547.33148a2.75613,2.75613,0,0,1,.13256.43759,2.45653,2.45653,0,0,0,.43758.27839c0,.02655,0,.02655.01328.03982l2.30712,1.04746a2.21,2.21,0,0,1,.59669.51714c-.10609.03982-.21219.06628-.305.1061.38458.14583.58342.34476.88844.47732.11929.17238.22539.30494.358.46405a2.22416,2.22416,0,0,0-.49059-.07956,10.78,10.78,0,0,1-1.27285-.25193c-2.21439-.90163-5.09166-2.811-5.19776-6.43079a3.71543,3.71543,0,0,0,.07956-2.148l-.02647-.053A8.96739,8.96739,0,0,1,170.66438,105.9179Zm4.243,22.92552c.06629.33149.14584,1.21993-.07955,1.39231-.19884.19884-.39777.358-.39777.358-.01327.01327-.053.03981-.053.05309a6.25164,6.25164,0,0,0-.22547.63642,2.70152,2.70152,0,0,0,.27847,1.00773c.18566.31822-.13256,1.021-.22538,1.24639a9.3153,9.3153,0,0,0-.31822,1.074c-.01327.18565-.14591.23866-.25193.13256s-.23874-.1591-.25193-.09282a2.36087,2.36087,0,0,0-.34476.63651c-.06628.17238-.46413.88836-.54368,1.08728a7.27321,7.27321,0,0,1-.37122,1.03419c-.06628.15911-.2122.54368-.305.57015a1.107,1.107,0,0,0-.17229.03982h-.02655c-.02654,0-.03982.01327-.053.01327a8.46907,8.46907,0,0,1-.88844.94137c-.9149.58341,0-2.24085,0-2.24085a5.75028,5.75028,0,0,0,.4906-.83535c.03981-.15911.21219-.62316.2652-.769a2.27763,2.27763,0,0,1,.3713-.54368,1.81347,1.81347,0,0,1,.21212-.02655c.02654,0,.053.01328.07955.01328h.053c.02655-.01328,1.29948-.54361,1.39231-.88836a5.93453,5.93453,0,0,0-.305-1.72371c-.053-.25194-.29167-1.14029-.30494-1.379a3.575,3.575,0,0,1,.33149-1.49824c.21211-.305.411-.02654.45085-.07955a.08857.08857,0,0,0,0-.15919c-.03981-.02646-.18565-.72925-.21219-.74252-.053-.02647.21219-.3845.29175-.75572a3.82149,3.82149,0,0,1,1.11374-1.379c.26521-.15911.4906-.13256.54369.03982.06628.17238-.37131.87508-.411,1.127A7.85434,7.85434,0,0,0,174.90741,128.84342Zm-7.08048,2.93037h-.11938a.60794.60794,0,0,1-.13256-.01328.75543.75543,0,0,1-.14591-.14583,1.82564,1.82564,0,0,1-.106-.18565c-.01327-.053-.23866-.26521-.25193-.42431v-.0132l.053-.18565c0-.01327.02654-.82207.22538-1.00773a.85471.85471,0,0,1,.54369-.29175,2.989,2.989,0,0,1,.38449.305c.06628.07955.33149.07955.33149.106,0,.19893-.53033.91491-.58342,1.18011a3.0913,3.0913,0,0,1-.03974.411.64276.64276,0,0,1-.05309.18565C167.91975,131.69423,167.9993,131.72078,167.82693,131.77379Zm.67616-4.11039v.06628c0,.14583,0,.25193-.106.34475l-.03982.03974h-.053c-.11938.01327-.14584-.03974-.15911-.053a.06892.06892,0,0,1-.02655-.053c-.02654,0-.03973-.03981-.06628-.07963-.02654-.09275-.06628-.18557-.09282-.30494a4.17216,4.17216,0,0,1-.19893-.67625c-.03973-.29166-.07955-.62315-.09274-.86181v-.13264a.55226.55226,0,0,1,.106-.23866c.09282-.09283.18565-.21212.305-.358.23866-.27848.79553-.64978,1.127-1.04755a3.70346,3.70346,0,0,0,.92817-1.52478s1.15357-.46413.91491.01319c-.07956.21219.06628.14591.06628.23874-.01328.27839-.01328.63642-.01328.769,0,.19892-.01327.46413-.29166.557-.17238.053-.411.26512-.58342.2784h-.11937a1.00422,1.00422,0,0,1-.21212-.01328.02854.02854,0,0,1-.02654.02655c-.02655.02654-.09283.358-.13256.42431-.13265.11929-.29175.55687-.46413.74253a3.00913,3.00913,0,0,0-.663.99445A5.50567,5.50567,0,0,0,168.50309,127.6634Zm.21219-7.664a5.20464,5.20464,0,0,1,.01328-1.81654c.21211-.31821.68943-.88836.68943-.8088,0,.09282.42431,3.63307-.23866,4.11039-1.80326,1.32594-1.25958-.42431-1.24639-.42431.45086-.37123.67625-.663.72934-.67617s.106-.07963.07955-.11937A1.99041,1.99041,0,0,1,168.71528,119.99941Zm3.1823,6.97447a.99483.99483,0,0,1-1.35249-.38449,2.70706,2.70706,0,0,1,2.30713-1.81654.98159.98159,0,0,1,.02654.86181,1.5886,1.5886,0,0,1-.358.37131l-.30494.21211C171.83122,126.61585,171.85776,126.49656,171.89758,126.97388Zm-1.86963,4.85291a12.63681,12.63681,0,0,0,.50387-1.25958c.01327-.14591.1061-.6365.13256-.79561.02655-.14584.09283-.39777.1061-.46405a3.265,3.265,0,0,1,.50386-.82208c.17238-.13264.27848.07956.27848.18566,0,.11928.15911,1.60433.13256,2.1082-.03973.53041-.09282.98118-.1061,1.00773a2.39767,2.39767,0,0,1-.26512.33148,1.82248,1.82248,0,0,1-.27848.31822,16.15434,16.15434,0,0,1-1.41876.98118.79011.79011,0,0,1-.82208-.13256C168.67547,133.15274,169.81584,132.26438,170.028,131.82679Zm-5.05183-37.37833c.09282-.26512.67624-.45077.84862-.464,1.737-.33149,4.61425.50386,3.65961,2.16129,0,0-1.51159,1.021-1.59114,1.03427,0,0-.68952-.27847-.83535-.3713-.411-.27848-.76907-.92817-1.03428-1.127l-.01319-.01327C165.75846,95.45619,164.71091,95.28382,164.97612,94.44846Zm1.41876,7.70381c.03974-.13264,1.18011-.557,1.127-1.021-.03973,0-1.48505-1.24639-1.59106-1.24639-.23874.13256-.13265,2.1082-.8619,1.61761-.02654-.01319.02655-.63643,0-.7558-.01327-.1723-.47732-1.89609-.84862-1.77671-.37122.09282.09282,1.23311-.358,1.39222-1.03419.38449-.70271-2.36014-1.33914-2.43969-.305.053-.03981.68943-.2652.83527-.17238.4774-.68952.78234-.96791.58342-.43759-.34468-.03982-2.3204-.26521-2.453-.54368-.30495-.46413,2.01545-.83535,2.08174-.34476.053-.663-2.08174-.7558-2.28067-.19892-.411-1.27293-1.67062-1.51159-1.48505-.43758.305.23866,1.24639.29175,1.4055.21212.64978.22539,1.25966.37122,1.69724.59669,1.55133,1.85635,2.58561,2.36022,4.04411.42431,1.28621-.02655,1.92264,1.39222,1.97564.94145.05309,2.95683-.72925,3.39441-.106.27848.39776-.42431,1.97564-.6497,2.06846a7.82433,7.82433,0,0,1-1.60442-.07955c-1.4585-.19892-3.832-.80888-4.52143-1.52486-.4774-.4906-.46412-1.24639-.84862-2.33368-.54368-1.60442-1.84308-4.21649-2.25412-5.92692-.09282-.39785,0-.78234-.09282-1.14037-.106-.42424-1.127-2.71817-.7558-3.19549a3.99019,3.99019,0,0,1,1.69725,0c2.3204.55687,4.32258,2.36013,6.11257,3.76571.663.49059,1.20666,1.127,1.80327,1.51152a8.159,8.159,0,0,1,2.16129,1.485c.09282.14592.06628.46413.15911.57015.64978.62324,1.44531.57023,1.72379,1.79007.25193.26521.01319.83535-.2122.94145-.29167.11929-.51714,1.44523-1.021,1.49824C167.23023,103.69033,166.143,102.92126,166.39488,102.15227ZM162.4436,184.533c.06628.13264.63643.19892.63643.25193.053.17238-.25193.18565-.53041.46413-.18557-.03982-.31822.21211-.46405.21211-.3713,0-.11937-.11928-.3713.305l-.19885.31821a2.20936,2.20936,0,0,1-.82207.78226l-.01328.05309-.06628.09283a.38613.38613,0,0,1,.02647.11929,1.03536,1.03536,0,0,1-.80881.99445c-.06628-.11929.07955-.49059-.1061-.49059h-.02646a.76043.76043,0,0,1-.15911.01327H159.5l-.22539.01328H159.248l-.02654.03973c-.67616.53041-1.15357,1.27294-1.81654,1.737l-.07955.05309a2.05208,2.05208,0,0,1-.053-.39784,2.10389,2.10389,0,0,1,.49059-1.41869c.68952-.968,2.25412-.38458,2.4-1.96245l.01327.01327C161.46234,185.03688,160.91873,184.62584,162.4436,184.533Zm-7.79655,13.25943-.05309-.42423a.81794.81794,0,0,1-.03973-.23875.48471.48471,0,0,1,.22538-.47732,5.90932,5.90932,0,0,0,1.432.2122,1.39163,1.39163,0,0,0,.76907-.15911,2.70405,2.70405,0,0,0,.95464-.86189l.17238-.30494a1.75089,1.75089,0,0,1,1.2994-.92818l.03982-.01327.22538.716-.33148.25193a2.33479,2.33479,0,0,0-.43758.38458,1.87287,1.87287,0,0,0-.51706,1.04746v.01328c-.3713.62315-1.33922.78226-2.10829.99445a.463.463,0,0,0-.42431-.21219,1.78941,1.78941,0,0,1-.25193-.0132l-.21211.0132-.06629-.0132-.21219.2784a.41374.41374,0,0,1-.26521.14584.54593.54593,0,0,1-.19884-.053A1.60377,1.60377,0,0,0,154.64705,197.79245Zm1.82981,2.83753.03973-.03973v-.1061c-.03973-.39777.26521-.57015.6497-.78234a1.02485,1.02485,0,0,0,.411-.15911,2.08536,2.08536,0,0,0,1.18011.50387c.43758,0,.76907-.31822.96791-.86182a.69638.69638,0,0,1,.37131.58342c.01327.19884-.07956.19884-.15911.51706a.85251.85251,0,0,1-.70279.21219c-.2784.02647-.58342.22539-.90163.23866a.90275.90275,0,0,0-.92818.53041l-.07955.72925c-.42431-.1591-1.03419-.61-1.02092-.95472A.56549.56549,0,0,1,156.47686,200.63Zm2.13475,2.54579c.06628-.22539.23866-.14583.38449-.34468.54368-.17238.88836.11929,1.39222.30494-.053,1.27294-1.11374.19893-1.538.57015l-.17238.17238C158.50551,203.52053,158.4525,203.5338,158.61161,203.17577Zm.82207-11.69474-.63642,1.14029v.02654c-1.5116.31822-2.453.72926-2.811,2.10821-.51714.02654-.70279.3713-.95472.59669a.97517.97517,0,0,1-.67625.29167,1.15555,1.15555,0,0,1-.58342-.2784,8.01193,8.01193,0,0,0,1.97565-2.65189,6.20773,6.20773,0,0,1,2.73143-1.27293c.13265,0,.25194-.26521.411-.22539l.09283.01327.05309-.05309c.4375-.34475.09282-.74252.57014-.74252l.80881-.02646a3.94068,3.94068,0,0,0,.90163-.15919C160.75963,191.176,160.82591,191.14954,159.43368,191.481Zm-7.54461,2.453-1.10056-.18565a3.65683,3.65683,0,0,1,1.4055-3.11594,6.84473,6.84473,0,0,0,.71606.03974c.95464-.01319,1.33913-.411,2.24085-.95464a2.43267,2.43267,0,0,1,.38449-.053,1.19673,1.19673,0,0,1,.90163.34468c-.90163,1.11383-1.60442,1.19338-3.0762,1.80334,0,0-1.61761.35795-1.55133,1.48505Zm7.38551-10.31588a1.59587,1.59587,0,0,0,.1061.557c-1.1271.13256-1.14038-.3713-2.01546.35795l-.053.02654-.11937.83535-.14584.15911a1.447,1.447,0,0,0-.62323-.15911,1.14035,1.14035,0,0,0-1.127.78235,4.85573,4.85573,0,0,1-2.57233,2.4795c-.95472-.07955-1.93591-1.00773-2.73144-1.1271l-.43758-.27839a.40848.40848,0,0,0-.01328-.13265c-.03973-.50386.6497-.6497,1.16684-1.23311a1.29028,1.29028,0,0,0,.305-.74253,1.1003,1.1003,0,0,0-.33148-.6497,1.58216,1.58216,0,0,1,.39776-.358,5.57144,5.57144,0,0,0,1.074-.86181l.03974-.03982-.053-1.06074c1.27293-.75579,1.59115-2.506,3.10266-2.4795a.69963.69963,0,0,1,.17238.01327h.02654l.03982-.01327c.5436-.22539.63643-.8619.68944-1.27294l.06628-.55687c.1061-.67624.27847-.88836.557-.88836a2.241,2.241,0,0,1,.86182.33149,4.57937,4.57937,0,0,0-.84855,2.16129,1.36453,1.36453,0,0,0,.54361,1.02092v.23866c0,.29175-.02655.34476-.30495.4774a.75476.75476,0,0,0-.29175-.2122l-.21211-.10609a1.04079,1.04079,0,0,1-.3713-.23866l-.053-.07956-.09283.01328a2.46467,2.46467,0,0,0-1.97564,1.379,8.54791,8.54791,0,0,1-1.76353,2.98337l-.06628.06636.053.09283a.94.94,0,0,1,.05309.31821,2.14192,2.14192,0,0,1-.54368,1.20657.55582.55582,0,0,0-.15911.31821.47507.47507,0,0,0,.05309.14592.89073.89073,0,0,0,.63643.26512,1.17405,1.17405,0,0,0,.79553-.37122c.91491-.87517,1.4055-.8088,1.57788-1.94918.05309-.27839.8088-.53033,1.24639-1.074l.27847-.38449a1.50381,1.50381,0,0,1,1.18011-.76907,1.42963,1.42963,0,0,1,.45078.05309l.1061.03974.06628-.09283c.75579-1.18011-.37123-1.15356,1.04746-1.737l.11937-.03974-.03981-.11937v-.09282a3.23541,3.23541,0,0,1,.45085-1.4055.23926.23926,0,0,0,.13256-.02646,1.07164,1.07164,0,0,1,.71606.39776C160.38832,181.43036,159.22149,181.89441,159.27458,183.61811Zm-11.191-3.80544-.07956-.053-1.33921.74252a1.03736,1.03736,0,0,0,.053-.34476.7972.7972,0,0,0-.30494-.58341,1.9542,1.9542,0,0,1,1.53806-.68944,4.24737,4.24737,0,0,1,.67624.03974l.78234.13264c.25193.01319.49059.03974.716.03974a1.28037,1.28037,0,0,0,1.33922-1.15357l.01327-.053-.02655-.05309a2.274,2.274,0,0,1-.17238-.68943c-.06628-1.08728,1.16684-1.55141,2.21439-2.28066a2.20417,2.20417,0,0,0,.67616-.78227l.05309-.13264-.13264-.07955a9.06456,9.06456,0,0,0-2.22758-1.14029l-.14583-.02655-.053.09283a1.29041,1.29041,0,0,1-.79561.59669l-.33149.1061c-.15911.053-.31821.14583-.31821.33148.06628.33149.34475.4375.31821.55688a.12655.12655,0,0,1-.02646.09282,9.24646,9.24646,0,0,1-2.94364,2.17449.56964.56964,0,0,1-.01327-.06629c-.06628-.82207.82208-3.68607,2.51932-4.52142.49059-.33149.61-1.00773.86182-.94145a.75911.75911,0,0,1,.43758.21219l.06628.03974h.07955a1.37186,1.37186,0,0,1,.29175-.053c.663-.03982,1.31267.58342,2.21431.59669a1.99931,1.99931,0,0,0,1.2862-.54368c.17238-.03974.31822.06628.411-.17238l.106-.17238c.1061-.27839.19892-.31821.31829-.31821a.902.902,0,0,1,.51706.30494.88445.88445,0,0,1,.15911.45086,1.36575,1.36575,0,0,1-.37123.88835l-.33148.19893a1.97605,1.97605,0,0,0-.59669,1.33921,1.54205,1.54205,0,0,0,.19892.716c-1.03427.80881-2.63861,1.85636-2.98337,3.19557l-.02654.07955.06628.06628a1.29144,1.29144,0,0,1,.29175.63643c.06628.62324-1.04755,1.11383-1.81654,1.39222a.89315.89315,0,0,0-.72933.305l-.31822.18557a1.61308,1.61308,0,0,1-.2652.13264l-.09275.03974-.01327.09282a3.0254,3.0254,0,0,0-.05309.663c.01328.14584.03982.305.03982.43759h.01327c0,.411,0,.67624-.79561,1.06074a1.95793,1.95793,0,0,1-.30494-.98119v-.84862A1.44521,1.44521,0,0,0,148.08362,179.81267Zm-13.40526,22.35545-.33149.03974a.367.367,0,0,0-.11937-.01327h-.39777a.77975.77975,0,0,0-.6497.33148l-.22546-.15911-.2784-.17237a1.04361,1.04361,0,0,1-.02654-.26513c-.02655-.358.1591-.43758.64969-.67624l.38458-.19893a2.099,2.099,0,0,0,1.25958-1.14029c.305.01328.87517.13257.98127.411a1.5858,1.5858,0,0,1,.09274.358C136.09712,201.293,135.06285,201.41232,134.67836,202.16812Zm1.40549-3.46077c.47732-.80881,1.80327-1.65743,2.7049-.47732-.358,1.24639-1.36568.82208-1.80327,1.41877C136.30924,199.62225,136.13686,199.2643,136.08385,198.70735Zm.84854-2.95683c.358.06628.45086.11937.76907-.10609.17238-.13257.37131-.30495.53041-.411.62316-.43751,1.074-.2784,1.55133.43758a.98372.98372,0,0,1-.2652.68952,2.00091,2.00091,0,0,0-.53033.59669,8.94393,8.94393,0,0,0-1.1271-.17238C137.15786,196.71844,137.012,196.37376,136.93239,195.75052Zm1.84308,8.91038a1.53864,1.53864,0,0,0,.57015.67616c.25193.13265.34476.15911.59669.305l-.11929.30494c-.78234.053-1.684.49059-2.20111-.358C137.27715,205.0454,138.07277,204.60781,138.77547,204.6609Zm.53041-1.48513-.22538.18565c-.2122-.4375-.305-.68943-.09283-1.10047a2.78091,2.78091,0,0,1,.47732-.68952c.74252-.23866,1.20657.1061,1.84308.30494C141.22852,203.335,139.8893,202.71172,139.30588,203.17577Zm5.99321-25.28566a1.33931,1.33931,0,0,1-.39777.99446,1.64,1.64,0,0,1-.50386.18557l-.37122.05309c-.54369.19884-.45086.07955-.6497.63643-.76907-.11937-.968-.59669-1.021-1.21985A2.39792,2.39792,0,0,1,145.29909,177.89011Zm-1.10047-3.9911a3.36641,3.36641,0,0,1,1.074-2.63861c.02646-.03982.053-.05309.11929-.05309a1.05161,1.05161,0,0,1,.51713.23866l.01327.42431a3.12481,3.12481,0,0,1-.42431,1.31267v.01327c-.39776.7558-.7027.54369-.75579,1.432l-.34476.34475A2.13354,2.13354,0,0,1,144.19862,173.899Zm-.57015,20.19409-.02654-.43759a1.77525,1.77525,0,0,1-.02655-.63643c.06628-.39776.31821-.59669,1.1271-.68951l.49059.61a1.295,1.295,0,0,0-.62323.98119c-.03974.31821-.02647.67624-.053,1.021-.01327.07955-.01327.1591-.02655.21211-.11929.57015-.23866.63651-.5436.59669a2.63092,2.63092,0,0,1-.9149-.45077.82946.82946,0,0,0,.60988-.70279h.01327v-.03982l.01328-.06628A.81987.81987,0,0,0,143.62847,194.0931Zm-1.21993,2.65188c.06637.6497-.83535.9149-1.60433,1.24639l-.19893.01327h-.09282c-.31822-.01327-.3845-.02654-.51714-.23866.43758-.07955.45085-.358.67624-.76907l.18565-.29167.17238-.18565c.23866-.358.43759-.305.716-.305a1.21335,1.21335,0,0,1,.58342.17238A.9763.9763,0,0,1,142.40854,196.745Zm-1.88281-12.96768-.22539.02647a.77761.77761,0,0,1-.1061-1.074c.68952-.053,1.44532-.4906,1.92264.10609C142.5942,183.93641,140.80421,183.459,140.52573,183.7773Zm1.4585,8.88375a4.23854,4.23854,0,0,1-.1591.71607c-.18557.106.01327.19884-.17238.35794-.37122.23875-.53033.39785-.80881.38458-.30494,0-.5436-.14583-.716-.7558a1.02113,1.02113,0,0,0,.42431-1.19338l-.02654-.06628-.053-.02654c-.53041-.23866-.68952-.42423-.68952-.68944a.98347.98347,0,0,1,.07956-.51714c.54368-.38449.42431-.39776.92817-.29175l.464.09283C142.24944,190.84452,141.9445,191.786,141.98423,192.66105Zm-1.2994,7.42533-.43758-.38457c.74253-1.15357,1.76353-.67617,2.95691-.87509.39777.31821.5436.45086.39777.88836C142.687,200.05984,141.74557,200.6698,140.68483,200.08638Zm2.49278,1.47178v.01327c.87517-.03982,1.27294-.88836,2.30713-.49059a1.72453,1.72453,0,0,1-.50386,1.51159l-.15911.11929c-.2784-.30494-.37122-.2652-.84862-.33148-.663-.02655-.84854-.25194-1.074-.80881Zm1.5116-3.73917c-.23866-1.80326.88836-1.20657,2.00218-1.84308,0,0,.57015-.49059.95464-.22539a1.62915,1.62915,0,0,1,.51714.87517l.053.55687a.84416.84416,0,0,1-.92818-.03981l-.23866-.19885C146.22727,197.31513,145.75,198.33613,144.68921,197.819Zm14.70466-23.24373c-.33149.21211-.22539.34467-.37122.51705-.30495.411-.53041.53041-.76907.53041-.29167.02655-.663-.23866-1.08729-.58342a.76737.76737,0,0,0,.305-.25193,1.47228,1.47228,0,0,1,.26512-.43758,2.29589,2.29589,0,0,1,1.29948-.95464,1.06136,1.06136,0,0,1,.55687.22539l.21212.21219c.10609.09275.22547.15911.33148.25193A3.43125,3.43125,0,0,0,159.39387,174.57526Zm.21219-7.91592c.11929.07955.21212.17238.33149.25193a3.79225,3.79225,0,0,0-.74253.49059c-.33148.2122-.22538.34476-.358.51714-.31821.411-.5436.5436-.76907.5436a2.22611,2.22611,0,0,1-1.10047-.58342.61939.61939,0,0,0,.30494-.26512,1.322,1.322,0,0,1,.26521-.411,2.23261,2.23261,0,0,1,1.29939-.968.92682.92682,0,0,1,.54369.22547Zm-1.9359-3.64635a1.47811,1.47811,0,0,1,1.44531-.21211l.21212.06628a6.29456,6.29456,0,0,0-.4906.67624.30165.30165,0,0,0,.053.46405c-.663.18565-.62315.358-1.20657.26521-.13256-.03982-.23866-.06629-.358-.09283l-.2784-.09283C156.59615,163.74225,157.405,163.41076,157.67016,163.013Zm-.7558-2.49278a1.44814,1.44814,0,0,1-.464,1.04755,2.24416,2.24416,0,0,1-.57014.19884l-.42431.05309c-.59669.21212-.50387.11929-.72926.67617h-.01327c-.87517-.11929-1.074-.62316-1.15356-1.27286A2.86588,2.86588,0,0,1,156.91436,160.52021Zm-3.885,2.61215c.1061,0,.22539.01328.358.02647.01327.01327.13256.03982.23866.07955.11937.05309.17238.11937.17238.18565.01327.01328,0,.01328,0,.02655.02654.17238-.53041.75579-1.14029,1.23311-.59669.51714-1.20666.92818-1.326,1.31267a.49692.49692,0,0,0-.01327.14584c.09283.54368.78226.71606,1.127.74252a.26628.26628,0,0,0,.17238-.053c1.16684-.6497,1.81653-1.93591,3.00992-1.93591a2.0994,2.0994,0,0,1,.7027.13264c-.01319.7558-.02646,1.432-.88836,1.52479-1.59114.411-1.92263.45085-2.63861,1.85635l-.06628.15911.14583.07955a1.40033,1.40033,0,0,0,.716.2122,2.19339,2.19339,0,0,0,.95473-.34476,1.47854,1.47854,0,0,1,.716-.18565,2.05264,2.05264,0,0,1,.70278.11937,2.4668,2.4668,0,0,1-2.38676,1.72371,4.086,4.086,0,0,1-.86181-.07956c-.45086-.05309-2.12156-.663-2.18784-1.1271l.02654-.03973-.02654-.05309-.09283-.35795c-.02646-.07955-.03973-.15911-.06628-.22547-.053-.03974.01328-.106-.18565-.19884h-.053l-.053.02654c-.49059.29167-.64969.84854-1.06073.88836-1.15365.34476-2.73152.98119-2.73152.98119l-.37123-.31822a9.68929,9.68929,0,0,1,.70271-.67624l.59669-.358c.19893-.18557.71606-.25193.7558-.716v-.06628c-.06628-.18565.19892-.03982.18565-.17238a1.73,1.73,0,0,1,.19893-.7558l.50378-.46405a8.95671,8.95671,0,0,0,.2652-.86189,16.85541,16.85541,0,0,0,2.25412-1.15357c.25193-.02654.358-.22538.50387-.46412l.25193-.31822A1.23164,1.23164,0,0,1,153.02936,163.13236Zm-11.191,1.04747c-.07955-2.06847.6497-2.04192,1.92263-2.25412,1.24639-.14583,2.77126-.09282,3.23531-1.51159.09282-.33149,1.074.43758,1.31267.42431a.80024.80024,0,0,0,.54368-.57015l-.39785-.94136a1.124,1.124,0,0,0,.18565-.68952c.01327-.23866.01327-.11937.39777-.3845.14591-.05308.02654-.61.38457-.61h.18557l.02655-.01327a2.0188,2.0188,0,0,0,.70279-.76907,2.388,2.388,0,0,0,.26512-.23866h.49067c.9281.03982,1.18.33149,1.1933.68952.02655.22538-.11929.27847-.37122.58341a.81272.81272,0,0,1-.74252.43759l-.54368.31821a.49493.49493,0,0,0-.54361.33149l-.02654.06628.03982.053a4.08286,4.08286,0,0,1,.45077,2.148c0,.06636,0,.11937-.02654.14591a2.04688,2.04688,0,0,1-.74253.82208.639.639,0,0,0-.19884.38449l-1.84308,1.63089-.1061.11937c-1.03419,1.074-.59661,3.1292-2.39995,3.39441h-.02646l-.02655.02654a7.43932,7.43932,0,0,1-2.17457,1.04747h-.053v-.053c-.05309-.2122.57014-1.03427,1.20657-1.69724a11.26993,11.26993,0,0,1,1.021-1.021,2.30967,2.30967,0,0,0,.26521-.98118l.39776-.411c1.16684-.38449,1.19338-1.00773,1.49832-1.97564l.053-.11929-.1061-.07955c-.11929-.06637-.29166-.34476-.6497-.34476a.669.669,0,0,0-.39776.14583c-.61.45078-1.32594,1.18011-1.6707,1.14029a.14471.14471,0,0,1-.13256-.02654c-.29175-.19884-.03982-.53033-.2122-.55688-.13256.02655-.06628.02655-.13256.02655h-.49059l-.02655.02654c-.716.72926-.60988,1.28613-1.71044,1.2994h-.02654Zm1.379.78234a1.53455,1.53455,0,0,1,.26512.01319c.01328-.01319.02655,0,.06637,0h.053c.02654-.02646,0-.02646.1591.23874-.33148,1.04747-.8088,1.25958-1.79,1.52479-.17238.05309-.305.1061-.43758.13264l-.053.01319a3.2231,3.2231,0,0,0-.74253.63651h-.02654v.01327s-.05309-.03981-.11937-.07955c0,0-.02646,0-.02646-.03982C140.75112,166.38086,142.223,165.54559,143.21743,164.96217Zm-4.19,15.20853c.10609-.03974.19892-.03974.29175-.06628l.23866-.053c.45077-.05309.51713-.11937.53032-.51714.26521-.1061.78235-.11937.7558.38449l.11937.91491a2.28056,2.28056,0,0,1-2.30713-.09283A.71953.71953,0,0,1,139.02741,180.1707Zm-.11929,4.2563.23866.21212c.11929.09282.23866.18565.34476.27847-.37131.11929-.47741.34476-.79562.53033-.34476.2122-.23866.358-.39777.557-.33148.45077-.58341.58341-.82207.58341a2.314,2.314,0,0,1-1.20666-.6365.83075.83075,0,0,0,.358-.29167,1.05867,1.05867,0,0,1,.27848-.45086,2.35484,2.35484,0,0,1,1.39222-1.04746A1.098,1.098,0,0,1,138.90812,184.427Zm-.72934-10.32914a1.07246,1.07246,0,0,1-.34467.78234,1.39854,1.39854,0,0,1-.411.1591l-.29175.02655c-.45086.17238-.3845.07955-.5436.51706-.64978-.09275-.79562-.464-.83535-.96792A2.04993,2.04993,0,0,1,138.17878,174.09786Zm-2.04192,6.73581c.63643-.30494.98119-.07956,1.39222.54368l.18566.23866c-.23866.31821-.37131.62315-.59669.98118a1.02426,1.02426,0,0,0-.053.90164c-.67625-.03982-.663.27847-1.18011-.25194-.11929-.14583-.22539-.27847-.31821-.411l-.23866-.31821C134.9833,181.57619,135.81865,181.4569,136.13686,180.83367Zm-.58342,11.90694a2.05357,2.05357,0,0,0,1.33922-.47732l.1061-.11929-.45086-.358c-.25193-.2122-.358-.34476-.37122-.57015a1.81036,1.81036,0,0,1,.02646-.21219c.26521-.3845.7558-.17238,1.08728-.57015l.03982-.106-.05309-.06636a1.27743,1.27743,0,0,1-.14583-.49059,2.25434,2.25434,0,0,1,.38449-1.14029l.358-.57015c.14584-.02654,1.14029-.63642,1.27294-.63642l.716-.11938c.62323.01328.76907.06629.92817.72926v.02654c0,.33149-1.379.96791-1.71043,1.06074l-.46413.33149a.46629.46629,0,0,0-.464.45085,1.08405,1.08405,0,0,0-.38458.84854,2.47535,2.47535,0,0,0,.58342,1.18011,1.45216,1.45216,0,0,1,.31822.7558c.03981.39777-.34468.68952-1.32595.9149a1.1408,1.1408,0,0,0-.58333-.13256,1.79671,1.79671,0,0,0-.95472.33149c-.22539-.2122-.57015-.59669-.55688-.79562C135.2485,192.92626,135.26177,192.84671,135.55344,192.74061Zm-3.89827-8.55227a1.795,1.795,0,0,1,2.95682-.82208c-.17229,1.45851-1.52478,1.02092-2.04192,1.5778l-.47732.3713C131.73472,184.99715,132.30487,184.7054,131.65517,184.18834Zm2.3204-3.91155-.46405.053c-.70279.26521-.59669.11937-.84862.83535-1.021-.14583-1.25966-.76907-1.33922-1.57787V179.574a3.10936,3.10936,0,0,1,3.84527-.84855,1.83442,1.83442,0,0,1-.51714,1.2994A2.74226,2.74226,0,0,1,133.97557,180.27679Zm.053-4.72035c.06636,1.48505-1.60434,1.02092-2.58553,1.432l-.27847.11937c-.30495-.13256-.50387-.37122-.27848-.716A2.37625,2.37625,0,0,1,134.02858,175.55644Zm-2.58553-4.19a1.22324,1.22324,0,0,1,1.81654.18565c.02646.61-.3713.88836-.8619,1.18011a10.23785,10.23785,0,0,1-1.33921.50386l-.87509-.411A3.75412,3.75412,0,0,1,131.44305,171.36642Zm-4.16348,11.20423a.652.652,0,0,1-.34475-.95464,2.44149,2.44149,0,0,1,3.52705-1.074c.11929,1.97564-1.7768,1.32594-2.87736,1.89609v-.01327Zm.61-6.24522a1.03136,1.03136,0,0,1,1.60433.17238c.02655.557-.33148.82208-.74252,1.10055h-.01327a6.8138,6.8138,0,0,1-1.18.46413l-.78234-.41112A3.40021,3.40021,0,0,1,127.88954,176.32543ZM127.452,184.016a5.31176,5.31176,0,0,1-2.77125,2.42642,1.398,1.398,0,0,1-.33149.02654c-.51706.02655-1.4585.27848-1.96237.27848a1.319,1.319,0,0,0-.23866.02647l-.06628.01327-.02654.05309a7.332,7.332,0,0,1-.88836,1.33913l-.33149.22547a4.8778,4.8778,0,0,1-1.98891.55687,2.0971,2.0971,0,0,1-.82208-.11937,1.232,1.232,0,0,0-.82208-.39776,1.51919,1.51919,0,0,0-.71606.27847l-.39777.25194a2.88907,2.88907,0,0,1-1.074.33148,1.93406,1.93406,0,0,1-.29175-.03982h-.053l-.053.05309a1.12,1.12,0,0,1-.79562.34476c-.62315.01319-1.33921-.51714-2.05519-.51714a.408.408,0,0,0-.13257.01328h-.05308l-.02647.03973a4.066,4.066,0,0,1-2.453,1.074c-1.28613-.21211-1.89609-.25193-2.201-1.16683a1.4829,1.4829,0,0,0,.46405.07955.79239.79239,0,0,0,.58342-.34476c.33148-.37122.663-.68943,1.03427-.68943a1.014,1.014,0,0,1,.60988.19884l.06636.03982.06628-.01327c.411-.17238.716-.47732,1.074-.47732a1.75091,1.75091,0,0,1,.31822.053l.09282.07956.06628-.13256a2.52766,2.52766,0,0,1,2.2674-1.18011c.1591,0,.34475.19892.51705.22538l.968,1.11383.11928-.09282.01328.01327a2.02792,2.02792,0,0,1,1.41877-.53041c.5436-.01327,1.10055.13264,1.69724.11937a2.24412,2.24412,0,0,0,1.28613-.39777,15.15167,15.15167,0,0,1,6.66953-3.10274C126.70943,184.08224,127.452,184.016,127.452,184.016Zm-11.549-5.78117a1.22042,1.22042,0,0,1,.76907-.30494,1.42313,1.42313,0,0,1,.47732.07955c-.06628.30494-.84862,1.4055-1.40549,1.45859h-.01328c-.22538,0-.769-.11937-.90163-.38458l-.01327-.02646A8.63956,8.63956,0,0,0,115.903,178.23479Zm-1.3524-1.67062-.05309.053-.03974-.09283a.85517.85517,0,0,1-.05309-.25193,1.30215,1.30215,0,0,1,1.35249-1.23312,1.15283,1.15283,0,0,1,.83535.29167C116.56593,175.86138,115.31954,176.11331,114.55056,176.56417Zm2.49269,4.11039h.17238a.86486.86486,0,0,0,.26521.06628c.55687-.053,1.57787-1.59115,1.737-1.96237.29175.01327.39777.09283.50386.39777v.02654a2.4556,2.4556,0,0,1,.14584.59669c-.37122.54361-2.58553,1.28613-3.38114,2.3336a1.923,1.923,0,0,1-.70271.09282l-.02654.01327-.30494.15911a1.431,1.431,0,0,1-.15911-.55687C115.26654,181.12542,116.02233,180.70111,117.04325,180.67456Zm4.97229-.43758a2.03349,2.03349,0,0,1,1.25966.45085V180.9a3.47338,3.47338,0,0,1,.07955.4774c0,.15911.06628.26512-.25193.42423l-.21211-.06628c-.06629-.1061-.053-.17238-.25194-.17238-.01327,0-.03981.02654-.03981.02654-.09275,0-.18557.01328-.19885.01328l-.09282.01327-.78234,1.03419c-.6497,1.49832-2.46624,1.49832-4.01757,1.84308l-.78234-.58342c1.18011-.411,1.60442-1.77679,2.36022-2.28066h.18565l.01319.72933.02654.02647c.18566.07955-.10609.45085.15911.43758a.73358.73358,0,0,0,.23866-.02654l.11937-.03974.01327-.09282C119.97362,181.68229,121.23328,180.237,122.01554,180.237Zm-1.86955-2.57234v-.26512a20.1304,20.1304,0,0,1,2.4265-.58342,1.47886,1.47886,0,0,1,.83535.25194l.03974.02646a4.31882,4.31882,0,0,0-1.63088,1.684.79058.79058,0,0,0-.4906-.38449v.01319C120.557,178.16851,120.15927,178.2216,120.146,177.66464Zm5.06512,3.12929a.8017.8017,0,0,1-1.19339-.3713l-.1591-.30494.1591-.49059c.27848-.39785.23866-.14592.557-.358l.22539-.18565c.63642-.59669.7027-.7027,1.63088-.67624C126.80225,178.805,126.37794,180.4359,125.21111,180.79393Zm.33148-6.69607a.566.566,0,0,1,.7558.53041l.01327.31821c.01319.51714-.03982.98118-.557,1.24639-.22539-.053-.45078-.09283-.6497-.11929a1.97659,1.97659,0,0,0-.88836.03973l.07955-.29166.13256-.43759A1.99112,1.99112,0,0,1,125.54259,174.09786Zm-5.87392.09282a1.0822,1.0822,0,0,1,.2784.03982l.07955.03973.05309-.03973.14584-.06628c.1061-.07956.14583-.1061.22539-.1061.02654.01327.07955.01327.10609.02654a1.02429,1.02429,0,0,0,.18566.13257l.25193.18565a.4436.4436,0,0,1,.23866.33148v.106c-.63643.62324-2.18784,1.92263-3.08947,1.93591-.14584,0-.30494-.01328-.47732-.02655C117.91842,176.1,119.04544,174.16422,119.66867,174.19068Zm-4.906,10.13022a.79983.79983,0,0,0,.42431-.17238,1.336,1.336,0,0,1,1.31267.663c-.18565-.01328-.358-.02655-.47732-.02655a3.44473,3.44473,0,0,0-1.1271.26521,1.59851,1.59851,0,0,1-.6497.14583,1.27794,1.27794,0,0,1-.82207-.2784l-.1061-.10609-.106.07955a1.4529,1.4529,0,0,1-1.03427.358,3.23179,3.23179,0,0,1-.70271-.06628l-.71606-.09283a3.79955,3.79955,0,0,0-.50387-.03981.86476.86476,0,0,0-.6497.22538.82666.82666,0,0,0-.1591.63651,1.52767,1.52767,0,0,0,.03981.34476,16.8466,16.8466,0,0,1-2.7978,1.11375.51581.51581,0,0,0-.37122.22538l-.358.34476c-.25193.26521-.50386.50387-.70271.50387a.52415.52415,0,0,1-.27847-.106c0-.05309-.02655-.11937-.01328-.14592a1.20366,1.20366,0,0,1,.39777-.86181l.27848-.26521a1.248,1.248,0,0,0,.39776-.75579.82594.82594,0,0,0-.17237-.3845l-.06629-.10609-.50386.17237a1.12578,1.12578,0,0,1-.464.07956c-.27848,0-.358-.09283-.43758-.51714,1.127-.39777,1.65743-1.25966,2.70489-1.25966a3.42863,3.42863,0,0,1,.67625.07955,1.3746,1.3746,0,0,0,.95472.34476c.769-.02646,1.538-.47732,2.17456-.5436h.053l1.16684-1.1271a.54949.54949,0,0,0,.27839.22547l.06637.01319a.63619.63619,0,0,0,.26512-.106.78363.78363,0,0,1,.1061-.05309l-.01328-.01319.05309-.01327.03974-.03982a.53985.53985,0,0,1,.358-.09282.62081.62081,0,0,1,.29167.05309l.01327.01327a1.17757,1.17757,0,0,1,.58342.67616C114.29862,183.96287,114.37818,184.29436,114.76267,184.3209Zm-13.78984-3.75244c2.148-4.09711,4.81318-1.47177,7.65072-3.54024.06628-.01327.2652-.02655.43758-.03982h.01328l.23866.07964.11928.03973.05309-.11937c.411-.74252.23866-1.59107,1.06074-1.61761a1.00637,1.00637,0,0,1,.42431.03982h.03974l.305-.1061c.18557.053.29167-.29175.49059-.31821.42432-.03982.84855-.33149,1.1933-.37131.305-.053.39777.01328.411.06628.11937.26521-.92817.8619-1.79,1.19338-.45085.21212-.75579.42432-.72925.78227a.35091.35091,0,0,0,.11929.25193v.01327a.36208.36208,0,0,0,.305.09283c.33149-.053.78226-.358.95464-.358a.0411.0411,0,0,0,.01327.02654c.02655.25193-.13264.34476-.25193.49059l-.22539.305a2.41211,2.41211,0,0,1-1.61769,1.15357,1.60135,1.60135,0,0,1-.60988-.03982,1.068,1.068,0,0,0-.79561-.29167c-.59669.07956-1.00773.49059-1.55133.51706a1.17775,1.17775,0,0,1-.67625-.14584l-.06628-.03973-.07955.03973c-1.379.663-2.95691.99446-4.11047,2.29386l-.55688.27848v-.01328c-.38449-.06628-.79553-.38449-.8088-.5436A.14633.14633,0,0,1,100.97283,180.56846Zm-1.02092,2.91709c0-.01327.11929-.09282.411-.09282h.06628c.11929-.01327.27848.01327.42431.01327a2.72471,2.72471,0,0,0,1.4055-.34476,4.44424,4.44424,0,0,0,.78226-.55687l.72933-.61a3.27184,3.27184,0,0,1,2.0552-.90164,3.48924,3.48924,0,0,1,1.75025.50387l.053.01327.02655-.01327c1.61761-.1061,2.54578-1.72371,3.885-2.1082l.053-.01328.03981-.03981a1.03392,1.03392,0,0,1,.94137-.43759,3.99272,3.99272,0,0,1,1.39231.29175.89689.89689,0,0,1,.03973.22539.6573.6573,0,0,1-.27847.57014.618.618,0,0,0-.02647,1.03428,3.65646,3.65646,0,0,0-.51713.50386.59966.59966,0,0,1-.4906.29167.78636.78636,0,0,1-.27847-.053c-.2784-.14583-.30495-.39776-.33149-.68951a2.345,2.345,0,0,1-.01327-.30494c0-.17238-.07956-.51714-.411-.50387a.26207.26207,0,0,0-.14584.02655l-.09282.01319-.33149.58342a3.36867,3.36867,0,0,1-1.69716,1.25966,1.33208,1.33208,0,0,0-.72925-.26521c-.37131,0-.61.23874-.88844.57023l-.34476.358a.938.938,0,0,1-.59661.27848,1.23492,1.23492,0,0,1-.72933-.30494l-.02647-.03982h-.22547a2.4886,2.4886,0,0,0-1.52478.63643l-.39777.2652a2.307,2.307,0,0,1-1.20665.411,1.60768,1.60768,0,0,1-.23866-.01327h-.07956a1.13373,1.13373,0,0,0-.79553.72933l-.14591.33149a3.58794,3.58794,0,0,1-1.326,1.04746,6.29351,6.29351,0,0,1,.46413-1.36576.75512.75512,0,0,0,.053-.33148V184.427c-.09283-.6497-.79553-.80889-.70271-.9149Zm.98119,9.3877c-.57015.33149-.61.11929-.68952-.23866l-.01327-.01327a7.35043,7.35043,0,0,1-.26513-.72925l.50379-.47741a3.15365,3.15365,0,0,1,1.72379-.83535l.07955-.01319.053-.05309h-.01327a.756.756,0,0,1,.72925-.38449l.72933-.03982c.2784,0-.02654.57023-.03981.72934l-.1061.45077c-.09283.43758-.14584.25193-.411.54368a2.79084,2.79084,0,0,1-.67624.18557,2.66271,2.66271,0,0,0-1.25958.4906S101.33086,192.64786,100.9331,192.87325Zm-2.08174-3.26185.358-.1591a1.00445,1.00445,0,0,0,.30494-.19893,3.06531,3.06531,0,0,1,.72925-.75571h.02655c.75579-.74253,2.24084-2.4,2.36013-2.4.3713,0,.62324.18557.92818.63643l.1591.30494c-.55687,1.84308-2.71816,1.82981-4.08384,3.08947l-1.31275.25193C98.36076,189.996,98.38731,189.87661,98.85136,189.6114Zm1.20657,6.55016a.72792.72792,0,0,1-.34468.053H99.4215c-.25193-.09274-.30494-.19884-.30494-.22539a.33525.33525,0,0,1,.09283-.13256l.01319-.01327c.86189-1.00773.92818-1.432,2.28066-1.80326,0,0,.80881-.2122.95464-.26521,1.29948-.51714.22547.57015.23874.72925a2.536,2.536,0,0,0,.19885.80881c.09282.2652.25193.2122.2652.358a1.25491,1.25491,0,0,0-.42431.42431c-.25193-.03982-.53041-.43758-1.074-.45085v.01327c-.1061,0-1.45851.45085-1.45851.45085Zm.4774,5.01211a3.77107,3.77107,0,0,1,.15911-2.41323,1.365,1.365,0,0,0,.45077-.2122c.57015-.39776.74253-.72925,1.59115-.55687-.14583.55687,0,.72925.53041,1.04747l.29167.22546a1.19806,1.19806,0,0,1,.58342,1.0342.96207.96207,0,0,1-1.31267-.03974l-.31822-.21219c-.42431-.2784-.61-.31822-.9149.14583Zm1.67062,3.43414c-.80881-.63643-.2784-.98118-.09274-1.68389l1.51151-.99446a8.4145,8.4145,0,0,1,.43758,1.59107c.01327.6497-.49059.9149-1.15356.99446a.9653.9653,0,0,0-.411-.17238Zm3.00992,2.12156a.99781.99781,0,0,0-.62316.30494c-.3713.31821-.63651.17238-1.03427-.11937a3.67778,3.67778,0,0,0,.55687-.55687l.22547-.19893c.39777-.411.769-.67616,1.41877-.23866C105.95839,206.53044,105.62691,206.53044,105.21587,206.72937Zm.11937-8.69818c.01327-.02655,0-.07956,0-.11937l-.01328.01327c-.06628-.43758.63643-.47732,1.36568-.70279l.07956-.02646a3.14228,3.14228,0,0,0,1.40549-.90163,6.36291,6.36291,0,0,1,.68952-.06637c1.06074-.01327,1.53814.67625,2.61215.67625a1.846,1.846,0,0,0,.517-.06628c.83535-.716.7558-1.24639,1.90937-1.44532a.8859.8859,0,0,0,.59669.23874,2.34965,2.34965,0,0,0,.39776-.05309l.358-.1591a1.27863,1.27863,0,0,1,.50387-.11929.84143.84143,0,0,1,.75579.46405l.06629.10609.09282-.03981c.58342-.31822,2.17457-.43759,2.17457-1.432l.01327-.02647-.01327-.05309-.03982-.053c-1.432-1.21984-3.19549-.79553-4.7469-1.04746a.9921.9921,0,0,0-.50378.411c-.27848.38449-.61.87508-.99446.87508a.85461.85461,0,0,1-.53041-.19884l-.1061-.07963-.06628.1061a1.26126,1.26126,0,0,1-1.10055.72925c-.59669,0-1.28613-.42423-2.00219-.42423a1.35878,1.35878,0,0,0-1.02092.49059l-.58342.06628-.43758-.13264a.62116.62116,0,0,0-.58342-.3845,2.65591,2.65591,0,0,0-1.03419.45086h-.23874c-.30495,0-.4906-.03982-.59661-.27848l-.02655-.25193c-.09282-1.04747,1.25966-.79553,1.88282-1.4055a1.70842,1.70842,0,0,1,.79561-.96791l.50387-.25193c.25193-.13264.23866-.17238.464-.18565h.29167c.62324,0,.663.09282.67625.22539a10.23148,10.23148,0,0,0-.18557,1.00772.84364.84364,0,0,0,.5436.716,2.1963,2.1963,0,0,0,.61.07956c1.71044-.07956,1.4585-2.22758,2.811-2.18776a2.51529,2.51529,0,0,1,1.02092.2784l.07956.02654.05309-.053a2.07053,2.07053,0,0,1,.92817-.39776.7004.7004,0,0,1,.31822.30494c.11928.29167.14583.53041.37122.68951l.06628.053.06636-.053c3.06292-1.89617,4.21649-2.41322,4.58771-2.4.14592,0,.13264.01319.19892.11929a1.05843,1.05843,0,0,1-.82207,1.11383l-.29175.17238a1.01548,1.01548,0,0,0-.67617.67616,2.02064,2.02064,0,0,1,.02647.3713v.11937c.01327.03974.03981.07956.01327.13256.02654.14584.02654.26521.15911.358l.03981.02646.053-.01327c1.48505-.42423,2.811-2.38668,4.46842-2.38668a2.73946,2.73946,0,0,1,.46405.03981l.06636.01328.06628-.05309a43.51837,43.51837,0,0,1,4.28277-3.68608c.88836-.06628,1.18011-.53041,1.41877-1.31267a7.93013,7.93013,0,0,1,.25193-1.33922,2.273,2.273,0,0,1,.31822-.05309c.53041-.06628.82207,1.16684.98118,1.76353-.25193.84862-.59661,1.00773-1.44523,1.41877-.78234.33148-1.08728.49059-1.23312,1.28612-.50386.01328-.88844.09283-1.08728.53041l-.2122.23866c-.26512.50387-.34467.91491-1.1933,1.08728-.95472.18566-2.49278,2.10829-3.474,2.095a.54951.54951,0,0,1-.2122-.03982,1.77081,1.77081,0,0,0-.37122-.03974,1.05173,1.05173,0,0,0-.80889.42432l-.23866.29166c-.22538.29175-.45077.663-.68943.92818l-.05309.053.02654.07955a1.74189,1.74189,0,0,1,.11938.50387c.07955,1.16683-1.44532,2.05519-2.46632,2.30712a21.24171,21.24171,0,0,0-2.46623-.38449,2.20408,2.20408,0,0,0-1.21985.33149,2.33639,2.33639,0,0,1-1.59115.74252l-.59669.15911a16.68869,16.68869,0,0,0-2.30712.31821,8.6356,8.6356,0,0,1-1.25967.19892,2.12517,2.12517,0,0,1-1.27285-.39776.67325.67325,0,0,0-.33148-.11937.43166.43166,0,0,0-.25194.10609,1.3521,1.3521,0,0,1-.50386.14584C105.74628,198.40241,105.5739,198.25657,105.33524,198.03119Zm5.27722,8.61863c-.61.53032.34476,1.65742-.42431,2.62534l-.79553-.23866a4.14611,4.14611,0,0,1-.33149-3.116c1.074-1.843,3.527-.60988,4.296-2.39995l.46405.21219c-.26512.663.33149,1.2994-.7558,1.88282-.663-.2652-.769-.17238-1.06073.358A1.08231,1.08231,0,0,1,110.61246,206.64982Zm2.66516,3.35459a1.91609,1.91609,0,0,0-.11937.29175l-.06628.42423c-.14583.86189-.50387.99446-1.39222.54368.34475-1.36576-.09283-2.453,1.35248-3.35467.663.358.74253.968.86182,1.59114C113.60911,209.60664,113.43673,209.64638,113.27762,210.00441Zm.42431-8.68491a14.29819,14.29819,0,0,1-2.51932,1.08728c-.84862.31822-1.2994,1.81654-2.08174,1.80326l.01327.01328a1.2562,1.2562,0,0,1-.74252-.33149c0-.411.464-.92817.464-1.379a.43772.43772,0,0,0-.19884-.35795l-.053-.02655h-.05309a3.90139,3.90139,0,0,0-1.63088.74253,2.11826,2.11826,0,0,1-.47732.1061c-.17238,0-.17238-.02655-.19892-.18565a1.78,1.78,0,0,1,.18565-.70271c.58342-.71606,1.55133-.70279,2.17456-1.737a2.93671,2.93671,0,0,1,.59661-.07956,1.65251,1.65251,0,0,1,1.14037.51706c.37123.3713.59661.74252,1.00765.76907.27848-.01327.53041-.19892.88844-.59669.58342-.67624.47732-1.41877,1.55133-1.47178a1.03352,1.03352,0,0,1,.46405-.14583,1.85829,1.85829,0,0,1,.49059.14583l.305.13256a.33113.33113,0,0,0,.17237.03982.64017.64017,0,0,0,.47732-.358,4.8241,4.8241,0,0,0,1.41877.2122,22.93232,22.93232,0,0,0,4.09712-.78235l.71606-.5304c.13256-.0132.33149-.053.51706-.06629h.06636l.03974-.06628c.50386-1.08728-.06629-2.36013,1.5646-2.54578h.09282l.01328-.07956a1.73024,1.73024,0,0,1,1.1801-1.04754l.39777-.19885a1.565,1.565,0,0,0,.91491-.94145h.18565c1.379,0,1.93582-.88835,2.62534-1.79a2.91668,2.91668,0,0,1,2.201-1.41876,2.20187,2.20187,0,0,1,.78234.13256l.22539.05309-.21212-.79562c.23866-.22538.25193-.22538.47732-.23866h.30494l-.053-.17238a5.51469,5.51469,0,0,1-.43758-1.71043,7.01561,7.01561,0,0,1,1.72379-1.39223c.14583.47732.60988.58342.62315.88836.03982.91491-.37122,1.33922-.57014,2.59888v.053l.03973.053a1.20634,1.20634,0,0,0,.22547.22546.77965.77965,0,0,1,.14584.43751,1.1232,1.1232,0,0,1-.358.74252,1.83319,1.83319,0,0,1-1.48505.67625c-.464,0-.94137-.07956-1.379-.07956a1.44956,1.44956,0,0,0-.94145.29175c-.96791.84854.51713,1.57788-2.28059,2.67835-.51713.22547-1.021.358-1.51159.557-.09282.106-.15911.13256-.14583.25193.07955.21211.19884.1723.34475.23866.411.11929.90164.14583,1.27286.26512a2.22288,2.22288,0,0,1,.25193-.01319c.63643,0,.88836.2784.90163.55687.01327.358-.37122.86182-1.35241.88836a5.08264,5.08264,0,0,1-.72933-.07955,13.14011,13.14011,0,0,1-1.90936-1.04747l-.06628-.02654-.411.31821a.57154.57154,0,0,0-.22539.49059c.03974.42432.45078.76907.45078.95473a.11008.11008,0,0,1-.03974.10609c-.83535.29167-3.73917,1.88282-4.495,4.05739-1.18011,2.4795-4.50816.51705-5.38333,2.453a1.31875,1.31875,0,0,1-.37122.053.64763.64763,0,0,1-.663-.34476,1.97409,1.97409,0,0,1-.07955-.3845c-.07956-.96791,1.33913-.98118,1.88281-1.72371.45078,0,1.074.17238,1.61761.17238a1.26425,1.26425,0,0,0,.82208-.25193,2.36828,2.36828,0,0,0,1.10056-1.20665l.13264-.2784-.27848.09283a6.10758,6.10758,0,0,1-1.684.19884h-.07955a2.37091,2.37091,0,0,1-.86182.17238c-.7558.01327-1.49832-.31821-2.17456-.31821A1.25086,1.25086,0,0,0,113.70193,201.3195Zm11.045,1.49832c-.39777,1.2994-.99446,1.93583-2.24077,1.28613-.3713-.92818-.39785-.99446.26513-1.18l.358-.06636c.55687-.17238.50386-.91491,1.10055-.663C124.8398,202.43325,124.747,202.81782,124.747,202.81782Zm-3.31486,2.9701c-.60988.34476-.2784.13256-.59661.38449l-.19892.13265-.22539.1591c-.38458.21212-.663.13257-1.04755-.21219l-.02646-.42431c-.05309-.59661-.02655-1.074.60988-1.36568.38458.14583.79562.21211,1.1271.37122C121.76361,205.15149,122.05536,205.42989,121.43212,205.78792Zm-5.54243,8.34015s-.70271.557-.86181.42431a.83532.83532,0,0,1-.22547-.411c.09282-.19884-.01319-.19884-.02647-.47732a4.42325,4.42325,0,0,0-.07955-.82207c-.06628-.7558-.02655-1.21985.84862-1.33922v.01327l.33149.96791C116.23445,213.17343,116.32727,213.70376,115.88969,214.12807Zm-.31821-6.05957c.06628-.18557.18565-.34467-.18566-.62315l-.30494-.1061-.30494.03982v.01327a.70422.70422,0,0,1-.78234-.411l.2122-1.2332a4.23067,4.23067,0,0,1,1.41877.29175l.50378.18565a7.31571,7.31571,0,0,0,.70279.23866l-.01327.17238.05308.21212c0,.1061.0132.21219.02647.358a.74567.74567,0,0,1-.39777.8088Zm1.631,1.65743.37122-.42423A1.61116,1.61116,0,0,0,117.998,207.22a.92984.92984,0,0,1,.87509-.05309,8.44461,8.44461,0,0,1,1.41877,1.08728c.05309.411-.21212.58342-.53033.76907l-.25193.053c-.3713.14592-.17238.305,0,.59669a5.69176,5.69176,0,0,1-2.93036,1.96237A1.87918,1.87918,0,0,1,117.20244,209.72593Zm2.55906,5.99329c-.59669.03982-.53041.23866-.54368.67624l-.83535.02655-.5436-1.82981a13.32556,13.32556,0,0,1,2.49278.23866l.55687.09282.33149.3845C120.756,215.812,120.4112,215.73249,119.7615,215.71922Zm4.38887.43758a.69275.69275,0,0,1-.61.50387h-.01327c-.34476-.01328-.68943-.25194-.90163-.25194l-.02654.01328-.13257.01319.02655-.15911.03974-.34468.01327-.05309.053-.053.13264-.05309a1.34,1.34,0,0,1,.74252-.33149c.25194,0,.4906.17238.67625.59669l.02646.05309Zm-1.98892-4.16348a2.91167,2.91167,0,0,1-1.631,1.72371l-.22539-.22539c.63643-.716-.27848-3.54024,2.18784-2.79772.6497-.8088,1.32594-1.1271,2.28058-.29175C123.96472,211.47619,122.97026,211.23753,122.16145,211.99332Zm2.95683-10.7401-.358-.2122c.01327,0,.01327-.01327.01327-.06628-.03973-.33148.55688-.58342.71606-.63643.39777.2784.19885.57015.58334.5967.19892,0,.3713-.14592.63651-.42432l.1591-.25193.17238-.27848c.3845-.53041.80881-1.10055,1.49832-1.10055a2.13819,2.13819,0,0,1,.98119.27848l.053.02654h.05309a3.13329,3.13329,0,0,0,1.76344-1.03427l.06637-.053-.05309-.09283c-.17238-.23866.05309-.23866.02654-.50386-.1061-1.48505,2.0552-2.55906,2.41323-2.78445.716.25193,1.57787-.13264,2.02865.4375a3.79265,3.79265,0,0,1,.11937.50387l.01327.01327h-.06636c-.106,0-.22539-.01327-.42423-.02654l-.3183.01327h-.106a.42449.42449,0,0,0-.411.47732.96346.96346,0,0,1-.46413.3713H134.201c-.3845.17238-1.15357.19892-1.27286.88836v.05309l.02647.053c.305.358.22546.61.39784,1.16683l-.4774.42432c-1.86954.34475-2.36013,1.51159-4.12366,1.52478h-.33149l-.053-.02646-.06629.053c-.55695.63642-.6365,1.71043-1.47185,1.684a1.49319,1.49319,0,0,1-.4906-.07955.575.575,0,0,1-.23866.02646C125.52932,202.30068,125.23765,201.51834,125.11828,201.25322Zm5.83418,1.31267a2.70285,2.70285,0,0,1-1.65743,2.39995l-.7558-.6497c.19885-.21219.3845-.43758.51706-.61l.25193-.27848.22547-.29167a2.034,2.034,0,0,1,1.31267-.55687Zm-5.17121,36.78164v-.01327c.053-.17238.11937-.358.18565-.53033a9.49181,9.49181,0,0,1,.47732-1.074c.11937-.22547.23866-.46413.3845-.68952a10.89737,10.89737,0,0,1,1.61769-2.042l.03974-.03974c.01327-.02654.03981-.03982.06636-.06628l.1591-.15911c.053-.06636.13257-.13264.21212-.21219,1.021-1.04747,3.19557-3.32813,3.50051-3.75236a13.508,13.508,0,0,0,1.69716-2.61215c.1061-.21212.22547-.43759.34476-.70271.25193-.53041.54368-1.18011.9149-2.01546a5.43885,5.43885,0,0,1,.27848-.55687v-.01327a8.85851,8.85851,0,0,1,.79553-1.14038c.15911-.18557.33149-.37122.50387-.5436a10.08088,10.08088,0,0,1,1.82981-.6497,16.24274,16.24274,0,0,1,5.317-.19892c0,.01327,0,.01327.01327,0a10.24465,10.24465,0,0,0,3.06293.01327h.01327a1.61954,1.61954,0,0,0,.82208-.43758.69223.69223,0,0,0,.13256-.14584,1.37685,1.37685,0,0,0,.19892-.33148.768.768,0,0,0,.06628-.18565,4.31451,4.31451,0,0,0,.17238-.86182c.053-.31821.09283-.6497.15911-.99445.30494-.01328.61-.03982.92818-.05309h.01327c.31821,0,.6497-.0132.99446-.0132a7.06843,7.06843,0,0,0,.91482-.06636c.305-.02646.62323-.06628.94145-.11929.21219-.03981.411-.06628.62323-.10609.2784-.03974.55687-.09283.82208-.14584.35795-.053.716-.11937,1.06074-.17238l2.82426-.38449c.43759-.06636.83535-.13265,1.20657-.19893a5.06453,5.06453,0,0,0,.51714-.10609c.39777-.07956.7558-.17238,1.04747-.25194.19892-.06628.38457-.11929.54368-.17238a5.19976,5.19976,0,0,0,.55687-.19884c.053-.02654.1061-.03982.15911-.06628a1.74251,1.74251,0,0,0,.31821-.15911.47633.47633,0,0,0,.11937-.06636.04633.04633,0,0,0,.02655-.01327c.62315-.15911,1.25958-.34468,1.85627-.53033h.01327c.22539-.06628.46405-.13264.67624-.2122.58342-.18557,1.1403-.38449,1.64416-.58341.21212-.07956.411-.1723.61-.25185a6.6032,6.6032,0,0,0,1.39223-.76907,1.23987,1.23987,0,0,1,.21211.053,1.53449,1.53449,0,0,1,.37131.25194c.79553.76907,1.32594,2.74471,2.00218,3.885a25.41276,25.41276,0,0,0,1.67062,2.87735.1626.1626,0,0,1,.02655.03974,1.48635,1.48635,0,0,1,.09282.19892.013.013,0,0,1,.01327.01319c.053.09283.1061.2122.17238.358.1061.21219.23866.49059.3845.8088.13264.305.29175.663.46413,1.03428.17229.38449.358.78226.5436,1.20657.11937.27847.23866.557.358.84862l.01327.01327C163.59716,230.941,145.71021,235.54208,125.78125,239.34753ZM178.872,144.29069c0-.01327-1.15356-.27848-1.379.06628-.23866.34476-.17238.68952-.46405.83535-.2652.14583-.76907.9149-1.074.9149-.29175-.02654-.92818.663-1.15364.67625-.18557.01327-.3845.17238-.55688.01327-.053-.02654.22539-.49059.22539-.50386a23.58913,23.58913,0,0,1,1.48513-2.12156c.72925-.88836,1.32594-1.69717,1.36568-1.77672a.11157.11157,0,0,0-.06628-.15911c-.09283-.01327-.25193-.05309-.30494-.05309a2.97608,2.97608,0,0,0-1.074.43759c-.23874.21219-1.00773.94145-1.21993,1.074-.19884.1591-.57014.557-.68943.57014-.11937.03982-.67625.3183-.83535.34476s-.557-.29167-.63651-.30494a3.24313,3.24313,0,0,1,1.11383-.92818c.7027-.42431,1.16683-.8088,1.04746-.84862a5.15754,5.15754,0,0,1-1.25966-.31821c-.23866-.21212.4774-1.03419.4774-1.03419l.87509-.88844a.14763.14763,0,0,0,.03981-.13257,1.7301,1.7301,0,0,1-.03981-.33148c0-.09283.38449-.6497.45085-.95472.09283-.2784-.01327-1.04747.23866-1.14029.23866-.09283.17238-.35795.23866-.35795a.117.117,0,0,0,.1061-.11937V137.051a4.76925,4.76925,0,0,1,.22539-1.0872,8.01781,8.01781,0,0,1,.42431-.70279c.09283-.13256.14583-.2652.09283-.30494a1.63091,1.63091,0,0,0-.305-.14591c0-.106.61-1.15357.79562-1.52479a.44116.44116,0,0,1,.62315-.19892,8.574,8.574,0,0,1-.14583,1.08728c-.1061.30494-.15911.57014-.17238.59669-.01327,0-.01327.06628,0,.07955a.47528.47528,0,0,1,.053.14584c0,.01327.14591.59669.05309.76907-.09283.14583-.58342.464-.663.63642-.05309.18565-.1061.358-.1061.358-.01327.03974.01327.07956.01327.1061a1.40083,1.40083,0,0,1,.17238.37122v.61a7.67922,7.67922,0,0,0-.358.95464,4.352,4.352,0,0,0-.01327.70278,3.32332,3.32332,0,0,1-.86182,1.39223c-.49059.47732-.663.94145-.557.95464a2.342,2.342,0,0,0,.38457.06636,2.66575,2.66575,0,0,0,1.127-.29175c.2122-.18565.80881-.716,1.021-.94137.21212-.19892.3845-.38457.42432-.411.01327,0,.02646,0,.02646-.02654a3.20379,3.20379,0,0,0,.305-.72925c.06628-.22547.31821-1.15357.411-1.44532.07955-.31821.31821-1.06073.411-1.32594a4.22454,4.22454,0,0,1,.58342-.96791c.13256-.09283.29167.03973.34476.106a.32189.32189,0,0,0,.06628.13264c0,.01327-.03982.02654-.03982.02654l-.106.09275a1.12975,1.12975,0,0,1-.22547.25193c-.106.05309-.06628.49059-.106.62324-.01328.11929.053,1.6707.06628,1.85627a3.76077,3.76077,0,0,1-.23866,1.36576,16.27469,16.27469,0,0,0-.92818,1.684,5.54687,5.54687,0,0,0-.27848,1.02092c-.02646.14592.03982.19892.17238.09283.1061-.106.663-.68944.80881-.87509.17238-.18565.72933-1.29948.82208-1.44531a.256.256,0,0,1,.45085-.01328c.053.05309.02655.358-.23866.83536s-.67624,1.6707-.87516,2.01545A4.70615,4.70615,0,0,1,178.872,144.29069Zm7.09384,64.85182-.02654.38458-.03974.39776v.11938a.64459.64459,0,0,0-.01327.1591c-.01327.17238-.02655.411-.02655.70271a2.66142,2.66142,0,0,0-.01327.33149c-.01327.411-.02646.9149-.03973,1.47177-.01328.29175-.02655.59669-.02655.90171-.01327.3845-.02654.78227-.02654,1.1933-.02647.82208-.03974,1.684-.06628,2.5326-.02655,1.27285-.06629,2.51924-.09283,3.56679v.01319c0,.17238-.01327.34476-.01327.50387-.01319.25193-.02647.4774-.02647.68951a2.14671,2.14671,0,0,0-.01327.29167,1.86622,1.86622,0,0,1-.01327.27848v.01327c-.33149.11937-.62316.22539-.90163.31821-.54368.18565-1.00773.34476-1.39223.46413-.19892.06628-.3713.11929-.54368.1723v-.01319c-.13256-.4774-.27839-1.08728-.411-1.7768-.09282-.45086-.18565-.92818-.27839-1.41877-.29175-1.63088-.58342-3.39441-.79562-4.62753-.03973-.19892-.06628-.3713-.09282-.53041q-.09942-.49722-.15911-.79553a1.40186,1.40186,0,0,0-.07955-.29167,9.57872,9.57872,0,0,1-.63643-1.98891c-.07955-.41112-.14583-.82216-.19892-1.27294-.03974-.29175-.06628-.59669-.09283-.9149v-.01327c-.053-.49059-.09274-1.00773-.14583-1.57788h.01327c.51714-.01327,1.021-.02654,1.53806-.053a26.72441,26.72441,0,0,0,4.48169-.54368,11.66756,11.66756,0,0,1,.13264,1.29948Zm3.885-68.17995c-.13264.95472-.49059,2.51932-.50386,2.811,0,.22547-.30494.74253-.30494.90163v.03982a4.24641,4.24641,0,0,0-.27848,1.23312h.22539c0,.43758.2652,1.19338.305,1.684a15.06665,15.06665,0,0,1-.19892,2.04192v.07956c0,.13264,0,.34475-.01327.53041,0,.1591-.15911.64969-.17238,1.06073,0,.30494-.35795,1.06074-.37123,1.6707a1.04762,1.04762,0,0,0,.02647.18566v.11929a3.06244,3.06244,0,0,1-.50387,1.57787c-.01319.15911-.21211.06628-.26512.11937-.50386-.1061-.11937-1.81653-.19892-3.31486a3.55031,3.55031,0,0,1-.02655-.53041,29.77664,29.77664,0,0,1,.17238-3.10274v-.053c-.29167-2.33367-.74252-4.36232-.74252-4.50823v-.03974a.267.267,0,0,0-.2784-.25193c-.02655,0-.06636,0-.07955.01327a1.99229,1.99229,0,0,0-.23874.11929,2.658,2.658,0,0,0-.96792,1.021,24.82372,24.82372,0,0,0-.59669,3.52705,8.76937,8.76937,0,0,1-.21211,1.44524c-.06628.19892-.1061.38449-.14584.47732a.7247.7247,0,0,1-.05309.1591.1656.1656,0,0,1-.02646.03982c-.09283.1061-.22547.98119-.95472.79553-.03974,0-.23866-.34475-.30494-.34475.11929-.4906.30494-1.08721.58342-2.26731.31821-1.31267.72925-2.41323.72925-2.83754a.21758.21758,0,0,0-.02655-.11929.15215.15215,0,0,0-.17238-.14592h-.03973a.4515.4515,0,0,0-.19893.09283c-1.68389.17238-2.57233,1.76353-3.07619,3.27512a4.51007,4.51007,0,0,0-.17238,1.72371c-.01319.62315-.5436.11929-.5436.13256,0-.51714-.33149-1.1933-.3845-1.80326a4.34162,4.34162,0,0,0,.13257-.59669,9.61616,9.61616,0,0,1,1.80326-3.885c.305-.33149.19892-.663.411-.87509l.25193-.27848a.35165.35165,0,0,0,.06636-.07955c.01319-.02655.01319-.02655.053-.06628a.16334.16334,0,0,0,.02654-.09283.17423.17423,0,0,0-.03981-.13264,12.01018,12.01018,0,0,0-.06628-1.48505,3.78658,3.78658,0,0,1-.05309-.74252c0-.60989.06636-2.13475.07963-2.254l-.01327-.07956c-.01327-.02654-.27848-.90171-.31821-1.15364a6.66856,6.66856,0,0,1-.03982-.75572v-.21219c.02654-.13256.07955-.39777.1061-.57015,0-.09282.02646-.13256.02646-.21211,0-.05309-.02646-.1061-.02646-.17238a.25784.25784,0,0,0-.17238-.15911.43132.43132,0,0,1-.17238-.05309h-.07956a10.49361,10.49361,0,0,0,.663-1.81653.3134.3134,0,0,1,.47732-.11929,2.98416,2.98416,0,0,1,.13256.55687c.05309.45078.1061.83535.1061.83535a.20685.20685,0,0,0,.07955.15911.82883.82883,0,0,1,.13264.33148,4.04839,4.04839,0,0,1,.01319.464c0,.29175,0,.61-.01319.7558a4.69107,4.69107,0,0,0-.02654.61v.30494l.053.22539c.01327.07955.06636.1061.09282.14591a6.81162,6.81162,0,0,1,.17238.83535c.09283.34468.1061,1.79.23866,2.16122a1.46158,1.46158,0,0,1,.03982.49067c0,.5436.53033,1.10047.35795,1.92255-.19885.8619-.18557.58342-.23866.6497a3.243,3.243,0,0,0-.14584.42431c0,.03982-.2652.4774-.09282.50387l.31821-.34476c.19892-.106,1.31275-.70271,1.5646-1.27285.13265-.43759.61-.87517.71606-1.28621a4.12783,4.12783,0,0,1,.15911-.51706.45746.45746,0,0,0,.03974-.17238c0-.01327,0-.02654.01327-.02654h.01327c0-.03982.01327-.053.01327-.09283a1.81361,1.81361,0,0,1,.02655-.21211l-.01327-.01327h.01327v-.01328c-.01327-.09282-.03982-.6497-.06636-.90163-.02647-.27847-.19885-1.48505-.25193-1.89609-.053-.34475-.13257-1.35248-.1723-1.79007.02646-.30494.464-.17238.5436-.07955.03982.1061.18565,1.29948.18565,1.29948a7.78208,7.78208,0,0,1,.62315,1.24639,5.91435,5.91435,0,0,1,.2122.9149v.02647c0,.1591-.05309,1.379-.1061,1.8298a8.51454,8.51454,0,0,0-.053,1.21985,4.0474,4.0474,0,0,0,.02647.6365c.05309.2784.11937.663.17238.87509.03981.1061.06628.25193.2652.26521.19892-.01328.22539-.14584.27848-.23866.06628-.22539.4375-1.27294.50386-1.60442.07956-.31822.01319-1.21985.053-1.45851.01327-.19892-.01327-1.00773,0-1.06074,0-.01327.1061-.39784.11929-.4774.02655-.1591.68952-.26512.74261.05309h.01319l.1591.42431c0,.02647-.18557.464-.18557.464C189.74472,140.1803,189.95691,140.25985,189.85081,140.96256Zm-.3713-3.97783c-.07955.17238-.13256.305-.27839.3713a4.20163,4.20163,0,0,1-.61-.25193c-.06628-.06628-.053-.06628-.06628-.09282-.053-.19893-.03982-.95473-.09282-1.24639a3.34885,3.34885,0,0,0-.06628-.411v-.18565c0-.03974-.05309-.02655.053-.09283l.02655-.01327h.053l.01327-.01319a.28522.28522,0,0,1,.07955.01319.35382.35382,0,0,1,.13256.07955,1.53467,1.53467,0,0,1,.11938.18565c.02654.03982.50386.22539.55687.37131v.22538A2.9617,2.9617,0,0,1,189.47951,136.98473Zm9.67945,7.9822c.14583.02655-.1061-1.10055.053-1.06074l.30494.3845c.45085.79553,1.27293,1.31267,1.432,2.10828C199.87494,146.51826,199.53018,145.65645,199.159,144.96693Zm-1.27294-7.0673c.29167-.7027.91491-2.36013.95464-2.453.05309-.03981.17238.06628.17238.411a4.69023,4.69023,0,0,1-.07955,1.06074c-.02646.03982.09283.29167.05309.33149-.03982.02654-.02654.10609.01319.14583a.907.907,0,0,0-.03973.80881c.19892.4774.63642,2.25411.74252,2.63869a3.44154,3.44154,0,0,0,1.00773,1.1933,1.25218,1.25218,0,0,1,.50386,1.08728c-.06628.53041.45078,1.27294.3845,1.31267-.07956.03982-.25193-.02646-.68952-.58342-.5436-.67624-1.31267-1.88281-1.32594-1.90936a.23038.23038,0,0,0-.14583-.07955c-.053,0-.46405-.15911-.33149.27848.02654.07955-.18565.13256-.18565.13256-.01319,0-.106-.22539-.47732-.79553A6.55814,6.55814,0,0,1,197.886,137.89963Zm1.127,11.56227c.15911.94137.58342,1.69716.29175,2.02865-.11937.13264-.411-.53033-1.15356-2.1613-.7558-1.65742-2.16129-2.98337-2.67843-2.83753a7.27981,7.27981,0,0,0,.59669,3.18229,5.48129,5.48129,0,0,1,.45077,2.4265c-.01319,0-.21211-.1061-.42423-.2122a8.20524,8.20524,0,0,1-.98126-.83535c-.106-.07955-.01319-.60988-.26513-1.65742-.27847-1.06074-.82215-3.04966-.94144-3.48716-.15911-.42431-.8619-.57023-.94145-.59669-.09283-.02654-.13256.22539-.13256.29167a12.66229,12.66229,0,0,0,.18565,3.59333c.39776,2.2143,1.39222,5.13139,1.39222,5.264,0,.05309,0,.45085-.23866.305a1.30355,1.30355,0,0,1-.663-.70279c-.09283-.21212-.305-.43758-.38458-.43758s-.1591-.22539-.37122-.60989a22.67463,22.67463,0,0,1-.9149-3.832c-.1061-.63643-.68952-.74252-.68952-1.36576a17.14354,17.14354,0,0,1,.29175-2.77117.13177.13177,0,0,1,.01327-.053c.03974-.2122.13257-.59669.18558-.8619.02654-.2652-.29167-1.31267-.35795-1.80326-.05309-.49059-.1061-1.76353-.1061-1.86963a7.48657,7.48657,0,0,1,.22539-.95464c.09282-.305.8088-.83535.82207-.83535a.151.151,0,0,0,.03982-.07955.16354.16354,0,0,1,.02646-.09282,2.82376,2.82376,0,0,1,.09283-.42432c.06636-.09282-.31821-.84862-.21212-.99445.07956-.15911-.22538-1.39223.58342-1.36568.01328-.02655.14584-.05309.21212.18557a7.86729,7.86729,0,0,1,.11937,1.61769c-.02655.33149-.13264.92818-.18565,1.35241-.06628.39784-.22539,1.61769-.26521,1.88289-.02646.2784-.053.86182-.053.92818,0,.053.01328.18557.01328.19884l.01327.02655s.09274.34476.21211.75579c.11937.39777.716,1.33922.84863,1.76345.1591.43758,1.04746,1.33922,1.36568,1.18011.22546-.09283.19892-.411-.07956-1.5646a8.56171,8.56171,0,0,1-.23866-2.77118c.13264-.3713.49059-1.61769.57015-1.94918a3.46249,3.46249,0,0,1,.13264-.61c.01327-.02646.03974-.053.053-.07955l.02654.19892a4.87425,4.87425,0,0,0,0-.88836,6.28221,6.28221,0,0,1,0-1.021.2273.2273,0,0,1,.15911-.22539.22407.22407,0,0,0,.02646-.06628c0-.02654.1061-.62323.13265-1.06082.03973-1.06074.30494-1.21984.358-1.21984,0,.03982.34467.03982.38449.61.053.58342.23866,1.71044.21212,1.77672-.13256.19892-.21212.39777-.23866.39777s-.03974.13264-.13256.305c-.03982.11929-.1061.1591-.05309.358a1.37376,1.37376,0,0,1,.01327.31829,2.83293,2.83293,0,0,1,.02654.55687,4.4392,4.4392,0,0,0,.1061.90164.14485.14485,0,0,0,.053.1591c.01327.02655-.49059.27848-.29167.51714a5.59252,5.59252,0,0,1,.17238,2.29385,6.20443,6.20443,0,0,0,.053,1.55133.11209.11209,0,0,0,0,.09283,3.5938,3.5938,0,0,0,.72925,1.84308A9.2779,9.2779,0,0,1,199.013,149.4619Zm-.464-34.143a3.16129,3.16129,0,0,1-2.47951-1.00773l-.358,1.16684c-.51714-.02655-.70271-.51714-.96791-.80889a1.05436,1.05436,0,0,0-.37131.95472s-.30494.51714-.464.03974c-.78235-2.33359-1.2994.18565-2.36022-.94137a3.07319,3.07319,0,0,0-3.03638.46405c-.50387.25193-.99446-.716-.39777-.9149,1.55133-.4906.14584-2.55906,2.29386-2.3204,2.01546.98118,3.81872.22546,3.89827.50386.09283.29175-.99445.42431-.99445.42431-2.50606.51714-.90164-.21211-3.28832-.01327-.21219.2652-.59669.54368-.358.9149,2.67843,1.44532,5.60872-1.63088,7.717.2122,1.33922.23866,2.095.49059,2.95683,0,.59669-.26521.2652-1.31275,1.08728-.54368l.01327-.01328C201.54564,115.02712,199.676,114.76192,198.549,115.31887Zm2.17456-9.17558c.53033-.74252.78226-.663,1.14029-.57015.34476.09283.02655.42432.02655.42432-.7558.49059-.1061,1.35248-1.04755,1.1271-3.24857-.79562-1.84308,2.73143-4.22976,2.41314a5.15212,5.15212,0,0,1-4.15021-1.06074c-.60988-.92817-.30494-1.77672-.13256-2.77117.58342-1.432,2.4265-1.59115,3.80545-1.29948-.9149.70279-2.30713.29175-2.94355,1.48505.09274.76907-.70279,1.71052.663,2.18784a4.44813,4.44813,0,0,0,2.28058.43758,1.826,1.826,0,0,0,1.63088-2.00219c-.82207-1.03427-1.843.33149-2.59879-.11937C196.58663,104.30029,198.76111,106.18311,200.72356,106.14329Zm2.254-10.28925c-.09275.33149-.39777.358-.75572.663-.98126.82208-2.21438,2.46624-3.56679,2.73144-.74252.11929-2.78452-.07955-2.93036-.49067-.11937-.37122,2.37341-2.148,2.93036-2.42642a13.92728,13.92728,0,0,1,1.98892-.663,10.1584,10.1584,0,0,1,1.76344-.7558C202.89805,94.97887,203.13679,95.28382,202.9776,95.854Zm15.97767-15.434c-1.47185,3.63307-6.48388,6.643-10.64735,8.07494-1.18011.38458-3.67289,1.82981-4.44188,1.29948-.29175-.22546,1.2994-1.5646,1.6707-1.85635,3.6198-2.91709,8.34015-5.10485,11.95995-7.84956.87517-.70279,1.64415-1.29948,1.81653-1.47177a5.47325,5.47325,0,0,1-.37122,1.80326Zm-.06636-6.01983h.01327c-3.58,4.44195-11.12459,6.72254-15.19525,9.57335-1.06082.72925-1.90936,1.71043-3.40768,2.67843-.45086.26512-1.96245,1.20657-2.95691,1.65742-.106.053-.60988.47732-.72925.26513-.25193-.31822,1.39222-2.17449,1.5646-2.38668,4.15021-5.33032,7.9292-10.54126,8.75127-18.60294a30.33042,30.33042,0,0,0,.14584-4.6408c.358,0,.79553.02647,1.23312.03974,5.07838.23866,11.85393.72925,12.53017,5.78109A7.45345,7.45345,0,0,1,218.88891,74.40022Z" fill="#fff"/></svg>