<svg id="Layer_1" data-name="Layer 1" xmlns="http://www.w3.org/2000/svg" viewBox="0 0 300 300"><defs><style>.cls-1{fill:#fff;}</style></defs><title>HLT_Dark_bg</title><path class="cls-1" d="M93.18,128.88v42l3.28.65v2.63H80.39v-2.63l3.28-.65v-19H63v19l3.28.65v2.63H50.23v-2.63l3.28-.65v-42l-3.28-1V125.6H66.3v2.62l-3.28.66v17.7H83.67v-17.7l-3.28-1V125.6H96.46v2.62Zm10.49,12.78,3,.66v29.17l-3,.33v2.3h15.08v-2.3l-2.62-.33V139.7H103.67Zm7.9-18.18a5.58,5.58,0,1,0,5.25,5.57A5.41,5.41,0,0,0,111.57,123.48Zm14,3,2.71.45v44.42l-2.71.49v2.3h15v-2.3l-3-.33v-47.2h-12Zm38.6,44c-3.6,0-5.4-2.21-5.4-5.82V143.06h8V139.7h-8v-9.84l-8.86,2.62v7.22H143.5v3.36h6.39v24.09c0,4.92,2.54,7.59,8.12,7.59a32.64,32.64,0,0,0,11.39-2.59V170A24.34,24.34,0,0,1,164.15,170.43Zm43.14-13.36c0,7.7-4.36,18.31-18.58,18.31-10.5,0-17.87-5.12-17.87-17.5,0-8,3.55-19.17,18.25-19.17S207.29,148.94,207.29,157.07Zm-10,0c0-8-2.05-15.58-8.27-15.58s-8.48,6.46-8.48,16c0,6.08,1.46,15.13,8.48,15.13S197.33,163.75,197.33,157Zm15-15.1,3.23.38v29l-3.23.65v2.31h15.4V172l-3.34-.54V147a9.53,9.53,0,0,1,7.21-3c4.74,0,5.93,3.87,5.93,7.43v20.13l-2.86.38v2.37h14.86v-2.42l-2.9-.43V149.86c0-4.74-2.16-10.88-9.64-10.88a18.92,18.92,0,0,0-12.55,5.28v-4.69H212.35Zm57.84-36.66v89.44H29.81V105.28ZM266,109.51H33.84v81H266Z"/></svg>