<svg id="Layer_1" data-name="Layer 1" xmlns="http://www.w3.org/2000/svg" viewBox="0 0 300 300"><defs><style>.cls-1{fill:#fff;}</style></defs><title>HOLX_Dark_bg</title><path class="cls-1" d="M252.27,185.58l-144.26.1,0-26.51,144.26-.1Zm-98.51-15.4a2.4,2.4,0,0,0-.45-1.63,4.11,4.11,0,0,0-5.62-.61,2.38,2.38,0,0,0,.85,4.12,5.15,5.15,0,0,0,.56.16,24,24,0,0,1,3,.84,1.47,1.47,0,0,1,1,1.31,1.62,1.62,0,0,1-.92,1.53,3.71,3.71,0,0,1-2.61.37,2.21,2.21,0,0,1-2.1-2.32.44.44,0,0,0,0-.14,4,4,0,0,0-.92,0,2.67,2.67,0,0,0,1.38,2.85,5.34,5.34,0,0,0,4.68.12,2.48,2.48,0,0,0,1.54-2.43,2.25,2.25,0,0,0-1.61-2.15,5.36,5.36,0,0,0-.77-.26c-.92-.25-1.85-.47-2.77-.72a1.38,1.38,0,0,1-1.16-1.21,1.69,1.69,0,0,1,.92-1.75,2.8,2.8,0,0,1,4.1,1.92Zm57.61,3.59a2.7,2.7,0,0,0,1.61,3,5.64,5.64,0,0,0,4.12.15,2.6,2.6,0,0,0,1.84-2.5,2.35,2.35,0,0,0-1.83-2.32c-.86-.31-1.76-.47-2.64-.71-.2-.05-.41-.1-.61-.17-.88-.27-1.25-.69-1.25-1.4a1.75,1.75,0,0,1,1.31-1.72,2.75,2.75,0,0,1,3.74,2.08,3.42,3.42,0,0,0,.9,0,2.47,2.47,0,0,0-.72-1.94,4.19,4.19,0,0,0-5.19-.4,2.57,2.57,0,0,0-1,2.51,2.17,2.17,0,0,0,1.71,1.76c.17.06.35.09.52.14a22.49,22.49,0,0,1,3,.83,1.48,1.48,0,0,1,1,1.31,1.58,1.58,0,0,1-.91,1.52,3.84,3.84,0,0,1-3.21.24,2,2,0,0,1-1.48-1.94c0-.11,0-.23,0-.37Zm-40.59.92h-.86c-.79,1.58-1.65,2.07-2.87,1.66a2.39,2.39,0,0,1-1.51-2.59h5.24a4.82,4.82,0,0,0-.08-1.38,3,3,0,0,0-2.9-2.57,3,3,0,0,0-3,2.35,5.47,5.47,0,0,0,0,2.84,2.87,2.87,0,0,0,3.12,2.27A2.81,2.81,0,0,0,170.78,174.69ZM142,173.78a5.11,5.11,0,0,0-.1-1.43,3,3,0,0,0-2.76-2.51,2.91,2.91,0,0,0-3.06,2,5,5,0,0,0-.26,2.3c.29,2.31,1.55,3.36,3.74,3.1a2.7,2.7,0,0,0,2.39-2.53h-.83c-.73,1.56-1.63,2.08-2.87,1.65a2.39,2.39,0,0,1-1.49-2.58Zm95.35-.06a4.58,4.58,0,0,0-.39-2.2,2.77,2.77,0,0,0-2.68-1.76,2.87,2.87,0,0,0-2.78,1.77,5,5,0,0,0-.34,2.64,3,3,0,0,0,3.73,3,2.71,2.71,0,0,0,2.4-2.54,3.61,3.61,0,0,0-.87,0,2.11,2.11,0,0,1-2.75,1.66,2.34,2.34,0,0,1-1.59-2.6Zm-45.34,0a3.93,3.93,0,0,0-.09-1.54,3,3,0,0,0-5.92,0,5.84,5.84,0,0,0-.12,2,3.07,3.07,0,0,0,3.79,3,2.7,2.7,0,0,0,2.33-2.53h-.84c-.71,1.54-1.57,2-2.82,1.68a2.48,2.48,0,0,1-1.56-2.61ZM129.75,171v-3.7a2.65,2.65,0,0,0-.9,0V177h.92v-.47c0-1.18,0-2.36,0-3.54a3.12,3.12,0,0,1,.22-1.14,2.12,2.12,0,0,1,2.37-1.22c.89.17,1.25.66,1.3,1.8,0,.18,0,.36,0,.54,0,1.2,0,2.4,0,3.59,0,.15,0,.3.09.46a2.59,2.59,0,0,0,.86-.07c0-.4,0-.79,0-1.17,0-1.29,0-2.58-.06-3.86a2.09,2.09,0,0,0-1.4-1.95A2.82,2.82,0,0,0,129.75,171Zm66.83,2.53a4.63,4.63,0,0,0,.12,1.11,3.3,3.3,0,0,0,6.33.2,5.11,5.11,0,0,0,.14-2.13,3.29,3.29,0,0,0-5.33-2.26A3.61,3.61,0,0,0,196.58,173.57ZM225,170v3.81a3.11,3.11,0,0,1-.45,1.71,2,2,0,0,1-2.32.83c-.71-.18-1.06-.73-1.11-1.7,0-.15,0-.3,0-.45,0-1.26,0-2.51,0-3.77,0-.14.06-.3-.06-.42h-.89c0,1.68-.06,3.33.05,5s1.36,2.34,2.93,2.14a2.9,2.9,0,0,0,1.9-1.25V177h.84v-7Zm-53.06,0v7h.87c0-.11,0-.2,0-.29,0-1.24,0-2.48,0-3.72a2.28,2.28,0,0,1,1.11-2.12,1.72,1.72,0,0,1,2.76,1.34c.14,1.43,0,2.87.06,4.31a.81.81,0,0,0,.05.48h.87c-.06-1.78.1-3.55-.1-5.31a1.92,1.92,0,0,0-1.51-1.75,2.73,2.73,0,0,0-3.26,1.11v-1Zm-48-1.8v8.86a4.17,4.17,0,0,0,1-.06v-8.81h3.31v-.78H120.5v.8Zm60.21,4h.9a2.35,2.35,0,0,0-1-1.87,3.26,3.26,0,0,0-4.86,1.49,4.66,4.66,0,0,0-.24,2.39,3.19,3.19,0,0,0,2,2.74,2.89,2.89,0,0,0,4.09-2.46h-.82a6.06,6.06,0,0,1-.16.61,2.05,2.05,0,0,1-3.56.57,3.53,3.53,0,0,1,0-4.28,2.1,2.1,0,0,1,1.5-.8C183.06,170.5,183.57,170.88,184.05,172.18Zm-22.85,0a2.4,2.4,0,0,0-1.23-2,3.34,3.34,0,0,0-3.94.54,4.35,4.35,0,0,0-.2,5.3,3.31,3.31,0,0,0,3.51,1,2.84,2.84,0,0,0,1.87-2.55h-.4a.89.89,0,0,0-.45.05c0,.1-.05.2-.07.3a2,2,0,0,1-3.43,1.05,3.44,3.44,0,0,1,.06-4.76,2,2,0,0,1,3.29.85c0,.09.07.16.1.25Zm46-1.44a2.3,2.3,0,0,0,0-.79h-1.33c0-.56-.16-1.12.16-1.6s.87-.22,1.35-.26a1.86,1.86,0,0,0-.07-.78,2.53,2.53,0,0,0-1.78.29c-.75.6-.57,1.51-.62,2.36h-1.14a2.15,2.15,0,0,0,0,.8h1.17V177h.93v-6.23Zm20.3-.75v7h.93v-.52c0-1.18,0-2.36,0-3.54a2.21,2.21,0,0,1,1.78-2.09,6.08,6.08,0,0,1,.76-.09v-.84c-1.09-.12-1.7.21-2.65,1.44V170Zm-64.19,7v-7h-.88v7Zm0-8.26v-1.4h-.86v1.4Z"/><path class="cls-1" d="M205.81,127.51l-6.6,1.75c-.16-.48-.3-.95-.46-1.41s-.33-.9-.5-1.34a7.23,7.23,0,0,0-4.9-4.39,14.91,14.91,0,0,0-9.82.36,9.5,9.5,0,0,0-5.52,5.58,17.16,17.16,0,0,0-.46,11.65,9.86,9.86,0,0,0,6.85,6.79c5.14,1.64,9.92.7,14.4-2.14.08-.05.14-.11.21-.16v-4.81H188.13V133h17.95v14.6a27.93,27.93,0,0,1-11.69,5.55A24.25,24.25,0,0,1,181,152.13a16.68,16.68,0,0,1-10.86-12.21,21.46,21.46,0,0,1,2.34-16.45,15.73,15.73,0,0,1,9.65-7.28,23.31,23.31,0,0,1,15.16.46,12.71,12.71,0,0,1,7.7,8.07C205.25,125.62,205.51,126.54,205.81,127.51Z"/><path class="cls-1" d="M167.68,134.39a20.79,20.79,0,0,1-2.45,10.25,16.57,16.57,0,0,1-9.55,7.91,20.65,20.65,0,0,1-14-.05A16.81,16.81,0,0,1,131,141.69a21.42,21.42,0,0,1,1.12-17A16.44,16.44,0,0,1,143.07,116a20.76,20.76,0,0,1,13.32.66A17.25,17.25,0,0,1,167,128.87,22.88,22.88,0,0,1,167.68,134.39Zm-7.4-.54a16.15,16.15,0,0,0-.41-3.43c-.91-3.81-3-6.67-6.76-8a12.39,12.39,0,0,0-9.14.12,9.85,9.85,0,0,0-6.29,7.24,21.19,21.19,0,0,0-.28,8.65,10.72,10.72,0,0,0,6.1,8.09,12,12,0,0,0,7.2.94,10.38,10.38,0,0,0,8.1-5.71C160,139.45,160.28,137,160.28,133.85Z"/><path class="cls-1" d="M106.38,134.17A21,21,0,0,1,104,144.66a16.57,16.57,0,0,1-9.58,7.94,20.62,20.62,0,0,1-14-.07,16.92,16.92,0,0,1-10.74-11.11,21.75,21.75,0,0,1,.64-15.48,16.47,16.47,0,0,1,10.46-9.58,20.52,20.52,0,0,1,14.42.34c5.66,2.25,9.1,6.51,10.61,12.36A20.76,20.76,0,0,1,106.38,134.17Zm-30.58.91a17.68,17.68,0,0,0,.25,3,10.9,10.9,0,0,0,5.69,8.15,12.24,12.24,0,0,0,6.79,1.29,10.62,10.62,0,0,0,9.55-7.07,17.57,17.57,0,0,0,.06-11.5,10,10,0,0,0-6.29-6.57,12.45,12.45,0,0,0-9.22.14,9.79,9.79,0,0,0-6.14,6.83A23.16,23.16,0,0,0,75.8,135.08Z"/><path class="cls-1" d="M35.5,116h7.22v14.32h17V115.94h7.21l0,37.25H59.72V136.72h-17v16.48H35.52Z"/><path class="cls-1" d="M246.69,138.31l7.16,1.73c-1.55,7.25-6.06,12-13,13.32a22.59,22.59,0,0,1-10.37-.5,14.64,14.64,0,0,1-9.36-7.57,23.08,23.08,0,0,1-1.71-17.88,16.17,16.17,0,0,1,11.52-11.31,20.36,20.36,0,0,1,11.7-.15A14.74,14.74,0,0,1,252.87,126c.16.45.28.91.43,1.41l-7,1.55-.57-1.56a13.2,13.2,0,0,0-.83-1.79,7.48,7.48,0,0,0-5.65-3.91,13.06,13.06,0,0,0-6.65.51,8.92,8.92,0,0,0-5.71,5.79,19.87,19.87,0,0,0,0,13,9,9,0,0,0,7,6.11,11,11,0,0,0,7-.46,9.3,9.3,0,0,0,5.37-6.55C246.4,139.54,246.53,139,246.69,138.31Z"/><path class="cls-1" d="M133.45,146.76v6.39l-25.48,0,0-37.26h7.19l0,30.88Z"/><path class="cls-1" d="M209.09,115.83h7.15l0,37.26h-7.14Z"/><path class="cls-1" d="M106.77,159.16l0,26.51h-7l0-26.5Z"/><path class="cls-1" d="M83.74,159.17H90.4l0,26.51H83.76Z"/><path class="cls-1" d="M98.61,185.68H91.93l0-26.52h6.68Z"/><path class="cls-1" d="M81.65,185.69H75.56V159.18h6.08Z"/><path class="cls-1" d="M67.66,159.19h5.78l0,26.51H67.67Z"/><path class="cls-1" d="M59.48,159.19H65l0,26.51H59.5Z"/><path class="cls-1" d="M51.6,159.2h4.92l0,26.51H51.62Z"/><path class="cls-1" d="M43.42,159.2H48l0,26.51H43.44Z"/><path class="cls-1" d="M35.54,159.2h4.32l0,26.51H35.56Z"/><path class="cls-1" d="M264.5,119.66a5.3,5.3,0,1,1-5.3-5.38A5.23,5.23,0,0,1,264.5,119.66Zm-9.39.2a5.89,5.89,0,0,0,.11.94,4.07,4.07,0,0,0,6.66,2.37,4.57,4.57,0,0,0,1.43-4.24,4.11,4.11,0,0,0-5.16-3.56A4.33,4.33,0,0,0,255.11,119.86Z"/><path class="cls-1" d="M165.51,173a2.19,2.19,0,1,1,4.36,0Z"/><path class="cls-1" d="M136.73,173a2.2,2.2,0,1,1,4.39,0Z"/><path class="cls-1" d="M236.45,172.93H232.1a2.19,2.19,0,1,1,4.35,0Z"/><path class="cls-1" d="M186.8,173a2.27,2.27,0,0,1,2.23-2.4,2.33,2.33,0,0,1,2.14,2.4Z"/><path class="cls-1" d="M202.28,173.44A3.34,3.34,0,0,1,202,175a2.25,2.25,0,0,1-2.16,1.47,2.22,2.22,0,0,1-2.12-1.51,3.57,3.57,0,0,1-.06-2.67,2.31,2.31,0,0,1,2.41-1.68,2.46,2.46,0,0,1,2.11,2A3,3,0,0,1,202.28,173.44Z"/><path class="cls-1" d="M260.64,122.72l-1.53-2.5h-.92v2.5h-1v-5.94a21.87,21.87,0,0,1,3,.06,1.46,1.46,0,0,1,1.4,1.58,1.48,1.48,0,0,1-1.29,1.67l-.23,0,1.62,2.57Zm-2.46-5.11v1.76a10.61,10.61,0,0,0,1.71-.06.76.76,0,0,0,.73-.81c0-.48-.18-.72-.7-.83A9,9,0,0,0,258.18,117.61Z"/></svg>