<svg id="Layer_1" data-name="Layer 1" xmlns="http://www.w3.org/2000/svg" viewBox="0 0 300 300"><defs><style>.cls-1{fill:#ec2028;fill-rule:evenodd;}.cls-2{fill:none;stroke:#ec2028;stroke-miterlimit:2.61;stroke-width:0.22px;}</style></defs><title>HON_Light_bg</title><polygon class="cls-1" points="38.92 129.38 48.94 129.38 48.94 142.82 56.73 142.82 56.73 129.29 66.66 129.29 66.66 161.83 56.73 161.83 56.73 146.93 48.85 146.93 48.85 161.66 38.92 161.66 38.92 129.38 38.92 129.38"/><polygon class="cls-2" points="38.92 129.38 48.94 129.38 48.94 142.82 56.73 142.82 56.73 129.29 66.66 129.29 66.66 161.83 56.73 161.83 56.73 146.93 48.85 146.93 48.85 161.66 38.92 161.66 38.92 129.38 38.92 129.38"/><path class="cls-1" d="M85.81,142.76a11.72,11.72,0,0,1,.59,3.92c0,3.2,0,7,0,7.77-.13,1.51-.66,3.7-2,4.78s-2.85.63-3.82-.83-1.32-2.86-1.25-7-.15-7,.63-8.72,1.59-2.4,2.33-2.54c1.57-.32,2.75.74,3.5,2.63Zm-3.32-5.43a15.92,15.92,0,0,1,5.82.83,11.09,11.09,0,0,1,6.35,5.28,14.28,14.28,0,0,1,.75,11.28,11.4,11.4,0,0,1-5.57,6.4,16,16,0,0,1-7,1.4c-2.64,0-6-.58-8.3-2.39a11.88,11.88,0,0,1-4.5-6.48c-.69-2.69-1.12-7.5,1.75-11.31a12.16,12.16,0,0,1,8.14-4.78,12.91,12.91,0,0,1,2.61-.23Z"/><path class="cls-2" d="M85.81,142.76a11.72,11.72,0,0,1,.59,3.92c0,3.2,0,7,0,7.77-.13,1.51-.66,3.7-2,4.78s-2.85.63-3.82-.83-1.32-2.86-1.25-7-.15-7,.63-8.72,1.59-2.4,2.33-2.54c1.57-.32,2.75.74,3.5,2.63Zm-3.32-5.43a15.92,15.92,0,0,1,5.82.83,11.09,11.09,0,0,1,6.35,5.28,14.28,14.28,0,0,1,.75,11.28,11.4,11.4,0,0,1-5.57,6.4,16,16,0,0,1-7,1.4c-2.64,0-6-.58-8.3-2.39a11.88,11.88,0,0,1-4.5-6.48c-.69-2.69-1.12-7.5,1.75-11.31a12.16,12.16,0,0,1,8.14-4.78,12.91,12.91,0,0,1,2.61-.23Z"/><path class="cls-1" d="M108.21,144.73v17H98.92V138.11h9.34v3.17a9.18,9.18,0,0,1,3.12-2.75,10.45,10.45,0,0,1,8.49-.33,6.36,6.36,0,0,1,3.94,5.53v18h-9.17V145.27a3.64,3.64,0,0,0-.74-2.47,2.88,2.88,0,0,0-3.31-.34c-1.27.68-2.57,2.09-2.39,2.27Z"/><path class="cls-2" d="M108.21,144.73v17H98.92V138.11h9.34v3.17a9.18,9.18,0,0,1,3.12-2.75,10.45,10.45,0,0,1,8.49-.33,6.36,6.36,0,0,1,3.94,5.53v18h-9.17V145.27a3.64,3.64,0,0,0-.74-2.47,2.88,2.88,0,0,0-3.31-.34c-1.27.68-2.57,2.09-2.39,2.27Z"/><path class="cls-1" d="M128.08,143.72c1.85-3.72,6.57-6.7,12.38-6.4s9.15,2.41,11.2,6.31a16.37,16.37,0,0,1,1.47,7.71l-16.76,0v4.8a4.28,4.28,0,0,0,.55,1.47c.38.5,1.9,2.46,6.44,1.74,5-.79,4.9-4.38,5-4.38h4a6.19,6.19,0,0,1-1.7,4,14.07,14.07,0,0,1-7.88,3.54c-3.28.34-7.92.43-11.67-2.69a12.27,12.27,0,0,1-3.83-5.63,14.55,14.55,0,0,1,.81-10.37Zm8.28,4.48a33.36,33.36,0,0,1,.2-4.55,5.36,5.36,0,0,1,1.81-3.21,3,3,0,0,1,3.62.26,4.82,4.82,0,0,1,1.31,2.24,12.56,12.56,0,0,1,.37,3.13c0,1.33,0,2.07,0,2.13Z"/><path class="cls-2" d="M128.08,143.72c1.85-3.72,6.57-6.7,12.38-6.4s9.15,2.41,11.2,6.31a16.37,16.37,0,0,1,1.47,7.71l-16.76,0v4.8a4.28,4.28,0,0,0,.55,1.47c.38.5,1.9,2.46,6.44,1.74,5-.79,4.9-4.38,5-4.38h4a6.19,6.19,0,0,1-1.7,4,14.07,14.07,0,0,1-7.88,3.54c-3.28.34-7.92.43-11.67-2.69a12.27,12.27,0,0,1-3.83-5.63,14.55,14.55,0,0,1,.81-10.37Zm8.28,4.48a33.36,33.36,0,0,1,.2-4.55,5.36,5.36,0,0,1,1.81-3.21,3,3,0,0,1,3.62.26,4.82,4.82,0,0,1,1.31,2.24,12.56,12.56,0,0,1,.37,3.13c0,1.33,0,2.07,0,2.13Z"/><path class="cls-1" d="M212.64,143.72c1.84-3.72,6.56-6.7,12.37-6.4s9.15,2.41,11.2,6.31a16.23,16.23,0,0,1,1.45,7.71l-16.73,0v4.8a4.28,4.28,0,0,0,.55,1.47c.37.5,1.89,2.46,6.44,1.74,5-.79,4.9-4.4,5-4.4h4a6.12,6.12,0,0,1-1.7,4,14,14,0,0,1-7.87,3.54c-3.29.34-7.93.43-11.68-2.69a12.16,12.16,0,0,1-3.82-5.63,14.55,14.55,0,0,1,.81-10.37Zm8.27,4.48a33.93,33.93,0,0,1,.21-4.55,5.26,5.26,0,0,1,1.81-3.21,3,3,0,0,1,3.62.26,4.77,4.77,0,0,1,1.3,2.24,12.94,12.94,0,0,1,.38,3.13c0,1.33,0,2.07,0,2.13Z"/><path class="cls-2" d="M212.64,143.72c1.84-3.72,6.56-6.7,12.37-6.4s9.15,2.41,11.2,6.31a16.23,16.23,0,0,1,1.45,7.71l-16.73,0v4.8a4.28,4.28,0,0,0,.55,1.47c.37.5,1.89,2.46,6.44,1.74,5-.79,4.9-4.4,5-4.4h4a6.12,6.12,0,0,1-1.7,4,14,14,0,0,1-7.87,3.54c-3.29.34-7.93.43-11.68-2.69a12.16,12.16,0,0,1-3.82-5.63,14.55,14.55,0,0,1,.81-10.37Zm8.27,4.48a33.93,33.93,0,0,1,.21-4.55,5.26,5.26,0,0,1,1.81-3.21,3,3,0,0,1,3.62.26,4.77,4.77,0,0,1,1.3,2.24,12.94,12.94,0,0,1,.38,3.13c0,1.33,0,2.07,0,2.13Z"/><path class="cls-1" d="M152.32,138.12h10.12l4.33,11.2,4.62-11.2,12.75,0,4.1,13.21,3.6-13.24H200l4,13,3.57-13h4.2l-6.49,23.59h-7.64L193.35,148l-3.77,13.76h-7.83l-7-22.77L165,163s-1.41,3.93-3.15,5.47a7.35,7.35,0,0,1-6.78,2.13c-3.15-.56-4.39-2.19-4.62-4.13a3.8,3.8,0,0,1,3-4.39c2.23-.43,3.67.43,4.2,1.51a4,4,0,0,1,.32,3,3.37,3.37,0,0,1-.78,1.12,2.58,2.58,0,0,0,2.39-.89,9.65,9.65,0,0,0,2-3.61,4.17,4.17,0,0,0,.19-.91l-9.4-24.12Z"/><path class="cls-2" d="M152.32,138.12h10.12l4.33,11.2,4.62-11.2,12.75,0,4.1,13.21,3.6-13.24H200l4,13,3.57-13h4.2l-6.49,23.59h-7.64L193.35,148l-3.77,13.76h-7.83l-7-22.77L165,163s-1.41,3.93-3.15,5.47a7.35,7.35,0,0,1-6.78,2.13c-3.15-.56-4.39-2.19-4.62-4.13a3.8,3.8,0,0,1,3-4.39c2.23-.43,3.67.43,4.2,1.51a4,4,0,0,1,.32,3,3.37,3.37,0,0,1-.78,1.12,2.58,2.58,0,0,0,2.39-.89,9.65,9.65,0,0,0,2-3.61,4.17,4.17,0,0,0,.19-.91l-9.4-24.12Z"/><polygon class="cls-1" points="240.45 129.31 249.37 129.31 249.37 161.73 240.45 161.73 240.45 129.31 240.45 129.31"/><polygon class="cls-2" points="240.45 129.31 249.37 129.31 249.37 161.73 240.45 161.73 240.45 129.31 240.45 129.31"/><polygon class="cls-1" points="252.16 129.34 261.08 129.34 261.08 161.76 252.16 161.76 252.16 129.34 252.16 129.34"/><polygon class="cls-2" points="252.16 129.34 261.08 129.34 261.08 161.76 252.16 161.76 252.16 129.34 252.16 129.34"/></svg>