<svg id="Layer_1" data-name="Layer 1" xmlns="http://www.w3.org/2000/svg" viewBox="0 0 300 300"><path d="M150,260c-1.0949,0-2.18472,0-3.26944-.05093l22.4787-61.78334h30.9375a15.14534,15.14534,0,0,0,13.24074-9.2736l24.38842-66.99306c3.98749-10.96435-2.29167-19.9375-13.9639-19.9375H180.90183l-35.99442,98.96436-20.44676,56.08982A110.02128,110.02128,0,0,1,120.3,44.07407L99.237,101.97685l-35.02685,96.1889H87.52407l29.78148-81.7463h17.51851l-29.78147,81.7514h23.3037l27.76482-76.27177c3.99259-10.96435-2.29167-19.9375-13.94861-19.9375H122.556l22.49907-61.84445Q147.5148,40,150,40a110,110,0,0,1,0,220Z" fill="#fff"/><polygon points="216.555 116.358 199.042 116.358 174.511 183.662 192.029 183.662 216.555 116.358" fill="#fff"/></svg>