<svg id="Layer_1" data-name="Layer 1" xmlns="http://www.w3.org/2000/svg" viewBox="0 0 300 300"><defs><style>.cls-1{fill:#fff;fill-rule:evenodd;}</style></defs><path class="cls-1" d="M40.08,250.08c34-32.79,66.8-66.8,80.16-99.59,4.86-12.15,7.29-26.72,4.86-43.73-4.86-26.72-17-29.15-24.29-27.94-3.64,0-12.15,4.86-13.36,14.58-4.86-8.5-18.22-14.58-27.94-4.86,0,0-9.71,7.29-4.86,23.08C43.72,108,32.79,115.26,30.36,125c-2.43,10.93,2.43,20.65,15.79,23.08,15.79,3.64,36.44,24.29,17,64.37-4.86,10.93-23.08,30.37-25.51,32.8-1.21,2.43,0,6.07,2.43,4.85Z"/><path class="cls-1" d="M178.55,49.67s-15.8,0-17,18.22c0,0-14.58-13.36-26.72-1.21-3.65,3.64-2.43,8.5-1.22,13.36,0,0,26.72,42.51-6.07,91.09v1.22c-4.86,6.07-4.86,8.5,2.43,2.43l12.15-9.72C204.05,115.26,233.2,108,233.2,108c3.65-1.21,6.08-2.42,8.5-4.85,2.43-4.86-1.21-9.72-4.85-12.15,0,0-4.86-3.64-13.36-2.43,0,0,10.93-13.36-1.22-24.29,0,0-12.14-8.5-24.29,1.21,0,0-3.64-15.79-19.43-15.79Z"/><path class="cls-1" d="M113,211.22c6.07-3.65,10.93-7.29,17-9.72,46.15-23.08,65.59-3.64,65.59-3.64,15.79,9.71,10.93,26.72,10.93,26.72,14.58,3.64,24.29-3.65,27.94-9.72a31,31,0,0,0,2.43-15.79c21.86,2.43,26.72-15.79,26.72-15.79,3.64-18.22-13.36-24.29-13.36-24.29,21.86-10.93,14.57-30.37,0-31.58-13.36-1.21-26.72,4.86-37.66,10.93-18.21,8.5-68,43.73-102,70.45-3.65,3.64-2.43,6.07,2.43,2.43Z"/></svg>