<svg id="Layer_1" data-name="Layer 1" xmlns="http://www.w3.org/2000/svg" viewBox="0 0 300 300"><defs><style>.cls-1{fill:#fff;}.cls-2{fill:#a9a9ad;}</style></defs><path id="path540" class="cls-1" d="M122.34,106.1c0-15.16,10.78-27.58,28.19-33.75C171,65.18,221.35,62.19,238,41.23V76.8C222.62,96,170.66,96.3,150.53,103.38c-15.49,5.44-21.4,14.69-24.66,19.32-1.45,2-1.72,2.36-2.54,2.36s-1-.64-1-1.27Z"/><path id="path544" class="cls-2" d="M84.3,258.77c-19.84,0-33.25-27-10.25-54.43,7.73-9.19,16.77-17.45,24.81-26.12,15.35-16.57,20.09-29.58,23-41.89a1.66,1.66,0,0,1,3.32,0c2.89,12.31,7.63,25.32,23,41.89,8.05,8.67,17.1,16.93,24.8,26.12,23,27.39,9.6,54.43-10.24,54.43Z"/></svg>