<svg id="Layer_1" data-name="Layer 1" xmlns="http://www.w3.org/2000/svg" viewBox="0 0 300 300"><defs><style>.cls-1{fill:#06abc8;}.cls-2{fill:#231f20;}</style></defs><g id="layer1"><path id="path7113" class="cls-1" d="M126.27,94.62v43.61h47.46V94.62h36.84A5.39,5.39,0,0,1,216,100h0v46h39.53V84.82a22.94,22.94,0,0,0-22.94-22.94H67.47a22.93,22.93,0,0,0-23,22.93h0V146H84.12V100a5.39,5.39,0,0,1,5.39-5.39h36.76Z"/><path id="path7115" class="cls-2" d="M173.73,205.37V164.23H126.27v41.14H89.43A5.38,5.38,0,0,1,84.12,200V156.84H44.51v58.33a23,23,0,0,0,23,23h165a23,23,0,0,0,23-23h0V156.84H216V200a5.39,5.39,0,0,1-5.39,5.39H173.73Z"/></g></svg>