<svg id="Layer_1" data-name="Layer 1" xmlns="http://www.w3.org/2000/svg" viewBox="0 0 300 300"><defs><style>.cls-1{fill:#fff;}</style></defs><title>IBM_Dark_bg</title><path class="cls-1" d="M33.68,103.47v6.37H79v-6.37Zm51.7,0v6.37h64.53s-6.59-6.37-15.32-6.37Zm77.19,0v6.37h39l-2.32-6.37Zm67,0-2.32,6.37H266v-6.37ZM33.68,115.85v6.37H79v-6.37Zm51.7,0v6.36h72s-.84-4.9-2.31-6.36Zm77.19,0v6.36h43.32l-2.15-6.36Zm62.39,0-2.14,6.36H266v-6.36ZM46.69,128.23v6.38H66.3v-6.38Zm51.7,0v6.38H118v-6.38Zm38.69,0v6.38h19.61a21.8,21.8,0,0,0,1.24-6.38Zm38.5,0v6.38h34.77L208,128.23Zm45.11,0-2.32,6.38h34.94v-6.38Zm-174,12.4V147H66.3v-6.36Zm51.7,0V147h50.09s4.19-3.26,5.53-6.36Zm77.19,0V147h19.61v-3.54l1.25,3.54h35.92l1.34-3.54V147h19.61v-6.36H216.49l-2,5.39-2-5.39ZM46.69,153v6.36H66.3V153Zm51.7,0v6.36H154c-1.34-3.09-5.53-6.36-5.53-6.36Zm77.19,0v6.36h19.61V153Zm23.18,0,2.37,6.36h26.93l2.26-6.36Zm34.94,0v6.36h19.61V153Zm-187,12.38v6.37H66.3v-6.37Zm51.7,0v6.37H118v-6.37Zm38.69,0v6.37h20.85a21.7,21.7,0,0,0-1.24-6.37Zm38.5,0v6.37h19.61v-6.37Zm27.63,0,2.3,6.37h18.05l2.32-6.37Zm30.49,0v6.37h19.61v-6.37ZM34,177.77v6.38H79.32v-6.38Zm51.35,0v6.38h69.71c1.47-1.46,2.31-6.38,2.31-6.38Zm77.54,0v6.38h32.27v-6.38Zm44.75,0,2.36,6.38h9.19l2.22-6.38Zm26,0v6.38h32.62v-6.38ZM34,190.16v6.37H79.32v-6.37Zm51.35,0v6.36h49.21c8.73,0,15.32-6.36,15.32-6.36Zm77.54,0v6.37h32.27v-6.37Zm49.23,0,2.27,6.35h.39l2.31-6.36Zm21.55,0v6.37h32.62v-6.37Z"/></svg>