<svg id="Layer_1" data-name="Layer 1" xmlns="http://www.w3.org/2000/svg" viewBox="0 0 300 300"><defs><style>.cls-1{fill:#73c6e7;}.cls-2{fill:#fff;}</style></defs><title>ICE_Dark_bg</title><path class="cls-1" d="M91.28,91.38l.08,117.39H104.1V226l-29.9,0c-.16-.56-.3-151-.14-151.9L225.83,74l.06,0s0,0,0,.06c0,.18,0,.35,0,.53l0,81.26s0,.09-.09.18H209.1c0-2,0-3.92,0-5.87s0-3.93,0-5.89v-53C208.41,91.18,92.2,91.22,91.28,91.38Z"/><path class="cls-2" d="M221.37,215.57,223,222.5a25.21,25.21,0,0,1-4.17,1.6,39.57,39.57,0,0,1-13,1.49,23,23,0,0,1-9.57-2.44,19.83,19.83,0,0,1-10.24-12.82,29.8,29.8,0,0,1-.83-11.59,27.07,27.07,0,0,1,3.23-10.37,19.59,19.59,0,0,1,12.29-9.77,21.3,21.3,0,0,1,11.26,0,16.56,16.56,0,0,1,10.87,9.11,25.89,25.89,0,0,1,2.45,8.66,27.83,27.83,0,0,1-.18,7.45l-31.21,0a18.64,18.64,0,0,0,.41,3.5A12.83,12.83,0,0,0,205,217.78a29.74,29.74,0,0,0,16.4-2.21Zm-4.86-18.78a17,17,0,0,0-.59-4.14c-1.22-4.3-3.8-7.16-8.42-7.73a10.48,10.48,0,0,0-9.95,3.81,16.19,16.19,0,0,0-3.21,6.74,4,4,0,0,0-.2,1.34Z"/><path class="cls-2" d="M180.11,215.52l1.62,7.17a18,18,0,0,1-4.38,1.74,32.3,32.3,0,0,1-12.33,1c-10.16-1.16-16.84-7.82-18.85-16.83a27.41,27.41,0,0,1,.78-15.33,21.64,21.64,0,0,1,15-14.21,28.79,28.79,0,0,1,18.09.6,11.69,11.69,0,0,1,1.89.85l-2.14,7.3c-.26.06-.41-.11-.57-.2a16.14,16.14,0,0,0-6.16-1.9,20,20,0,0,0-6.9.23,13.14,13.14,0,0,0-9.63,7.83,18.9,18.9,0,0,0,.2,16.43,13.19,13.19,0,0,0,10.84,7.56,21.26,21.26,0,0,0,11.26-1.74Z"/><path class="cls-2" d="M138.13,225.65H129l0-45.68h9.16Z"/></svg>