<svg id="Layer_1" data-name="Layer 1" xmlns="http://www.w3.org/2000/svg" viewBox="0 0 300 300"><defs><style>.cls-1{fill:#fff;}.cls-2{fill:#ee453f;}</style></defs><title>IDXX_Dark_bg</title><path class="cls-1" d="M160.79,128.32c.26.19.56.1.84.1h15.93l11.1,13.36,11.22-13.35,26.41,0,11.08,13.33,11-13.31,17.07,0-16.16,18-23.88,0-12.35-13.68c-4.15,4.62-8.24,9.15-12.33,13.69l-24,0-16.18-17.95v9.91l-33.42,0v8h-13V128.55a1.7,1.7,0,0,1,.92-.09l44.52,0c.31,0,.63.1.91-.1Z"/><path class="cls-1" d="M47.58,128.4c0,.26,0,.52,0,.78l0,41.54v.95H34l0-43.27Z"/><path class="cls-1" d="M266,171.5l-17.53,0c-3.63-4.38-7.32-8.81-11.09-13.35L226.3,171.54l-26.52,0-11.1-13.36-11.09,13.37-63.41.05V152.5h13v8.75l33.4,0v10.11l.16.07,16.49-18.29h23.15l12.78,14.11,12.61-14.12,23.33,0Z"/><path class="cls-1" d="M65.92,153.21v7.16a.65.65,0,0,0,.6.18c7.13,0,14.26,0,21.4,0a13.31,13.31,0,0,0,4-.67,6.59,6.59,0,0,0,4.78-6c0-.15,0-.29,0-.43a1.12,1.12,0,0,1,.08-.18h12.89a19.24,19.24,0,0,1,0,3.56,15.14,15.14,0,0,1-2.69,7.72,16.08,16.08,0,0,1-8.52,5.87,29.89,29.89,0,0,1-9.1,1.33l-35.71,0H53V153.22Z"/><path class="cls-1" d="M109.81,146.64h-13a13.24,13.24,0,0,0-.37-2.21,6.6,6.6,0,0,0-5-4.67,17,17,0,0,0-4.43-.53c-6.92,0-13.83,0-20.75,0-.14,0-.28,0-.53,0v7.15H52.81V128.62c.21-.2.49-.12.74-.12q18.18,0,36.36,0a25.77,25.77,0,0,1,10.88,2.16,14.44,14.44,0,0,1,8.87,11.9A39.26,39.26,0,0,1,109.81,146.64Z"/><path class="cls-2" d="M159.89,153.7l-28.24,0v-7.67l28.24,0Z"/></svg>