<svg id="Layer_1" data-name="Layer 1" xmlns="http://www.w3.org/2000/svg" viewBox="0 0 300 300"><defs><style>.cls-1{fill:#fff;}</style></defs><title>IEX_Dark_bg</title><polyline id="Fill-1" class="cls-1" points="85.61 106.94 69.26 165.75 41.41 165.75 57.77 106.94 85.61 106.94"/><path class="cls-1" d="M263,106.94H231.27l-10.36,9.94-5.51-9.94H156.55c-8.44,0-19.44,8.17-23.54,20-.72-11.15-8.48-20-17.6-20H90.24L73.89,165.75h32.55c10.44,0,19.67-8.18,24.8-20.31,1.47,12.4,11.49,20.31,19.32,20.31h51.36l11.6-11.19,6.22,11.19h28.18l-16-28.9Zm-48.3,30.89H199.17l-22.76,21.89,2.9-10.44h-13.6c-1.85.08-5-2.14-5.58-4.74h20.5l1.85-6.71h-76l1.32-4.75h76l1.78-6.4H163.49c0-.94,2.63-4.15,6.7-4.15l16.54,0,3.09-11,11.91,21.55h14.32Z"/><path id="Fill-4" class="cls-1" d="M50.19,180.56c.15-2.27-1.09-3.43-2.93-3.43-4,0-6.11,4.22-6.37,7.76-.19,2.52.86,4.75,3.69,4.75A4.84,4.84,0,0,0,49,186h3.91c-1.95,5.16-4.78,7.08-8.62,7.08-5,0-7.69-3-7.31-8.17.41-6,4.48-11.19,10.47-11.19,4.11,0,7.05,2.37,6.63,6.86H50.19"/><path class="cls-1" d="M68.13,173.7c-6,0-10.06,5.2-10.48,11.19-.34,5.2,2.34,8.17,7.31,8.17,6.18,0,10.06-5.38,10.48-11.45C75.81,176.45,72.91,173.7,68.13,173.7Zm3.39,8.21c-.26,3.47-2.49,7.73-6.29,7.73-2.83,0-3.85-2.23-3.7-4.75.27-3.54,2.38-7.76,6.37-7.76C70.77,177.13,71.71,179.31,71.52,181.91Z"/><path class="cls-1" d="M91.15,174.11H82.67l-5,18.46h3.92l2-7.23h3.69c1.54,0,2.52.45,2.41,2.22-.07,1.25-.38,2.53-.45,3.77a4.77,4.77,0,0,0,.07,1.24h3.81a5.36,5.36,0,0,1-.11-2.14c.07-1.13.26-2.38.34-3.21.07-1.47-.19-2.82-1.62-3.27v0a5.33,5.33,0,0,0,4.4-5C96.35,175.39,94.35,174.08,91.15,174.11ZM88,182.48H84.33l1.39-5.2h3.73c1.55,0,2.87.26,2.72,2.26S90,182.44,88,182.48Z"/><path class="cls-1" d="M110,174.11h-7.12l-4.94,18.5h3.88l1.81-6.63h4.82a7.06,7.06,0,0,0,7.35-6.48C116,175.39,113.53,174.15,110,174.11Zm-1.58,8.71h-4l1.47-5.54h3.32c1.35,0,2.71.45,2.59,2.3A3.12,3.12,0,0,1,108.37,182.82Z"/><path class="cls-1" d="M128.67,173.7c-6,0-10.06,5.2-10.47,11.19-.38,5.2,2.34,8.17,7.31,8.17,6.18,0,10.06-5.38,10.47-11.45C136.36,176.45,133.46,173.7,128.67,173.7Zm3.39,8.21c-.26,3.47-2.48,7.73-6.29,7.73-2.82,0-3.84-2.23-3.69-4.75.26-3.54,2.37-7.76,6.37-7.76C131.31,177.13,132.25,179.31,132.06,181.91Z"/><path class="cls-1" d="M151.69,174.11h-8.47l-5.05,18.46h3.92l2-7.23h3.69c1.54,0,2.52.45,2.41,2.22-.08,1.25-.38,2.53-.45,3.77a4.77,4.77,0,0,0,.07,1.24h3.85a5.52,5.52,0,0,1-.12-2.14c.08-1.13.27-2.38.34-3.21.08-1.47-.19-2.82-1.62-3.27v0a5.35,5.35,0,0,0,4.41-5C156.89,175.39,154.9,174.08,151.69,174.11Zm-3.2,8.37h-3.62l1.44-5.2H150c1.54,0,2.86.26,2.71,2.26S150.56,182.44,148.49,182.48Z"/><path class="cls-1" d="M172.34,174.11h-4l-11.8,18.46h4.11l2.53-4.1h6.63l.3,4.1H174ZM165,185.45l4.37-7.34h0l.34,7.34Z"/><polyline id="Fill-12" class="cls-1" points="184.32 177.54 178.75 177.54 179.69 174.11 194.49 174.11 193.55 177.54 188.24 177.54 184.17 192.61 180.25 192.61 184.32 177.54"/><polyline id="Fill-13" class="cls-1" points="198.71 174.11 202.63 174.11 197.58 192.61 193.67 192.61 198.71 174.11"/><path class="cls-1" d="M215.29,173.7c-6,0-10.06,5.2-10.47,11.19-.38,5.2,2.33,8.17,7.31,8.17,6.18,0,10.06-5.38,10.47-11.45C223,176.45,220.08,173.7,215.29,173.7Zm3.43,8.21c-.26,3.47-2.45,7.73-6.29,7.73-2.83,0-3.88-2.23-3.69-4.75.26-3.54,2.37-7.76,6.36-7.76C218,177.13,218.91,179.31,218.72,181.91Z"/><polyline id="Fill-15" class="cls-1" points="229.87 174.11 233.9 174.11 237.78 187.26 237.86 187.26 241.29 174.11 244.87 174.11 239.82 192.61 235.94 192.61 231.98 179.65 231.91 179.65 228.48 192.61 224.82 192.61 229.87 174.11"/></svg>