<svg id="Layer_1" data-name="Layer 1" xmlns="http://www.w3.org/2000/svg" viewBox="0 0 300 300"><defs><style>.cls-1{fill:#fff;}</style></defs><title>IFF_Dark_bg</title><path class="cls-1" d="M142.52,137.8l21.95,0,0,29.32-22.14,0,0,23.47v23.23l-29.07,0c-.55-.5-.33-1.18-.33-1.78,0-25.31-.1-50.63,0-75.94.12-23.21,18.16-44.57,41.09-49a43.66,43.66,0,0,1,10.3-.94l0,29.18C150.53,117.54,141.56,126.67,142.52,137.8Z"/><path class="cls-1" d="M238.47,86.21l0,29.11c-14.14,2.44-22.74,11.18-22,22.41h22l0,29.31-22.07,0,0,46.7-29.13,0c-.55-.72-.27-1.6-.27-2.41q0-37.34-.06-74.65c0-23.51,17.94-45.19,41.09-49.61A38.55,38.55,0,0,1,238.47,86.21Z"/><path class="cls-1" d="M61.5,91.25l29,0v24.29c-7.67.33-13.87,3.5-18.27,9.85a21.75,21.75,0,0,0-3.88,12.47H90.44l.06,76-28.92,0Z"/></svg>