<svg id="Layer_1" data-name="Layer 1" xmlns="http://www.w3.org/2000/svg" viewBox="0 0 300 300"><defs><style>.cls-1{fill:#fff;}.cls-2{fill:#fbb143;}</style></defs><title>ILMN_Dark_bg</title><path class="cls-1" d="M122.76,143.76h5.12v4.47H128a9.4,9.4,0,0,1,5.9-4.67,10.84,10.84,0,0,1,8.6.69,9.16,9.16,0,0,1,3.62,3.63l.27.46c.14,0,.16-.15.21-.24a10.59,10.59,0,0,1,10-5,10.88,10.88,0,0,1,5.22,1.46,9.39,9.39,0,0,1,4.14,5.73,18.36,18.36,0,0,1,.71,5.25c0,5.7,0,11.4,0,17.1a2.45,2.45,0,0,1,0,.25h-5.49V156.22a14.66,14.66,0,0,0-.49-3.91,5.15,5.15,0,0,0-4.68-4,9.17,9.17,0,0,0-3.72.26,6.34,6.34,0,0,0-4.48,4.93,14.6,14.6,0,0,0-.41,3.67v15.29a1,1,0,0,1-.05.5h-5.47c-.11-.15-.06-.32-.06-.48q0-7.8,0-15.58a16.55,16.55,0,0,0-.6-4.85,5,5,0,0,0-4.7-3.78c-4.11-.33-6.95,2.08-7.93,5.88a13.31,13.31,0,0,0-.42,3.26q0,7.5,0,15v.53h-5.42Z"/><path class="cls-1" d="M245.09,172.75h-4.92c-.09-1.47-.18-2.93-.19-4.43-.25.11-.32.32-.43.49a10.11,10.11,0,0,1-5.88,4.2,13.17,13.17,0,0,1-9.85-.92,8.15,8.15,0,0,1-4.19-8.15c.32-3.84,2.55-6.17,6-7.59a21.86,21.86,0,0,1,6.77-1.49c2.27-.19,4.54-.13,6.81-.14h.52a6.35,6.35,0,0,0-1.86-5.54,7.47,7.47,0,0,0-5.61-1.79,11.42,11.42,0,0,0-7.1,2.82c-.21.17-.44.33-.68.51l-3.33-3.51a10.48,10.48,0,0,1,1.86-1.49,18.34,18.34,0,0,1,16.13-1.66,8.86,8.86,0,0,1,5.73,8.43c0,5.41,0,10.82,0,16.24a31.1,31.1,0,0,0,.23,3.61C245.08,172.46,245.08,172.59,245.09,172.75Zm-5.31-13.93H238a33.13,33.13,0,0,0-6.82.49,9.82,9.82,0,0,0-4.23,1.73,4.24,4.24,0,0,0-1.58,4.36,3.93,3.93,0,0,0,2.69,3.2A10.28,10.28,0,0,0,233,169a7.21,7.21,0,0,0,6-4.39A12.63,12.63,0,0,0,239.78,158.82Z"/><path class="cls-1" d="M110.12,143.76h5.56v29.08h-5.54v-4.37c-.1,0-.14,0-.17,0a8.83,8.83,0,0,1-5.59,4.49,12.28,12.28,0,0,1-8.94-.43,9.22,9.22,0,0,1-5.29-6.87,14.9,14.9,0,0,1-.33-3.19V143.68h5.54c.11.13,0,.3,0,.46,0,5.51,0,11,0,16.53a10.54,10.54,0,0,0,.51,3.57,5.73,5.73,0,0,0,4.93,4.06,7.56,7.56,0,0,0,8.94-6.3,15.86,15.86,0,0,0,.33-3.44v-14.8Z"/><path class="cls-1" d="M193.52,172.85H188V143.76h5.53v4.45c.09-.06.13-.08.15-.11a9,9,0,0,1,5.79-4.54,12.26,12.26,0,0,1,8.74.48,9.19,9.19,0,0,1,5.27,6.8,14.65,14.65,0,0,1,.35,3.31q0,9.22,0,18.46c0,.1,0,.19,0,.32h-5.51a1,1,0,0,1,0-.49c0-5.48,0-11,0-16.45a10.79,10.79,0,0,0-.54-3.69,5.94,5.94,0,0,0-5.47-4.06,8.26,8.26,0,0,0-5,1.13,7.71,7.71,0,0,0-3.34,5,15.68,15.68,0,0,0-.39,3.8v14.68Z"/><path class="cls-1" d="M66.81,172.85h-5.5V126.37h5.5Z"/><path class="cls-1" d="M76.4,126.36h5.47v46.48H76.4Z"/><path class="cls-1" d="M179.92,172.84h-5.55V143.76h5.55Z"/><path class="cls-2" d="M46.57,143.76H52v29.06H46.57Z"/><path class="cls-2" d="M53,133.55a3.7,3.7,0,0,1-3.88,3.67A3.71,3.71,0,1,1,53,133.55Z"/><path class="cls-1" d="M254.5,142.46a4,4,0,1,1-4-4A4,4,0,0,1,254.5,142.46Zm-4.11,3.24a3.26,3.26,0,1,0-3.24-3.27A3.31,3.31,0,0,0,250.39,145.7Z"/><path class="cls-1" d="M248.94,140.12a16.05,16.05,0,0,1,2.2,0,1.28,1.28,0,0,1,1.13,1.23,1.15,1.15,0,0,1-1,1.29l-.13.08,1.16,1.89h-.83l-1.11-1.83h-.63v1.79a2.68,2.68,0,0,1-.84.07Zm.84,1.94a3.7,3.7,0,0,0,1.29-.07.57.57,0,0,0,.45-.6.53.53,0,0,0-.48-.56,5.88,5.88,0,0,0-1.26-.05Z"/></svg>