<svg id="Layer_1" data-name="Layer 1" xmlns="http://www.w3.org/2000/svg" viewBox="0 0 300 300"><title>INCY_Mark_Dark</title><g id="layer1"><g id="g4552"><path id="path4026" d="M147.90852,160.0588c-5.11825,2.36915-7.73036,2.9551-11.86371,2.9551a11.33131,11.33131,0,0,1-11.42727-11.45235c0-7.29406,5.34273-11.6767,11.77013-11.6767a20.72885,20.72885,0,0,1,10.08078,2.36915c.33045.19981.60442.24916.60442-.1413v-7.69287a41.0654,41.0654,0,0,0-11.83256-1.78941c-12.55563,0-21.321,8.13565-21.321,18.93329,0,10.779,8.6345,18.90847,21.68265,18.90847a34.13,34.13,0,0,0,12.86735-2.20682V160.2729c0-.39234-.34286-.39234-.5602-.212" fill="#fff"/><path id="path4030" d="M230.58072,147.52164c.08831-2.36916,2.38763-8.19794,8.248-8.19794,6.91372,0,8.23528,6.0596,8.23528,8.19794Zm24.457,12.00082a28.01861,28.01861,0,0,1-14.43227,3.79049c-7.76164,0-10.27411-5.399-10.27411-8.55981h26.86952V152.322c0-11.334-6.814-19.6689-18.37214-19.6689-12.06339,0-19.20159,8.123-19.20159,18.90848,0,10.9597,8.62816,18.92708,20.523,18.92708a39.87462,39.87462,0,0,0,15.567-3.0422v-7.71175c0-.39235-.42416-.39235-.67858-.212" fill="#fff"/><path id="path4034" d="M47.1945,169.26037h10.188V116.75309H47.1945Z" fill="#fff"/><path id="path4046" d="M213.979,161.82879c-3.36026,1.52676-7.425,1.69637-8.9961.53013-1.05326-.77929-1.53391-2.14454-1.53391-4.05232V141.393h10.95349V134.2486H203.449V121.4124c0-.26858-.274-.35513-.49832-.28637l-10.08091,4.98746a88.67322,88.67322,0,1,1-65.553-65.628l.17676-.6539a93.34755,93.34755,0,1,0,67.62918,107.11675,8.00041,8.00041,0,0,0,1.02319,1.02333c3.31671,2.76177,11.24041,3.32911,18.30378,1.4402v-7.45612c0-.21922-.30578-.24376-.46825-.12377" fill="#fff"/><path id="path4050" d="M262.66826,84.00693a93.321,93.321,0,0,0-158.624,54.57469C101.75,134.71,97.37981,132.584,91.00836,132.584c-4.64448,0-9.65675,2.631-12.6492,5.33667v-3.67184H69.05134v35.0115h10.193V145.757c1.571-1.70177,5.59849-5.52974,9.77539-5.52974,4.15815,0,6.73912,2.88662,6.73912,5.88514v23.14793H106.17a88.65067,88.65067,0,1,1,66.51323,70.25949l-.17676.6539A93.34614,93.34614,0,0,0,262.666,84.00612" fill="#fff"/><path id="path4054" d="M180.85652,134.24887l-9.63208,18.84619-9.41986-18.84619h-10.3488l14.81261,28.54662-13.36634,26.15885h10.15547L191.012,134.24887H180.85652" fill="#fff"/></g></g></svg>