<?xml version="1.0" encoding="utf-8"?>
<!-- Generator: Adobe Illustrator 24.0.1, SVG Export Plug-In . SVG Version: 6.00 Build 0)  -->
<svg version="1.1" id="Layer_1" xmlns="http://www.w3.org/2000/svg" xmlns:xlink="http://www.w3.org/1999/xlink" x="0px" y="0px"
	 viewBox="0 0 300 300" style="enable-background:new 0 0 300 300;" xml:space="preserve">
<style type="text/css">
	.st0{fill:#00C6FC;}
	.st1{fill:#FFFFFF;}
</style>
<title>INTC_Logo_Light</title>
<path class="st0" d="M43.2,102.8H25v18.2h18.2V102.8z"/>
<path class="st1" d="M42.7,197.1v-65.2H25.5v65.2H42.7z M156.4,197.7v-15.9c-2.1,0-4.2-0.1-6.2-0.5c-1.5-0.2-2.9-0.8-4-1.8
	c-1-1.1-1.6-2.4-1.8-3.8c-0.4-2.1-0.5-4.2-0.5-6.4v-22.8h12.4v-14.7H144v-25.3h-17.2v63.1c-0.1,4.5,0.4,9,1.4,13.4
	c1,3.5,2.4,6.5,4.6,8.6c2.3,2.4,5.2,4,8.4,4.8c4.3,1,8.7,1.5,13.1,1.4h2.1L156.4,197.7z M254.9,197.1v-95.6h-17.2v95.6H254.9z
	 M110.2,138.3c-4.8-5.1-11.5-7.8-19.9-7.8c-7.8-0.1-15.1,3.4-19.9,9.5l-0.8,1.3v-9.4H52.7V197h17v-33.4c0.2-6.1,1.8-10.7,4.5-13.5
	c2.8-3,6.7-4.6,10.8-4.6c4.9,0,8.8,1.6,11.3,4.5c2.4,2.9,3.7,7.2,3.7,12.4v34.6h17.4v-36.8C117.6,150.9,115,143.6,110.2,138.3z
	 M228.4,164.4c0.1-4.5-0.5-9-2.2-13.2c-1.6-4-3.9-7.7-6.9-10.8c-3-3.2-6.6-5.6-10.7-7.2c-4.4-1.8-9-2.6-13.7-2.6
	c-18.7-0.3-34.1,14.5-34.5,33.3c-0.3,13.9,8.1,26.6,20.9,31.9c4.4,1.8,9.2,2.7,14,2.7c14.5,0,23.6-6.5,29-12.8l-12.4-9.4
	c-4.3,4.6-10.3,7.3-16.6,7.3c-4.8,0-8.8-1.1-11.8-3.4c-3-2.2-5.2-5.4-6.2-9.1l-0.2-0.6h51.1L228.4,164.4L228.4,164.4z M177.8,158.4
	c0-4.8,5.4-13.1,17.4-13.1c11.8,0,17.4,8.3,17.4,13.1L177.8,158.4z"/>
<path class="st1" d="M274.5,189c-0.3-0.8-0.8-1.5-1.4-2.1c-0.6-0.6-1.3-1.1-2.1-1.4c-0.8-0.3-1.7-0.5-2.5-0.5
	c-0.8,0-1.6,0.1-2.4,0.5c-0.8,0.3-1.5,0.8-2.1,1.4c-0.6,0.6-1.1,1.3-1.4,2.1c-0.3,0.8-0.5,1.6-0.5,2.4c0,0.9,0.2,1.7,0.5,2.6
	c0.3,0.8,0.8,1.5,1.4,2.1c0.6,0.6,1.3,1.1,2.1,1.4c0.8,0.3,1.6,0.5,2.4,0.5c0.9,0,1.7-0.2,2.5-0.5c0.8-0.3,1.5-0.8,2.1-1.4
	c0.6-0.6,1-1.3,1.4-2.1c0.3-0.8,0.5-1.7,0.5-2.6C275,190.6,274.8,189.8,274.5,189z M273.4,193.5c-0.3,0.6-0.7,1.1-1.1,1.6
	c-0.5,0.5-1,0.8-1.6,1.1c-0.6,0.3-1.4,0.5-2.1,0.5c-0.7,0-1.4-0.2-2.1-0.5c-0.6-0.3-1.1-0.7-1.6-1.2c-0.5-0.5-0.8-1-1.1-1.6
	c-0.6-1.3-0.6-2.8,0-4.1c0.3-0.6,0.7-1.1,1.1-1.6c0.5-0.5,1-0.8,1.6-1.1c0.6-0.3,1.4-0.5,2.1-0.5c0.7,0,1.4,0.2,2.1,0.5
	c0.6,0.3,1.1,0.7,1.6,1.1c0.5,0.5,0.8,1,1.1,1.6C274.1,190.6,274.1,192.1,273.4,193.5L273.4,193.5z M269.9,191.9
	c1.1-0.1,1.8-1,1.8-2.1c0,0,0,0,0,0c0.1-0.6-0.2-1.2-0.6-1.6c-0.6-0.4-1.2-0.6-1.9-0.6h-2.9v7.3h1.3v-3h1l1.8,3h1.4L269.9,191.9z
	 M269.1,190.9h-1.6v-2.1h1.6c0.2,0,0.4,0,0.5,0.1c0.2,0,0.3,0.2,0.4,0.4c0.2,0.2,0.2,0.3,0.2,0.6s0,0.4-0.2,0.6
	c-0.1,0.2-0.2,0.3-0.5,0.3C269.1,190.9,269.3,190.9,269.1,190.9L269.1,190.9z"/>
</svg>
