<svg id="Layer_1" data-name="Layer 1" xmlns="http://www.w3.org/2000/svg" viewBox="0 0 300 300"><defs><style>.cls-1{fill:#fff;}</style></defs><title>INTU_Dark_bg</title><path class="cls-1" d="M150.51,137h10.9a1.08,1.08,0,0,1,.05.53q0,12.24,0,24.48a16.54,16.54,0,0,0,1,5.87,7.11,7.11,0,0,0,7.46,5c4.48-.14,7.81-2.73,9.26-7.22a15.6,15.6,0,0,0,.72-4.8q0-11.65,0-23.3V137h10.92v43.72H180.4v-7c-.22,0-.23.11-.28.21a14.37,14.37,0,0,1-10.44,7.74,16.56,16.56,0,0,1-9.66-.9,14.18,14.18,0,0,1-7.84-7.88,20,20,0,0,1-1.66-7.95c0-9.24,0-18.49,0-27.73C150.5,137.14,150.51,137.07,150.51,137Z"/><path class="cls-1" d="M72.42,180.7H61.57V137H71.94v7c.22.08.23-.09.28-.18A14.19,14.19,0,0,1,82.56,136a16.12,16.12,0,0,1,11.82,1.9,14.54,14.54,0,0,1,6.08,7.55,22.07,22.07,0,0,1,1.39,8v26.85c0,.13,0,.26,0,.42H91c-.12-.16,0-.36,0-.54,0-8.15,0-16.29,0-24.44a16.76,16.76,0,0,0-1-6.15c-1.46-3.71-4.38-5-7.9-4.75-5,.34-7.91,3.87-9,8.09a15.84,15.84,0,0,0-.45,4v23.25C72.49,180.33,72.55,180.53,72.42,180.7Z"/><path class="cls-1" d="M243.84,180.69H232.91V146.63H220.66V137h35.4v9.66H243.84Z"/><path class="cls-1" d="M119.7,146.6H107.44V137h35.42v9.66H130.63v34.08H119.7Z"/><path class="cls-1" d="M50.31,180.69H39.42V137H50.31Z"/><path class="cls-1" d="M202.05,137h10.88v43.72H202.05Z"/><path class="cls-1" d="M231.89,124.58a6.61,6.61,0,1,1,6.56,6.63A6.61,6.61,0,0,1,231.89,124.58Z"/><path class="cls-1" d="M131.76,124.61A6.55,6.55,0,1,1,125.2,118,6.61,6.61,0,0,1,131.76,124.61Z"/><path class="cls-1" d="M254.13,178a3.23,3.23,0,1,1,3.22,3.2A3.22,3.22,0,0,1,254.13,178Zm5.94.1a2.72,2.72,0,0,0-2.68-2.7,2.67,2.67,0,1,0,2.68,2.7Z"/><path class="cls-1" d="M258.05,179.74l-.82-1.45a.83.83,0,0,0-.49,0v1.44h-.62v-3.58c.53,0,1.06,0,1.58,0a1,1,0,0,1,1,.87c.08.48-.14.82-.68,1.1l-.12.09.92,1.5Zm-1.29-2a2.5,2.5,0,0,0,.95-.05.46.46,0,0,0,.34-.49.44.44,0,0,0-.37-.43,2.56,2.56,0,0,0-.92,0Z"/></svg>