<svg id="Layer_1" data-name="Layer 1" xmlns="http://www.w3.org/2000/svg" viewBox="0 0 300 300"><defs><style>.cls-1{fill:#9fcc3b;}.cls-2{fill:#05a54e;}.cls-3{fill:#129447;}.cls-4{fill:#67bd47;}.cls-5{fill:#3eae49;}.cls-6{fill:#188342;}.cls-7{fill:#0e773c;}</style></defs><path class="cls-1" d="M235.36,150l22.91-22.9a12.31,12.31,0,0,0,0-17.37l-68-68a12.31,12.31,0,0,0-17.37,0L150,64.64,127.08,41.73a12.3,12.3,0,0,0-17.36,0l-68,68a12.31,12.31,0,0,0,0,17.37L64.64,150,41.73,172.92a12.3,12.3,0,0,0,0,17.36l68,68a12.31,12.31,0,0,0,17.37,0L150,235.36l22.91,22.91a12.3,12.3,0,0,0,17.36,0l68-68a12.29,12.29,0,0,0,0-17.37Z"/><path class="cls-2" d="M124.06,209.44a12.28,12.28,0,0,1-3.26-11.54l5.92-24.62L102.1,179.2a12.24,12.24,0,0,1-11.54-3.26L64.61,150l-22.9,22.91a12.28,12.28,0,0,0,0,17.36l68,68a12.31,12.31,0,0,0,17.37,0L150,235.36Z"/><path class="cls-3" d="M166,143.07a12.32,12.32,0,0,0-9.07-9.07L102.1,120.82a12.3,12.3,0,0,0-11.56,3.27L64.61,150l25.93,25.92a12.3,12.3,0,0,0,11.56,3.27L156.93,166a12.32,12.32,0,0,0,9.07-9.07l1.67-6.94Z"/><path class="cls-3" d="M143.05,134a12.31,12.31,0,0,0-9.07,9.07L120.8,197.9a12.29,12.29,0,0,0,3.26,11.56L150,235.39l25.92-25.93a12.3,12.3,0,0,0,3.27-11.56L166,143.07a12.32,12.32,0,0,0-9.07-9.07L150,132.33Z"/><path class="cls-4" d="M134,157a12.31,12.31,0,0,0,9.07,9.07l54.82,13.18a12.32,12.32,0,0,0,11.57-3.26L235.36,150l-25.92-25.95a12.32,12.32,0,0,0-11.57-3.26L143.05,134a12.31,12.31,0,0,0-9.07,9.07L132.31,150Z"/><path class="cls-4" d="M156.93,166a12.32,12.32,0,0,0,9.07-9.07l13.18-54.83a12.3,12.3,0,0,0-3.27-11.56L150,64.64,124.06,90.56a12.32,12.32,0,0,0-3.26,11.57L134,157a12.31,12.31,0,0,0,9.07,9.07l6.94,1.67Z"/><path class="cls-5" d="M134,157a12.31,12.31,0,0,0,9.07,9.07l6.94,1.67,6.94-1.67A12.32,12.32,0,0,0,166,157l7.25-30.2L143.05,134a12.31,12.31,0,0,0-9.07,9.07L132.31,150Z"/><path class="cls-6" d="M156.93,166a12.32,12.32,0,0,0,9.07-9.07l1.67-6.94L166,143.05a12.31,12.31,0,0,0-9.07-9.07l-30.21-7.26L134,156.93a12.32,12.32,0,0,0,9.07,9.07l6.94,1.67Z"/><path class="cls-6" d="M143.05,134a12.31,12.31,0,0,0-9.07,9.07L132.31,150,134,157a12.31,12.31,0,0,0,9.07,9.07l30.2,7.26L166,143.07a12.32,12.32,0,0,0-9.07-9.07L150,132.33Z"/><path class="cls-6" d="M166,143.07a12.32,12.32,0,0,0-9.07-9.07L150,132.33,143.05,134a12.31,12.31,0,0,0-9.07,9.07l-7.26,30.21L156.93,166A12.32,12.32,0,0,0,166,157l1.67-6.94Z"/><path class="cls-7" d="M166,143.07a12.32,12.32,0,0,0-9.07-9.07L150,132.33,143.05,134a12.31,12.31,0,0,0-9.07,9.07L132.31,150,134,157a12.31,12.31,0,0,0,9.07,9.07l6.94,1.67,6.94-1.67A12.28,12.28,0,0,0,166,157l1.67-6.94Z"/></svg>