<svg id="Layer_1" data-name="Layer 1" xmlns="http://www.w3.org/2000/svg" viewBox="0 0 300 300"><defs><style>.cls-1{fill:#84c1e9;}.cls-2{fill:#2377bc;}.cls-3{fill:#18345d;}</style></defs><title>IPG_Light_bg</title><g id="layer1"><g id="g3816"><path id="path3818" class="cls-1" d="M166.32,116.16a32.4,32.4,0,0,0-7.91-5.76,37.21,37.21,0,0,0-17.18-4.74c-.47,0-.89,0-1.24,0H98.33v87.62h24.28V174.37l17.9,0a36.19,36.19,0,0,0,15.59-3.47,44.93,44.93,0,0,1,10.22-54.72M139.59,154c-.35,0-.67,0-1,0H122.61V126H138v0c6.7,0,13.62,4.13,13.62,13.91,0,9.54-5.49,13.51-12.07,14"/></g><g id="g3820"><path id="path3822" class="cls-2" d="M196,195a45,45,0,0,1-39.86-24.13,33.24,33.24,0,0,0,19.18-30.25c0-.23,0-.47,0-.7h0v-.12c0-.41,0-.82,0-1.22-.3-10.34-4-17.49-8.9-22.42a44.9,44.9,0,0,1,61.09,1.69l-17.95,15.48-.09-.06A21.47,21.47,0,1,0,213,163H197.6V142.6h42.81s.06.44.14,1.13c.17,1.15.27,2.33.35,3.52.06.91.1,1.84.1,2.7,0,.42,0,1-.06,1.6a44.88,44.88,0,0,1-3.54,16,34.52,34.52,0,0,1-1.6,3.42.18.18,0,0,0,0-.05A45.06,45.06,0,0,1,196,195"/></g><g id="g3824"><path id="path3826" class="cls-3" d="M175.28,140.63c0-.24,0-.47,0-.7h0v-.12c0-.41,0-.82,0-1.22-.3-10.34-4-17.49-8.91-22.42a44.93,44.93,0,0,0-10.22,54.72,33.25,33.25,0,0,0,19.18-30.25"/></g><g id="g3828"><path id="path3830" class="cls-1" d="M59,105.84l.1,87.4H83.22l-.1-87.4H59"/></g></g></svg>