<svg id="Layer_1" data-name="Layer 1" xmlns="http://www.w3.org/2000/svg" viewBox="0 0 300 300"><path d="M247.85714,196.89286H207a77.91961,77.91961,0,0,1-9.85713,14.14285h50.71429a7.08755,7.08755,0,0,0,7.07142-7.07143h0A7.0418,7.0418,0,0,0,247.85714,196.89286Z" fill="#fff"/><path d="M247.85714,169.89286H216.78571a97.95279,97.95279,0,0,1-3.92856,14.14286h35.07142a7.07161,7.07161,0,1,0-.07143-14.14286Z" fill="#fff"/><path d="M247.85714,142.89286H218.5c.14286,2.21429.21429,4.42857.21429,6.71428,0,2.5-.07143,5-.28572,7.5h29.42857a7.10723,7.10723,0,0,0,0-14.21428Z" fill="#fff"/><path d="M247.85714,115.89286h-34.7857a100.29074,100.29074,0,0,1,3.78572,14.14286h31a7.08755,7.08755,0,0,0,7.07142-7.07143h0A7.0418,7.0418,0,0,0,247.85714,115.89286Z" fill="#fff"/><path d="M247.85714,88.89286h-50A79.54064,79.54064,0,0,1,207.5,103.03572h40.42857a7.07161,7.07161,0,1,0-.07143-14.14286Z" fill="#fff"/><path d="M112.78572,204.03571h0a7.08754,7.08754,0,0,1,7.07142-7.07142H92a7.08755,7.08755,0,0,0-7.07143,7.07142h0A7.08754,7.08754,0,0,0,92,211.10714h27.92857A7.14922,7.14922,0,0,1,112.78572,204.03571Z" fill="#4ca5df"/><path d="M207,196.89286H119.85715a7.08755,7.08755,0,0,0-7.07143,7.07142h0a7.08755,7.08755,0,0,0,7.07143,7.07143h77.28572A75.51057,75.51057,0,0,0,207,196.89286Z" fill="#6e88ad"/><path d="M93,178.53572a7.106,7.106,0,0,1,6.92857-8.57143H72a7.07143,7.07143,0,1,0,0,14.14285h28.14285A7.27812,7.27812,0,0,1,93,178.53572Z" fill="#4ca5df"/><path d="M216.78571,169.89286H99.92857A7.13551,7.13551,0,0,0,93,178.46429a7.27811,7.27811,0,0,0,7.14285,5.57142H212.78572A98.06069,98.06069,0,0,0,216.78571,169.89286Z" fill="#6e88ad"/><path d="M73.07143,151.46429A7.106,7.106,0,0,1,80,142.89286H52.07143a7.07143,7.07143,0,1,0,0,14.14285H80.21429A7.13053,7.13053,0,0,1,73.07143,151.46429Z" fill="#4ca5df"/><path d="M73.07143,151.46429a7.27812,7.27812,0,0,0,7.14286,5.57142H218.42858c.14286-2.5.28572-4.92856.28572-7.5,0-2.28571-.07143-4.5-.21429-6.71428H80A7.22506,7.22506,0,0,0,73.07143,151.46429Z" fill="#6e88ad"/><path d="M82.78571,122.96429a7.08755,7.08755,0,0,1,7.07143-7.07143H62a7.08755,7.08755,0,0,0-7.07143,7.07143h0A7.08755,7.08755,0,0,0,62,130.03572H89.92857A7.103,7.103,0,0,1,82.78571,122.96429Z" fill="#4ca5df"/><path d="M213.07142,115.89286H89.92857a7.07143,7.07143,0,1,0,0,14.14286h127A91.61272,91.61272,0,0,0,213.07142,115.89286Z" fill="#6e88ad"/><path d="M134.28572,97.46429a7.106,7.106,0,0,1,6.92857-8.57143H113.28571a7.07143,7.07143,0,0,0,0,14.14286h28.14286A7.27812,7.27812,0,0,1,134.28572,97.46429Z" fill="#4ca5df"/><path d="M197.85714,88.89286H141.21428a7.13551,7.13551,0,0,0-6.92857,8.57143,7.27813,7.27813,0,0,0,7.14286,5.57143h66A79.232,79.232,0,0,0,197.85714,88.89286Z" fill="#6e88ad"/></svg>