<svg id="Layer_1" data-name="Layer 1" xmlns="http://www.w3.org/2000/svg" viewBox="0 0 300 300"><defs><style>.cls-1{fill:#fff;}</style></defs><path id="path30923" class="cls-1" d="M278.67,113.2c-8.1-39.89-72.26-55.76-143.34-35.43a240.17,240.17,0,0,0-41.18,16h8.7a173.91,173.91,0,0,1,33-13.21c59-16.88,113.14.55,120.93,38.93,4.47,22-7.29,46.1-29.25,65.86l-2.06,9.83c36.84-23.61,58.66-54.82,53.16-81.94m-81.54,93.07a173.38,173.38,0,0,1-33,13.21c-59,16.88-113.13-.55-120.91-38.92-4.47-22.05,7.32-46.19,29.35-66l2.07-9.8c-36.91,23.62-58.77,54.88-53.26,82,8.09,39.89,72.27,55.75,143.32,35.42a240.92,240.92,0,0,0,41.19-16h-8.72m-27.6-66.53,4.55-21.61c11.68.12,21-.36,18.85,9.63-2.71,12.93-7.25,11.73-23.4,12m-53.32,60.09h40.67L165,161.4c15.4-.5,20.63,1.24,19,9l-6.19,29.38h40.5l6.78-32.27c.91-4.29,3.13-14.84-14.61-19.61,18-4.9,21.94-15.22,23.45-22.38,3.51-16.72-10.18-25.4-31.27-25.4H137.18ZM81.82,100.17H125l-21,99.66H60.85Z"/></svg>