<svg id="Layer_1" data-name="Layer 1" xmlns="http://www.w3.org/2000/svg" viewBox="0 0 300 300"><defs><style>.cls-1{fill:#fff;}</style></defs><title>ISRG_Dark_bg</title><path id="ana" class="cls-1" d="M150,117.15a8.64,8.64,0,1,1,0,17.28h0a8.64,8.64,0,1,1,0-17.28Zm0,13a4.44,4.44,0,1,0,0-8.88h0a4.44,4.44,0,0,0,0,8.88Zm-2.2,52.09V143h4.44v39.25Zm-120.08,0V143h4.44v39.25ZM65.32,143h4v39.25h-5L50.73,149.47v32.81h-4V143H52l13.29,31.79V143Zm134.1,39.25V143h4.44v39.25ZM272.26,147h-14v12.56h13v4h-13v14.76h14v4H254V143.07h18.3S272.26,147,272.26,147ZM237,143h4.57l-10.19,39.25h-5.18L216.66,143h4.57l7.62,34.4L237,143Zm-72.43,0h21.85v4h-8.72v35.26h-4.45V147h-8.72S164.61,143,164.61,143Zm-85.1,0h21.84v4H92.67v35.26H88.23V147H79.51v-4Zm50.13,0h4.28v29.06a10.76,10.76,0,0,1-21.52,0V143h4.44v29.1a6.4,6.4,0,0,0,12.8,0Z"/></svg>