<svg id="Layer_1" data-name="Layer 1" xmlns="http://www.w3.org/2000/svg" viewBox="0 0 300 300"><defs><style>.cls-1{fill:#fff;}</style></defs><title>IT_Dark_bg</title><path id="path3345" class="cls-1" d="M255.9,141.48l-.62,7.39h-3c-4.82,0-7.33,3.87-7.33,7.58v16.7h-8.55V141.48h8.1l.18,4c1.7-2.71,4.67-4,8.34-4Zm-59.26,31.67h-8.56V156.41c0-3.51-.3-7.92-5.23-7.92-4.75,0-6.65,3.43-6.65,7.42v17.24h-8.55V141.48h7.93l.18,4.05c1.7-2.71,4.87-4.82,9.54-4.82,8.62,0,11.34,6.15,11.34,12.55Zm-32.72-7.4-.6,7.21a22.2,22.2,0,0,1-6.07.75c-8.06,0-10.4-3.7-10.4-11.13v-30h8.55v8.93h8.51l-.59,7.39H155.4v13.07c0,3,.82,4.59,3.88,4.59a13.94,13.94,0,0,0,4.64-.78M144,141.48l-.66,7.39h-2.33c-4.81,0-7.21,3.87-7.21,7.58v16.7h-8.55V141.48h8.1l.17,4c1.71-2.71,4.68-4,8.35-4ZM86.68,169.64a36.14,36.14,0,0,1-19.25,4.67C53.24,173.88,43,165.07,43,150.18s10.34-24.29,24.44-24.51c7.14-.11,13.54,1.71,18.54,6.12l-6,6.09c-3.1-2.64-7.65-4.18-13.09-3.93-8.87.41-14.22,6.86-14.33,15.73-.12,9.6,5.77,16.22,15,16.46a22.4,22.4,0,0,0,10.12-1.68v-9.82H68.07l.65-8h18Zm145.88-9.32H209.11a7.75,7.75,0,0,0,7.81,6.6c3.85.1,6-1.06,8.82-3.92l5.59,4.26a17.11,17.11,0,0,1-14.15,6.67c-9.54,0-16.69-6.67-16.69-16.62s7.11-16.61,16.33-16.61c10.16,0,15.74,6.16,15.74,17.08ZM224,153.7c-.26-4-3.26-6.53-7.39-6.37a7.53,7.53,0,0,0-7.49,6.37ZM119.9,152.41v20.74h-7.54l-.19-3.12c-2.31,2.86-6.07,3.9-9.93,3.9-5.83,0-11.33-2.88-11.45-9.57-.17-10.51,11.84-11.26,19.38-11.26h1.5v-.41c0-3.48-2.3-5.36-6.63-5.36a12.49,12.49,0,0,0-8.45,3.38l-4.93-5a21.46,21.46,0,0,1,14.11-5c9.81,0,14.13,4.53,14.13,11.7m-8.23,6.93h-1.19c-4,0-11.16.21-11.13,4.44,0,6,12.32,4.07,12.32-3.12Zm137.55,10.13A3.47,3.47,0,1,1,252.7,173a3.45,3.45,0,0,1-3.48-3.56m3.48,4.27a4.26,4.26,0,1,0-4.33-4.27,4.25,4.25,0,0,0,4.33,4.27m-.91-3.93h.86l1.3,2.13h.83l-1.4-2.17a1.27,1.27,0,0,0,1.28-1.35c0-1-.58-1.4-1.74-1.4h-1.87v4.92h.74Zm0-.64v-1.52h1c.52,0,1.07.12,1.07.73s-.56.79-1.19.79Z"/></svg>