<svg id="Layer_1" data-name="Layer 1" xmlns="http://www.w3.org/2000/svg" viewBox="0 0 300 300"><defs><style>.cls-1,.cls-2{fill:#fff;}.cls-2{fill-rule:evenodd;}</style></defs><g id="ITW-logo---dk-gray-NEW"><g id="Group-9"><path id="Fill-1" class="cls-1" d="M38.48,101.27,7.21,198.74h5l31.28-97.47Z"/><path id="Fill-2" class="cls-1" d="M46.38,101.27l-31,97.47h4.67l31.28-97.47Z"/><path id="Fill-3" class="cls-1" d="M54.27,101.27l-31,97.47H28l31.28-97.47Z"/><path id="Fill-4" class="cls-1" d="M62.17,101.27l-31,97.47h4.68l31.27-97.47Z"/><path id="Fill-5" class="cls-1" d="M71.81,101.27l-6.14,19.08H96.36L71.52,198.74h28.93l25.14-78.39h25.14l6.14-19.08Z"/><g id="Group-8"><path id="Fill-6" class="cls-2" d="M264.15,101.26h28.64l-50.86,97.48H214.75l1.17-52.55v-3.82a31.4,31.4,0,0,0,.29-3.52c.29-2.06.58-4.41.58-4.41a35.79,35.79,0,0,0-1.75,5c-.88,2.06-2,4.11-2,4.11-.59.88-2,3.53-2,3.53l-27.77,51.67H154.82l3.8-97.48h29.24l-3.81,42.57a31.43,31.43,0,0,0-.29,3.53s-.29,2-.87,4.7c-.3,2.35-1.46,6.75-1.46,6.75s1.16-3.82,2-5.87c1.46-2.94,2.05-4.41,2.92-6.46,1.18-2.06,2.34-4.7,2.34-4.7l1.75-2.64,20.18-37.88h29.81l-1.76,40.23v2.34c-.29,2.36-.29,5.58-.88,8.52-.28,2.93-.87,7.05-.87,7.05s.87-2.06,1.75-4.7c.88-2.35,4.1-9.69,4.1-9.69Zm21,4.41H267.07l-31.86,65.76s-.29.59-.59,1.17c-.58.89-1.17,1.18-1.46.59-.18-.17-.14-.56-.08-1.17,0-.39.08-.88.08-1.46l2.64-64.89H213.58L189,151.18l-1.75,3.23s-2.05,4.11-4.09,7.63l-5.26,10.56c-.59,1.18-1.76.89-1.46,0a28.14,28.14,0,0,1,.58-5.28c.29-3.23.88-8.22,1.46-12,.29-3.81,1.17-11.74,1.47-16.43.58-5,1.75-18.5,1.75-20.56l1.17-12.62H163L159.5,194h21.05l2.63-4.7,1.75-3.23s9.35-17,13.16-23.78c1.75-3.52,8.47-16.14,10.81-20.25,2-4.12,7-13.8,7.89-15.27a31.61,31.61,0,0,1,2.92-5.58c.3-.59,1.17-1.17,1.17,1.18v3.52L219.43,194H239.3Z"/></g></g></g></svg>