<svg id="Layer_1" data-name="Layer 1" xmlns="http://www.w3.org/2000/svg" viewBox="0 0 300 300"><defs><style>.cls-1{fill:#263d86;}</style></defs><path class="cls-1" d="M190,208,181,217,172.33,208l-4.68-13.89-13.31-4.59,0-8.66-8.65,0-4.57,22,4.68,14.2-20.36,9-6.21-8.94,4.29-9,0-9.58-13.29,0-17.55,18.6L79.33,213l-.07-18.54-23.19-3.64-16.66,9-9.9-4.29-.06-18.85,8.94-4.36,35.49-17.73,5.26,4.31L92.4,145.54l0-8.66,17.56-17.67,8.9-18.88,13.22-22L154,73.94l9,0,0,8.65,17.67,17.56.06,18.86,27.6,26.18L234.92,163l13.3,4.29,4.69,13.27,17.64,8.6-8.93,9-8.65,0,0-9-13.31-4.29-22.32-21.87-17.65-8.9-18.94-26.52L172,119l4.28-14.22L163,91.53l-8.94,8.68.06,18.85-8.62,8.69,17.67,17.55-8.93,9,18,17.56,0,9L181,198.4l9,0,9.86-9-4.65-4.31-5.3-13.28,9.89,0,8.71,17.59,9,8.93Z"/></svg>