<svg id="Layer_1" data-name="Layer 1" xmlns="http://www.w3.org/2000/svg" viewBox="0 0 300 300"><defs><style>.cls-1{fill:#fff;}</style></defs><title>J_Dark_bg</title><path class="cls-1" d="M92.5,172.85c2.45-.07,4.91-.18,7.36-.19,6.89,0,13.77,0,20.65,0,.6,0,1.21.05,1.93.09.13.67.26,1.25.38,1.84,1.71,8.62,5.74,15.62,13.93,19.61,11.53,5.6,26.91,2.42,34.46-7.07,4.26-5.36,5.89-11.57,5.95-18.31,0-5.65.15-11.3.23-17,0-.61,0-1.22,0-1.95h30a4.9,4.9,0,0,1,.15.93c-.23,8.71.28,17.53-.85,26.13-2.9,22-14.6,37.81-35.81,45.09-19.35,6.64-38.38,5.26-55.67-6.62-12.84-8.83-19.62-21.57-21.94-36.83-.23-1.48-.49-3-.73-4.44Z"/><path class="cls-1" d="M148.93,102.31V74h58.48V130.8h-30V102.31Z"/></svg>