<svg id="Layer_1" data-name="Layer 1" xmlns="http://www.w3.org/2000/svg" viewBox="0 0 300 300"><defs><style>.cls-1{fill:#fdd900;}</style></defs><title>JBHT_Light_bg</title><g id="layer1"><g id="g3220"><path id="path3199" d="M28,118.92H259.07v62.16H28Z"/><path id="path3201" class="cls-1" d="M33.52,124.43h220v51.09h-220Z"/><path id="path3203" d="M270.4,171.27a3.62,3.62,0,0,1,1,2.57,3.79,3.79,0,0,1-1,2.61A3.16,3.16,0,0,1,268,177.5a3.2,3.2,0,0,1-2.45-1.05,3.7,3.7,0,0,1-1-2.61,3.54,3.54,0,0,1,1-2.57,3.2,3.2,0,0,1,2.45-1.05A3.1,3.1,0,0,1,270.4,171.27Zm.42-.42a3.74,3.74,0,0,0-2.86-1.22,3.8,3.8,0,0,0-2.83,1.22,4.12,4.12,0,0,0-1.17,3,4.05,4.05,0,0,0,1.17,3,3.7,3.7,0,0,0,2.83,1.26,3.84,3.84,0,0,0,2.86-1.26,4.13,4.13,0,0,0,1.18-3A4.19,4.19,0,0,0,270.82,170.85Zm-2.23,2.82a1.66,1.66,0,0,1-.72.09h-.71v-1.69h.67a1.7,1.7,0,0,1,.93.17.7.7,0,0,1,.29.67A.83.83,0,0,1,268.59,173.67Zm-2.23,2.49h.75V174.3h.64a1.6,1.6,0,0,1,.88.17c.3.17.42.51.42,1.05v.38l0,.13v.08h.72v0a1.4,1.4,0,0,1,0-.25v-.67a1.22,1.22,0,0,0-.26-.72,1,1,0,0,0-.75-.46,2.73,2.73,0,0,0,.63-.21,1.06,1.06,0,0,0,.42-.93,1.15,1.15,0,0,0-.67-1.18,4.22,4.22,0,0,0-1.23-.17h-1.55Zm-22.07-14.41a12.89,12.89,0,0,0-2.74-5.64c-2.32-3-5.06-4.59-7-4.34v0H220.32c-6.45-6.95-13.1-14.16-14.49-15.8-2.53-3-4.13-3-4.72-2.9H49.57c-3.46-.09-5.1.88-5.86,1.85-1.05,1.39-1,3.41.17,6h0a17.18,17.18,0,0,0,4,5.31c3.5,3.12,7.29,4.51,9.36,3.54h9.43c6.57,7.07,13.44,14.53,14.87,16.21,2.53,3,4.34,2.7,4.55,2.7H235.48c.72.13,5.69,1,8-1.6A6.12,6.12,0,0,0,244.29,161.75Zm-4-4.84.09.08a12.82,12.82,0,0,1,1.14,1.73h-6.07a14.69,14.69,0,0,1-1-1.81Zm-9.3,6.27a10.45,10.45,0,0,1-.76-.84h6.23c.3.3.59.59.89.84Zm7.24.72a5.75,5.75,0,0,0,.63.42h-6.78c-.13-.13-.25-.29-.38-.42Zm-8.72-2.32c-.25-.29-.5-.54-.8-.84h6.36c.09.08.13.17.21.25s.34.38.51.59ZM228,160c-.3-.29-.59-.63-.89-1h6.78a10.92,10.92,0,0,0,.59,1Zm6.27-6.65c.76-.59,3,.29,5.39,2.86h-5.43a5.32,5.32,0,0,1-.34-2.06A1.15,1.15,0,0,1,234.3,153.33Zm-.8,5h-7.07c-.34-.34-.68-.72-1-1.06H233c.17.34.33.72.5,1.06Zm-8.72-1.77c-.21-.25-.46-.51-.67-.76h8.47a4.31,4.31,0,0,0,.21.76Zm7.88-3.37a4.44,4.44,0,0,0-.21.8c0,.17,0,.34,0,.5a2.55,2.55,0,0,0,0,.55h-9.06c-.54-.63-1.13-1.22-1.72-1.85Zm-28-16.3a10.81,10.81,0,0,0,.76.84H57.57l-1.77-1.89H203.68A6,6,0,0,1,204.65,136.86ZM56.22,138.42l1.47,1.6H54.75a8.59,8.59,0,0,0-.64-.59c-.37-.34-.8-.68-1.18-1h3.29Zm-4.3-.72a10.51,10.51,0,0,0-1.6-.93h4.3l.88.93Zm149.32-3.24.13,0a2.41,2.41,0,0,1,1.43.63H55.08a4.15,4.15,0,0,1-.29-.34l-.13-.13s-.08-.08-.12-.08ZM54,136H48.64a4.31,4.31,0,0,0-.76-.21h5.86S53.86,135.89,54,136Zm-2.15-1.35a3.11,3.11,0,0,1,1.13.38H45.86C46.83,134.54,48.6,134.25,51.8,134.67Zm-6.91,1.14H45c-.05,0-.13,0-.13,0Zm-.13,2.73a1.48,1.48,0,0,1,.3-1.09,1.55,1.55,0,0,1,1.09-.42c1.65-.09,4.13,1.09,6.41,2.95H45.1A5,5,0,0,1,44.76,138.54Zm.68,2.19h8a16.13,16.13,0,0,1,2.31,2.66H47.29A14.23,14.23,0,0,1,45.44,140.73ZM49,145.11c-.34-.29-.68-.63-1-1h8.26a7.55,7.55,0,0,1,1,2.31H50.7A15.69,15.69,0,0,1,49,145.11Zm8.38,2.11a1.3,1.3,0,0,1-.3.93c-.71.8-2.78.42-5.18-1Zm-1.86-6.49h2.87c.76.85,1.6,1.73,2.44,2.66H57.53A13.83,13.83,0,0,0,55.5,140.73Zm6,3.42c.71.75,1.43,1.51,2.15,2.31H58.75a7.08,7.08,0,0,0-.8-2.31Zm2.86,3c.09.12.21.21.3.33h-5.9c0-.12,0-.21,0-.33ZM58.24,149a2.27,2.27,0,0,0,.42-.72h6.7A9.47,9.47,0,0,0,66,149Zm22.87,14.19c-.46-.5-1-1.13-1.64-1.81h1.81v-.76H78.8c-.47-.5-.93-1-1.44-1.6h3.92v-.71H76.69c-.76-.8-1.52-1.65-2.36-2.53h7v-.72H73.66c-.59-.67-1.22-1.34-1.86-2h9.48v-.76H71.13l-1.47-1.6H81.28V150H69c-.33-.34-.67-.72-1-1.06H81.28v-.75h-14c-.3-.34-.59-.64-.89-1H81.28v-.72H65.74c-.21-.21-.38-.42-.59-.63H81.28v-.76H64.43c-.29-.33-.59-.63-.88-1H81.24v-.75H62.88c-.3-.34-.59-.64-.89-1H81.28v-.76h-20c-.3-.34-.59-.63-.89-1H81.28v-.72H59.72c-.51-.54-1-1.09-1.48-1.6H206c.42.47.88,1,1.43,1.6h-1.72v.72h2.44c.29.29.59.63.88,1h-3.32v.76h4c.29.29.59.63.88,1h-4.88v.75h5.56c.29.3.59.64.88,1h-6.44v.76h7.11c.21.21.38.42.59.63h-7.7v.72h8.38c.29.33.59.63.88,1h-9.26v.75h9.94c.33.34.63.72,1,1.06h-10.9v.71h11.62c.46.55,1,1.06,1.47,1.6H205.79V153h13.77c.63.68,1.26,1.35,1.85,2H205.75v.72h16.34c.21.25.46.51.67.76h-17v.71h17.69c.33.34.67.72,1,1.06H205.75V159h19.37c.3.34.59.64.89,1H205.75v1.35h0v-.63h20.89c.25.29.55.59.8.84H205.75v.76h22.4c.3.29.55.59.8.84H81.11Zm.68.72H229.67c.29.34.63.67.88,1H82.63C82.42,164.62,82.12,164.32,81.79,163.9ZM86,167.18c-.13,0-1.1.09-2.7-1.55H231.23l1.43,1.51Zm149.69,0a4,4,0,0,1-1.3-.5h7.16C239.74,167.69,236.75,167.4,235.69,167.14Zm6.7-1.22h-8.85c-.16-.17-.42-.46-.8-.84h7.54a4.23,4.23,0,0,0,1.18.29,3.35,3.35,0,0,0,1.31-.12A2.23,2.23,0,0,1,242.39,165.92Zm.13-2.15a1.18,1.18,0,0,1-.89.17c-1.22-.12-3.28-1.39-5.22-3.83-.17-.21-.3-.42-.46-.63h6c.08.17.17.33.25.54a14.28,14.28,0,0,1,.68,2.24,1.9,1.9,0,0,1-.38,1.51Z"/><path id="path3205" d="M107.77,160.45v-19.3H115c3.41,0,6.11,1,6.11,4.85a5.43,5.43,0,0,1-2,4.21c1.64.55,2.52,2.32,2.52,4.42,0,4.34-2.56,5.82-6.52,5.82Zm5-8V156h2.19c1.22,0,2.14-.34,2.14-1.77,0-1.68-1.18-1.81-2.73-1.81Zm0-6.74v3.2h2.06a1.56,1.56,0,0,0,1.73-1.68c0-1.52-1-1.52-2-1.52ZM136,160.45v-19.3h5v6.53h4.71v-6.53h5v19.3h-5V153H141v7.5h-5Zm18.19-19.3h5V152.7c0,1.89.3,3.53,2.36,3.53,1.77,0,2.32-1.43,2.32-3.53V141.15h5v10.91c0,6.2-2.24,8.89-7.29,8.89-4.72,0-7.33-2.27-7.33-8.93Zm27.59,10.53-.17-4.38v-6.15h4.76v19.3H181.7L176.3,150l.17,4.38v6.11h-4.76v-19.3h4.68Zm6.7-10.53h13.9v5.06h-4.47v14.24h-5V146.21h-4.46Zm-88.33,14.54a2.61,2.61,0,1,0,2.61,2.61A2.56,2.56,0,0,0,100.15,155.69Zm25.44,0a2.61,2.61,0,1,0,2.61,2.61A2.59,2.59,0,0,0,125.59,155.69ZM87,154.89c1.52,1.85,3,1.85,3.83,1.6s1.27-1.06,1.27-2.61V141.15h5V153c0,5.1-1.9,7.71-5.9,8s-4.93-.5-7.12-2.91Z"/></g></g></svg>