<svg id="Layer_1" data-name="Layer 1" xmlns="http://www.w3.org/2000/svg" viewBox="0 0 300 300"><defs><style>.cls-1{fill:#2e4b93;}.cls-2{fill:#2564a1;}.cls-3{fill:#66be6d;}.cls-4{fill:#269ece;}.cls-5{fill:#42b89e;}</style></defs><path class="cls-1" d="M154.93,267.75l-19.52,19.09c-11.06-.6-22.25-3.52-34.29-7.83,10-11.06,19-21.89,26.39-33.95,20.42-33.38,30.57-70.09,35.32-108.57,5-40.85,3.47-81.66-1-122.16,1.24-1.55,2.59-1.05,3.78-1a38.36,38.36,0,0,1,4.08.79c4.45,8.44,6.79,17.81,10,26.85,2,6.51,2.65,13.44,5.71,19.66a136.37,136.37,0,0,0,4.78,24.25c1.71,20.36,4,40.69,3.42,61.18q-.84,12.27-1.69,24.54c-2.58,21-8.36,41.23-15.46,61.1a92.69,92.69,0,0,0-8.32,16.49Z"/><path class="cls-2" d="M75.56,266.52c-4.65-3.43-8.8-6.36-12.81-9.47-2.39-1.86-4.58-4-7.93-6.94,5.84-5.47,11.85-10.22,16.83-15.88,26.94-30.66,40.92-67.51,49.78-106.63a412.54,412.54,0,0,0,9.94-93.87c0-6.58,0-13.15,0-19.34,2.92-1.48,5.17-1.4,8.1-.94A265.41,265.41,0,0,1,149.79,62.1c5.24,42.19,3.67,83.81-11.45,124.11C125.93,219.27,105.55,246.17,75.56,266.52Z"/><path class="cls-2" d="M39.6,232.53a104.79,104.79,0,0,1-12.5-19.72c54.23-51.91,69.51-119.4,75.1-191,1.34-1.81,3.51-2.33,6.53-2.72,3.38,9.24,4.37,19.07,4.92,28.75C117.78,120.58,103.59,186,39.6,232.53Z"/><path class="cls-3" d="M266.34,78.94c2.77,2.14,3.52,4.85,5,7.84-17,21.12-26.71,45.6-30,72.63s.89,53.14,13.45,77.68c-2.07,5.37-6.5,8.34-10.72,12.58-24.73-24.06-39.39-52-36.5-86.48C210.93,124.22,233.38,97.69,266.34,78.94Z"/><path class="cls-4" d="M80.82,31.62c6.7,54-12.79,128.91-62.7,157.2-3.45-6.12-3.67-13-5.08-19.88,20.62-24.26,35.82-51.69,46.68-81.58A359.65,359.65,0,0,0,73.23,40.51C74.12,36.4,75.18,32.51,80.82,31.62Z"/><path class="cls-3" d="M283.51,118.71c7.37,35.36,3.14,68.38-14.76,100.06C245.06,187.88,252.77,141.76,283.51,118.71Z"/><path class="cls-5" d="M176.38,231.74c7.1-19.87,12.88-40.08,15.46-61.1,1.25,9.26,2,18.61,3.84,27.75,4.87,24.1,15.91,45.32,31.76,64.23-4.13,4.2-8.76,6.61-13.72,8.89C198.54,260.61,185.8,247.75,176.38,231.74Z"/><path class="cls-5" d="M193.53,146.1c.61-20.49-1.71-40.82-3.42-61.18,12.33-13.85,29.86-26.3,51.14-36.33,3,.64,4.15,3.23,6.16,5.3-7.57,8-15.25,15.29-22.08,23.34C208.4,97.19,198.65,120.61,193.53,146.1Z"/><path class="cls-4" d="M54.22,52.14c-5.68,33.07-16.94,62.9-40.66,87.7C11.05,114.14,32.6,67.77,54.22,52.14Z"/><path class="cls-4" d="M154.93,267.75l13.13-19.52a324,324,0,0,0,24.64,31.33c-4.89,4.05-10.7,3.66-16,5.68C168.6,280.46,161.89,273.94,154.93,267.75Z"/><path class="cls-4" d="M185.33,60.67c-3.06-6.22-3.66-13.15-5.71-19.66,9.69-4.36,18.12-11.12,28.39-14.87,2.64.24,5,1.67,8.08,4.06Z"/></svg>