<svg id="Layer_1" data-name="Layer 1" xmlns="http://www.w3.org/2000/svg" viewBox="0 0 300 300"><defs><style>.cls-1{fill:#fff;}</style></defs><title>JKHY_Dark_bg</title><g id="layer1"><g id="g2105"><path id="path330" class="cls-1" d="M59.65,126.93h0c-.27,1.25-.76,3.34-1.24,5.57H48.92c.42-1.95.7-3.76,1-5.57Zm-1.31,7.38h0c-1.52,7-2.77,14-4.16,23.1-.69,4.25-2.35,7.38-9.41,7.38a41.31,41.31,0,0,1-7.27-.63l.42-7.3a8.18,8.18,0,0,0,2.56.48c2.42,0,3.53-1,4.22-3.48,1.11-4,2.15-10.23,3.6-19.55Z"/><path id="path340" class="cls-1" d="M80.7,155h0c1.45-7.73,2.91-15.39,4.15-20a57.14,57.14,0,0,0-11.63-1.25c-8.44,0-14.4,4.87-15.5,12.11-.84,5.08,1.73,9.26,7.06,9.26a12.77,12.77,0,0,0,6.57-2,11.44,11.44,0,0,1-.48,1.88ZM73.85,141.2h0c-.35,2.29-1.46,6.89-4.57,6.89-1.53,0-2-1.47-1.8-2.86A5,5,0,0,1,72.39,141,5.26,5.26,0,0,1,73.85,141.2Z"/><path id="path350" class="cls-1" d="M100.09,154.7h0a27.46,27.46,0,0,1-6.58.83c-9.42,0-9.83-6.54-9.28-10.37,1.11-6.82,5.26-11.41,13.64-11.41a26.76,26.76,0,0,1,6.71.83l-.76,7.45A13.92,13.92,0,0,0,99,141c-2.5,0-4.3,1.18-4.71,3.75-.35,2.37.83,3.56,3.11,3.56a15.35,15.35,0,0,0,5.13-1.12Z"/><path id="path360" class="cls-1" d="M122,134.31h10.81l-7.49,9.11L129.09,155H118.57l-3.19-11.63ZM102.78,155h0a271.37,271.37,0,0,0,5.61-27.56h9.9c-2.21,9.18-4.15,18.37-5.61,27.56Z"/><path id="path370" class="cls-1" d="M153.6,127.42h0c-.76,3.06-1.59,6.12-2.07,9a12.56,12.56,0,0,1,7.89-2.71c5.67,0,7.2,2.71,6.64,6.05-.21,1.67-1.94,9-3,15.18h-10c.69-3.14,1.52-6.2,2-9.33.28-1.46.63-4-1.31-4s-3.18,2.16-3.74,3.83a78.14,78.14,0,0,0-2.28,9.54H137.54c2.21-8.56,4.09-16.57,5.88-27.56Z"/><path id="path380" class="cls-1" d="M189.33,146.14h0c.34-1.12.62-2.16.83-3.13,1-6.89-3.75-9.26-9.84-9.26-10.94,0-13.64,8.14-14.19,11.69-1.59,10.09,8.1,10.09,11.36,10.09a41.74,41.74,0,0,0,7.68-.76l2.28-7a32.61,32.61,0,0,1-7.68,1.32c-2.08,0-4.5-.28-4.08-2.92Zm-12.89-3.76h0c.42-1.46,1.25-3,3-3,1.38,0,1.86,1,1.66,2.22l-.14.77Z"/><path id="path390" class="cls-1" d="M202.62,136.46h0a12.41,12.41,0,0,1,7.89-2.71c5.61,0,7.13,2.71,6.58,6.12-.22,1.67-1.94,8.91-3,15.11h-10c.69-3.07,1.45-6.2,1.94-9.26.27-1.53.62-4.11-1.32-4.11s-3.19,2.23-3.74,3.9a77.08,77.08,0,0,0-2.28,9.47h-10.1a193.52,193.52,0,0,0,4.56-20.67h9.9Z"/><path id="path400" class="cls-1" d="M228.37,136.18h0c1.66-1.39,3.19-2.43,5.26-2.43a5.39,5.39,0,0,1,1.53.21l-1,8.28a6.32,6.32,0,0,0-2-.35,5.24,5.24,0,0,0-5.06,3.27,32.82,32.82,0,0,0-1.58,6.82,20.44,20.44,0,0,0-.35,3h-10a210.51,210.51,0,0,0,4.08-20.67h9.42Z"/><path id="path410" class="cls-1" d="M246.37,134.31h-9.76l3.53,21a4.11,4.11,0,0,1-4.15,2.93,7.18,7.18,0,0,1-4-1.26l-.07,7.17a23.4,23.4,0,0,0,5.47.63c3.88,0,7.89-.77,11-6.2l14.12-24.28H253L247,146.9Z"/><path id="path420" class="cls-1" d="M64.92,165h0c1.31,1.88,2.7,3.62,4.08,5.36A5.23,5.23,0,0,1,65.61,172a3.16,3.16,0,0,1-3.19-3.27,4.27,4.27,0,0,1,2.36-3.62c.07-.07.14-.07.14-.14Zm5.67,4.52h0a43.2,43.2,0,0,0,2.91-4.1,5.13,5.13,0,0,1-.83-.91,40.71,40.71,0,0,1-2.56,4.39L69,167.57c-1-1.11-1.73-2.29-2.63-3.48,1.38-1,2.91-2.15,2.91-4.1,0-1.46-1.25-2.3-2.84-2.3A3.11,3.11,0,0,0,63.12,161a6.72,6.72,0,0,0,1.45,3.55l-.14.07c-2,1-3.74,2.51-3.74,4.66,0,2.37,1.73,3.76,4.09,3.76a6,6,0,0,0,4.64-2.16c.48.63.9,1.26,1.31,1.88.42,0,.83-.07,1.25-.07s.9.07,1.31.07ZM66,163.61h0a5.81,5.81,0,0,1-1.38-3.2c0-1.19.62-2.16,1.8-2.16a1.75,1.75,0,0,1,1.73,1.88A4.4,4.4,0,0,1,66,163.61Z"/><path id="path430" class="cls-1" d="M85.13,157.13h-.48L78,172.79a2.13,2.13,0,0,1,.69-.07,3.29,3.29,0,0,1,.83.07c.63-2.15,1.39-4.1,2.15-6h5.4c.83,2,1.66,4.17,2.28,6a5.61,5.61,0,0,1,1.11-.07,6.3,6.3,0,0,1,1.11.07Zm1.59,8.63H82l2.35-5.7Z"/><path id="path440" class="cls-1" d="M92.68,169.73h0c.83,1.46,1.8,2.37,3.46,2.37a3.12,3.12,0,0,0,3-3.27c0-4.18-6.72-2.37-6.72-7.45,0-2.85,2.15-4.25,4.71-4.25a4.66,4.66,0,0,1,3.11,1.05A14.76,14.76,0,0,0,99.6,160h-.21a2.73,2.73,0,0,0-2.63-2,2.61,2.61,0,0,0-2.7,2.64c0,4.11,6.72,2.51,6.72,7.24a5,5,0,0,1-5.26,5.15,5.29,5.29,0,0,1-3.47-1.32,10.18,10.18,0,0,0,.35-2Z"/><path id="path450" class="cls-1" d="M102.09,169.73h0c.83,1.46,1.8,2.37,3.46,2.37a3.11,3.11,0,0,0,3-3.27c0-4.18-6.71-2.37-6.71-7.45,0-2.85,2.14-4.25,4.77-4.25a4.63,4.63,0,0,1,3,1.05,7.63,7.63,0,0,0-.56,1.81h-.27a2.74,2.74,0,0,0-2.63-2,2.6,2.6,0,0,0-2.7,2.64c0,4.11,6.78,2.51,6.78,7.24a5,5,0,0,1-5.33,5.15,5.25,5.25,0,0,1-3.46-1.32,18.08,18.08,0,0,0,.41-2Z"/><path id="path460" class="cls-1" d="M119.12,173.07h0c4.78,0,8.17-3.27,8.17-8.28,0-5.43-4.08-7.66-8.1-7.66a7.62,7.62,0,0,0-8,8A7.51,7.51,0,0,0,119.12,173.07Zm6-8.14h0c.2,2.5-1.46,7.38-6,7.38-3.18,0-5.88-2.37-5.88-7s2.28-7.52,6.09-7.52a5.68,5.68,0,0,1,4.43,2.16,7.83,7.83,0,0,1,1.32,4.94Z"/><path id="path470" class="cls-1" d="M140.38,171.75h0a7.92,7.92,0,0,1-4.71,1.25c-4.71,0-7.55-3.06-7.55-8s3.54-7.87,8.11-7.87a11.36,11.36,0,0,1,4.56,1,7.21,7.21,0,0,0-.41,1.74l-.14.07a5.83,5.83,0,0,0-4.09-1.95c-3.94,0-6,3.34-6,7.17,0,4.24,2.35,7,5.75,7a7.49,7.49,0,0,0,4.57-1.81Z"/><path id="path480" class="cls-1" d="M142.38,157.41h0a4,4,0,0,0,.91.07,5,5,0,0,0,1-.07v15.38a5,5,0,0,0-1-.07,4,4,0,0,0-.91.07Z"/><path id="path490" class="cls-1" d="M152.91,157.13h-.49l-6.64,15.66a2.49,2.49,0,0,1,.75-.07,3.1,3.1,0,0,1,.77.07c.62-2.15,1.38-4.1,2.14-6h5.41c.89,2,1.66,4.17,2.28,6a5.56,5.56,0,0,1,1.11-.07,6.13,6.13,0,0,1,1.1.07Zm1.66,8.63h-4.78l2.36-5.7Z"/><path id="path500" class="cls-1" d="M163.43,172.79h0c-.35,0-.69-.07-1-.07s-.62.07-1,.07V158.53a35.87,35.87,0,0,0-4.64.27c0-.21.08-.48.08-.69s-.08-.42-.08-.7h11c0,.28-.07.49-.07.7s.07.48.07.69a33.89,33.89,0,0,0-4.43-.27Z"/><path id="path510" class="cls-1" d="M170.84,164.09h3.32c.62,0,1.25-.07,1.87-.07,0,.14-.07.35-.07.56s.07.42.07.63c-.62,0-1.25-.07-1.87-.07h-3.32v6.54c1.31,0,2.56-.07,3.88-.14a9.22,9.22,0,0,0,1.94-.21c0,.28-.08.49-.08.7s.08.42.08.69H168.9V157.41h7.62c0,.28-.08.49-.08.7s.08.49.08.69a16.49,16.49,0,0,0-1.94-.27h-3.74Z"/><path id="path520" class="cls-1" d="M178,169.73h0c.83,1.46,1.8,2.37,3.46,2.37a3.11,3.11,0,0,0,3-3.27c0-4.18-6.71-2.37-6.71-7.45,0-2.85,2.22-4.25,4.78-4.25a4.36,4.36,0,0,1,3,1.05A7.62,7.62,0,0,0,185,160h-.21a2.82,2.82,0,0,0-2.7-2,2.6,2.6,0,0,0-2.69,2.64c0,4.11,6.78,2.51,6.78,7.24a5.05,5.05,0,0,1-5.34,5.15,5.29,5.29,0,0,1-3.46-1.32,9.69,9.69,0,0,0,.42-2Z"/><path id="path530" class="cls-1" d="M192.58,157.41h0a4.13,4.13,0,0,0,1,.07,4.31,4.31,0,0,0,.91-.07v15.38a4.31,4.31,0,0,0-.91-.07,4.13,4.13,0,0,0-1,.07Z"/><path id="path540" class="cls-1" d="M209.33,172.79h-.62a14.81,14.81,0,0,0-1.11-1.39l-9.27-10.72h-.22v12.11a1.85,1.85,0,0,0-.62-.07,1.46,1.46,0,0,0-.55.07V157.41h.83L208,169h.2V157.41a1.77,1.77,0,0,0,.63.07,1.68,1.68,0,0,0,.55-.07Z"/><path id="path550" class="cls-1" d="M223.24,171.75h0a8.14,8.14,0,0,1-4.7,1.25c-4.71,0-7.54-3.06-7.54-8s3.52-7.87,8-7.87a11.74,11.74,0,0,1,4.64,1,15.5,15.5,0,0,0-.48,1.74l-.14.07A5.52,5.52,0,0,0,219,158c-3.94,0-5.88,3.34-5.88,7.17,0,4.24,2.36,7,5.74,7a7.87,7.87,0,0,0,4.57-1.81Z"/><path id="path560" class="cls-1" d="M225.74,170.29h0a1.3,1.3,0,0,1,1.25,1.32,1.26,1.26,0,0,1-1.25,1.32,1.32,1.32,0,0,1,0-2.64Z"/><path id="path570" class="cls-1" d="M255,158.66h.42a.92.92,0,0,0,.49-.07c.13-.13.2-.2.2-.34a.53.53,0,0,0-.14-.35,1.07,1.07,0,0,0-.55-.14H255Zm-.89-1.53h1.58a1.44,1.44,0,0,1,1,.28,1.12,1.12,0,0,1,.35.77.83.83,0,0,1-.21.62,1.89,1.89,0,0,1-.76.42.36.36,0,0,1,.28.14.76.76,0,0,1,.28.35s.2.35.62,1h-1a7.55,7.55,0,0,0-.69-1.18.64.64,0,0,0-.35-.21H255v1.39h-.89Zm4.21,1.81h0a2.72,2.72,0,0,0-.75-1.88,2.65,2.65,0,0,0-1.94-.83,2.62,2.62,0,0,0-1.94.83,2.7,2.7,0,0,0-.77,1.88,2.83,2.83,0,0,0,.77,1.95,2.53,2.53,0,0,0,1.94.77,2.55,2.55,0,0,0,1.94-.77A2.86,2.86,0,0,0,258.27,158.94Zm.63,0h0a3.84,3.84,0,0,1-.41,1.74,3,3,0,0,1-1.25,1.19,2.81,2.81,0,0,1-1.66.48,2.77,2.77,0,0,1-1.66-.48,2.94,2.94,0,0,1-1.25-1.19,3.75,3.75,0,0,1,0-3.41,3.64,3.64,0,0,1,1.25-1.25,3.23,3.23,0,0,1,1.66-.42,3.28,3.28,0,0,1,1.66.42,3.73,3.73,0,0,1,1.25,1.25A3.84,3.84,0,0,1,258.9,158.94Z"/></g></g></svg>