<?xml version="1.0" encoding="utf-8"?>
<!-- Generator: Adobe Illustrator 24.0.1, SVG Export Plug-In . SVG Version: 6.00 Build 0)  -->
<svg version="1.1" id="Layer_1" xmlns="http://www.w3.org/2000/svg" xmlns:xlink="http://www.w3.org/1999/xlink" x="0px" y="0px"
	 viewBox="0 0 300 300" style="enable-background:new 0 0 300 300;" xml:space="preserve">
<style type="text/css">
	.st0{fill:#FF1F2E;}
</style>
<title>JNJ_Light_bg</title>
<g>
	<path class="st0" d="M151.1,144.9c-0.3-4.1-3.4-7-5-10.6c2-2.6,5.1-3.1,7.7-4.1c1.9-0.8,2.7,0.9,3.5,2.3c1.9,3.6,2.2,7.5,2.6,11.4
		c0.3,2.6,0.5,5.3,0.8,8.3c5.6-0.9,11.3-1.5,17-1.6c-11.4-23.4-9.8-44.8,8.3-63.6c7.6-8,16.6-14,29-14.7
		c-1.1,12.3-4.4,23.5-3.9,35.1c0.5,11.6,1.7,22.9,3.3,35c3-2.3,5.6-4.4,8.2-6.3c3.5-2.8,7.3-5.3,11.2-7.4c1.7-0.9,3.9-2,5.3,0.2
		c1.6,2.5-0.9,3.5-2.5,4.5c-6.7,4.1-13,8.8-18.9,14.1c-1.9,1.5-2.8,3.8-2.5,6.2c0.9,14.6,1.4,29.2-3.1,43.4
		c-2.5,8-5.3,15.7-10.4,22.4c-2.6,3.5-5.7,6.6-10.1,7.8c-4.6,1.4-9.6-0.7-11.8-5c-1.5-2.9-2.3-6.1-2.4-9.3
		c-0.6-14.6,4.3-27.6,11.5-39.9c1-1.8,2.2-3.6,3.4-5.6l-9.6-10.5c-1.2-1-2.7-1.6-4.3-1.5c-5.3-0.3-10.7,0.3-15.8,1.7
		c-1.6,0.2-2.7,1.6-2.6,3.2c-0.1,3-0.9,5.9-2.3,8.5c-0.4,0.9-1.3,1.6-2.3,1.6c-1.2-0.2-2-1.2-2-2.4c-0.3-2.6-0.4-5.3-0.6-7.9
		c-1.6-1.1-3.1-0.2-4.5-0.1c-6.7,0.9-13.5,0.2-20-1.9c-5.2-1.9-9.2-4.8-9.3-11.7c-4.6,0.8-8.9,2.6-12.8,5.2
		c-1.7,1.2-0.9,3.1-0.8,4.7c1.2,15.1,0.4,30-4.4,44.5c-2.1,7-5.5,13.6-9.9,19.3c-3.9,4.8-8.6,9-15.5,6.8c-6.5-2.2-7.9-8.1-8.1-14
		c-0.4-15.3,4.3-29.3,12.1-42.3c0.7-1.2,1.4-2.4,2.3-3.8l-6.8-7.3C50.8,133.6,57,92.8,92.5,75.2c2.6-1.3,5.5-2.2,8.4-2.5
		c3.6-0.4,4.6,0.5,3.7,3.9c-5.4,22.6-3.2,45.2-0.1,67.8c0,0.2,0.3,0.4,0.6,0.8c15.1-6.7,30.2-9.2,45.2,0.5c0.3,0.2,0.7,0.6,0.7,0.6
		C151.6,145.8,151.4,145.3,151.1,144.9z M86.1,161c5-3.1,6.5-6.8,5.1-12.8c-5.6-21.9-3.3-45,6.4-65.4c0.7-1.5,1.7-2.9,1.4-4.9
		c-2.3-0.6-4.1,0.5-5.9,1.6c-4.2,2.6-7.7,6.2-10.3,10.3C70.1,108.1,68.6,140.3,86.1,161z M208.5,77.7c-6.1,1.1-10.4,4.7-13.7,9.3
		c-13.3,18.3-14.7,38.3-7.6,59.2c2,5.6,5.2,10.8,9.3,15.2c5.8-6.3,5.8-6.3,4.3-14.3c-1.6-9.3-3.1-18.5-2.6-28
		c0.7-12.7,4.3-24.5,9.2-36.1C208.1,81.5,209.2,80.1,208.5,77.7z M93.7,163.3c-0.6,0.2-0.9,0.1-1.1,0.3c-0.6,0.6-1.1,1.2-1.7,1.9
		c-7.2,9.2-12.2,19.9-14.6,31.3c-1,4.9-1.8,10-0.9,15c1.1,6.1,6.1,7.8,10.9,3.9c2.8-2.4,4.8-5.5,6-9
		C97.6,192.4,96.1,177.9,93.7,163.3z M203.5,162.7c-8.4,11.2-14.7,22.3-17.5,35.1c-0.9,4.1-1.2,8.3-0.8,12.5c0.3,3,1,6,4.3,7.1
		c3.3,1.1,5.7-0.5,7.9-2.7c2.6-2.8,4.4-6.2,5.4-9.8C207.3,191.3,206,177.6,203.5,162.7z M151.4,153.8c-3.7-4.9-9.4-7.9-15.5-8.1
		c-1.9-0.1-3.8,0.4-4.3,2.5c-0.6,2.3,1.1,3.7,3,4.5C139.8,154.8,145.3,154.9,151.4,153.8L151.4,153.8z"/>
</g>
</svg>
