<svg id="Layer_1" data-name="Layer 1" xmlns="http://www.w3.org/2000/svg" viewBox="0 0 300 300"><defs><style>.cls-1{fill:#fff;}</style></defs><path class="cls-1" d="M147.5,171.75h1.61l8.31,11.46V171.75h1.43v13.9H157.5l-8.57-11.8v11.8H147.5Z"/><path class="cls-1" d="M162.39,171.75h9.19v1.41h-7.71v4.59h7.52v1.39h-7.52v5.15h7.79v1.36h-9.27Z"/><path class="cls-1" d="M179,173.16h-5.22v-1.41h11.91v1.41h-5.21v12.49H179Z"/><path class="cls-1" d="M187.52,171.75H189l3.66,11.49,3.73-11.49h1.27l3.72,11.49,3.67-11.49h1.43l-4.47,14h-1.27L197,174.17l-3.73,11.57H192Z"/><path class="cls-1" d="M207.85,178.69c0-4.95,2.53-7.17,7-7.17s7,2.22,7,7.17-2.55,7.18-7,7.18S207.85,183.66,207.85,178.69Zm12.51,0c0-3.76-1.75-5.78-5.53-5.78s-5.5,2-5.5,5.78,1.73,5.79,5.5,5.79S220.36,182.48,220.36,178.71Z"/><path class="cls-1" d="M230.47,180H226.3v5.67h-1.44v-13.9h6c3.23,0,4.69,1.29,4.69,4.05,0,2.4-1.15,3.81-3.57,4.12l3.36,5.73h-1.57Zm.41-1.35c2,0,3.19-.6,3.19-2.79s-1.18-2.72-3.25-2.72H226.3v5.51Z"/><path class="cls-1" d="M242.92,178.27l-2.78,3v4.34H238.7v-13.9h1.44v7.67l7-7.67h1.7l-5,5.46,5.67,8.44h-1.67Z"/><path class="cls-1" d="M250.79,184.24l.75-1.13a9,9,0,0,0,5,1.41c2.87,0,4.15-.81,4.15-2.72s-1.65-2.25-4.15-2.7c-3-.53-5-1-5-3.84s1.72-3.74,5-3.74a8.42,8.42,0,0,1,4.84,1.24l-.78,1.2a7.68,7.68,0,0,0-4.06-1.09c-2.49,0-3.56.7-3.56,2.35s1.45,2.1,3.92,2.55c3,.54,5.23,1,5.23,4,0,2.76-1.76,4.09-5.55,4.09A10.1,10.1,0,0,1,250.79,184.24Z"/><path class="cls-1" d="M276.63,114.31c-19.53,0-20.36,8.76-20.36,21.11v30.31h4.6V135.42c0-9.31-.37-16.77,15.76-16.77a40.21,40.21,0,0,1,4.64.25v-4.39C279.85,114.38,278.31,114.31,276.63,114.31Z"/><path class="cls-1" d="M48.77,146V115.33h4.7V146.1c0,8.85-.09,16.31,16.13,16.31S85.36,155,85.36,145.64V115.33H90v30.31c0,12.35-.84,21.11-20.37,21.11S48.77,158,48.77,146Z"/><path class="cls-1" d="M139,135.05v30.68h-4.7V135c0-8.85.09-16.31-16.12-16.31s-15.76,7.46-15.76,16.77v30.31H97.76V135.42c0-12.35.83-21.11,20.37-21.11S139,123.07,139,135.05Z"/><path class="cls-1" d="M147.5,115.42H152v50.31H147.5Z"/><path class="cls-1" d="M160.46,115.42H184c11.68,0,17,5.81,17,16.13s-5.23,16.7-17,16.7H165v17.48h-4.51Zm23.62,28.31c8.14,0,12.18-4,12.18-12s-4.36-11.81-12.38-11.81H165v23.79Z"/><path class="cls-1" d="M206.24,140.39c0-14.83,4.24-26.26,23.22-26.26,19.63,0,20.27,13.18,20.18,27.09H210.75c.1,12.26,3.14,21.38,19.08,21.38,8.47,0,12.35-2.3,16.49-5.35l2.58,3.41c-4.6,3.41-10,6.09-19.07,6.09C209.92,166.75,206.24,155.23,206.24,140.39Zm4.61-3.41h34.27c-.46-10-1.1-18.61-15.75-18.61C215.27,118.37,211.4,126,210.85,137Z"/><path class="cls-1" d="M20.48,176.65c19.54,0,20.37-8.75,20.37-21.1V115.33H36.24v40.22c0,9.3.37,16.77-15.76,16.77-.61,0-1.19,0-1.75,0v4.35Z"/><path class="cls-1" d="M271,166a3.18,3.18,0,1,1,3.18-3.18A3.18,3.18,0,0,1,271,166Zm0-5.95a2.77,2.77,0,1,0,2.77,2.77A2.77,2.77,0,0,0,271,160Z"/><path class="cls-1" d="M271.16,163.19h-1v1.41h-.48V161h1.62c.93,0,1.29.37,1.29,1.1a1,1,0,0,1-.89,1.11l.83,1.44H272Zm.12-.45c.5,0,.78-.15.78-.68s-.28-.65-.8-.65h-1.12v1.33Z"/></svg>