<svg id="Layer_1" data-name="Layer 1" xmlns="http://www.w3.org/2000/svg" viewBox="0 0 300 300"><path d="M42.57948,121.917H26.49892v1.38078h5.1206v26.90274c0,8.10638-2.24589,10.378-7.18682,10.378a3.35769,3.35769,0,0,1-3.63832-3.60782c0-2.93974-.17967-4.766-2.82982-4.766S15,154.92187,15,155.76809c0,3.69683,2.82982,6.54757,10.10647,6.54757,8.66911,0,12.12783-2.93974,12.12783-12.82785v-26.19h5.30027V121.917Z" fill="#fff"/><path d="M43.65731,156.08043a2.993,2.993,0,0,0-2.24588.89086,3.07908,3.07908,0,0,0-.94324,2.27153,2.91367,2.91367,0,0,0,.94324,2.227,3.27638,3.27638,0,0,0,4.49177,0,2.87715,2.87715,0,0,0,.89832-2.227,3.221,3.221,0,0,0-.89832-2.27153A3.171,3.171,0,0,0,43.65731,156.08043Z" fill="#fff"/><path d="M78.02031,156.08043a2.993,2.993,0,0,0-2.24589.89086,3.14061,3.14061,0,0,0,2.24589,5.38942,3.09364,3.09364,0,0,0,2.29079-.89087,2.91367,2.91367,0,0,0,.94324-2.227,3.07908,3.07908,0,0,0-.94324-2.27153A3.27862,3.27862,0,0,0,78.02031,156.08043Z" fill="#fff"/><path d="M65.89188,143.29667H62.70276V123.52049l2.91966-.04454c9.38786,0,11.40906,3.9196,11.40906,10.19986C77.03148,140.04514,73.34822,143.29667,65.89188,143.29667ZM68.048,121.917H52.32675v1.38078h4.62664V154.031c0,2.40517-.13487,2.53881-.40433,3.20689a3.10759,3.10759,0,0,1-1.88647,1.78173,8.45829,8.45829,0,0,1-3.23416.48993v1.7816H68.31754v-1.7816a10.93962,10.93962,0,0,1-3.23417-.44543,3.216,3.216,0,0,1-1.97629-1.82623,5.99594,5.99594,0,0,1-.40432-2.49431v-9.97711h4.1774c12.17266,0,15.54155-4.855,15.54155-11.49154C82.46662,126.63835,80.35547,121.917,68.048,121.917Z" fill="#fff"/><path d="M130.79852,157.14889a8.89563,8.89563,0,0,1-.3145-2.67245V123.29779h4.08758V121.917h-9.9269c-.13474.35633-11.94812,30.10962-11.94812,30.10962a.29286.29286,0,0,1-.53891,0S99.58069,122.27334,99.446,121.917H88.39617v1.38078h4.58159v29.976l-.08982,2.7616a4.2405,4.2405,0,0,1-.67378,1.91524,3.54489,3.54489,0,0,1-1.75174,1.29166,7.421,7.421,0,0,1-2.29079.31179v1.78159H99.40105v-1.78159a6.06688,6.06688,0,0,1-1.88661-.31179,3.35871,3.35871,0,0,1-1.79665-1.24716,4.2372,4.2372,0,0,1-.67378-1.95974l-.13473-2.7616V127.44009h.67378s14.194,33.53928,14.32872,33.89557h1.21269l13.43041-33.53925h.35941v26.68a9.16233,9.16233,0,0,1-.35941,2.76146,3.16474,3.16474,0,0,1-1.66193,1.82623,7.98872,7.98872,0,0,1-2.78494.48994v1.78159h15.317v-1.78159a7.57376,7.57376,0,0,1-2.82985-.53444A2.96738,2.96738,0,0,1,130.79852,157.14889Z" fill="#fff"/><path d="M151.32557,160.75658c-6.154,0-7.09719-3.11775-7.09719-13.0505,0-7.70544.494-13.49582,7.09719-13.49582,7.14211,0,7.1869,5.96852,7.1869,13.00589C158.51247,157.2824,156.80563,160.75658,151.32557,160.75658Zm.08955-28.28342c-8.175,0-13.29553,5.4786-13.29553,15.05478,0,14.03037,10.7802,14.96573,13.11644,14.96573,4.62663,0,13.38467-2.8951,13.38467-15.23288C164.6207,137.68447,159.00633,132.47316,151.41512,132.47316Z" fill="#fff"/><path d="M186.0009,132.91836c-4.89662,0-6.60346,2.93974-7.906,5.87935,0,0-.35955-.0445-.40433,0-.04477,0-.98774-5.65665-.98774-5.65665h-9.298v1.51439h5.07572v19.37528c0,1.91524-.08955,3.42968-.58341,4.23141-.58478.93536-1.75161,1.29165-3.68367,1.29165h-.80864v1.7816h15.85673v-1.7816h-.85342c-2.06638,0-3.145-.44543-3.68367-1.3808a8.32258,8.32258,0,0,1-.71909-4.14226V143.96448c0-3.385,2.69457-7.26015,5.75-7.26015,3.18844,0,3.278,4.6322,6.69167,2.93975C192.873,138.48592,192.33437,132.91836,186.0009,132.91836Z" fill="#fff"/><path d="M240.891,155.50135c0,.089,0,.17815-.0909.22265l-.13432.13364c-2.69459,2.49432-4.80574,3.385-6.28871,3.385-3.90752,0-4.49095-3.2959-4.49095-4.89948,0-5.25577,7.096-7.88373,11.00488-7.88373Zm8.30894,2.98425c-1.70683,0-2.24548-.93537-2.3798-2.53882l-.09091-3.60782V140.53562c0-2.53882-.40432-4.27591-1.88592-5.74582-1.483-1.51439-4.2671-2.27158-8.39985-2.27158-3.90754,0-6.82735.75719-8.71328,2.18249-1.79773,1.38072-2.51546,2.67252-2.51546,4.54311a2.25695,2.25695,0,0,0,.71773,1.87074,2.386,2.386,0,0,0,1.70685.62358c1.5725,0,2.4707-.80173,2.78546-2.89511a5.32856,5.32856,0,0,1,1.34729-3.25153,5.00968,5.00968,0,0,1,3.77322-1.29165c1.97684,0,3.41366.53449,4.17753,1.64807a7.03652,7.03652,0,0,1,1.12342,4.09776V144.767c-5.07572.48993-17.06969,1.4253-16.57582,10.68969a7.37029,7.37029,0,0,0,7.45687,6.77022c4.49231,0,7.366-2.58332,9.29805-4.6767a5.2865,5.2865,0,0,0,5.39049,4.32041c3.68232,0,5.88438-1.8261,6.153-6.41393h-.943C251.44674,157.41659,250.23378,158.4856,249.1999,158.4856Z" fill="#fff"/><path d="M281.6311,158.3065c.67434.89073,1.66207,1.158,3.3689,1.29166v1.78159H271.79442v-1.78159a4.45136,4.45136,0,0,0,2.20072-.62358,2.83482,2.83482,0,0,0,1.03386-2.00437,22.04646,22.04646,0,0,0,.13432-3.38505v-9.22c0-2.227-.13432-5.07763-.8982-6.59207-.67431-1.33616-1.79637-2.00424-3.86276-2.00424a6.11869,6.11869,0,0,0-5.52481,3.16239c-1.03388,1.87073-1.03388,4.855-1.03388,7.97273v7.43844a7.14466,7.14466,0,0,0,.76387,3.96411A3.48421,3.48421,0,0,0,267.393,159.509v1.78173H253.69222V159.509a7.19911,7.19911,0,0,0,2.38114-.40079,2.75965,2.75965,0,0,0,1.61729-1.82624,12.1212,12.1212,0,0,0,.31342-3.296V134.56618h-4.31185v-1.46986h8.66984l.98774,5.12218h.44908a9.49862,9.49862,0,0,1,9.119-5.434,9.13325,9.13325,0,0,1,4.17619.93535,6.79252,6.79252,0,0,1,2.875,2.85066,10.19484,10.19484,0,0,1,.94295,4.72134V154.0751C280.82247,155.5449,280.95814,157.41564,281.6311,158.3065Z" fill="#fff"/><path d="M205.9904,151.893c-3.59412,0-5.6605-1.33629-5.6605-8.77459,0-5.25577,1.79774-9.13088,5.6605-9.13088,4.49095,0,5.8396,3.56332,5.8396,9.04174C211.83,150.86848,209.40408,151.893,205.9904,151.893Zm13.65467-20.53339a2.8384,2.8384,0,0,0-1.662,2.22706q-.33582,1.73708-1.213,2.0043a2.71478,2.71478,0,0,1-1.97549-.13358c-1.43819-1.33623-4.17753-2.98425-8.93849-2.98425-7.72687,0-11.14055,5.56764-11.14055,10.64527,0,5.96849,2.24684,8.8191,7.23166,9.88811.31477.0445.31477.40079.04478.44543-4.22233.84623-7.99419,2.13788-7.99419,6.19114a4.61391,4.61391,0,0,0,3.18845,4.54319,23.435,23.435,0,0,0,8.2194,1.29166c3.01069.0445,5.16663.13364,6.60347.31179a7.75672,7.75672,0,0,1,3.59412,1.24716,3.84165,3.84165,0,0,1,1.39206,3.16239q0,2.80609-2.96459,4.54319a15.603,15.603,0,0,1-7.50164,1.60344c-2.69459,0-4.89528-.26728-6.9169-1.55894a3.71316,3.71316,0,0,1-1.43818-4.05326c.27-1.33616-.17911-2.717-1.70683-2.98424a2.54337,2.54337,0,0,0-2.3798,1.069,4.70183,4.70183,0,0,0-.62955,2.58345c0,3.34054,2.56026,4.89948,4.53707,5.52306a23.11619,23.11619,0,0,0,7.72553,1.158,19.67119,19.67119,0,0,0,8.71463-1.648,9.45017,9.45017,0,0,0,4.35663-3.91962,9.73811,9.73811,0,0,0,1.213-4.58769,8.35478,8.35478,0,0,0-1.3025-4.89962c-2.78549-3.83047-6.693-3.34054-15.49718-3.786-4.22231,0-5.07572-.75709-5.07572-2.09338,0-1.95974,1.5725-2.717,7.72687-3.65233,6.0187-.93536,11.67783-3.20689,11.67783-10.64532a13.18535,13.18535,0,0,0-1.07727-5.30028,6.44874,6.44874,0,0,0,3.45843-.08914,4.04707,4.04707,0,0,0,2.46936-1.87074,4.143,4.143,0,0,0,.45045-2.67243C222.38443,131.226,221.128,130.86965,219.64507,131.35959Z" fill="#fff"/></svg>