<?xml version="1.0" encoding="utf-8"?>
<!-- Generator: Adobe Illustrator 24.0.1, SVG Export Plug-In . SVG Version: 6.00 Build 0)  -->
<svg version="1.1" id="Layer_1" xmlns="http://www.w3.org/2000/svg" xmlns:xlink="http://www.w3.org/1999/xlink" x="0px" y="0px"
	 viewBox="0 0 300 300" style="enable-background:new 0 0 300 300;" xml:space="preserve">
<style type="text/css">
	.st0{fill-rule:evenodd;clip-rule:evenodd;fill:#FF003D;}
</style>
<title>K_Light_bg</title>
<g>
	<path class="st0" d="M160.3,226.8c-0.7,5.5-8.2,10.2-15.8,10.2c-13.7,0-22.5-11.1-22.5-24.6c0-22.7,13.7-40,13.7-50.6
		c-0.1-2.7-0.8-5.4-2.1-7.8l0,0l8.7-14.2l0,0c40.9-19.6,60.1-76.7,80.8-76.7c7.6,0,11.8,4.5,11.8,13c0,9.4-6.2,18.7-20.3,31.9
		c-17.5,16.8-37.3,31.2-58.8,42.5l0,0l0.5,0.7l0,0c2.3,3.7,3.6,7.9,3.5,12.3c0,14.2-9.7,38.1-9.7,52
		C150.2,221.6,153.8,226.8,160.3,226.8L160.3,226.8z"/>
	<path class="st0" d="M166.2,92.8c0.2-2.4-1.7-4.5-4.1-4.7c-0.1,0-0.3,0-0.4,0c-9,0-16.4,9.4-50.4,27.2
		c-30.5,15.8-41.8,24.1-41.8,35.9c0,6.6,4,11.6,10.2,11.6c18.2,0,32.6-35.9,44.7-35.9c0.7-0.1,1.3,0.4,1.4,1.1c0,0.1,0,0.2,0,0.4
		c0,8.7-26.9,36.4-31,40C71.2,190,65,195.9,65,207.7c-0.2,6.6,5,12.2,11.6,12.4c0.2,0,0.5,0,0.7,0c15.4,0,24.3-13.5,49.3-58.8
		c34.5-63,39.7-60.5,39.7-68.5L166.2,92.8z"/>
</g>
</svg>
