<svg id="Layer_1" data-name="Layer 1" xmlns="http://www.w3.org/2000/svg" viewBox="0 0 300 300"><path d="M239.95175,57.04072H187.14727L133.58517,149.511l53.61519,92.46538H240L184.76823,149.511Z" fill="#fff"/><path d="M93.76165,127.55464a14.39681,14.39681,0,1,1-15.0801-13.85258,14.51147,14.51147,0,0,1,15.0801,13.85258" fill="#865344"/><path d="M116.76978,134.4049a7.9969,7.9969,0,1,1-8.37729-7.695,8.0615,8.0615,0,0,1,8.37729,7.695" fill="#68c2ec"/><path d="M120.70629,90.65746c-8.14567,22.457-3.25489,29.97847-3.25489,29.97847-17.54358-2.65954-45.32716-22.63052-44.89285-42.50127.29919-13.767,9.80327-25.45139,23.38019-26.126,27.19-1.34688,28.55567,28.20137,24.76755,38.64885" fill="#89bd55"/><path d="M127.6026,188.96429c-10.83113-31.65289-6.73417-42.89238-6.73417-42.89238-24.82064,6.32129-64.0482,39.27218-60.663,67.74243,2.34526,19.729,17.616,35.15088,37.20562,34.178,39.23-1.94332,35.38154-43.85793,30.19157-59.02805" fill="#ba2a55"/></svg>