<svg id="Layer_1" data-name="Layer 1" xmlns="http://www.w3.org/2000/svg" viewBox="0 0 300 300"><defs><style>.cls-1{fill:#cb2026;}</style></defs><path class="cls-1" d="M105,162.05a12,12,0,0,1-7.16-2.21L94,163.54A10.83,10.83,0,0,1,96.3,170a11.72,11.72,0,0,1-23.44,0,10.66,10.66,0,0,1,2.1-6.44L71,159.84a13.32,13.32,0,0,1-6.8,2.21A11.51,11.51,0,0,1,56,158.81a12.16,12.16,0,0,1-3.43-8.41,11.56,11.56,0,0,1,18.76-9.2l3.92-3.77a12.22,12.22,0,0,1-2.09-7,11.76,11.76,0,0,1,20.06-8.29,11.6,11.6,0,0,1,3.34,8.26,12.62,12.62,0,0,1-2.33,7l3.91,3.77a10.35,10.35,0,0,1,7.17-2.46,11.73,11.73,0,0,1,2.34,23.34,9.16,9.16,0,0,1-2.34,0m156.29-26H139.38a31.2,31.2,0,0,0-7.65-9.51,20.66,20.66,0,0,0-17.18-4.73l-1.06.24.12-1.12a21.55,21.55,0,0,0-5.86-17.4,30.8,30.8,0,0,0-43.48-2.7,32.76,32.76,0,0,0-2.7,2.7,22.93,22.93,0,0,0-5.74,17.4L56,122l-1.09-.24a21.75,21.75,0,0,0-17.58,4.73,30.53,30.53,0,0,0-3.92,43,29.63,29.63,0,0,0,3.92,3.92,21.58,21.58,0,0,0,17.58,4.74l1.09-.22-.15,1.13a23,23,0,0,0,5.74,17.39,30.83,30.83,0,0,0,43.51,2.67,32,32,0,0,0,2.67-2.67,21.48,21.48,0,0,0,5.86-17.39l-.15-1.13,1.09.22a20.8,20.8,0,0,0,17.18-4.74,31.9,31.9,0,0,0,8.41-12.78h62.27a6.41,6.41,0,0,1,6.74,6v.27a6.63,6.63,0,0,1-6.65,6.62h-5.77v33.22h24.78V180.27a6.63,6.63,0,0,1,6.59-6.62h.15a7,7,0,0,1,7.25,6.59V206.9H260V173.71h-5.46a6.6,6.6,0,0,1-6.77-6.4v-.15a6.46,6.46,0,0,1,6.5-6.41h7a12.25,12.25,0,0,0,12.3-12.18v-.06a12.35,12.35,0,0,0-12.3-12.35"/></svg>