<svg xmlns="http://www.w3.org/2000/svg" viewBox="0 0 300 300"><g id="_2022_logo_-_lt_theme" data-name=" 2022 logo - lt theme"><path d="M265,152.8028c-1.7553,0-5.66224-2.20827-8.32349-12.68342-4.30329-16.9867-6.51158-31.029-13.81585-31.029S231.98918,123.35917,227.516,140.176c-2.548,9.90891-5.3225,12.68341-9.68242,12.68341s-8.32349-1.98177-14.66519-27.91482c-5.66224-22.64894-9.28606-63.47365-27.68833-63.47365s-23.89464,53.39488-26.27277,63.70015c-2.88775,12.62676-9.96555,27.63169-19.08175,27.63169s-13.81586-10.47513-16.59035-21.7996c-4.19-16.9867-8.94633-42.127-21.00689-42.127s-16.02412,20.61053-21.34663,43.3161c-3.17085,13.30624-7.8705,20.61053-16.98671,20.61053H35a16.2506,16.2506,0,0,1,8.88971,12.85328c3.001,18.96848,5.3225,30.85919,12.06057,30.85919s9.11619-9.73906,13.02313-25.70656c2.83112-12.34367,7.53078-18.00591,13.07976-18.00591,8.32349,0,12.06056,9.90891,16.647,29.10389,8.88971,37.937,10.87149,56.62235,25.3102,56.62235s16.59035-18.40226,26.10291-56.62235c4.13343-16.42049,12.06057-29.10389,21.17677-29.10389s15.57115,12.06057,18.96848,21.743c7.13441,21.00688,10.47513,28.87739,18.40226,28.87739s12.45693-9.45592,19.36486-32.44461c4.3599-14.15559,5.15261-18.17577,18.00589-18.17577Z" fill="#d42e34"/></g></svg>