<svg id="Layer_1" data-name="Layer 1" xmlns="http://www.w3.org/2000/svg" viewBox="0 0 300 300"><defs><style>.cls-1{fill:#fff;}.cls-2{fill:#e1251b;}</style></defs><title>KHC_Dark_bg</title><path class="cls-1" d="M136.78,148.68V142H131c0-2.44,0-4.87,0-7.3h-7.61V142h-3.16v6.71h3.16c0,2,0,4.08,0,6.12h0v.9h0c0,1.18,0,2.37,0,3.56.06,3.21,1.23,6.66,3.94,8.55,2.38,1.7,5.34,2,8.19,2a18.48,18.48,0,0,1-4.31-8.87l0-.08v-.09a20.88,20.88,0,0,1-.16-2.7c0-.23,0-.46,0-.68,0-.58,0-1.16,0-1.74,0-2.31,0-4.63,0-6.95h5.75"/><path class="cls-1" d="M118.85,136.78q0-3.36,0-6.71c-3.76-.63-8.08-.39-11.09,2.21-2.69,2.42-3.22,6.27-3.13,9.7h-3.29c0,2.23,0,4.47,0,6.7h3.33v3.67h0q0,8.24,0,16.46h7.73c0-5.57,0-11.14,0-16.7v-3.43h5.15V142h-5.19c.07-1.5-.1-3.31,1.14-4.43,1.5-1.25,3.58-.85,5.37-.76"/><path class="cls-1" d="M90.52,163c-2,.61-4.34,1.28-6.14-.09a2.94,2.94,0,0,1,.35-4.85c1.81-1,3.93-.62,5.86-.24a22.43,22.43,0,0,1-.07,5.18m.32,5.81h7.55c0-5.75,0-11.49,0-17.24-.06-3.37-1.34-7.11-4.55-8.7-4.6-2.28-10-1.77-14.89-1,0,2.44,0,4.88,0,7.33,3.15-.69,6.59-1.41,9.72-.23,1.45.5,2,2,2.22,3.41-2.18-.27-4.4-.79-6.61-.35a9.35,9.35,0,0,0-6.68,3.85c-2.38,3.57-1.7,9,1.83,11.54,3.31,2.52,8.13,2.25,11.5,0,0,.35,0,1,0,1.41"/><path class="cls-1" d="M51.34,132.42c3.08,0,6.16,0,9.24,0-4.51,6.06-8.92,12.2-13.46,18.25,4,6,8,12.11,12.09,18.12-3.19,0-6.39,0-9.58,0-3.55-5.4-7.12-10.79-10.66-16.2q0,8.1,0,16.2c-2.75,0-5.51,0-8.26,0q0-18.19,0-36.38H39c0,5.72,0,11.44,0,17.17,4.1-5.73,8.25-11.44,12.36-17.17"/><path class="cls-1" d="M61.13,142.06h7.78c0,1.71,0,3.42,0,5.13a9.12,9.12,0,0,1,7-5.17c0,2.54,0,5.09,0,7.63-3.31.39-6.71,2.86-6.83,6.43-.09,4.24,0,8.5,0,12.75H61.12q0-13.38,0-26.75"/><path class="cls-2" d="M196.88,146c1.3.43-1.95,6.94-1.95,6.94a13.2,13.2,0,0,1-3.48.87c.44-.87,2.83-9.11,5.43-7.81m2.39,17.36c-1.09.44-1.31.66-2.61,1.09a6.74,6.74,0,0,1-4.12,0c-4.13-1.74-1.52-8-1.52-8,16.93-4.12,14.54-13.24,10-13.67-2.82,0-13,.43-17.79,12.15-.65,1.74-5.21,14.11,5,15a14.83,14.83,0,0,0,6.73-1.3,14.62,14.62,0,0,0,4.77-4.12c1.09-2-.43-1.09-.43-1.09"/><path class="cls-2" d="M238.77,165.76c-.21-.22-.65-.22-.86-.43-1.31-.87-.22-3.26,0-4.56l3.9-13.89c.22-.87,1.74-5.43-4.34-4.56a19.79,19.79,0,0,0-8.9,4.12c.44-1.3.87-3.26,0-3.69-1.08-.43-7.38,1.52-8.9,2.82a.74.74,0,0,0-.43,1.31,2.87,2.87,0,0,1,.43,3c-.87,2.6-3.47,11.72-4.12,13.45s-1.52,5,0,6.08c1.08.87,5.64-1.08,6.29-1.52a4.61,4.61,0,0,0,1.52-.86c.87-.87-.43-1.31.87-5.86,0-.22,1.52-4.78,2.6-8.69a7.38,7.38,0,0,1,5-5c1.73-.22,1.3,1.3,1.08,2.39-1.52,4.77-3.25,11.94-3.9,13.67s-1.74,5.21,0,5.86c1.52,1.09,8.46-1.95,9.11-2.38,1.3-.87,1.3-1.31.65-1.31"/><path class="cls-2" d="M212.29,165.76c-.43-.22-.65-.22-.86-.43-1.31-.87-.44-3.26,0-4.56l4.12-13.89c.22-1.52,1.08-3.48,0-4.13-1.3-.43-7.6,1.52-9.12,2.82a.76.76,0,0,0-.21,1.31c.65.87.65,1.52.21,3-.65,2.6-3.69,11.94-4.34,13.67s-1.52,5.21.44,5.86c1.52,1.09,8-1.73,8.9-2.38,1.51-.66,1.51-1.31.86-1.31"/><path class="cls-2" d="M211,139.5c.43.87,4.34-.87,6.29-1.95a4.76,4.76,0,0,0,1.31-1.52c.43-1.52.65-2.17.86-3.26a.87.87,0,0,0-.43-1.3c-.87-.22-6.08.43-7.38,2.6-.43.87-1.95,5-.65,5.43"/><path class="cls-2" d="M269.16,154.69c-.65-2.38-4.56-3-6.08-1.74a4,4,0,0,0-1.08,3c3.69-1.08,4.34,2.18,3.69,3.48-1.3,1.95-1.74,2.6-3.48,2.6h-11.5c-.22-.22-.44-.43,0-.87.65-.86,11.94-16.28,12.37-16.93.22-.43.87-1.52-.65-1.52H249.84c-1.3,0-2,.43-3,1.52-.86,1.09-2,4.34-2.6,6.52,0,0,0,.86,1.3-.22.22-.22.65-1.09,1.31-1.09h7.59c2.39,0-10.2,11.94-14.1,18.24-.66,1.08.43,1.08,1.08,1.08h16.5c4.12,0,3.47.65,5.64-2.39,0,0,6.73-8.68,5.64-11.72"/><path class="cls-2" d="M178.43,162.07,183,144.49c3-10.64,4.77-11.07,5.86-12.16h-7.16c-2.61,0-4.56,3.69-5,6.08l-3,11.07h-6.51s3.9-14.11,4.34-15.63c.22-.65.22-1.52-1.09-1.52-.21,0-13.89-.43-18.23,1.09-2,.65-4.78,2.39-5.65,5-.65,1.52-1.52,4.34.44,9.55a3.28,3.28,0,0,0,.87,1.3c.65.44,6.29-.43,6.07-.43.44,0,.66-.22.22-1.08-.43-1.09-1.73-3-2-5-.87-7.6,4.56-8.69,5.43-8.9a10.4,10.4,0,0,1,3.69,0c.43,0,1.51.21,1.73.65.44.86-.22,2.38-.65,4.12-.43,1.31-4.12,14.76-5.21,18.45-.64,2.82-3.47,8.9-6.29,9.77a4.39,4.39,0,0,1-2.39,0,7.77,7.77,0,0,1-2.38-1.09c-1.74-1.73-2.83-5.2-3-7.81-.22-3.26.43-5.64-.22-5.64a18.51,18.51,0,0,0-6.45,2.59h0a2.92,2.92,0,0,0-.66.53l-.07.09c-.4.68-.37,3.11-.19,4.59.66,3.25,2.39,6.94,5,8.68,6.94,4.77,19.1-3.91,20.4-4.78a12.53,12.53,0,0,0,3.69-5.86c.65-2.17,1.74-5.86,1.74-5.86h6.51s-2.61,9.77-3.26,12.16c-.65,1.95-1.08,5.2.65,5,6.51,0,9.12-2.39,9.34-2.6a.68.68,0,0,0,0-.87,3.2,3.2,0,0,1-1.1-3.91"/></svg>