<svg id="Layer_1" data-name="Layer 1" xmlns="http://www.w3.org/2000/svg" viewBox="0 0 300 300"><defs><style>.cls-1{fill:#fff;}</style></defs><path class="cls-1" d="M288.37,184.67v41.75c-19.31,8.18-39,15.45-57.6,24.75-15.22,7.6-30.19,8.65-46.7,6.73C128.83,251.47,73.47,246,18.16,240.18c-2.13-.23-4.36-.05-6.53-1.42v-41c16.61,1.7,32.86,3.34,49.11,5q71.51,7.47,143,15a18.76,18.76,0,0,0,9.73-1.5q33.71-14.44,67.5-28.68C283.13,186.78,285.31,185.92,288.37,184.67Z"/><path class="cls-1" d="M55.16,172.24V130.51l45.57,4.8q52.36,5.5,104.74,11.06c3.18.34,5.77-.87,8.47-2q34.31-14.53,68.62-29.06c1.76-.75,3.42-2,5.8-1.65v41c-24,10.18-48,20.21-71.85,30.58-5.67,2.47-11.07,2.89-17.15,2.22-39.61-4.35-79.25-8.35-118.88-12.48C72.25,174.1,64,173.19,55.16,172.24Z"/><path class="cls-1" d="M96.52,104.34V63.11c11.13,1.15,22,2.25,32.91,3.4q37.08,3.87,74.15,7.83a19.75,19.75,0,0,0,10.28-1.73q34.81-14.89,69.7-29.56c1.42-.6,2.88-1.09,4.75-1.79V82.84c-11.23,4.77-22.61,9.62-34,14.45q-20.69,8.77-41.38,17.55a14.33,14.33,0,0,1-7.41,1.43q-53.83-5.74-107.69-11.34A5.68,5.68,0,0,1,96.52,104.34Z"/></svg>