<svg id="Layer_1" data-name="Layer 1" xmlns="http://www.w3.org/2000/svg" viewBox="0 0 300 300"><path id="path27" d="M126.80818,66.07733v67.217c-5.30661-12.18554-17.09906-22.99529-29.088-30.2673h-50.511c16.31289,12.18553,42.25629,31.25,42.25629,46.58019,0,7.6651-9.23742,9.04088-14.544,9.04088H43.08176v36.5566H93.00314c11.20284,0,27.31919-4.12736,33.805-21.22642V222.917h46.38365V173.97827c6.48586,17.2956,22.6022,21.22642,33.805,21.22642h49.92137v-36.5566H225.07863c-5.3066,0-14.544-1.57233-14.544-9.04088,0-15.33019,25.94339-34.39466,42.25629-46.58019h-50.511c-11.989,7.272-23.78144,18.08176-29.088,30.26729v-67.217ZM150,42.49243c68.98585,0,125,48.15251,125,107.50786S218.98585,257.50817,150,257.50817,25,209.35564,25,150.00029C25,90.4484,80.81761,42.29589,150,42.49243Z" fill="#fff"/></svg>