<?xml version="1.0" encoding="utf-8"?>
<!-- Generator: Adobe Illustrator 24.0.1, SVG Export Plug-In . SVG Version: 6.00 Build 0)  -->
<svg version="1.1" id="Layer_1" xmlns="http://www.w3.org/2000/svg" xmlns:xlink="http://www.w3.org/1999/xlink" x="0px" y="0px"
	 viewBox="0 0 300 300" style="enable-background:new 0 0 300 300;" xml:space="preserve">
<style type="text/css">
	.st0{fill-rule:evenodd;clip-rule:evenodd;stroke:#000000;stroke-width:0.22;stroke-linejoin:round;}
	.st1{fill-rule:evenodd;clip-rule:evenodd;fill:#FF2828;stroke:#FF2828;stroke-width:0.22;stroke-linejoin:round;}
	.st2{fill-rule:evenodd;clip-rule:evenodd;fill:#FF3838;stroke:#FF3838;stroke-width:0.22;stroke-linejoin:round;}
	.st3{fill-rule:evenodd;clip-rule:evenodd;fill:#FF4444;stroke:#FF4444;stroke-width:0.22;stroke-linejoin:round;}
	.st4{fill-rule:evenodd;clip-rule:evenodd;fill:#FF5454;stroke:#FF5454;stroke-width:0.22;stroke-linejoin:round;}
	.st5{fill-rule:evenodd;clip-rule:evenodd;fill:#FF6060;stroke:#FF6060;stroke-width:0.22;stroke-linejoin:round;}
	.st6{fill-rule:evenodd;clip-rule:evenodd;fill:#FF7070;stroke:#FF7070;stroke-width:0.22;stroke-linejoin:round;}
	.st7{fill-rule:evenodd;clip-rule:evenodd;fill:#FF7C7C;stroke:#FF7C7C;stroke-width:0.22;stroke-linejoin:round;}
	.st8{fill-rule:evenodd;clip-rule:evenodd;fill:#FF8787;stroke:#FF8787;stroke-width:0.22;stroke-linejoin:round;}
	.st9{fill-rule:evenodd;clip-rule:evenodd;fill:#FF9797;stroke:#FF9797;stroke-width:0.22;stroke-linejoin:round;}
	.st10{fill-rule:evenodd;clip-rule:evenodd;fill:#FFA3A3;stroke:#FFA3A3;stroke-width:0.22;stroke-linejoin:round;}
	.st11{fill-rule:evenodd;clip-rule:evenodd;fill:#FFB3B3;stroke:#FFB3B3;stroke-width:0.22;stroke-linejoin:round;}
	.st12{fill-rule:evenodd;clip-rule:evenodd;fill:#FFBFBF;stroke:#FFBFBF;stroke-width:0.22;stroke-linejoin:round;}
	.st13{fill-rule:evenodd;clip-rule:evenodd;fill:#FFCFCF;stroke:#FFCFCF;stroke-width:0.22;stroke-linejoin:round;}
	.st14{fill-rule:evenodd;clip-rule:evenodd;fill:#FFDBDB;stroke:#FFDBDB;stroke-width:0.22;stroke-linejoin:round;}
	.st15{fill-rule:evenodd;clip-rule:evenodd;fill:#FFEBEB;stroke:#FFEBEB;stroke-width:0.22;stroke-linejoin:round;}
	.st16{fill-rule:evenodd;clip-rule:evenodd;fill:#FFF7F7;stroke:#FFF7F7;stroke-width:0.22;stroke-linejoin:round;}
	.st17{fill-rule:evenodd;clip-rule:evenodd;fill:#FFFBFB;stroke:#FFFBFB;stroke-width:0.22;stroke-linejoin:round;}
	.st18{fill-rule:evenodd;clip-rule:evenodd;fill:#FFDFDF;stroke:#FFDFDF;stroke-width:0.22;stroke-linejoin:round;}
	.st19{fill-rule:evenodd;clip-rule:evenodd;fill:#FFC3C3;stroke:#FFC3C3;stroke-width:0.22;stroke-linejoin:round;}
	.st20{fill-rule:evenodd;clip-rule:evenodd;fill:#FFA7A7;stroke:#FFA7A7;stroke-width:0.22;stroke-linejoin:round;}
	.st21{fill-rule:evenodd;clip-rule:evenodd;fill:#FF8B8B;stroke:#FF8B8B;stroke-width:0.22;stroke-linejoin:round;}
	.st22{fill-rule:evenodd;clip-rule:evenodd;fill:#FF8080;stroke:#FF8080;stroke-width:0.22;stroke-linejoin:round;}
	.st23{fill-rule:evenodd;clip-rule:evenodd;fill:#FF6464;stroke:#FF6464;stroke-width:0.22;stroke-linejoin:round;}
	.st24{fill-rule:evenodd;clip-rule:evenodd;fill:#FF4848;stroke:#FF4848;stroke-width:0.22;stroke-linejoin:round;}
	.st25{fill-rule:evenodd;clip-rule:evenodd;fill:#FF2C2C;stroke:#FF2C2C;stroke-width:0.22;stroke-linejoin:round;}
	.st26{fill-rule:evenodd;clip-rule:evenodd;fill:#FF1C1C;stroke:#FF1C1C;stroke-width:0.22;stroke-linejoin:round;}
	.st27{fill-rule:evenodd;clip-rule:evenodd;fill:#FF1010;stroke:#FF1010;stroke-width:0.22;stroke-linejoin:round;}
	.st28{fill-rule:evenodd;clip-rule:evenodd;fill:#FF0000;stroke:#FF0000;stroke-width:0.22;stroke-linejoin:round;}
	.st29{fill-rule:evenodd;clip-rule:evenodd;fill:#FF0C0C;stroke:#FF0C0C;stroke-width:0.22;stroke-linejoin:round;}
	.st30{fill-rule:evenodd;clip-rule:evenodd;fill:#FF1818;stroke:#FF1818;stroke-width:0.22;stroke-linejoin:round;}
	.st31{fill-rule:evenodd;clip-rule:evenodd;fill:#FF3434;stroke:#FF3434;stroke-width:0.22;stroke-linejoin:round;}
	.st32{fill-rule:evenodd;clip-rule:evenodd;fill:#FF5050;stroke:#FF5050;stroke-width:0.22;stroke-linejoin:round;}
	.st33{fill-rule:evenodd;clip-rule:evenodd;fill:#FF6C6C;stroke:#FF6C6C;stroke-width:0.22;stroke-linejoin:round;}
	.st34{fill-rule:evenodd;clip-rule:evenodd;fill:#FF9393;stroke:#FF9393;stroke-width:0.22;stroke-linejoin:round;}
	.st35{fill-rule:evenodd;clip-rule:evenodd;fill:#FFAFAF;stroke:#FFAFAF;stroke-width:0.22;stroke-linejoin:round;}
	.st36{fill-rule:evenodd;clip-rule:evenodd;fill:#FFCBCB;stroke:#FFCBCB;stroke-width:0.22;stroke-linejoin:round;}
	.st37{fill-rule:evenodd;clip-rule:evenodd;fill:#FFE7E7;stroke:#FFE7E7;stroke-width:0.22;stroke-linejoin:round;}
	.st38{fill-rule:evenodd;clip-rule:evenodd;fill:#FFEFEF;stroke:#FFEFEF;stroke-width:0.22;stroke-linejoin:round;}
	.st39{fill-rule:evenodd;clip-rule:evenodd;fill:#FFD3D3;stroke:#FFD3D3;stroke-width:0.22;stroke-linejoin:round;}
	.st40{fill-rule:evenodd;clip-rule:evenodd;fill:#FFB7B7;stroke:#FFB7B7;stroke-width:0.22;stroke-linejoin:round;}
	.st41{fill-rule:evenodd;clip-rule:evenodd;fill:#FF9B9B;stroke:#FF9B9B;stroke-width:0.22;stroke-linejoin:round;}
	.st42{fill-rule:evenodd;clip-rule:evenodd;fill:#FF7474;stroke:#FF7474;stroke-width:0.22;stroke-linejoin:round;}
	.st43{fill-rule:evenodd;clip-rule:evenodd;fill:#FF5858;stroke:#FF5858;stroke-width:0.22;stroke-linejoin:round;}
	.st44{fill-rule:evenodd;clip-rule:evenodd;fill:#FF3C3C;stroke:#FF3C3C;stroke-width:0.22;stroke-linejoin:round;}
</style>
<title>KOS_Light_bg</title>
<g>
	<path id="path1745" class="st0" d="M188.6,142.8l-79.2,131.7l17.5-40.5l53-87.7L188.6,142.8z"/>
	<path id="path1747" class="st0" d="M140.4,179.5l-2.8,6.6l-26.1,10.1l3.5-6.9L140.4,179.5z"/>
	<path id="path1749" class="st0" d="M162.9,27.2l-10.1,55.2l-5.2,1.7l8-43.7L162.9,27.2z"/>
	<path id="path1751" class="st0" d="M195.5,75.4l-36.3,69l-8.1,3.1l36-69L195.5,75.4z"/>
	<path id="path1753" class="st0" d="M148.4,105.1l-3.8,6.9L110.8,125l3.1-6.6L148.4,105.1z"/>
	<path id="path1755" class="st1" d="M154.4,25.5l-0.7,2.4l-1.1,0.4L154.4,25.5z"/>
	<path id="path1757" class="st2" d="M153.7,27.9l-0.4,3.5l-2.4,0.7l1.7-3.8L153.7,27.9z"/>
	<path id="path1759" class="st3" d="M153.3,31.4l-0.7,3.5l-3.9,0.6l2.1-3.5L153.3,31.4z"/>
	<path id="path1761" class="st4" d="M152.6,35l-0.7,3.5l-5.2,1.1l2.1-3.9L152.6,35z"/>
	<path id="path1763" class="st5" d="M151.9,38.4l-0.7,3.5l-6.3,1.4l1.7-3.9L151.9,38.4z"/>
	<path id="path1765" class="st6" d="M151.2,41.9l-0.3,3.5l-8.1,1.4l2.1-3.5L151.2,41.9z"/>
	<path id="path1767" class="st7" d="M150.9,45.4l-0.7,3.5l-9.2,1.7l2.1-3.9L150.9,45.4z"/>
	<path id="path1769" class="st8" d="M150.1,48.8l-0.6,3.5l-10.9,2.1l2.1-3.8L150.1,48.8z"/>
	<path id="path1771" class="st9" d="M149.5,52.4l-0.7,3.1l-11.8,2.8l1.7-3.9L149.5,52.4z"/>
	<path id="path1773" class="st10" d="M148.8,55.5l-0.6,3.5l-13.3,2.8l2.1-3.5L148.8,55.5z"/>
	<path id="path1775" class="st11" d="M148.1,59l-0.4,3.5l-15,3.2l2.1-3.9L148.1,59z"/>
	<path id="path1777" class="st12" d="M147.7,62.6l-0.7,3.5l-16.4,3.5l2.1-3.8L147.7,62.6z"/>
	<path id="path1779" class="st13" d="M147.1,66l-0.7,3.5L128.9,73l1.7-3.5L147.1,66z"/>
	<path id="path1781" class="st14" d="M146.4,69.5l-0.7,3.5l-18.8,3.8l2.1-3.8L146.4,69.5z"/>
	<path id="path1783" class="st15" d="M145.6,73l-0.3,3.5l-20.6,4.2l2.1-3.9L145.6,73z"/>
	<path id="path1785" class="st16" d="M145.3,76.4l-0.7,3.5l-21.7,4.2l1.7-3.5L145.3,76.4z"/>
	<path id="path1787" class="st17" d="M144.5,79.9l-0.7,3.2l-23,4.9l2.1-3.9L144.5,79.9z M186.7,71.2l-1.7,3.5l-15.7,3.1L186.7,71.2z
		"/>
	<path id="path1789" class="st15" d="M143.9,83.1l-0.7,3.5l-24.4,5.2l2.1-3.8L143.9,83.1z M185.1,74.7l-2.1,3.9l-32.2,6.6l18.4-7.3
		L185.1,74.7z"/>
	<path id="path1791" class="st18" d="M182.9,78.6l-1.7,3.5l-64.4,13.3l2.1-3.5l24.4-5.2V88l7.7-2.9L182.9,78.6z"/>
	<path id="path1793" class="st13" d="M181.3,82l-2.1,3.9l-64.4,13.2l1.7-3.8L181.3,82z"/>
	<path id="path1795" class="st19" d="M179.1,85.9l-2.1,3.8L112.6,103l2.1-3.9L179.1,85.9z"/>
	<path id="path1797" class="st11" d="M177.1,89.7l-1.7,3.5l-64.4,13.2l2.1-3.5L177.1,89.7z"/>
	<path id="path1799" class="st20" d="M175.3,93.2l-2.1,3.8l-21.6,4.6l1.1-1.4l-7.3,2.8l-36.3,7.3l1.7-3.9L175.3,93.2z"/>
	<path id="path1801" class="st9" d="M145.3,103l-18.4,7l-19.9,4.2l2.1-3.9L145.3,103z M173.2,97l-1.7,3.9l-21.6,4.6l1.7-3.8
		L173.2,97z"/>
	<path id="path1803" class="st21" d="M126.8,110l-18.4,7.3l-3.5,0.7l2.1-3.9L126.8,110z M171.4,100.8l-2.1,3.5l-21.6,4.6l2.1-3.5
		L171.4,100.8z"/>
	<path id="path1805" class="st22" d="M108.3,117.3l-3.8,1.4l0.3-0.7L108.3,117.3z M169.4,104.4l-2.1,3.9l-21.3,4.6l1.7-3.9
		L169.4,104.4z"/>
	<path id="path1807" class="st6" d="M167.5,108.3l-1.7,3.8l-21.7,4.6l2.1-3.8L167.5,108.3z"/>
	<path id="path1809" class="st23" d="M165.6,112.1l-2.1,3.5l-21.6,4.6l2.1-3.5L165.6,112.1z"/>
	<path id="path1811" class="st4" d="M163.4,115.6l-2.1,3.9l-21.3,4.6l1.8-3.8L163.4,115.6z"/>
	<path id="path1813" class="st24" d="M161.3,119.5l-1.7,3.9l-21.6,4.6l2-3.9L161.3,119.5z"/>
	<path id="path1815" class="st2" d="M159.6,123.3l-2.1,3.5l-21.6,4.6l2.1-3.5L159.6,123.3z"/>
	<path id="path1817" class="st25" d="M157.5,127l-1.7,3.9l-21.6,4.6l1.7-3.9L157.5,127z"/>
	<path id="path1819" class="st26" d="M155.8,130.6l-2.1,3.8l-21.7,4.6l2.1-3.8L155.8,130.6z"/>
	<path id="path1821" class="st27" d="M153.7,134.4l-2.1,3.5l-21.3,4.6l1.7-3.5L153.7,134.4z"/>
	<path id="path1823" class="st28" d="M151.6,137.9l-1.7,3.8l-21.6,4.6l2-3.8L151.6,137.9z"/>
	<path id="path1825" class="st29" d="M149.8,141.8l-2.1,3.9l-21.6,4.6l2.1-3.9L149.8,141.8z M179.9,138.6l-0.4,0.4l-1,0.4
		L179.9,138.6z"/>
	<path id="path1827" class="st30" d="M147.7,145.7l-1.7,3.5l-21.6,4.6l1.7-3.8L147.7,145.7z M179.4,139l-2.1,3.8l-17.8,3.5l18.9-6.9
		L179.4,139z"/>
	<path id="path1829" class="st1" d="M177.4,142.8l-2.4,3.9l-52.7,10.9l2.1-3.9l21.6-4.6l-1.7,3.1l15.3-6L177.4,142.8z"/>
	<path id="path1831" class="st31" d="M174.9,146.7l-2.1,3.8l-52.3,10.9l1.7-3.8L174.9,146.7z"/>
	<path id="path1833" class="st3" d="M172.8,150.5l-2.4,3.5l-51.9,10.8l2.1-3.5L172.8,150.5z"/>
	<path id="path1835" class="st32" d="M170.4,154l-2.1,3.8l-51.9,10.8l2.1-3.8L170.4,154z"/>
	<path id="path1837" class="st5" d="M168.3,157.9l-2.4,3.9l-51.3,10.8l1.8-3.9L168.3,157.9z"/>
	<path id="path1839" class="st33" d="M165.9,161.7l-2.1,3.8L112.3,176l2.1-3.5L165.9,161.7z"/>
	<path id="path1841" class="st7" d="M163.8,165.6l-2.4,3.8l-50.6,10.5l1.7-3.9L163.8,165.6z"/>
	<path id="path1843" class="st8" d="M161.3,169.4l-2.1,3.9l-16.1,3.2l0.7-1.4l-8,2.8l-27.2,5.9l2.1-3.8L161.3,169.4z"/>
	<path id="path1845" class="st34" d="M135.9,177.6l-18.4,7.4l-10.8,2.1l2.1-3.5L135.9,177.6z M159.2,173l-2.4,3.8l-15.4,3.2l1.7-3.8
		L159.2,173z"/>
	<path id="path1847" class="st10" d="M117.4,185.1l-11.9,4.6l1.1-2.4L117.4,185.1z M156.8,177.1l-2.4,3.5l-14.4,3.1l1.4-3.5
		L156.8,177.1z"/>
	<path id="path1849" class="st35" d="M154.4,180.6l-2.1,3.8l-13.8,3.1l1.7-3.8L154.4,180.6z"/>
	<path id="path1851" class="st12" d="M152.3,184.4l-2.4,3.9l-13.2,2.8l1.7-3.5L152.3,184.4z"/>
	<path id="path1853" class="st36" d="M149.8,188.3l-2.1,3.8l-12.6,2.4l1.4-3.5L149.8,188.3z"/>
	<path id="path1855" class="st14" d="M147.7,192.1l-2.4,3.9l-11.9,2.4l1.7-3.9L147.7,192.1z"/>
	<path id="path1857" class="st37" d="M145.3,196l-2.1,3.8l-11.2,2.1l1.4-3.5L145.3,196z"/>
	<path id="path1859" class="st16" d="M143.2,199.8l-2.4,3.8l-10.5,2.1l1.7-3.8L143.2,199.8z"/>
	<path id="path1861" class="st17" d="M140.8,203.6l-2.1,3.5l-9.8,2.1l1.4-3.5L140.8,203.6z"/>
	<path id="path1863" class="st38" d="M138.6,207.1l-2.4,3.8l-9.2,2.1l1.7-3.9L138.6,207.1z"/>
	<path id="path1865" class="st18" d="M136.2,211l-2.5,3.9l-8,1.7l1.4-3.5L136.2,211z"/>
	<path id="path1867" class="st39" d="M133.8,214.8l-2.1,3.8l-7.7,1.8l1.7-3.9L133.8,214.8z"/>
	<path id="path1869" class="st19" d="M131.7,218.6l-2.5,3.9l-6.9,1.4l1.7-3.5L131.7,218.6z"/>
	<path id="path1871" class="st40" d="M129.2,222.5l-2,3.8l-6.3,1.1l1.4-3.5L129.2,222.5z"/>
	<path id="path1873" class="st20" d="M127.2,226.3l-2.5,3.8l-5.6,1.1l1.7-3.9L127.2,226.3z"/>
	<path id="path1875" class="st41" d="M124.7,230.1l-2.1,3.5l-4.9,1l1.4-3.5L124.7,230.1z"/>
	<path id="path1877" class="st21" d="M122.6,233.7l-2.4,3.9l-4.2,1l1.7-3.9L122.6,233.7z"/>
	<path id="path1879" class="st22" d="M120.2,237.4l-2.1,3.8l-3.5,0.7l1.4-3.5L120.2,237.4z"/>
	<path id="path1881" class="st42" d="M118.1,241.4l-2.4,3.8l-2.8,0.7l1.7-3.9L118.1,241.4z"/>
	<path id="path1883" class="st23" d="M115.6,245.2l-2.1,3.9l-2.5,0.3l1.7-3.5L115.6,245.2z"/>
	<path id="path1885" class="st43" d="M113.6,249.1l-2.5,3.8l-1.4,0.4l1.4-3.9L113.6,249.1z"/>
	<path id="path1887" class="st24" d="M111.1,252.9l-2.4,3.9H108l1.7-3.5L111.1,252.9z"/>
	<path id="path1889" class="st44" d="M108.6,256.7l-2.1,3.5v0.2l1.4-3.8L108.6,256.7z"/>
	<path id="path1891" class="st25" d="M106.6,260.4l-0.3,0.7l0.3-0.4V260.4z"/>
	<path id="path1893" class="st28" d="M152.6,30.8l-46,85.9L154,98.5l-46.7,89.4l38-14.3l-34.6,78.6l67-111.7l-35.2,13.8l42.2-80.7
		l-42.6,16.1L152.6,30.8z M154.4,25.5L143.2,88l43.6-16.8l-42.6,81.1l35.6-13.8l-73.6,122.3l37.6-85.9l-38.4,14.7l47.1-89.4
		l-48.1,18.4L154.4,25.5z"/>
</g>
</svg>
