<svg id="Layer_1" data-name="Layer 1" xmlns="http://www.w3.org/2000/svg" viewBox="0 0 300 300"><defs><style>.cls-1{fill:#00529f;}.cls-1,.cls-2,.cls-3,.cls-4{fill-rule:evenodd;}.cls-2{fill:#ffd520;}.cls-3{fill:#fff;}.cls-4{fill:#d4de28;}</style></defs><title>KMX_Light_bg</title><g id="g8934"><polygon id="polygon8902" class="cls-1" points="29 110.71 271 110.71 271 189.29 29 189.29 29 110.71"/><polygon id="polygon8904" class="cls-2" points="128.57 164.26 148.69 164.26 148.69 170.14 128.57 170.14 128.57 164.26"/><polygon id="polygon8906" class="cls-2" points="154.26 164.26 174.38 164.26 174.38 170.14 154.26 170.14 154.26 164.26"/><polygon id="polygon8908" class="cls-2" points="180.21 164.26 200.33 164.26 200.33 170.14 180.21 170.14 180.21 164.26"/><polygon id="polygon8910" class="cls-2" points="206.06 164.26 226.18 164.26 226.18 170.14 206.06 170.14 206.06 164.26"/><polygon id="polygon8912" class="cls-2" points="231.74 164.26 250.47 164.26 250.47 170.14 231.74 170.14 231.74 164.26"/><path id="path8914" class="cls-2" d="M63.36,147.31c-.15,2.69-1,3.46-2.34,3.46-2.54,0-2.75-2.9-2.75-6.79,0-4.1.24-6.79,2.86-6.79,1.24,0,2.29.57,2.44,3.47h9.26c0-7.5-5.48-10.11-11.91-10.11-8.63,0-13.36,5.38-13.12,13.32,0,8.1,4.14,13.54,13.08,13.54,6.33,0,11.95-3.07,11.95-10.1Z"/><path id="path8916" class="cls-2" d="M102.46,156.44h9.8v-9h1.15c1.61,0,2.24.49,2.45,1.74.35,2.17,0,1.58.89,7.24h9.8a76.24,76.24,0,0,0-1.28-9.55c-.49-1.92-1.82-3-4.27-3.22v-.06c3.78-.91,5-3.12,5-6,0-4.76-3.19-6.4-8.61-6.4H102.46Z"/><polygon id="polygon8918" class="cls-2" points="90.7 156.74 101.17 156.74 92.96 131.22 79.85 131.22 71.68 156.74 81.37 156.74 82.39 152.64 89.71 152.64 90.7 156.74"/><polygon id="polygon8920" class="cls-1" points="84.05 146.55 86.28 136.94 86.35 136.94 88.36 146.55 84.05 146.55"/><path id="path8922" class="cls-1" d="M111.72,141.32v-4.8h.92c2,0,3.25.39,3.25,2.24s-1.4,2.56-3.33,2.56Z"/><path id="path8924" class="cls-3" d="M128.9,156.85h10.31V141c0-2,.89-2.84,1.87-2.84s1.79,1,1.79,2.74v16h10.3V141c0-2,.9-2.84,1.88-2.84s1.78,1,1.78,2.74v16h10.31V139.91c0-6.75-3.11-9.28-7.41-9.28-2.43,0-5,1-6.73,4.61a7,7,0,0,0-7-4.61c-2.43,0-5,1-6.73,4.61h-.08l-.26-3.86h-10v25.47Z"/><polygon id="polygon8926" class="cls-3" points="212.19 131.68 209.33 139.7 205.89 131.68 195.15 131.68 201.41 143.33 194.52 156.88 204.94 156.88 209.33 147.63 213.93 156.88 224.24 156.88 217.17 143.33 222.93 131.68 212.19 131.68"/><path id="path8928" class="cls-3" d="M184,141.22H182.6c-9.19,0-14.07,2.56-14.07,8.79,0,5,3.52,7.68,8.5,7.68a8.26,8.26,0,0,0,7-3.17l.3,2.42h10.35v-17c0-5.87-3-8.94-12.45-8.94-6.21,0-12.26,1.46-12.65,8.24h9.76c.15-2.11.93-2.61,2.4-2.61,1.66,0,2.29.75,2.29,2Z"/><path id="path8930" class="cls-1" d="M183.21,148.18c0,2.06-.63,3.42-2.68,3.42a2.43,2.43,0,0,1-2.74-2.62c0-1.4.69-2.91,3.81-2.91h1.61Z"/><path id="path8932" class="cls-4" d="M226,135.37h.39v-1.29h.49c.47,0,.58.11.62.54a4.56,4.56,0,0,0,.14.75H228a3.89,3.89,0,0,1-.17-.9c0-.35-.14-.48-.43-.55a.68.68,0,0,0,.53-.69c0-.71-.76-.71-1-.71h-1v2.85Zm.39-2.52H227c.21,0,.56,0,.56.45s-.36.44-.56.44h-.62Zm.58-1.54a2.67,2.67,0,1,0,2.66,2.66,2.67,2.67,0,0,0-2.66-2.66v.31a2.36,2.36,0,1,1-2.34,2.35,2.35,2.35,0,0,1,2.34-2.35Z"/></g></svg>