<?xml version="1.0" encoding="utf-8"?>
<!-- Generator: Adobe Illustrator 24.0.1, SVG Export Plug-In . SVG Version: 6.00 Build 0)  -->
<svg version="1.1" id="Layer_1" xmlns="http://www.w3.org/2000/svg" xmlns:xlink="http://www.w3.org/1999/xlink" x="0px" y="0px"
	 viewBox="0 0 300 300" style="enable-background:new 0 0 300 300;" xml:space="preserve">
<style type="text/css">
	.st0{fill:#FF0D18;}
	.st1{fill:#FFFFFF;}
</style>
<title>KO_Dark_bg</title>
<g>
	<circle class="st0" cx="150" cy="150" r="150"/>
	<g>
		<path class="st1" d="M29.2,142.7c7.3-13.7,20.1-28.5,35.2-33.4c3.1-0.8,7.2-1.7,9.9,0.5c2.5,1.8,2.7,4.8,2.2,7.7
			c-0.7,3.3-3,7.4-6.7,8c-0.6,0-1.3-0.2-1.7-0.7c-0.8-1.1-1.1-2.4-0.7-3.7c0.6-2.6,3.1-5.4,5.8-5.8c0.5-0.4,0.2-0.9,0.1-1.3
			c-0.4-0.6-0.8-1.1-1.5-1.2c-3.1-0.4-5.3,1.5-7.6,3.2c-8.7,7.1-15.1,16.1-20.6,25.2c-4.4,8.1-8,16.5-9.2,26
			c-0.6,6.9,1.7,13.7,7.8,17c6.6,3.5,15.2,1.2,21.9-0.7l6.1-1.9l11.7-3.4c11.1-3.3,25-4,35.9,0.4c6.6,2.7,13.3,6.5,17.6,13
			c0,0.1,0,0.4-0.2,0.4c-9.3-2.5-21.5-5.1-30.7-0.7l-0.5-0.1c-2.8-4.3-7.3-7.1-12.4-7.9c-15.7-1.5-28.6,5.9-43.2,7.8
			c-7.4,0.7-15.5,0.5-20.7-5.2c-8.3-8.3-7.2-22.7-3.3-32.6C25.9,149.5,27.4,146,29.2,142.7z"/>
		<path class="st1" d="M50.8,147.7c3.9-7.2,9.8-15.8,18.1-18.4c2.1-0.6,4.5-0.2,6.3,1.2c3.5,3.5,2.1,9.6,0.9,13.8
			c0,0.2,0.2,0.5,0.5,0.6c3.1-0.2,5.9-1.5,8-3.8c5-5.4,10.2-12.6,18.1-11.8c1.5,0.2,3,1.2,3.8,2.5c2,4,0,8.4-2.7,11.6
			c-0.9,1.2-2.5,1.7-3.9,1.3c-0.6-0.2-1.1-0.8-1.3-1.4c-0.4-2.7,0.9-5.6,3.3-6.9c0.7-0.7,2.6-0.2,2.1-1.7c-0.4-0.5-1.1-0.7-1.7-0.7
			c-3.9,1.7-6.4,5.6-8.6,8.9c-2.8,4.4-5.1,9.2-6.6,14.2c-0.4,1.8-0.9,4.1,0.1,5.8c0.8,1.1,2.1,1.5,3.4,1.2c3.8-1.5,7.2-4.6,10.2-7.8
			c6.7-8,10.3-18,19.3-24.6c2.8-1.9,6.7-3.4,10-1.7c0.6,0.2,0.9,0.9,1.7,0.7c0.6-0.6,0.9-1.7,2-1.4c2.5,0,5.3-0.1,7.9,0.1l0.1,0.2
			l-0.7,1.8l-13.9,28.3c-0.1,0.4-0.1,0.7-0.1,1.1c0.2,0.4,0.7,0.5,1.1,0.2c2-1.4,3.7-3.1,5-5.1c1.2-1.7,2.2-3.4,3.2-5.3
			c0.4-0.6,0.8-1.2,1.5-1.1s1.8-0.2,2.4,0.4c-1.1,2.4-2.2,4.6-3.5,6.7c-3.8,5.8-8.7,12.5-15.7,14.3c-1.2,0.4-2.5,0.1-3.4-0.6
			c-1.4-1.1-1.4-2.6-1.8-4.1c-0.1-0.1-0.4-0.2-0.6-0.1c-3,2.7-6,5.3-10.2,4.8c-1.3-0.4-2.5-1.3-3.1-2.5c-1.1-2.1-0.6-4.7-0.6-7.1
			c-0.1-0.2-0.5-0.1-0.6-0.1c-4.5,4.5-9.4,8.5-15.5,9.6c-2.6,0.5-5.3-0.5-7.1-2.5c-4.5-5.9-0.9-13.6,1.4-19.4
			c0.1-0.2,0.1-0.6-0.2-0.7c-1.7,0.1-3.2,0.4-4.7,0.6l-0.6,0.6c-3.7,6.7-7.6,13.9-14.2,19c-2.7,1.9-6.7,3.3-9.9,1.5
			c-3.3-2.2-3.5-6.4-3.2-10.2C47.5,155.6,48.9,151.5,50.8,147.7z M61.2,147.3c-1.9,3.9-3.9,7.8-3.9,12.3c0.1,0.9,0.7,1.8,1.5,2.1
			c0.9,0.1,1.9-0.1,2.6-0.8c3.8-3.1,6.4-7.4,8.5-11.6c0.1-0.4,0.5-0.9,0.2-1.3c-2.4-0.9-4.5-2.5-6.1-4.4l-0.4-0.1
			c-0.4,0.1-0.5,0.5-0.7,0.7L61.2,147.3z M67,139.4c0.4,2.1,1.8,3.8,3.8,4.5c0.5,0.1,1.2,0.5,1.5-0.1c0.7-1.3,1.2-2.7,1.4-4.1
			c0.4-1.9,0.6-4.4-1.2-5.6c-0.7-0.4-1.4-0.4-2.1-0.1C68.3,135,67,137.2,67,139.4L67,139.4z M112.9,155.2c-0.5,1.7-1.3,3.5-0.8,5.4
			c0.2,0.4,0.6,0.6,0.9,0.7c1.5,0,2.6-1.3,3.5-2.5c4.3-6.1,7.9-12.8,10.9-19.6c0.5-1.4,1.3-2.7,1.3-4.4c0-0.4-0.4-0.6-0.6-0.7
			c-0.7-0.4-1.3,0.1-1.9,0.5c-6,4.6-9.2,11.2-12.3,17.6L112.9,155.2z"/>
		<path class="st1" d="M141.8,137.9c1.2-2.7,2.6-5.3,4.1-7.9c0.7-0.6,1.7-0.8,2.6-0.8l6.6,0.1l0.2,0.2c-1.2,2.7-2.4,5.3-3.8,7.9
			c-0.4,0.7-1.1,1.3-1.9,1.4c-2.7,0.1-5.4,0.1-8.1,0C141.5,138.5,141.7,138.1,141.8,137.9z"/>
		<path class="st1" d="M148.6,151.3c4.6-9.6,10.3-18.9,18.2-27c7.7-7.7,16.1-13.9,26.1-15.8c2.7-0.4,5.8-0.1,7.9,1.8
			c0.4,0.5,0.9,0.6,1.4,0.5c7.2-2.8,17.2-3.9,24.6-0.2c4.1,2.2,8.3,4.6,12.2,7.2c0.5,0.2,0.2,0.8,0,1.2c-2.4,2.6-4.3,5.2-6.4,7.9
			c-0.2,0.2-0.6,0.2-0.8,0l-10.6-7.3c-5-3.4-10.6-5.7-17.1-4.6c-0.7,0.4-0.4,1.3-0.5,1.9c0.1,6.6-2.2,12.4-5.4,17.7
			c-2.6,3.7-5.6,7.6-9.9,8.7c-1.8,0.5-3.8-0.2-4.8-1.7c-3.2-4.8-0.4-10.7,1.9-15c2.8-4.8,6.7-9.1,11.2-12.4c0.1-0.1,0.4-0.4,0.1-0.6
			c-0.5-0.5-1.2-0.2-1.8-0.1c-7.2,2.4-13,8.7-18.4,14.9c-9.6,11.7-16.8,24.4-20.9,38.5c-1.3,5.2-3,13.3,2.4,17
			c4.7,2.5,9.2-0.7,12.8-3.8c5.3-5.2,8.9-11.8,10.5-19c0.2-2.1,0.8-5.1-1.2-6.5c-1.8-0.8-3.2,0.7-4.4,1.9c-2.6,3.3-4.1,7.3-4.4,11.6
			c-1.2,1.1-2.7,1.7-4,2.6c-2.5,1.8-4.8,3.9-6.9,6.3c-0.2,0.1-0.2-0.2-0.4-0.4c-0.2-7.9,2.5-14.6,6.9-20.7c3.4-4,7.9-7.4,13.2-6.1
			c2.4,0.6,3.9,3.1,4.4,5.3c0.8,7.4-2.2,13.8-5.6,19.8c-5.4,8.5-13.9,17-24.7,15.9c-4.3-0.4-7.9-3.1-9.7-7c-4-8.1-1.3-18.5,1.5-26.5
			L148.6,151.3z M185.2,137.4c0,0.9,0.6,1.9,1.4,2.2c1.8,0.5,3.3-0.8,4.6-1.9c4.8-4.8,7.9-11.2,8.6-18.1c0-1.1,0.4-2.4-0.2-3.2
			c-0.5,0-0.8,0.1-1.2,0.4c-3.4,2.4-6.3,5.3-8.6,8.6C187.6,129.1,185.3,132.8,185.2,137.4z"/>
		<path class="st1" d="M192,160.4c3.9-5.2,9.1-10.7,15.7-11.2c1.7,0,3.2,0.8,4.1,2.1c2.8,4.1,0.5,9.4-0.6,13.7
			c-0.1,0.4,0.1,0.7,0.5,0.7c1.4,0.2,2.8,0,4.1-0.6l0.5-0.7c5-13.5,11.7-26.2,20.1-37.9c5.2-6.9,11.9-14.1,19.6-17.4
			c1.9-0.6,4.5-1.4,6.3,0c2,1.5,1.4,4.4,0.9,6.5c-0.2,1.9-2.4,2.1-3.7,2.5c-0.1,0-0.1,0-0.2-0.1c0.2-1.2,0.5-2.4,0.9-3.5
			c0.1-0.6,0.1-1.2-0.1-1.8c-0.4-0.6-1.1-0.4-1.7-0.2c-2.6,1.5-4.8,3.5-6.7,5.9c-7.4,8.6-12.9,18.3-17.8,28.1
			c-1.7,3.4-3.3,6.7-4.7,10.3c0,0.2,0,0.4,0.2,0.5c1.2,0,1.9-1.2,2.7-1.8c6.4-6,12-12.6,16.9-19.8c1.1-0.5,2.2-0.6,3.4-0.6l0.2,0.1
			c-0.1,0.9-0.9,1.7-1.3,2.5c-5.6,8.1-12.2,15.7-19.4,22.4l-5.6,4.5c-1.2,1.1-1.2,2.6-1.8,3.9c-1.2,3.5-2,7.2-2.2,10.9
			c0,0.6,0.2,1.2,0.8,1.7c1.4,0.7,2.6-0.7,3.7-1.7c7.4-8.6,10.7-19.1,19.8-26.9c3-2.4,7-4.4,10.7-2.6c0.7,0.2,1.2,1.1,2,0.7
			c0.6-0.4,0.6-1.3,1.4-1.3c2.7,0,5.6-0.1,8.1,0.1c0.2,0.2,0.1,0.6,0,0.8l-1.9,3.7l-11.5,23c-0.7,0.9-1.1,2.1-1.2,3.3
			c0.1,0.5,0.7,0.6,1.2,0.5c2.1-1.3,3.8-3.1,5.1-5.2c1.4-2,2.5-4,3.9-6c0.8-0.2,1.7-0.2,2.5-0.1c0.5,0.5-0.1,1.1-0.2,1.5
			c-3.3,7-8,14.5-15.4,18.3c-1.7,0.8-4,1.7-5.9,0.6c-1.5-1.1-1.3-2.8-2-4.3c-0.1-0.2-0.5-0.1-0.6-0.1c-3.1,2.7-6.3,5.8-10.5,4.6
			c-2.6-1.2-3-4.3-3.2-6.9c-0.1-0.1-0.1-0.2-0.2-0.4l-0.4,0.1c-3,3.5-6.7,8-11.7,7.6c-1.9-0.4-3.5-1.8-4.1-3.7
			c-1.8-5.6,0.1-11.6,1.3-16.9c0-0.4-0.2-0.6-0.6-0.7h-4.1l-0.6,0.8c-3.1,6-6.5,11.8-11.8,16.9c-2.8,2.5-6.3,4.5-10,3.4
			c-3.2-1.4-4-4.8-4-8C183.9,174,187.6,167.1,192,160.4z M193.1,178.9c0,1.2,0.7,2.2,1.8,2.7c0.8,0.2,1.7,0,2.2-0.4
			c3.9-3,6.3-7.3,8.4-11.5c0.2-0.4,0.4-1.1-0.1-1.3c-2.1-1.1-4-2.6-5.7-4.5c-0.2-0.2-0.6-0.2-0.8-0.1c-1.4,2-2.5,4.1-3.4,6.3
			C194.4,172.8,193.2,175.6,193.1,178.9L193.1,178.9z M203,159.9c0.2,2.1,1.7,4,3.7,4.7c0.4,0.1,1.1,0.4,1.3-0.1
			c1.2-2.6,2.2-5.7,1.7-8.7c-0.2-0.7-0.8-1.4-1.7-1.7c-0.7-0.1-1.5,0-2.1,0.4C204.1,155.6,203,157.6,203,159.9z M240.4,177.9
			c-0.1,0.9-0.4,2.2,0.5,3c0.5,0.4,1.1,0.5,1.5,0.2c2-1.1,3.3-3.2,4.5-5c3.9-6.4,7.2-13.1,9.9-20.1c0.1-0.6,0.2-1.4-0.2-1.9
			c-1.7-0.8-3,1.1-4.1,1.9c-5.4,5.4-8.3,11.9-11,18.4L240.4,177.9z"/>
		<path class="st1" d="M248.3,127.4l3.7-4.7l0.6-0.5c10.4-0.2,20.5-6.9,27.1-16.8c-0.1,0.9-1.5,5-2,5.8
			c-4.8,11.3-16.5,21.3-29.2,21.5h-3c-0.5-0.1-0.1-0.7,0-0.9L248.3,127.4z"/>
		<path class="st1" d="M261.5,187.3c0-1.3,1.2-2.4,2.5-2.4s2.4,1.2,2.4,2.5s-1.1,2.4-2.4,2.4C262.6,189.7,261.5,188.7,261.5,187.3
			C261.4,187.3,261.4,187.3,261.5,187.3z M263.9,190.2c1.7,0,3-1.4,3-3.1c0-1.7-1.4-3-3.1-3s-3,1.4-3,3
			C260.8,188.8,262.2,190.2,263.9,190.2L263.9,190.2L263.9,190.2z M263.3,187.5h0.6l0.9,1.5h0.6l-0.9-1.5c0.5,0,0.9-0.4,0.9-0.9l0,0
			c0-0.7-0.4-0.9-1.2-0.9h-1.3v3.4h0.5L263.3,187.5z M263.3,187v-1h0.7c0.4,0,0.7,0.1,0.7,0.5s-0.4,0.6-0.8,0.6h-0.6V187z"/>
	</g>
</g>
</svg>
