<svg id="Layer_1" data-name="Layer 1" xmlns="http://www.w3.org/2000/svg" viewBox="0 0 300 300"><defs><style>.cls-1{fill:#fff;}</style></defs><title>LEN_1</title><path class="cls-1" d="M31.44,137.73h9.61v19.74H58.13v4.67H31.44Z"/><path class="cls-1" d="M64.3,137.73H91.11v4.74H73.9v5.13H91.11v4.74H73.9v5.13H91.11v4.67H64.3Z"/><path class="cls-1" d="M98.64,137.73h10.91c5.78,5.39,11.49,10.78,17.21,16.17.06-1.3.13-2.6.06-3.9V137.79h8.83v24.48H124.29c-5.65-5.39-11.23-10.84-16.88-16.23v16.23H98.64Z"/><path class="cls-1" d="M143.31,137.73h10.91c5.71,5.39,11.49,10.78,17.21,16.17.13-2.34.06-4.74.06-7.15v-9h8.83v24.48H169c-5.65-5.39-11.3-10.85-16.88-16.24v16.24h-8.77Z"/><path class="cls-1" d="M199.48,137.73h10.45c4.48,8.18,9,16.29,13.5,24.48h-9.87q-1.26-2.44-2.53-4.87H200.19c.84-1.63,1.69-3.18,2.53-4.81h5.84c-1.29-2.47-2.53-4.93-3.83-7.4-3,5.71-5.9,11.43-8.89,17.08H186Q192.65,149.93,199.48,137.73Z"/><path class="cls-1" d="M229,137.73h20.39a25.37,25.37,0,0,1,6.3.71,13.41,13.41,0,0,1,3.83,1.63,6.48,6.48,0,0,1,1.88,1.88,5.1,5.1,0,0,1,.59,3.25,6,6,0,0,1-1.89,3.76,15.31,15.31,0,0,1-5.39,2.79c3.25,3.51,6.56,6.95,9.87,10.46H252.78c-4.22-4.48-8.37-9-12.59-13.38,2.4,0,4.86.07,7.27-.13a6.77,6.77,0,0,0,3-.84,2.79,2.79,0,0,0,1.43-1.56,2.91,2.91,0,0,0-.26-2.34,3.5,3.5,0,0,0-1.69-1.17,11.35,11.35,0,0,0-3.63-.45c-2.6-.07-5.2,0-7.79,0v19.93h-9.61C229,154,229,145.84,229,137.73Z"/><path class="cls-1" d="M265.51,137.73h.71a2.63,2.63,0,0,1,2.21,2.4,2.53,2.53,0,0,1-1.82,2.6,2.9,2.9,0,0,1-1.95-.13,2.48,2.48,0,0,1-1.36-1.82,2.52,2.52,0,0,1,.19-1.56A2.42,2.42,0,0,1,265.51,137.73Zm-.33.52a2,2,0,0,0-1.43,2,2.24,2.24,0,0,0,1.43,2,2.16,2.16,0,0,0,2.14-.45,2.13,2.13,0,0,0,.59-2.21A2.24,2.24,0,0,0,265.18,138.25Z"/><path class="cls-1" d="M264.73,141.69v-2.86c.58.07,1.23-.06,1.82.07a.82.82,0,0,1,.39,1.17l-.46.32c.65.13.52.84.59,1.3h-.72a3,3,0,0,0-.13-.78c-.13-.26-.45-.19-.71-.19v1Zm.78-2.34v.78l.65-.13.06-.52A1.26,1.26,0,0,0,265.51,139.35Z"/></svg>