<svg id="Layer_1" data-name="Layer 1" xmlns="http://www.w3.org/2000/svg" xmlns:xlink="http://www.w3.org/1999/xlink" viewBox="0 0 300 300"><defs><style>.cls-1{fill:#fff;}.cls-1,.cls-3,.cls-4,.cls-5{fill-rule:evenodd;}.cls-2{mask:url(#mask);}.cls-3{fill:#4cd5f7;}.cls-4{fill:#2998e3;}.cls-5{fill:#3a5ce9;}</style><mask id="mask" x="15.37" y="12.42" width="270.14" height="271.47" maskUnits="userSpaceOnUse"><g id="mask-2"><polygon id="path-1" class="cls-1" points="15.37 12.42 285.51 12.42 285.51 283.89 15.37 283.89 15.37 12.42"/></g></mask></defs><g class="cls-2"><path id="Fill-1" class="cls-3" d="M237.68,44.36C294,89.57,301.62,172.44,255.05,231.64,208.65,292.1,123.94,302,65.49,251.34,6.84,199.36-1.62,110.86,46.93,56,95.66,2.28,181.2-2,237.68,44.36"/></g><path id="Fill-11" class="cls-4" d="M235.67,57.55c41.47,33.29,47.09,94.32,12.78,137.92-34.16,44.53-96.55,53-139.59,15.73C65.66,172.92,59.43,106.52,95.19,66.11c35.88-39.55,98.88-42.69,140.48-8.56"/><path id="Fill-12" class="cls-5" d="M232.07,70.1c31.44,25.3,35.7,71.68,9.69,104.81-25.9,33.84-73.2,39.37-105.84,11-32.75-29.1-37.48-78.62-10.37-109.34,27.21-30.06,75-32.44,106.52-6.5"/></svg>