<svg id="Layer_1" data-name="Layer 1" xmlns="http://www.w3.org/2000/svg" viewBox="0 0 300 300"><defs><style>.cls-1{fill:#ff000a;fill-rule:evenodd;}</style></defs><path id="Layer" class="cls-1" d="M190.38,287.94H109.7a2.74,2.74,0,0,1-2.29-.79l-65-49.74c-.79-.79-1.5-1.58-1.5-2.36L15.51,154.6v-2.28L40.93,65a3.65,3.65,0,0,1,1.5-2.28l66.48-49.82a2.74,2.74,0,0,1,2.29-.79h77.68a2.59,2.59,0,0,1,2.21.79l66.56,49.82c.71.71,1.5,1.5,1.5,2.28l25.34,86.58v2.29l-24.63,81.23c0,.78-.71,1.57-1.5,2.36l-65,49.74A5.51,5.51,0,0,1,190.38,287.94Zm-77-8.42h66.47a817.11,817.11,0,0,0-79.18-69.74C102.91,232,107.41,255.75,113.41,279.52Zm-9.71-78.16c29.13,21.49,56.05,46,84.39,73.59q2.44-13.14,4.34-26.29t3.48-26.44q1.5-13.23,2.52-26.45t1.66-26.6c-35.84,7.63-69.47,19.12-96.39,32.19ZM207.59,173a821.81,821.81,0,0,1-11.21,100.36l53.77-40.62C237.44,208.28,224,188.29,207.59,173ZM51.35,233.55l51.56,39A539.87,539.87,0,0,1,91.7,206.71,252.46,252.46,0,0,0,51.35,233.55ZM26.72,162.24l20.21,64.38a253.78,253.78,0,0,1,40.35-26.84C67.07,186,47.64,173,26.72,162.24ZM212.8,166.1a219.85,219.85,0,0,1,41.85,56.75l20.13-64.39c-20.13.71-41.06,3.78-62,7.64Zm-115.1-56a449.26,449.26,0,0,0,.79,83.59,451.14,451.14,0,0,1,95.6-32.19c-20.92-16.13-42.55-26.05-65-36.84C118.62,120.13,108.2,115.49,97.7,110.13Zm-71,42.19a538,538,0,0,1,62.77,39,594.57,594.57,0,0,1-.71-81.23A248,248,0,0,0,26.72,152.32ZM204.59,81.8c3,24.56,3.71,50.61,3.71,75.87a501.25,501.25,0,0,1,63.56-9.2A471.86,471.86,0,0,0,204.59,81.8ZM104.41,103.29c9,4.56,18,8.42,28.42,13,22.42,10,44.84,20.7,67.26,37.55,0-26.06-.79-52.11-4.5-77.37C162,83.29,131.33,91.79,104.41,103.29ZM46.93,74.16l-18.71,65.1C43.93,125.48,63.35,113.2,85,102.5A185.86,185.86,0,0,1,46.93,74.16Zm162.87.71a409.16,409.16,0,0,1,60.56,59l-18-63.59Zm-96.39-52.1A476.74,476.74,0,0,0,98.49,96.36a386.18,386.18,0,0,1,89.68-26C168,54.17,144.12,39.61,113.41,22.77Zm-62,43.68c11.21,11.49,23.92,20.7,38.85,29.91A414.11,414.11,0,0,1,103,28.12ZM195.67,26.62c2.92,13,5.21,26.76,7.42,40.62,3.37-.58,6.71-1.1,10-1.58s6.74-1,10.1-1.34,6.74-.7,10.11-1,6.74-.5,10.11-.71Zm-68-6.14C153.12,35,174.75,48.9,193.46,62.67c-2.21-13.77-4.5-28.33-8.21-42.19Z"/></svg>