<svg id="Layer_1" data-name="Layer 1" xmlns="http://www.w3.org/2000/svg" viewBox="0 0 300 300"><defs><style>.cls-1{fill:#fff;fill-rule:evenodd;}</style></defs><path id="path28" class="cls-1" d="M115.69,214.07c-11.1,5.32-22.65,11.12-34.55,17.44,0,0,3.11-6.07,15.42-16.73a11.53,11.53,0,0,1-1.63-1,9.83,9.83,0,0,1-3.43-3.11,61.38,61.38,0,0,1-16.56,2.23c-10.4,0-24.91-2.78-34.95-16.06a28.57,28.57,0,0,1-5.36-16.12c-.32-1.43-1.87-10.92,7.4-28.5l.64-2.32.42-.28c.13-.09,10.11-6.84,28.06-17.59,0,0,0-.1,0-.13l.17,0c5.17-3.1,11-6.52,17.47-10.22v0L129.13,91l.17-.13,0,0,.39-.29,0,0c2.33-1.49,14-8.62,32-14.38H16.5V233H252.7V162.68c-1.25.3-55.15,12.91-131,48.55-1,.61-2.12,1.18-3.25,1.71C117.53,213.37,116.61,213.72,115.69,214.07Z"/><path id="path30" class="cls-1" d="M152.79,186.12l15.65-7.38c0-2.06,0-4-.09-5.81-5.38,2.53-10.6,4.94-15.57,7.2.06,1.87.07,3.87,0,6Z"/><path id="path32" class="cls-1" d="M186.8,170.08q0-3.14-.12-5.91c-5.36,2.6-10.6,5.12-15.62,7.49.1,1.81.13,3.75.13,5.78Z"/><path id="path34" class="cls-1" d="M240.23,106.84l-39.58-5.18-.34-.62a54.24,54.24,0,0,0-3.13-4.85c-4.69,1.36-9.25,2.92-13.55,4.55,1.65,2.4,3.25,5,4.75,7.69,2-.56,4-1.06,6.11-1.46a57.76,57.76,0,0,1,11.07-1.06A60.07,60.07,0,0,1,233.93,113c1.28-.52,5.14-2.41,6.3-6.14Z"/><path id="path36" class="cls-1" d="M150.06,181.35c-4.46,2-8.79,3.93-12.91,5.71a10.92,10.92,0,0,1,.13,3.92,11.84,11.84,0,0,1-.29,2.6l13-6.15C150.09,185.28,150.1,183.25,150.06,181.35Z"/><path id="path38" class="cls-1" d="M207.88,160.13l3.68-1.73a11.15,11.15,0,0,1-.46-1.26,12.22,12.22,0,0,1-.18-4.91l-3.11,1.54C207.91,155.74,207.93,157.88,207.88,160.13Z"/><path id="path40" class="cls-1" d="M205.09,161.45q.14-3.39,0-6.34c-5.39,2.68-10.66,5.29-15.75,7.76q.16,2.77.18,5.91l15.54-7.33Z"/><path id="path42" class="cls-1" d="M74.61,146.75q-8.55,5.28-15,9.43A48,48,0,0,0,72,173.71c5-3.09,10.53-6.48,16.21-9.92C81.24,157.64,77.07,151.75,74.61,146.75Z"/><path id="path44" class="cls-1" d="M71.62,177.17c-5,3.09-9.34,5.83-12.74,8,.24,0,.47,0,.71,0a19.44,19.44,0,0,1,3.62.34c5.71,1.07,11.57,4.76,14.61,6.89,1.31-.84,4.28-2.72,8.36-5.25A83.26,83.26,0,0,1,71.62,177.17Z"/><path id="path46" class="cls-1" d="M89.87,204.8c-7.83,2.21-14,3.32-18.53,3.32a19.34,19.34,0,0,1-3.69-.31C58.24,206,50.84,203,45.43,198.88c9.1,9.18,20.82,11.25,29.51,11.25a60.64,60.64,0,0,0,15.34-2,.67.67,0,0,0-.06-.15A10.6,10.6,0,0,1,89.87,204.8Z"/><path id="path48" class="cls-1" d="M105.18,175.68a105.08,105.08,0,0,1-14.77-10c-5.69,3.43-11.23,6.83-16.27,10a81.26,81.26,0,0,0,14.75,9.79C93.47,182.6,99.08,179.23,105.18,175.68Z"/><path id="path50" class="cls-1" d="M187.22,111.65a114.16,114.16,0,0,0-25.06,11.46l-30.63,38.38c23.52-10.45,47.91-22,66.92-31.11a41.08,41.08,0,0,0-11.23-18.73Z"/><path id="path52" class="cls-1" d="M230.93,114.52a58.92,58.92,0,0,0-25.37-5.86,56.12,56.12,0,0,0-9.61.87c3.17,2.68,8.86,8.37,11.58,16.46C218.66,120.6,227.05,116.45,230.93,114.52Z"/><path id="path54" class="cls-1" d="M169.35,115.94c-1.52-2.57-3-5-4.45-7.15-5.34,2.58-9,4.56-10.07,5.18,1.3,1.85,2,3.06,2.15,3.24l.4.66-.35.69c-5.79,11.14-34,41.1-35.21,42.37l-.61.66-.85-.31a64.23,64.23,0,0,1-12.45-6c-4.9,2.83-10,5.83-15,8.83a103,103,0,0,0,15,10c5.78-3.33,11.9-6.74,18-9.91l34.59-43.26c.29-.19,3.66-2.35,8.87-5Z"/><path id="path56" class="cls-1" d="M168.18,170a73,73,0,0,0-1.84-12c-5,2.29-10.19,4.67-15.54,7.11a67.9,67.9,0,0,1,1.83,12.09c5-2.26,10.18-4.68,15.55-7.22Z"/><path id="path58" class="cls-1" d="M277.35,114.4l-4-8.41c-1.77.94-5.24,2.78-10.58,5.54a41.08,41.08,0,0,1,2.4,9.72C269.5,118.85,277.35,114.4,277.35,114.4Z"/><path id="path60" class="cls-1" d="M265.53,132.44l16.82-12.38,1.15-5.36q-9.19,4.88-18,9.49a59.29,59.29,0,0,1,0,8.25Z"/><path id="path62" class="cls-1" d="M255.53,73.18l-2.69.89c7.64,6.69,16.86,16.64,22.51,29.41l4.6,10,3.51-1.86A110.49,110.49,0,0,0,255.53,73.18Z"/><path id="path64" class="cls-1" d="M203.06,140.89q-7.53,3.57-15.91,7.49a71.68,71.68,0,0,1,2,11.57c5.11-2.49,10.39-5.11,15.8-7.8A56.61,56.61,0,0,0,203.06,140.89Z"/><path id="path66" class="cls-1" d="M73.47,144.21a31.39,31.39,0,0,1-2.29-9c-5.5,3.31-10.2,6.2-14.05,8.62a30.69,30.69,0,0,0,1.49,9.69q6.45-4.09,14.85-9.3Z"/><path id="path68" class="cls-1" d="M184.6,149.58c-5,2.33-10.25,4.77-15.7,7.28a73.18,73.18,0,0,1,1.95,11.91c5-2.38,10.26-4.91,15.63-7.53A72.66,72.66,0,0,0,184.6,149.58Z"/><path id="path70" class="cls-1" d="M130.36,179.88c-.26-1.81-.59-3.52-1-5.06l-10.32,4.61a29.56,29.56,0,0,1,5.11-.53A18.47,18.47,0,0,1,130.36,179.88Z"/><path id="path72" class="cls-1" d="M136.23,184.55c4.36-1.89,9-4,13.71-6.09a68.44,68.44,0,0,0-1.71-12.14c-5.23,2.38-10.68,4.84-16.26,7.35a62.18,62.18,0,0,1,1.36,7.72A9.49,9.49,0,0,1,136.23,184.55Z"/><path id="path74" class="cls-1" d="M257.8,134.8a10.57,10.57,0,0,1,.31,1.95s0,.07,0,.11c.08.29.11.6.17.89l4.26-3.14a58.43,58.43,0,0,0,.24-9l-8.16,4.27a9.5,9.5,0,0,1,3.14,4.93Z"/><path id="path76" class="cls-1" d="M39.71,188c4,8.45,13.58,14.21,28.47,17.13,4.46.87,11.88-.21,22.15-3.18,1.31-5.06,5.47-10.43,11.4-14.8-7.32,3.23-14.86,6.54-22.69,10l0-.1a17.21,17.21,0,0,1-6.41,1.6,18.9,18.9,0,0,1-2,.1c-7.33,0-16.43-3.6-21.16-8.36l-.13-.13c-6.55-5.31-10.64-11-10.64-20.37C37.25,175.41,36.86,182,39.71,188Z"/><path id="path78" class="cls-1" d="M222.37,135.57a36.39,36.39,0,0,0-.58-3.65c-5,2.43-10.44,5-16.21,7.77a57.33,57.33,0,0,1,2,11.13c1.42-.72,2.81-1.41,4.26-2.13,1.75-4.55,5.48-9.21,10.49-13.12Z"/><path id="path80" class="cls-1" d="M244,126.9a32.62,32.62,0,0,0-1.1-5.33c-5.45,2.71-11.67,5.76-18.6,9.12.23.93.42,2,.59,3a45.23,45.23,0,0,1,5.31-3.09A34.58,34.58,0,0,1,244,126.9Z"/><path id="path82" class="cls-1" d="M262.58,122.62a41,41,0,0,0-2.26-9.83c-4.06,2.09-9,4.61-14.9,7.53a34.93,34.93,0,0,1,1.37,6.6,15.83,15.83,0,0,1,5.15,1.27l10.64-5.57Z"/><path id="path84" class="cls-1" d="M184.17,140.25a34.7,34.7,0,0,1,2.2,5.46q8.34-3.9,15.83-7.46a26.53,26.53,0,0,0-2.57-5.39C194.79,135.19,189.6,137.67,184.17,140.25Z"/><path id="path86" class="cls-1" d="M59.59,187.85a14.87,14.87,0,0,0-7,1.68c4.92,4,13.6,7,19.67,6.31a21.55,21.55,0,0,0,4.5-.85c-2.65-1.9-8.58-5.81-14.1-6.84A16.54,16.54,0,0,0,59.59,187.85Z"/><path id="path88" class="cls-1" d="M57.08,157.76C48.3,163.39,42.93,167,41.4,168.08c-.62,9.94,3.41,14.83,8.8,19.31,1.48-.95,9.07-5.78,19.29-12.13A49.89,49.89,0,0,1,57.08,157.76Z"/><path id="path90" class="cls-1" d="M129.34,165.47a50.29,50.29,0,0,1,1.91,5.51c5.61-2.52,11-5,16.26-7.35a32.08,32.08,0,0,0-2.08-5.37C140.05,160.7,134.67,163.12,129.34,165.47Z"/><path id="path92" class="cls-1" d="M54.36,145.57c-5.06,3.2-8.23,5.3-9.31,6l-.12.38.1,0a72.18,72.18,0,0,0-3.24,12.47c2.68-1.8,7.51-5,14.32-9.37A33.91,33.91,0,0,1,54.36,145.57Z"/><path id="path94" class="cls-1" d="M82.81,192.43q24.64-10.77,45.9-20.31a55.58,55.58,0,0,0-1.82-5.36C109.22,176.05,90.88,187.36,82.81,192.43Z"/><path id="path96" class="cls-1" d="M163.26,78.66c1,.77,2.22,1.82,3.67,3.12,3.81-1.36,7.63-2.58,11.27-3.51a45.61,45.61,0,0,0-4.33-2.3,26.77,26.77,0,0,0-2.9.45C168.28,77.12,165.72,77.88,163.26,78.66Z"/><path id="path98" class="cls-1" d="M239.1,96.43c1.94-.66,5.88-2,10.57-3.52a78.11,78.11,0,0,0-14.2-16.36c-4.32,1.22-7.73,2.22-9.76,2.83A50,50,0,0,1,239.1,96.43Z"/><path id="path100" class="cls-1" d="M202.38,99.11,239.3,104c-2.13-6.2-10.14-25-29.77-29.27l-1.94.11-4.18.46-3.26,0-.52,0-15.83-.2c-1.09.08-2.92.24-4.88.41,13.77,7.84,21.72,20.64,23.46,23.65Z"/><path id="path102" class="cls-1" d="M222.88,77.35c.42-.13,4.17-1.25,9.92-2.9A30.82,30.82,0,0,0,226,70.54l-10.75,3a38,38,0,0,1,7.59,3.84Z"/><path id="path104" class="cls-1" d="M261.84,108.92c5.36-2.76,8.82-4.6,10.47-5.48A71.07,71.07,0,0,0,264.79,91c-3.51,1.06-7.28,2.25-10.84,3.4a143.54,143.54,0,0,1,7.89,14.51Z"/><path id="path106" class="cls-1" d="M251.23,95.29c-4.74,1.55-8.83,2.92-10.95,3.64a46.33,46.33,0,0,1,2.31,6.32l.49,2-.6-.07.52.13a10.45,10.45,0,0,1-2.26,4.19,24.4,24.4,0,0,1,3.72,6.26c5.91-3,10.87-5.46,14.94-7.54a138.73,138.73,0,0,0-8.17-14.89Z"/><path id="path108" class="cls-1" d="M247.49,73.22c-3.15.85-6.11,1.67-8.82,2.43A83.93,83.93,0,0,1,252.41,92c3.44-1.11,7.11-2.27,10.59-3.34A102,102,0,0,0,247.49,73.22Z"/><path id="path110" class="cls-1" d="M202.12,131.66a29.68,29.68,0,0,1,2.58,5.4q8.75-4.16,16.33-7.83a18,18,0,0,0-2.72-5.43c-4.64,2.27-10.1,4.93-16.19,7.86Z"/><path id="path112" class="cls-1" d="M166.05,148.77a38,38,0,0,1,2.09,5.41q8.19-3.77,15.7-7.28a34.25,34.25,0,0,0-2.16-5.47C176.63,143.82,171.41,146.28,166.05,148.77Z"/><path id="path114" class="cls-1" d="M236.71,114.69l-2.17,1.11c-.17.08-5.31,2.65-13.72,6.77a21.56,21.56,0,0,1,2.7,5.45c6.9-3.35,13-6.37,18.46-9.06a22.37,22.37,0,0,0-3.25-5.6A17,17,0,0,1,236.71,114.69Z"/><path id="path116" class="cls-1" d="M147.94,157.12a33.07,33.07,0,0,1,2.12,5.35c5.38-2.45,10.54-4.81,15.54-7.12a36.58,36.58,0,0,0-2-5.41C158.41,152.32,153.19,154.73,147.94,157.12Z"/><path id="path118" class="cls-1" d="M244.78,71.1c-.85-.64-1.65-1.23-2.36-1.73l-.15-.11c-1.61-1.14-2.77-1.89-3.38-2.26l-8.78,2.43a42.55,42.55,0,0,1,6,4.07c2.62-.74,5.53-1.55,8.64-2.4Z"/><path id="path120" class="cls-1" d="M120.44,158.38c4.16-4.44,27.9-30,33.77-40.4-2.05-3.17-11.45-16.9-24.22-24.12-5.72,4.48-35.39,27.67-38.11,29.23l-.47.27C91.19,127.65,91.78,147.68,120.44,158.38Z"/><path id="path122" class="cls-1" d="M148.39,89.37A30.71,30.71,0,0,0,144,86.13v0a123.44,123.44,0,0,0-11.55,6.05c1.46.89,2.88,1.82,4.23,2.83,1.1-.56,5.57-2.83,11.68-5.61Z"/><path id="path124" class="cls-1" d="M164,82.87c-1.78-1.56-3.13-2.63-3.86-3.18-4.93,1.67-9.34,3.41-13.12,5.07a47.6,47.6,0,0,1,4.19,3.36C155.08,86.4,159.47,84.57,164,82.87Z"/><path id="path126" class="cls-1" d="M153.39,90.18a101.82,101.82,0,0,1,12.45,15.12c3.88-1.82,8.46-3.85,13.48-5.84a106.6,106.6,0,0,0-13-14.5c-4.49,1.65-8.92,3.48-12.9,5.22Z"/><path id="path128" class="cls-1" d="M171.83,114.73a110.07,110.07,0,0,1,13.85-5.5c-1.48-2.64-3.07-5.14-4.7-7.48-5,2-9.66,4-13.57,5.85q2.16,3.27,4.42,7.13Z"/><path id="path130" class="cls-1" d="M205,127c-3-9-10.25-15-12.28-16.57l-2.08.68A43.25,43.25,0,0,1,201,129.08Z"/><path id="path132" class="cls-1" d="M90.72,162.27c4.88-2.93,9.83-5.87,14.64-8.66a39.64,39.64,0,0,1-14-17c-5.11,3.05-9.87,5.94-14.26,8.63C79.45,150.15,83.58,156.07,90.72,162.27Z"/><path id="path134" class="cls-1" d="M150.63,91.4c-5.26,2.36-9.45,4.41-11.5,5.44a85.51,85.51,0,0,1,14.07,14.89c.49-.28,4.23-2.38,10.12-5.23a95.74,95.74,0,0,0-12.69-15.1Z"/><path id="path136" class="cls-1" d="M90.35,134a33.34,33.34,0,0,1-1.66-9c-5.39,3.1-10.35,6-14.82,8.67a27.88,27.88,0,0,0,2.08,9.1q6.66-4.08,14.4-8.72Z"/><path id="path138" class="cls-1" d="M181.41,80.32a112.63,112.63,0,0,0-12.18,3.58A107.77,107.77,0,0,1,182,98.42c4.26-1.63,8.77-3.19,13.43-4.58A65.79,65.79,0,0,0,181.41,80.32Z"/><path id="path140" class="cls-1" d="M255.5,137.59c-.94-3.42-4.52-5.39-9.82-5.39a31.78,31.78,0,0,0-13.13,3.27c-11,5.16-18.78,14.95-17,21.39a6.28,6.28,0,0,0,1.07,2.11c1.62,2.1,4.66,3.27,8.74,3.27a24.94,24.94,0,0,0,3.95-.37,11.72,11.72,0,0,1-4.86-1.08,6.63,6.63,0,0,1-3.71-4.27c-1.52-5.57,4.1-13.12,12.79-17.2a23.91,23.91,0,0,1,9.9-2.44c4.65,0,8,2,8.88,5.35a7.87,7.87,0,0,1,.08,3.32,12.66,12.66,0,0,1-1.82,4.64c3.83-4.24,5.84-8.8,5-12.39a1.77,1.77,0,0,0,0-.21Z"/><path id="path142" class="cls-1" d="M243.4,139.63a21.12,21.12,0,0,0-8.73,2.18c-7.27,3.41-12.45,9.82-11.32,14,.83,3,4.64,3.34,6.23,3.34a21,21,0,0,0,8.73-2.19c7.27-3.4,12.45-9.82,11.31-14-.81-3-4.62-3.33-6.22-3.33Z"/><path id="path144" class="cls-1" d="M124.51,183.68A31.63,31.63,0,0,0,111.37,187c-11,5.15-18.78,14.93-17,21.38a6.12,6.12,0,0,0,2.05,3.14c1.74,1.45,4.4,2.24,7.76,2.24a24,24,0,0,0,4-.38,12.75,12.75,0,0,1-3.53-.54A7,7,0,0,1,99.52,208c-1.52-5.57,4.11-13.13,12.8-17.2a23.77,23.77,0,0,1,9.9-2.45c4.65,0,8,2,8.88,5.35a8.41,8.41,0,0,1-.3,4.83,13.85,13.85,0,0,1-1.44,3.13c3.34-3.69,5.29-7.64,5.18-11a7.45,7.45,0,0,0-.23-1.64c-.93-3.42-4.5-5.38-9.8-5.38Z"/><path id="path146" class="cls-1" d="M122.22,191.1a21.12,21.12,0,0,0-8.73,2.18c-7.27,3.41-12.45,9.82-11.32,14,.82,3,4.63,3.33,6.23,3.33a21,21,0,0,0,8.73-2.18c7.27-3.41,12.45-9.81,11.32-14C127.63,191.43,123.82,191.1,122.22,191.1Z"/></svg>