<svg id="Layer_1" data-name="Layer 1" xmlns="http://www.w3.org/2000/svg" viewBox="0 0 300 300"><defs><style>.cls-1{fill:#fff;}</style></defs><title>LLY_Logo_Dark</title><g id="layer1"><path id="path29682" class="cls-1" d="M136.26,139.07a6.13,6.13,0,1,1-6.13,6.13,6.12,6.12,0,0,1,6.13-6.13h0M275,160c-9.65,9.6-39.71,36-47.67,58.19l-9.84-2.54c3.22-9.21,12.92-23.51,23.72-34.54a19.19,19.19,0,0,1-6.62,1.19c-2.92,0-5.19-.89-6.56-2.53a7.07,7.07,0,0,1-1.48-4.6,8.41,8.41,0,0,1,.1-1.27c-9.51,5.8-17.14,8.4-24.61,8.4-5.83,0-10.73-2.53-13-7-9.41,4.69-18.46,7-26,7-7,0-12.7-2.79-15.28-7.86-9.54,5.35-17.64,7.86-24.07,7.86-3.74,0-6.67-1-8.58-3a8.33,8.33,0,0,1-2.2-5.59c-6.11,4-15,8.57-24.19,8.57a35.37,35.37,0,0,1-20.5-6.41,51.73,51.73,0,0,1-25.34,6.41C36,182.25,25,179.41,25,169.62c0-7.91,8.27-13.27,19.3-13.27,9.37,0,18.41,4,24.1,8.06,5.37-4.28,11-10.29,17.7-18.77-1.48.1-2.91.14-4.32.14-12.77,0-23.41-3.78-29.23-10.35a18.06,18.06,0,0,1-4.63-12.24c0-17.75,22.43-31.51,42-33.55,1.3,2.93,2.47,5.21,3.67,7.89-19.4,2.25-35.53,13.73-35.53,24.94,0,7.37,8.29,14.77,25.85,14.77a63.39,63.39,0,0,0,9-.71c15.52-21.41,39.29-54.67,59.76-54.67,6,0,9.21,3.69,9.21,8.6,0,10.14-8.71,21-14.37,26.72-8.93,8.95-25.06,22.29-47.58,26.7C91.22,156.07,84,164.15,76.83,170c4.36,2.34,8.45,3.78,13.34,3.78,12.11,0,23.88-11.09,33.06-20.5l.33-.31,7.16,5.59-.33.4c-4.06,4.65-7.82,9.58-7.82,12.33,0,2.09,1.79,2.51,3.29,2.51,4.65,0,11.81-3,20.22-8.2v-.07c.94-20.78,29.33-52.62,46.57-52.62,4.86,0,7.65,2.42,7.65,6.67,0,10.45-18,32.8-44.15,49.9v0c1.34,2.91,4.46,4.32,9.75,4.32,4.13,0,12.21-1.83,21.81-6.85,1.11-10.78,7.21-22.36,15-30.6s16.49-13.65,24-13.65c4.65,0,7.39,2.56,7.39,6.58,0,9.09-10.56,24.66-36,40.93,1.13,2.18,3.31,3.57,6.72,3.57,7.58,0,20.92-8.08,31.32-18l7.47,5.8c-3.19,3.87-6.41,8.12-6.32,10.56,0,.8.57,1.34,1.83,1.34,7.66,0,19.73-10.12,28.77-19.07L275,160h0M107.8,132.8c11.23-3.62,21.89-11.13,29.85-19,7.32-7.28,13.22-15.92,13.22-20.19a1.52,1.52,0,0,0-1.6-1.58c-3.38,0-9.84,4.53-18.53,13.22A229.16,229.16,0,0,0,107.8,132.8h0m-48,37.13a30.67,30.67,0,0,0-16.25-5.38c-5.54,0-9.09,2.16-9.09,4.93,0,3.15,4.32,4.51,9.14,4.51a36.41,36.41,0,0,0,16.2-4.06h0M156,159.52c15.66-11.83,32.13-29.07,33.89-36.14a2.36,2.36,0,0,0,.09-.68.84.84,0,0,0-.87-.89c-5,0-27.92,21.18-33.11,37.71h0m41.54,1.88c1.46-1,3-2.23,4.49-3.38,11.25-9,19.84-18.86,21.56-24.33a5,5,0,0,0,.18-1.08c0-.56-.25-1-.77-1-5.17,0-21.75,16.51-25.76,29.87v0l.3-.17Z"/></g></svg>