<svg id="Layer_1" data-name="Layer 1" xmlns="http://www.w3.org/2000/svg" viewBox="0 0 300 300"><title>LNT_Mark_Dark</title><path d="M171.72794,112.75209l9.02979,21.728,22.01013,9.0298L224.4958,90.742Z" fill="#74be45"/><path d="M75.222,90.742l22.01013,52.76787,21.728-9.0298,9.0298-21.72794Z" fill="#fab01a"/><path d="M224.4958,152.53962l-21.72794-9.02979L193.73806,165.52l9.0298,21.72795,21.72794-9.0298L255.53573,165.52Z" fill="#fee600"/><path d="M211.79765,209.258l-9.02979-22.01012L193.73806,165.52,180.75773,196.2777l-9.02979,22.01013,22.01012,9.02979,30.75773,12.69815Z" fill="#23aae2"/><path d="M97.23213,143.50983,75.222,152.53962,44.46427,165.52,75.222,178.21811l22.01013,9.0298,9.0298-21.72795Z" fill="#fee600"/><path d="M97.23213,143.50983l9.0298,22.01013L118.96008,134.48Z" fill="#fecf0a"/><path d="M180.75773,134.48,193.73806,165.52l9.0298-22.01012Z" fill="#c3d830"/><path d="M118.96007,196.27769,106.26192,165.52l-9.02979,21.72795L88.20233,209.258,75.222,240.01577l31.03992-12.69815,21.72795-9.02979Z" fill="#23aae2"/><path d="M127.98987,218.28782,150,165.52,171.728,218.28782l9.02979-22.01013L193.73807,165.52,180.75774,134.48l-9.02979-21.728L150,59.98423l-22.01012,52.76786-9.0298,21.728L106.26193,165.52l12.69815,30.75774Z" fill="#0886c8"/></svg>