<svg id="Layer_1" data-name="Layer 1" xmlns="http://www.w3.org/2000/svg" viewBox="0 0 300 300"><defs><style>.cls-1{fill:#fff;}</style></defs><title>LOW_Dark_bg</title><path class="cls-1" d="M86.29,120.66,150,93.36l63.72,27.3h39.72v11.13h19.91v74.85H26.64V131.79H46.55V120.66ZM51.8,125.9V137H31.88V201.4H268.12V137H248.21V125.9H212.66L150.07,99.07,87.48,125.9Z"/><polygon class="cls-1" points="208.86 140.56 208.85 152.66 216.68 152.68 218.31 140.57 208.86 140.56"/><path class="cls-1" d="M247.89,152.73a3.48,3.48,0,1,1,3.48,3.43,3.42,3.42,0,0,1-3.48-3.43m3.48,2.87a2.86,2.86,0,1,0-2.8-2.87,2.76,2.76,0,0,0,2.8,2.87m-.73-.88h-.59v-4h1.5c.94,0,1.39.34,1.39,1.12a1,1,0,0,1-1,1.09l1.13,1.75h-.67l-1-1.72h-.69Zm.72-2.22c.51,0,1,0,1-.66s-.44-.57-.86-.57h-.82v1.23Z"/><polygon class="cls-1" points="66.01 181.78 66.01 140.56 54.73 140.56 54.73 191.61 83.45 191.61 83.45 181.78 66.01 181.78"/><polygon class="cls-1" points="179.52 191.61 206.36 191.61 206.36 181.77 190.86 181.77 190.86 175.37 206.36 175.37 206.36 165.91 190.86 165.91 190.86 159.47 206.36 159.47 206.36 149.59 179.52 149.59 179.52 149.63 179.52 191.61"/><path class="cls-1" d="M120.52,186.24a5.36,5.36,0,0,1-5.36,5.37H93.37A5.36,5.36,0,0,1,88,186.24V155a5.37,5.37,0,0,1,5.36-5.38h21.79a5.37,5.37,0,0,1,5.36,5.38Zm-11.29-26.77H99.31v22.27h9.92Z"/><path class="cls-1" d="M161.78,149.59v32.2H155v-32.2h-9.92v32.2h-6.8v-32.2H126.94v36.65a5.37,5.37,0,0,0,5.37,5.37h13.35c2.25,0,4.35-1.55,4.35-3.8,0,2.25,2.1,3.8,4.34,3.8h13.36a5.37,5.37,0,0,0,5.37-5.37V149.59Z"/><path class="cls-1" d="M246,175.73h0l-.08-.15a1.26,1.26,0,0,0-.13-.26l-.07-.14c-1.79-3.58-5.79-6.58-12.23-9.16l-.23-.09c-1.27-.49-5.15-2-5.58-4.48a2.83,2.83,0,0,1,.92-2.43,5,5,0,0,1,3.71-1.25,20.73,20.73,0,0,1,7.16,1.71c3.26,1.35,6.11,2.56,6.14,2.57l.29.12V153l-.1-.06c-.06,0-6.22-3.93-12.45-4.82-.71-.06-1.42-.09-2.1-.09-5.73,0-10.07,2.08-12.9,6.19-2.37,3.37-2.64,8.71-.61,12.69,2.59,4.51,6.75,6.39,10.78,8.21a49.1,49.1,0,0,1,5,2.48h0c1.82,1.09,2.74,2.76,2.36,4.25s-2.15,2.56-4.38,2.56a9.08,9.08,0,0,1-.91-.05l-.11,0c-4.27-.59-12.94-3.82-13-3.85l-.28-.11v10.06l.14,0c.09,0,8.48,2.81,15.93,2.81,4.06,0,7.13-.83,9.11-2.44a14.08,14.08,0,0,0,4.8-9.91,11.26,11.26,0,0,0-1.16-5.24"/></svg>