<svg id="Layer_1" data-name="Layer 1" xmlns="http://www.w3.org/2000/svg" xmlns:xlink="http://www.w3.org/1999/xlink" viewBox="0 0 300 300"><defs><style>.cls-1{fill:#cdcccc;}.cls-2{fill:url(#linear-gradient);}.cls-3{fill:url(#linear-gradient-2);}.cls-4{fill:url(#linear-gradient-3);}</style><linearGradient id="linear-gradient" x1="161.69" y1="259.43" x2="259.96" y2="197.08" gradientTransform="matrix(1, 0, 0, -1, 0, 302)" gradientUnits="userSpaceOnUse"><stop offset="0" stop-color="#fab815"/><stop offset="0.54" stop-color="#eeaf15"/><stop offset="1" stop-color="#e3a714"/></linearGradient><linearGradient id="linear-gradient-2" x1="42.4" y1="129.26" x2="183.03" y2="129.26" gradientTransform="matrix(1, 0, 0, -1, 0, 302)" gradientUnits="userSpaceOnUse"><stop offset="0.35" stop-color="#3951a3"/><stop offset="0.5" stop-color="#384fa0"/><stop offset="0.65" stop-color="#364c9a"/><stop offset="0.79" stop-color="#324691"/><stop offset="0.94" stop-color="#2d3e83"/><stop offset="1" stop-color="#2a3a7c"/></linearGradient><linearGradient id="linear-gradient-3" x1="44.44" y1="221.86" x2="240.75" y2="139.94" gradientTransform="matrix(1, 0, 0, -1, 0, 302)" gradientUnits="userSpaceOnUse"><stop offset="0" stop-color="#e42026"/><stop offset="1" stop-color="#be191d"/></linearGradient></defs><title>Artboard 19</title><path class="cls-1" d="M250.62,78.26c-21.83-43-81.18-34.45-100.62-18.42C130.56,44.15,71.21,35.28,49.38,78.26c-24.9,49.11,10.57,116,100.62,175C240.05,193.89,275.52,127.38,250.62,78.26Z"/><path class="cls-2" d="M252,124a68.66,68.66,0,0,0-6.14-43.66C233.23,55.4,208,51.65,194.34,51.65A83.18,83.18,0,0,0,155.8,61.88C199.12,85.76,242.78,117.48,252,124Z"/><path class="cls-3" d="M47.67,98.72c-8.19,44.69,29,99.6,102,148a420.84,420.84,0,0,0,41.27-31.38C177.29,203.78,100.88,139.65,47.67,98.72Z"/><path class="cls-4" d="M200.82,205.49c23.54-22.86,39.57-46.05,46.73-67.88-9.55-8.19-52.53-45-98.57-72-9.55-6.14-22.86-14-44.35-14-14,0-38.88,3.75-51.5,28.65a61.28,61.28,0,0,0-4.78,12.28C104.63,130.44,187.18,194.91,200.82,205.49Z"/></svg>