<?xml version="1.0" encoding="utf-8"?>
<!-- Generator: Adobe Illustrator 24.0.1, SVG Export Plug-In . SVG Version: 6.00 Build 0)  -->
<svg version="1.1" id="Layer_1" xmlns="http://www.w3.org/2000/svg" xmlns:xlink="http://www.w3.org/1999/xlink" x="0px" y="0px"
	 viewBox="0 0 300 300" style="enable-background:new 0 0 300 300;" xml:space="preserve">
<style type="text/css">
	.st0{fill:#FFFFFF;}
</style>
<title>LVS_Dark_bg</title>
<path class="st0" d="M33.9,173.5c6,0.1,3.8-3.6,12-2.3c13.7,2.2,20,5.9,38.2,3.3c8.7-1.2,15.3-3.4,21.3-7.6
	c6.2-4.4,8.9-12.4-0.1-16.9c-6.2-3.1-16.2-4.2-24.1-4.9c-7-0.7-19.5-0.9-22.8-5.7c-6.9-10.1,39.4-12,39.9-0.7l-2,1.5
	c-0.1,0.1-0.2,0.4-0.3,0.3s-0.2,0.2-0.3,0.3c2.4,1,2.1,1.3,4.9,0.2s12.6-4.4,13.8-5.9c-3.6-11.8-52.4-11.8-66.5,2
	c-4.9,4.8-4.7,10.4,1.9,13.4c7.2,3.3,27.5,4.8,36.6,6.1c5.6,0.8,13.9,2.2,12.9,8.5c-5.5,8.4-29.3,2.4-37.2-0.9
	c-8.1-3.4-7.1-6.9-16-1C42.9,165.3,35,171.1,33.9,173.5z M220.1,154.3c1.2,2.1,1.4,11.1-0.6,12.3s-9.4-1.7-10.4-2.8
	c-1.7-1.9-1.7-10.7,0.2-12.1S218.7,152.1,220.1,154.3z M122.1,133.6c4,1.5,5.6,0.2,12.4-0.7c4.4-0.6,8.8-1.1,13.3-1.5
	c16.9-1.4,39.4-1.8,56.1,1.5c8.4,1.6,16.3,4.5,17.2,12.8c-30.9-1.3-26.8,27.2-11.2,28.6c16.5,1.4,28.2-25.8,19.7-38.6
	c-12.1-18-79.3-10.2-104.3-3.4L122.1,133.6z M123.8,165c-2.7-4.2-1.8-19.9,11.4-13.9c4.8,2.1,0.6,6.5-1.8,8.9S128.9,165.9,123.8,165
	L123.8,165z M147.4,146c-12.3,2.7-11.4-3.6-21.4,1.2c-19.5,9.4-16,40.9,5.5,19.2c1.1-1.1,4.8-5.7,5.9-6.4c0,5.9-0.8,14.8,6.8,13.6
	c2.3-0.4,10.3-4.6,10.2-10.3C145.4,168.8,147.5,163.2,147.4,146L147.4,146z M153.6,153.1c0.8-0.7,2-0.9,3-0.5
	c1.9,1.2,0.9,16.9,1,20.9c4.5,0.5,4.8-1.2,6.5-3.9c2-3.2,11.9-17.5,15.3-15.5c3.1,1.9-3.5,25.8,9.1,18.5c1.6-1,3.1-2.3,4.5-3.7
	c1.8-1.9,2.6-2.2,2.6-5.8c-1.6,1.1-2.4,2.5-5,2.1c-1.4-11,3.5-23.6-8.7-18.1c-6.3,2.8-10.2,6.9-14.1,10.5c-0.2-5.2,0.7-9.6-2.7-12.5
	c-3.8-0.4-8.8,3.6-11.7,5.1L153.6,153.1L153.6,153.1z M242.9,152c0.2-4.1,4.2-4.2,8.2-3.8c8.3,0.9,5.3,2.9,6.8,4.3
	c1.5-0.1,7.3-2.6,8.2-3.8c-3.4-5.2-23.7-6-30.4,3c-9.1,12.3,20.7,7.6,21.7,15.7c-3,5.2-12.2,1.4-16.9-0.5c-4-1.7-5-1.8-8.1,0.9
	c-1.7,1.5-4.3,3.6-5.3,5.7c4.4,0,2.6-1.9,9-0.7c3.1,0.7,6.2,1.1,9.4,1.2c6.3,0,12.5-1.8,16.2-5c5.4-4.7,6-9.6-2.2-12.4
	C253.9,154.7,246.5,154.9,242.9,152L242.9,152z"/>
</svg>
