<svg id="Layer_1" data-name="Layer 1" xmlns="http://www.w3.org/2000/svg" viewBox="0 0 300 300"><defs><style>.cls-1{fill:#ffb700;}.cls-1,.cls-2,.cls-3{fill-rule:evenodd;}.cls-2{fill:#e75300;}.cls-3{fill:#003764;}</style></defs><title>LW</title><path class="cls-1" d="M271.89,169.75a8.09,8.09,0,0,0-.36-2.51c-.36-2.52-.36-5-.71-7.19a3.91,3.91,0,0,0-.36-1.8c-.36-2.51-1.08-5-1.44-7.54a22.94,22.94,0,0,1-.72-2.52,51.64,51.64,0,0,0-2.88-7.91,3.53,3.53,0,0,0-.36-1.07c0-.36-.35-.72-.71-1.08-1.08-1.8-1.8-3.24-2.88-5-.36-.36-.72-.72-.72-1.08l-.72-.72v-.36c-.36-.36-.36-.36-.36-.72a3.83,3.83,0,0,0-1.43-1.08,5,5,0,0,1-1.44-1.08c-.72-.71-1.8-1.07-2.52-1.79l-.36-.36a5.18,5.18,0,0,1-1.08-.72c-.35-.36-.71-.36-1.07-.72a1.26,1.26,0,0,1-.72-.36l-.36-.36c-.36-.36-.72-.36-1.44-.72l-.36-.36a23.35,23.35,0,0,0-2.51-.72,44.76,44.76,0,0,0-14-1.07L225.89,122,223.73,123a5,5,0,0,0-1.07.72c-1.08.36-2.16,1.08-3.24,1.44s-2.16,1.08-3.23,1.44c-.72.72-1.8,1.07-2.52,1.79a15.24,15.24,0,0,1-2.52,1.8L209,132.38c0,.36-1.08,1.08-1.08,1.08a2.83,2.83,0,0,1-1.44,1.43,25.74,25.74,0,0,0-3.59,5,63,63,0,0,0-4,8.63,43,43,0,0,0-1.79,7.19c-.36,2.51-.72,5.39-1.08,7.9,0,.36-.36.72-.36,1.08v4.68a33.19,33.19,0,0,0,.36,5.39,15.34,15.34,0,0,0,.36,1.79h10.06a81,81,0,0,0,9.35,0h11.5c1.44,0,2.87-.36,3.95,0h.36c4,.36,7.55-.36,11.5,0H253.2a23.52,23.52,0,0,1,5,0h4.31c3.23.36,6.83,0,9.7,0C273,175.15,271.89,172.63,271.89,169.75Z"/><path class="cls-2" d="M189.59,173.71v-6.47c-.36-2.88-.36-5-.72-7.55-.72-1.8-.72-3.59-1.44-5.75a10.49,10.49,0,0,1-.71-3.23c-.36-1.08-.72-2.52-1.08-3.6-.72-1.44-1.08-3.23-1.8-5-1.08-1.44-1.44-2.52-2.52-4a1.26,1.26,0,0,1-.36-.72c-.71-.72-1.07-1.44-1.79-2.16-.36-1.08-1.08-1.44-1.8-2.15-.72-.36-1.44-1.44-2.16-1.8a22.77,22.77,0,0,0-4.67-3.6,5.91,5.91,0,0,0-2.51-1.43,29.14,29.14,0,0,0-4.68-2.16,1.25,1.25,0,0,0-.71-.36c-.36,0-.72-.36-1.08-.36s-.72-.36-1.08-.36a11.13,11.13,0,0,0-2.88-.72,4.53,4.53,0,0,0-2.15-.36h-6.11c-2.16.36-4.32.36-6.11.72-1.8.72-3.6,1.08-5.39,1.8a24.21,24.21,0,0,0-4,2.52,23.82,23.82,0,0,0-3.95,2.51L124.54,136c0,.36-.72.72-.72.72l-.36.36c-1.44,2.16-2.52,3.95-3.95,6.11-.36.72-.72,1.08-.72,1.8-.72,1.79-1.8,3.59-2.16,5.75,0,.72-.36,1.43-.36,2.15a24.8,24.8,0,0,1-1.08,2.88,1.32,1.32,0,0,1-.36,1.08c0,.36-.36.36-.36.71v.72c0,.36,0,.36-.35.72v.72c0,.36-.36,1.08-.36,1.44,0,1.08-.36,2.16-.36,2.87a13.5,13.5,0,0,0-.36,3.6v3.23c0,2.52.36,4.68.36,7.55,2.15.36,4.31,0,6.47,0h8.26a34.76,34.76,0,0,1,6.11.36H144a104.4,104.4,0,0,1,10.78.36h11.5c5,0,10.78.36,16.17,0h2.52c1.08-.36,2.15,0,3.59,0A20,20,0,0,0,189.59,173.71Z"/><path class="cls-3" d="M106.21,170.11a4.55,4.55,0,0,0-.36-2.15c-.36-1.44-.36-3.6-.72-5l-1.08-5.4c-.36-1.43-.72-2.51-1.08-3.95s-1.07-2.87-1.43-4l-2.16-4.31c-.36-.72-.72-1.08-1.08-1.8l-1.08-2.16a21.12,21.12,0,0,0-2.51-3.59,23.29,23.29,0,0,0-2.88-3.24c-.72-.72-2.51-2.15-2.87-2.51a30,30,0,0,0-4.32-2.88,16.9,16.9,0,0,0-2.51-1.08c-1.08-.36-2.16-1.07-3.24-1.43a12.66,12.66,0,0,0-3.59-.72c-1.44-.36-3.23-.72-4.67-1.08H69.55a55.6,55.6,0,0,0-7.91-.36c-2.15.36-4,1.08-6.11,1.44-2.51,1.08-4.31,1.44-7.18,3.59a26.12,26.12,0,0,0-4,3.24c-.36.36-1.44,1.43-1.44,1.79-.36.36-.71.36-.71.72-.72,1.08-1.8,1.8-2.52,2.88a7.77,7.77,0,0,1-1.44,1.79L37.2,141a20.89,20.89,0,0,0-2.87,4.67,28.81,28.81,0,0,0-1.8,4,29.92,29.92,0,0,0-2.15,6.11,33.37,33.37,0,0,0-1.44,5.75,39.65,39.65,0,0,0-.72,6.83c0,1.79-.36,3.59-.36,5s-.36,3.23-.36,5C35.41,178,44,178,52.3,178c2.51,0,4.67-.36,7.19,0h9c1.44,0,2.88-.36,4.31,0H97.22c2.88.36,5.39,0,8.27,0A15.52,15.52,0,0,0,106.21,170.11Z"/></svg>