<svg id="Layer_1" data-name="Layer 1" xmlns="http://www.w3.org/2000/svg" viewBox="0 0 300 300"><defs><style>.cls-1{fill:#fff;}</style></defs><path class="cls-1" d="M24.14,118.79a2.85,2.85,0,0,1,3.44-.84,1.24,1.24,0,0,1,.75,1c0,.39,0,.77,0,1.16q0,16.51,0,33c0,.87.26,1.87-.86,2.36a3.18,3.18,0,0,1-3.35-.68Z"/><path class="cls-1" d="M275.86,154.66a2.87,2.87,0,0,1-3.52.83,1.26,1.26,0,0,1-.69-1.2c0-.7,0-1.39,0-2.09q0-16.08,0-32.16c0-.93-.06-1.84,1.1-2.2a2.66,2.66,0,0,1,3.13,1Z"/><path class="cls-1" d="M24.14,165.36a2.83,2.83,0,0,1,3.43-.83,1.29,1.29,0,0,1,.78,1.25v15.07a1.25,1.25,0,0,1-.86,1.3,3.14,3.14,0,0,1-2.9-.24,5.46,5.46,0,0,1-.45-.39Z"/><path class="cls-1" d="M275.86,181.31a2.86,2.86,0,0,1-3.44.83,1.27,1.27,0,0,1-.78-1.25v-15.1a1.27,1.27,0,0,1,1.08-1.35,2.78,2.78,0,0,1,2.84.5,4,4,0,0,1,.3.42Z"/><path class="cls-1" d="M115.52,130.18a2.18,2.18,0,0,0,.11-1.13c0-3.1,0-6.21,0-9.32,0-1.48.53-2,2-2s2.22.42,2.22,1.91q0,17.08,0,34.17c0,1.4-.5,1.9-1.9,1.91-3.29,0-6.57.05-9.85,0a6.89,6.89,0,0,1-6.62-6.59c-.08-4.05-.07-8.11,0-12.16a6.89,6.89,0,0,1,6.66-6.65c2.1-.06,4.19,0,6.29,0A2,2,0,0,0,115.52,130.18Zm.06,4.36H109a4.57,4.57,0,0,0-.83.05,2.75,2.75,0,0,0-2.38,2.66q-.06,5.76,0,11.52a2.79,2.79,0,0,0,2.75,2.74c.91,0,1.82,0,2.73,0h4.35Z"/><path class="cls-1" d="M172.93,130.3c2.55,0,4.95-.05,7.35,0a6.91,6.91,0,0,1,6.53,5,7.93,7.93,0,0,1,.32,2.27c0,3.63,0,7.27,0,10.9a7,7,0,0,1-7.17,7.27c-3,0-6.08,0-9.12,0-1.7,0-2.14-.48-2.14-2.21V120a2.23,2.23,0,0,1,3.54-2c.66.37.7,1,.7,1.64V130.3Zm.07,4.24v17c2.48,0,4.89.05,7.3,0a2.74,2.74,0,0,0,2.59-2.8c.05-3.8.05-7.61,0-11.41a2.73,2.73,0,0,0-2.77-2.72C177.77,134.5,175.44,134.54,173,134.54Z"/><path class="cls-1" d="M242.3,145.15c0,1.74,0,3.31,0,4.88,0,1,.6,1.49,1.74,1.49h10.27c.75,0,1.53,0,1.89.79a3.17,3.17,0,0,1-.07,2.83,1.27,1.27,0,0,1-1.26.6c-3.88,0-7.76,0-11.64,0a5.39,5.39,0,0,1-5.13-5.15q-.11-7.56,0-15.11a5.44,5.44,0,0,1,5.16-5.13c2.45-.08,4.9,0,7.34,0a5.63,5.63,0,0,1,5.87,5.78c0,2.2,0,4.41,0,6.61,0,1.72-.79,2.46-2.55,2.47H242.3Zm9.9-4.32c0-1.72,0-3.32,0-4.93,0-.94-.67-1.35-1.54-1.36-2.28,0-4.55,0-6.82,0-.79,0-1.44.4-1.48,1.19-.09,1.7,0,3.4,0,5.1Z"/><path class="cls-1" d="M205.62,140.88c0-1.76,0-3.37,0-5,0-1-.58-1.39-1.71-1.39h-9.43a2.24,2.24,0,0,1-2-3.51,1.36,1.36,0,0,1,1.31-.71c3.67,0,7.34,0,11,0a5.45,5.45,0,0,1,5,4.67,13.54,13.54,0,0,1,.11,1.68q0,8.07,0,16.14c0,2.28-.66,2.93-2.94,2.93h-9.55a5.58,5.58,0,0,1-5.92-5.9c0-1,0-2,0-3a5.64,5.64,0,0,1,5.93-5.93c2.3,0,4.61,0,6.92,0Zm0,4.29c-2.9,0-5.69,0-8.48,0a1.29,1.29,0,0,0-1.37,1.4c0,1,0,2,0,2.94,0,1.55.44,2,2,2h7c.3,0,.64.11.89-.16Z"/><path class="cls-1" d="M129,145.15c0,1.77,0,3.37,0,5,0,1,.59,1.4,1.71,1.4H141c.74,0,1.54-.06,1.9.77a3.36,3.36,0,0,1-.06,2.84,1.24,1.24,0,0,1-1.24.61c-3.92,0-7.83,0-11.74,0a5.3,5.3,0,0,1-5-4.92q-.16-7.75,0-15.51a5.34,5.34,0,0,1,5-4.94c2.72-.09,5.45-.09,8.17,0a5.44,5.44,0,0,1,5.09,5.09c.09,2.55.06,5.1,0,7.65,0,1.4-.84,2.07-2.46,2.08H129Zm9.89-4.33c0-1.72.05-3.39,0-5a1.3,1.3,0,0,0-1.45-1.22c-2.3,0-4.61,0-6.92,0-.69,0-1.37.33-1.41,1-.1,1.76,0,3.52,0,5.27Z"/><path class="cls-1" d="M39.87,155.85c-2.68-7.52-5.35-15-8-22.43-.57-1.58-.27-2.43,1-2.89a2.19,2.19,0,0,1,3,1.51q2.84,7.94,5.65,15.87c.15.43.31.85.54,1.47,1-2.74,1.89-5.29,2.79-7.84,1.13-3.19,2.25-6.38,3.39-9.57a2.1,2.1,0,0,1,2.29-1.58c1.6.15,2.29,1.24,1.74,2.82q-2,5.73-4,11.44-2.73,7.69-5.46,15.39c-1.11,3.11-2.64,4.19-6,4.23a14.73,14.73,0,0,1-2.3-.05c-1.2-.16-1.58-.87-1.44-2.55.09-1.21.47-1.58,1.73-1.56,4.12.06,3.51-.1,4.74-3.42C39.69,156.43,39.77,156.16,39.87,155.85Z"/><path class="cls-1" d="M73.26,143.09c0,1.89,0,3.77,0,5.66a7,7,0,0,1-7,7c-1.54,0-3.07,0-4.61,0a6.87,6.87,0,0,1-6.69-6.4,116.41,116.41,0,0,1,0-12.67,6.86,6.86,0,0,1,6.63-6.35q2.46-.08,4.92,0a6.94,6.94,0,0,1,6.74,6.81c0,2,0,4,0,6ZM69,142.92c0-1.82,0-3.64,0-5.45a2.81,2.81,0,0,0-2.88-2.95c-1.4,0-2.8,0-4.19,0a2.74,2.74,0,0,0-2.82,2.87q0,5.61,0,11.22a2.79,2.79,0,0,0,2.92,2.9c1.08,0,2.17,0,3.25,0,2.82,0,3.73-.92,3.73-3.78Z"/><path class="cls-1" d="M225.8,130.29c1.89,0,3.78,0,5.66,0,1.25,0,1.75.62,1.77,2.06s-.51,2.15-1.8,2.16c-3.49,0-7,0-10.48,0-1.46,0-1.91.47-1.92,2,0,.63,0,1.26,0,1.89,0,1.18.38,1.63,1.54,1.85l7.71,1.44a5.51,5.51,0,0,1,4.88,5,15,15,0,0,1-.06,4.48,5.46,5.46,0,0,1-5.33,4.61c-3.77,0-7.55,0-11.32,0-1.2,0-1.65-.64-1.64-2.16s.48-2,1.66-2c3.53,0,7.06,0,10.59,0,1.44,0,1.87-.42,1.89-1.85,0-.67,0-1.33,0-2,0-1.28-.27-1.62-1.5-1.86q-3.85-.73-7.72-1.43a5.59,5.59,0,0,1-4.91-5.83,16.49,16.49,0,0,1,.15-4,5.52,5.52,0,0,1,5.28-4.29c1.85,0,3.7,0,5.55,0Z"/><path class="cls-1" d="M96.53,144.77v9c0,1.51-.51,2-2.17,2s-2-.45-2-2c0-5.73,0-11.46,0-17.19,0-1.68-.42-2.08-2.12-2.09h-6c-1.37,0-1.81.45-1.81,1.83,0,5.7,0,11.4,0,17.09,0,2-1.52,3-3.41,2.12-.84-.38-.88-1.11-.88-1.85,0-2.55,0-5.1,0-7.66,0-3.21,0-6.43,0-9.64,0-3.82,2.33-6.11,6.16-6.12,2.16,0,4.33,0,6.5,0a5.56,5.56,0,0,1,5.73,5.77c0,1.47,0,2.94,0,4.41Z"/><path class="cls-1" d="M148.05,136.73V119.85c0-.74-.08-1.54.79-1.88a3.14,3.14,0,0,1,2.83.11c.62.36.62,1,.62,1.68q0,7.23,0,14.47,0,9.65,0,19.3c0,.74.06,1.54-.74,1.93a3.25,3.25,0,0,1-2.84,0c-.69-.31-.66-1-.66-1.64V136.73Z"/><path class="cls-1" d="M261.33,136.73q0-8.44,0-16.88c0-.74-.09-1.54.78-1.88a3.14,3.14,0,0,1,2.83.11c.62.36.62,1,.62,1.68q0,8,0,15.94v17.82c0,.74.07,1.54-.73,1.93a3.17,3.17,0,0,1-2.83,0c-.68-.31-.67-1-.67-1.64,0-4.79,0-9.57,0-14.36Z"/><path class="cls-1" d="M162.6,136.68c0,5.66,0,11.32,0,17,0,.8,0,1.6-.93,1.9a3.07,3.07,0,0,1-2.81-.24c-.57-.4-.48-1-.48-1.64V133.34q0-6.76,0-13.53c0-.8,0-1.59.93-1.89a3,3,0,0,1,2.81.24c.53.37.49,1,.49,1.53Z"/><path class="cls-1" d="M173,173.34c0,2.34,0,4.67,0,7,0,1.53-.55,2-2.14,2s-2.14-.48-2.14-2q0-7,0-14c0-1.52.55-2,2.14-2s2.13.47,2.14,2C173,168.66,173,171,173,173.34Z"/><path class="cls-1" d="M148,173.23c0-2.3,0-4.61,0-6.91,0-1.53.54-2,2.13-2s2.13.49,2.13,2q0,7,0,14c0,1.51-.55,2-2.14,2s-2.12-.47-2.12-2C148,178,148,175.6,148,173.23Z"/><path class="cls-1" d="M119.91,173.33c0,2.34,0,4.67,0,7,0,1.53-.55,2-2.13,2s-2.14-.48-2.14-2q0-7,0-14c0-1.51.55-2,2.13-2s2.12.46,2.14,2C119.92,168.65,119.91,171,119.91,173.33Z"/><path class="cls-1" d="M261.34,173.27c0-2.38,0-4.75,0-7.12,0-1.37.55-1.83,2.07-1.84s2.15.47,2.15,1.88q0,7.16,0,14.33c0,1.36-.62,1.85-2.2,1.84s-2-.46-2-1.87C261.33,178.08,261.34,175.67,261.34,173.27Z"/><path class="cls-1" d="M162.59,173.34c0,2.37,0,4.74,0,7.11,0,1.42-.56,1.91-2.12,1.91s-2.09-.46-2.09-1.91q0-7.11,0-14.23c0-1.43.55-1.91,2.11-1.91s2.09.48,2.1,1.91C162.6,168.59,162.59,171,162.59,173.34Z"/></svg>