<svg id="Layer_1" data-name="Layer 1" xmlns="http://www.w3.org/2000/svg" viewBox="0 0 300 300"><defs><style>.cls-1{fill:#fff;fill-rule:evenodd;}</style></defs><path class="cls-1" d="M216.49,25.94a3.57,3.57,0,0,1,1,1.19c.37.55,1.56,2.56,2.66,4.48a17.79,17.79,0,0,1,1.92,4.3,17.68,17.68,0,0,1-1.37,4.21A20.9,20.9,0,0,1,216.12,47c-1.74,2-5.86,6.22-9.15,9.33s-9.79,9.42-23.15,22.4v4.12a23.38,23.38,0,0,1-.37,4.94,31.07,31.07,0,0,1-4.67,3.93c-3,2.28-4.48,3.66-4.76,4.48s-2.19,14.82-8.42,61.46L167.89,244l1.47,9.14c.82,5,1.64,11.07,1.92,13.45a23.36,23.36,0,0,1,.18,5.39c-.18.92-.64,1.19-2,1.56-1,.36-4.58.55-8.7.55-5.58,0-7-.1-7.59-.55a3,3,0,0,1-.73-2.2c.09-.82.82-3.66,3.47-11.15l-5.67-.28c-3.11-.09-9.7-.27-14.55-.27-7.6,0-8.79-.09-8.79-.55a7.46,7.46,0,0,1,.64-2.11c.73-1.46,1.47-1.92,10.62-6.31,5.4-2.65,9.88-5,9.88-5.3s-2.65-8.6-11.8-36.76l-3.11-27.71c-1.65-15.19-3.12-28.08-3.21-28.54s-.73-.91-1.83-1.28-1.65-.73-1.83-1.46c-.09-.46-.46-12.44-.82-26.52s-.83-25.88-1-26.25-2.47-2.38-9.79-8.32V85.75c0-2.74,0-2.83-1.92-4.84-1-1.19-5.77-5.49-10.44-9.7s-11.25-10-14.55-13a59.19,59.19,0,0,1-7-6.95c-.55-.83-1.47-3.11-2.84-8.78l1.74-3.3c1-1.82,2.1-3.75,2.56-4.39s.92-1,1.37-.82a24.19,24.19,0,0,1,4.12,2.75,27.55,27.55,0,0,1,3.85,3.2,34.5,34.5,0,0,1,.73,4.48,42.35,42.35,0,0,0,.64,4.84c.09.92,2.56,2.93,13.73,11.16,7.87,5.85,16.29,11.71,26.9,18.11l4.67-.46c2.56-.27,4.67-.46,4.76-.55s.09-1.83.46-7.77L141.17,69a9.26,9.26,0,0,1-3.3-1.74c-1-1.1-1-1.19-1-6.86a58.54,58.54,0,0,1,.91-9.88,43.31,43.31,0,0,1,1.65-6.31A28.78,28.78,0,0,1,142,39.39a15.6,15.6,0,0,1,3.57-3.75,6.74,6.74,0,0,1,3.48-1.1,15.83,15.83,0,0,1,3.84.64A32.38,32.38,0,0,1,157.46,37a27.3,27.3,0,0,1,4.12,2.74,10.7,10.7,0,0,1,2.19,2.75c.28.64.83,2.74,1.38,4.66a25.54,25.54,0,0,0,1.64,4.94,4.76,4.76,0,0,0,1.65,2c.92.46.92.46.09.82a3.77,3.77,0,0,1-2.1.28,3,3,0,0,0-1.38,0l.83,1.65a8,8,0,0,0,3.11,3l-2.47,1.92,1.55,1.38a6.06,6.06,0,0,1,1.47,1.55c0,.18-.55.64-1.28,1a4.83,4.83,0,0,1-2.38.45,17.33,17.33,0,0,1-1.74-.55c-.73-.36-.82-.18-.46,3.94h-1.46a4.22,4.22,0,0,1-2.2-.64,4.86,4.86,0,0,0-1.1-.64c-.18,0-.45,1.46-.55,3.2a21.75,21.75,0,0,0-.09,3.2,38.92,38.92,0,0,0,5.22-2.29,40.4,40.4,0,0,1,6.95-2.83c1.65-.37,4.4-2.38,18.76-13.45,9.52-7.4,16.94-13.44,17.3-14a28.28,28.28,0,0,0,.92-4.85c.18-2.1.45-4.2.55-4.66.18-.64,1.64-2,4.21-3.84A38.41,38.41,0,0,1,216.49,25.94Z"/></svg>