<svg id="Layer_1" data-name="Layer 1" xmlns="http://www.w3.org/2000/svg" viewBox="0 0 300 300"><defs><style>.cls-1{fill:#f79410;}.cls-2{fill:#ff5f00;}.cls-3{fill:#eb001b;}.cls-4{fill:#f79e1b;}</style></defs><title>MA_Light_bg</title><path class="cls-1" d="M258.79,192.49v-2.67h-.7l-.8,1.83-.8-1.83h-.69v2.67h.49v-2l.75,1.73h.51l.75-1.73v2Zm-4.4,0v-2.21h.89v-.45H253v.45h.89v2.21h.49Z"/><path class="cls-2" d="M180,203.9H120V96.09h60Z"/><path class="cls-3" d="M123.81,150A68.42,68.42,0,0,1,150,96.1a68.56,68.56,0,1,0,0,107.8A68.42,68.42,0,0,1,123.81,150"/><path class="cls-4" d="M260.93,150A68.56,68.56,0,0,1,150,203.9a68.56,68.56,0,0,0,0-107.8A68.56,68.56,0,0,1,260.93,150"/></svg>