<svg id="Layer_1" data-name="Layer 1" xmlns="http://www.w3.org/2000/svg" xmlns:xlink="http://www.w3.org/1999/xlink" viewBox="0 0 300 300"><defs><linearGradient id="linear-gradient" x1="40" y1="298.96699" x2="126.98828" y2="298.96699" gradientTransform="translate(0 -148.967)" gradientUnits="userSpaceOnUse"><stop offset="0" stop-color="#e08e3c"/><stop offset="0.1101" stop-color="#e1903e"/><stop offset="0.2416" stop-color="#e29445"/><stop offset="0.3842" stop-color="#e59e54"/><stop offset="0.5346" stop-color="#e8ab6c"/><stop offset="0.6912" stop-color="#edbd88"/><stop offset="0.8503" stop-color="#f3d4b0"/><stop offset="1" stop-color="#f9eee0"/></linearGradient><linearGradient id="linear-gradient-2" x1="95.03645" y1="394.30947" x2="138.5502" y2="318.94157" xlink:href="#linear-gradient"/><linearGradient id="linear-gradient-3" x1="205.09704" y1="394.34747" x2="161.58328" y2="318.97956" xlink:href="#linear-gradient"/><linearGradient id="linear-gradient-4" x1="260" y1="298.96699" x2="173.00973" y2="298.96699" xlink:href="#linear-gradient"/><linearGradient id="linear-gradient-5" x1="205.05824" y1="203.75324" x2="161.563" y2="279.08929" xlink:href="#linear-gradient"/><linearGradient id="linear-gradient-6" x1="95.0587" y1="203.66302" x2="138.55453" y2="279.00006" xlink:href="#linear-gradient"/></defs><polygon points="83.641 188.361 127.083 150.1 83.641 111.639 40 111.639 40 188.361 83.641 188.361" fill="url(#linear-gradient)"/><polygon points="150 226.821 138.641 170.027 83.641 188.361 61.92 226.223 128.279 264.484 150 226.821" fill="url(#linear-gradient-2)"/><polygon points="216.558 188.361 161.558 170.027 150 226.821 171.92 264.484 238.279 226.223 216.558 188.361" fill="url(#linear-gradient-3)"/><polygon points="216.558 111.639 173.116 150.1 216.558 188.361 260 188.361 260 111.639 216.558 111.639" fill="url(#linear-gradient-4)"/><polygon points="150 73.379 161.558 130.172 216.558 111.639 238.279 73.976 171.92 35.516 150 73.379" fill="url(#linear-gradient-5)"/><polygon points="83.641 111.639 138.641 130.172 150 73.379 128.279 35.516 61.92 73.976 83.641 111.639" fill="url(#linear-gradient-6)"/></svg>