<?xml version="1.0" encoding="utf-8"?>
<!-- Generator: Adobe Illustrator 24.0.1, SVG Export Plug-In . SVG Version: 6.00 Build 0)  -->
<svg version="1.1" id="Layer_1" xmlns="http://www.w3.org/2000/svg" xmlns:xlink="http://www.w3.org/1999/xlink" x="0px" y="0px"
	 viewBox="0 0 300 300" style="enable-background:new 0 0 300 300;" xml:space="preserve">
<style type="text/css">
	.st0{fill-rule:evenodd;clip-rule:evenodd;fill:#C6003D;}
</style>
<title>MAR_Light_bg</title>
<path class="st0" d="M119.2,117.7c3.7,10.1,11.9,19.6,6.1,32.3c-4.2,12.4-14.2,21.6-26,23.5c-12.4,1.1-24.3-1-33.5-8.5
	c-6.6-34.4,7.4-66.3,34.6-85.2L119.2,117.7L119.2,117.7z"/>
<path class="st0" d="M167.2,222.5c-6.2,20.8-67.7,7.2-87-27c25.3,2.8,53.9-19.6,54.4-45.2L167.2,222.5L167.2,222.5z"/>
<path class="st0" d="M192.4,219.8c2.8-1.2,8.5-4.1,9.9-10.1L136.1,66.2c-4.4-0.6-7.6-1-13.3,3L192.4,219.8L192.4,219.8z"/>
<path class="st0" d="M222.1,188.7c28.1-42.6,4.4-112.6-56.2-122.4L222.1,188.7z"/>
</svg>
