<svg id="Layer_1" data-name="Layer 1" xmlns="http://www.w3.org/2000/svg" viewBox="0 0 300 300"><defs><style>.cls-1{fill:#fff;fill-rule:evenodd;}</style></defs><title>MAS_1</title><path class="cls-1" d="M52.31,134A6,6,0,0,0,48,128.71l-.43-.13-.41-.12-.38-.1-.36-.07-.3-.06-.44-.09h-.17v-.85h16l9.83,23.63,4.35,10.41,4.13-10.41,9.45-23.63h14.9v.85H104l-.35.05-.52.09-.66.13a6.78,6.78,0,0,0-3.18,1.43l-.25.24-.21.23-.18.24-.17.22-.12.2-.11.2-.15.34-.09.27,0,.16,0,.06v40.11l.84-1.45,0-.1.12-.23.2-.39.24-.49.25-.59c.88-2,1.88-4,2.81-5.94,5.84-12,10.89-24.36,16.19-36.58l.47-1.06.3-.67.1-.24,11.63,26.54c2.79,6.42,9.86,30.79,23.24,20.31l.25-.22.24-.22.23-.23.24-.26.22-.27.21-.28.21-.29.16-.27.16-.25.13-.29.14-.28.13-.32.12-.31.11-.33c1.25-4.28.56-8.2-3.06-11l-.43-.33-.43-.29-.4-.27-.39-.23-.33-.19-.39-.2-.42-.2-.45-.22-1-.46-1.13-.5-1.21-.57-1.26-.61-.66-.33-.66-.34-.65-.37-.66-.37-.82-.49-.81-.52-.41-.27-.38-.29-.39-.28-.39-.31-.37-.3-.37-.3-.35-.32c-2.69-2.56-4.47-5.6-4.16-9.42l.09-.63.1-.6.15-.62.15-.61.2-.59a15,15,0,0,1,3.74-5.75l.47-.43.49-.4.5-.37.52-.35.54-.32.56-.3.57-.29.59-.24.6-.22.63-.18.62-.17.66-.12.65-.08.66,0,.67,0h.44l.42,0,.39,0,.37,0,.37,0,.33.05.34.06.3.07.59.15.56.17.5.19.47.2.88.37.84.34.44.13.43.1a5.52,5.52,0,0,0,4.92-1.65l.2-.22.15-.2.2-.29.07-.1,1.46,13H161.3l0-.12-.1-.35-.19-.54-.27-.69-.17-.4-.2-.42-.22-.46-.25-.47-.27-.49-.3-.49-.34-.5-.35-.52-.39-.51-.42-.5-.45-.51-.49-.48-.52-.47-.56-.44-.59-.44-.64-.4-.65-.36-.71-.33-.74-.29-.79-.25-.83-.2-.87-.16-.91-.08-1,0h-.67l-.64.07-.61.09-.55.13-.52.15-.49.19-.44.2-.42.23-.37.26-.35.27-.32.28-.29.3a8.35,8.35,0,0,0-1.83,5.46v.92l.07.44.1.42.12.42.17.4.18.39c1.83,3.24,5.79,4.82,9.06,6.14l1.19.46,1.21.47.66.25.64.27.62.29.61.28.59.32.57.32.57.34.54.35.54.36.52.37.49.37.48.38.48.41.45.42.44.4c4.73,5.14,5.72,11.1,1.63,17.06l-.22.34-.24.32-.23.32-.25.32-.26.3-.27.32-.52.51-.53.5-.29.25-.3.24-.29.23-.32.24-.32.22-.32.22-.34.22-.33.2-.36.2-.35.2-.37.19-.37.18-.39.17-.38.17-.41.15-.4.15a21.11,21.11,0,0,1-13.08-.18l-.7-.22-.69-.22-.36-.08-.33-.09c-2.21-.55-4.39-.46-6.11,1.14l-.24.28-.2.25-.18.23-.15.22-.12.2-.15.29,0,.12-2.54-6.18-5.71-14.55H108l-3.51,7.75-.09.19-.18.47-.14.34-.13.38-.15.46-.16.47-.13.52-.12.54-.1.56c-.25,1.73-.23,3.39,1,4.79l.2.2.22.19.23.17.24.16.23.14.26.13.25.12.24.1.25.1.25.09.51.13.48.09.47.06.43,0h.4l.33,0,.49,0h.19v1.56h-27v-1.56l.14,0,.37.07c4.22.53,6.3-3.06,6.3-7.37l.11-14.91V130.18l-8.13,20.73-7.38,18.54-2.07,5.2-2.17-5.2-7.88-18.54L53.73,131v32.16c.15,4.33.91,9.18,6.05,10.08l.24,0,.34,0h.13v1.33H44v-1.33l.19,0h.48l.34,0,.39,0,.42-.07c5.55-1.15,6.49-5.69,6.49-10.09V134Zm125.23,37.91.54.27.54.27.52.23.54.24.52.22.52.18.52.19.51.18c9.4,2.83,20.87-.45,24.63-10,.47-1.23.78-2.86-.72-3.57l-.12,0-.07.25a21.74,21.74,0,0,1-.84,2.34l-.3.67-.19.37c-4,7.67-14.34,13.4-22.56,7l-.44-.37-.42-.39c-7.44-8.09-7-23.21-3.43-33l.4-.94.44-.95.47-.89.54-.87.57-.83.62-.79.69-.74.73-.69.79-.62.84-.56.91-.49,1-.42,1-.33,1.09-.24,1.16-.17,1.25,0,1.11,0,1,.08,1,.17,1,.2.91.25.86.32.81.34.77.39.72.44a16.69,16.69,0,0,1,5.36,5.63l.26.51.26.47.21.45.19.42.3.74.22.56.12.37,0,.13h1l-.84-13.58-.08.1-.25.29-.17.19-.22.21-.26.24-.3.24a6.15,6.15,0,0,1-5,1.44l-.23,0-.24-.06-.47-.17-.49-.2-.5-.21-.56-.23-.57-.22-.64-.22-.35-.12-.35-.1-.39-.08-.4-.1-.43-.07-.43-.09-.47,0-.51,0-.52-.05h-.54l-.59,0h-.6l-.66,0-.72.07-.76.1-.81.12-.84.15-.87.2-.91.24L183,127l-.94.32-1,.35-1,.4-1,.46-1,.5-1,.56-1,.6-.94.68c-12.81,10-12.77,32.81,2.2,41ZM219.2,166l-.3-.48-.29-.51-.27-.52-.26-.54-.26-.54-.23-.57-.24-.57-.22-.57-.2-.61-.18-.6-.19-.63a39.21,39.21,0,0,1,.13-19.92l.33-1,.33-1,.37-.94.41-.91.43-.87.48-.84.5-.81.52-.78.56-.72.59-.69a13.84,13.84,0,0,1,19.87-.64l.59.64.57.69.52.72.5.78.48.81.43.84.41.87.38.91.34.94.32,1,.29,1a39.46,39.46,0,0,1-.1,19.87l-.19.63-.2.6-.22.61-.22.59-.23.57-.26.55-.25.56-.27.54-.28.52-.29.52-.3.49c-5.95,9.06-18,9.26-23.9,0Zm-4,3.42.4.3.43.31.43.3a26.39,26.39,0,0,0,27.52.78l.42-.26.42-.27.42-.28.42-.29.4-.29.41-.3L247,169l.5-.44.49-.43.49-.46.45-.47.47-.47.44-.49.42-.5.42-.52.41-.53.38-.54.37-.53.37-.56.34-.57.34-.57.32-.59.28-.59.29-.61.27-.62a26.86,26.86,0,0,0,.05-19.87l-.51-1.11-.53-1.08-.61-1-.64-1-.69-.94-.74-.91-.79-.86-.81-.81-.86-.77-.91-.72-.92-.68-1-.62-1-.57-1-.54-1.06-.49-1.1-.43a27.56,27.56,0,0,0-20.36.65l-1.06.51-1,.57-1,.62-1,.67-.94.71-.89.76-.88.79-.82.84-.77.87-.74.93-.7.94-.63,1-.61,1-.55,1.06-.49,1.11a28.08,28.08,0,0,0-.44,19.64l.25.6.27.61.27.59.3.59.31.55.32.56.35.55.35.52.37.53.39.52.39.49.42.48.42.47.43.46.44.44.47.43.48.42.48.41.49.4Zm-92.95-18.54,1,2.42H108.48l1-2.42,6.66-15.28,6.18,15.28Z"/></svg>