<svg id="Layer_1" data-name="Layer 1" xmlns="http://www.w3.org/2000/svg" viewBox="0 0 300 300"><defs><style>.cls-1{fill:#ffc300;}</style></defs><title>MCD_Light_bg</title><path class="cls-1" d="M181.6,81.09c15.85,0,28.71,66.83,28.71,149.31h23c0-88.8-23.14-160.8-51.68-160.8-16.24,0-30.73,21.63-40.2,55.46-9.48-33.82-24-55.46-40.21-55.46-28.54,0-51.69,72-51.69,160.8h23c0-82.46,12.86-149.31,28.71-149.31s28.71,61.7,28.71,137.83h23c0-76.13,12.86-137.83,28.72-137.83"/><path class="cls-1" d="M244.78,218.92a5.74,5.74,0,1,1-5.76,5.72h0a5.7,5.7,0,0,1,5.68-5.71h.08m0,10.64a4.9,4.9,0,1,0-4.72-4.93,4.73,4.73,0,0,0,4.72,4.93Zm-2.24-8.26h2.59c1.58,0,2.33.63,2.33,1.91a1.71,1.71,0,0,1-1.75,1.83l1.9,3h-1.12l-1.81-2.89h-1.1V228h-1Zm1,3h1.08c.92,0,1.76-.05,1.76-1.11,0-.89-.76-1-1.47-1h-1.38v2.14Z"/></svg>