<svg id="Layer_1" data-name="Layer 1" xmlns="http://www.w3.org/2000/svg" viewBox="0 0 300 300"><defs><style>.cls-1{fill:#ee2223;}</style></defs><g id="g82"><path id="path84" class="cls-1" d="M199,48.4a109.25,109.25,0,0,0-47.57-11.1C86,36.16,32,85.69,30.88,147.93a107.48,107.48,0,0,0,4,31.15l33.87-47.47L91.7,167.49s6.89,7.82,1.66,15.72c-.32.49-31.11,43-31.11,43,21.27,22.28,51.18,35.88,85.29,36.47,33.1.58,62.64-11.49,84.52-31.87l-72-113.7s11.36-15.95,20.25-28.58c9.78-13.91,18.58-4.2,21.52.4,21.12,33.11,60.75,95.92,60.75,95.92l0-.37c4.06-9.34,6.14-12.17,6.58-25.61L199,48.4M182,184.55s-19.17,28-21.14,30.63c-11.73,15.94-20.36-2.46-20.36-2.46l-61-95.91s11.35-15.94,20.24-28.58c9.78-13.91,18.59-4.19,21.52.4C142.32,121.74,182,184.55,182,184.55"/></g></svg>