<svg id="Layer_1" data-name="Layer 1" xmlns="http://www.w3.org/2000/svg" viewBox="0 0 300 300"><path d="M109.65316,140.35971c-11.0598,0-18.83047,7.96308-18.83047,18.34961,0,9.82888,7.0205,17.6957,18.83047,17.6957,10.7521,0,18.56127-7.636,18.56127-18.15731C128.21443,148.70739,121.944,140.35971,109.65316,140.35971Zm1.69264,33.69876c-8.80941.78856-13.09865-7.54-13.77181-15.5607-.92333-10.96365,4.75085-15.31065,10.23274-15.79151,8.38618-.73092,12.964,7.32831,13.67565,15.65685C122.36709,169.01906,117.13538,173.55836,111.3458,174.05847Z" fill="#fff"/><path d="M255.80793,131.27336c0-4.05462-2.73128-7.48412-5.88188-7.48412-2.96211,0-3.65647,2.02346-3.65647,3.21215a2.067,2.067,0,0,0,2.05232,2.17926,4.242,4.242,0,0,1,3.81611,4.37391c0,3.18715-2.9621,5.37795-5.79341,6.69935a1.16827,1.16827,0,0,0,.53472,1.63878c4.799-1.47144,8.92861-5.23369,8.92861-10.61741Z" fill="#fff"/><path d="M268.80079,156.58972l-4.724-2.49856c-3.0525-1.63684-5.08558-3.36025-5.08558-6.13962,0-2.6582,1.66377-5.33179,6.16272-5.33179,4.50278,0,6.48008,3.98922,7.11673,6.71666a1.365,1.365,0,0,0,1.98883-.15,20.73756,20.73756,0,0,0-1.09637-7.6553c-2.58511-.45393-4.42393-1.16368-7.10328-1.16368-7.68032,0-11.99267,3.97191-11.99267,9.67107,0,4.37391,3.14868,7.41487,6.81476,9.35563l3.42373,1.80611c4.36236,2.262,5.351,4.83938,5.351,7.33794,0,3.58337-2.51394,5.62414-6.40507,5.62414-5.11636,0-8.46507-5.53951-9.08634-8.35736a1.148,1.148,0,0,0-1.98115.16927c0,4.12578.90787,6.93593,1.60223,8.02075a15.50059,15.50059,0,0,0,8.769,2.41777c7.55913,0,12.44466-3.82,12.44466-9.90188a11.15356,11.15356,0,0,0-6.19926-9.92112Z" fill="#fff"/><path d="M199.11251,142.95631a33.98256,33.98256,0,0,0-11.5983-1.731c-6.17429,0-10.46353.1538-14.73364.46161-.67315.23081-.7693,1.731-.07689,1.962l2.2889.3077c1.75028.2308,1.82729,1.558,1.82729,6.6359v16.56082c0,5.36636-.30781,5.67418-3.57769,6.21268l-1.46183.23081c-.51925.404-.44236,1.73114.1539,1.962,2.59672-.15391,5.19332-.21155,7.78993-.23081,1.15413,0,2.59671.0769,4.11619.15391a48.73645,48.73645,0,0,0,5.05867.23081,25.14584,25.14584,0,0,0,11.5214-2.42356,16.61073,16.61073,0,0,0,9.23251-15.04134C209.653,151.05405,206.05612,145.36062,199.11251,142.95631ZM189.20674,173.443c-5.828,0-6.57815-2.50046-6.57815-7.463V147.38033c0-1.73115,0-2.71212.44247-3.03908.6154-.53862,2.07724-.84632,4.59694-.84632,8.61711,0,15.176,5.00091,15.176,14.57974C202.844,167.59561,198.34309,173.443,189.20674,173.443Z" fill="#fff"/><path d="M242.42462,141.23295c-2.16195.15387-3.76418.22119-5.453.22119-1.74072,0-3.48913-.06924-5.77225-.22119a1.139,1.139,0,0,0-.16734,1.9369l1.60607.24043c1.85035.23659,1.68109.929.53857,3.116L230.1242,152.235c-1.2887,2.48124-2.44276,4.35467-3.66607,6.46661q-1.8074-3.18132-3.42181-6.46661l-2.83515-5.54721c-1.23485-2.43508-.981-2.87747.68475-3.27755l1.07712-.24043a1.1678,1.1678,0,0,0-.08655-1.9369,103.56481,103.56481,0,0,1-13.50834,0,1.32627,1.32627,0,0,0-.23082,1.9369l1.99077.38469c1.97345.40008,2.75437,1.10983,4.347,4.22l5.56644,10.53662c1.92152,3.58722,2.135,4.21041,2.135,6.64357v2.94287c0,4.61626-.30006,5.08943-3.57953,5.47027l-1.90036.23082c-.54625.39622-.4751,1.73109.15,1.95229,3.43335-.14618,5.80879-.2212,8.25157-.2212,2.34661,0,4.87594.075,8.22273.2212.62127-.2212.6982-1.55607.16157-1.95037l-1.91-.23082c-3.27755-.38276-3.59684-.85593-3.59684-5.47219v-4.21042c0-2.25235.16349-3.02942,2.914-7.47642l4.72783-7.81687c2.36584-3.8892,2.74476-4.36237,5.12213-4.83938l1.82342-.38469a1.25448,1.25448,0,0,0-.13848-1.93691Z" fill="#fff"/><path d="M150.661,140.35971c-11.0598,0-18.84972,7.96308-18.84972,18.34961,0,9.82888,7.02061,17.6957,18.84972,17.6957,10.73284,0,18.542-7.636,18.542-18.15731C169.203,148.70739,162.95181,140.35971,150.661,140.35971Zm1.69264,33.69876c-8.82866.78856-13.1179-7.54-13.79106-15.5607-.92333-10.96365,4.75085-15.31065,10.23273-15.79151,8.38619-.73092,12.964,7.32831,13.6564,15.65685C163.35577,169.01906,158.124,173.55836,152.35362,174.05847Z" fill="#fff"/><path d="M87.33547,173.36791c-3.58145-.38084-3.51028-2.42162-3.73917-6.305-.61742-11.25021-.69244-25.678-.84632-33.95454-.07309-5.45488.53857-6.859,5.33756-7.42449l1.61569-.1481a1.65927,1.65927,0,0,0-.06732-1.94845c-2.38507.15388-4.89131.2212-6.80129.2212-1.52914,0-3.12368,0-5.72994-.2212-.15388,3.59107-2.28313,7.888-5.79534,14.97593l-7.17829,14.90091c-1.90228,3.98922-3.81611,8.05923-5.87612,11.708h-.1481c-1.8465-3.43527-3.516-7.02057-5.27023-10.677l-8.70166-18.03228c-2.35622-4.98941-4.27774-9.83649-3.96806-12.87553-2.52163.22119-4.5778.22119-6.33775.22119-1.90421,0-3.7334-.06539-6.02614-.22119a1.46428,1.46428,0,0,0-.30391,1.94845l1.21177.15c4.65666.78862,5.28562,1.79458,5.11636,6.71667q-.32661,8.70117-.84247,17.39369c-.44624,7.73609-.82323,12.02152-1.2887,17.18405-.46163,5.451-1.53107,6.00691-4.73167,6.38775l-1.67917.23082a1.53006,1.53006,0,0,0,.15965,1.95229q3.88158-.21741,7.77071-.2212c2.90055,0,5.88573.075,8.47853.2212.53472-.2212.6155-1.4772.08463-1.95037l-2.9044-.23082c-2.9871-.227-3.43334-1.4772-3.43334-7.25522,0-6.62626.302-13.591.53087-18.34.24043-4.52779.46547-9.05942.75591-13.895h.15772c1.67725,3.593,3.2814,7.65338,4.89324,11.23676L48.63,160.18655c1.758,3.82,5.41834,11.47911,6.734,15.601a.88318.88318,0,0,0,.679.31737.81643.81643,0,0,0,.75207-.31737c1.38487-3.58722,4.82784-10.90977,8.24772-17.79185l6.7936-13.65644c1.52914-3.03327,4.41815-9.28062,4.96248-10.13655h.152l.23081,32.537c0,4.99711,0,6.24735-3.73532,6.62819l-2.1985.23082A1.44937,1.44937,0,0,0,71.394,175.551c3.116-.14618,6.5551-.2212,9.21714-.2212,2.75437,0,5.88958.075,9.0248.2212a1.48288,1.48288,0,0,0,.15195-1.95037l-2.4524-.23082Z" fill="#fff"/></svg>