<svg id="Layer_1" data-name="Layer 1" xmlns="http://www.w3.org/2000/svg" viewBox="0 0 300 300"><path id="path386" d="M51.662,159.78228a7.2517,7.2517,0,0,1-3.87756,1.53476,6.38276,6.38276,0,0,1-5.74846-2.13875c-1.15632-1.38644-1.74957-3.18188-2.87849-4.6173a8.03261,8.03261,0,0,0-7.57038-3.23444,8.07539,8.07539,0,0,0-5.15659,12.51619c4.69055,6.70976,15.23875,5.548,20.65239.89974a26.21119,26.21119,0,0,0,4.57909-4.9602" fill="#fff"/><path id="path388" d="M248.33926,159.78092a7.21762,7.21762,0,0,0,3.87845,1.53519,6.37277,6.37277,0,0,0,5.74756-2.13743c1.15589-1.38823,1.75226-3.18184,2.879-4.61726a7.87543,7.87543,0,1,1,12.72382,9.28175c-4.68874,6.70839-15.2356,5.548-20.64655.90017a26.15439,26.15439,0,0,1-4.58223-4.96242" fill="#fff"/><path id="path390" d="M229.01084,123.99584c-.14561-.00509-13.99971-.00509-14.1278-.00044a3.02263,3.02263,0,0,0,0,6.03517c.14651.00509,14.00016.00509,14.1278,0a3.0224,3.0224,0,0,0,0-6.03473" fill="#fff"/><path id="path392" d="M140.77908,154.10165a14.27792,14.27792,0,0,1-.35189-2.3864c-.00942-1.14871-.00942-2.76118-.00942-4.24517.14471-5.12558,1.10152-14.14215-5.85048-14.14215-4.695,0-7.47691,3.95078-8.26519,5.24244-.11234-3.60163-2.95355-6.21453-7.294-6.21453a5.93381,5.93381,0,0,0-4.41414,2.20395,4.5854,4.5854,0,0,1,2.70143,4.56606c.0292,2.59941-.00408,15.25311,0,15.30661a4.51175,4.51175,0,0,0,9.01749-.004V143.20563c.39055-1.8345,1.42285-3.70679,2.97917-3.70679,2.01877,0,2.132,2.24481,2.14146,2.24481l-.00943,10.86372a6.557,6.557,0,0,0,.11595,1.02511,5.60585,5.60585,0,0,0,.51683,1.57655c1.07679,2.18821,3.45914,3.61466,6.66032,3.61466a5.93512,5.93512,0,0,0,4.4128-2.20213,4.31005,4.31005,0,0,1-2.35089-2.51987" fill="#fff"/><path id="path394" d="M207.60522,154.10165a13.74144,13.74144,0,0,1-.35189-2.3864l.00816-26.888a4.735,4.735,0,1,0-9.47006,0l.00624,23.81267c.02337,2.145-.18741,4.33684.82468,6.30753a7.62632,7.62632,0,0,0,6.91648,3.87622,5.92919,5.92919,0,0,0,4.4173-2.20213,4.32089,4.32089,0,0,1-2.35089-2.51987" fill="#fff"/><path id="path396" d="M101.79642,133.09334a12.86518,12.86518,0,1,0,12.86628,12.86585,12.8642,12.8642,0,0,0-12.86628-12.86585m.0944,20.26591v.00638c-.0102,0-.01886-.00381-.02829-.00381-.01019,0-.01847.00381-.02649.00381v-.00638c-2.42908-.04408-3.647-2.83536-3.647-7.40006,0-4.558,1.54284-7.35286,3.647-7.40277v-.0009l.02649.0009.02829-.0009v.0009c2.10146.04995,3.6461,2.8448,3.6461,7.40277,0,4.5647-1.21567,7.356-3.6461,7.40006" fill="#fff"/><path id="path398" d="M169.71689,154.10165a13.6551,13.6551,0,0,1-.35234-2.3864l.00624-26.888a4.735,4.735,0,1,0-9.47006,0l-.01888,12.73552a9.52094,9.52094,0,0,0-7.6-4.26538c-10.87448,0-11.56164,19.36438-4.10451,24.15469a10.405,10.405,0,0,0,7.672,1.07231c1.65654-.43189,4.26808-2.05921,4.68784-4.00249.05977.14244.12359.28446.19639.42559a7.62709,7.62709,0,0,0,6.91694,3.87622,5.93147,5.93147,0,0,0,4.4173-2.20213,4.32089,4.32089,0,0,1-2.35089-2.51987m-14.11161-1.56531v.00381l-.02607-.0009-.02921.0009v-.00381c-2.42954-.03593-3.6452-2.47178-3.6452-6.4464,0-3.97147,1.541-6.40414,3.6452-6.44866v-.00381c.01262,0,.018.00381.02921.00381.00853,0,.01618-.00381.02607-.00381v.00381c2.10641.04448,3.64789,2.47719,3.64789,6.44866,0,3.97462-1.21837,6.41047-3.64789,6.4464" fill="#fff"/><path id="path400" d="M194.35289,150.86321s-1.38869,1.90281-6.77582,1.90281c-5.38758,0-6.54348-4.18809-6.54348-4.18809,7.85082,0,14.43655-.52582,14.43655-6.8828,0-6.35562-7.18434-8.45215-11.4439-8.45215-7.03378,0-12.17284,5.6096-12.17284,13.0137a12.2535,12.2535,0,0,0,12.247,12.567c9.7833,0,10.25249-7.96048,10.25249-7.96048Zm-13.82848-6.36374c.27549-2.02912.76175-4.58628,2.58683-5.77048a2.41883,2.41883,0,0,1,3.67082,2.03181,3.64379,3.64379,0,0,1-3.06231,3.745,14.18477,14.18477,0,0,1-3.19534-.00638" fill="#fff"/><path id="path402" d="M232.234,150.86321s-1.38869,1.90281-6.77582,1.90281c-5.38758,0-6.54348-4.18809-6.54348-4.18809,7.85082,0,14.43655-.52582,14.43655-6.8828,0-6.35562-7.18434-8.45215-11.4439-8.45215-7.03378,0-12.17284,5.6096-12.17284,13.0137a12.2535,12.2535,0,0,0,12.247,12.567c9.7833,0,10.25249-7.96048,10.25249-7.96048Zm-13.82848-6.3637c.27548-2.02912.76175-4.58628,2.58682-5.77048a2.41883,2.41883,0,0,1,3.67082,2.0318,3.6438,3.6438,0,0,1-3.06231,3.745,14.18528,14.18528,0,0,1-3.19533-.00638" fill="#fff"/><path id="path404" d="M250.00029,151.55126h-5.39522c.39684,0,4.38809-3.36521,5.71161-4.48694,3.46589-2.94142,9.69837-7.18526,7.88183-12.68247l.00408.03861a4.05937,4.05937,0,0,0-1.341-2.06462,2.83732,2.83732,0,0,1-1.65834,1.54689,8.95294,8.95294,0,0,1-1.56936.25348c-.431.00766-15.0801,0-15.0801,0a3.64476,3.64476,0,0,0-3.669,3.47038,3.47605,3.47605,0,0,0,3.55217,3.443l8.54606.05439c-3.96158,2.20932-8.69212,4.8258-11.09424,8.82067-1.37161,2.29291-2.83985,5.828-2.28213,8.53979,1.89878-1.683,6.88144-3.31219,10.67449-2.52034a13.52083,13.52083,0,0,1,4.15754,1.78913c7.11378,4.44966,11.38906-4.25325,7.98789-8.08947,0,0-1.93922,1.88753-6.42618,1.88753" fill="#fff"/><path id="path406" d="M89.62672,156.964c-4.36336-4.78447-5.72824-12.7409-5.997-18.02914-.23145-4.56874.01567-12.48115,3.616-14.784-1.20533-1.515-3.58272-2.12528-5.38937-2.12528-4.05912,0-6.01585,2.70368-7.4041,4.64786-.4584.64221-7.28413,10.05835-7.28413,10.05835s-5.74126-8.88179-6.44684-9.94868c-.97522-1.47228-2.80119-4.17775-6.01047-4.64605-1.38195-.20177-4.96692-.38514-6.91829,2.2929,3.36341,2.69111,3.27938,9.54422,2.54909,14.2231-2.19089,14.04419-8.16676,15.33764-8.16676,15.33764,3.061,8.267,10.94415,5.00063,13.1719-1.59047a56.00118,56.00118,0,0,0,2.58907-14.20464L66.587,151.46639s9.79588-13.22939,9.79588-13.21773c-1.61338,23.39651,6.42169,30.029,13.44828,30.029,7.03244,0,9.42557-6.43112,9.42557-6.43112a14.26788,14.26788,0,0,1-9.63-4.88244" fill="#fff"/><path id="path408" d="M111.57073,164.57348a5.86215,5.86215,0,0,1,.151,1.0215c.0009.1033-.00636,12.24024-.00045,12.38541a2.0273,2.0273,0,0,0,4.04788,0c.00446-.13887,0-11.0691,0-11.0691a5.82936,5.82936,0,0,0-.35279-2.69874,3.26523,3.26523,0,0,0-2.9603-1.66014,2.53964,2.53964,0,0,0-1.89159.94332,1.8466,1.8466,0,0,1,1.00624,1.07767" fill="#fff"/><path id="path410" d="M239.87993,177.87033a5.8893,5.8893,0,0,1-.151-1.022c-.0009-.10294.00584-12.23934.00135-12.38362a2.02769,2.02769,0,0,0-4.04878,0c-.0045.13887,0,11.06817,0,11.06817a5.8488,5.8488,0,0,0,.35279,2.69964,3.26531,3.26531,0,0,0,2.96074,1.65881,2.53725,2.53725,0,0,0,1.89069-.94242,1.85168,1.85168,0,0,1-1.00579-1.07857" fill="#fff"/><path id="path412" d="M166.64649,168.83618a4.60055,4.60055,0,0,0-3.70318,2.34862l-.0121.0089c-.00045-.58557-.00229-1.04848-.00229-1.07185a2.03349,2.03349,0,0,0-4.04652,0c-.00319.13845-.00319,7.74836,0,7.85127a2.02669,2.02669,0,0,0,4.04652,0c.0023-.07861.00357-2.56209.00268-4.70088l.01663-.01147c.17392-.82152.63637-1.661,1.33475-1.661.90423,0,.95411,1.00623.95861,1.00623l-.00905,5.36689a2.02669,2.02669,0,0,0,4.04653,0l-.00535-2.8048c0-2.88392.30066-6.34575-2.62728-6.33226" fill="#fff"/><path id="path414" d="M218.37634,168.83618a4.60131,4.60131,0,0,0-3.70317,2.34862l-.01172.0089c-.00045-.58557-.00229-1.04848-.00229-1.07185a2.0335,2.0335,0,0,0-4.04653,0c-.00357.13845-.00357,7.74836,0,7.85127a2.02669,2.02669,0,0,0,4.04652,0c.0023-.07861.00357-2.56209.00268-4.70088l.01662-.01147c.17348-.82152.63638-1.661,1.33476-1.661.90378,0,.95411,1.00623.95816,1.00623l-.00854,5.36689a2.02669,2.02669,0,0,0,4.04653,0l-.00586-2.8048c0-2.88392.3011-6.34575-2.62728-6.33226" fill="#fff"/><path id="path416" d="M125.55787,168.83618a4.60134,4.60134,0,0,0-3.70318,2.34862l-.01172.0089c-.0009-.58557-.0023-1.04848-.0023-1.07185a2.0335,2.0335,0,0,0-4.04653,0c-.00357.13845-.00357,7.74836,0,7.85127a2.02669,2.02669,0,0,0,4.04652,0c.0023-.07861.00319-2.56209.0023-4.70088l.01708-.01147c.17348-.82152.63638-1.661,1.33477-1.661.90422,0,.95411,1.00623.9586,1.00623l-.00854,5.36689a2.02646,2.02646,0,0,0,4.04609,0l-.00586-2.8048c0-2.88392.3011-6.34575-2.62728-6.33226" fill="#fff"/><path id="path418" d="M203.70655,168.3279a5.76352,5.76352,0,1,0,5.7642,5.76375,5.76368,5.76368,0,0,0-5.7642-5.76375m.0418,9.07909v.00257l-.01348-.0009-.01032.0009V177.407c-1.08983-.02115-1.63452-1.27-1.63452-3.31534,0-2.04214.6903-3.29376,1.63452-3.31623V170.775l.01032.00043.01348-.00043v.00043c.94152.02243,1.63227,1.27409,1.63227,3.31623,0,2.0453-.54424,3.29419-1.63227,3.31534" fill="#fff"/><path id="path420" d="M182.1814,169.98263a2.132,2.132,0,0,0-4.256,0c-.0009.07733-.01032.24314-.01032.27323a4.26893,4.26893,0,0,0-3.40611-1.91136c-4.8721,0-5.18085,8.6764-1.83945,10.82235a4.66821,4.66821,0,0,0,3.43892.4804,3.53446,3.53446,0,0,0,1.90911-1.33835,2.23076,2.23076,0,0,0,1.9608,1.54417,2.18921,2.18921,0,0,0,2.203-1.99852c.00446-.14517.00318-7.77441,0-7.87195m-6.1835,6.98255v.00128l-.01121-.00043-.013.00043v-.00128c-1.08894-.01707-1.63318-1.10913-1.63318-2.88975,0-1.77879.68986-2.8686,1.63318-2.88928v-.00128l.013.00128.01121-.00128v.00128c.94332.02064,1.63542,1.11053,1.63542,2.88928,0,1.78058-.54694,2.87268-1.63542,2.88975" fill="#fff"/><path id="path422" d="M233.869,169.98263a2.13131,2.13131,0,0,0-4.25461,0c-.00179.07733-.01214.24314-.01214.27323a4.2631,4.2631,0,0,0-3.40476-1.91136c-4.87211,0-5.1813,8.6764-1.83946,10.82235a4.666,4.666,0,0,0,3.43757.4804,3.53373,3.53373,0,0,0,1.91092-1.33835,2.22959,2.22959,0,0,0,1.95989,1.54417,2.18817,2.18817,0,0,0,2.20258-1.99852c.00494-.14517.00224-7.77441,0-7.87195m-6.1817,6.98255v.00128l-.01172-.00043-.01393.00043v-.00128c-1.088-.01707-1.63317-1.10913-1.63317-2.88975,0-1.77879.69075-2.8686,1.63317-2.88928v-.00128l.01393.00128.01172-.00128v.00128c.94333.02064,1.63408,1.11053,1.63408,2.88928,0,1.78058-.546,2.87268-1.63408,2.88975" fill="#fff"/><path id="path424" d="M196.67187,171.0684a1.98483,1.98483,0,0,0-1.83361-1.87766,1.64052,1.64052,0,0,0-.17213-.01846,2.06227,2.06227,0,0,0-2.035,1.7644l.005,3.732h-.005c.01261,1.164-.0014,3.26678,0,3.29061a1.98544,1.98544,0,0,0,1.83272,1.87766,1.36882,1.36882,0,0,0,.173.01846,2.06228,2.06228,0,0,0,2.035-1.764l-.00408-3.118h.00408c-.01348-1.16535.00178-3.88205,0-3.905" fill="#fff"/><path id="path426" d="M196.657,166.02151a2.00574,2.00574,0,1,1-2.00574-2.00755,2.005,2.005,0,0,1,2.00574,2.00755" fill="#fff"/><path id="path428" d="M155.66055,168.69688c-1.20174.04942-1.79586.94464-2.6138,2.06909-.00586.00891.0009-.51951.00045-.53973a2.02613,2.02613,0,0,0-4.04563,0v7.77083H148.998a2.02572,2.02572,0,0,0,4.04294.02966H153.05l-.00091-4.92244c.06113-.72176.37571-1.62329.95635-1.61882.82108.00766-.02741,1.99359,1.85654,1.99359,2.70188,0,2.9904-4.91389-.20133-4.78221" fill="#fff"/><path id="path430" d="M147.408,176.28344s-.62289.853-3.03894.853a2.86192,2.86192,0,0,1-2.93693-1.87812c3.523,0,6.477-.23637,6.477-3.08794,0-2.85107-3.22231-3.79128-5.13321-3.79128a5.74358,5.74358,0,0,0,.03326,11.4749c4.38853,0,4.59886-3.5706,4.59886-3.5706Zm-6.20416-2.85558a3.53975,3.53975,0,0,1,1.16173-2.58818,1.08515,1.08515,0,0,1,1.64666.911,1.63521,1.63521,0,0,1-1.37387,1.68035,6.38607,6.38607,0,0,1-1.43453-.00257" fill="#fff"/><path id="path432" d="M137.06962,177.72469s-1.05208,2.13067-2.99715,2.13067a3.80517,3.80517,0,0,1-3.65329-3.4605c-.0014-.01886-.01121-2.96389-.01887-5.42533H129.857a.79565.79565,0,0,1-.78693-.90918.82381.82381,0,0,1,.84535-.89612h.48042c-.00229-.86063-.00318-1.45207-.00178-1.48892a2.03462,2.03462,0,0,1,4.0609,0v1.488h1.71317a.90827.90827,0,0,1-.05932,1.8062h-1.65385v4.52023a2.35481,2.35481,0,0,0,2.62009,2.23268" fill="#fff"/><path id="path434" d="M191.21193,177.72469s-1.05253,2.13067-2.99669,2.13067a3.80449,3.80449,0,0,1-3.65329-3.4605c-.00178-.01886-.01121-2.96389-.01933-5.42533h-.54334a.79515.79515,0,0,1-.78647-.90918.8236.8236,0,0,1,.84534-.89612h.48c-.00268-.86063-.00319-1.45207-.00179-1.48892a2.03463,2.03463,0,0,1,4.06091,0v1.488h1.71317a.90826.90826,0,0,1-.05977,1.8062h-1.6534v4.52023a2.35481,2.35481,0,0,0,2.62009,2.23268" fill="#fff"/></svg>