<svg id="Layer_1" data-name="Layer 1" xmlns="http://www.w3.org/2000/svg" viewBox="0 0 300 300"><defs><style>.cls-1{fill:#a4ce4e;}.cls-2{fill:#0090da;}.cls-3{fill:#0061a0;}</style></defs><title>MET_Light_bg</title><path class="cls-1" d="M150,123.55a132.69,132.69,0,0,1,26.85,80.24,134.24,134.24,0,0,1-1.71,21.36h48.79a7.69,7.69,0,0,0,7.68-7.7V82.56A7.67,7.67,0,0,0,222,75.1,132.91,132.91,0,0,0,150,123.55Z"/><path class="cls-2" d="M124.86,225.15a134.24,134.24,0,0,1-1.71-21.36A132.69,132.69,0,0,1,150,123.55,132.91,132.91,0,0,0,78,75.1a7.67,7.67,0,0,0-9.58,7.46V217.45a7.69,7.69,0,0,0,7.68,7.7Z"/><path class="cls-3" d="M150,123.55a132.69,132.69,0,0,0-26.85,80.24,134.24,134.24,0,0,0,1.71,21.36h50.28a134.24,134.24,0,0,0,1.71-21.36A132.69,132.69,0,0,0,150,123.55Z"/></svg>