<svg id="Layer_1" data-name="Layer 1" xmlns="http://www.w3.org/2000/svg" xmlns:xlink="http://www.w3.org/1999/xlink" viewBox="0 0 300 300"><defs><style>.cls-1{fill:url(#radial-gradient);}.cls-2{fill:url(#radial-gradient-2);}.cls-3{fill:url(#radial-gradient-3);}.cls-4{fill:url(#radial-gradient-4);}.cls-5{fill:url(#radial-gradient-5);}.cls-6{fill:url(#radial-gradient-6);}.cls-7{fill:url(#radial-gradient-7);}.cls-8{fill:url(#radial-gradient-8);}.cls-9{fill:url(#radial-gradient-9);}.cls-10{fill:url(#radial-gradient-10);}.cls-11{fill:url(#radial-gradient-11);}.cls-12{fill:url(#radial-gradient-12);}.cls-13{fill:url(#linear-gradient);}.cls-14{fill:url(#linear-gradient-2);}.cls-15{fill:url(#linear-gradient-3);}.cls-16{fill:url(#linear-gradient-4);}.cls-17{fill:url(#linear-gradient-5);}.cls-18{fill:url(#linear-gradient-6);}.cls-19{fill:url(#linear-gradient-7);}.cls-20{fill:url(#linear-gradient-8);}.cls-21{fill:url(#linear-gradient-9);}.cls-22{fill:url(#linear-gradient-10);}.cls-23{fill:url(#linear-gradient-11);}.cls-24{fill:url(#linear-gradient-12);}.cls-25{fill:url(#linear-gradient-13);}.cls-26{fill:url(#linear-gradient-14);}.cls-27{fill:url(#linear-gradient-15);}.cls-28{fill:url(#linear-gradient-16);}.cls-29{fill:url(#linear-gradient-17);}.cls-30{fill:url(#linear-gradient-18);}.cls-31{fill:url(#linear-gradient-19);}.cls-32{fill:url(#linear-gradient-20);}.cls-33{fill:url(#linear-gradient-21);}.cls-34{fill:url(#linear-gradient-22);}.cls-35{fill:url(#linear-gradient-23);}.cls-36{fill:url(#linear-gradient-24);}.cls-37{fill:url(#linear-gradient-25);}.cls-38{fill:url(#linear-gradient-26);}</style><radialGradient id="radial-gradient" cx="3535.23" cy="-18.92" r="0.35" gradientTransform="translate(-1879780.36 10290.23) scale(531.75)" gradientUnits="userSpaceOnUse"><stop offset="0" stop-color="#e5b86d"/><stop offset="1" stop-color="#a6700e"/></radialGradient><radialGradient id="radial-gradient-2" cx="3535.19" cy="-18.92" r="0.35" gradientTransform="translate(-1870582.15 10239.18) scale(529.15)" xlink:href="#radial-gradient"/><radialGradient id="radial-gradient-3" cx="3535.19" cy="-18.92" r="0.35" gradientTransform="translate(-1870486.23 10238.66) scale(529.12)" xlink:href="#radial-gradient"/><radialGradient id="radial-gradient-4" cx="3535.19" cy="-18.92" r="0.35" gradientTransform="translate(-1870315.24 10237.74) scale(529.08)" xlink:href="#radial-gradient"/><radialGradient id="radial-gradient-5" cx="3535.19" cy="-18.92" r="0.35" gradientTransform="translate(-1870140.8 10236.37) scale(529.03)" xlink:href="#radial-gradient"/><radialGradient id="radial-gradient-6" cx="3535.2" cy="-18.92" r="0.35" gradientTransform="translate(-1873363.58 10253.66) scale(529.94)" xlink:href="#radial-gradient"/><radialGradient id="radial-gradient-7" cx="3535.19" cy="-18.92" r="0.35" gradientTransform="translate(-1870164.68 10236.5) scale(529.03)" xlink:href="#radial-gradient"/><radialGradient id="radial-gradient-8" cx="3535.14" cy="-18.92" r="0.35" gradientTransform="translate(-1856393.6 10159.2) scale(525.15)" xlink:href="#radial-gradient"/><radialGradient id="radial-gradient-9" cx="3535.18" cy="-18.92" r="0.35" gradientTransform="translate(-1868210.44 10226.02) scale(528.48)" xlink:href="#radial-gradient"/><radialGradient id="radial-gradient-10" cx="3535.19" cy="-18.92" r="0.35" gradientTransform="translate(-1868823.36 10229.74) scale(528.65)" xlink:href="#radial-gradient"/><radialGradient id="radial-gradient-11" cx="3534.25" cy="-18.23" r="0.35" gradientTransform="translate(-1885721.16 9755.68) scale(533.66)" gradientUnits="userSpaceOnUse"><stop offset="0" stop-color="#e5b86d"/><stop offset="0.26" stop-color="#e5b86d"/><stop offset="1" stop-color="#a6700e"/></radialGradient><radialGradient id="radial-gradient-12" cx="3537.68" cy="-19.12" r="0.35" gradientTransform="translate(-3347888.25 18405.79) scale(946.45)" xlink:href="#radial-gradient"/><linearGradient id="linear-gradient" x1="2353.4" y1="40.3" x2="2353.74" y2="40.3" gradientTransform="translate(-7178.22 25.6) scale(3.1)" xlink:href="#radial-gradient"/><linearGradient id="linear-gradient-2" x1="3465.1" y1="-16.27" x2="3465.45" y2="-16.27" gradientTransform="translate(-167397.92 963.51) scale(48.35)" xlink:href="#radial-gradient"/><linearGradient id="linear-gradient-3" x1="938.78" y1="111.91" x2="939.13" y2="111.91" gradientTransform="translate(-1216.54 -8.74) scale(1.41)" xlink:href="#radial-gradient"/><linearGradient id="linear-gradient-4" x1="2966.29" y1="0.24" x2="2966.63" y2="0.24" gradientTransform="translate(-18995.83 180.61) scale(6.45)" xlink:href="#radial-gradient"/><linearGradient id="linear-gradient-5" x1="3467.56" y1="-15.42" x2="3467.91" y2="-15.42" gradientTransform="translate(-173098.67 923.79) scale(49.96)" xlink:href="#radial-gradient"/><linearGradient id="linear-gradient-6" x1="2780.34" y1="17.38" x2="2780.69" y2="17.38" gradientTransform="translate(-13530.12 67.49) scale(4.92)" xlink:href="#radial-gradient"/><linearGradient id="linear-gradient-7" x1="3192.16" y1="6.2" x2="3192.51" y2="6.2" gradientTransform="translate(-33720.68 40.31) scale(10.6)" xlink:href="#radial-gradient"/><linearGradient id="linear-gradient-8" x1="3313.77" y1="-3.88" x2="3314.11" y2="-3.88" gradientTransform="translate(-54135.17 179.79) scale(16.38)" xlink:href="#radial-gradient"/><linearGradient id="linear-gradient-9" x1="3468.87" y1="-13.34" x2="3469.22" y2="-13.34" gradientTransform="translate(-174789.71 768.8) scale(50.42)" xlink:href="#radial-gradient"/><linearGradient id="linear-gradient-10" x1="3482.21" y1="-16.07" x2="3482.56" y2="-16.07" gradientTransform="translate(-219791.85 1164.52) scale(63.16)" xlink:href="#radial-gradient"/><linearGradient id="linear-gradient-11" x1="3510.82" y1="-18" x2="3511.17" y2="-18" gradientTransform="translate(-413877.17 2307.79) scale(117.92)" xlink:href="#radial-gradient"/><linearGradient id="linear-gradient-12" x1="3459.42" y1="-13.15" x2="3459.77" y2="-13.15" gradientTransform="translate(-155052.78 698.28) scale(44.86)" xlink:href="#radial-gradient"/><linearGradient id="linear-gradient-13" x1="3484.67" y1="-16.3" x2="3485.01" y2="-16.3" gradientTransform="translate(-220081.59 1186.89) scale(63.18)" xlink:href="#radial-gradient"/><linearGradient id="linear-gradient-14" x1="3127.26" y1="7.85" x2="3127.61" y2="7.85" gradientTransform="translate(-27668.32 51.45) scale(8.88)" xlink:href="#radial-gradient"/><linearGradient id="linear-gradient-15" x1="3507.18" y1="-17.96" x2="3507.53" y2="-17.96" gradientTransform="translate(-365900.03 2064.76) scale(104.35)" xlink:href="#radial-gradient"/><linearGradient id="linear-gradient-16" x1="3483.35" y1="-13.79" x2="3483.7" y2="-13.79" gradientTransform="translate(-215974.22 931.2) scale(62.03)" xlink:href="#radial-gradient"/><linearGradient id="linear-gradient-17" x1="3495.76" y1="-17.89" x2="3496.1" y2="-17.89" gradientTransform="translate(-271196.43 1590.37) scale(77.6)" xlink:href="#radial-gradient"/><linearGradient id="linear-gradient-18" x1="3514.96" y1="-18.22" x2="3515.3" y2="-18.22" gradientTransform="translate(-480324.9 2681.44) scale(136.69)" xlink:href="#radial-gradient"/><linearGradient id="linear-gradient-19" x1="3527.32" y1="-18.28" x2="3527.67" y2="-18.28" gradientTransform="translate(-902208.46 4826.52) scale(255.82)" xlink:href="#radial-gradient"/><linearGradient id="linear-gradient-20" x1="3475.05" y1="-13.35" x2="3475.39" y2="-13.35" gradientTransform="translate(-186179.98 802.23) scale(53.59)" xlink:href="#radial-gradient"/><linearGradient id="linear-gradient-21" x1="3514.82" y1="-17.22" x2="3515.16" y2="-17.22" gradientTransform="translate(-465504.79 2401.52) scale(132.46)" xlink:href="#radial-gradient"/><linearGradient id="linear-gradient-22" x1="3423.61" y1="-8.21" x2="3423.96" y2="-8.21" gradientTransform="translate(-108445.73 326.39) scale(31.72)" xlink:href="#radial-gradient"/><linearGradient id="linear-gradient-23" x1="3492.92" y1="-16.07" x2="3493.27" y2="-16.07" gradientTransform="translate(-264243.12 1344.93) scale(75.69)" xlink:href="#radial-gradient"/><linearGradient id="linear-gradient-24" x1="3493.66" y1="-14.73" x2="3494.01" y2="-14.73" gradientTransform="translate(-266693.93 1200.71) scale(76.37)" xlink:href="#radial-gradient"/><linearGradient id="linear-gradient-25" x1="3352.91" y1="-6.42" x2="3353.26" y2="-6.42" gradientTransform="translate(-64010.71 242.88) scale(19.11)" xlink:href="#radial-gradient"/><linearGradient id="linear-gradient-26" x1="3474.44" y1="-12.62" x2="3474.79" y2="-12.62" gradientTransform="translate(-184474.26 738.4) scale(53.11)" xlink:href="#radial-gradient"/></defs><title>Artboard 41</title><g id="layer1"><g id="g58852"><g id="g52714"><path id="path48430" class="cls-1" d="M69.78,134.08c0,15.7,2.34,30.4,10.36,42.44h0V166.16c0-13,10.37-22.4,21.07-28.09h0C90.51,141.42,78.81,139.08,69.78,134.08Z"/><path id="path48456" class="cls-2" d="M89.84,111.53c-3.65.12-6.72,2.59-9.77,5h0c-3.77,3-7.51,6.1-12.26,4.69h0c2.94,2.21,7,2.94,11.42,2.58h0l1,.44h2c3.34-.79,7.06-4.87,11-4.87h0c7.38-1.1,17-2.21,22.13,4.43h0l-2.59-5.16c-7-.37-12.9-3-18.8-6.26h0a9.39,9.39,0,0,0-3.57-.88h-.55Zm-7.31,8.61-3.24,3H76c-.73-1.84,5.11-5.52,6.57-3"/><path id="path48482" class="cls-3" d="M61.19,95.78A85.59,85.59,0,0,0,72.12,98h0c7.36-3.34,9.34-9.39,6.34-17.42h0c-4.18-6.44-10.57-10.1-17.27-11.84h0Z"/><path id="path48508" class="cls-4" d="M97.44,158.48c-12.1,24.76,4.91,58.94-12.38,80.34h27.07a35.39,35.39,0,0,0,3.46-3.8h0c20-26.07-19.06-41.45-18.39-66.52h0c1-10,6.41-17.58,13.36-25.74h0l-.66-.66c-6.24,5.87-8.79,10-12.46,16.38"/><path id="path48534" class="cls-5" d="M150,61.18A112,112,0,0,1,193.84,150h0A112,112,0,0,1,150,238.82h88.85V61.18Z"/><path id="path48560" class="cls-6" d="M61.19,165.74v73.08H76.44l3.73-3.16c20.78-28.09-4-47.78-19-69.92Z"/><path id="path48586" class="cls-7" d="M61.19,61.18v2.88a44.62,44.62,0,0,1,11.94,3.5h0c8.35,5,15,13.37,14.37,23.39h0l19-1.67C109,83,110.06,73.39,107.8,68.47h0a27.19,27.19,0,0,0-4.49-7.29H61.19Z"/><path id="path48612" class="cls-8" d="M111.72,61.18c3.88,5.35,4,12.39,4.54,18.41h0c7.34-5.69,16.7-9,26.4-6.36h0c-6.65-5-11-9-19-12.05h-12Z"/><path id="path48638" class="cls-9" d="M128.29,154.8c-5.69,1.67-11-2-16.72-3h0c0-.78-.19-1.55.19-2h0c-8.09,5.1-5.9,14.88-7.54,22.73h0c2,8.71,11.37,12,17.71,17.05h0c9.37,1.68,18-2.67,26.41-5.67h0c1.33,1.34,3.34,2.67,2.34,4.68h0c-6.36,9-16,13-27.08,12h0c6.61,12.62,2.13,27.16-4.92,38.23h6.63c19.81-9.14,38.71-22.82,40.07-49.27h0c2-16.71.66-34.09-11.35-45.79h0a15.79,15.79,0,0,0-2.48,0h0c-2,.11-4.14.23-5.55-1.66h0c-5.35,5-12.38,7-17.71,12.7m3.34,0c3.46-3.73,13.32-11.08,16.64-8.31h0c.85.71,1.27,3.13,1.07,5.36h0l-1.67,4-1.87-5.15c-4.68,1-9.09,2.71-11.41,7.4h0c-.34,1.33.25,4.09-1.1,5.1h0c-3-.68-1.33-5.74-1.66-8.42m16,18.72c3.67,13-11.7,10.68-18.39,14.37h0c-2.67-2-1.33-5.35-1.67-8h0l1.67-1.67c1.68,5,4.77,3.11,8.16,1.22h0c2.05-1.14,4.21-2.27,6.22-1.9h0c2.34-1,1.34-4.68,4-4"/><path id="path48664" class="cls-10" d="M134.32,77.85c-8.77.49-17.15,6.9-20.41,12.09h0a97.7,97.7,0,0,1,18.38,13.71h0c-.33,2,1,4.68-1.67,5.68h0c-3-2.33-5.67-8.35-9.35-6.35h0c3,6.35,11,7,17.37,8.7h0c2.34,2.34,1.67,6.34,6.69,4.67h0c2.34.67,3.34,3.35,4,5.69h0c-2.67,4.9-8.47,4.46-13.8,4h0a26.14,26.14,0,0,0-7.25,0h0c5,2,10.69,2.67,15.37,5.68h0c4.68,3,6-4,8-6.34h0c8,2,3.67,10.35,7,15h0c17.05,17.72,13.71,48.81,5,69.19h0c23.39-21.38,21.53-69,16.05-88.24h0C174.4,102.64,158.07,77.8,136,77.8h0c-.56,0-1.11,0-1.67,0"/><path id="path48692" class="cls-11" d="M150,61.18a112.68,112.68,0,0,1,32.64,40h0a375.65,375.65,0,0,1,56.2,32.93h0v-73Zm-38.27,0c3.89,5.35,4,12.39,4.55,18.4h0c7.34-5.68,16.69-9,26.39-6.35h0c-6.65-5-11-9-19-12.05h-12Zm-50.53,0v2.88a44.51,44.51,0,0,1,11.94,3.49h0c5.56,3.35,10.37,8.16,12.78,14h0A140.34,140.34,0,0,1,108.66,81h0c.67-4.71.53-9.51-.86-12.53h0a27.71,27.71,0,0,0-4.49-7.29H61.18Zm0,25.38a132.57,132.57,0,0,1,17.88-4.14h0c-.18-.61-.37-1.23-.61-1.87h0c-4.18-6.44-10.57-10.1-17.27-11.84h0Zm73.12-8.72a26,26,0,0,0-12.51,4.46h0a199.76,199.76,0,0,1,43.44,11.55h0c-7.67-9.22-17.67-16-29.26-16h0c-.55,0-1.11,0-1.67,0"/><path id="path48718" class="cls-12" d="M181.56,200.91A112.74,112.74,0,0,1,150,238.82h88.85V115.52c-13.23,31.65-31.18,65-57.26,85.39M61.18,238.82H76.44l3.73-3.15c6-8.07,8.16-15.44,7.93-22.38h0a184.43,184.43,0,0,1-26.92-12.14h0Zm65.06-18.46a52,52,0,0,1-7.57,18.46h6.64c12.17-5.61,24-12.95,31.62-23.9h0a85.77,85.77,0,0,1-30.69,5.44M85.05,238.82h27.07a33.5,33.5,0,0,0,3.46-3.8h0c4.1-5.32,5.72-10.18,5.73-14.79h0A115.73,115.73,0,0,1,93.19,215h0c-.59,8.79-2.58,17-8.14,23.85"/><path id="path48744" class="cls-13" d="M110.69,150.55v.37l.84.17a1.91,1.91,0,0,1,.22-1.32h0Z"/><path id="path48770" class="cls-14" d="M142.79,176.65c-2-.38-4.18.76-6.22,1.9h0c-2.41,1.33-4.67,2.67-6.37,1.55h0c1.76,2.49,4.4.9,7.24-.68h0c2.06-1.14,4.21-2.27,6.22-1.9h0c2.1-.89,1.51-4,3.33-4.07h0l-.19-.81-.59-.07c-2,0-1.28,3.17-3.42,4.08"/><path id="path48796" class="cls-15" d="M111.76,149.76l.49-.31Z"/><path id="path48822" class="cls-16" d="M128.41,177.32,126.74,179c.33,2.68-1,6,1.67,8h0c-1.47-2-.52-4.82-.81-7.14h0l1.32-1.32a8.13,8.13,0,0,1-.52-1.23Z"/><path id="path48848" class="cls-17" d="M130.76,153.93c.3,2.45-1.08,7.1,1,8.18h0c-.77-1.55.09-5.33-.16-7.31h0c3.36-3.62,12.69-10.63,16.31-8.54h0a2.73,2.73,0,0,0-2.49-1.25h0c-4.26,0-11.76,5.75-14.69,8.92"/><path id="path48874" class="cls-18" d="M145.23,150.85l1.37,4.35.34-.83-1.14-3.65Z"/><path id="path48900" class="cls-19" d="M125.6,104c1.24,1.33,2.43,3,3.68,4.1h0C128.06,106.75,126.87,105.11,125.6,104Z"/><path id="path48926" class="cls-20" d="M141,115.48c.76,1.12,1.84,1.72,4.38.87h0a4.13,4.13,0,0,1,1.31.7h0a4.08,4.08,0,0,0-2.19-1.57h0c-1.72.57-2.76.46-3.5,0"/><path id="path48952" class="cls-21" d="M113.91,89.94a97.13,97.13,0,0,1,17.5,12.9h0v-.07a99,99,0,0,0-17.33-13.09h0Z"/><path id="path48978" class="cls-22" d="M161.34,89.59a77,77,0,0,1,17.55,30.91h0c5.32,18.63,7.23,64-14,86.25h0c-.38,1-.76,1.93-1.15,2.86h0c23.39-21.38,21.53-69,16.05-88.24h0c-3-10.5-9.46-22.89-18.43-31.78Z"/><path id="path49004" class="cls-23" d="M108.17,179.53c3.84,4,9.49,6.64,13.76,10h0c9.36,1.68,18-2.67,26.41-5.67h0l.78.74c-.5-.56-1.14-1.09-1.65-1.62h0c-8.37,3-17.05,7.36-26.41,5.68h0c-4-3.12-9.1-5.61-12.89-9.14Z"/><path id="path49030" class="cls-24" d="M122.87,105.39c3.65,4.1,10.17,4.85,15.57,6.24h0l-.67-.83c-2.17-.56-4.51-1-6.8-1.63h0l-.35.16-.43-.36a18.51,18.51,0,0,1-7.32-3.58Z"/><path id="path49056" class="cls-25" d="M97.05,139.09c-9.44,5.78-17.78,14.5-17.78,26.19h0v9.85l.87,1.39V166.16c0-13,10.37-22.4,21.07-28.09h0a31.94,31.94,0,0,1-4.16,1"/><path id="path49082" class="cls-26" d="M112.26,118.64l2,4,1.09,1.21h0l-2.58-5.15-.5,0Z"/><path id="path49108" class="cls-27" d="M107.82,144.13c-6,7.33-10.58,14.39-11.5,23.49h0c-.67,25.08,38.45,40.45,18.38,66.53h0a32.3,32.3,0,0,1-3.45,3.78H85.7l-.64.89h27.07a35.39,35.39,0,0,0,3.46-3.8h0c20-26.07-19.07-41.44-18.39-66.52h0c1-10,6.41-17.58,13.36-25.74h0l-.66-.66c-.75.7-1.44,1.37-2.08,2"/><path id="path49134" class="cls-28" d="M103.19,61.18a31.36,31.36,0,0,1,3.74,6.41h0c2.27,4.92,1.23,14.55-1.25,20.81h0L87.52,90l0,1,19-1.67C109,83,110.06,73.39,107.8,68.47h0a27.19,27.19,0,0,0-4.49-7.29h-.12Z"/><path id="path49160" class="cls-29" d="M61.19,165.74v.38c15,21.63,38.49,41.11,18.11,68.68h0l-3.73,3.13H61.19v.89H76.44l3.73-3.16c20.78-28.09-4-47.78-19-69.92Z"/><path id="path49186" class="cls-30" d="M154,143.76c11.24,11.68,12.5,28.61,10.54,44.92h0c-1.37,26.46-20.26,40.14-40.07,49.25h-5.23l-.53.89h6.63c19.81-9.14,38.71-22.82,40.07-49.27h0c2-16.71.66-34.09-11.35-45.78H154Z"/><path id="path49212" class="cls-31" d="M238,61.18V237.93H151.09l-1.12.89h88.85V61.18Z"/><path id="path49238" class="cls-32" d="M77.58,79.69c3,8,1,14.07-6.33,17.4h0a83.17,83.17,0,0,1-10.06-2h0v.64A85.59,85.59,0,0,0,72.12,98h0c7.36-3.34,9.34-9.39,6.33-17.42h0a25.31,25.31,0,0,0-3.94-4.69h0a25.26,25.26,0,0,1,3.07,3.83"/><path id="path49264" class="cls-33" d="M92.27,118.45c-5,0-9.6,6.46-13.55,4.64H76l0-.15a17,17,0,0,1-7.06-1.45h0l-1.07-.24c2.94,2.21,7,2.94,11.42,2.58h0l1,.44h2c3.34-.79,7.06-4.87,11-4.87h0c6.71-1,15.21-2,20.58,2.8h0c-3.21-3.58-7.86-4.59-12.63-4.59h0a60.25,60.25,0,0,0-8.9.84"/><path id="path49290" class="cls-34" d="M150,61.18a113,113,0,0,1,11,9.69h0a115.42,115.42,0,0,0-10.79-9.69H150Z"/><path id="path49316" class="cls-35" d="M142.79,130.85c-4.08-2.62-8.93-3.47-13.44-5h0l-1.06.17c5,2,10.69,2.67,15.37,5.68h0c4.68,3,6-4,8-6.34h0a7.2,7.2,0,0,1,2.89,1.36h0a6.57,6.57,0,0,0-3.76-2.23h0c-2,2.32-3.34,9.35-8,6.33"/><path id="path49342" class="cls-36" d="M116.13,78.15c0,.49.08,1,.13,1.44h0c7.34-5.69,16.7-9,26.4-6.36h0l-1.27-1a25.76,25.76,0,0,0-6.49-.84h0c-6.86,0-13.33,2.71-18.77,6.72"/><path id="path49368" class="cls-37" d="M75,122.13h1.07c.71-1.49,3.56-3.23,5.34-2.81h0l.17-.13v0a1.84,1.84,0,0,0-1.7-.88h0c-2.23,0-5.43,2.44-4.88,3.84"/><path id="path49394" class="cls-38" d="M61.19,64.06a44.62,44.62,0,0,1,11.94,3.5h0a35.1,35.1,0,0,1,6.51,5h0a35.32,35.32,0,0,0-7.39-5.86h0a43.67,43.67,0,0,0-11.06-3.33h0Z"/></g></g></g></svg>