<svg id="Layer_1" data-name="Layer 1" xmlns="http://www.w3.org/2000/svg" viewBox="0 0 300 300"><defs><style>.cls-1{fill:#fff;}</style></defs><path class="cls-1" d="M266.61,133.33,203.3,196.64a17.67,17.67,0,0,1-12.53,5.56,16.92,16.92,0,0,1-16.83-17V151a17,17,0,0,0,16.78,17.25h.05a17.83,17.83,0,0,0,12.53-5.56L266.61,99.2Z"/><path class="cls-1" d="M209.57,149.23a17,17,0,0,0-16.74-17.3h-.19a17.91,17.91,0,0,0-12.53,5.56L121.2,196.64a17.7,17.7,0,0,1-12.72,5.52,17.12,17.12,0,0,1-17.07-17.07V151a17.17,17.17,0,0,0,17,17.3h0A17.8,17.8,0,0,0,121,162.69l59.19-59.33a17.89,17.89,0,0,1,12.44-5.56A17,17,0,0,1,209.47,115v34.23Z"/><path class="cls-1" d="M127.46,149.23A17.1,17.1,0,0,0,110.63,132a17.5,17.5,0,0,0-12.53,5.56L33.39,202.16v-33.9l64.66-64.9a17.53,17.53,0,0,1,12.58-5.56,17.1,17.1,0,0,1,16.83,17.25Z"/></svg>