<svg id="Layer_1" data-name="Layer 1" xmlns="http://www.w3.org/2000/svg" viewBox="0 0 300 300"><g id="path13"><path d="M24.70408,79.49377,59.74966,50.23932,88.95683,73.644l28.03646-23.4047,28.03836,22.234,26.86763-22.234L201.10455,73.644v58.507l-38.552,30.42327V88.85376s-1.16692-10.5307-17.52279-10.5307V247.99624H106.4796V88.85377s0-10.5307-16.354-10.5307V247.99624H50.40478V97.04682s1.16693-21.06329-25.70072-17.553Z" fill="#0c1e78" fill-rule="evenodd"/></g><g id="path15"><path d="M224.46954,121.62034l-61.91512,47.97821v46.80562l39.72084,32.76469,51.40143-39.78326-2.33574-2.34142s-14.01823,14.04094-25.70073,11.70329c-18.69159-2.34143-24.53379-14.04092-24.53379-31.594V147.36456s14.02011,15.21163,24.53379,15.21163c9.34485,0,18.6916-8.18928,28.03647-17.55116Z" fill="#e8001a" fill-rule="evenodd"/></g><g id="path17"><path d="M259.517,249.76068a14.8293,14.8293,0,0,1-14.61011-14.63281c0-8.271,6.96368-15.80323,14.61011-15.80323a16.00249,16.00249,0,0,1,15.77893,15.80323C275.29594,243.33343,268.365,249.76068,259.517,249.76068Zm0-29.25244c-6.90137,0-13.42633,7.105-13.42633,14.61963A13.62874,13.62874,0,0,0,259.517,248.57708c8.1842,0,14.59515-5.90771,14.59515-13.44921A14.803,14.803,0,0,0,259.517,220.50824Z" fill="#e8001a"/></g><g id="path19"><path d="M253.67482,225.76413h8.17794c3.50646,0,5.84029,1.17072,5.84029,4.68474,0,4.68095-2.33383,4.68095-2.33383,4.68095a16.7938,16.7938,0,0,1,2.33383,8.18928H264.1885c0-7.01857-3.50645-5.85164-3.50645-5.85164h-4.67336v5.85164h-2.33575V225.76416Zm2.33574,2.34143v7.02235h5.8422c1.16693,0,2.33574-1.17071,2.33574-3.51211,0-2.33762-1.16881-3.50833-2.33574-3.50833C259.517,228.10556,256.01056,228.10556,256.01056,228.10556Z" fill="#e8001a" fill-rule="evenodd"/></g></svg>