<svg id="Layer_1" data-name="Layer 1" xmlns="http://www.w3.org/2000/svg" viewBox="0 0 300 300"><defs><style>.cls-1{fill:#64676c;}.cls-2{fill:#064165;}</style></defs><path class="cls-1" d="M168.14,71.5l-18,22-53-69.8a3,3,0,0,0-2.45-1.19H72.33a3,3,0,0,0-2.45,4.83l80.24,106.87,45.21-59a3,3,0,0,0-2.45-4.82H170.59A3,3,0,0,0,168.14,71.5Z"/><path class="cls-2" d="M248.22,224.86,192.09,150l75-98.65a3.06,3.06,0,0,0-2.37-4.9H242.61a3.06,3.06,0,0,0-2.38,1.18L162,150l58.89,78.57a2.93,2.93,0,0,0,2.45,1.19h22.45A3.06,3.06,0,0,0,248.22,224.86Z"/><path class="cls-2" d="M51.86,75.14,108,149.92l-75.1,98.81a3.06,3.06,0,0,0,2.37,4.9H57.39a3.06,3.06,0,0,0,2.38-1.18L138.1,150l-59-78.5a3,3,0,0,0-2.45-1.18H54.23A3,3,0,0,0,51.86,75.14Z"/><path class="cls-1" d="M131.94,228.5l18-22,53,69.8a3,3,0,0,0,2.45,1.19h22.29a3,3,0,0,0,2.46-4.83L150,165.81l-45.22,59.05a3,3,0,0,0,2.45,4.82h22.38A2.83,2.83,0,0,0,131.94,228.5Z"/></svg>