<svg id="Layer_1" data-name="Layer 1" xmlns="http://www.w3.org/2000/svg" viewBox="0 0 300 300"><defs><style>.cls-1{fill:#fff;}</style></defs><path class="cls-1" d="M279.92,103.85l-58.1-33.34a16.56,16.56,0,0,0-14.87,0l-160.27,92,88.69-67.7L93.05,70.51a16.58,16.58,0,0,0-14.88,0L20.08,103.85a16.41,16.41,0,0,0-7.44,12.82v66.65a16.41,16.41,0,0,0,7.44,12.83l58.09,33.34a16.58,16.58,0,0,0,14.88,0l160.27-92-88.69,67.7L207,229.49a16.56,16.56,0,0,0,14.87,0l58.1-33.34a16.41,16.41,0,0,0,7.44-12.82V116.67A16.41,16.41,0,0,0,279.92,103.85Z"/></svg>