<svg id="Layer_1" data-name="Layer 1" xmlns="http://www.w3.org/2000/svg" viewBox="0 0 300 300"><defs><style>.cls-1{fill:red;}</style></defs><title>MMM_Light_bg</title><path id="Shape" class="cls-1" d="M203.17,103.43l-13.35,54.51-13.39-54.51H137.15v20.13c-4.71-17.62-21.35-22-36.77-22.29C81.6,101,61.9,109.18,61.17,134.1h26c0-7.52,5.75-11.83,12.23-11.73,8-.05,11.62,3.35,11.81,8.67-.28,4.6-3,7.81-11.75,7.81H90.71V157h7.94c4.49,0,10.77,2.45,11,8.89.3,7.67-5,11.06-11.56,11.12-11.69-.43-13.59-9.45-13.59-17.19h-27c.12,5.21-1.16,39.21,41.12,39,20.25.19,34.38-8.35,38.53-20.12v18h26.61V137.86l14.39,58.8h23.25l14.44-58.75v58.81h26.54V103.43Zm-65.94,54.38c-3.31-6.88-8-9.89-10.6-10.84,5.5-2.45,8.4-5.78,10.6-12.43Z"/></svg>