<svg id="Layer_1" data-name="Layer 1" xmlns="http://www.w3.org/2000/svg" viewBox="0 0 300 300"><path d="M72.099,67.18968l-.02872.03167Z" fill="#fff"/><path d="M147.54571,53.55475a.59843.59843,0,0,1,.6-.29849,1.705,1.705,0,0,1,1.29818-.00572,1.87912,1.87912,0,0,1,.73808,1.64459c.0265.56216.01968,1.12481.01968,1.68728q.00078,88.90428,0,177.80855a15.02351,15.02351,0,0,1-.0305,1.68631c-.0549.48581-.02,1.06736-.742,1.13052a7.08,7.08,0,0,1-1.86063-2.4457,18.503,18.503,0,0,1-.15426-2.59814q.00514-38.96776-.0045-77.93552a15.86927,15.86927,0,0,1,.11481-1.83431l.67362-.43186c-.18967-1.36045-.38172-2.738-.57376-4.11547-.471-30.76856-.07168-61.53908-.21418-92.30835C147.40713,54.87045,147.49592,54.21552,147.54571,53.55475Z" fill="#6abe37"/><path d="M147.54571,53.55475a.86048.86048,0,0,1,.37322.79043c.00112.40914.00474.81827.00474,1.2274q.00033,45.18576-.0113,90.37151c-.00028.6355.25358,1.338-.288,1.90269-.83038-3.41277-1.70393-6.81634-2.19156-10.30206a83.352,83.352,0,0,1,.00579-18.64568l-.003-1.04435a4.81061,4.81061,0,0,1-.47-2.82765q-.00527-28.37392-.00019-56.74784a20.07789,20.07789,0,0,0-.22076-3.51474,1.20473,1.20473,0,0,1,.85442-.23967A2.60317,2.60317,0,0,0,147.54571,53.55475Z" fill="#72c135"/><path d="M153.17179,200.71482q.00068,3.76242.00137,7.52483c.33.82369-.11418,1.73044.27328,2.548a.23227.23227,0,0,1,.02158.25652c.34954.59-.11845,1.31188.305,1.88989l-.00549-.0131c.80226,5.04749.29029,10.13.40206,15.19587a1.74671,1.74671,0,0,1-.39014,1.13156l.015-.03318c-.44332,1.69841-.07441,3.428-.19794,5.13835a7.6641,7.6641,0,0,1-.13172,2.26715.27062.27062,0,0,1-.03374.27069,8.59032,8.59032,0,0,0,.00148,3.36678,14.42369,14.42369,0,0,1,.31556,3.3502A3.85014,3.85014,0,0,1,152.33,247.066c-.23976.65486.05606,1.32855-.39289,1.849a1.67534,1.67534,0,0,1-.39054-1.7162,18.9863,18.9863,0,0,0,.21032-4.27661q.01009-94.22.008-188.44005a8.80625,8.80625,0,0,1,.11143-2.13915,3.84711,3.84711,0,0,0,.65723-1.39167.61458.61458,0,0,1,.609-.11362c.66158.73843.451,1.6468.45124,2.49586q.01364,48.08928.00765,96.17857,0,21.47529.00989,42.95054C153.61548,195.22479,153.28585,197.96261,153.17179,200.71482Z" fill="#5fbb3a"/><path d="M147.52454,152.39413c.618.45342.3891,1.12008.39,1.70173q.02033,12.79991.00931,25.59988,0,26.59631-.01232,53.1926c-.00055.6286.27033,1.343-.343,1.87373a14.08284,14.08284,0,0,1-2.45637-4.607q-.36461-35.63763.00238-71.27522c.48323-2.011,1.39062-3.89484,1.77566-5.93661A.63056.63056,0,0,1,147.52454,152.39413Z" fill="#72c135"/><path d="M111.70818,107.6312q.02275,1.82925.04555,3.65851c.26254,3.56223.42319,7.12439.42045,10.70117q-.03954,51.97921-.03875,103.95847c-.00063.81126.48149,1.89877-.76714,2.35151a13.43705,13.43705,0,0,1-1.22492-4.60777c.013-1.88981-.12056-3.77519-.12037-5.66665q.00792-77.72885-.005-155.45769a2.32026,2.32026,0,0,1,.05971-.6081,1.21959,1.21959,0,0,1,1.42162-.04245,3.29057,3.29057,0,0,1,.39007,2.07058c.01064,12.88358-.00607,25.76719.02052,38.65072C111.91338,104.31005,111.14408,105.9438,111.70818,107.6312Z" fill="#84c831"/><path d="M151.31274,250.42734a3.528,3.528,0,0,1-1.23954,1.8113,1.376,1.376,0,0,1-.2465-1.01734c.18729-3.624-.10918-7.25429.21161-10.88172.15192-1.71811.02657-3.46427.02687-5.19763q.01521-89.51472.01036-179.02944a9.4151,9.4151,0,0,0-.32484-3.16571,3.083,3.083,0,0,1,1.53154-.34206c.68378.6677.46821,1.53154.46887,2.32613q.01782,21.64227.0085,43.28456,0,73.21536-.01914,146.43071A22.90532,22.90532,0,0,1,151.31274,250.42734Z" fill="#65bc38"/><path d="M151.31274,250.42734c-.004-.71614-.01154-1.4323-.01154-2.14844q-.00083-96.6861-.00126-193.3722c0-.76724-.01152-1.53448-.01769-2.30183a.69991.69991,0,0,1,.59411-.26183.72345.72345,0,0,1,.3394.64374q.00523.69049.00566,1.381.00037,95.07026.022,190.14051c.00058,1.48619-.519,2.91771-.30633,4.40653A2.14417,2.14417,0,0,1,151.31274,250.42734Z" fill="#62bb39"/><path d="M106.80485,59.98742a2.26385,2.26385,0,0,1,.90006,1.29212c.16648.3641.51839.6097.64359,1.00179a6.02777,6.02777,0,0,1,.12312,1.82954q.00526,70.451-.01883,140.90194c-.00043.82159.46217,1.88925-.726,2.3939l-.13533-.92725c-.37686-.36564-.79044-.76694-1.204-1.16824-.07751-.9177-.059-1.83738-.059-2.75683q.00084-69.967.0121-139.93394C106.34087,61.73084,106.06187,60.75947,106.80485,59.98742Z" fill="#8fcb2e"/><path d="M104.3366,58.234a2.67292,2.67292,0,0,1,1.53333.87623,4.42062,4.42062,0,0,1,.4552,2.67344q.00129,65.0406.00054,130.08121c0,3.57927.01889,7.15873-.01675,10.73768-.00645.64882.24676,1.50114-.76581,1.747a3.0345,3.0345,0,0,1-.94116-2.01786,29.85106,29.85106,0,0,1-.271-3.04139c-.17882-8.89482-.112-17.79073-.13854-26.68624a15.54431,15.54431,0,0,1,.42495-3.93886,22.07909,22.07909,0,0,0-.2482-10.99918,3.45025,3.45025,0,0,1-.04246-.60515c-.3355-32.49006-.05335-64.98106-.1437-97.47149A2.80216,2.80216,0,0,1,104.3366,58.234Z" fill="#95ce2e"/><path d="M198.58028,58.18212a1.03762,1.03762,0,0,1,.93377.27705,4.81675,4.81675,0,0,1,1.071,3.41149q-.02817,47.86969-.0329,95.7394c-.00053.78.374,1.78179-.75409,2.21805l.00142.00271c-.2625-.257-.01259-.67994-.3005-.92878a.11935.11935,0,0,1-.04129-.18222c-.1822-.32628.0193-.75519-.28079-1.04994a18.12119,18.12119,0,0,1-.56856-6.66619,3.5398,3.5398,0,0,0-.36705-2.21993,10.97084,10.97084,0,0,1-.177-2.13124q.012-42.765.01761-85.53009C198.0824,60.12875,197.82379,59.06047,198.58028,58.18212Z" fill="#7dc532"/><path d="M109.57268,220.30045a58.118,58.118,0,0,1-.92931-7.367c.05207-2.49155-.194-4.9724-.192-7.46755q.05423-70.48461.0347-140.9693a4.35336,4.35336,0,0,1,.31756-2.54487.89109.89109,0,0,1,1.1336-.04467,4.588,4.588,0,0,1,.225,1.96363q.003,77.22516-.01966,154.45032C110.1422,218.989,110.56706,219.87878,109.57268,220.30045Z" fill="#89c930"/><path d="M199.79806,159.82811c.43256-.34687.30923-.83662.30923-1.28136q.00176-49.05514-.00637-98.11028c0-.05067-.01079-.10134-.03219-.29063a2.15561,2.15561,0,0,1-.55468-1.68666,3.14836,3.14836,0,0,1,1.52113.66135,2.11583,2.11583,0,0,1,.32374.5256,6.15455,6.15455,0,0,1,.1282,1.97959q.0069,74.65044.01326,149.30086a8.6167,8.6167,0,0,1-.4402,3.008,5.8955,5.8955,0,0,1-.92729,1.82153c-.56885-.52165-.44856-1.22118-.44931-1.86973-.02013-17.16684.00858-34.33368-.0223-51.5005-.00067-.35869.08863-.71049.05767-1.06952A2.17858,2.17858,0,0,0,199.79806,159.82811Z" fill="#79c334"/><path d="M201.06018,213.9346c-.0093-.51126-.02668-1.02251-.02672-1.53377q-.00112-76.48863.00034-152.97726a.82289.82289,0,0,1,1.107.14086,3.59125,3.59125,0,0,1,.26767,1.94734q.00636,74.15164.01229,148.30331a6.86118,6.86118,0,0,1-.4562,2.53956A4.16747,4.16747,0,0,1,201.06018,213.9346Z" fill="#75c235"/><path d="M201.96461,212.35464c-.00379-.71627-.01087-1.43252-.01087-2.14879q-.0028-75.36524-.00454-150.73046a.75319.75319,0,0,1,1.09514.06429,3.74321,3.74321,0,0,1,.26119,1.95147q.00922,73.5069.01076,147.01379a6.24154,6.24154,0,0,1-.40172,2.40054A4.23451,4.23451,0,0,1,201.96461,212.35464Z" fill="#72c135"/><path d="M108.936,61.89183q.00036,74.64468-.00946,149.28938c-.00014.5867.22692,1.2372-.28319,1.75223a47.84226,47.84226,0,0,1-.91654-5.52673c.525-.57108.27746-1.27106.2777-1.90808q.01929-47.41173.01123-94.82344-.00009-24.39633-.0007-48.79266.05908-.06332.1181-.12684a2.45363,2.45363,0,0,1,.34549-.02135C108.64689,61.7409,108.828,61.7104,108.936,61.89183Z" fill="#8bca2f"/><path d="M204.10968,209.27458a3.0332,3.0332,0,0,1-.91631,1.24474,26.38016,26.38016,0,0,1-.00251-3.17908q-.01522-72.70887-.00139-145.41773a6.06475,6.06475,0,0,1,.17579-2.42666.90148.90148,0,0,1,1.13546-.0506,2.79729,2.79729,0,0,1,.36372,1.91535q-.00186,72.5852.01349,145.17041A4.34012,4.34012,0,0,1,204.10968,209.27458Z" fill="#6dbf37"/><path d="M149.7507,52.9468a1.62132,1.62132,0,0,1,.63826,1.46808,7.219,7.219,0,0,0-.00924,1.0731q0,97.01562.00431,194.03126a7.91806,7.91806,0,0,1-.31083,2.7194,3.17319,3.17319,0,0,1-1.49959,1.3439c-.94-1.69991-.53962-3.5069-.343-5.26934a6.89976,6.89976,0,0,0,.02712-2.51659,7.55909,7.55909,0,0,1,.79665-2.914,8.78783,8.78783,0,0,0,.3747-5.67478.79664.79664,0,0,0,.32825-.65721c.00617-.409.00812-.81806.00812-1.2271q.00044-89.746-.00563-179.49209c-.00009-.79948.19491-1.65276-.45468-2.36141-.33264-.27-.76391-.15039-1.15916-.21367A2.30117,2.30117,0,0,1,149.7507,52.9468Z" fill="#69bd37"/><path d="M204.10968,209.27458a9.02225,9.02225,0,0,0,.30627-2.71943q-.01158-73.56332-.00682-147.12663c.79512-.38539,1.1395.05181,1.31042.74294a7.57076,7.57076,0,0,1,.11636,1.82963q.00472,21.36338-.00394,42.72673c-.00194,2.44358-.34858,4.86962-.46909,7.30811a1.31307,1.31307,0,0,1-.04561.816c-.10987,2.01039-.55783,4.03922.363,5.99115a2.061,2.061,0,0,1,.13079.907c-.05625,3.72908.26726,7.46705-.26434,11.18522a15.68746,15.68746,0,0,0-.05337,3.21684c.61457,9.659.11456,19.328.28079,28.99075.06161,3.57895-.0175,7.16059-.003,10.741a7.70152,7.70152,0,0,1-.42787,2.86034l.02514.77114a13.21242,13.21242,0,0,1,.2715,2.27279c.25441,8.2795.18774,16.56136.19936,24.84267a7.4455,7.4455,0,0,1-.48277,3.157A4.87175,4.87175,0,0,1,204.10968,209.27458Z" fill="#6abe37"/><path d="M153.17179,200.71482a9.37767,9.37767,0,0,1-.01459-2.71693q-.02509-64.29625-.01458-128.59251,0-9.28383,0-18.56766l.921.00025c.6595.80245.42607,1.76251.42645,2.66036q.01841,42.5858.01,85.17159c0,7.82658.13744,15.65622-.03653,23.47893-.19562,8.79513.39124,17.58427.03691,26.37381a31.42391,31.42391,0,0,1-.40292,5.79142Z" fill="#5cba3a"/><path d="M105.54311,204.3495a.908.908,0,0,0,.322-.817c-.00094-.46043.00174-.92087.00176-1.38129q.0016-71.5205.00309-143.041a1.64909,1.64909,0,0,1,.93492.87723c-.00566.716-.01627,1.432-.01627,2.148q-.00117,70.58459-.01427,141.16916c-.00021.67381.30132,1.44845-.38685,2.00664A1.65829,1.65829,0,0,1,105.54311,204.3495Z" fill="#92cc2e"/><path d="M103.424,154.29261a8.19094,8.19094,0,0,1-1.26768-4.761c.1074-3.46485.03534-6.9354.02782-10.40357-.0012-.55923-.05242-1.11836-.08051-1.67754a19.28591,19.28591,0,0,1-.07112-3.20883q-.00234-36.64235-.00334-73.28468a3.29713,3.29713,0,0,0-.50955-2.47249,2.14348,2.14348,0,0,1,1.464-.32668c.79535-.29115.98952.25889,1.13166.834a5.69387,5.69387,0,0,1,.05973,1.37509q.00334,45.84649-.016,91.693C104.15852,152.8416,104.53182,153.83729,103.424,154.29261Z" fill="#9bcf2c"/><path d="M114.49844,207.84024l-.05974.49972c-.30131,2.95462-.04587,5.91776-.13764,8.87535a27.54276,27.54276,0,0,1-.11386,4.12578,1.25995,1.25995,0,0,1-.05025.80725.42256.42256,0,0,1-.52788-.13209,4.23323,4.23323,0,0,1-.41373-2.96824,51.52808,51.52808,0,0,0-.03993-9.19,27.26015,27.26015,0,0,1,.1884-3.05691c.02378-7.15878.08089-14.318-.2239-21.47321q-.036-.84384-.03527-1.68734-.00219-30.46305.00812-60.92608c.00045-.79141-.22054-1.66035.50173-2.30722a25.39386,25.39386,0,0,1,1.4808,4.11108,15.89489,15.89489,0,0,1,.51234,4.08109q-.01577,23.62437-.00062,47.24874a30.71714,30.71714,0,0,1-.27721,3.85923c-.22038.63043-1.02909.45051-1.12834,1.07293q.00408,2.35594.00817,4.71189c.271.52191-.07577,1.14384.26777,1.654a.181.181,0,0,1,.03082.23229c.26671.3972-.04536.9168.27547,1.30255a.156.156,0,0,1,.03639.21563c.26153.40574-.06586.9406.29059,1.32552a.09933.09933,0,0,1,.02159.16963,63.52323,63.52323,0,0,1-.01542,14.89965l.01375-.02286c-.40082.34171-.02442.88251-.32036,1.25109l.01313-.02345C114.41352,206.87888,114.74885,207.426,114.49844,207.84024Z" fill="#7bc433"/><path d="M198.58028,58.18212q-.00192,44.35787-.01589,88.71572c-.0003.63149.269,1.34266-.3231,1.88591a3.27844,3.27844,0,0,1-1.23135-1.753.86826.86826,0,0,0-.24827-.40488.11816.11816,0,0,1-.06471-.17174.77188.77188,0,0,0-.229-.43992.19679.19679,0,0,1-.07075-.23046c-.21207-.30276.01439-.72983-.28559-1.00768a.125.125,0,0,1-.02383-.19447,6.289,6.289,0,0,1,.00374-2.65752l.05333-.52953c.28525-.39232-.00244-.89824.25684-1.29572a.19.19,0,0,1,.037-.23578c.25332-.30982.08859-.72137.256-1.0521l.07311-.48877c.22506-.29445.0438-.69.24627-.99007a.1838.1838,0,0,1,.03729-.23207c.31279-.38759.0072-.90373.27052-1.3016.06307-1.91646.31954-3.84538-.36765-5.71355-.14705-9.963-.0341-19.92648-.06187-29.88971-.03736-13.39269.05213-26.78555-.04369-40.17821a11.02531,11.02531,0,0,1,.17444-1.82821A1.27627,1.27627,0,0,1,198.58028,58.18212Z" fill="#81c732"/><path d="M113.59449,120.40729c-.01765.61283-.05066,1.22566-.05074,1.83849q-.004,30.75372.01018,61.50743c.00146,1.59683.33728,3.20471.22527,4.78675-.09366,1.32323.08066,2.61221.07579,3.91721-.01684,4.49924-.00206,8.99858-.01015,13.49787a7.43994,7.43994,0,0,1-.24154,2.72954,1.69676,1.69676,0,0,0-.03686.90956c.58594,2.73348.2552,5.49995.23468,8.24508a17.01026,17.01026,0,0,0,.04741,4.30916c.4349,1.20105-.1552,2.49157.32188,3.689a.25419.25419,0,0,1,.08077.26169,26.13884,26.13884,0,0,1-.1925,5.95492c-.47269.39288-.67846.0802-.92258-.051a3.01776,3.01776,0,0,1-.86473-1.54475,30.13651,30.13651,0,0,1-.10948-3.97585q-.00017-53.47975.01019-106.95952c.0003-.83958-.25566-1.76181.4884-2.46752A17.30537,17.30537,0,0,1,113.59449,120.40729Z" fill="#80c532"/><path d="M112.66048,117.05531c-.01329.71548-.03821,1.43094-.03824,2.14642q-.00285,54.6894-.01374,109.3788c-.00024.62956.27352,1.34369-.33713,1.87765a4.56636,4.56636,0,0,1-.90308-2.15732.89818.89818,0,0,0,.32913-.81328c-.00082-.40925.0021-.81851.0021-1.22776q.00016-56.01781-.00556-112.03564a6.37274,6.37274,0,0,0-.18241-2.42908c-.09207-.23314.07836-.37612.24214-.50536Q112.20711,114.1725,112.66048,117.05531Z" fill="#81c732"/><path d="M154.67755,50.83756l.921-.00015a8.15115,8.15115,0,0,1,.44585,3.45011q.024,52.38591-.02035,104.77179c-.00214,1.67788.46419,3.50161-.74146,5.03366l-.577,1.01649c-.47062-.45718-.327-1.052-.32707-1.59676q-.01251-55.5277-.00276-111.05542A2.317,2.317,0,0,1,154.67755,50.83756Z" fill="#58b73c"/><path d="M155.28254,164.093a6.545,6.545,0,0,0,.319-2.56q-.00541-55.34781-.00309-110.6956a.61027.61027,0,0,1,.64273.20888v1.47634c.81946.81411.71461,1.85685.71461,2.87556q0,36.14278-.00028,72.28557.00008,14.96356-.00349,29.92714a9.73621,9.73621,0,0,1-.111,2.29341,1.83079,1.83079,0,0,1-.32163.52393.59493.59493,0,0,0-.15676.66832A2.72156,2.72156,0,0,1,155.28254,164.093Z" fill="#55b63d"/><path d="M145.11452,158.87989c.55042.42558.34186,1.034.34467,1.5692.01748,3.32494.0088,6.65.0088,9.97508q0,28.92787-.01223,57.85574c-.00049.62923.27537,1.34508-.3436,1.87518a15.1256,15.1256,0,0,1-1.43661-5.26717,40.928,40.928,0,0,1,.1047-9.92034,24.49578,24.49578,0,0,0-.08233-7.61143,11.15216,11.15216,0,0,1,.07013-4.11121,18.6027,18.6027,0,0,0,.126-5.33244,66.65922,66.65922,0,0,1-.14605-7.33257q-.02628-10.79028-.00414-21.58068a59.946,59.946,0,0,1,.18826-7.02782A13.07343,13.07343,0,0,1,145.11452,158.87989Z" fill="#78c334"/><path d="M109.57268,220.30045c.51869-.57339.27359-1.27238.27386-1.90993q.01927-44.64609.01114-89.29217-.00017-33.59963-.0008-67.19925a.17608.17608,0,0,1,.3059-.002,2.19464,2.19464,0,0,1,.30921,1.0146c-.01156.35747-.00039.71564-.00039,1.07351q.00014,78.91025-.01179,157.82049c-.00017.63155.267,1.34077-.31644,1.88743A10.3947,10.3947,0,0,1,109.57268,220.30045Z" fill="#86c931"/><path d="M154.67755,50.83756q0,56.06244.00118,112.1249c0,.71558.01744,1.43117.02681,2.14687-.01533,4.287.19728,8.56205.49418,12.83965a48.90258,48.90258,0,0,1-.38879,12.05586c-.23162,1.29372.14949,2.66828-.48892,3.91463-.06884.13432-.14944.26261-.22458.39414-.01126-.76649-.03243-1.53345-.03245-2.30041q-.00235-70.58762-.00142-141.17523Z" fill="#5ab83b"/><path d="M100.90927,135.58492a7.19459,7.19459,0,0,1-.858-3.39912c-.51-23.55012-.01115-47.10265-.17041-70.65359a7.33246,7.33246,0,0,0-.19633-2.43068,1.0026,1.0026,0,0,1,.88277-.31964c.90022-.29162,1.1962.293,1.38357.98324a5.777,5.777,0,0,1,.07512,1.52625q.00377,36.01992.00022,72.03986a5.55188,5.55188,0,0,1-.079,1.52572C101.806,135.35554,101.63989,135.89371,100.90927,135.58492Z" fill="#a2d22b"/><path d="M97.30118,60.35546a3.61194,3.61194,0,0,1,1.73965-.96951c1.06839.16062.80353,1.04338.8132,1.66745.0491,3.17075.02214,6.34251.02216,9.51392,0,6.85434.19119,13.71516-.04394,20.56155-.38643,11.25113-.12971,22.50057-.23878,33.74991-.00991,1.02315.03736,2.046.03766,3.06832.00013.447.23714,1.07977-.55249,1.19077-1.00915-.298-.91309-1.17165-.9903-1.93874-.06262-.622.14193-1.30318-.45226-1.78828a5.00919,5.00919,0,0,1-.209-1.95749c-.02035-6.81966.04517-13.63947-.03452-20.459-.01191-1.01935.297-2.01465.20127-3.03782a44.94286,44.94286,0,0,0,.72415-5.24119,12.98655,12.98655,0,0,0-.70063-5.21178,16.59107,16.59107,0,0,1-.19629-2.87932q.01673-11.9925.00624-23.985A11.65993,11.65993,0,0,0,97.30118,60.35546Z" fill="#a9d52a"/><path d="M203.48818,59.42934q0,74.18612.00824,148.37223a9.78663,9.78663,0,0,1-.30309,2.71769.468.468,0,0,1-.2788.38592c-.01342-.76659-.03864-1.53349-.03867-2.30037q-.00354-74.58265-.00315-149.1653A.4147.4147,0,0,1,203.48818,59.42934Z" fill="#70bf36"/><path d="M160.23419,151.66923l-.63143.82134c-.59793-.5766-.44075-1.33135-.439-2.02674.05553-22.68469-.05016-45.36938.0192-68.05421q.03606-11.80064-.01817-23.6034a7.59,7.59,0,0,1,.20359-2.88206c.35782-.45705.77386-.38557,1.31115-.08222a8.73574,8.73574,0,0,1,.45366,3.82438c-.31959,6.8963-.15283,13.78937-.0714,20.68584.03844,3.25618.00981,6.51425.09812,9.7731a2.47615,2.47615,0,0,1-.08668.56646,4.50566,4.50566,0,0,0-.125,1.36738q-.00585,16.453.00217,32.906a5.12,5.12,0,0,0,.0935,1.2164c-.03478,3.25395.18122,6.52417.07068,9.75769-.16064,4.69836-.032,9.3925-.16242,14.08614A2.97185,2.97185,0,0,1,160.23419,151.66923Z" fill="#4ab13f"/><path d="M103.424,154.29261c.45414-.40915.2874-.95388.28754-1.4449q.01078-46.559.00646-93.11805v-1.043a.917.917,0,0,0-.734-.52882,1.02128,1.02128,0,0,1,1.35254.07614,2.79919,2.79919,0,0,1,.30462,1.62954q-.00377,47.88066-.00871,95.76132c-.00011.49.16886,1.03793-.30582,1.436A16.70442,16.70442,0,0,1,103.424,154.29261Z" fill="#98cf2d"/><path d="M141.7478,97.978l.06652-.48887c.23507-.27284.03123-.66573.25729-.94105l-.01092.02116c.32956-.28369.11394-.7221.29713-1.04733a.109.109,0,0,1,.036-.17269c.29108-.27858.06911-.702.28289-1.00239.109-1.39714.56595-2.79673-.02939-4.18893a16.59557,16.59557,0,0,1-.09938-1.67392q.01216-15.59124.00951-31.18251A3.14232,3.14232,0,0,1,142.971,55.101a1.421,1.421,0,0,1,1.31534.05751,3.00183,3.00183,0,0,1,.45194,2.05727q.0197,28.782-.01115,57.564c-.00105.74459.25355,1.68378-.79926,2.06235a4.26765,4.26765,0,0,1-1.18558-3.17372,22.81816,22.81816,0,0,1,.059-3.79427,45.89508,45.89508,0,0,0,.20056-7.1299,7.76012,7.76012,0,0,0-.94454-1.24362l.01281.01814c-.13959-.195-.096-.4745-.29574-.64181l.00336.0079A6.99677,6.99677,0,0,1,141.7478,97.978Z" fill="#7bc433"/><path d="M143.92784,116.84215c.47352-.3984.3056-.946.30579-1.43619q.01132-29.38518.0041-58.77038c-.00006-.40371-.0347-.80741-.05023-1.14637-.35694-.46751-.78487-.32534-1.18069-.32224a.251.251,0,0,1-.34212-.05675,4.583,4.583,0,0,1,2.08025-.34564.966.966,0,0,1,.723.54671l0,1.04473q-.00017,30.2129-.00168,60.42578c0,.35759-.02.71519-.03064,1.07284l-.28223-.12691a.70433.70433,0,0,0-.44021-.23423A.99218.99218,0,0,1,143.92784,116.84215Z" fill="#78c334"/><path d="M99.07864,129.13787c.27249-.15035.266-.36832.21354-.64761a23.04245,23.04245,0,0,1-.17712-4.27149c-.00362-8.69433-.22574-17.39582.05188-26.08127.3931-12.29781.1312-24.59233.24015-36.88751.00555-.62661.2739-1.3472-.36625-1.864a.68946.68946,0,0,1,.64365-.28443.6547.6547,0,0,1,.64927.70269c.00017.40853.00709.81706.00709,1.22559q.00056,34.70229-.00988,69.40458c-.0003.58636.22481,1.23516-.27974,1.75142a4.27484,4.27484,0,0,1-.33612-1.59785A1.78979,1.78979,0,0,0,99.07864,129.13787Z" fill="#a5d22b"/><path d="M203.48818,59.42934q-.30769.00493-.61547.01-.46172.01778-.92347.03563-.45777-.02528-.91544-.05139-.0009-.15159.00134-.30308c1.15738.19293,2.31236-.10113,3.46831-.01793a4.011,4.011,0,0,1,2.05829.306c.97469.61947.72785,1.61761.72905,2.50335q.02338,17.16193.00678,34.32391a31.232,31.232,0,0,1-.40921,7.15963c-.6369,2.857-1.06444,5.751-1.52552,8.63974-.0109-1.07329-.03122-2.1473-.03133-3.22131q-.00309-23.63483-.00588-47.26966A6.51725,6.51725,0,0,0,205.248,59.749c-.21229-.35371-.542-.29117-.83882-.3205Z" fill="#65bc38"/><path d="M100.90927,135.58492a.65371.65371,0,0,0,.652-.70082c.00075-.40895.00748-.81788.00748-1.22683q.00059-36.348-.00351-72.696a5.12536,5.12536,0,0,0-.08324-1.61214,1.03735,1.03735,0,0,0-.91464-.56724,1.148,1.148,0,0,1,.95228-.29747l.706.11264c.38735.43809.2588.91938.25891,1.364q.00927,37.96833-.002,75.93665c-.00019.53464.19818,1.14668-.3789,1.55265A2.90886,2.90886,0,0,1,100.90927,135.58492Z" fill="#9ed12b"/><path d="M163.58011,57.89123a4.27705,4.27705,0,0,0,3.16781,1.20793c.98429-.05692,1.47643.423,1.70551,1.40192a17.7828,17.7828,0,0,1,.32173,2.10693c.22051,2.00441.771,2.5518,2.75085,2.68674.12925.04668.17576.10105.14042.16358-.03736.06609-.07562.09935-.11546.09935-1.20257,1.50442-2.4573,2.96254-3.79388,4.35094a42.37474,42.37474,0,0,0-4.16626,5.20505,1.19916,1.19916,0,0,1-.33831-1.11955c.29366-5.13578.10895-10.27408.08769-15.41146A.83974.83974,0,0,1,163.58011,57.89123Z" fill="#3fad43"/><path d="M197.023,58.18872c.55131.49609.31343,1.15329.31466,1.73723q.02445,11.35815.0108,22.71639,0,22.79316-.01241,45.58632c-.00064.626.27817,1.34971-.38189,1.85615-.42113-.605-.76788-1.28479-1.5428-1.53389a1.56816,1.56816,0,0,1,.28889-.50482,3.6966,3.6966,0,0,0,.287-2.09554q.01017-21.08946.01019-42.17888c.00885-6.99419-.02878-13.98829-.00862-20.98246a8.64072,8.64072,0,0,0-.16642-2.43947,3.36151,3.36151,0,0,0,.53258-1.24815C196.42685,58.69371,196.5384,58.30087,197.023,58.18872Z" fill="#84c831"/><path d="M156.51946,160.42823v-.29861a3.77372,3.77372,0,0,0,.29756-2.386q.02011-52.39608.01313-104.79216a1.37181,1.37181,0,0,1,.94131.267,3.86991,3.86991,0,0,1,.406,2.52342q.01155,50.56317.00626,101.12634c0,.30691.00411.61394-.00433.92068a5.17721,5.17721,0,0,1-.41045,2.09131A1.23809,1.23809,0,0,1,156.51946,160.42823Z" fill="#51b53d"/><path d="M114.18146,180.78036c-.06471-.59525.47571-.70534.89383-.95052V124.51836a12.877,12.877,0,0,1,1.269,3.24751,15.95474,15.95474,0,0,1,.46786,4.25353c-.064,13.707-.04712,27.41406-.046,41.12111a17.03962,17.03962,0,0,1-.43688,3.32946,15.19744,15.19744,0,0,0-.64114,3.69187C115.221,180.54329,114.49581,180.18108,114.18146,180.78036Z" fill="#78c334"/><path d="M156.83015,52.95143a3.47675,3.47675,0,0,1,.30643,1.78845q-.00534,51.94646-.01659,103.89292c-.00022.53877.33732,1.2987-.60053,1.49682q0-52.59555.0018-105.19107a6.26592,6.26592,0,0,0-.27991-2.41546Q156.53564,52.73678,156.83015,52.95143Z" fill="#53b53d"/><path d="M157.769,159.88018c-.00719-.51145-.02064-1.02289-.02066-1.53434q-.0015-51.79652.00009-103.593c0-.51141.015-1.02283.02305-1.53431a.31692.31692,0,0,1,.28424.07094,1.58677,1.58677,0,0,1,.74027,1.57281c-.00648.6135.00161,1.2272.00161,1.84082q.00006,47.93882-.01709,95.87762a31.86747,31.86747,0,0,1-.39057,6.4029A1.04219,1.04219,0,0,1,157.769,159.88018Z" fill="#50b43d"/><path d="M158.3899,158.98358c-.00951-.716-.0273-1.4321-.02733-2.14816q-.00206-50.65023-.00476-101.30046a3.96679,3.96679,0,0,0-.30215-2.24554,1.29956,1.29956,0,0,1,1.0873.39184,1.23987,1.23987,0,0,1,.12971,1.14261c-.30738.4581.0825.91422.00405,1.37327q.01492,47.652.00437,95.30082a27.90377,27.90377,0,0,1-.27853,3.49693A7.395,7.395,0,0,1,158.3899,158.98358Z" fill="#4eb43e"/><path d="M197.01709,194.19782a4.64074,4.64074,0,0,0,.258-3.271c-.06318-.39883-.18141-.78894-.27457-1.183-.08941-.25169-.05883-.54908-.285-.74867l.00667.01409c-.2577-.25506.02376-.71383-.34951-.92523l.02151.02734a7.18011,7.18011,0,0,1,.00715-4.07095l-.01469.02094a.70524.70524,0,0,0,.33037-.33263l-.02436.02395a.98189.98189,0,0,0,.34645-.29578l-.00525.00422a1.0301,1.0301,0,0,0,.29661-.36826c-.00693-.51559-.21821-1.07556.31991-1.47272.10838-.11137.24534-.20184.27244-.37265l-.03632.02925a1.04142,1.04142,0,0,1,.54244-.29285c.63237.367.59748,1.00974.59812,1.61313q.01831,17.15354-.01106,34.307c-.00637,1.97356-.89124,3.87685-.601,5.89514.057.39633-.09219.82035.16023,1.19123a7.09729,7.09729,0,0,1,.09893,3.63054c-.2293.92051-.26891.945-1.26117,1.54576-.32944-.04849-.36725-.30027-.39224-.561a28.73247,28.73247,0,0,1-.13626-3.50759q.01186-14.6918-.00757-29.38358A11.29288,11.29288,0,0,1,197.01709,194.19782Z" fill="#81c532"/><path d="M159.00258,154.99489c-.00909-.66455-.02608-1.32911-.02612-1.99365q-.00194-48.62986-.00112-97.25972a.4105.4105,0,0,1,.61266.011q.00064,7.42092.00125,14.84184.0002,29.33924.0007,58.67848.0011,11.6088.01281,23.21766Q159.30269,153.74276,159.00258,154.99489Z" fill="#4cb33e"/><path d="M111.70818,107.6312c-.54049-.50081-.30438-1.15562-.305-1.73939q-.021-22.00052-.01208-44.00106a1.17331,1.17331,0,0,1,1.3976.1,3.23645,3.23645,0,0,1,.32173,1.78244c-.02739,12.23351.01988,24.467.02142,36.70046a6.08248,6.08248,0,0,1-.801,3.51832A7.315,7.315,0,0,0,111.70818,107.6312Z" fill="#81c732"/><path d="M205.34328,176.74423c-.00439-16.64344-.03646-33.28695.00637-49.93027.0106-4.12867-.193-8.24525-.31654-12.36706-.016-.535-.20052-1.13476.28416-1.59494v5.01027l1.5772,1.01725c1.05121.83314,1.08269,1.99651,1.07673,3.19658a15.55072,15.55072,0,0,1-.45115,3.78785.14316.14316,0,0,1-.05613.18961c-.17729.17565-.12959.44748-.27259.63779l.01091-.01962c-.24051.1851-.19752.48479-.29424.728a5.9682,5.9682,0,0,1-.58006,1.72078,10.23018,10.23018,0,0,0-.36829,6.711,7.82381,7.82381,0,0,1,.4728,2.99506c-.01742,4.49207-.00333,8.98425-.00877,13.47637-.00487,4.04862-.197,8.11782-.02559,12.13827.12535,2.94018-.2703,5.85842.01641,8.78073a4.43953,4.43953,0,0,1-.48562,2.518A2.45376,2.45376,0,0,1,205.34328,176.74423Z" fill="#65bc37"/><path d="M198.57525,223.99029c-.61932-1.47076-.30848-2.98858-.167-4.48186.04711-.4976.16822-.99674.16822-1.50669q-.00017-17.98679-.00161-35.97357c0-.24537-.02387-.49076-.03987-.80009-.25718.01942-.45242.03414-.64807.04872a18.78754,18.78754,0,0,0,.85365-8.74128,59.76354,59.76354,0,0,1-.17658-7.6439,4.56555,4.56555,0,0,1,.55968-2.34119c.49967-.05386.59238.29583.64282.66633a10.1907,10.1907,0,0,1,.036,1.37714q.002,24.97169.00147,49.94335a8.0132,8.0132,0,0,1-.29961,2.71766A14.25768,14.25768,0,0,0,198.57525,223.99029Z" fill="#7ec532"/><path d="M77.22032,71.12458c-.89334.06778-1.33483-.63156-1.993-1.21916H65.17848a1.56531,1.56531,0,0,1-.10326-1.23181c4.45638-1.04575,8.62328-3.00714,13.08206-4.05725a1.07958,1.07958,0,0,1,1.14448.11377,21.33777,21.33777,0,0,1,.21744,6.40258A5.198,5.198,0,0,1,77.22032,71.12458Z" fill="#ede91f"/><path d="M205.92888,175.74q.00759-3.45112.01683-6.90226c.00318-.76043-.16148-1.57076.75322-2.05543a3.49475,3.49475,0,0,1-.50241-3.41727,2.50733,2.50733,0,0,0-.085-1.65979,2.02055,2.02055,0,0,1,.45362-2.31486,2.8441,2.8441,0,0,1-.63915-1.93123c.0353-7.20905.02844-14.41828.03365-21.62755a3.6537,3.6537,0,0,0,1.538,1.52686,3.30753,3.30753,0,0,1,.48228,2.19508c.0069,5.20261-.00183,10.40523.00877,15.60781a6.69231,6.69231,0,0,1-.50488,2.526,14.04119,14.04119,0,0,0-.78594,7.33561c.04606.50524.12258,1.0077.185,1.51145.23189.27995.02211.679.25812.9578a.28888.28888,0,0,1,.05156.26383c.23714.28177-.00614.70775.29151.97135a.144.144,0,0,1,.04066.19c.08713.23918.06925.51257.23642.72568a.23434.23434,0,0,1,.05213.24349,5.86407,5.86407,0,0,1,.00213,2.59874.20429.20429,0,0,1-.03725.23381c-.194.19525-.14985.47867-.2607.7047a.2144.2144,0,0,1-.08593.22137,3.71225,3.71225,0,0,0-.23728.3393l.01941-.02331c-.23414.11581-.15353.43252-.36084.56546A3.33433,3.33433,0,0,1,205.92888,175.74Z" fill="#64bc38"/><path d="M112.61984,61.88538q-.61432.00258-1.22867.00528-.61419.00312-1.22837.00624l-.153-.00505-.15291.00706q-.46045-.00347-.92088-.0072-.3066-.005-.61322-.0103-.15064-.08876-.10068-.17789c.03313-.05937.06639-.08917.10021-.08917l6.44966-.0219a1.70743,1.70743,0,0,1,.46166.34253,1.65054,1.65054,0,0,1,.22895.53475c.21467,6.2346.075,12.47108.07341,18.707a1.66442,1.66442,0,0,1-.76542,1.57661,1.28523,1.28523,0,0,0-.273,1.00123q.00861,5.82081.01848,11.64161a1.20939,1.20939,0,0,0,.07772.294c.3038.44559.89895.06432,1.2247.41506.88548,1.29725-.28934,4.627-2.24541,6.39961a17.32116,17.32116,0,0,1-.24757-5.121c.10749-4.95435.06876-9.90134-.0178-14.8547-.10707-6.1283-.02316-12.25974-.03532-18.3898C113.2708,63.32883,113.37812,62.47982,112.61984,61.88538Z" fill="#7cc432"/><path d="M207.49712,59.66623a1.16576,1.16576,0,0,1,.90754.35276,2.25413,2.25413,0,0,1,.79381,2.05275q.01725,16.54511-.00229,33.09019a9.23744,9.23744,0,0,1-.4667,2.704,18.045,18.045,0,0,1-1.2071,3.41506c-.48843-.44667-.34165-1.04292-.34206-1.58562q-.015-19.21522-.00041-38.43048C207.18032,60.72026,207.03987,60.1284,207.49712,59.66623Z" fill="#5fbb3a"/><path d="M112.61984,61.88538l1.0479.073c.19265,4.17048.0581,8.25861.089,12.34237.02123,2.8023-.16463,5.63653-.0466,8.42367.175,4.13222.02284,8.25714.1349,12.38313a41.36259,41.36259,0,0,0-.01128,4.52618,7.55042,7.55042,0,0,1-.26068,2.871q-.62111.74368-1.2422,1.48724a10.79212,10.79212,0,0,0,.29943-2.71859Q112.60853,81.57938,112.61984,61.88538Z" fill="#80c532"/><path d="M116.32922,176.47q-.01241-15.5455-.02243-31.091c.00011-5.87076.02415-11.74152.03744-17.61269a6.29032,6.29032,0,0,1,.89359,2.24137c.26554.25588-.03528.72881.35844.93558l-.02138-.03125c.10678.21441.0715.49028.28492.65854l-.00757-.01384a89.10848,89.10848,0,0,1,.12336,9.72175,2.15788,2.15788,0,0,1-.41051,1.13156,3.88911,3.88911,0,0,0-.46812,1.896c.0317,3.44224.07783,6.88433.11892,10.32649.20294.13226.11739.47014.39258.55089l-.01683-.02837a55.334,55.334,0,0,1,.11359,6.52985c.06666,2.48553-.064,4.974.07654,7.45935a2.04736,2.04736,0,0,1-.19792,1.18183l.00993-.03466a.608.608,0,0,0-.35358.32706c.01482,1.80489.223,3.63242-.615,5.3383C116.53832,176.13358,116.42845,176.29916,116.32922,176.47Z" fill="#74c135"/><path d="M162.684,122.436c-.06138.79276-.67732,1.11269-1.25153,1.4682-.54674-.53206-.428-1.22756-.42879-1.87567q-.01852-15.06658-.01358-30.13317c-.00064-.71673.15534-1.419.12905-2.132a3.32091,3.32091,0,0,1,.65936-2.48548,7.23681,7.23681,0,0,1,.4097,2.69236,39.36044,39.36044,0,0,1,.49261,5.92817c.34571.81064-.10036,1.70549.2673,2.51378l.02121.31182a137.302,137.302,0,0,1,.46417,14.32254,5.87247,5.87247,0,0,1-.42591,2.38148.14238.14238,0,0,1-.04739.18554,35.96891,35.96891,0,0,0-.15454,5.16308A4.52609,4.52609,0,0,1,162.684,122.436Z" fill="#44ae41"/><path d="M95.05159,86.47907a7.04251,7.04251,0,0,1-1.78345-1.87179,13.70836,13.70836,0,0,1-.15823-3.04154c-.00356-5.29387.01154-10.58781-.01525-15.88156-.00384-.762.25276-1.70058-.83179-2.05372a4.17992,4.17992,0,0,1-1.00922-.34466.33222.33222,0,0,1-.12236-.45792c1.23012-.16618,2.56879.2833,3.66432-.64621.63-.30637.81792.14048.975.59226a4.57083,4.57083,0,0,1,.15951,1.51537c.00922,6.68365.02494,13.36742-.02187,20.05078C95.9029,85.10039,96.26557,86.14515,95.05159,86.47907Z" fill="#b6d827"/><path d="M161.43122,89.20718q.00062,17.34851.00127,34.697a21.32408,21.32408,0,0,0,.34328,5.76075c.31679,6.39677.08124,12.79776.14326,19.1965.00932.9611.07135,1.97089-1.09045,2.41428a1.07308,1.07308,0,0,1-.59433.39308,5.44987,5.44987,0,0,0,.28265-1.95308q-.02165-5.05626-.00251-10.11268a9.78651,9.78651,0,0,1,.23863-2.88046c.28175-.93365-.21583-1.87443-.18735-2.84135.05173-1.75458-.01126-3.51363-.06384-5.2697a7.13736,7.13736,0,0,1,.31542-2.25452c-.32679-11.21211-.06311-22.42685-.15254-33.64a12.921,12.921,0,0,1,.15254-2.28176v-.307C161.19262,89.93506,160.63393,89.11907,161.43122,89.20718Z" fill="#47b040"/><path d="M208.72948,97.866q-.01129-17.876-.023-35.752a3.91721,3.91721,0,0,0-.30178-2.095,1.24131,1.24131,0,0,1,.94426.52509,3.12444,3.12444,0,0,1,1.05433,2.58115c-.03781,9.8533.00045,19.70672-.00963,29.5601a7.58253,7.58253,0,0,1-.44545,2.39175A11.42666,11.42666,0,0,1,208.72948,97.866Z" fill="#5bb83a"/><path d="M143.93209,161.97143c.46923.39984.30105.946.30142,1.43552q.0128,16.54428.00057,33.08856c-.00034.489.16258,1.03924-.34006,1.417a6.036,6.036,0,0,1-1.29517-2.42319,58.05782,58.05782,0,0,1,.116-7.72094l-.08105-.58475c-.25055-6.57684-.04975-13.15627-.11726-19.73413a10.11811,10.11811,0,0,0,.12825-2.12845A13.25848,13.25848,0,0,1,143.93209,161.97143Z" fill="#7cc432"/><path d="M195.82239,60.34975c.33352.05492.57511.20879.58677.58178.01278.40837.01765.81714.01765,1.22573q.00117,32.27148,0,64.54295c0,.40857-.00375.81743-.01915,1.22564-.01417.37382-.25538.52589-.59561.565a2.31152,2.31152,0,0,1-.42885-1.73857c-.02342-13.49908.02515-26.9982-.02769-40.49725a20.2442,20.2442,0,0,0,.181-3.18088c-.07333-.85832.41064-1.62829.38921-2.4975-.06847-.41971-.54558-.53413-.7243-.88791.27041-5.75305.06363-11.50947.11827-17.26406a9.48,9.48,0,0,1,.09425-1.826A.49343.49343,0,0,1,195.82239,60.34975Z" fill="#86c931"/><path d="M95.05159,86.47907c.47365-.31.37468-.79939.37493-1.24632q.00589-10.93882.00024-21.87765c-.00022-.49513.11638-1.072-.63115-1.17343l1.75192-1.27694c1.0832.2126.86047,1.09385.86349,1.795.02316,5.35174.01188,10.7036.012,16.05542.00006,2.54848.02707,5.0974-.01889,7.64516-.01148.63725.20875,1.505-.85974,1.63168A7.10806,7.10806,0,0,1,95.05159,86.47907Z" fill="#b1d628"/><path d="M92.05092,63.11238c.44918.03437.92084-.09936,1.33821.17339a1.7016,1.7016,0,0,1,.19407,1.18264q.009,9.35368-.00226,18.70737c-.00079.4897.16756,1.03778-.3128,1.4315a6.08156,6.08156,0,0,1-1.83728-3.37962c.14729-5.49986-.458-11.00016.0101-16.50008C91.492,64.12757,91.38093,63.47491,92.05092,63.11238Z" fill="#bcda26"/><path d="M193.643,103.322l.8966-.58786a59.33441,59.33441,0,0,1-.21907-10.68239,24.72368,24.72368,0,0,1,.57687-4.99208c.98886.26076.58523,1.08187.5877,1.65087.03174,7.29172.02065,14.58361.02046,21.87546-.00015,5.40514.01484,10.81038-.0199,16.21532-.00371.57788.35,1.5592-.90574,1.4a2.12271,2.12271,0,0,1-1.36355-1.19586c.40617-.2694.65073.11064.93976.23062a2.95086,2.95086,0,0,1-.32816-2.03461q-.01-9.8769-.00809-19.75382A6.7382,6.7382,0,0,0,193.643,103.322Z" fill="#8bca2f"/><path d="M142.64481,165.321c.46863.31371.36382.80242.36414,1.24705q.00682,9.68675.0003,19.37349c-.00028.44579.09754.93363-.3754,1.242a8.15408,8.15408,0,0,1-1.5005-2.99228,48.76669,48.76669,0,0,1,.02321-14.58264A17.47783,17.47783,0,0,1,142.64481,165.321Z" fill="#80c532"/><path d="M123.087,69.0213a8.55257,8.55257,0,0,0-.16154,3.75818,16.25228,16.25228,0,0,1-.42284,7.3236,1.56242,1.56242,0,0,1-1.99224.24662,53.59589,53.59589,0,0,0,.20678-8.24065c.00235-3.41134.16717-6.82686-.132-10.23487a2.57109,2.57109,0,0,1,2.11553-.63032.86911.86911,0,0,1,.31185-.13414l.35171-.08253a.9147.9147,0,0,1,.21836.51286c-.07328,1.76041-.06829,3.52269-.05319,5.28454A4.67066,4.67066,0,0,1,123.087,69.0213Z" fill="#66bc37"/><path d="M199.5043,217.25491q-.00348-26.42075-.01918-52.84148c-.0006-.62662.273-1.34428-.36144-1.863a1.75392,1.75392,0,0,1,.59531-1.234c.58306.40127.38208,1.01372.38433,1.548.01529,3.62829.00656,7.25665.00828,10.885q.00978,21.00331.02125,42.0067A3.23939,3.23939,0,0,1,199.5043,217.25491Z" fill="#7bc433"/><path d="M205.35647,207.78781q.006-15.13589.01192-30.27208a4.69912,4.69912,0,0,1,.58076,2.6313,45.38417,45.38417,0,0,0,.28151,6.40144c.11425.65042.21986,1.30324.36319,1.94744a4.77107,4.77107,0,0,1,.1481,1.6643,37.28265,37.28265,0,0,0,.01008,7.31315,27.3128,27.3128,0,0,1-.1605,7.75983A4.33791,4.33791,0,0,1,205.35647,207.78781Z" fill="#66bb37"/><path d="M142.66469,55.11022q.17111.02806.34218.05644.00255,16.71455-.00283,33.42848c-.00043.5346.202,1.14388-.35673,1.56275l-.87427-.94529a9.46145,9.46145,0,0,1-.14109-2.133q.002-14.782.00117-29.564a5.60637,5.60637,0,0,0-.23052-2.11475A1.76072,1.76072,0,0,1,142.66469,55.11022Z" fill="#80c532"/><path d="M197.01709,194.19782c.4474.33581.32734.82646.32753,1.271q.00741,15.932-.00008,31.864c-.00022.44438.12134.935-.32377,1.27275a5.34358,5.34358,0,0,1-.9337-2.1433c-.1104-10.35738-.114-20.715-.06408-31.07268A2.3522,2.3522,0,0,1,197.01709,194.19782Z" fill="#84c831"/><path d="M141.4026,55.40079c.39006.06608.669.24517.67728.68529q.01152.6123.01085,1.22482.00084,15.08269-.01023,30.16537c-.00087.5831.23436,1.23742-.30746,1.73634a2.33784,2.33784,0,0,1-.99641-.56593,72.13722,72.13722,0,0,1,.16232-11.4806c.22835-2.06712-.23651-4.06815-.23084-6.10527.01241-4.4494-.01066-8.899.01737-13.3482a2.22524,2.22524,0,0,0-.82086-2.00215A2.578,2.578,0,0,1,141.4026,55.40079Z" fill="#81c732"/><path d="M161.43122,89.20718c-.39209.18205-.22188.739-.614.92107-.09916-1.23434-.26507-2.46786-.28049-3.70325-.01923-1.53771.09046-3.0699.05257-4.61733-.06543-2.67248-.14766-5.35179-.09153-8.03052.05661-2.70031.01173-5.40274.01273-8.10424a25.96263,25.96263,0,0,1,.077-4.87937c.26186-1.34461-.15376-2.59851-.00051-3.89353a1.25232,1.25232,0,0,0-.23091-.96828,1.087,1.087,0,0,0-.76808-.17932q-.30633-.00531-.61266-.01089c.00965-.3349-.0549-.69384.29735-.91767l.07982.47382c.53213.322,1.26006-.0125,1.77172.44433a2.11446,2.11446,0,0,1,.79821,2.03542c.02067,6.48449.0448,12.96927-.01723,19.45331-.014,1.46655-.29106,2.93127-.44334,4.39722-.1124,1.89573.29627,3.76228.31651,5.6503Q161.60493,88.24242,161.43122,89.20718Z" fill="#47b040"/><path d="M139.90462,55.71046a2.55728,2.55728,0,0,1,1.0544.18731c.32276.39122.20594.86965.20624,1.31639q.00969,14.94139-.00214,29.88279c-.00052.53587.18861,1.14586-.38647,1.5497a1.49641,1.49641,0,0,1-1.139-.67277,19.21826,19.21826,0,0,1,.28926-7.09974c.21272-1.34811.66374-2.64561.81039-4.01065a9.91664,9.91664,0,0,0-.55142-4.69231c-.73792-.32977-1.53.0949-2.12344-.44894a1.40123,1.40123,0,0,1,.96859-.469c1.01627-.359.71749-1.26112.72388-1.95379q.055-5.96522.01-11.93131a3.61061,3.61061,0,0,1,.15206-1.65719Z" fill="#84c831"/><path d="M209.94817,95.0771c-.00446-8.16141.037-16.32326-.04055-24.484-.024-2.53237.03781-5.06176.045-7.59231a4.37222,4.37222,0,0,0-.60371-2.4565,2.16248,2.16248,0,0,1,1.1965,1.04161,4.45951,4.45951,0,0,1,.7795,2.73876Q211.29759,77.4153,211.319,90.506a7.09309,7.09309,0,0,1-.46374,2.69046A5.09194,5.09194,0,0,1,209.94817,95.0771Z" fill="#58b73c"/><path d="M160.82858,151.27575a2.25554,2.25554,0,0,0,.60961-1.93966c-.01237-5.91568-.005-11.8314-.00965-17.74712a3.38964,3.38964,0,0,1,.34714-1.92383,11.47185,11.47185,0,0,1,.89933,2.78918c.25387.26777-.02574.72333.3355.9533l-.01684-.0245a12.2818,12.2818,0,0,1,.43024,3.61013c.0014,3.40106-.02528,6.80242.01585,10.203a4.65332,4.65332,0,0,1-.75416,2.87666.91715.91715,0,0,1-.953,1.09976C161.43058,151.19913,161.12989,151.24091,160.82858,151.27575Z" fill="#44af41"/><path d="M95.099,107.9102a17.82653,17.82653,0,0,1,1.25166-3.65888c.2899-.249.03982-.67253.30078-.93089l-.00142.00349c.84945.16409.75489.86851.75727,1.4413q.03812,9.16135-.00038,18.32286c-.00245.57175.09176,1.2784-.76341,1.43369a4.5735,4.5735,0,0,1-1.60568-1.80747C94.89261,117.77892,94.84389,112.84394,95.099,107.9102Z" fill="#b1d628"/><path d="M195.414,60.59861c.47614.30151.39726.78658.39748,1.237q.0046,8.33369-.00195,16.66738c-.00056.48464.14742,1.07523-.60805,1.18576q-.92994-.45714-1.85986-.91427a6.84141,6.84141,0,0,0,.46378-2.68529c-.017-4.23068-.0051-8.46149-.00982-12.69223a7.47326,7.47326,0,0,1,.19063-2.12219A1.88176,1.88176,0,0,1,195.414,60.59861Z" fill="#8ac92f"/><path d="M194.57991,128.20132c.32872-.05649.584-.1977.59838-.57353.01563-.40854.02043-.81771.02047-1.22661q.00145-18.79683-.00979-37.59363c-.00067-.58576.23092-1.23818-.29158-1.74786a13.50271,13.50271,0,0,1,.63915-3.98558c.46157.47114.26828,1.06523.26865,1.60466q.015,21.90618.00686,43.8122-.20022.02976-.40059.05991A.92113.92113,0,0,1,194.57991,128.20132Z" fill="#89c930"/><path d="M161.46187,81.628q-.01532-11.97945-.03028-23.95891a3.41632,3.41632,0,0,0-.30736-1.927,2.15792,2.15792,0,0,1,1.57347,1.119,5.45745,5.45745,0,0,1,.46237,2.53454c-.07957,4.84534.0038,9.691-.02844,14.53654a10.6259,10.6259,0,0,1-.47262,2.99294C162.13067,78.45976,161.84126,80.05531,161.46187,81.628Z" fill="#44af41"/><path d="M210.85526,93.19647q.00027-14.60429.00813-29.20856a7.16145,7.16145,0,0,0-.318-2.402,3.51783,3.51783,0,0,1,1.2604,1.75107,10.67371,10.67371,0,0,1,.43874,3.3144q-.02642,10.712-.00532,21.424a9.7114,9.7114,0,0,1-.45092,3.31249A4.84313,4.84313,0,0,1,210.85526,93.19647Z" fill="#55b63d"/><path d="M119.98823,80.30275l-1.835.267a2.87949,2.87949,0,0,1-.19985-1.49083c.01074-4.87689-.00931-9.75382.01308-14.63064.00364-.7941-.15-1.6458.5003-2.3099.50355.01466.7606.48107,1.1825.64538.86673.13055.79334.86033.8014,1.41915.0706,4.89409.05437,9.78878.01628,14.68324A2.01248,2.01248,0,0,1,119.98823,80.30275Z" fill="#6ebf37"/><path d="M196.023,195.38958c.4863.29477.40217.782.40228,1.23087q.00433,14.36575.00064,28.73149c-.00008.40142.06265.8285-.33884,1.11032a14.86439,14.86439,0,0,1-1.51293-5.53757,5.74469,5.74469,0,0,1,1.42277-4.69506,54.02491,54.02491,0,0,0-.47659-5.75218c-.26063-3.74366-.17324-7.4931-.19524-11.241a17.0053,17.0053,0,0,1,.2341-3.17184A.97872.97872,0,0,1,196.023,195.38958Z" fill="#86c831"/><path d="M96.54436,88.032c.49535-.287.41766-.77475.41781-1.226q.00408-12.33618.00008-24.67236c-.00015-.45162.0762-.93859-.41469-1.22887a1.14325,1.14325,0,0,1,.75362-.54929.579.579,0,0,1,.56943.59467q.01434.53542.01411,1.07121.0011,12.93717-.00787,25.87432c-.00075.54.19029,1.13206-.25952,1.60794Z" fill="#add529"/><path d="M207.49712,59.66623q-.007,20.50193-.01229,41.00384c0,.20352.02439.407.03747.61077a5.16733,5.16733,0,0,1-.634,2.11445q-.01162-18.56739-.02316-37.13516c-.001-1.73914-.00847-3.47834.00458-5.21739a3.16612,3.16612,0,0,0-.308-1.63415A1.07945,1.07945,0,0,1,207.49712,59.66623Z" fill="#62bb39"/><path d="M213.31133,66.48922a13.726,13.726,0,0,1,1.23738,3.04419,7.37167,7.37167,0,0,1,.66014,3.6961c-.31467,3.852-.16942,7.71022-.22657,11.56518a4.33323,4.33323,0,0,1-.405,1.75345,7.30378,7.30378,0,0,1-1.25424,2.07621c-.55615-.52781-.43744-1.22512-.4389-1.874q-.02063-9.19056-.00026-18.38116C212.88529,67.71965,212.768,67.02388,213.31133,66.48922Z" fill="#4db33e"/><path d="M193.98618,61.27472c.3744.30794.28986.73787.29005,1.13745q.0041,7.74132-.003,15.48264a4.04239,4.04239,0,0,1-.05741.52035c-.24886.386-.57972.32063-.87419.35927a.69034.69034,0,0,1-.63195-.21261,3.522,3.522,0,0,1-.46921-2.19492q-.00843-6.17382.00142-12.34762a3.23542,3.23542,0,0,1,.48581-2.18392C193.12091,61.5895,193.637,61.6194,193.98618,61.27472Z" fill="#90cb2e"/><path d="M114.77059,82.75331a3.38757,3.38757,0,0,0,.30588-1.92892q0-9.47125,0-18.9425a1.2,1.2,0,0,1,.81172-.14392.68664.68664,0,0,1,.69158.42969,3.57376,3.57376,0,0,1,.18056,1.51034q.0063,7.97274.00568,15.94548a4.13824,4.13824,0,0,1-.46035,2.21888A2.07227,2.07227,0,0,1,114.77059,82.75331Z" fill="#78c334"/><path d="M154.32567,215.10031a13.78847,13.78847,0,0,1,.99721,3.23014c.07409.333.41255.2744.6159.41595l-.026-.02c.90959.25038,1.07061.96159,1.05272,1.75686a28.09017,28.09017,0,0,1-.4183,4.15569l.01778-.02311c-.35542.23357-.10128.67042-.3169.9506l.0184-.02606c-.37076.2202-.10034.67-.33595.93855l.014-.02252c-.35226.21554-.06363.67268-.34487.915a4.41224,4.41224,0,0,1-.66623,1.7077.94821.94821,0,0,1-.86982.13077,45.50622,45.50622,0,0,1-.13914-6.25156c-.04357-2.2465-.02637-4.49475.0062-6.74163C153.93615,215.83626,153.63283,215.26758,154.32567,215.10031Z" fill="#59b73b"/><path d="M117.58384,170.326a6.90292,6.90292,0,0,1-.36977-2.39177q.04029-5.19415.00039-10.38876a6.56271,6.56271,0,0,1,.37684-2.39019,2.36675,2.36675,0,0,1,.8718,1.26371c.16854.17923.09564.48819.3374.62808l-.01512-.0228c.1367.19744.08379.49213.32581.63557l-.0166-.02305c.80413,3.17352.41748,6.39419.37094,9.60032-.0125.86076-.64358,1.47675-.97288,2.213A1.41674,1.41674,0,0,1,117.58384,170.326Z" fill="#71c135"/><path d="M214.5773,86.54814c.01739-1.70837.09069-3.41845.03894-5.12473a65.38018,65.38018,0,0,1,.16732-7.38461,36.35382,36.35382,0,0,0-.23485-4.50534c.66662.90224.98035,2.01153,1.75261,2.87358.07652,1.60833-.48439,3.27048.40026,4.79352a14.67144,14.67144,0,0,1-.32546,6.46525A11.66963,11.66963,0,0,1,214.5773,86.54814Z" fill="#49b03f"/><path d="M211.78832,91.3879q.00871-14.02528.01746-28.05074a4.02862,4.02862,0,0,1,.92631,1.82385,7.01977,7.01977,0,0,1,.27442,2.25993q-.00686,10.08318.008,20.16633a5.05751,5.05751,0,0,1-.59013,2.63755A2.10946,2.10946,0,0,1,211.78832,91.3879Z" fill="#52b53d"/><path d="M95.099,107.9102c.38326.28943.32894.711.32911,1.11178q.00276,6.23123-.00127,12.46243c-.00045.44545.08909.93059-.389,1.22988A8.03437,8.03437,0,0,1,93.24,118.09416a19.4259,19.4259,0,0,1,1.53232-9.24782c.352-.22727.0884-.67228.33172-.938Z" fill="#b5d727"/><path d="M116.30366,61.88472l-.61322-.00283q-.15135-.09391-.101-.188c.03339-.06263.06689-.094.10086-.094a4.22846,4.22846,0,0,1,2.77651.5386q-.00675,8.25144-.015,16.503a3.24616,3.24616,0,0,1-.29852,1.92839l-1.22061.73013a2.47439,2.47439,0,0,1-.15891-1.49182c-.00837-5.35768-.002-10.71539-.01068-16.07307C116.762,63.08745,116.91474,62.38708,116.30366,61.88472Z" fill="#72c135"/><path d="M207.48382,157.68735l.01383-20.32889a1.64446,1.64446,0,0,1,1.2086.668,3.57634,3.57634,0,0,1,.50035,2.04994c.01821,4.584.03009,9.16828-.078,13.7511a7.38424,7.38424,0,0,1-.38714,2.09849A5.21529,5.21529,0,0,1,207.48382,157.68735Z" fill="#5fbb3a"/><path d="M96.64348,124.52177c.43857-.34082.31639-.82975.31682-1.27322q.009-9.32389,0-18.64779c-.00043-.44366.12192-.93184-.31026-1.27683a17.66571,17.66571,0,0,1,.94381-3.36737c.41454.35921.28672.84746.28707,1.29241q.00925,11.5019.00152,23.00381c-.00019.399.09415.82745-.24632,1.15807A2.10886,2.10886,0,0,1,96.64348,124.52177Z" fill="#add529"/><path d="M190.469,77.88657a1.05529,1.05529,0,0,1-.8906-.2866c-.09177-4.31873-.23069-8.63783.0983-12.95336a3.93292,3.93292,0,0,1,1.47972-2.17972c.71961.03429.78245.62444.79415,1.0984.10972,4.449.1316,8.899-.00776,13.34808a1.42456,1.42456,0,0,1-.41128.92838A1.05657,1.05657,0,0,1,190.469,77.88657Z" fill="#9acf2c"/><path d="M193.643,103.322c.3213.05971.58913.18464.61113.56207.01776.30518.02357.61142.0236.9172q.0018,10.868-.00056,21.736c0,.249-.02124.498-.032.73371-.44474.169-.66535-.30082-1.02858-.26558a.315.315,0,0,1-.20262-.32432,125.13613,125.13613,0,0,1,.05707-13.82811c.06389-.53356.12775-1.06713.1958-1.63539l-.88779-.49524c.68558-1.11813.49031-2.36406.53235-3.57956a17.0801,17.0801,0,0,1,.12951-3.51043A.63488.63488,0,0,1,193.643,103.322Z" fill="#8fcb2e"/><path d="M104.61735,168.66515q-.00778,16.83273-.01547,33.666a7.0491,7.0491,0,0,1-.52762-2.95207c-.03127-1.16543-.00284-2.33244-.00046-3.49876.0002-.10142.00558-.20329-.00169-.30422a61.36843,61.36843,0,0,1-.35817-9.34587c-.31167-4.18217-.09223-8.37068-.14814-12.5559a5.0392,5.0392,0,0,1,.22541-1.50328c.0792-.26944-.26316.06514-.37883-.06787C103.28857,170.773,104.09649,169.76937,104.61735,168.66515Z" fill="#96cc2c"/><path d="M119.98823,80.30274q0-7.97155-.00852-15.94309c-.00143-.53577.20181-1.14074-.33043-1.57582l.93585-.90962c.74447.10279.62709.6777.62829,1.17152q.00857,3.50891.00275,7.01783c0,3.30211,0,6.60421,0,9.74121a.91162.91162,0,0,1-.70567.54482Q120.24922,80.32627,119.98823,80.30274Z" fill="#6abe37"/><path d="M163.604,134.89488a26.414,26.414,0,0,1,2.62312,7.14634c.47556,2.6498.02575,5.09095-2.30169,6.84807-.54139-.45495-.48311-1.08771-.49338-1.69474-.06552-3.87087.11892-7.74394-.10195-11.61356A.86865.86865,0,0,1,163.604,134.89488Z" fill="#3eac42"/><path d="M92.05092,63.11238c-.10176,1.38557-.27817,2.77043-.2913,4.15685-.03911,4.12543-.00669,8.25151-.023,12.37725-.00214.53473.20325,1.1346-.30577,1.58119a3.52836,3.52836,0,0,1-.33359-2.07214c-.02374-.96621.00916-1.93493.04868-2.90132a4.01585,4.01585,0,0,0-1.26128-3.29786,70.281,70.281,0,0,1-.02595-9.37187,1.24224,1.24224,0,0,1,.25632-.47861.9145.9145,0,0,1,1.01659.00415Z" fill="#c1db25"/><path d="M103.41238,172.10317c.37946-.17441.19627-.64252.61263-1.03972v1.25339c0,4.11188.00719,8.22377-.00883,12.33559-.00208.53353.2,1.13048-.30224,1.57779l.00082.00206c-.16753-.17036-.1131-.43988-.27391-.61326-.72169-1.1484-1.85754-1.93861-2.63059-3.04259.44656-.39752.79124.244,1.22375.13767.07676-2.64446-.09519-5.27421.1138-7.89785Z" fill="#9bce2c"/><path d="M190.469,77.88657c.29541-.0512.61836-.00381.87768-.25287a1.48275,1.48275,0,0,0,.16514-1.01641q.00866-6.36823-.00187-12.73647c-.00116-.49069.15724-1.042-.35353-1.41392a1.67857,1.67857,0,0,1,1.57124-.63154l-.018,16.72642A6.45836,6.45836,0,0,1,190.469,77.88657Z" fill="#95ce2e"/><path d="M162.659,76.92505q.01931-10.03175.03863-20.06375a2.459,2.459,0,0,1,.88247,1.02993,21.04985,21.04985,0,0,1,.1748,2.82426c.03163,3.89938-.16631,7.80053.08342,11.70077.05662.88431-.36747,1.77612-.24752,2.69737A7.3861,7.3861,0,0,1,162.659,76.92505Z" fill="#42ae41"/><path d="M209.63271,138.92768a3.54846,3.54846,0,0,1,1.24541,1.8011c.1436.203.08135.503.3132.66435l-.01064-.01771c.1451.18869.097.46.27187.636a.17827.17827,0,0,1,.05258.21256c.2061.30571-.035.74617.3047,1.01162l-.01319-.01955a19.21435,19.21435,0,0,1-.01245,6.79366l.004-.00926c-.30664.23218-.04114.66818-.32373.90893l-.003.00755c-.1768.167-.12212.44713-.29982.61367l-.00083.00175a.69923.69923,0,0,0-.268.43663c-.29938.75-1.08682.23322-1.53684.59219.13625-3.69861.08094-7.39887.109-11.09845C209.47143,140.61969,209.11955,139.74029,209.63271,138.92768Z" fill="#58b63c"/><path d="M139.917,55.71093a2.6389,2.6389,0,0,1,.33768,1.31465q-.01857,6.9697-.01731,13.93948a2.32738,2.32738,0,0,1-.07564.425c-.3127.42129-.75075.27721-1.14174.31171a1.94782,1.94782,0,0,1-.45187-1.41173c.02891-4.76544-.0834-9.53146.05825-14.29644A1.90947,1.90947,0,0,1,139.917,55.71093Z" fill="#88c930"/><path d="M209.63271,138.92768a8.25933,8.25933,0,0,1,.30931,2.546c-.01825,3.096-.03166,6.19252.01136,9.288a2.70689,2.70689,0,0,1-.59749,1.79914,3.57,3.57,0,0,1-.61442,3.36492q-.01758-8.94945-.03522-17.89932A1.73858,1.73858,0,0,1,209.63271,138.92768Z" fill="#5bb83a"/><path d="M195.55918,196.06464a1.06154,1.06154,0,0,1,.25411.85078q-.00057,6.2886-.00023,12.57719c0,.35659.031.72386-.29274.98486a38.229,38.229,0,0,1-1.55205-9.42564A8.35873,8.35873,0,0,1,195.55918,196.06464Z" fill="#88c62f"/><path d="M88.01717,72.33673c-.80674-.1169-1.09523-.99831-1.82095-1.23473.79683-1.42832.41326-2.98175.40438-4.47574-.00581-.97438.14819-1.91671.222-2.87355.02728-.35363.10849-.71859.56546-.79114.56546.05939,1.15408-.14385,1.69509.1638a5.24657,5.24657,0,0,1,.37309,2.8461c-.124,2.07337.21411,4.17168-.22778,6.126A.92742.92742,0,0,1,88.01717,72.33673Z" fill="#cbde23"/><path d="M116.30366,61.88472l.6975.10712a1.81177,1.81177,0,0,1,.22046,1.24111q.00823,8.13548.00938,16.27093a4.17317,4.17317,0,0,1-.29836,1.796,1.03688,1.03688,0,0,1-.627.54251Q116.30469,71.86354,116.30366,61.88472Z" fill="#75c235"/><path d="M102.14781,174.81625a1.08633,1.08633,0,0,1,.34208.96576c-.00123,2.5491-.00063,5.09818-.00063,7.72242-.7824.00167-.99405-.9147-1.67875-.928a3.45283,3.45283,0,0,1-.90768-4.252,7.358,7.358,0,0,1,1.5651-2.56421c.28448-.08691.23014-.41685.41331-.57643l.00437-.007c.08981-.12045.24551-.19037.27416-.3577Z" fill="#9fcf2b"/><path d="M185.68645,66.52136a7.85135,7.85135,0,0,0,2.66169-.39313c.84346-.00259.82326.69862.844,1.19679q.17446,4.20471-.00079,8.41273c-.02443.57387.02837,1.46588-1.06767,1.19434a1.87649,1.87649,0,0,1-1.19436-.93586c-.35821-2.276-.05115-4.5679-.16867-6.84889-.0374-.7248.19955-1.57318-.69473-2.01438C185.84444,66.98777,185.64156,66.83079,185.68645,66.52136Z" fill="#a4d22b"/><path d="M117.56508,142.41c-.01086-2.91567.00064-5.83169-.04815-8.74671-.01235-.73765.3661-1.38356.33526-2.10656a25.36973,25.36973,0,0,1,1.91124,5.26548,3.26981,3.26981,0,0,1-.38151,2.63172,7.34572,7.34572,0,0,0-.976,2.5295Z" fill="#70be35"/><path d="M193.07107,112.85305c.36556.30992.2839.73646.28428,1.13445q.00561,5.71766-.00143,11.43532c-.00075.4431.11422.93166-.33992,1.25834a6.22924,6.22924,0,0,1-1.18878-3.71027,28.441,28.441,0,0,1,.7612-8.19968A5.67216,5.67216,0,0,1,193.07107,112.85305Z" fill="#91ca2e"/><path d="M145.43861,118.899q-.00294,9.32217-.00584,18.645a30.24448,30.24448,0,0,1-1.11942-7.1948,34.65053,34.65053,0,0,1,.85191-10.7542A5.11617,5.11617,0,0,1,145.43861,118.899Z" fill="#76be33"/><path d="M132.4776,57.53968a4.42369,4.42369,0,0,1,2.14766-.62491c.9061.034.84024.77855.8606,1.32415.09442,2.52887.10429,5.06134-.00479,7.58951-.02717.63.00322,1.52919-1.1286,1.2976l-.8571-.04053a2.788,2.788,0,0,1-.47078-2.026c-.01687-1.72847-.00411-3.45712-.00688-5.18569A4.047,4.047,0,0,0,132.4776,57.53968Z" fill="#9acf2c"/><path d="M188.12363,76.93209a.64274.64274,0,0,0,.62428-.71551q-.00978-4.73373-.017-9.46744a.74291.74291,0,0,0-.38275-.62089q.66423-.74083,1.32852-1.48164c.46594.40256.29521.94867.2972,1.43894q.02,4.98369-.00019,9.96749c-.00228.53691.18512,1.14736-.39527,1.5469A2.21938,2.21938,0,0,1,188.12363,76.93209Z" fill="#9ed02b"/><path d="M183.53553,66.78919a.18706.18706,0,0,1,.25018-.05131,1.7504,1.7504,0,0,1,.5286,1.51686q.05835,3.337-.001,6.67448a1.76932,1.76932,0,0,1-.7814,1.7024,2.78533,2.78533,0,0,1-2.19829.00942,2.61316,2.61316,0,0,0,.51785-1.37892c-.00862-2.12367-.0287-4.248.01121-6.37115a3.56157,3.56157,0,0,0-.57369-1.52684,1.6315,1.6315,0,0,1,1.18193-.303C182.80554,66.89132,183.22956,67.07137,183.53553,66.78919Z" fill="#b6d727"/><path d="M193.04094,103.63243c.09859.16851.28143.33623.283.50563.01956,2.10768.01278,4.2156.01278,6.17191a1.16629,1.16629,0,0,1-.9576.41243,1.57909,1.57909,0,0,1-1.18747-.58023c-.08361-.15351-.17381-.2991-.37448-.312l.01308.03366a5.67909,5.67909,0,0,1,.029-4.43893l-.01829.02691a.45084.45084,0,0,0,.3258-.35367l-.03238.03954a.45884.45884,0,0,0,.34671-.38126A2.9228,2.9228,0,0,1,193.04094,103.63243Z" fill="#94cc2e"/><path d="M129.76281,58.485a3.18457,3.18457,0,0,1,1.58452-.59392c.56243-.29192,1.143-.14961,1.18968.43755.23386,2.93931.68278,5.89741-.26913,8.80386a7.74552,7.74552,0,0,1-3.07045.25764c-.02438-.07973-.04877-.15946-.07366-.23863a1.0077,1.0077,0,0,1,.34056-.3492,1.21923,1.21923,0,0,0,.7877-1.02119c.06465-2.06349.1039-4.12751-.02314-6.19008C130.20332,59.17585,129.88014,58.87029,129.76281,58.485Z" fill="#a3d12b"/><path d="M212.4244,90.22482a11.90092,11.90092,0,0,0,.277-3.17665q.00653-10.94328.03062-21.88686a2.23777,2.23777,0,0,1,.57927,1.32791l.01169,22.13509A3.57622,3.57622,0,0,1,212.4244,90.22482Z" fill="#50b33d"/><path d="M138.62637,55.99363c.61354.45143.38323,1.11392.38529,1.69189.01675,4.67208.00878,9.34426.00833,14.01635q-.47874.01011-.95749.02036a.54478.54478,0,0,1-.56565-.32561c.32395-4.57193.05831-9.15009.15531-13.72412.01224-.57759-.34472-.92592-.5728-1.36315A3.20879,3.20879,0,0,1,138.62637,55.99363Z" fill="#8bca2f"/><path d="M123.39147,61.22428a.52446.52446,0,0,0-.027-.19714c.30286-.257.60591-.514,1.01014-.85674a5.24354,5.24354,0,0,0,2.03248-.44828c.72578-.299.95645.22865,1.00432.72888a15.09814,15.09814,0,0,1-.10157,5.1135c-.46668.598-.95783.41543-1.3926.45825-.91723.10168-1.07484-.59217-1.24458-1.23175A12.44235,12.44235,0,0,0,123.39147,61.22428Z" fill="#b5d627"/><path d="M134.35247,67.126c.39655-.062.66823-.24979.668-.69065q-.00251-4.44787-.01166-8.89575a.75065.75065,0,0,0-.38343-.62478,1.70666,1.70666,0,0,1,1.19937-.29639.42833.42833,0,0,1,.54845.08568,1.08992,1.08992,0,0,1,.25339.54531c.17223,3.5935.10293,7.18867.03234,10.78282-.0083.42316-.10209.95029-.75534.93472C135.36246,68.37362,135.26673,67.4049,134.35247,67.126Z" fill="#95cc2e"/><path d="M136.25619,56.68024l-.4311-.06174a1.77821,1.77821,0,0,1,1.25446-.30906c.29031.0598.61322.01317.85665.26409a1.23564,1.23564,0,0,1,.16039.86514c.00449,4.20759.01051,8.41522-.00561,12.62274-.00193.5044.25158,1.18155-.59413,1.33522a1.754,1.754,0,0,1-1.00322-1.21106,7.48377,7.48377,0,0,0,.2266-2.85538q.02769-4.487.0015-8.97424C136.71909,57.76,136.84541,57.11771,136.25619,56.68024Z" fill="#8dca2e"/><path d="M141.15656,169.60864q-.01158,7.291-.02319,14.58234a13.49921,13.49921,0,0,1-1.38747-6.20409A21.05125,21.05125,0,0,1,141.15656,169.60864Z" fill="#81c330"/><path d="M77.22032,71.12458h1.97217V65.03607a1.3775,1.3775,0,0,0-1.03516-.4197,5.43153,5.43153,0,0,1,2.45392-.62418c.54556-.1267.71959.18121.743.64694a61.24612,61.24612,0,0,1-.04581,6.45972A7.38655,7.38655,0,0,1,77.22032,71.12458Z" fill="#e4e720"/><path d="M163.604,134.89488c.56473,3.68672.16556,7.398.28054,11.09628.03.9653.028,1.93159.04083,2.89778q-.61986.592-1.2398,1.18365a10.07889,10.07889,0,0,0,.28411-3.03042q.00152-6.82935.02389-13.65889A2.49428,2.49428,0,0,1,163.604,134.89488Z" fill="#41ad42"/><path d="M81.30841,71.09885a6.92663,6.92663,0,0,1-.21034-3.67258,3.60006,3.60006,0,0,0-.02672-1.18983,3.27092,3.27092,0,0,1,.02827-1.93267l-.48832-.31156a2.42212,2.42212,0,0,1,1.50107-.30316,1.41344,1.41344,0,0,1,1.04072-.00295c-.078,2.32417.66771,4.70459-.18516,7.079-.29057.29843-.736.04756-1.04149.29432Z" fill="#dee421"/><path d="M129.76281,58.485l.85422.13448v8.20774c-.393.436-.9355.21485-1.41925.27443a1.22371,1.22371,0,0,1-.41783-.95487,59.02227,59.02227,0,0,1,.10755-7.33659A1.03194,1.03194,0,0,1,129.76281,58.485Z" fill="#a9d42a"/><path d="M118.49265,169.45011c.76932-1.51827.56239-3.15512.573-4.76394.01546-2.34965.0197-4.69936.02884-7.04921a10.75567,10.75567,0,0,1,.49584,10.36986A3.30557,3.30557,0,0,1,118.49265,169.45011Z" fill="#6dbd36"/><path d="M82.84,70.76273a55.22888,55.22888,0,0,0-.04619-7.01116l-.68112-.06251a3.34547,3.34547,0,0,1,1.86365-.30366c.47868-.20992.85129-.09383.85239.45556a57.44629,57.44629,0,0,1,.17529,6.382.71823.71823,0,0,1-.48581.703C83.95857,70.867,83.3711,71.10417,82.84,70.76273Z" fill="#d9e321"/><path d="M163.00761,115.4281q-.02075-6.58512-.0463-13.17024a6.5207,6.5207,0,0,0-.23046-2.57114.75835.75835,0,0,1,.2385-.96264,10.93149,10.93149,0,0,1,.44393,3.11359,23.393,23.393,0,0,1,.50153,4.17512c.03375,2.12857.53884,4.22153.47472,6.35839a3.6852,3.6852,0,0,1-.48868,2.049Z" fill="#41ac41"/><path d="M136.25619,56.68024a1.13888,1.13888,0,0,1,.82892.23145V70.18738c-.20125.13372-.39595.022-.59143-.0018a2.08049,2.08049,0,0,1-.59012-1.2186c.54965-.424.34386-1.03124.34622-1.56557C136.26567,63.82775,136.25694,60.254,136.25619,56.68024Z" fill="#92cc2e"/><path d="M123.39147,61.22428c.88359.13321.99054.8671,1.20545,1.53337a14.58993,14.58993,0,0,0,.90321,3.1264q.16521.08373.10952.16612c-.03659.05451-.07341.082-.11107.082-.38351.3319-.1593.88911-.4598,1.26284a14.08953,14.08953,0,0,0-1.95184,1.62621c-.00954-2.11609-.01065-4.2324-.03467-6.34845A2.78243,2.78243,0,0,1,123.39147,61.22428Z" fill="#62ba39"/><path d="M113.1361,232.003l.65489.06315c.15705-1.8182-.04951-3.59117.15422-5.34951.032-.27633.04716-.4869.30588-.61751a3.91423,3.91423,0,0,0,1.37932,1.6682c-.44993,1.83869.78421,3.6941-.01374,5.41862a1.28126,1.28126,0,0,1-1.34356.3239A3.67286,3.67286,0,0,1,113.1361,232.003Z" fill="#7bc332"/><path d="M183.53186,76.63162a2.66936,2.66936,0,0,0,.31283-1.1684c-.02743-2.90832-.04088-5.81676-.059-8.72526l.00776.01682a1.81,1.81,0,0,1,1.21678-.01895,1.55585,1.55585,0,0,1,.49825,1.19727c.036,2.37916.02109,4.75854.01045,7.13787a1.96743,1.96743,0,0,1-.44226,1.26332A2.092,2.092,0,0,1,183.53186,76.63162Z" fill="#b2d628"/><path d="M88.01717,72.33673l.68714-.10765a1.10041,1.10041,0,0,0,.27687-.91052c.07545-2.14251-.14109-4.28988.12972-6.43058.07461-.58968-.48563-1.15221-.12891-1.77574a1.20679,1.20679,0,0,1,1.22869-.00188c0,2.80592.0064,5.61187-.00609,8.41774-.00218.4908.15641,1.03612-.31992,1.42825l.011.00525c-.15235-.23864-.45995-.15824-.6512-.317A1.93916,1.93916,0,0,1,88.01717,72.33673Z" fill="#c6dd25"/><path d="M132.26788,67.13251V58.34709c-.29994-.48551-.62767-.42174-.92055-.456a1.49685,1.49685,0,0,1,1.13034-.35139,1.39655,1.39655,0,0,1,1.0177.439V67.0855A2.66419,2.66419,0,0,1,132.26788,67.13251Z" fill="#9ed02b"/><path d="M179.19191,68.00392a1.1896,1.1896,0,0,1,.94625-.2951c1.26718-.35166,1.53227.30275,1.38226,1.37374-.12914.09152-.25243.32627-.41116.04388-.03377.1219.048.1948.16975.24526.66186,2.2816.14686,4.5623.26693,6.80963-.87951.2857-1.49828.5917-1.97337-.19561a28.544,28.544,0,0,1-.11654-5.13286A9.72869,9.72869,0,0,0,179.19191,68.00392Z" fill="#bfd925"/><path d="M185.98853,66.79925a1.75775,1.75775,0,0,1,1.0393.17307,1.73121,1.73121,0,0,1,.186,1.16957q.01254,3.28348-.00078,6.567c-.00214.44287.12935.92931-.28383,1.28731l-.94022-.0141a.82016.82016,0,0,1-.32669-.49931,52.53793,52.53793,0,0,1-.00023-8.18433A.81527.81527,0,0,1,185.98853,66.79925Z" fill="#a9d42a"/><path d="M148.25777,245.79661c.43327.41049.26748.945.27365,1.43115.02687,2.118.03026,4.23621.04217,6.35455a2.03051,2.03051,0,0,1-1.70455.69193c.19283-1.92279-.53786-3.73574-.16606-5.35039.367-.74764.99386-.681,1.3537-.99342Z" fill="#6dbd35"/><path d="M82.84,70.76273l1.83513-.01794a1.497,1.497,0,0,0,.70679-1.56008c-.0519-1.5774.07255-3.15339.07632-4.72936a1.51222,1.51222,0,0,1,.74906-1.37751l-.02191.00525a.77887.77887,0,0,1,.94839.06575c-.14956,2.24166-.16754,4.48618-.14693,6.73155.00532.58077-.01621,1.14513-.79061,1.22161l-4.26978-.04261C82.15552,70.72813,82.51533,70.79958,82.84,70.76273Z" fill="#d1e123"/><path d="M179.84133,76.26922a1.60339,1.60339,0,0,0,1.38612-.28648,58.52412,58.52412,0,0,0-.14918-6.73209c.37252-1.03569.21948-1.28671-.94007-1.54182a1.58021,1.58021,0,0,1,1.15082-.34468,1.36428,1.36428,0,0,1,.9316.3459v8.5953c-.27027.34423-.59621.2859-.887.33568a3.07321,3.07321,0,0,1-1.83352-.3102A.25288.25288,0,0,1,179.84133,76.26922Z" fill="#bcda26"/><path d="M125.49858,66.13213a1.07142,1.07142,0,0,0,.00169-.24819,3.31722,3.31722,0,0,0,1.52435-.25134c0-1.73166.00577-3.54377-.00474-5.35579-.00217-.37557-.29581-.49356-.61281-.55469a4.4088,4.4088,0,0,1,1.85-.66932.78246.78246,0,0,1,.33355.48819,25.7669,25.7669,0,0,1-.16336,7.47169.59424.59424,0,0,1-.81826.10919c-.54609-.0467-.585-.62929-.99085-.92347Z" fill="#b1d528"/><path d="M115.09685,205.29152q.00777-7.44918.01548-14.899a10.2732,10.2732,0,0,1,.69538,4.035c.02524,2.89229.39436,5.79445-.10846,8.68035A6.3752,6.3752,0,0,1,115.09685,205.29152Z" fill="#7bc332"/><path d="M177.36713,75.708a1.11809,1.11809,0,0,1-.95173-.29289,1.98772,1.98772,0,0,0,.70653-1.56817c.17145-1.7143-.26587-3.48618.45711-5.14753.16166-.28048.55705-.13075.7274-.39553l-.01622.00743c.638-.30547.91983.13391.90162.60155-.0917,2.3554.58732,4.72825-.148,7.06817a.54677.54677,0,0,1-.73827.03015l.00806-.00008C178.06181,75.71125,177.63214,75.96676,177.36713,75.708Z" fill="#cadd24"/><path d="M216.37612,83.66581c.06756-2.15711-.17826-4.33.32546-6.4652a5.16317,5.16317,0,0,0,1.95718,1.0626,4.61489,4.61489,0,0,1,.102,1.84513C218.00866,81.23035,217.19237,82.44808,216.37612,83.66581Z" fill="#42aa40"/><path d="M142.71487,187.76835a.94064.94064,0,0,1,.29621.82706q-.0009,2.90913.00006,5.81825c0,.41078.01628.82854-.41218,1.07556a9.622,9.622,0,0,1-1.22415-4.21869,3.48027,3.48027,0,0,1,1.06491-3.19444,1.49338,1.49338,0,0,1,.27-.30043Z" fill="#7fc332"/><path d="M171.839,70.74706a.97986.97986,0,0,1,.90792-.59122c.27775-.241.69233-.00993.962-.27886a.14533.14533,0,0,1,.20989-.062c.82228-.07577.76049.58889.84807,1.07025.07775.42751-.05067.87848.06119,1.31393a2.81376,2.81376,0,0,1,.03448.44874c-.12453.78063.38549,1.97055-1.17155,1.83671l.01357.00461c-.2365-.32276-.67719-.05042-.932-.31985a1.1999,1.1999,0,0,1-.9141-.304A12.54028,12.54028,0,0,1,171.839,70.74706Z" fill="#dde321"/><path d="M86.20728,63.07784c-.142.265-.41838.53721-.40479.794.11723,2.2181-.25411,4.43509.04468,6.605-.36034.42667-.78012.27668-1.172.2682.12775-2.42339-.22765-4.82917-.18068-7.24543l-.51794-.11423A4.93492,4.93492,0,0,1,86.20728,63.07784Z" fill="#d3e122"/><path d="M185.98853,66.79926q.00028,4.59142.00052,9.18287a1.13695,1.13695,0,0,1-.91233.35216V67.20643c-.4561-.51274-.90054-.36423-1.283-.45149a2.6116,2.6116,0,0,1,1.89276-.23358Z" fill="#add529"/><path d="M174.63158,72.62808v-.30737c.154-.94247-.17523-1.93192.27659-2.84543a.978.978,0,0,1,.81131-.26948c.99736-.29361,1.12061.43344,1.18395,1.0916a21.623,21.623,0,0,1-.00971,3.77991c-.06269.79055-.37013,1.40608-1.36607,1.02351l.01683.0078c-.181-.26494-.61165-.11236-.75049-.44848C174.58417,73.9952,174.874,73.2904,174.63158,72.62808Z" fill="#d3e122"/><path d="M178.92566,75.98994c-.038-2.51117-.076-5.02236-.11388-7.51973l-.52153-.15888a1.03218,1.03218,0,0,1,.90166-.3074c.7325.08782.65692.64209.65744,1.147q.003,2.9514.00056,5.90277c-.00018.40539-.00543.81077-.0085,1.21583q-.17072.0303-.34132.06127l-.14172.02173-.12524-.06976A.60979.60979,0,0,1,178.92566,75.98994Z" fill="#c5dc25"/><path d="M175.52765,75.10082l.83866-.13882c0-1.81928,0-3.61622-.001-5.41349a.87471.87471,0,0,0-.6456-.34268.83978.83978,0,0,1,.75289-.26249c.2462-.27939.68239-.00766.9184-.31669l-.00944.00145c.12464-.11619.22807-.09369.31321.048-.07315,1.33131-.20952,2.66328-.19547,3.99368.00825.782-.39943,1.60107.22822,2.21057-.38527.667-.89892.44454-1.31215.53476A1.01053,1.01053,0,0,1,175.52765,75.10082Z" fill="#cfde23"/><path d="M128.27619,67.09766q-.00953-4.02242-.01909-8.04486a.63277.63277,0,0,1,.6304-.24259c.46928.39645.30015.94013.30343,1.428.01542,2.28774.00685,4.57564.00685,6.86349v0A.747.747,0,0,1,128.27619,67.09766Z" fill="#add529"/><path d="M163.90085,114.42019q.00689-4.20327.01387-8.407c.56091.98732.12231,2.109.41744,3.12963.16267.51457.769.45214,1.03021.77405A4.51117,4.51117,0,0,1,163.90085,114.42019Z" fill="#3ea942"/><path d="M139.927,80.87414c.0051,1.82708.004,3.65421.019,5.48121a2.94287,2.94287,0,0,1-.30828,1.61853,2.4414,2.4414,0,0,1-1.00529-2.64541A13.93034,13.93034,0,0,1,139.927,80.87414Z" fill="#85c530"/><path d="M207.52005,125.86391c-.01371-1.51664-.071-3.03461-.0245-4.54939a4.19042,4.19042,0,0,0-.60108-2.43487,3.315,3.315,0,0,1,1.73631,3.70906A8.00734,8.00734,0,0,1,207.52005,125.86391Z" fill="#5fb638"/><path d="M154.32567,215.10031c-.441.47689-.25149,1.06551-.25351,1.60412-.01561,4.16841-.00858,8.33691-.00858,12.50538l-.13853.046-.14567-.00753q-.00588-8.16348-.01188-16.32725A7.60932,7.60932,0,0,1,154.32567,215.10031Z" fill="#5bb639"/><path d="M156.54721,224.6389c-.00926-1.4275-.04769-2.85567-.01479-4.2822a1.94263,1.94263,0,0,0-.61959-1.63018c.392-.19493.19129-.65286.40759-.927a2.97089,2.97089,0,0,1,1.066,2.5805A9.8346,9.8346,0,0,1,156.54721,224.6389Z" fill="#53b13b"/><path d="M171.839,70.74706a3.35753,3.35753,0,0,1,.01945,3.11824l.00712.00148c-.36732-.35888-.89978-.00758-1.28291-.29839a1.67555,1.67555,0,0,1-1.13231-.17543c-.21021-.38038-.03781-.67572.15271-.9995l1.26822-.40154c.26044-.10337.203-.423.39126-.57543l.00727-.01205a1.95848,1.95848,0,0,0,.27716-.34392l-.01713.01942a.66306.66306,0,0,0,.31939-.33726Z" fill="#e0e01f"/><path d="M114.18718,221.34109q-.01614-5.93394-.02983-11.86789c-.00066-.397-.08171-.82276.28139-1.13324-.07658,3.38733-.10614,6.77369.01313,10.16178A6.18941,6.18941,0,0,1,114.18718,221.34109Z" fill="#7bc332"/><path d="M190.85926,105.42486a36.00564,36.00564,0,0,1-.02875,4.43861C189.31043,108.48705,189.31886,107.19859,190.85926,105.42486Z" fill="#95c92b"/><path d="M211.78419,150.00968q.0062-3.39673.01237-6.79357A9.70948,9.70948,0,0,1,211.78419,150.00968Z" fill="#53b13c"/><path d="M153.46482,236.62067c-.00658-2.05791-.01913-4.11585-.01484-6.17372.0009-.43385-.12964-.92238.34438-1.23163a56.0798,56.0798,0,0,0-.13646,5.774C153.63471,235.53583,153.8043,236.11014,153.46482,236.62067Z" fill="#5bb639"/><path d="M162.684,122.436c-.0088-1.90432-.02042-3.80865-.02409-5.713-.00077-.39316-.07281-.81391.30031-1.10941-.15016,1.58164-.00095,3.16256.00135,4.74377A3.27866,3.27866,0,0,1,162.684,122.436Z" fill="#41ac41"/><path d="M196.40136,184.04033q-.00348,2.03529-.007,4.07075C195.7126,186.7531,195.25024,185.39529,196.40136,184.04033Z" fill="#82c430"/><path d="M174.90817,69.47528c-.0842.94926.32793,1.94677-.27659,2.84543-.39569-.289-.30549-.67647-.23211-1.07231a1.33149,1.33149,0,0,0-.48061-1.43345A1.39574,1.39574,0,0,1,174.90817,69.47528Z" fill="#d6df21"/><path d="M174.63158,72.62808c.576.634.1949,1.40734.307,2.10888-.08866.15759-.19895.16643-.32774.04759a1.114,1.114,0,0,1-.91976-.3.89061.89061,0,0,0,.78774-1.20094C174.41978,73.014,174.374,72.80009,174.63158,72.62808Z" fill="#d6df21"/><path d="M87.13376,63.14884q-.47407-.03281-.94829-.06568a11.7695,11.7695,0,0,1,4.02492-.25752q.15172.09468.10132.18956-.05015.0948-.101.0949v.00026l-1.22869.00185Q88.05789,63.13056,87.13376,63.14884Z" fill="#c1db25"/><path d="M114.17041,225.83733c-.547-.48938-.277-1.13731-.31369-1.71706-.04149-.65484-.00868-1.31439-.00819-1.97189q.14418,0,.28842,0Q114.15366,223.99285,114.17041,225.83733Z" fill="#7bc332"/><path d="M153.43256,240.25814a4.19277,4.19277,0,0,1-.00147-3.3668Q153.43179,238.57475,153.43256,240.25814Z" fill="#5bb639"/><path d="M141.74779,97.978q.015,1.4534.03,2.90682A3.44366,3.44366,0,0,1,141.74779,97.978Z" fill="#7dbf31"/><path d="M162.94814,98.41226c-.5776-.78569-.17568-1.67564-.26738-2.51341A5.546,5.546,0,0,1,162.94814,98.41226Z" fill="#41ac41"/><path d="M207.81542,172.48534q-.00112-1.29915-.00217-2.59852A3.43218,3.43218,0,0,1,207.81542,172.48534Z" fill="#5cae36"/><path d="M153.44644,210.78761c-.59761-.79457-.20386-1.6956-.27335-2.54741A6.22026,6.22026,0,0,1,153.44644,210.78761Z" fill="#5bb639"/><path d="M196.09149,141.924l-.00371,2.657A3.60573,3.60573,0,0,1,196.09149,141.924Z" fill="#81c330"/><path d="M142.05732,101.50064a1.33844,1.33844,0,0,1,.94456,1.24357C142.6445,102.362,142.16153,102.0752,142.05732,101.50064Z" fill="#7dbf31"/><path d="M153.773,212.934c-.58416-.55187-.23488-1.25454-.305-1.88965A3.71473,3.71473,0,0,1,153.773,212.934Z" fill="#5bb639"/><path d="M128.27621,67.09767l.92157.004q.00018.14426-.00035.28851a1.78943,1.78943,0,0,1-1.58833-.2683Z" fill="#a9d42a"/><path d="M114.4574,187.14625c-.51507-.48188-.23571-1.09252-.26777-1.65334A2.848,2.848,0,0,1,114.4574,187.14625Z" fill="#7bc332"/><path d="M114.76369,188.68109c-.45073-.358-.26271-.85129-.27552-1.30229A1.87467,1.87467,0,0,1,114.76369,188.68109Z" fill="#7bc332"/><path d="M115.09067,190.22224c-.4779-.358-.28141-.864-.29065-1.32517A1.93264,1.93264,0,0,1,115.09067,190.22224Z" fill="#7bc332"/><path d="M196.40166,140.09879c-.0088.44713.17.93148-.25684,1.29572A1.72645,1.72645,0,0,1,196.40166,140.09879Z" fill="#81c330"/><path d="M197.32179,135.7984c-.00858.45082.17489.9416-.27052,1.3016A1.87611,1.87611,0,0,1,197.32179,135.7984Z" fill="#81c330"/><path d="M170.58269,73.56839c.44582.02128.9416-.17227,1.28291.29839A2.0764,2.0764,0,0,1,170.58269,73.56839Z" fill="#dde321"/><path d="M114.79023,206.51975c.02164-.43878-.18125-.935.32026-1.251A1.70593,1.70593,0,0,1,114.79023,206.51975Z" fill="#7bc332"/><path d="M114.49845,207.84024c.01269-.4681-.21225-.9901.30482-1.34388A2.09611,2.09611,0,0,1,114.49845,207.84024Z" fill="#7bc332"/><path d="M196.3727,188.08394c.429.19024.34816.57324.34955.92518A1.17923,1.17923,0,0,1,196.3727,188.08394Z" fill="#82c430"/><path d="M207.48408,168.72739c-.37511-.24023-.31283-.61183-.29155-.97123A1.13845,1.13845,0,0,1,207.48408,168.72739Z" fill="#5cae36"/><path d="M207.141,167.49221c-.341-.25042-.27847-.60969-.25816-.95769A1.11683,1.11683,0,0,1,207.141,167.49221Z" fill="#5cae36"/><path d="M90.21068,63.1101q.00014-.14231-.00029-.28452.46045.00114.9209.00223.00051.14118.00034.28221Z" fill="#bcda26"/><path d="M199.499,158.902c.36035.22537.29912.58719.3005.92876A1.06725,1.06725,0,0,1,199.499,158.902Z" fill="#79c334"/><path d="M199.1769,157.66988c.40213.26706.30559.66765.28082,1.04948A1.28582,1.28582,0,0,1,199.1769,157.66988Z" fill="#79c334"/><path d="M156.24809,225.56639c-.0287-.36153-.10721-.73963.31669-.95054A1.06988,1.06988,0,0,1,156.24809,225.56639Z" fill="#53b13b"/><path d="M155.93054,226.47888c-.01567-.35838-.09631-.74.33567-.9385A1.08511,1.08511,0,0,1,155.93054,226.47888Z" fill="#53b13b"/><path d="M211.46447,150.90935c.01263-.33692-.04666-.69944.3237-.90892A1.01648,1.01648,0,0,1,211.46447,150.90935Z" fill="#53b13c"/><path d="M155.59963,227.37134c.00663-.34572-.05964-.71891.34472-.91493A1.10964,1.10964,0,0,1,155.59963,227.37134Z" fill="#53b13b"/><path d="M183.53553,66.78919c-.27625.39717-.6803.29423-1.06422.272A1.29826,1.29826,0,0,1,183.53553,66.78919Z" fill="#b2d628"/><path d="M211.80983,143.23557c-.42342-.23992-.3261-.63689-.30474-1.01128A1.22773,1.22773,0,0,1,211.80983,143.23557Z" fill="#53b13c"/><path d="M196.6946,138.81091c.0224.37691.12433.77318-.256,1.0521A1.27091,1.27091,0,0,1,196.6946,138.81091Z" fill="#81c330"/><path d="M197.014,137.33207c.01739.35479.10013.72584-.24627.99008A1.20613,1.20613,0,0,1,197.014,137.33207Z" fill="#81c330"/><path d="M163.01051,133.40762c-.42319-.208-.338-.59511-.33554-.95316A1.195,1.195,0,0,1,163.01051,133.40762Z" fill="#41ad42"/><path d="M117.59626,130.94324c-.4444-.18729-.35594-.57883-.35845-.93553A1.19072,1.19072,0,0,1,117.59626,130.94324Z" fill="#70be35"/><path d="M171.551,65.55768a1.42431,1.42431,0,0,1-.02488-.263c.22649-.024.45785-.117.69975.06568C172.08025,65.70806,171.77117,65.4998,171.551,65.55768Z" fill="#1f3f1a"/><path d="M95.104,107.90836c.00847.35477.08259.73277-.33172.938A1.144,1.144,0,0,1,95.104,107.90836Z" fill="#b1d628"/><path d="M96.65142,103.32043c-.00007.34268.06086.70507-.30078.93089A1.13286,1.13286,0,0,1,96.65142,103.32043Z" fill="#add529"/><path d="M142.07161,96.54809c.01374.34091.081.69645-.25731.94106A1.04988,1.04988,0,0,1,142.07161,96.54809Z" fill="#7dbf31"/><path d="M142.35782,95.52192c.02059.383.131.79148-.29705,1.04728A1.3604,1.3604,0,0,1,142.35782,95.52192Z" fill="#7dbf31"/><path d="M142.6767,94.34684c.01885.36606.09929.74951-.28287,1.00238A1.27973,1.27973,0,0,1,142.6767,94.34684Z" fill="#7dbf31"/><path d="M178.92566,75.98994l.30747.29285a1.0878,1.0878,0,0,1-.92747-.27165Z" fill="#bfd925"/><path d="M177.36713,75.708c.34865-.00247.71777-.06888.94655.3031A1.11,1.11,0,0,1,177.36713,75.708Z" fill="#c5dc25"/><path d="M174.61082,74.78455q.16384-.02349.32774-.04728c.24872.04733.49125.105.60592.37133A1.19078,1.19078,0,0,1,174.61082,74.78455Z" fill="#cfde23"/><path d="M172.77258,74.16932c.34806-.00233.71665-.06455.932.31984A1.10969,1.10969,0,0,1,172.77258,74.16932Z" fill="#d6df21"/><path d="M173.70894,69.877c-.244.35735-.61086.29091-.962.27887A1.10306,1.10306,0,0,1,173.70894,69.877Z" fill="#d6df21"/><path d="M177.391,68.62665c-.21446.37145-.5778.31109-.9184.31669A1.11041,1.11041,0,0,1,177.391,68.62665Z" fill="#cadd24"/><path d="M177.6948,68.67607l-.31317-.048a1.12889,1.12889,0,0,1,.92481-.32424C178.19084,68.573,177.94538,68.62878,177.6948,68.67607Z" fill="#c5dc25"/><path d="M196.11158,144.776c.38718.253.305.63907.28562,1.00752A1.11773,1.11773,0,0,1,196.11158,144.776Z" fill="#81c330"/><path d="M115.69027,61.59986q.00025.141.00017.282-.307,0-.614,0a.178.178,0,0,1-.068-.19311q.03384-.09662.06784-.09663Z" fill="#75c235"/><path d="M171.26257,71.41649a.55485.55485,0,0,1-.39126.57543A.74484.74484,0,0,1,171.26257,71.41649Z" fill="#dde321"/><path d="M89.24443,72.64465a.58574.58574,0,0,1,.65119.31691A.83629.83629,0,0,1,89.24443,72.64465Z" fill="#c1db25"/><path d="M141.77439,100.877a.60224.60224,0,0,1,.2958.6417A.61688.61688,0,0,1,141.77439,100.877Z" fill="#7dbf31"/><path d="M207.19133,126.69131a.61307.61307,0,0,1,.27259-.6378A.64357.64357,0,0,1,207.19133,126.69131Z" fill="#5fb638"/><path d="M206.908,127.39972c-.03433-.29613-.01912-.57223.29413-.728A.84875.84875,0,0,1,206.908,127.39972Z" fill="#5fb638"/><path d="M211.19132,141.39313c-.29417-.13184-.32984-.38566-.31324-.66424A.72412.72412,0,0,1,211.19132,141.39313Z" fill="#53b13c"/><path d="M211.45255,142.01139a.619.619,0,0,1-.27191-.63588A.63985.63985,0,0,1,211.45255,142.01139Z" fill="#53b13c"/><path d="M211.16161,151.53057a.63923.63923,0,0,1,.29982-.61367A.65131.65131,0,0,1,211.16161,151.53057Z" fill="#53b13c"/><path d="M117.60846,155.18336c-.29634-.06569-.3694-.29053-.39258-.55091A.65993.65993,0,0,1,117.60846,155.18336Z" fill="#71c135"/><path d="M118.8005,157.04709c-.29391-.11183-.34032-.35668-.33741-.62805A.71107.71107,0,0,1,118.8005,157.04709Z" fill="#6dbd36"/><path d="M155.93878,218.7464c-.30786.01383-.55512-.06225-.61582-.41558Q155.63079,218.53824,155.93878,218.7464Z" fill="#53b13b"/><path d="M196.71554,188.99508c.30808.168.31313.45152.285.74818A.88225.88225,0,0,1,196.71554,188.99508Z" fill="#82c430"/><path d="M119.11119,157.65986c-.29988-.11361-.34367-.35867-.32591-.63542A.684.684,0,0,1,119.11119,157.65986Z" fill="#6dbd36"/><path d="M103.44085,185.619a.63532.63532,0,0,1,.27391.61326A.70858.70858,0,0,1,103.44085,185.619Z" fill="#96cc2c"/><path d="M207.76116,169.64311a.64847.64847,0,0,1-.2365-.72526A.76656.76656,0,0,1,207.76116,169.64311Z" fill="#5cae36"/><path d="M207.51747,173.42385a.62879.62879,0,0,1,.2607-.70471A.70076.70076,0,0,1,207.51747,173.42385Z" fill="#5cae36"/><path d="M108.01506,61.88253a.63161.63161,0,0,1-.31015-.603l.31381.28807q.12981.1059.08536.21031-.04417.104-.08806.104Z" fill="#8bca2f"/><path d="M206.85283,174.52667a.55271.55271,0,0,1,.36069-.56545A.63488.63488,0,0,1,206.85283,174.52667Z" fill="#5cae36"/><path d="M117.8598,131.57053a.553.553,0,0,1-.28511-.65828A.68154.68154,0,0,1,117.8598,131.57053Z" fill="#70be35"/><path d="M101.88124,175.18384c-.01926.27709-.09524.51353-.41326.57643A.81063.81063,0,0,1,101.88124,175.18384Z" fill="#9bce2c"/><path d="M102.15977,174.81915l-.27416.3577A.36913.36913,0,0,1,102.15977,174.81915Z" fill="#9bce2c"/><path d="M123.01253,61.10972q-.15592.06715-.31184.13422Q122.8566,61.17674,123.01253,61.10972Z" fill="#62ba39"/><path d="M197.33049,183.09277l-.29657.36826Z" fill="#82c430"/><path d="M207.19426,173.98453l.23736-.33933A.30418.30418,0,0,1,207.19426,173.98453Z" fill="#5cae36"/><path d="M197.03913,183.45681q-.173.14789-.34626.29576A.38151.38151,0,0,1,197.03913,183.45681Z" fill="#82c430"/><path d="M117.24019,170.61842a.442.442,0,0,1,.35324-.327A.442.442,0,0,1,117.24019,170.61842Z" fill="#71c135"/><path d="M196.717,183.72864a.45556.45556,0,0,1-.33022.33259A.38666.38666,0,0,1,196.717,183.72864Z" fill="#82c430"/><path d="M142.70968,187.77566l-.27.30043A.34893.34893,0,0,1,142.70968,187.77566Z" fill="#7cc432"/><path d="M108.016,61.88193l.00264-.31423c.10125.015.20247.03013.30367.04595.00034.08974.0005.17878.00047.26779l-.15338.00056Z" fill="#81c732"/><path d="M210.89281,151.969a.50676.50676,0,0,1,.268-.43663A.50676.50676,0,0,1,210.89281,151.969Z" fill="#53b13c"/><path d="M196.76167,146.62583a.48778.48778,0,0,1,.24827.40471A.41971.41971,0,0,1,196.76167,146.62583Z" fill="#81c330"/><path d="M196.46792,146.01417a.51111.51111,0,0,1,.229.43949A.4525.4525,0,0,1,196.46792,146.01417Z" fill="#81c330"/><path d="M115.07626,61.59215q.00031.14487.00021.28974l-.30448-.28945Z" fill="#78c334"/><path d="M144.71325,117.4935a.50555.50555,0,0,1,.44023.23426A.44981.44981,0,0,1,144.71325,117.4935Z" fill="#72c135"/><path d="M190.81717,109.83013a.41144.41144,0,0,1,.37448.312A.42107.42107,0,0,1,190.81717,109.83013Z" fill="#95c92b"/><path d="M191.16677,105.0981a.40026.40026,0,0,1-.32554.35365A.40857.40857,0,0,1,191.16677,105.0981Z" fill="#95c92b"/><path d="M191.4811,104.75638a.434.434,0,0,1-.34634.38122A.499.499,0,0,1,191.4811,104.75638Z" fill="#95c92b"/><path d="M171.547,71.06052l-.27716.34393A.34175.34175,0,0,1,171.547,71.06052Z" fill="#dde321"/><path d="M171.84926,70.74268a.46283.46283,0,0,1-.31931.33723A.37539.37539,0,0,1,171.84926,70.74268Z" fill="#dde321"/><path d="M197.92284,181.2474a.441.441,0,0,1-.27244.37265A.38758.38758,0,0,1,197.92284,181.2474Z" fill="#7ec532"/><path d="M160.81725,90.43527c.51063.62721-.03294,1.25357-.03032,1.88176.04276,10.26886.03017,20.538.03079,30.807a5.16008,5.16008,0,0,0,.18051,1.50932,1.60361,1.60361,0,0,1-.181,1.72368c-.46784-.39987-.30007-.94529-.30045-1.43436q-.01275-16.5265,0-33.053C160.51718,91.38058,160.34946,90.83515,160.81725,90.43527Z" fill="#47b040"/><polygon points="181.078 69.251 180.952 69.181 181.008 69.124 181.078 69.251" fill="#bcda26"/><path d="M235,49.78194a4.16973,4.16973,0,1,1-4.15586-4.05666A4.07646,4.07646,0,0,1,235,49.78194Zm-7.29755,0a3.14353,3.14353,0,0,0,3.16637,3.24089,3.10708,3.10708,0,0,0,3.09234-3.21672,3.13173,3.13173,0,1,0-6.25871-.02417Zm2.49865,2.127H229.261V47.85231a8.18927,8.18927,0,0,1,1.55851-.12388,2.52543,2.52543,0,0,1,1.41.2971,1.12475,1.12475,0,0,1,.39579.89029,1.04,1.04,0,0,1-.84094.94064v.04935a1.197,1.197,0,0,1,.74225.989,3.09665,3.09665,0,0,0,.29659,1.01416H231.809a3.45886,3.45886,0,0,1-.32127-.989c-.07453-.44515-.32178-.64355-.84145-.64355h-.44514Zm.02467-2.30025h.44515c.51967,0,.94014-.17322.94014-.59419,0-.37062-.27192-.61837-.86562-.61837a2.21481,2.21481,0,0,0-.51967.05035Z" fill="#fff"/></svg>