<svg id="Layer_1" data-name="Layer 1" xmlns="http://www.w3.org/2000/svg" viewBox="0 0 300 300"><defs><style>.cls-1{fill:#004f80;}.cls-2{fill:#0083c3;}.cls-3{fill:#76cbcc;}.cls-4{fill:#74bf44;}.cls-5{fill:#00a84f;}.cls-6{fill:#c3d82e;}.cls-7{fill:#d7a86f;}.cls-8{fill:#ede0c5;}.cls-9{fill:#e1c196;}.cls-10{fill:#00b2c1;}.cls-11{fill:#de9c87;}.cls-12{fill:#ec1c24;}.cls-13{fill:#68c3ee;}.cls-14{fill:#f48020;}.cls-15{fill:#c2262d;}.cls-16{fill:#f9a51a;}.cls-17{fill:#8e191b;}</style></defs><title>Artboard 48</title><rect class="cls-1" x="71.6" y="71.6" width="31.36" height="31.36"/><rect class="cls-2" x="71.6" y="102.96" width="31.36" height="31.36"/><rect class="cls-3" x="71.6" y="134.32" width="31.36" height="31.36"/><rect class="cls-4" x="71.6" y="165.68" width="31.36" height="31.36"/><rect class="cls-5" x="71.6" y="197.04" width="31.36" height="31.36"/><rect class="cls-4" x="102.96" y="197.04" width="31.36" height="31.36"/><rect class="cls-6" x="134.32" y="197.04" width="31.36" height="31.36"/><rect class="cls-7" x="165.68" y="197.04" width="31.36" height="31.36"/><rect class="cls-8" x="197.04" y="197.04" width="31.36" height="31.36"/><rect class="cls-6" x="102.96" y="165.68" width="31.36" height="31.36"/><rect class="cls-8" x="134.32" y="165.68" width="31.36" height="31.36"/><rect class="cls-9" x="165.68" y="165.68" width="31.36" height="31.36"/><rect class="cls-7" x="197.04" y="165.68" width="31.36" height="31.36"/><rect class="cls-10" x="102.96" y="134.32" width="31.36" height="31.36"/><rect class="cls-9" x="134.32" y="134.32" width="31.36" height="31.36"/><rect class="cls-11" x="165.68" y="134.32" width="31.36" height="31.36"/><rect class="cls-12" x="197.04" y="134.32" width="31.36" height="31.36"/><rect class="cls-13" x="102.96" y="102.96" width="31.36" height="31.36"/><rect class="cls-14" x="134.32" y="102.96" width="31.36" height="31.36"/><rect class="cls-12" x="165.68" y="102.96" width="31.36" height="31.36"/><rect class="cls-15" x="197.04" y="102.96" width="31.36" height="31.36"/><rect class="cls-2" x="102.96" y="71.6" width="31.36" height="31.36"/><rect class="cls-16" x="134.32" y="71.6" width="31.36" height="31.36"/><rect class="cls-15" x="165.68" y="71.6" width="31.36" height="31.36"/><rect class="cls-17" x="197.04" y="71.6" width="31.36" height="31.36"/></svg>