<svg id="Layer_1" data-name="Layer 1" xmlns="http://www.w3.org/2000/svg" viewBox="0 0 300 300"><defs><style>.cls-1{fill:#009fab;}</style></defs><g id="Layer"><path id="Layer-2" data-name="Layer" class="cls-1" d="M256.74,242.22h-64s.08-92.08,0-101.31c-.21-17.72-21.88-23.9-21.88-23.9h42.9c12.94,0,42.85,5.44,42.85,29.59C256.65,156.53,256.74,242.22,256.74,242.22Z"/><path id="Layer-3" data-name="Layer" class="cls-1" d="M202.32,109.34c-13.44,0-24.29-11.5-24.29-25.72s10.85-25.76,24.29-25.76,24.3,11.5,24.3,25.76S215.76,109.34,202.32,109.34Z"/><path id="Layer-4" data-name="Layer" class="cls-1" d="M185.24,242.22H121.36s.12-92.08,0-101.27c-.21-17.76-21.84-23.9-21.84-23.9h42.82c12.95,0,42.86,5.4,42.86,29.55C185.2,156.53,185.24,242.22,185.24,242.22Z"/><path id="Layer-5" data-name="Layer" class="cls-1" d="M131.52,109.26c-13.44,0-24.3-11.5-24.3-25.72s10.86-25.76,24.3-25.76,24.3,11.5,24.3,25.76S145,109.26,131.52,109.26Z"/><path id="Layer-6" data-name="Layer" class="cls-1" d="M113.94,242.22H59.65s.13-60,0-66.89C59.49,162,43.26,157.4,43.26,157.4H81.74c9.71,0,32.16,4.08,32.16,22.21,0,7.42,0,62.61,0,62.61Z"/><path id="Layer-7" data-name="Layer" class="cls-1" d="M69.24,149.57c-10.08,0-18.19-8.62-18.19-19.29S59.16,111,69.24,111s18.23,8.61,18.23,19.29S79.32,149.57,69.24,149.57Z"/></g></svg>