<svg id="Layer_1" data-name="Layer 1" xmlns="http://www.w3.org/2000/svg" viewBox="0 0 300 300"><path d="M162.85408,102.04142c-1.70237-.23951-32.18691,17.112-32.18691,17.112s48.97777,10.19917,120.244,31.56911c0,0,14.21488-20.10985,24.08881-31.16359-.00137-.00135-41.21443-7.68985-112.14592-17.51752" fill="#a33813"/><path d="M106.37968,99.98934c24.10106-4.15315,49.137.6804,49.137.6804s-39.55017,18.86336-76.66045,42.167c0,0-31.08874-9.331-53.85622-11.63345.00136-.00136,57.80933-27.13019,81.37968-31.21394" fill="#094841"/><path d="M191.58048,140.72749s23.06142,6.19843,54.92717,16.93918c0,0-20.21462,29.88989-27.44725,44.02856,0,0-20.22143-11.69467-58.40128-28.48691,0,0,8.1294-8.64785,30.92136-32.48083" fill="#9eab18"/><path d="M87.62247,145.8019s15.28991-10.83329,36.60542-22.76067c0,0,24.54876,4.91792,60.433,15.56751l-32.09166,30.9758s-18.83478-7.88581-34.76153-13.65014c-15.92812-5.75482-30.18518-10.1325-30.18518-10.1325" fill="#b39608"/></svg>