<?xml version="1.0" encoding="utf-8"?>
<!-- Generator: Adobe Illustrator 24.0.1, SVG Export Plug-In . SVG Version: 6.00 Build 0)  -->
<svg version="1.1" id="Layer_1" xmlns="http://www.w3.org/2000/svg" xmlns:xlink="http://www.w3.org/1999/xlink" x="0px" y="0px"
	 viewBox="0 0 300 300" style="enable-background:new 0 0 300 300;" xml:space="preserve">
<style type="text/css">
	.st0{fill:#FFFFFF;}
	.st1{fill:#005DAA;}
	.st2{fill:#ED174F;}
</style>
<title>MPC_Light_bg</title>
<path id="path60" class="st0" d="M98.7,64.5C88.6,65,79.8,71.3,76.1,80.6v0.1c0,0-0.1,0-0.1,0.1l-34.7,79.6l-0.1,0.1l-0.1,0.1
	c-1.5,4.3-1.9,9-1.2,13.5v0.1l0.1,0.1l4.8,17.6l6.2,23l0.1,0.1v0l1.7,4.8v0.2c3.6,8.8,12,14.8,21.5,15.5h152
	c9.8-1,18.1-7.4,21.4-16.6v-0.1l0.1-0.1l11.9-44.1l0.1-0.1v-0.1c0.8-4.3,0.7-8.7-0.5-12.9l-0.1-0.1l-0.1-0.1l-16-36.1l-20.2-45.2
	c0,0-0.1,0-0.1-0.1c-3.4-8.1-11.1-13.4-19.5-14.7v-0.5H98.7z"/>
<path id="path64" class="st1" d="M198.2,70.8c8.3,0.3,15.7,5.3,19.1,12.8l19.5,43.5l15.5,34.7c1,3.5,1.1,7.3,0.4,10.9l-11.5,42.4
	c-2.6,7.4-10.2,13.4-18,14H77.5c-7.6-0.5-15.2-5.7-18-12.9l-1.6-4.6l-6-22l-4.7-17c-0.6-3.8-0.2-7.7,1.1-11.4l33.4-76.7
	c3.1-7.9,10.6-13.2,19-13.7L198.2,70.8"/>
<path id="path72" class="st0" d="M198.4,78.8c5.2,0.4,10.4,4.8,11.9,9.8l30.7,68.2c1.9,3.9,5.1,8.5,3.8,13.7l-1.7,7l-9.3,34.2
	c-1.2,5.1-6.4,9.1-11.3,10H78.8c-4.5,0.1-8.8-2.1-11.5-5.7c-2.8-4.6-13.3-45.3-13.3-45.3c-0.5-4,1.1-7.5,2.6-10.8l25.9-59.2L89,86.3
	c2.6-4.5,7.4-7.3,12.6-7.5L198.4,78.8"/>
<path id="path80" class="st2" d="M149.7,140l18-46.4H195l24.3,79.1h-33.4l-3.7-43.4l-21.7,43.4h-21.2l-22-43.1l-3.6,43.1H80.2
	l23.5-79.1h27.4L149.7,140"/>
<path id="path88" class="st1" d="M85.5,193.9l2.4-11.4h6.9l2.8,22.1h-5.4l-1.7-14.3c-0.9,4.7-1.6,9.6-2.3,14.3h-5.6l-2.4-14.2
	c-0.7,4.7-1.1,9.5-1.7,14.2h-5.5l3-22.1h6.9L85.5,193.9"/>
<path id="path96" class="st1" d="M103.7,182.5l-4.6,22h5.5l0.8-3.9h5.2l0.6,3.9h5.7l-4.8-22L103.7,182.5z M107.9,187.1
	c0.7,3,1.1,6.3,1.7,9.5h-3.4L107.9,187.1z"/>
<path id="path120" class="st1" d="M167.4,187.2h-4.8v17.4h-5.3v-17.4h-4.8v-4.7h14.8L167.4,187.2"/>
<path id="path128" class="st1" d="M174.9,191.2h4.8v-8.9h5.4v22.1h-5.4V196h-4.8v8.6h-5.4v-22.2h5.4L174.9,191.2"/>
<path id="path136" class="st1" d="M219.7,196.6v-14.2h5v22.2h-7.3l-3.9-13.3v13.3h-4.8v-22.2h7.3L219.7,196.6"/>
<path id="path168" class="st1" d="M140.4,182.5l-4.6,22h5.4l0.8-3.9h5.2l0.6,3.9h5.7l-4.8-22.1L140.4,182.5z M144.6,187.1
	c0.7,3,1.1,6.3,1.7,9.5h-3.4L144.6,187.1z"/>
<path id="path184" class="st1" d="M249,217.8c-3.2,0-5.7,2.6-5.7,5.8s2.6,5.7,5.8,5.7s5.7-2.6,5.7-5.8
	C254.7,220.3,252.2,217.8,249,217.8L249,217.8z M249,218.9c2.4,0,4.4,2,4.4,4.4c0,0,0,0,0,0v0.1c0,2.4-2,4.4-4.4,4.4
	c-2.3,0-4.3-1.8-4.4-4.1c0-0.1,0-0.2,0-0.3c-0.1-2.4,1.8-4.5,4.3-4.5c0,0,0,0,0,0H249z M251.9,226.7l-0.1-0.1l-1.8-2.7
	c0.4-0.1,0.8-0.2,1.1-0.5c0.4-0.4,0.5-0.8,0.5-1.3c0-0.6-0.2-1.1-0.6-1.5c-0.5-0.4-1.1-0.5-1.8-0.5h-2.6v6.7h1.2V224h1l1.6,2.7
	l0.1,0.1L251.9,226.7L251.9,226.7z M247.9,221.1h1.2c0.3,0,0.6,0.1,0.8,0.2c0.3,0.1,0.4,0.4,0.4,0.6c0.1,0.3-0.1,0.6-0.4,0.8
	c-0.3,0.1-0.7,0.2-1,0.2h-1.1L247.9,221.1L247.9,221.1z"/>
<path class="st1" d="M205.3,193.4c0.1,2.1-0.1,4.2-0.7,6.2c-0.6,1.9-1.6,3.5-3.2,4.5c-1,0.6-2,0.9-3.1,1.1c-1.6,0.2-3.1,0.1-4.7-0.3
	c-2.5-0.7-4-2.4-4.7-5.2c-0.4-1.5-0.5-2.9-0.6-4.4c-0.1-1.8,0-3.6,0.2-5.4c0.2-1.4,0.6-2.8,1.2-4.1c1-1.8,2.4-3,4.2-3.5
	c2.2-0.6,4.3-0.6,6.5,0.1c2.1,0.7,3.5,2.2,4.2,4.5c0.4,1.4,0.6,2.8,0.7,4.3C205.3,192,205.3,192.7,205.3,193.4z M193.5,193.6
	c0,0.3,0,0.5,0,0.8c0,1.3,0.1,2.7,0.5,3.9c0.3,1,0.8,1.8,1.7,2.1c0.5,0.1,0.9,0.2,1.4,0.2c1,0,1.8-0.6,2.2-1.6
	c0.2-0.5,0.4-1.1,0.5-1.6c0.3-1.7,0.3-3.3,0.3-5c0-1.2-0.1-2.4-0.4-3.6c-0.3-1.1-0.9-2-2-2.2c-0.4-0.1-0.7-0.1-1.1-0.1
	c-1,0.1-1.8,0.6-2.2,1.6c-0.2,0.4-0.3,0.7-0.4,1.1C193.6,190.7,193.6,192.2,193.5,193.6z"/>
<path class="st1" d="M124.6,204.6c-1.7,0-3.4,0-5,0c0-7.4,0-14.9,0-22.3c0,0,0.1,0,0.2,0c2.4,0,4.8-0.1,7.2,0c1.2,0,2.5,0.2,3.6,0.8
	c1.9,0.9,2.9,2.5,3.2,4.7c0.1,1.2,0.1,2.3-0.1,3.5c-0.3,1.7-1,3.2-2.6,4c1.1,3.1,2.3,6.3,3.4,9.4c-1.9,0-3.9,0-5.8,0
	c-0.9-2.7-1.7-5.4-2.6-8.1c-0.5,0-1,0-1.5,0C124.6,199.2,124.6,201.9,124.6,204.6z M124.6,192.2c0.6,0,1.1,0,1.6,0
	c0.2,0,0.4,0,0.7-0.1c0.9-0.2,1.4-0.7,1.6-1.7c0.1-0.7,0.1-1.4,0-2.2c-0.1-0.9-0.6-1.4-1.4-1.6c-0.8-0.2-1.7-0.1-2.5-0.1
	C124.6,188.5,124.6,190.3,124.6,192.2z"/>
</svg>
