<svg id="Layer_1" data-name="Layer 1" xmlns="http://www.w3.org/2000/svg" viewBox="0 0 300 300"><path id="path4208" d="M226.87785,131.95768v7.06144a3.1436,3.1436,0,0,0,3.0298,3.229H260.4809a14.03159,14.03159,0,0,1,10.26473,4.53611,15.93547,15.93547,0,0,1,4.23524,10.2081c.01138.2491.01913.49821.01913.75139v13.22958c0,8.57037-6.51542,15.52415-14.546,15.52415H162.9563V169.495h87.20207a3.14334,3.14334,0,0,0,3.02982-3.229v-5.28833a3.148,3.148,0,0,0-3.03469-3.2339H219.9811c-7.96176,0-14.47717-6.9538-14.47717-15.45077V128.95738c0-8.501,6.51543-15.45484,14.47717-15.45484h40.84c7.60607,0,13.36457,6.17713,13.36457,13.79671v1.42941h-44.278a3.14362,3.14362,0,0,0-3.02982,3.229" fill="#fff"/><path id="path4214" d="M125.64721,127.41737v59.04372H103.19444V133.537H86.4452v52.92408H63.9965V133.537H46.65392v52.92408H25V129.04941c0-7.6526,6.07876-15.547,13.507-15.547h73.63283a13.757,13.757,0,0,1,13.50739,13.91493" fill="#fff"/><path id="path4220" d="M178.37653,139.106a3.23529,3.23529,0,0,1-3.22312,3.229H154.36184V128.81355h20.79157a3.23529,3.23529,0,0,1,3.22312,3.229Zm10.02626-25.60341H141.32164a9.28732,9.28732,0,0,0-9.27909,9.29565v63.69928h22.31929V157.734h34.041c8.54127,0,11.8641-7.0117,11.8641-15.58163V129.08385c0-8.56953-3.32283-15.58122-11.8641-15.58122" fill="#fff"/></svg>