<?xml version="1.0" encoding="utf-8"?>
<!-- Generator: Adobe Illustrator 24.0.1, SVG Export Plug-In . SVG Version: 6.00 Build 0)  -->
<svg version="1.1" id="Layer_1" xmlns="http://www.w3.org/2000/svg" xmlns:xlink="http://www.w3.org/1999/xlink" x="0px" y="0px"
	 viewBox="0 0 300 300" style="enable-background:new 0 0 300 300;" xml:space="preserve">
<style type="text/css">
	.st0{fill:#007A73;}
</style>
<title>MRK_Light_bg</title>
<path class="st0" d="M105.7,107.1c-1.9-24.8,16.7-46.5,41.5-48.4c24.8-1.9,46.5,16.7,48.4,41.5c0.1,0.9,0.1,1.7,0.1,2.6
	c0.1,1.4,0.1,2.9,0,4.3H105.7z"/>
<path class="st0" d="M60.7,152.3c-0.1-24.9,20-45.1,44.8-45.2c0,0,0.1,0,0.1,0h0.1c-0.1,24.9,20,45.1,44.8,45.2c0,0,0.1,0,0.1,0h0.1
	c-24.9,0-45,20.1-45.1,44.9c0,0,0,0,0,0.1l0,0C80.8,197.3,60.7,177.1,60.7,152.3L60.7,152.3L60.7,152.3"/>
<path class="st0" d="M195.8,197.2c-1.4,24.9-22.7,43.9-47.5,42.5c-22.9-1.3-41.2-19.6-42.5-42.5H195.8z"/>
<path class="st0" d="M195.8,107.1c24.9,0,45,20.1,45,45s-20.1,45-45,45c-0.1-24.8-20.2-44.9-45-44.9
	C175.7,152.2,195.8,132.1,195.8,107.1L195.8,107.1"/>
</svg>
