<svg id="Layer_1" data-name="Layer 1" xmlns="http://www.w3.org/2000/svg" viewBox="0 0 300 300"><defs><style>.cls-1,.cls-2,.cls-3{fill:#010101;stroke-linecap:round;stroke-miterlimit:2.44;stroke-width:2.8px;}.cls-1{stroke:#a8dcf6;}.cls-2{stroke:#96d5f4;}.cls-3{stroke:#82cff3;}.cls-4{fill:#e51e39;}</style></defs><title>MRNA_Light_bg</title><path class="cls-1" d="M78.2,225.29h35"/><path class="cls-2" d="M133.55,225.29h35.07"/><path class="cls-3" d="M188.92,225.29H224"/><path class="cls-4" d="M122.64,74.87a39,39,0,0,0-20.37,5.79A48.2,48.2,0,0,0,88.61,94.8V77.44H75.88V178.31H88.61v-42.8a84.47,84.47,0,0,1,3.7-28.21,32.49,32.49,0,0,1,11.34-14.57,28.86,28.86,0,0,1,16.42-5.33,24.25,24.25,0,0,1,13.45,3.95,21.5,21.5,0,0,1,7.92,10.37,99.58,99.58,0,0,1,2.07,25.07v51.59h12.66V139c0-14.57,1.16-25.07,3.48-31.33A32.83,32.83,0,0,1,171,92.89a27.9,27.9,0,0,1,16.89-5.55A21.94,21.94,0,0,1,201,91.07a20.34,20.34,0,0,1,7.86,9.74c1.6,4.14,2.29,11.57,2.29,22.44v55.06h13V123.47c0-12.53-1.16-22.22-3.7-28.45a31.33,31.33,0,0,0-30.09-20.15A38.73,38.73,0,0,0,170,81.13a51.54,51.54,0,0,0-16,18,44.27,44.27,0,0,0-6.93-13.66,27.89,27.89,0,0,0-10.65-7.65,31.48,31.48,0,0,0-13.88-3.13Z"/></svg>