<?xml version="1.0" encoding="utf-8"?>
<!-- Generator: Adobe Illustrator 24.0.1, SVG Export Plug-In . SVG Version: 6.00 Build 0)  -->
<svg version="1.1" id="Layer_1" xmlns="http://www.w3.org/2000/svg" xmlns:xlink="http://www.w3.org/1999/xlink" x="0px" y="0px"
	 viewBox="0 0 300 300" style="enable-background:new 0 0 300 300;" xml:space="preserve">
<style type="text/css">
	.st0{fill:#73CBF2;}
	.st1{fill:#1BA2DC;}
	.st2{fill:#0680C4;}
</style>
<title>MRO_Light_bg</title>
<g>
	<path class="st0" d="M72.5,109.7c-1.8-0.3-3.7-0.5-5.6-0.5c-38.4,0-48.5,68.1-49.5,75.3H38C38.5,180.7,44.9,128.1,72.5,109.7"/>
	<path class="st1" d="M83.9,108.3c5.8-1.4,11.9-1.5,17.7-0.2c-3.4,2.1-6.5,4.6-9.4,7.4C89.7,112.8,86.9,110.4,83.9,108.3
		 M88.5,118.9c-2.5-2.7-5.4-4.9-8.7-6.7c-27.5,13.2-35.3,66.1-36.1,72.2h20.5c0.4-3.1,5.3-43,24.4-65.6"/>
	<path class="st2" d="M95.6,119.2c3-3.1,6.5-5.6,10.4-7.5c3.5,1.9,6.6,4.3,9.3,7.2c-3.9,4.6-7.2,9.7-9.9,15
		c-2.8-5.2-6.1-10.2-9.7-14.9 M110.1,108.3c5.8-1.4,11.9-1.5,17.7-0.2c-3.4,2.1-6.6,4.6-9.4,7.4
		C115.9,112.8,113.1,110.4,110.1,108.3 M102.3,139.5c-2.8-5.6-6.1-10.9-9.9-16c-16.5,20.2-21.7,55-22.5,61h20.4
		C92.2,169,96.2,153.9,102.3,139.5"/>
	<path class="st0" d="M209.5,115.5c-1.9,15.5-6,30.7-12,45.1c2.8,5.6,6.1,11,9.9,16c16.5-20.3,21.7-55,22.5-61L209.5,115.5z
		 M134,151.2c-4.1-9.8-9.4-19.1-15.6-27.7c-3.8,4.9-7,10.3-9.5,16c1.5,3,3,6.1,4.5,9.4c14,30.7,25,41.9,41,41.9
		c2.2,0,4.3-0.2,6.4-0.7c-9.1-6.7-17.3-18.8-26.5-38.9"/>
	<path class="st1" d="M160.4,151.2c-10.1-22.2-18.5-33.8-28.2-38.9c-3.6,1.8-6.9,4.1-9.7,7c6.8,9.1,12.5,19.1,16.9,29.6
		c10.1,22.4,18.5,33.8,28.2,38.9c3.6-1.8,6.9-4.1,9.8-7C170.5,171.7,164.8,161.8,160.4,151.2 M172,192c3.4-2.2,6.6-4.7,9.4-7.5
		c2.5,2.7,5.3,5.1,8.4,7.2c-3.1,0.7-6.2,1.1-9.4,1.1C177.6,192.8,174.8,192.5,172,192 M235.8,115.6c-0.4,3.1-5.3,42.9-24.4,65.5
		c2.5,2.7,5.4,5,8.7,6.7c27.3-13.2,35.1-64.3,36.1-72.2H235.8z"/>
	<path class="st2" d="M184.5,181.1c3.9-4.6,7.2-9.7,9.9-15c2.8,5.2,6.1,10.2,9.7,14.9c-3,3.1-6.5,5.6-10.4,7.5
		C190.3,186.5,187.2,184,184.5,181.1 M215.9,191.7c-3.1,0.8-6.2,1.1-9.4,1.1c-2.8,0-5.6-0.3-8.4-0.9c3.4-2.2,6.5-4.7,9.4-7.5
		C210.1,187.1,212.9,189.6,215.9,191.7 M186.6,151.2c-14-30.6-25-41.9-41-41.9c-2.2,0-4.3,0.2-6.4,0.7c9.1,6.7,17.3,18.8,26.5,39
		c4.1,9.8,9.4,19.1,15.6,27.7c3.9-4.9,7.2-10.3,9.8-16C189.5,157.7,188,154.5,186.6,151.2 M262,115.6c-0.4,3.7-7,56.5-34.6,74.8
		c1.8,0.3,3.7,0.5,5.6,0.5c38.5,0,48.5-68.1,49.5-75.3L262,115.6z"/>
</g>
</svg>
