<svg id="Layer_1" data-name="Layer 1" xmlns="http://www.w3.org/2000/svg" viewBox="0 0 300 300"><defs><style>.cls-1{fill:#fff;}</style></defs><title>MS_Light_bg</title><path class="cls-1" d="M265,155.18l0,.33-.07-.33-5.41-15.51h-3.08l7,20v.16c-.42,2-1.61,4.28-2.71,5a4.88,4.88,0,0,1-2.81.73,9,9,0,0,1-1.55-.22v2.42a12.47,12.47,0,0,0,2.11.3,6.27,6.27,0,0,0,3.81-1.15,12.23,12.23,0,0,0,3.37-5.4l7-21.88h-3.09Z"/><path class="cls-1" d="M254.22,150.34v-2c0-3.31-.86-5.75-2.49-7.25a8.43,8.43,0,0,0-5.94-1.9,8.83,8.83,0,0,0-3.62.72,7,7,0,0,0-2.72,2.09,12.09,12.09,0,0,0-2.23,7.65c0,3.59,1,6.32,2.88,8.14a8.81,8.81,0,0,0,6.23,2.32c4.53,0,6.74-2.46,7.67-4.71l-2.54-1.21a5.35,5.35,0,0,1-5.13,3.43,5.25,5.25,0,0,1-4.33-2.07,8.7,8.7,0,0,1-1.55-5.3Zm-3.07-2.5H240.54c.28-4.13,2-6.06,5.33-6.06,3.6,0,5.26,1.93,5.28,6.06Z"/><path class="cls-1" d="M70.47,142.32a8.35,8.35,0,0,0-11.76-1.16,8.48,8.48,0,0,0-1.16,1.16,13.27,13.27,0,0,0,0,14.81,8.35,8.35,0,0,0,11.75,1.16,8.55,8.55,0,0,0,1.17-1.16A13.27,13.27,0,0,0,70.47,142.32ZM64,157.69c-3.39,0-5.41-2.94-5.41-8s2-8,5.41-8,5.41,2.94,5.41,8S67.4,157.69,64,157.69Z"/><path class="cls-1" d="M79.78,148.46c.77-4.15,2.94-6.11,6.71-6.11v-2.94c-3.2,0-5.08,1.25-6.71,4.18h0v-3.9H76.63v20.18h3.15Z"/><path class="cls-1" d="M157,139a3.93,3.93,0,0,1,1.3-3.12,5.42,5.42,0,0,1,3.67-1.1,6.72,6.72,0,0,1,4.25,1.37,6.22,6.22,0,0,1,2.12,3.38l2.94-.36c-1.29-4.39-4.45-7.08-9.25-7.08a9.2,9.2,0,0,0-6.06,2.09,6.66,6.66,0,0,0-2.29,5.05,6.08,6.08,0,0,0,2.7,5.17,22.88,22.88,0,0,0,5.73,2.63c3.54,1.25,6.86,2.44,6.86,5.65a4.59,4.59,0,0,1-1.4,3.47,6.46,6.46,0,0,1-4.42,1.38c-3.38,0-5.81-1.89-7.2-5.52l-3,.81a14.88,14.88,0,0,0,3.35,5,9.52,9.52,0,0,0,6.69,2.34c3.24,0,5.7-.85,7.31-2.52a7.83,7.83,0,0,0,2-5.53,6.25,6.25,0,0,0-2.74-5.35,23.52,23.52,0,0,0-6-2.65C160.19,143,157,141.92,157,139Z"/><path class="cls-1" d="M177.36,142.14h-3v-2.49h3v-6.59h3.16v6.59h3.39v2.49h-3.39v13.78c0,.92.21,1.77,2.33,1.77h1.06v2.22a10.64,10.64,0,0,1-2.09.3,5.81,5.81,0,0,1-3.22-.7,2.76,2.76,0,0,1-1.24-2.43Z"/><path class="cls-1" d="M231.75,155.92c0,.92.29,1.77,2.41,1.77h1.06v2.22a10.43,10.43,0,0,1-2.09.3,5.81,5.81,0,0,1-3.22-.7,2.8,2.8,0,0,1-1.32-2.43V131.86h3.17Z"/><path class="cls-1" d="M132.37,144.91c1.07-1.15,3.46-3.08,5.65-3.08s3.17,1.08,3.17,3.5v14.55h3.15V145.25c0-4.37-3.11-5.88-6.05-5.88a8.08,8.08,0,0,0-5.88,3.09h0v-2.71h-3.15v20.17h3.11Z"/><path class="cls-1" d="M120.83,157.37a2.46,2.46,0,0,0,1.37,2.24,4.68,4.68,0,0,0,2.77.19v-2.14a1.07,1.07,0,0,1-1.17-1,1,1,0,0,1,0-.25v-11a5.48,5.48,0,0,0-2.31-4.7,8.36,8.36,0,0,0-4.83-1.37,8.1,8.1,0,0,0-7.51,4.32L111.7,145a5,5,0,0,1,5-3.14c2.68,0,4,1.19,4,3.55v.67a.76.76,0,0,1,0,.3c-.11.12-.37.22-1,.29-3.76.41-6.26,1-8.1,2.23a6.33,6.33,0,0,0-3.24,5.53,5.87,5.87,0,0,0,5.93,5.81h0C117.59,160.37,119.78,159,120.83,157.37Zm0-3.37c-.14,1.78-3.42,3.92-6.12,3.76a3.37,3.37,0,0,1-3.09-3.22c-.25-3.27,2.25-4.65,7.75-5.26a4.38,4.38,0,0,0,1.46-.38Z"/><path class="cls-1" d="M199.53,157.37a2.44,2.44,0,0,0,1.36,2.24,4.68,4.68,0,0,0,2.77.19v-2.14a1.08,1.08,0,0,1-1.17-1,1,1,0,0,1,0-.25v-11a5.45,5.45,0,0,0-2.31-4.7,8.34,8.34,0,0,0-4.83-1.37,8.16,8.16,0,0,0-7.52,4.32l2.56,1.32a5,5,0,0,1,5-3.14c2.7,0,4.05,1.19,4.05,3.55v.67a.54.54,0,0,1-.06.3c-.1.12-.36.22-1,.29-3.76.41-6.26,1-8.1,2.23a6.37,6.37,0,0,0-3.24,5.53,5.87,5.87,0,0,0,5.93,5.81H193C196.28,160.37,198.47,159,199.53,157.37Zm0-3.37c-.15,1.78-3.43,3.92-6.12,3.76a3.37,3.37,0,0,1-3.1-3.22c-.24-3.27,2.25-4.65,7.75-5.26a4.43,4.43,0,0,0,1.47-.38Z"/><path class="cls-1" d="M39.33,154.48l-6.69-22H27.35v27.35h3.17v-25l.07.1,7.49,24.92h2.46L48,135l.07-.1v25h3.16V132.52H46l-6.66,22v0Z"/><path class="cls-1" d="M211.09,144.91c1.08-1.15,3.47-3.08,5.66-3.08s3.17,1.08,3.17,3.5v14.55h3.15V145.25c0-4.37-3.1-5.88-6-5.88a8.09,8.09,0,0,0-5.93,3.09h0v-2.71h-3.15v20.17h3.15Z"/><path class="cls-1" d="M102,139.7l-.67,2.12a5.93,5.93,0,0,0-5.06-2.51c-3.56,0-8.59,2.4-8.59,10.43,0,7.84,5,10.44,8.43,10.44a6.49,6.49,0,0,0,5-2.67l.16-.08v3.83c0,2.69-2.32,4.34-4.8,4.34a14.92,14.92,0,0,1-6.25-1.28v2.73a17,17,0,0,0,5.87,1c5.6,0,8.26-3.09,8.26-7.55V139.7Zm-.7,14.3a5.59,5.59,0,0,1-4.8,3.69c-3.24,0-5.52-2-5.52-8.09,0-5.11,2-7.84,5.52-7.84a6,6,0,0,1,4.8,2.61Z"/></svg>