<svg id="Layer_1" data-name="Layer 1" xmlns="http://www.w3.org/2000/svg" viewBox="0 0 300 300"><path d="M231.84389,233.81351a1.76835,1.76835,0,0,1-1.29348-.47036L60.74792,63.4231a1.74614,1.74614,0,1,1,2.46939-2.46943L233.13737,230.87372a1.70514,1.70514,0,0,1,0,2.46943A2.46586,2.46586,0,0,1,231.84389,233.81351Z" fill="#fff"/><path d="M62.159,233.93111a1.76834,1.76834,0,0,1-1.29348-.47036,1.70514,1.70514,0,0,1,0-2.46943L230.78554,61.18886a1.74613,1.74613,0,1,1,2.46939,2.46942L63.45244,233.46075A1.76838,1.76838,0,0,1,62.159,233.93111Z" fill="#fff"/><path d="M147.2954,269.091a1.80852,1.80852,0,0,1-1.76387-1.76387V26.96966a1.76388,1.76388,0,1,1,3.52775,0v240.3575A1.80853,1.80853,0,0,1,147.2954,269.091Z" fill="#fff"/><path d="M267.47417,148.91228H26.99907a1.76388,1.76388,0,0,1,0-3.52775H267.35654a1.80851,1.80851,0,0,1,1.76387,1.76388,1.70853,1.70853,0,0,1-1.64631,1.76387Z" fill="#fff"/><path d="M251.12889,88.82291H42.40356a1.76388,1.76388,0,0,1,0-3.52775H251.12889a1.76388,1.76388,0,1,1,0,3.52775Z" fill="#fff"/><path d="M250.89369,209.00167H42.40356a1.76388,1.76388,0,0,1,0-3.52776H250.89369a1.80852,1.80852,0,0,1,1.76388,1.76388A1.73174,1.73174,0,0,1,250.89369,209.00167Z" fill="#fff"/><path d="M147.2954,269.091a1.80852,1.80852,0,0,1-1.76387-1.76387V26.96966a1.76388,1.76388,0,1,1,3.52775,0v240.3575A1.80853,1.80853,0,0,1,147.2954,269.091Z" fill="#fff"/><path d="M87.20606,252.62819a1.80854,1.80854,0,0,1-1.76388-1.76388V42.84454a1.76388,1.76388,0,0,1,3.52775,0V250.86431A1.73177,1.73177,0,0,1,87.20606,252.62819Z" fill="#fff"/><path d="M207.38475,252.62819a1.80853,1.80853,0,0,1-1.76387-1.76388V43.1973a1.76388,1.76388,0,0,1,3.52775,0v207.667A1.73177,1.73177,0,0,1,207.38475,252.62819Z" fill="#fff"/><path d="M267.47417,148.91228a1.76835,1.76835,0,0,1-1.29348-.47036L146.00192,28.14557a1.74614,1.74614,0,0,1,2.4694-2.46942L268.65009,145.85491a1.70514,1.70514,0,0,1,0,2.46943,1.63277,1.63277,0,0,1-1.17592.588Z" fill="#fff"/><path d="M147.2954,269.091a1.76835,1.76835,0,0,1-1.29348-.47036L25.82316,148.44192a1.74614,1.74614,0,1,1,2.46939-2.46943L148.47132,266.15124a1.70514,1.70514,0,0,1,0,2.46943A1.68473,1.68473,0,0,1,147.2954,269.091Z" fill="#fff"/><path d="M147.2954,269.091a1.76835,1.76835,0,0,1-1.29348-.47036,1.70514,1.70514,0,0,1,0-2.46943L266.18069,145.97249a1.74614,1.74614,0,1,1,2.4694,2.46943L148.47132,268.62067A1.68473,1.68473,0,0,1,147.2954,269.091Z" fill="#fff"/><path d="M26.99907,148.91228a1.76835,1.76835,0,0,1-1.29348-.47036,1.70514,1.70514,0,0,1,0-2.46943L146.00192,25.67614a1.74614,1.74614,0,1,1,2.4694,2.46943L28.29255,148.44191a2.46582,2.46582,0,0,1-1.29348.47036Z" fill="#fff"/><path d="M146.94264,268.97343C79.68016,268.97343,25,214.29328,25,147.14839c0-67.26247,54.68016-121.825,121.94264-121.825s121.94265,54.68016,121.94265,121.825S214.20513,268.97343,146.94264,268.97343Zm0-240.23991c-65.26341,0-118.41489,53.15146-118.41489,118.29727,0,65.26341,53.15148,118.29729,118.41489,118.29729s118.4149-53.03388,118.4149-118.29729S212.20606,28.73351,146.94264,28.73352Z" fill="#fff"/><path d="M157.2907,147.03083a10.2305,10.2305,0,1,1-10.23049-10.23048,10.23784,10.23784,0,0,1,10.23049,10.23048" fill="#fff"/><path d="M154.8213,207.23779a7.50269,7.50269,0,0,1-7.5259,7.52586,7.52586,7.52586,0,1,1,0-15.05172,7.5027,7.5027,0,0,1,7.5259,7.52586" fill="#fff"/><path d="M94.73188,87.059a7.5259,7.5259,0,0,1-15.05179,0,7.5259,7.5259,0,0,1,15.05179,0" fill="#fff"/><path d="M97.31892,207.23779a10.2305,10.2305,0,1,1-10.2305-10.23048,10.23785,10.23785,0,0,1,10.2305,10.23048" fill="#fff"/><path d="M275,147.14841a7.5259,7.5259,0,0,1-15.0518,0,7.5259,7.5259,0,0,1,15.0518,0" fill="#fff"/><path d="M154.8213,267.32716a7.5259,7.5259,0,1,1-7.5259-7.52587,7.57863,7.57863,0,0,1,7.5259,7.52587" fill="#fff"/><path d="M217.49768,250.86431a10.2305,10.2305,0,1,1-10.23049-10.23047,10.23787,10.23787,0,0,1,10.23049,10.23047" fill="#fff"/><path d="M49.92946,207.23779a7.5027,7.5027,0,0,1-7.5259,7.52586,7.52586,7.52586,0,1,1,0-15.05172,7.50271,7.50271,0,0,1,7.5259,7.52586" fill="#fff"/><path d="M217.49768,43.19732a10.2305,10.2305,0,1,1-10.23049-10.23048,10.23784,10.23784,0,0,1,10.23049,10.23048" fill="#fff"/><path d="M52.51649,87.17662A10.2305,10.2305,0,1,1,42.286,76.94614,10.23784,10.23784,0,0,1,52.51649,87.17662" fill="#fff"/><path d="M258.65479,87.059a7.5259,7.5259,0,0,1-15.0518,0,7.5259,7.5259,0,0,1,15.0518,0" fill="#fff"/><path d="M214.91065,147.266a7.5027,7.5027,0,0,1-7.5259,7.52586,7.52587,7.52587,0,1,1,0-15.05173,7.50271,7.50271,0,0,1,7.5259,7.52587" fill="#fff"/><path d="M69.5673,62.12959a7.5259,7.5259,0,1,1-7.5259-7.52587,7.57864,7.57864,0,0,1,7.5259,7.52587" fill="#fff"/><path d="M94.72875,43.20064a7.52581,7.52581,0,0,1-15.05162,0,7.5026,7.5026,0,0,1,7.52581-7.52581,7.57858,7.57858,0,0,1,7.52581,7.52581" fill="#fff"/></svg>