<svg id="Layer_1" data-name="Layer 1" xmlns="http://www.w3.org/2000/svg" viewBox="0 0 300 300"><defs><style>.cls-1{fill:#fff;}.cls-2{fill-rule:evenodd;}</style></defs><ellipse class="cls-1" cx="150" cy="150" rx="113.99" ry="114.31"/><path class="cls-2" d="M222.58,202,181.17,66.87,150.64,170.78h-.48L119,66.87,77.42,202H87.81s1.92-21.9,10.39-36c4.64-7.68,11-16.15,20.79-16,6.71.16,13.1,6.07,20.3,16.15,4.32,6.23,11,25.42,11,25.42s6.71-19.19,11-25.42c7.51-10.08,13-16,19.82-16.15,9.6-.16,16.79,8.31,21.27,16,8.47,14.07,9.75,36,9.75,36Z"/></svg>