<svg id="Layer_1" data-name="Layer 1" xmlns="http://www.w3.org/2000/svg" viewBox="0 0 300 300"><defs><style>.cls-1{fill:#fff;}</style></defs><title>MTB_1</title><path class="cls-1" d="M192.93,131.49h4.78s0-17.08,15.56-17.08H218V184.6h-7.48c-4.78-.47-8.75-3.54-12.59-7.19l-5.6-5.43a36.79,36.79,0,0,0,4-6.79c1.29-3,2.25-8.57,2.82-9.95a10.71,10.71,0,0,1,.68-1.3,7.52,7.52,0,0,1,3.25-2.7,8.37,8.37,0,0,1,3.2-.7H207v-4H183.61v4h1.58a7.77,7.77,0,0,1,7.74,7.82c0,5.57-4.19,10.15-4.19,10.15l-21.39-20.77c9.55-3.48,17.6-8.25,17.6-17.23,0-9.46-7.21-16.1-20.22-16.1-13.2,0-22,7.29-22,19.09a22.18,22.18,0,0,0,7,16.29c-10.86,4.21-17.32,9.74-17.32,19.85,0,14.22,12.83,19.94,27.06,19.94a38.68,38.68,0,0,0,23.31-7.3c.08-.07,4,6.36,15.72,6.36l44.43,0v-4H234.4V114.41h4.75c15.57,0,15.58,17.08,15.58,17.08h4.77V110.42H192.93Zm-28.67-13.1c5.15,0,8.33,4.14,8.33,10A16.82,16.82,0,0,1,163.42,144c-4-3.93-7.49-9.29-7.49-15.75,0-5.8,3.18-9.85,8.33-9.85m-.47,64.37c-9.26,0-16.19-6.85-16.19-16,0-6.46,1.49-10.39,5.81-13.2l25.82,25.36c-4.21,2.91-9.64,3.86-15.44,3.86"/><path class="cls-1" d="M124.51,114.44h9.26v-4h-25S88.17,162,87.51,163.63L66.09,110.42H40.5v4h9.26v70.14H42.08v4H64.67v-4h-10V123.35L79.81,186.8h4.06s23.66-60.47,24.82-63.45c0,3.28,0,61.25,0,61.25h-7.87v4h31.62v-4h-7.9Z"/></svg>