<?xml version="1.0" encoding="utf-8"?>
<!-- Generator: Adobe Illustrator 24.0.1, SVG Export Plug-In . SVG Version: 6.00 Build 0)  -->
<svg version="1.1" id="Layer_1" xmlns="http://www.w3.org/2000/svg" xmlns:xlink="http://www.w3.org/1999/xlink" x="0px" y="0px"
	 viewBox="0 0 300 300" style="enable-background:new 0 0 300 300;" xml:space="preserve">
<style type="text/css">
	.st0{fill-rule:evenodd;clip-rule:evenodd;fill:#489136;stroke:#489136;stroke-width:2.823568e-04;stroke-miterlimit:2.6131;}
	.st1{fill-rule:evenodd;clip-rule:evenodd;fill:#489136;}
	.st2{fill-rule:evenodd;clip-rule:evenodd;fill:#FFFFFF;}
</style>
<title>MTD_1</title>
<g>
	<polygon class="st0" points="141.9,134.3 103.3,173 123.2,156.5 120.8,156.5 122.6,155.4 124.3,154 125.1,152.3 125.1,155.4 
		141.9,134.3 	"/>
	<polygon class="st0" points="100.8,170.5 117.6,156.5 115.5,156.5 117.6,155.1 124.3,148.4 125.1,146.7 125.1,149.8 139.4,131.9 
		100.8,170.5 	"/>
	<polygon class="st0" points="95.6,165.3 106.4,156.5 105,156.5 106.1,155.8 124.3,137.5 125.1,136.4 125.1,138.3 133.8,127 
		95.6,165.3 	"/>
	<polygon class="st0" points="92.7,162.8 100.8,156.5 99.8,156.5 100.4,156.1 124.3,132.2 125.3,130.8 125.3,132.2 131.4,124.2 
		92.7,162.8 	"/>
	<polygon class="st0" points="106.1,175.8 124,161.1 125.1,158.6 125.1,160.7 129.5,156.5 127.8,156.5 130.6,154.8 144.7,137.2 
		106.1,175.8 	"/>
	<polygon class="st0" points="108.5,178.6 124.3,165.3 125.1,163.5 125.1,165.7 134.1,156.5 132.4,156.5 134.9,155.1 147.1,140 
		108.5,178.6 	"/>
	<polygon class="st0" points="110.9,181 124.3,170.1 125.1,168.4 125.1,170.1 138.7,156.5 137.7,156.5 139.4,155.4 150,142.5 
		110.9,181 	"/>
	<polygon class="st0" points="113.8,183.5 124.7,174.7 125.1,173.3 125.1,174.7 143.6,156.5 142.2,156.5 144,155.4 152.4,144.9 
		113.8,183.5 	"/>
	<polygon class="st0" points="116.3,186.4 124.7,179.7 125.1,178.3 125.1,179.7 148.2,156.5 147.1,156.5 148.9,155.4 154.8,147.7 
		116.3,186.4 	"/>
	<polygon class="st0" points="119,188.8 124.7,184.2 125.1,183.1 125.1,184.2 152.7,156.5 152.1,156.5 153.1,156.1 157.7,150.2 
		119,188.8 	"/>
	<polygon class="st0" points="121.5,191.6 124.7,188.8 125.1,188.1 125.1,188.8 157.7,156.5 156.9,156.5 157.7,156.1 160.1,153 
		121.5,191.6 	"/>
	<polygon class="st0" points="90.3,160 94.8,156.5 94.5,156.5 125.3,125.6 125.3,126.3 128.5,121.7 90.3,160 	"/>
	<polygon class="st0" points="97.9,168 112,156.5 110.3,156.5 111.7,155.4 124.3,143.1 125.3,141.7 125.3,143.9 136.6,129.5 
		97.9,168 	"/>
	<polygon class="st1" points="90,191.7 205.2,76.7 204.6,76.7 89.7,191.5 90,191.7 	"/>
	<polygon class="st1" points="87.2,189.6 200.2,76.7 199.7,76.7 87,189.4 87.2,189.6 	"/>
	<polygon class="st1" points="84.8,186.9 195,76.7 194.5,76.7 84.5,186.6 84.8,186.9 	"/>
	<polygon class="st1" points="82.3,183.7 189.4,76.7 188.9,76.7 82,183.4 82.3,183.7 	"/>
	<polygon class="st1" points="79.5,181.6 184.4,76.7 183.9,76.7 79.2,181.3 79.5,181.6 	"/>
	<polygon class="st1" points="76.7,179.1 179.2,76.7 178.6,76.7 76.4,178.8 76.7,179.1 	"/>
	<polygon class="st1" points="74.2,176.4 173.9,76.7 173.4,76.7 74,176.1 74.2,176.4 	"/>
	<polygon class="st1" points="71.4,173.9 168.6,76.7 168.1,76.7 71.1,173.6 71.4,173.9 	"/>
	<polygon class="st1" points="68.9,171 163.4,76.7 162.8,76.7 68.7,170.8 68.9,171 	"/>
	<polygon class="st1" points="66.6,168.6 158.5,76.7 157.9,76.7 66.3,168.3 66.6,168.6 	"/>
	<polygon class="st1" points="63.7,166.1 153.1,76.7 152.6,76.7 63.4,165.8 63.7,166.1 	"/>
	<polygon class="st1" points="61.2,163.4 147.9,76.7 147.4,76.7 61,163.1 61.2,163.4 	"/>
	<polygon class="st1" points="58.4,160.9 142.6,76.7 142.1,76.7 58.1,160.6 58.4,160.9 	"/>
	<polygon class="st1" points="56,158 137.4,76.7 136.8,76.7 55.7,157.8 56,158 	"/>
	<polygon class="st1" points="53.2,155.6 132.1,76.7 131.6,76.7 52.9,155.3 53.2,155.6 	"/>
	<polygon class="st1" points="50.7,153.2 127.2,76.7 126.7,76.7 50.4,152.9 50.7,153.2 	"/>
	<polygon class="st1" points="47.9,150.3 121.6,76.7 121.1,76.7 47.6,150.1 47.9,150.3 	"/>
	<polygon class="st1" points="45.5,147.9 116.7,76.7 116.1,76.7 45.2,147.6 45.5,147.9 	"/>
	<polygon class="st1" points="92.5,194.6 210.4,76.7 209.8,76.7 92.2,194.3 92.5,194.6 	"/>
	<polygon class="st1" points="94.9,197.4 215.7,76.7 215.2,76.7 94.7,197.1 94.9,197.4 	"/>
	<polygon class="st1" points="97.8,199.8 220.9,76.7 220.4,76.7 97.5,199.5 97.8,199.8 	"/>
	<polygon class="st1" points="100.3,202.6 226.2,76.7 225.7,76.7 100,202.4 100.3,202.6 	"/>
	<polygon class="st1" points="103,205.1 231.5,76.7 230.9,76.7 102.7,204.8 103,205.1 	"/>
	<polygon class="st1" points="105.5,208 236.8,76.7 236.2,76.7 105.2,207.7 105.5,208 	"/>
	<polygon class="st1" points="107.9,210.3 241.7,76.7 241.2,76.7 107.7,210.1 107.9,210.3 	"/>
	<polygon class="st1" points="110.8,212.8 246.9,76.7 246.4,76.7 110.5,212.5 110.8,212.8 	"/>
	<polygon class="st1" points="113.2,215.6 252.2,76.7 251.6,76.7 112.9,215.4 113.2,215.6 	"/>
	<polygon class="st1" points="116,218.1 257.5,76.7 256.9,76.7 115.7,217.8 116,218.1 	"/>
	<polygon class="st1" points="118.5,220.9 262.7,76.7 262.1,76.7 118.2,220.6 118.5,220.9 	"/>
	<polygon class="st1" points="121.3,223.3 268,76.7 267.5,76.7 121,223.1 121.3,223.3 	"/>
	<path class="st2" d="M191,196.4c2.4,0,3.3-2.5,3.2-5.2c0.1-2.8-0.8-5.1-3.2-5.3h-1.3v10.5H191L191,196.4z M190.6,199.6h-4.5V183
		h4.5c5.3-0.3,7.1,3.4,7.4,8.2C198.1,195.4,195.9,199.8,190.6,199.6L190.6,199.6z M165.7,191c-0.2-4.9-2.4-8.5-6.3-8.6
		c-4.4,0.1-6.6,3.8-6.7,8.8c0.1,4.8,2.5,8.7,6.7,8.7C163.3,199.8,165.6,195.8,165.7,191L165.7,191z M159,185.5
		c2.1,0.1,3,2.2,2.8,5.7c0.1,3-0.6,5.5-2.8,5.6c-1.8-0.1-2.6-2.6-2.4-5.6C156.5,187.8,157.2,185.6,159,185.5L159,185.5z
		 M211.7,191.1c-0.2-4.9-2.4-8.5-6.3-8.6c-4.4,0.1-6.6,3.8-6.7,8.8c0.1,4.8,2.5,8.7,6.7,8.7C209.4,200,211.7,196,211.7,191.1
		L211.7,191.1z M205.1,185.6c2.1,0.1,3,2.2,2.8,5.7c0.1,3-0.6,5.5-2.8,5.6c-1.8-0.1-2.6-2.6-2.4-5.6
		C202.5,188,203.2,185.7,205.1,185.6L205.1,185.6z M167.2,182.7h3.5V196h4.2v3.6h-7.7V182.7L167.2,182.7z M143.6,182.7h9.1v3.5H150
		v13.4h-3.6v-13.4h-2.7V182.7L143.6,182.7z M176.3,182.7h8.1v3.1h-4.5v3.2h4.5v3.1h-4.5v3.8h4.5v3.6h-8.1V182.7L176.3,182.7z
		 M57.3,182.7h9.1v3.5H64v13.4H60v-13.4h-2.7V182.7L57.3,182.7z M77.2,182.7h3.6V196h3.8v3.6h-7.4V182.7L77.2,182.7z M48.9,182.7
		h7.7v3.1h-4.2v3.2h4.2v3.1h-4.2v3.8h4.2v3.6h-7.7V182.7L48.9,182.7z M39.7,193.2l2.5-10.5h4.9v16.9h-3.6v-12.4l-2.5,12.4h-2.7
		l-2.8-12.4v12.4H32v-16.9h5.2L39.7,193.2L39.7,193.2z M67.1,182.7h9.2v3.5h-2.8v13.4h-3.5v-13.4h-2.8V182.7L67.1,182.7z
		 M85.7,182.7h8.1v3.1h-4.5v3.2h4.5v3.1h-4.5v3.8h4.5v3.6h-8.1V182.7L85.7,182.7z M100.4,185.8H99v4.2l1.4,0c1.2,0,2-0.9,2.1-2.1
		C102.4,186.7,101.7,185.8,100.4,185.8L100.4,185.8z M99,193.1v6.5h-3.8v-16.9h6c2.7-0.1,5,2.1,4.9,5.2c0,2.6-1.5,4-3.6,4.6l4.2,7.1
		h-3.8L99,193.1L99,193.1L99,193.1z"/>
</g>
</svg>
