<?xml version="1.0" encoding="utf-8"?>
<!-- Generator: Adobe Illustrator 24.0.1, SVG Export Plug-In . SVG Version: 6.00 Build 0)  -->
<svg version="1.1" id="Layer_1" xmlns="http://www.w3.org/2000/svg" xmlns:xlink="http://www.w3.org/1999/xlink" x="0px" y="0px"
	 viewBox="0 0 300 300" style="enable-background:new 0 0 300 300;" xml:space="preserve">
<style type="text/css">
	.st0{fill:#FFFFFF;}
</style>
<g>
	<g>
		<g id="g7627">
			<path id="path7629" class="st0" d="M201.2,169.2v33.7h29.6v-59.5c-9.3,9.5-19.2,17.9-29.6,26.2"/>
		</g>
		<g id="g7631">
			<path id="path7633" class="st0" d="M230.9,143.6c32.6-33.7,46.2-64.9,35.6-80.1c-11-15.7-45-9.4-89.3,14
				c-1.7,0.8-3.5,1.9-5.1,2.9c-2.2,1.5-0.9,2.7,0.7,2c1.9-0.7,3.7-1.4,5.6-2.3c33.1-15.7,59-18.5,69.1-7.6
				c15.4,16.8-16.2,71.6-70.7,112c-7.3,5.3-18.5,13.3-25.9,17.7l-1.5,0.9c-2,1.3-3.7,2.4-5,3.5c-1.3,1-1,2.7,1.3,1.6
				c1.7-0.8,3.5-1.6,5.1-2.7l1.3-0.8c8.2-5,20.5-13.4,28.8-19.3c7.2-5.1,14-10.1,20.4-15.3C211.7,162.2,221.6,153.2,230.9,143.6"/>
		</g>
		<g id="g7635">
			<path id="path7637" class="st0" d="M85.4,245.1H115v-30.8c8.1-4.7,16.3-10.1,24.4-15.5c1.6-1,3.1-2.3,4.6-3.6
				c1.9-1.7,0.6-2.7-0.9-1.9s-3.4,1.9-5.3,3.1c-45.8,29.2-76.7,38.2-88,22.7c-9.9-13.4,6.4-39.5,35.8-69v68.1
				c10.3-3.7,20.1-8.2,29.6-13.7v-63.2l6.5,13.9c7.2,15.3,20.1,24.4,36.6,24.4s29.5-9.1,36.6-24.4l6.5-13.9v16.3
				c9.8-9.3,18.6-19.4,26.5-30.4c0.8-0.9,0.9-2.3,0.3-3.4c-6.8-14.1-23.7-20.1-37.9-13.3c-5.8,2.8-10.4,7.4-13.2,13.1L164.6,150
				c-1.7,3.6-6,5-9.6,3.2c-1.4-0.7-2.5-1.9-3.2-3.2l-12.4-26.3c-2.4-4.7-6-8.8-10.6-11.6c8.4-6.8,17.2-13.2,26.5-18.9
				c1.7-1,3.4-2.2,5-3.5c1.3-1,1-2.7-1.3-1.6c-1.9,0.8-3.6,1.6-5.3,2.7c-8.9,5.3-17.9,10.9-26.5,16.8l-3.1,2.2
				c-3.2-1.3-6.7-2-10.3-2c-15.7,0-28.3,12.7-28.3,28.3l0,0v3.9c-41.8,37.3-63.7,74.2-52.3,90.7c8.4,12,28.5,9.3,52.3-1.2
				L85.4,245.1"/>
		</g>
	</g>
	<g>
		<path class="st0" d="M252.5,148.2c0,3.6-2.8,6.5-6.5,6.5s-6.6-2.8-6.6-6.5c0-3.6,2.9-6.4,6.6-6.4
			C249.6,141.8,252.5,144.7,252.5,148.2z M241,148.2c0,2.9,2.1,5.1,5,5.1c2.8,0,4.9-2.2,4.9-5.1s-2.1-5.1-4.9-5.1
			C243.1,143.1,241,145.4,241,148.2z M245,151.5h-1.5v-6.4c0.6-0.1,1.4-0.2,2.4-0.2c1.2,0,1.7,0.2,2.2,0.5c0.3,0.2,0.6,0.8,0.6,1.4
			c0,0.7-0.6,1.3-1.3,1.5v0.1c0.6,0.2,0.9,0.7,1.2,1.5c0.2,0.9,0.3,1.4,0.5,1.6h-1.6c-0.2-0.2-0.3-0.8-0.5-1.5c-0.1-0.7-0.5-1-1.3-1
			H245V151.5L245,151.5z M245,148h0.7c0.8,0,1.5-0.2,1.5-0.9c0-0.6-0.5-0.9-1.4-0.9c-0.3,0-0.7,0-0.8,0.1V148L245,148z"/>
	</g>
</g>
</svg>
