<svg id="Layer_1" data-name="Layer 1" xmlns="http://www.w3.org/2000/svg" viewBox="0 0 300 300"><defs><style>.cls-1{fill:#01568a;}.cls-2{fill:#fff;}</style></defs><path class="cls-1" d="M267.67,186.82v-97H32.33V204a129.43,129.43,0,0,1,49.79-11.86c41.22-1.52,58.27,9.71,97.36,13.43,47.84,4.55,79.08-11.86,86.38-16.6,1.78-1.21,1.51-1.54,1.7-1.81Z"/><path class="cls-2" d="M86.5,149.13,61,117.08H50v52.05H61.82V136l26.31,33.1H98.29v-52H86.5Zm45.38,10.33c-9.31,0-15.75-7.43-15.75-16.35V143c0-8.93,6.61-16.21,15.75-16.21,5.43,0,9.71,2.24,13.89,5.88l7.61-8.41c-5.06-4.76-11.19-8-21.43-8-16.69,0-28.33,12.12-28.33,26.93v.14c0,14.95,11.86,26.76,27.86,26.76,10.49,0,16.69-3.57,22.27-9.28l-7.6-7.36C141.89,157.08,138.09,159.46,131.88,159.46Zm39.67-42.24h-12v52.05h39v-10.4H171.55Zm66.6,0v20.6H216.1v-20.6h-12v52.05h12v-20.9h22.05v20.9h11.94V117.22Z"/></svg>