<?xml version="1.0" encoding="utf-8"?>
<!-- Generator: Adobe Illustrator 24.0.1, SVG Export Plug-In . SVG Version: 6.00 Build 0)  -->
<svg version="1.1" id="Layer_1" xmlns="http://www.w3.org/2000/svg" xmlns:xlink="http://www.w3.org/1999/xlink" x="0px" y="0px"
	 viewBox="0 0 300 300" style="enable-background:new 0 0 300 300;" xml:space="preserve">
<style type="text/css">
	.st0{fill:#0996C7;}
</style>
<title>NDAQ_Light_bg</title>
<g>
	<g>
		<path class="st0" d="M206,58.3l-47.8,131.4c-1.2,3.3-4.2,5.6-7.7,6l0,0H201c3.9,0,7.3-2.4,8.6-6l47.9-131.4L206,58.3z"/>
	</g>
	<path class="st0" d="M146.3,193.9c2.9,0,5.6-1.4,7.2-3.8c0.5-0.6,0.9-1.4,1.2-2.1l17.4-48.3l-10.3-28.2c-1.9-4.4-6.9-6.5-11.4-4.6
		c-1.5,0.6-2.8,1.7-3.7,3c-0.5,0.7-0.8,1.4-1.1,2.1l-17.5,48.4l10.3,28.3c1.4,3.2,4.5,5.2,8,5.2"/>
	<g>
		<path class="st0" d="M150.1,104.3H99c-3.9,0-7.3,2.4-8.6,6L42.5,241.8h51.6L142,110.3c1.3-3.5,4.5-5.9,8.3-6L150.1,104.3z"/>
	</g>
</g>
</svg>
