<svg id="Layer_1" data-name="Layer 1" xmlns="http://www.w3.org/2000/svg" viewBox="0 0 300 300"><title>Consolidated list_logos</title><path id="path3295" d="M79.72312,192.012h-1.0556l9.2912-43.66433h13.26594L105.625,174.0235l5.46316-25.671h9.93322L111.735,192.012H98.748l-4.35705-27.18351L88.608,192.012Z" fill="#fff"/><g id="g3299"><g id="g3305"><path id="path3307" d="M130.50615,169.17325a27.03324,27.03324,0,0,0-1.95731,6.64379,42.30262,42.30262,0,0,0-1.1638,7.6008,2.76935,2.76935,0,0,0,.4232,1.86353c.18755.21641.56026.3679,1.36579.3679a2.66642,2.66642,0,0,0,2.72436-1.63991c.81033-1.41629,1.59181-4.09977,2.532-8.54579a32.06628,32.06628,0,0,0,.9017-5.90319c-.16351-1.8996-.238-2.09677-1.88757-2.24585a3.00525,3.00525,0,0,0-2.93837,1.85872m-2.443,23.418c-3.80641,0-6.46585-.80793-8.18992-2.45265-1.71444-1.64471-2.30356-3.97954-2.30116-6.61012a37.3225,37.3225,0,0,1,1.01473-7.6008c1.60624-8.02641,4.67445-15.62,15.97346-15.54786,3.89538-.00241,6.57406.86564,8.27889,2.52478,1.70964,1.664,2.26749,3.97954,2.26269,6.48028a34.18858,34.18858,0,0,1-.91133,6.90107c-1.82746,9.1301-5.03755,16.3053-15.947,16.3053Z" fill="#fff"/></g></g><g id="g3317"><path id="path3319" d="M159.42237,160.95969h1.0556l-.37992,1.78418a10.62156,10.62156,0,0,1,7.1752-2.36368H168.324l-1.92846,9.0772-.73579-.04809c-.35107-.02886-.6853-.03848-1.00511-.03848-5.67234.08657-6.14123,3.20287-6.83374,5.98254l-3.54432,16.65876h-9.938l6.60291-31.05243h8.48087" fill="#fff"/></g><g id="g3321"><path id="path3323" d="M178.07692,169.411a36.82581,36.82581,0,0,0-1.88517,6.99,38.92628,38.92628,0,0,0-1.07724,7.1271c.15389,2.06552.28855,2.18574,1.51006,2.30116,1.02675-.024,1.6351-.428,2.45746-1.98857a37.085,37.085,0,0,0,2.24345-7.798,38.94225,38.94225,0,0,0,1.10369-6.82654c-.14427-1.75051-.21881-1.96692-1.46918-2.07753-1.39705.03607-2.09678.65644-2.88307,2.2723m1.30808,22.60043h-1.05319l.31259-1.48121a9.73365,9.73365,0,0,1-6.29272,2.06311h-.11783c-2.59932.00961-4.49411-.87045-5.60742-2.36368a8.83344,8.83344,0,0,1-1.44033-5.36216,43.58552,43.58552,0,0,1,1.30567-8.767c.63481-2.9528,1.373-6.78325,3.06822-9.9717,1.66876-3.17641,4.51575-5.77333,8.98582-5.74929a6.93017,6.93017,0,0,1,5.65552,2.13765l3.0081-14.16524h9.94284l-9.284,43.65953H179.385" fill="#fff"/></g><g id="g3333"><path id="path3335" d="M232.0936,169.17325a27.14,27.14,0,0,0-1.95731,6.64379,39.55619,39.55619,0,0,0-1.16621,7.6008,2.67045,2.67045,0,0,0,.416,1.86353c.18274.21641.56026.3679,1.38262.3679a2.64907,2.64907,0,0,0,2.70753-1.63991c.81274-1.41629,1.59662-4.09977,2.5368-8.54579a32.06648,32.06648,0,0,0,.90171-5.90319c-.16351-1.8996-.24286-2.09677-1.88517-2.24585a2.99585,2.99585,0,0,0-2.936,1.85872m-2.45506,23.418c-3.8016,0-6.45863-.80793-8.1827-2.45265-1.71685-1.64471-2.30837-3.97473-2.30837-6.61012a38.04842,38.04842,0,0,1,1.01712-7.6008c1.61586-8.02641,4.672-15.62,15.97347-15.55027,3.9074,0,6.57646.86805,8.29091,2.52719,1.70483,1.664,2.26269,3.97954,2.26028,6.48268a34.4562,34.4562,0,0,1-.90892,6.89867c-1.83708,9.1301-5.04235,16.3053-15.96385,16.3053Z" fill="#fff"/></g><g id="g3337"><path id="path3339" d="M259.74309,192.01213l4.52538-21.25868a10.46569,10.46569,0,0,0,.2669-2.03666c-.14668-1.2648-.09137-1.44274-1.51968-1.56777-2.01982.00721-2.61375,1.35376-3.23413,3.96271l-4.45323,20.9004h-9.93082l6.60532-31.05244h9.93081l-.29576,1.39945a9.21328,9.21328,0,0,1,1.87075-1.08926,10.767,10.767,0,0,1,4.535-.88969c3.68618.00962,6.95157,2.08235,6.95638,5.86472a7.8622,7.8622,0,0,1-.16591,1.563l-5.15056,24.20426Z" fill="#fff"/></g><g id="g3341"><path id="path3343" d="M205.52926,109.98909a301.52049,301.52049,0,0,0-39.52369-2.5825C88.12922,107.40659,25,136.10257,25,171.50484c0,7.17039,2.63539,14.06425,7.41805,20.50606H58.11074c-4.82835-6.42257-7.47336-13.31643-7.47336-20.50606,0-33.986,58.53892-61.535,130.75494-61.535,8.17309,0,16.15381.37271,23.91572,1.04839Z" fill="#fff"/></g><g id="g3345"><path id="path3347" d="M216.73087,162.029a12.06857,12.06857,0,0,0-6.57165-1.64953c-5.41747-.00962-12.62392,1.96693-14.158,8.92812a8.57073,8.57073,0,0,0-.20439,1.83227c.02164,4.1695,3.41928,6.08112,6.312,7.471,3.0057,1.397,5.44632,2.5897,5.37659,4.22721a1.554,1.554,0,0,1,.00721.26209,2.87914,2.87914,0,0,1-5.6507,0v-.00961a5.30221,5.30221,0,0,1,.44965-2.20017H193.5798l-.17072.63a15.18821,15.18821,0,0,0-.60595,3.98916,6.00976,6.00976,0,0,0,3.18844,5.74449c1.97895,1.04117,4.559,1.32731,7.56714,1.33693H203.59c7.08623,0,12.50129-4.05408,13.68673-9.62784a8.87111,8.87111,0,0,0,.20439-1.89479c-.012-4.25126-3.3784-6.40815-6.32158-7.899a36.64157,36.64157,0,0,1-4.12621-2.20017,2.458,2.458,0,0,1-1.41629-2.00059,2.60392,2.60392,0,0,1,2.82536-2.31559,4.33888,4.33888,0,0,1,1.0027.1563,2.36834,2.36834,0,0,1,1.78177,2.04868,6.31137,6.31137,0,0,1-.404,2.23864h8.238l.17553-.63a10.893,10.893,0,0,0,.43282-2.89028,6.35059,6.35059,0,0,0-2.93837-5.54731" fill="#fff"/></g></svg>