<svg id="Layer_1" data-name="Layer 1" xmlns="http://www.w3.org/2000/svg" viewBox="0 0 300 300"><defs><style>.cls-1{fill:#0096d6;}.cls-2{fill:#7ac143;}</style></defs><title>NEE_Light_bg</title><path class="cls-1" d="M173.09,67.72a72.67,72.67,0,0,1,3.52,20.35l-52.05,60.65,72-54.39,3.52,16.82S145.31,173.37,132,191c0,0,69.82-57.79,108.85-81.13A101.82,101.82,0,0,0,49.47,158.26c0,1.55.16,3.07.24,4.62,22.61-19.6,83.54-71.32,123.38-95.16m80,93a101.63,101.63,0,0,0-4.29-29.15C225.3,144,169.47,175,129.4,207.26q50.65,7,100.63,18a101.33,101.33,0,0,0,23.06-64.53"/><path class="cls-1" d="M175.05,125.74s-57.53,44.61-65.35,52.05l-7.84-14.49s39.53-49.3,52.44-62.21c0,0-70.38,50.1-102.7,80.37a102.11,102.11,0,0,0,5.52,17.93q26,2.06,52.64,5.32c1.24-1.5,58.31-70.07,65.29-79"/><path class="cls-2" d="M236.43,232.25c-3.5-.79-7-1.6-10.49-2.36q-55.83-12.12-112.58-19.26-33.15-4.15-66.45-6.52A114.26,114.26,0,0,0,63.43,230a1610.09,1610.09,0,0,1,161.4,13.53A116.85,116.85,0,0,0,236.43,232.25Z"/></svg>