<svg id="Layer_1" data-name="Layer 1" xmlns="http://www.w3.org/2000/svg" viewBox="0 0 300 300"><path d="M271.76955,140.9498c.43364.0109.58717-.09582.58717-.49038,0-.40384-.40383-.40384-.7798-.40384h-.84712l-.0016.89262m0,2.32853h-.866l.00479-3.94488,1.884.00161a2.15967,2.15967,0,0,1,1.05833.18493,1.18213,1.18213,0,0,1,.46056,1.057c0,.7218-.37756,1.00994-1.06954,1.09616l.95191,1.60674h-.991l-.86282-1.60674h-.57019Zm-1.99967-1.86827a2.65416,2.65416,0,1,0,2.65736-2.65129,2.6414,2.6414,0,0,0-2.65736,2.65129m-.96154-.00161a3.61651,3.61651,0,1,1,3.61409,3.62213,3.61932,3.61932,0,0,1-3.61409-3.62213" fill="#fff"/><path d="M118.9887,155.91818c-1.83238,8.62373,2.501,14.38335,13.52213,14.38335,11.01956,0,17.8-5.75962,19.63527-14.38335,1.83238-8.62532-2.50225-14.38334-13.5202-14.38334-11.02117,0-17.80354,5.758-19.6372,14.38334m13.49232,0c1.15417-5.43558,2.47565-7.0641,4.58686-7.0641,2.11218,0,2.74007,1.62852,1.58622,7.0641-1.15577,5.434-2.476,7.06411-4.58847,7.06411-2.1109,0-2.74038-1.63013-1.58461-7.06411" fill="#fff"/><path d="M179.994,169.46646H167.27217l.54519-4.08237H167.709a11.60722,11.60722,0,0,1-9.56636,4.917c-5.44647,0-8.80706-2.70256-7.27532-9.9029l3.83173-18.03526h13.04745l-3.434,16.06539c-.42435,1.99648-.00608,3.11443,1.55833,3.11443,1.45481,0,2.68527-.83462,3.23206-3.02372l3.6093-16.1561H185.7568" fill="#fff"/><path d="M187.34543,142.34538h12.72308l-.30674,2.96763c2.40385-2.42436,4.36733-3.28557,6.04169-3.28557a6.19833,6.19833,0,0,1,3.29134.75319l-2.258,10.29136a11.91653,11.91653,0,0,0-5.11315-1.24327c-2.48333-.01538-3.87532,1.97341-4.65194,5.66892l-2.44135,11.959H181.5826" fill="#fff"/><path d="M225.53532,153.55064c.62146-3.43109.58075-5.282-1.68686-5.282-2.1593,0-3.4811,1.14327-4.96091,8.09584-1.34487,6.33142-.47275,7.30546,1.52531,7.30546,2.108,0,3.035-1.56892,4.051-5.08783h12.08943c-1.76795,7.55546-7.35834,11.76507-18.09778,11.76507-8.46891,0-14.8295-3.5609-12.49968-14.52276,1.99679-9.38783,9.33655-14.23944,18.934-14.23944,10.52662,0,13.92309,4.582,12.733,11.96571" fill="#fff"/><path d="M255.25348,160.86844a4.17007,4.17007,0,0,1-3.82245,2.80289c-2.582,0-3.36986-1.34969-2.70609-4.47725l.174-.80929h18.64585l.39295-1.83559c2.06859-9.73559-1.73013-14.96283-11.9747-14.96283-9.70289,0-17.05034,4.85-19.0529,14.26155-2.32885,10.949,4.04456,14.50354,11.97149,14.50354,10.13014,0,15.5359-3.33975,17.81252-9.483m-16.58014-8.20578.0814-.38366c.559-2.63718,2.25032-4.009,4.34712-4.009,2.0452,0,3.09744,1.37179,2.53558,4.009l-.08173.38366Z" fill="#fff"/><path d="M121.32973,141.37646c1.77115-8.89135-4.8295-11.86827-14.45995-11.86827q-1.59761,0-3.093.11891L88.172,137.44442a14.191,14.191,0,0,0-1.666,3.78172l14.17181.141a2.34662,2.34662,0,0,1,.04872-.75032c.25192-1.18526,1.56122-2.2641,4.04808-2.2641,1.93365.00609,3.09423.77211,2.74647,3.02371" fill="#fff"/><path d="M86.26486,142.19089a15.02629,15.02629,0,0,0-.326,2.44135c7.42757,3.65962,19.47277,9.59905,25.01636,12.36636,2.0375,1.01795.89424.49968.89424.49968l-.93333-.39006L85.93761,145.52167c.13943,3.29455,1.93078,5.717,6.20418,7.0718l10.26828,3.23366c1.36538.42916,2.34263,1.184,2.03236,2.63846a4.37177,4.37177,0,0,1-4.40833,3.18077,2.91259,2.91259,0,0,1-2.76538-1.24038,4.48475,4.48475,0,0,1-.18141-2.95962H91.68474c3.6391,4.66346,7.23782,9.28014,9.39231,12.06122.27885.36155.46827.61218.5984.783,8.99969-.91763,15.766-5.01443,17.534-13.3311.99615-4.68879-.41506-8.19167-4.8843-10.24136-3.57821-1.67724-8.79905-2.75641-11.58655-3.61923-.98942-.316-1.66923-.68109-1.94006-1.284l-14.49617.21154c-.0109.05641-.0266.108-.0375.16441" fill="#fff"/><path d="M82.32088,157.44565c-1.11955,5.26955.51058,8.58463,3.65032,10.55322l-3.11635-10.55322" fill="#fff"/><path d="M91.03423,157.44565H83.474c.974,3.61763,1.99487,7.41027,2.90481,10.799,2.87661,1.63333,6.88078,2.24711,11.17918,2.24711,1.3984,0,2.75769-.06409,4.07019-.1955l-.6298-.69873" fill="#fff"/><path d="M89.0332,136.23339l13.85546-6.52052c-6.22308.65769-10.97725,2.908-13.85546,6.52052" fill="#fff"/><polyline points="79.564 139.725 79.901 139.218 86.329 130.638 81.462 130.638 79.731 139.108" fill="#fff"/><polyline points="80.091 140.443 80.213 140.443 80.869 140.076 86.123 137.604 87.602 130.638 87.131 130.638 80.642 139.755" fill="#fff"/><polyline points="85.915 138.574 82.185 140.442 85.518 140.442" fill="#fff"/><polyline points="72.472 140.443 75.243 140.443 72.739 139.19" fill="#fff"/><polyline points="77.701 139.687 77.529 139.175 75.244 130.639 74.555 130.639 73.692 134.701 77.4 139.253" fill="#fff"/><polyline points="76.544 140.068 77.198 140.443 77.239 140.443 76.703 139.851 73.482 135.69 72.914 138.362" fill="#fff"/><polyline points="78.661 140.111 78.836 138.909 80.739 130.639 75.974 130.639 78.406 138.906" fill="#fff"/><path d="M81.68079,142.53473c.82371.40546,1.86506.91924,3.07083,1.51283l.32243-1.51283" fill="#fff"/><path d="M77.86123,143.4864c-.08013.10482-.241.38366-.33814.51379-1.55192,2.06058-4.66987,6.18238-8.07725,10.67821l-3.16635,14.90323h6.14135l5.28366-25.50035" fill="#fff"/><path d="M79.98777,143.972l-.31314-.43365c.025.09552.13942.36474.17212.47918.55128,2.03589,1.574,5.82211,2.75,10.17564l1.18685-5.592" fill="#fff"/><path d="M78.752,143.19955c-.03622.15834-.08622.80674-.141,1.04936-1.02885,4.48013-3.82565,16.52694-5.88334,25.33239h6.59744L82.302,155.57552l-3.33718-11.2984" fill="#fff"/><path d="M76.79751,143.43022l.53718-.64967c-.15994.075-.52468.27563-.75321.38333-1.21538.567-3.03654,1.41442-5.20225,2.42116l-1.61762,7.609" fill="#fff"/><path d="M80.85854,143.16544l-.73911-.41185c.09392.11891.44167.459.56988.62339.77981.99584,1.93237,2.46956,3.30738,4.22661l.57627-2.71539" fill="#fff"/><polyline points="71.59 144.592 75.771 142.535 72.028 142.535" fill="#fff"/><path d="M69.2728,146.56211c-7.46988,3.46218-17.66092,8.16635-22.58432,10.41988-2.00128.916-.82051.34744-.82051.34744l.75481-.44456,22.84713-11.24839.77051-3.61892c-4.04808-.0593-9.1734-.141-14.04841-.22372l-1.74743,8.218-1.13366-8.26667c-3.98686-.07051-7.59968-.13621-10.02693-.18622l-.88013-.0548L43.317,141.44l9.94072-.08173L51.7824,130.63133H33.27757L25,169.57367h.85l-.00128.008H39.63687l3.81956-17.96476,2.41923,17.95674h4.41122l-.00128.008h7.66827l9.1154-12.65162" fill="#fff"/><polyline points="71.992 133.766 69.568 130.633 60.135 130.633 60.133 130.639 58.946 130.639 58.564 130.639 58.375 131.527 71.188 137.551" fill="#fff"/><polyline points="72.659 130.632 70.382 130.632 72.188 132.851" fill="#fff"/><path d="M63.333,169.58162h.38045l.0016-.00769h.667L66.80766,158.155c-3.28686,4.33591-6.541,8.61893-8.68173,11.42662" fill="#fff"/><polyline points="71.023 138.331 58.284 131.955 56.29 141.333 70.409 141.219" fill="#fff"/></svg>