<svg id="Layer_1" data-name="Layer 1" xmlns="http://www.w3.org/2000/svg" viewBox="0 0 300 300"><defs><style>.cls-1{fill:#fff;}</style></defs><title>NKE_Dark_bg</title><path class="cls-1" d="M264.54,109.33c-.25.34-.66.4-1,.56l-20.41,9-90,39.76-47.07,20.79c-3.17,1.4-6.33,2.85-9.54,4.17A116,116,0,0,1,80.29,189a80.7,80.7,0,0,1-9.74,1.83,53.78,53.78,0,0,1-8.22.41,36.68,36.68,0,0,1-10-1.53,25.8,25.8,0,0,1-8.56-4.48,21.55,21.55,0,0,1-7.09-10.89,28.73,28.73,0,0,1-.94-10.8,43.75,43.75,0,0,1,3-11.69A88.85,88.85,0,0,1,45.66,138a157.32,157.32,0,0,1,12.23-17.22,120.09,120.09,0,0,1,10.43-11.43c.21-.21.43-.4.66-.6,0,0,.1,0,.24-.06-.12.28-.2.52-.31.74-1.43,2.88-2.78,5.78-4,8.76a60,60,0,0,0-3.37,11.18,30.1,30.1,0,0,0-.49,9.18,18,18,0,0,0,8.3,13.67,23.64,23.64,0,0,0,8,3.27,35.75,35.75,0,0,0,11.53.66,67.11,67.11,0,0,0,10-1.82q7.16-1.87,14.27-3.81,21.63-5.86,43.24-11.76,17.92-4.89,35.85-9.82l36.82-10,34.43-9.4a1.67,1.67,0,0,1,1-.12Z"/></svg>