<svg id="Layer_1" data-name="Layer 1" xmlns="http://www.w3.org/2000/svg" viewBox="0 0 300 300"><defs><style>.cls-1{fill:#fff;}</style></defs><title>NOC_Dark_bg</title><path class="cls-1" d="M50,130.56H69.47c11.18,14.23,22.38,28.49,34.17,43.48V130.75h19.71V205.6h-19.7L70.11,161.91l-.68.2v43.57H50Z"/><path class="cls-1" d="M191.23,178.74H172.48V163.28h38c2.41,19.29-5.87,42.53-31.54,45.08-14.6,1.45-27.29-2.06-36.91-13.83-11.28-13.82-11.61-36.71-.71-51.27s30.75-19.73,48.12-12.31c6.64,2.83,12.5,8.27,16.71,15.66-2.55,1.47-5.09,3-7.66,4.4s-5.05,2.71-6.85,3.68c-3.86-2.93-6.92-6.21-10.7-7.95-11.63-5.34-22.54-.11-26,12.21-2.2,7.77-2.15,15.59,1.33,23.09,5.63,12.13,24.36,13.76,31.95,2.76A50.84,50.84,0,0,0,191.23,178.74Z"/><path class="cls-1" d="M172.37,110.84V91.33H250V168.1H230.81V110.84Z"/></svg>