<?xml version="1.0" encoding="UTF-8" standalone="no"?>
<svg
   xmlns:dc="http://purl.org/dc/elements/1.1/"
   xmlns:cc="http://creativecommons.org/ns#"
   xmlns:rdf="http://www.w3.org/1999/02/22-rdf-syntax-ns#"
   xmlns:svg="http://www.w3.org/2000/svg"
   xmlns="http://www.w3.org/2000/svg"
   version="1.1"
   id="Layer_1"
   x="0px"
   y="0px"
   viewBox="0 0 300 300"
   style="enable-background:new 0 0 300 300;"
   xml:space="preserve"><metadata
   id="metadata38"><rdf:RDF><cc:Work
       rdf:about=""><dc:format>image/svg+xml</dc:format><dc:type
         rdf:resource="http://purl.org/dc/dcmitype/StillImage" /><dc:title>NOW_Light_bg</dc:title></cc:Work></rdf:RDF></metadata><defs
   id="defs36" />
<style
   type="text/css"
   id="style27">
	.st0{fill:#86ED78;}
</style>
<title
   id="title29">NOW_Light_bg</title>
<path
   class="st0"
   d="M140.7,77c-38.7,4.3-69.2,36.7-71.5,75.5c-1.6,25.8,9.2,50.6,29.2,67c6.8,5.6,16.7,5.2,22.9-1  c15.5-15.9,41-16.1,56.9-0.7c0.3,0.3,0.4,0.4,0.7,0.7c6.1,6.2,16.1,6.8,22.9,1.2c34.4-28.5,39.3-79.4,10.8-113.9  C194.9,84.7,167.9,73.9,140.7,77z M150,197.6c-22.3,0-40.4-18.1-40.4-40.4s18.1-40.4,40.4-40.4s40.4,18.1,40.4,40.4  C190.3,179.7,172.2,197.6,150,197.6L150,197.6z"
   id="path31"
   style="fill:#84b4a1;fill-opacity:1" />
</svg>
