<svg id="Layer_1" data-name="Layer 1" xmlns="http://www.w3.org/2000/svg" viewBox="0 0 300 300"><defs><style>.cls-1{fill:#010101;}.cls-2{fill:#fed208;}.cls-3{fill:#429544;}.cls-4{fill:#34348f;}.cls-5{fill:#2dabe2;}.cls-6{fill:#eb0d8b;}</style></defs><path class="cls-1" d="M207,194.27a1,1,0,0,0,.7-.23.92.92,0,0,0,.21-.63.72.72,0,0,0-.23-.6,1.07,1.07,0,0,0-.74-.21h-1v1.67ZM205,191.73h2.12a2.25,2.25,0,0,1,.87.16,1.71,1.71,0,0,1,.61.38,1.3,1.3,0,0,1,.35.52,1.43,1.43,0,0,1,.11.56,1.76,1.76,0,0,1-.27,1,1.56,1.56,0,0,1-.81.64l1.34,2.27H208.1l-1.23-2.13H206v2.13h-1Zm1.88,7.16a4.18,4.18,0,0,0,3-1.26,4.3,4.3,0,0,0,.89-1.39,4.78,4.78,0,0,0,0-3.44,4.19,4.19,0,0,0-.89-1.39,4,4,0,0,0-1.34-.93,4.11,4.11,0,0,0-1.68-.35,4.17,4.17,0,0,0-1.7.35,4.08,4.08,0,0,0-1.35.93,4.19,4.19,0,0,0-.89,1.39,4.78,4.78,0,0,0,0,3.44,4.27,4.27,0,0,0,.88,1.39,4.23,4.23,0,0,0,3,1.26Zm0,1a5.38,5.38,0,0,1-2.12-.42,5.46,5.46,0,0,1-2.85-7.13,5.17,5.17,0,0,1,1.14-1.72,5.36,5.36,0,0,1,1.71-1.15,5.25,5.25,0,0,1,2.14-.43,5.14,5.14,0,0,1,2.11.43,5.36,5.36,0,0,1,2.85,2.87,5.59,5.59,0,0,1,0,4.25,5.46,5.46,0,0,1-1.15,1.72,5.23,5.23,0,0,1-1.71,1.16A5.35,5.35,0,0,1,206.84,199.93Z"/><path class="cls-1" d="M180.89,157.21c-2.77-2.21-7.75-3.56-12.18-3.56-11.4,0-18,8.51-18,18.8,0,9.9,5.47,17.35,16.56,17.35,6,0,10.83-1.57,13.6-3.89Zm-38.54,67.52,4.1-12.73a41.78,41.78,0,0,0,16.35,3.59c9.21,0,18.09-3.93,18.09-15.61v-1.73a32,32,0,0,1-15.8,3.63c-18.77,0-29.07-12.17-29.07-29.43,0-16.7,12.21-30.89,32.13-30.89a48.92,48.92,0,0,1,27.21,8v46.11c0,7.67-.86,11.94-2.57,16.08-4.47,10.83-15.16,17.06-30.76,17.06A50.89,50.89,0,0,1,142.35,224.73Z"/><path class="cls-1" d="M33,142.92H46.79l.37,6.05a25,25,0,0,1,18-7.28c13.27,0,22,7.77,22,22.72v36H72.77V166.17c0-8.29-4.32-12-10.92-12-6.31,0-12.62,4.21-14.44,9.52v36.63H33"/><path class="cls-1" d="M99.08,142.92h13.7l.36,7.37A21.35,21.35,0,0,1,130.71,142a21.81,21.81,0,0,1,8.27,1.67l-4.57,13a24.29,24.29,0,0,0-7.63-1.22,14.23,14.23,0,0,0-13.24,9v35.92H99.08"/><rect class="cls-2" x="240.35" y="99.24" width="9.77" height="15.57"/><rect class="cls-2" x="240.35" y="127.26" width="9.77" height="15.58"/><rect class="cls-3" x="223.4" y="116.14" width="15.58" height="9.78"/><rect class="cls-2" x="251.45" y="116.14" width="15.6" height="9.78"/><rect class="cls-4" x="212.31" y="99.24" width="9.77" height="15.57"/><rect class="cls-5" x="212.31" y="127.26" width="9.77" height="15.58"/><rect class="cls-5" x="195.37" y="116.14" width="15.58" height="9.78"/><rect class="cls-6" x="212.31" y="71.19" width="9.77" height="15.58"/><rect class="cls-6" x="195.37" y="88.11" width="15.58" height="9.77"/><rect class="cls-6" x="223.41" y="88.11" width="15.6" height="9.77"/></svg>