<svg id="Layer_1" data-name="Layer 1" xmlns="http://www.w3.org/2000/svg" viewBox="0 0 300 300"><title>NSC_Logo_Dark</title><path d="M188.7915,115.657q2.79882,5.67753,5.6017,11.36242c1.85949,3.76788,3.71385,7.53837,5.66295,11.4103,2.69358-7.66035,5.19891-15.242,7.93019-22.72456.41484-.09015,19.42916-.11068,20.076-.0208-.1722.62755-.43713,1.21547-.63932,1.823-.21039.63211-.43234,1.26037-.64948,1.89023-.20993.609-.42019,1.21788-.66529,1.92818a3.41072,3.41072,0,0,0,.33574-.1703,26.6093,26.6093,0,0,1,9.44624-3.97664,51.67431,51.67431,0,0,1,6.554-.95992q3.8533-.37015,7.72128-.46492a74.46436,74.46436,0,0,1,7.52475.14721c1.67858.12682,3.35829.2564,5.03052.446a59.8887,59.8887,0,0,1,9.60026,1.84026,19.90872,19.90872,0,0,1,5.31052,2.38941,10.45652,10.45652,0,0,1,2.4951,2.16456,7.5797,7.5797,0,0,1,1.14253,1.88293,4.38566,4.38566,0,0,1,.40391,1.99051,14.51016,14.51016,0,0,0-.00178,1.47352,4.728,4.728,0,0,1-.22644,1.55325,12.51308,12.51308,0,0,1-1.66714,3.38342l-22.62042-.82892c-.11191-.21265.02859-.35793.07683-.517.15231-.502.34016-.99544.4577-1.50522a1.86016,1.86016,0,0,0-.33167-1.573,6.26233,6.26233,0,0,0-2.67968-.78045c-.90863-.07275-1.82163-.10361-2.73332-.12267-1.05276-.022-2.10621-.01574-3.15939-.01293a11.93407,11.93407,0,0,0-3.11765.42252,2.48561,2.48561,0,0,0-1.7531,2.61951,1.33835,1.33835,0,0,0,.548.92159,2.71463,2.71463,0,0,0,1.33181.59336c.74293.12391,1.49135.2181,2.2396.30654,2.35107.27791,4.70484.53326,7.05432.82394,2.22749.2756,4.45127.58139,6.67585.88012a34.07721,34.07721,0,0,1,6.1242,1.25522,15.64028,15.64028,0,0,1,6.50824,3.94014,9.02759,9.02759,0,0,1,2.46218,4.51085,8.76253,8.76253,0,0,1,.02752,2.87977,19.13979,19.13979,0,0,1-4.13179,9.81048,17.49757,17.49757,0,0,1-9.70842,6.112,29.21069,29.21069,0,0,1-5.30384.76395c-1.926.11593-3.8488.28773-5.77535.39161-2.18986.11809-4.38163.22221-6.57389.26871a59.50852,59.50852,0,0,1-5.99516-.216c-1.55617-.12418-3.11749-.1834-4.6765-.27265a75.963,75.963,0,0,1-9.25967-.93957,18.85729,18.85729,0,0,1-3.76672-.95613,13.76367,13.76367,0,0,1-5.52744-4.17559c-.5308-.65083-.98441-1.36462-1.47259-2.05014-.08791-.12347-.17259-.24924-.30209-.43662-.8141,2.32321-1.60109,4.569-2.40065,6.85072-6.93462.06239-13.84642.09446-20.80793-.06406-3.79819-7.49837-7.59795-14.99982-11.457-22.61829-2.64211,7.60835-5.24021,15.08993-7.84223,22.58284H134.30372c.04965-.18445.07626-.31784.12108-.4448q1.953-5.53025,3.91493-11.05729a5.70517,5.70517,0,0,1,.52991-1.08012,2.31538,2.31538,0,0,1,.99138-.842,1.83419,1.83419,0,0,1,1.71669.01917,14.19234,14.19234,0,0,0,4.23018,1.39454c.46771.071.94055.10832,1.47111.16778a42.23533,42.23533,0,0,0,11.81716,5.78675c.13246.42166.24306.82727.388,1.2202a8.40439,8.40439,0,0,0,.49619,1.1558,1.80521,1.80521,0,0,0,1.28351.91678,4.64393,4.64393,0,0,0,2.34162-.1017c.88576-.27633,1.75285-.61365,2.62343-.93685.36131-.13413.71258-.29607,1.06486-.45334.24-.10715.47722-.22175.70979-.34419a1.67307,1.67307,0,0,0,.96414-1.46146c.01971-.33221.07461-.66221.1-.99425a3.15679,3.15679,0,0,1,.67023-1.79445c.286-.35535.56839-.71367.852-1.071.10813-.13622.2152-.27328.3432-.43595-.105-.13014-.19444-.25647-.29918-.3685a109.104,109.104,0,0,1-9.55585-11.9577c-1.06775-1.52267-2.1191-3.05685-3.17561-4.58738a5.93038,5.93038,0,0,1-1.09023-2.37046,3.57386,3.57386,0,0,1-.06051-.46869,1.78568,1.78568,0,0,0-.57779-1.25827,5.90628,5.90628,0,0,0-.68021-.57943,7.11425,7.11425,0,0,1-1.55659-1.55446,42.15038,42.15038,0,0,0-3.59889-4.25986c-.54177-.549-1.124-1.05815-1.68813-1.58509-.1005-.09387-.20246-.18616-.33351-.30651a17.57688,17.57688,0,0,0,2.70982-6.58Zm49.35771,31.9227c-.02695.18031-.04873.29834-.06167.41732-.04538.41773-.11849.83535-.12438,1.25382a1.73978,1.73978,0,0,0,.91362,1.66273,12.65724,12.65724,0,0,0,1.46.7171,9.3764,9.3764,0,0,0,3.35071.5978c1.578.01443,3.15695-.041,4.73511-.0814.47253-.01209.9455-.05971,1.41524-.11625a5.95655,5.95655,0,0,0,1.9681-.54608,3.09605,3.09605,0,0,0,1.78969-2.20462,1.42764,1.42764,0,0,0-.70553-1.56362,3.9476,3.9476,0,0,0-1.52982-.53477c-.81678-.10689-1.63762-.18212-2.45584-.27857-.90539-.10674-1.80715-.256-2.71516-.327-2.06335-.16143-4.13035-.2753-6.19432-.42947-1.66092-.12406-3.32232-.252-4.97842-.42655a29.64808,29.64808,0,0,1-6.71051-1.50259,17.37192,17.37192,0,0,1-4.93409-2.55059,10.03388,10.03388,0,0,1-2.8537-3.33087,3.4165,3.4165,0,0,0-.21267-.31444,2.39654,2.39654,0,0,0-.10909.22618q-1.40932,4.10369-2.8141,8.20893a1.8531,1.8531,0,0,0-.04806.30291c.19377.01224.35011.0255.50672.03147,1.543.05875,3.08615.11166,4.62892.17518,2.66463.10972,5.32862.23528,7.99355.33641,2.40212.09115,4.80519.1581,7.20779.23721C237.80931,147.54448,237.94688,147.56248,238.14921,147.57972Z" fill="#fff"/><path d="M39.8879,122.53072c.80934-2.35629,1.54242-4.636,2.4138-6.87764H144.64127a16.36683,16.36683,0,0,1-3.69174,3.18766c-.88221-.25388-1.78881-.51994-2.69835-.77545a42.05769,42.05769,0,0,0-5.80265-1.269,23.14642,23.14642,0,0,0-3.83135-.22992,3.90638,3.90638,0,0,0-.419.03753.87555.87555,0,0,0-.19557.1026,17.12482,17.12482,0,0,1,5.44751,3.47981c-.63522-.07129-1.27029-.14411-1.90571-.21356-1.5341-.16769-3.06782-.33927-4.60272-.49927a45.48334,45.48334,0,0,0-6.94084-.1715c-1.3832.06752-2.76523.1874-4.14294.33043-1.30773.13577-2.6092.332-3.91322.50309-.082.01075-.16231.0342-.29284.06243a.62259.62259,0,0,0,.379.29093,29.34217,29.34217,0,0,0,4.1323,1.55531c.43313.13228.86593.26561,1.29395.44178C91.63225,122.57208,65.81227,122.53388,39.8879,122.53072Z" fill="#fff"/><path d="M36.421,132.51047l2.39879-6.90687c.20428-.01053.40854-.03039.6128-.03022q5.58223.00487,11.16449.01358,11.00657.00717,22.01313.00985,15.77259.00529,31.54519.00908a3.77664,3.77664,0,0,1,.58407.03072,7.00016,7.00016,0,0,1-1.3849.50654c-.46489.15138-.9319.29625-1.4871.47222a1.82437,1.82437,0,0,0,.323.1428q4.19862.7412,8.32551,1.81113a1.91034,1.91034,0,0,1,.61987.2572c-.51652.038-1.03279.08007-1.54963.11332a77.225,77.225,0,0,0-16.88435,3.1141,11.23759,11.23759,0,0,1-3.21305.46326q-26.12094-.01431-52.24192-.00671Z" fill="#fff"/><path d="M103.59727,135.50149c-.12531.03865-.24885.0848-.37619.11487a80.17741,80.17741,0,0,0-15.05841,5.14229c-.71711.329-1.43051.668-2.13138,1.03a5.02119,5.02119,0,0,1-2.37227.56623q-24.90374-.02069-49.80748-.01027h-.79931c.22045-.84592.51925-1.608.77764-2.38169.25541-.76483.52286-1.52571.79218-2.28578.27451-.77471.55773-1.54633.84114-2.33037.16883-.01254.30515-.02721.4418-.03165.15778-.00512.31586-.00124.47381-.00124q30.64266,0,61.28532.00036c1.50921,0,3.01849-.00241,4.52758.01253.46529.0046.93005.06313,1.395.097Z" fill="#fff"/><path d="M29.66932,152.08552c.73394-2.35829,1.55461-4.60842,2.38337-6.88012.14582-.01275.282-.0288.41853-.03535.12259-.00589.24569-.00139.36857-.00139q28.09545,0,56.19087-.01644a7.95668,7.95668,0,0,1,3.62.94c.027.01339.04017.05458.07743.10819-.14728.05466-.28588.11343-.4289.158-1.28905.402-2.57528.81365-3.86927,1.19917a50.11112,50.11112,0,0,0-6.29717,2.51751c-1.262.57075-2.53226,1.1235-3.801,1.67933a3.99974,3.99974,0,0,1-1.64.29433q-17.69453.00017-35.38906.02127c-3.65119.00385-7.30237.02406-10.95355.03538C30.14573,152.10609,29.94231,152.09388,29.66932,152.08552Z" fill="#fff"/><path d="M26.25519,161.8782c.753-2.3366,1.571-4.58545,2.36235-6.88229h.542q23.56236.00007,47.12471-.00325a12.40784,12.40784,0,0,1,3.06582.422q1.07064.27148,2.13851.55375a1.55008,1.55008,0,0,1,.23358.11484c-.19892.08816-.35193.16322-.51011.225q-5.97841,2.33541-11.95749,4.66915c-.49.19145-.97264.40165-1.46374.59a5.51339,5.51339,0,0,1-2.00409.37214q-19.48162-.025-38.96327-.03732C26.65443,161.90215,26.48544,161.88833,26.25519,161.8782Z" fill="#fff"/><path d="M38.224,170.00582l-4.28264,13.749H28.1901l-2.89834-8.25157c-.25654.15207-.2438.3841-.29976.56189q-1.12091,3.56155-2.22262,7.12914c-.05162.16592-.10876.33011-.18049.54694l-4.1109.07723c-.19491-.27317-.06731-.49047-.00423-.69693.33806-1.10643.687-2.20953,1.03243-3.3137q1.44455-4.61747,2.88972-9.23475c.05218-.16665.11067-.33133.16321-.488a43.2861,43.2861,0,0,1,6.20248-.04129l2.6746,7.73574c.096-.24013.1567-.36676.19807-.49941q1.04892-3.36368,2.09421-6.72849c.05158-.16566.11249-.3284.18589-.54133C35.31332,169.97747,36.708,169.93835,38.224,170.00582Z" fill="#fff"/><path d="M263.52632,183.87973h-5.87157c-1.00724-2.66886-1.90659-5.39141-2.95251-8.184-.327.74977-.48907,1.43763-.71166,2.103-.2224.66475-.4264,1.33571-.6353,2.00492q-.32117,1.02893-.636,2.05983c-.20384.66693-.404,1.335-.609,2.01344h-4.24913c1.41676-4.53223,2.82034-9.02245,4.22036-13.50114.40233-.09588,5.52768-.11965,6.21918-.025.87685,2.49432,1.76387,5.01752,2.64682,7.5291a.50183.50183,0,0,0,.09427-.00609.09514.09514,0,0,0,.03751-.02956.13613.13613,0,0,0,.02634-.04467q1.14566-3.69012,2.291-7.38036a.79677.79677,0,0,1,.07269-.105c1.36376-.03887,2.77118-.00912,4.25841-.017C266.35188,174.89017,264.91849,179.37307,263.52632,183.87973Z" fill="#fff"/><path d="M138.67479,179.18673h4.94632c.076.57188-.19456,1.1852.0445,1.82392.15452.05347.32931.12847.5114.17467a8.68743,8.68743,0,0,0,4.21836-.09407,1.73168,1.73168,0,0,0,.63971-.347,1.11,1.11,0,0,0,.35862-1.39393,4.9117,4.9117,0,0,0-2.15953-.67206c-.69745-.06988-1.39959-.09279-2.09956-.13791a11.86172,11.86172,0,0,1-2.3976-.29426,7.63285,7.63285,0,0,1-.84323-.293,2.21151,2.21151,0,0,1-1.45362-2.17746,5.33925,5.33925,0,0,1,1.54266-3.85565,6.80512,6.80512,0,0,1,3.12712-1.76163,13.35893,13.35893,0,0,1,3.26943-.4974,21.60983,21.60983,0,0,1,4.09664.17124,8.64535,8.64535,0,0,1,2.306.7024,2.59016,2.59016,0,0,1,1.47407,2.574,7.61925,7.61925,0,0,1-.18225,1.0509,5.35454,5.35454,0,0,1-.79674.17266c-.6816.04124-1.36519.06638-2.048.06656-.64708.00017-1.29414-.03944-1.99246-.06331l.15384-1.41576a8.27764,8.27764,0,0,0-4.08951-.10473,3.52776,3.52776,0,0,0-1.79533,1.10371,2.38708,2.38708,0,0,0,.29434.216,6.25227,6.25227,0,0,0,2.1063.63234c.74767.09454,1.49991.15616,2.25148.21555a10.93905,10.93905,0,0,1,2.59072.41484,8.01228,8.01228,0,0,1,1.11163.46972,2.11889,2.11889,0,0,1,1.17421,1.86782,3.9482,3.9482,0,0,1-.06668.99209,5.82294,5.82294,0,0,1-2.5131,3.86272,9.97649,9.97649,0,0,1-3.534,1.443,11.40621,11.40621,0,0,1-2.81635.30573c-.912-.02474-1.82535.00254-2.73792-.00733a8.15554,8.15554,0,0,1-3.2038-.74509,3.67855,3.67855,0,0,1-.67219-.41,2.48518,2.48518,0,0,1-1.03474-2.29208C138.488,180.34464,138.59168,179.80962,138.67479,179.18673Z" fill="#fff"/><path d="M43.45205,184.243a10.73959,10.73959,0,0,1-4.05542-.72371,3.44887,3.44887,0,0,1-2.31488-3.22037,10.40173,10.40173,0,0,1,1.86659-6.40359,8.98,8.98,0,0,1,4.24312-3.486,11.88518,11.88518,0,0,1,2.55008-.62185,12.46,12.46,0,0,1,4.60344.05553,10.14977,10.14977,0,0,1,1.55852.4682,3.45525,3.45525,0,0,1,2.33467,3.32335,10.44849,10.44849,0,0,1-3.64294,8.3484,7.64933,7.64933,0,0,1-2.88848,1.57676A15.24422,15.24422,0,0,1,43.45205,184.243Zm-1.54316-5.324c-.03456,1.39953.44541,2.02514,1.63306,2.31468a3.7453,3.7453,0,0,0,1.61509.02,4.49763,4.49763,0,0,0,2.99253-2.13421,8.76839,8.76839,0,0,0,1.2611-3.426,4.38372,4.38372,0,0,0,.00915-1.20131,1.62763,1.62763,0,0,0-1.32334-1.51052,4.291,4.291,0,0,0-3.97692.94136,5.55227,5.55227,0,0,0-1.31364,1.69232A8.10006,8.10006,0,0,0,41.90889,178.919Z" fill="#fff"/><path d="M162.68089,184.333c-.45611,0-.91222-.00228-1.36831.00045a6.25319,6.25319,0,0,1-3.37711-1.014,3.41589,3.41589,0,0,1-1.62086-2.63377,8.67943,8.67943,0,0,1,.58238-4.12212,13.63647,13.63647,0,0,1,1.34358-2.67349,8.3868,8.3868,0,0,1,4.23879-3.30746,11.73357,11.73357,0,0,1,4.11478-.76192,13.45141,13.45141,0,0,1,3.55027.33157,5.40972,5.40972,0,0,1,1.68264.72439,3.45217,3.45217,0,0,1,1.56146,2.50323,8.80287,8.80287,0,0,1-.80689,4.80956,17.12758,17.12758,0,0,1-1.13145,2.134,7.98531,7.98531,0,0,1-3.90343,3.15746,22.47605,22.47605,0,0,1-2.4031.75481,3.63927,3.63927,0,0,1-.884.09331C163.73371,184.34313,163.20716,184.333,162.68089,184.333Zm.85924-2.94854a4.06645,4.06645,0,0,0,3.21131-1.35343,5.46042,5.46042,0,0,0,1.22388-1.94432,16.23053,16.23053,0,0,0,.59968-2.01128,4.76823,4.76823,0,0,0,.07055-1.40723,1.83924,1.83924,0,0,0-1.49318-1.68938,3.50321,3.50321,0,0,0-1.40854-.051,4.732,4.732,0,0,0-3.32691,2.1788,8.46743,8.46743,0,0,0-1.34535,4.15318,1.82626,1.82626,0,0,0,1.06893,1.83808A2.59621,2.59621,0,0,0,163.54013,181.38451Z" fill="#fff"/><path d="M57.4472,183.737a31.1979,31.1979,0,0,1-4.08495.0077c-.04723-.04253-.06471-.05165-.071-.06575a.08859.08859,0,0,1-.00245-.05187c.02285-.10228.04135-.20608.07244-.3059q2.05572-6.60193,4.11535-13.20264a.69058.69058,0,0,1,.09146-.14316c.11665-.00582.23845-.01728.36024-.01719,2.61473.002,5.22958-.00783,7.84411.01645a19.17947,19.17947,0,0,1,2.25113.18447,3.44377,3.44377,0,0,1,.9967.31786,1.99518,1.99518,0,0,1,1.22527,1.81491,4.4962,4.4962,0,0,1-.67657,2.6581,4.93632,4.93632,0,0,1-1.71507,1.67482q-.20255.12035-.40245.24506c-.012.00749-.01392.03109-.032.07516a1.425,1.425,0,0,0,.07428.16312,4.21882,4.21882,0,0,1,.49642,2.79442c-.10834.816-.26716,1.62519-.397,2.43846-.07441.46614-.13553.93438-.20885,1.445-1.53491.06088-3.06932-.02911-4.64328-.05169a4.01381,4.01381,0,0,1,.10483-1.1678c.09705-.55221.22483-1.099.32272-1.65111a4.98376,4.98376,0,0,0,.02753-1.61142,1.7459,1.7459,0,0,0-1.41351-.71895,5.9276,5.9276,0,0,0-.84154.00269c-.61082.034-1.22092.08094-1.90238.12745Zm2.57625-8.18031c.624,0,1.14812.01562,1.671-.004.64705-.02423,1.29567-.05374,1.93866-.1254a1.5498,1.5498,0,0,0,1.25459-1.00328,1.03548,1.03548,0,0,0-.093-1.12728c-1.29373-.45539-2.639-.17154-3.98321-.20021Z" fill="#fff"/><path d="M93.5938,169.61251a10.144,10.144,0,0,1,3.66525.60433,3.84747,3.84747,0,0,1,2.60985,3.64529,9.7,9.7,0,0,1-.42484,2.797,11.32948,11.32948,0,0,1-1.898,3.90111,8.38773,8.38773,0,0,1-4.40419,3.079,13.54534,13.54534,0,0,1-7.5219.10593,3.9669,3.9669,0,0,1-2.91409-4.00945,11.063,11.063,0,0,1,3.21778-7.3969,8.3555,8.3555,0,0,1,4.1822-2.30171A15.35863,15.35863,0,0,1,93.5938,169.61251Zm1.52561,5.47566c0-.12269.01008-.24635-.0016-.36792a1.80816,1.80816,0,0,0-1.45045-1.7692,4.433,4.433,0,0,0-1.98022-.02175,4.2145,4.2145,0,0,0-2.62314,1.80259,8.67612,8.67612,0,0,0-1.42236,3.42085,5.3944,5.3944,0,0,0-.096,1.25173,1.72152,1.72152,0,0,0,1.217,1.67207,3.74587,3.74587,0,0,0,1.07288.22379,4.1442,4.1442,0,0,0,3.37614-1.41917A8.02243,8.02243,0,0,0,95.11941,175.08817Z" fill="#fff"/><path d="M246.59675,177.1291a4.22543,4.22543,0,0,1,.53394,3.35761c-.19047,1.12087-.40027,2.23847-.60231,3.36174a35.03154,35.03154,0,0,1-4.57373-.06234,6.00929,6.00929,0,0,1,.15241-1.43931c.08694-.7128.188-1.42391.27014-2.13723a5.27033,5.27033,0,0,0,.00367-.613,1.56337,1.56337,0,0,0-1.03625-.70127,3.445,3.445,0,0,0-.83344-.09754c-.73444.0213-1.46792.07524-2.25659.11925q-.77157,2.45648-1.55726,4.958H232.605a.62687.62687,0,0,1-.04207-.06025.08558.08558,0,0,1-.01476-.04755c.02165-.10286.04-.20706.071-.3072,1.34982-4.35282,2.70082-8.70526,4.06627-13.1047.534-.03612,1.05467-.09563,1.576-.10251q3.84279-.05079,7.68595-.07618a4.90225,4.90225,0,0,1,1.80749.29738,3.87,3.87,0,0,1,.92118.49322,1.78071,1.78071,0,0,1,.74889,1.49559,4.98047,4.98047,0,0,1-2.41081,4.40811C246.8844,176.95441,246.75173,177.0334,246.59675,177.1291Zm-6.59482-3.82442c-.26178.83847-.53883,1.60424-.745,2.43062a18.82752,18.82752,0,0,0,3.56929-.01672,1.73727,1.73727,0,0,0,1.35583-1.37416.9654.9654,0,0,0-.26085-.91619A18.4887,18.4887,0,0,0,240.00193,173.30468Z" fill="#fff"/><path d="M114.94248,170.04875a24.13458,24.13458,0,0,1,4.28673.01957c-.29859.94839-.60342,1.89079-.89132,2.83835a19.61944,19.61944,0,0,0-.76829,2.90478l7.24925-5.7682a36.72386,36.72386,0,0,1,5.49779.03623c-2.51275,2.09953-5.07139,4.08623-7.58988,6.18473,1.29532,2.473,2.58279,4.931,3.90014,7.44611a52.84353,52.84353,0,0,1-5.64784.01671l-3.68232-7.06685c-.21077.13806-.21283.34317-.26587.51234q-.95185,3.0353-1.89435,6.07353c-.05182.16618-.1112.33-.17221.51012h-4.20888a1.02749,1.02749,0,0,1,.11238-.6885q1.52457-4.89459,3.06314-9.78484c.29847-.9534.58886-1.90932.88408-2.86374C114.851,170.3027,114.89417,170.18851,114.94248,170.04875Z" fill="#fff"/><path d="M206.29015,170.52031c.80812-.37159,2.481-.27776,4.32917-.14437-.51755,1.69462-1.03187,3.37863-1.53386,5.0223a.53574.53574,0,0,0,.04512.09406.07561.07561,0,0,0,.045.02566q2.76134.01512,5.52266.02664c.12091.00046.24191-.01752.3981-.02966l1.60158-5.1453a28.03665,28.03665,0,0,1,4.21073.01073c-1.35247,4.51011-2.82278,8.979-4.17791,13.49648h-4.17548c.03261-.16418.04753-.29808.08615-.42478q.62833-2.06176,1.26271-4.12171c.06062-.198.11578-.39764.1738-.59769a48.89723,48.89723,0,0,0-5.924.001c-.174.41362-.394.85247-.5451,1.31385-.29982.91548-.5589,1.84424-.84068,2.76573-.10709.35019-.23032.69545-.33971,1.0235a28.44377,28.44377,0,0,1-4.26188-.02361C203.50687,179.372,204.85278,174.93483,206.29015,170.52031Z" fill="#fff"/><path d="M223.37628,170.318H234.827a10.982,10.982,0,0,1-.84164,2.9633h-7.24651c-.30934.72914-.49876,1.4507-.73372,2.17481a.95075.95075,0,0,0,.58522.08763q2.63255.00567,5.26509.00229h.57212a16.1475,16.1475,0,0,1-.87034,3.09386h-6.5463l-.68684,2.28117h7.32471c-.31948,1.02239-.61533,1.96922-.90644,2.901-.40089.097-10.76646.12735-11.51607.0371a1.40146,1.40146,0,0,1,.02749-.29132q2.00316-6.48136,4.01309-12.96065C223.29249,170.52448,223.328,170.44481,223.37628,170.318Z" fill="#fff"/><path d="M176.38783,170.32505h4.19394a1.11142,1.11142,0,0,1-.10921.56117c-.62681,2.02576-1.25966,4.04965-1.8824,6.07665-.1491.48532-.28025.97722-.393,1.47216a2.66081,2.66081,0,0,0-.05967.72949,1.81208,1.81208,0,0,0,1.61824,1.84063,3.4784,3.4784,0,0,0,2.38958-.38753,4.264,4.264,0,0,0,2.09653-2.4015c.51585-1.48985.98851-2.99474,1.4722-4.4956.31711-.984.6204-1.97249.93161-2.95842.04188-.13265.094-.26208.13726-.38174a28.69721,28.69721,0,0,1,4.1683-.02478.78375.78375,0,0,1-.01069.19456c-.6223,2.00866-1.23566,4.02021-1.87841,6.02233a23.09437,23.09437,0,0,1-.82027,2.16207,8.34033,8.34033,0,0,1-6.78454,5.243,12.40281,12.40281,0,0,1-3.51325.07007,7.29372,7.29372,0,0,1-1.91934-.53025,3.46994,3.46994,0,0,1-2.199-3.24288,7.02873,7.02873,0,0,1,.28292-2.39149c.58005-1.96646,1.176-3.92821,1.76729-5.89133C176.04187,171.44048,176.21376,170.89109,176.38783,170.32505Z" fill="#fff"/><path d="M84.81031,170.08716l-.9576,2.97652H76.55948l-.785,2.39574a.89462.89462,0,0,0,.57328.08394q2.73632.0066,5.47266.0027h.64106c-.29463,1.06915-.60451,2.06351-.92487,3.09622H74.80681l-1.61905,5.10083-4.21945.075c.02654-.53138,3.64956-12.31633,4.20995-13.73853C73.737,169.93411,84.20489,169.93126,84.81031,170.08716Z" fill="#fff"/><path d="M196.60375,183.831c-1.41494.03738-2.79371.10313-4.24852.04966,1.06877-3.54754,2.176-7.0256,3.26542-10.58873h-4.74733a13.9361,13.9361,0,0,1,.867-2.9656h13.86985c-.29417,1.00548-.59308,1.964-.92508,2.94649h-4.79665Z" fill="#fff"/><path d="M111.08266,180.70811l-.9358,2.96248c-.56532.12269-10.6674.14268-11.43371.03178.02758-.38673,3.891-12.8813,4.237-13.68194,1.38425-.06967,2.79283-.05267,4.26794-.06206-1.03576,3.61725-2.22,7.11079-3.29985,10.71421Z" fill="#fff"/><path d="M150.03417,115.70249a31.81342,31.81342,0,0,1-4.05052,3.3684,16.904,16.904,0,0,1-.47119-3.36412A28.40671,28.40671,0,0,1,150.03417,115.70249Z" fill="#fff"/></svg>