<svg id="Layer_1" data-name="Layer 1" xmlns="http://www.w3.org/2000/svg" viewBox="0 0 300 300"><path d="M165.82774,78.73232a19.54854,19.54854,0,1,0-31.65677,0H95.36514v8.7592h50.25462v36.88009l8.7592,11.00053V87.49152h50.25461v-8.7592Zm-15.82838,0a11.42238,11.42238,0,1,1,11.423-11.423A11.42825,11.42825,0,0,1,149.99936,78.73232Z" fill="#fff"/><polygon points="171.772 185.718 182.957 185.718 120.963 107.763 105.847 107.763 105.847 117.181 116.874 117.181 116.874 176.96 105.847 176.96 105.847 185.718 136.686 185.718 136.686 176.96 125.659 176.96 125.659 127.733 171.772 185.718" fill="#fff"/><path d="M224.94719,153.733l-8.5209,7.54451A66.85792,66.85792,0,0,1,154.379,220.44972v-42.209l-8.7592-11.00052v53.23532a66.92958,66.92958,0,0,1-62.0731-59.14521L75,153.76a74.91484,74.91484,0,0,0,36.22058,64.183l38.77878,34.29484,38.78006-34.29484A74.9603,74.9603,0,0,0,225,153.733ZM149.99936,241.3958l-16.38228-14.48359a74.5845,74.5845,0,0,0,32.76455,0Z" fill="#fff"/><polygon points="183.749 116.521 195.436 116.521 195.436 107.763 163.304 107.763 163.304 116.521 174.991 116.521 174.991 153.745 183.749 153.745 183.749 116.521" fill="#fff"/></svg>