<svg id="Layer_1" data-name="Layer 1" xmlns="http://www.w3.org/2000/svg" viewBox="0 0 300 300"><defs><style>.cls-1{fill:#77b943;}</style></defs><title>NVDA_Light_bg</title><path id="path2045" class="cls-1" d="M124.36,123V111c1.16,0,2.35-.16,3.56-.18,33-1,54.62,28.35,54.62,28.35s-23.38,32.45-48.43,32.45a30.16,30.16,0,0,1-9.75-1.56V133.46c12.84,1.56,15.43,7.21,23.14,20.08l17.18-14.48S152.13,122.62,131,122.62a61.64,61.64,0,0,0-6.65.4m0-39.85v18l3.56-.22c45.87-1.53,75.76,37.63,75.76,37.63s-34.35,41.75-70.1,41.75a52.77,52.77,0,0,1-9.22-.82v11.13a59.78,59.78,0,0,0,7.68.5c33.27,0,57.34-17,80.65-37,3.86,3.1,19.69,10.57,22.94,13.9-22.15,18.5-73.81,33.51-103.06,33.51-2.82,0-5.52-.16-8.19-.42v15.67H250.93V83.17Zm0,86.86v9.51C93.65,174.05,85.12,142,85.12,142a66.61,66.61,0,0,1,39.24-19v10.44h0C111.49,131.9,101.42,144,101.42,144s5.63,20.27,23,26.08M69.76,140.67a76.19,76.19,0,0,1,54.6-29.7V101.2C84,104.45,49.07,138.61,49.07,138.61s19.8,57.21,75.29,62.44V190.67c-40.72-5.13-54.68-50-54.68-50"/></svg>