<svg id="Layer_1" data-name="Layer 1" xmlns="http://www.w3.org/2000/svg" viewBox="0 0 300 300"><path id="Path_1" data-name="Path 1" d="M274.983,121.42694c-.01614-11.19183-7.26742-18.58845-18.4754-18.58845q-106.50642-.04845-213.03225,0c-10.94957,0-18.39464,7.41277-18.42694,18.33005q-.0969,28.86133,0,57.7033c.0323,11.01417,7.41277,18.29775,18.33,18.31389H256.05544c11.82168,0,18.91146-7.02517,18.9276-18.74993Q275.017,149.933,274.983,121.42694ZM258.83322,182.4894c-.01614,5.10334-3.7306,8.54326-8.8824,8.80165-.95284.0646-1.90568.01615-2.85853.01615q-97.07574.017-194.15311,0c-8.8501,0-11.72476-2.85851-11.72476-11.69247V120.1188c0-8.301,2.97156-11.27257,11.40177-11.28872q48.81282-.02422,97.6095,0,48.27989,0,96.54361.03229a20.00437,20.00437,0,0,1,6.96058.9367c3.39147,1.292,5.11949,4.2151,5.13563,7.86495C258.89783,139.27249,258.94626,160.88094,258.83322,182.4894Z" fill="#fff" fill-rule="evenodd"/><path d="M231.00708,150.49661c2.22868-1.37273,4.00516-2.32558,5.604-3.48836,10.239-7.47737,9.12464-21.96376-2.39018-27.30934-3.50451-1.63114-7.76806-2.14793-11.70862-2.27713-9.48-.323-18.99219-.113-28.48829-.0969-1.14663,0-2.27712.0969-4.06974.17765,3.5691,3.47221,3.8921,7.41277,3.87595,11.48252-.0646,13.0652-.17765,26.13041-.08075,39.19561.0323,4.97415.35529,9.89984-3.85981,13.87269H216.44c-6.34689-8.34946-2.19638-17.66789-3.23-26.43725a10.14186,10.14186,0,0,1,2.18022,2.84237c3.26226,5.78163,6.23383,11.75707,9.89984,17.28031,1.728,2.584,4.58654,5.79778,7.25126,6.13693,6.50838.82363,13.21056.14534,19.42824.06459C244.799,171.18453,237.91921,160.88094,231.00708,150.49661Zm-17.87784-1.58269v-21.7538c5.86238-1.09819,10.09363,1.82493,11.17566,7.55812C225.51614,141.19431,220.5743,147.67039,213.12924,148.91392Z" fill="#fff" fill-rule="evenodd"/><path d="M64.71281,141.69529c0,11.27257-.1938,21.93145.14534,32.558.0969,2.60012,2.00258,5.13564,3.11692,7.81651H49.37048c6.23382-7.02517,3.90825-15.43923,4.1828-23.40109.2584-7.47736-.01615-14.97088.08075-22.44825.0969-6.71832.19379-13.3882-6.63758-18.863,7.88111,0,14.47024-.0969,21.05936.09689.98514.0323,2.11563,1.34044,2.89082,2.30943q13.49318,16.54548,26.9056,33.18788c.95284,1.17893,1.92183,2.34172,3.24611,3.9567a15.77287,15.77287,0,0,0,.4845-2.45477c.0323-8.20411.30684-16.40822-.11305-24.58-.21-4.08591-1.728-8.09106-2.697-12.24157h17.68405c-4.11821,4.2151-4.18281,9.1731-4.18281,14.19569q.04845,24.03093.01615,48.09416v4.55425c-9.48-2.13178-17.65175-5.29714-23.59489-12.77451q-10.63465-13.37205-21.28546-26.7441c-.79134-1.00129-1.63114-1.97028-2.697-3.26226Z" fill="#fff" fill-rule="evenodd"/><path d="M162.24156,184.60536c-4.6673-1.938-8.86625-3.50452-12.91985-5.41019-4.65115-2.21253-7.26742-6.26613-9.0439-10.96573q-7.96993-21.31776-16.08522-42.58707c-1.04973-2.72932-2.55166-5.26484-3.94056-8.05876h21.26932c5.604,15.81067,11.17567,31.49215,17.11881,48.22336,1.27583-3.71446,2.24482-6.44378,3.18151-9.2054,3.23-9.41534,6.41148-18.84684,9.67375-28.26218,1.37273-3.90826,1.405-7.46122-2.95542-10.64273h17.49025c-7.8488,22.093-15.68147,44.12131-23.78868,66.9087Z" fill="#fff" fill-rule="evenodd"/></svg>