<svg id="Layer_1" data-name="Layer 1" xmlns="http://www.w3.org/2000/svg" viewBox="0 0 300 300"><defs><style>.cls-1{fill:#2a8ec1;}.cls-2{fill:#6a6158;}</style></defs><path class="cls-1" d="M137.87,190.82H133a.56.56,0,0,0-.58.47L129.19,205a.4.4,0,0,0,.06.35.36.36,0,0,0,.35.18h5.12c2.8,0,5.24-1.69,5.76-4.08a2.86,2.86,0,0,0-1.86-3.37,5.29,5.29,0,0,0,2.91-3.26,2.92,2.92,0,0,0-.52-2.62A3.54,3.54,0,0,0,137.87,190.82Zm-3.5,2.1h2.91a1.7,1.7,0,0,1,1.46.58A1.72,1.72,0,0,1,139,195a2.73,2.73,0,0,1-2.68,2.15h-2.85l.93-4.19Zm3.61,8.32a2.91,2.91,0,0,1-2.79,2.21h-3.26l1-4.3h2.91a2.5,2.5,0,0,1,1.86.75,1.6,1.6,0,0,1,.29,1.34Z"/><path class="cls-1" d="M154.1,190.82h-5.93a.58.58,0,0,0-.59.47L144.38,205a.4.4,0,0,0,.06.35.36.36,0,0,0,.35.18h1.4a.69.69,0,0,0,.58-.47l1.22-5.24h3.2l1.63,5.48a.41.41,0,0,0,.35.23h1.69a.75.75,0,0,0,.52-.23.44.44,0,0,0,.06-.47l-1.74-5.18a6.26,6.26,0,0,0,4.19-4.25,3.55,3.55,0,0,0-.64-3.14,3.74,3.74,0,0,0-3.15-1.46Zm1.4,4.54a3.5,3.5,0,0,1-3.2,2.51h-3.78l1.1-4.89h3.84a2.22,2.22,0,0,1,1.69.75,1.68,1.68,0,0,1,.35,1.63Z"/><path class="cls-1" d="M169.76,190.88a.45.45,0,0,0-.41-.29h-.23a.94.94,0,0,0-.47.23l-10,14a.46.46,0,0,0-.06.47c.06.11.18.17.41.17h1.4a.78.78,0,0,0,.64-.35c.35-.46.69-1,1-1.45s.64-.88.94-1.34h7l.7,2.79c.05.24.23.35.52.35h1.4a.54.54,0,0,0,.46-.23.55.55,0,0,0,.12-.41l-3.55-13.91Zm-.12,9.55H164.4l3.9-5.53,1.34,5.53Z"/><path class="cls-1" d="M192,190.82h-1.4a.62.62,0,0,0-.58.47L187.8,201l-7-10.3v-.06h-.58a.64.64,0,0,0-.58.41l-3.2,14a.74.74,0,0,0,.06.35.36.36,0,0,0,.35.17h1.39a.57.57,0,0,0,.59-.47l2.32-10,7,10.65h.58a.58.58,0,0,0,.58-.4l3.2-14a.72.72,0,0,0-.06-.35,1.14,1.14,0,0,0-.46-.18Z"/><path class="cls-1" d="M203.57,190.82h-5a.7.7,0,0,0-.58.47L194.78,205a.37.37,0,0,0,.06.35c.06.12.17.12.29.12h5a10.11,10.11,0,0,0,9.42-7.33,5.84,5.84,0,0,0-1-5.12,6.07,6.07,0,0,0-5-2.22Zm3.49,7.34a6.92,6.92,0,0,1-6.69,5.23h-2.79L200,193h2.85a4.38,4.38,0,0,1,3.61,1.51A4.11,4.11,0,0,1,207.06,198.16Z"/><path class="cls-1" d="M224.29,192.16a.33.33,0,0,0-.18-.29,6.25,6.25,0,0,0-3.78-1.22c-3.55,0-5.41,2.33-5.76,3.9-.58,2.5,1.1,3.67,3,4.48,2.1.93,2.86,1.69,2.62,2.79a2.75,2.75,0,0,1-2.85,1.87,5.24,5.24,0,0,1-3.14-1.4c-.23-.23-.58-.12-.87.17l-.41.41s-.23.29-.35.41c-.35.41-.17.58,0,.76a5.71,5.71,0,0,0,4.36,1.68c2.8,0,5.36-1.68,5.88-3.95.64-2.68-1.57-3.85-3.66-4.72-1.75-.76-2.39-1.45-2.16-2.56a2.67,2.67,0,0,1,2.85-1.8,4.8,4.8,0,0,1,2.62,1l.06,0a.69.69,0,0,0,.93-.23,1.15,1.15,0,0,0,.29-.35c.12-.17.29-.29.41-.46a1.06,1.06,0,0,0,.12-.53Z"/><path class="cls-1" d="M210.73,123.78l-34.22-22.34-34.16,22.4a2.5,2.5,0,0,1-3.44-.7L138,121.8a2.49,2.49,0,0,1,.7-3.43l36-23.57a3.37,3.37,0,0,1,3.61,0l36,23.51a2.46,2.46,0,0,1,.69,3.44l-.87,1.33A2.44,2.44,0,0,1,210.73,123.78Z"/><path class="cls-2" d="M245.41,104.52H244a3,3,0,0,0-3,3v66.92a3,3,0,0,0,3,3h1.45a3,3,0,0,0,3-3V107.55A3,3,0,0,0,245.41,104.52Z"/><path class="cls-2" d="M267.93,94.51h-1.45a3,3,0,0,0-3,3v76.93a3,3,0,0,0,3,3h1.45a3,3,0,0,0,3-3V97.54A3,3,0,0,0,267.93,94.51Z"/><path class="cls-2" d="M97.71,132.63a19.91,19.91,0,0,0-15.25,6.63,23.57,23.57,0,0,0-5.58,15.66v.75a23,23,0,0,0,5.7,15.43,19.8,19.8,0,0,0,15.13,6.46,30.13,30.13,0,0,0,14.72-4.14,2.8,2.8,0,0,0,1.4-1.86,3,3,0,0,0-.46-2.33l-.64-.87a2.84,2.84,0,0,0-3.61-.87c-.29.17-.58.29-.88.46a19,19,0,0,1-9.71,2.8c-9,0-14-7.28-14-12.34l-.06-.41a1.18,1.18,0,0,1,.35-.87,1,1,0,0,1,.76-.29h29.21a2,2,0,0,0,2-1.86,23.92,23.92,0,0,0,.23-2.86,19.61,19.61,0,0,0-5.41-13.9,19.24,19.24,0,0,0-13.85-5.59Zm11.47,17.81a1,1,0,0,1-.7.29h-23a.85.85,0,0,1-.7-.35.9.9,0,0,1-.17-.76A13.11,13.11,0,0,1,97.71,139.2a11.35,11.35,0,0,1,7.8,3.15,12.5,12.5,0,0,1,3.9,7.33,1.22,1.22,0,0,1-.23.76Z"/><path class="cls-2" d="M210.2,132.63A19.89,19.89,0,0,0,195,139.26a23.53,23.53,0,0,0-5.59,15.66v.75a23.08,23.08,0,0,0,5.7,15.43,19.82,19.82,0,0,0,15.13,6.46,30.18,30.18,0,0,0,14.73-4.14,2.79,2.79,0,0,0,1.39-1.86,3,3,0,0,0-.46-2.33l-.64-.87a2.84,2.84,0,0,0-3.61-.87c-.29.17-.58.29-.87.46a19,19,0,0,1-9.72,2.8c-9,0-14-7.28-14-12.34l-.05-.41a1.18,1.18,0,0,1,.34-.87,1.06,1.06,0,0,1,.76-.35h29.22a2,2,0,0,0,2-1.86,24,24,0,0,0,.24-2.85,18.73,18.73,0,0,0-19.27-19.44Zm-13.09,17.05a13.15,13.15,0,0,1,13.09-10.42,11.34,11.34,0,0,1,7.8,3.15,12.42,12.42,0,0,1,3.9,7.33.82.82,0,0,1-.23.7,1,1,0,0,1-.7.29H198a.85.85,0,0,1-.7-.35A.78.78,0,0,1,197.11,149.68Z"/><path class="cls-2" d="M180.58,132.69h-1.69a2.72,2.72,0,0,0-2.61,2l-7.86,28.4-11.7-28.4a2.74,2.74,0,0,0-2.5-1.69h-1.69a2.65,2.65,0,0,0-2.5,1.69l-11.7,28.4-7.85-28.35a2.75,2.75,0,0,0-2.62-2h-1.69a2.76,2.76,0,0,0-2.15,1,2.6,2.6,0,0,0-.47,2.33l10.88,39.34a2.75,2.75,0,0,0,2.62,2h1a2.63,2.63,0,0,0,2.5-1.69l12.81-31.13,12.8,31.07a2.74,2.74,0,0,0,2.5,1.69h1a2.74,2.74,0,0,0,2.62-2l10.88-39.34a2.56,2.56,0,0,0-.46-2.33,2.65,2.65,0,0,0-2.1-1Z"/><path class="cls-2" d="M46.85,132.69a41.37,41.37,0,0,0-14.67,2.91,4.41,4.41,0,0,0-3.08,4.07v34.86A2.92,2.92,0,0,0,32,177.44h1.51a2.92,2.92,0,0,0,2.91-2.91V142.75a1.58,1.58,0,0,1,1-1.45,24.6,24.6,0,0,1,9.31-1.8,14.77,14.77,0,0,1,9.49,3.14,10.31,10.31,0,0,1,3.78,8v23.8a2.92,2.92,0,0,0,2.91,2.91h1.51a2.92,2.92,0,0,0,2.91-2.91v-23.8c.12-10.53-8.32-18-20.48-18Z"/></svg>