<svg id="Layer_1" data-name="Layer 1" xmlns="http://www.w3.org/2000/svg" viewBox="0 0 300 300"><defs><style>.cls-1{fill:#fff;}</style></defs><title>NWSA_Dark_bg</title><path class="cls-1" d="M275,148.48a13.64,13.64,0,0,1-2.27,2.34,62.05,62.05,0,0,1-22.15,8.71,23.28,23.28,0,0,1-4.65.23,2,2,0,0,1-2-1.61,2.17,2.17,0,0,1,1.29-2.42,13.17,13.17,0,0,0,4.49-3.73c.28-.38.5-.79.85-1.36a7.51,7.51,0,0,0-4.64,1.11,14.43,14.43,0,0,0-4.95,5.17,67.3,67.3,0,0,0-6.42,14.21c-.89,2.61-1.6,5.28-2.39,7.92-.12.37-.27.74-.42,1.16h-5.2a7.44,7.44,0,0,1,.16-1.91c.64-1.79,1.31-3.59,2.11-5.32,3-6.55,6-13.07,9.19-19.83-1.66.89-3.11,1.7-4.6,2.45a42.21,42.21,0,0,1-9.93,3.9,13.16,13.16,0,0,1-3.19.28,3.13,3.13,0,0,1-3.19-3.85,15.64,15.64,0,0,1,1-2.9c.17-.44.43-.85.72-1.43a13.15,13.15,0,0,1-7.16-2.51c-3.79,5-8.68,6.61-14.62,4.79-1,1.15-1.9,2.36-3,3.42a8.76,8.76,0,0,1-5.54,2.7c-2.46.21-3.62-.64-4.2-3.08-.07-.3-.14-.59-.2-.82-2.78,1.1-5.48,2.27-8.25,3.27a18.19,18.19,0,0,1-7.36,1.14,6.7,6.7,0,0,1-6.6-6.59,15.8,15.8,0,0,1,1.13-6.67,49.09,49.09,0,0,1,11.23-17.69,12.64,12.64,0,0,1,6-3.62,5.43,5.43,0,0,1,6.59,3.61,9.33,9.33,0,0,1-.14,6.3,68.25,68.25,0,0,1-2.92,6.26,2.56,2.56,0,0,1-.39.54,2.87,2.87,0,0,1-3.19,1.12,3.11,3.11,0,0,1-1.62-3.36,2,2,0,0,1,.65-1.07,12,12,0,0,0,3.31-4.79,4.52,4.52,0,0,0,.29-1.82c-.08-1.78-1.36-2.54-3-1.77a6.85,6.85,0,0,0-1.86,1.28,42.21,42.21,0,0,0-10.59,17.41,11,11,0,0,0-.41,3.29,2.51,2.51,0,0,0,2.86,2.79,15.54,15.54,0,0,0,4.62-.65c3-1,6-2.31,8.92-3.57a9.18,9.18,0,0,0,3.5-2.82c1.93-2.41,4.57-3,7.49-2.48a3.26,3.26,0,0,1,2.5,2.2,2.43,2.43,0,0,0,1.87,1.52,8,8,0,0,0,5.87-.52c2.51-1.28,3.87-3.25,3.35-6.14,1.92-1.22,3.62-1,4.83.74,1.92,2.7,4.43,3.91,7.76,3.15a10.1,10.1,0,0,1,1.32-.22c1.07-.09,2.1,0,2.69,1.05a2.63,2.63,0,0,1-.24,3c-.55.76-1.13,1.5-1.64,2.28a19.69,19.69,0,0,0-1,1.89,5.39,5.39,0,0,0,1.56.06,49.26,49.26,0,0,0,4.93-1.67,50.68,50.68,0,0,0,10.37-6.08c1.65-1.22,3.23-2.45,2.9-4.86a5.62,5.62,0,0,1,4.28.27c1.15.56,1.45,1.7,1,3.25a14.29,14.29,0,0,0-.26,1.48l-.14-.17h0l.14.15a10.74,10.74,0,0,1,6.4-1.49c3.11.25,4.39,2.68,2.7,5.31a38.69,38.69,0,0,1-3.34,4c.27,0,.62-.1,1-.19A41.17,41.17,0,0,0,269,147.44,6,6,0,0,0,270.4,146a1.18,1.18,0,0,1,1.44-.62A4,4,0,0,1,275,148Zm-82.31,2.59c-1.56,1.1-2.91,2-4.18,3-.24.19-.15.78-.22,1.19.42,0,.9.25,1.23.1a6.13,6.13,0,0,0,3.15-3.13C192.77,152,192.69,151.73,192.69,151.07Z"/><path class="cls-1" d="M104.26,154.76c-.83.89-1.59,1.81-2.47,2.61a14.2,14.2,0,0,1-2.66,2c-2.49,1.37-4.28.8-5.49-1.74-.62-1.32-1-2.74-1.56-4.29-.34.2-.75.42-1.13.66a40.64,40.64,0,0,1-12.53,5.57,17.78,17.78,0,0,1-7.58.07c-3.58-.75-6.09-2.68-6.67-6.46a25.33,25.33,0,0,1-3.6-.54c-2.11-.64-2.88-2.59-1.75-4.29a7.06,7.06,0,0,1,1.32-1.18,4.56,4.56,0,0,0,4,.9,60.31,60.31,0,0,1,4.22-6.18,12.63,12.63,0,0,1,10.07-4.18c2.24,0,3.8,1.12,4,3a4.56,4.56,0,0,1-.53,2.77,12.25,12.25,0,0,1-2.64,3A34,34,0,0,1,70,151.65l-1.08.44a3.92,3.92,0,0,0,3.09,3.6,11.25,11.25,0,0,0,6.35-.1,30.42,30.42,0,0,0,11.38-6.3c.87-.75,1.74-1.58,1.57-2.88,3-1.29,5,0,5.05,3.21a12.93,12.93,0,0,0,.34,2.91,9.92,9.92,0,0,0,1,2,6,6,0,0,0,1.22-.79c1.73-2.09,3.45-4.18,5.09-6.34.55-.71.88-1.55,2-1.58,1.4,0,2.28.86,2.38,2.48s.12,3,.3,4.52a13.89,13.89,0,0,0,.8,2.4,19.9,19.9,0,0,0,2.26-1.86c1.36-1.52,2.65-3.12,3.95-4.71,1.84-2.24,2.55-2.45,5.31-1.59a7.88,7.88,0,0,0,6.7-.75,3.68,3.68,0,0,1,1.35-.5c1.78-.22,3.1.53,3.4,1.87.27,1.19-.55,2.28-2.26,2.85a15.81,15.81,0,0,1-9,.73,1.92,1.92,0,0,0-2,.55c-1,1-1.85,2.05-2.84,3a41.73,41.73,0,0,1-4.73,4.3c-2.58,1.82-5,1.08-6.42-1.72C104.93,156.58,104.64,155.7,104.26,154.76ZM69.75,147c2.93-1.35,5.86-2.09,7.74-4.68C75.58,141.23,71.23,143.85,69.75,147Z"/><path class="cls-1" d="M41.71,137.16c-1.14,2.15-2.3,4.28-3.42,6.44-1.9,3.68-3.83,7.34-5.61,11.07a33.43,33.43,0,0,0-1.22,4.17,2.89,2.89,0,0,1-.85,1.43,3.79,3.79,0,0,1-1.8.75c-1.26.16-2.61.11-3.44-1s-.11-2.25.45-3.24c2.35-4.14,4.82-8.23,7.13-12.39,1.86-3.35,3.64-6.74,5.29-10.19a63,63,0,0,0,2.2-6.1,5.59,5.59,0,0,1,4,.4,2.4,2.4,0,0,1,1.37,2.15c.17,2.09.35,4.17.43,6.26a52.25,52.25,0,0,0,1.91,13.45c.16.54.34,1.07.59,1.84,1.14-2.37,2.16-4.49,3.19-6.61a232.72,232.72,0,0,1,11.83-21.22,24.66,24.66,0,0,1,2.75-3.6,2.92,2.92,0,0,1,3.44-.73,2,2,0,0,1,1.3,2.79,9,9,0,0,1-1.58,2.61c-6.43,7.31-10.83,15.87-15.16,24.46-1.38,2.74-2.56,5.58-3.83,8.38a3.11,3.11,0,0,1-5,1.17,1.88,1.88,0,0,1-.64-1.25c0-3.12-1.15-6-1.64-9-.59-3.64-.88-7.33-1.3-11,0-.33-.06-.65-.09-1Z"/><path class="cls-1" d="M129.88,153.4c3.12,1.74,6.37,1.82,10,1.78-.81-1-1.43-1.63-2-2.36a41.39,41.39,0,0,1-3.22-4.41c-2.31-4.1-.81-8,3.59-9.72a15.36,15.36,0,0,1,7-.86,5,5,0,0,1,1.42.37,2.31,2.31,0,0,1,1.73,2.53,2.71,2.71,0,0,1-2.57,2.31,14.84,14.84,0,0,1-1.85-.23,22.48,22.48,0,0,0-3.05-.23c-2.25.1-3.25,1.47-2.58,3.62a9.56,9.56,0,0,0,1.52,2.94c1.44,1.86,3,3.6,4.57,5.41s1.25,3.86-.59,4.92a4.47,4.47,0,0,1-2.41.5c-2.8-.23-5.59-.62-8.38-.92-1.38-.15-2.76-.23-4.14-.4-2-.24-2.52-1.3-1.59-3.08A3.94,3.94,0,0,1,129.88,153.4Z"/><path class="cls-1" d="M246.42,147.61l-.14-.15h0l.14.17Z"/></svg>