<svg id="Layer_1" data-name="Layer 1" xmlns="http://www.w3.org/2000/svg" viewBox="0 0 300 300"><path d="M174.93932,104.73572l-5.06934-.00053L151.17383,134.826,132.476,104.73519h-5.08537l.00107,90.52927h5.0842l18.69783-30.09086,18.69615,30.09086,5.122-.00107-.05315-.07482.00051-90.4526Z" fill="#fff"/><path d="M127.39058,104.73572H99.663l27.6926,45.26382L99.663,195.265h27.72927l-.00107-90.52927Z" fill="#fff" opacity="0.5"/><path d="M202.68858,104.73572H174.94431l-.00051,90.4526.05315.07482,27.68761-.005-27.68929-45.26049,27.6926-45.2638Z" fill="#fff" opacity="0.5"/><path d="M242.22087,104.73572H202.69194l-27.6926,45.26382L202.69026,195.26h.01164l-.01164-19.99611H249.479c19.64115,0,25.521-15.47211,25.521-28.94592V135.68062c-.00107-17.71786-6.38284-30.94251-32.77913-30.94251Zm6.91734,36.5257c0,5.36688-2.50111,11.54205-9.00794,11.54205h-37.404V127.19416H237.752c8.38179,0,11.386,3.49356,11.386,9.6079v4.45906h0Z" fill="#fff"/><path d="M127.35727,150.00117l-27.6926-45.2638-.01165-.00053-.00335,54.7052-46.9204-54.70523H25v90.52928l27.75261-.00667-.01-54.70019,46.92208,54.70691,27.6926-45.26548Z" fill="#fff"/></svg>