<svg id="Layer_1" data-name="Layer 1" xmlns="http://www.w3.org/2000/svg" viewBox="0 0 300 300"><path d="M224.4882,129.66427H169.52839a12.15034,12.15034,0,0,1-12.15574-12.15574h0a12.15034,12.15034,0,0,1,12.15574-12.15574h54.95978a12.15035,12.15035,0,0,1,12.15574,12.15574h0A12.15031,12.15031,0,0,1,224.4882,129.66427Z" fill="#cd2c76"/><path d="M190.15355,186.2692V152.36108a12.15034,12.15034,0,0,1,12.15574-12.15574h0A12.15034,12.15034,0,0,1,214.465,152.36108V186.2692A12.15035,12.15035,0,0,1,202.30929,198.425h0A12.16989,12.16989,0,0,1,190.15355,186.2692Z" fill="#cd2c76"/><path d="M155.27053,82.656V48.74787a12.15034,12.15034,0,0,1,12.15575-12.15574h0A12.15034,12.15034,0,0,1,179.582,48.74787V82.656a12.15033,12.15033,0,0,1-12.15574,12.15574h0A12.16988,12.16988,0,0,1,155.27053,82.656Z" fill="#cd2c76"/><path d="M155.27053,250.39911v-53.9849a12.15034,12.15034,0,0,1,12.15575-12.15574h0A12.15033,12.15033,0,0,1,179.582,196.41421v53.9849a12.15033,12.15033,0,0,1-12.15574,12.15573h0A12.16988,12.16988,0,0,1,155.27053,250.39911Z" fill="#cd2c76"/><path d="M120.38752,124.48514V90.577a12.15035,12.15035,0,0,1,12.15574-12.15574h0A12.15034,12.15034,0,0,1,144.699,90.577v33.90811a12.15035,12.15035,0,0,1-12.15575,12.15575h0A12.16988,12.16988,0,0,1,120.38752,124.48514Z" fill="#cd2c76"/><path d="M120.38752,217.344V199.82636a12.15035,12.15035,0,0,1,12.15574-12.15575h0A12.15035,12.15035,0,0,1,144.699,199.82636V217.344a12.15034,12.15034,0,0,1-12.15575,12.15574h0A12.16989,12.16989,0,0,1,120.38752,217.344Z" fill="#cd2c76"/><path d="M237.19231,140.26627h25.652A12.15034,12.15034,0,0,1,275,152.422h0a12.15034,12.15034,0,0,1-12.15573,12.15575h-25.652A12.15034,12.15034,0,0,1,225.03658,152.422h0A12.13092,12.13092,0,0,1,237.19231,140.26627Z" fill="#cd2c76"/><path d="M37.15574,140.26627h25.652A12.15034,12.15034,0,0,1,74.96344,152.422h0A12.15034,12.15034,0,0,1,62.8077,164.57776h-25.652A12.19591,12.19591,0,0,1,25,152.39154h0A12.12441,12.12441,0,0,1,37.15574,140.26627Z" fill="#cd2c76"/><path d="M85.535,186.2692V152.36108a12.15034,12.15034,0,0,1,12.15574-12.15574h0a12.15033,12.15033,0,0,1,12.15574,12.15574V186.2692A12.15035,12.15035,0,0,1,97.69072,198.425h0A12.15035,12.15035,0,0,1,85.535,186.2692Z" fill="#cd2c76"/><circle cx="150.9749" cy="159.39862" r="16.42091" fill="#cd2c76"/><circle cx="258.85329" cy="117.539" r="11.60736" fill="#4599d5"/><circle cx="132.48233" cy="251.80052" r="11.60735" transform="translate(-128.07624 366.09968) rotate(-85.93495)" fill="#6fb557"/><circle cx="97.59932" cy="117.539" r="11.60736" fill="#254191"/></svg>