<svg id="Layer_1" data-name="Layer 1" xmlns="http://www.w3.org/2000/svg" viewBox="0 0 300 300"><polygon points="137.147 37.398 155.346 37.17 146.702 27.843 137.147 37.398" fill="#139ae8"/><polygon points="119.859 54.686 157.621 54.459 137.83 43.767 129.868 44.45 119.859 54.686" fill="#139ae8"/><polygon points="114.854 60.601 105.983 69.245 158.758 69.245 134.645 60.601 114.854 60.601" fill="#139ae8"/><polygon points="98.931 76.524 89.377 85.851 158.758 85.851 128.276 74.477 98.931 76.524" fill="#139ae8"/><polygon points="82.552 92.22 73.226 101.774 159.213 101.774 123.726 91.083 82.552 92.22" fill="#139ae8"/><polygon points="65.719 108.826 56.847 118.153 158.53 118.153 117.584 107.006 65.719 108.826" fill="#139ae8"/><polygon points="50.705 124.522 41.833 133.394 156.938 133.394 115.992 122.702 50.705 124.522" fill="#139ae8"/><polygon points="32.279 142.948 25 150.455 156.938 150.455 114.854 139.536 32.279 142.948" fill="#139ae8"/><polygon points="32.052 158.872 39.786 165.924 156.711 165.924 116.219 155.232 32.052 158.872" fill="#139ae8"/><polygon points="48.43 174.795 55.255 181.847 154.436 181.847 118.722 172.293 48.43 174.795" fill="#139ae8"/><polygon points="64.126 191.174 72.316 198.908 156.028 198.908 119.859 188.217 64.126 191.174" fill="#139ae8"/><polygon points="78.913 205.505 86.647 213.694 155.573 213.694 122.816 204.14 78.913 205.505" fill="#139ae8"/><polygon points="93.926 220.064 103.708 230.755 153.526 230.755 126.911 220.746 93.926 220.064" fill="#139ae8"/><polygon points="109.167 235.532 118.949 245.541 151.479 245.541 129.868 235.532 109.167 235.532" fill="#139ae8"/><polygon points="125.318 251.911 134.418 261.465 148.066 261.465 135.783 251.911 125.318 251.911" fill="#139ae8"/><polygon points="140.105 266.47 149.886 276.251 149.886 266.242 140.105 266.47" fill="#139ae8"/><polygon points="150.569 28.298 155.346 28.298 150.569 23.749 150.569 28.298" fill="#139ae8"/><polygon points="157.621 38.535 161.715 43.767 171.042 43.767 166.037 38.535 157.621 38.535" fill="#139ae8"/><polygon points="159.895 55.141 168.085 58.553 185.373 58.553 181.733 54.914 159.895 55.141" fill="#139ae8"/><polygon points="163.308 69.472 174.682 74.477 199.704 73.112 195.837 69.245 163.308 69.472" fill="#139ae8"/><polygon points="163.99 86.306 177.184 91.538 216.993 90.4 212.898 86.306 163.99 86.306" fill="#139ae8"/><polygon points="163.99 102.229 183.326 107.689 233.144 106.779 227.912 102.229 163.99 102.229" fill="#139ae8"/><polygon points="164.672 118.608 186.056 124.522 248.612 122.702 244.063 118.153 164.672 118.608" fill="#139ae8"/><polygon points="163.308 134.076 187.42 140.446 265.218 138.626 260.214 134.076 163.308 134.076" fill="#139ae8"/><polygon points="163.99 150 189.24 156.369 271.133 153.867 275 150 163.99 150" fill="#139ae8"/><polygon points="163.99 165.924 183.553 172.293 254.754 170.018 259.076 165.924 163.99 165.924" fill="#139ae8"/><polygon points="161.715 181.847 183.553 187.762 239.513 185.259 244.063 181.847 161.715 181.847" fill="#139ae8"/><polygon points="161.715 198.453 178.321 203.685 223.362 201.865 227.002 198.226 161.715 198.453" fill="#139ae8"/><polygon points="161.715 214.832 173.772 219.609 206.301 218.926 209.941 215.514 161.715 214.832" fill="#139ae8"/><polygon points="159.895 230.755 172.407 235.532 189.695 235.532 194.017 230.983 159.895 230.755" fill="#139ae8"/><polygon points="155.801 245.996 166.492 250.773 175.136 250.773 179.686 245.996 155.801 245.996" fill="#139ae8"/><polygon points="153.526 262.602 158.758 267.379 163.763 262.83 153.526 262.602" fill="#139ae8"/></svg>