<svg id="Layer_1" data-name="Layer 1" xmlns="http://www.w3.org/2000/svg" viewBox="0 0 300 300"><path d="M25,147.30754a11.82367,11.82367,0,0,1,12.06964-12.13141,11.8861,11.8861,0,1,1-.03081,23.76771A11.80382,11.80382,0,0,1,25,147.33835Zm5.84913-.27854c0,3.49716,2.383,6.77746,6.31353,6.77746,4.14692,0,6.15864-3.77551,6.15864-6.71556,0-2.971-2.01172-6.77759-6.22057-6.77759-4.05427,0-6.2516,3.4662-6.2516,6.68479Z" fill="#fff"/><path d="M52.11086,141.33464H56.9077v1.82591a4.03949,4.03949,0,0,1,1.05245-1.207,5.70193,5.70193,0,0,1,3.74461-1.20694,5.24311,5.24311,0,0,1,3.93043,1.64009,5.80713,5.80713,0,0,1,1.02136,1.42373,7.02046,7.02046,0,0,1,1.2379-1.48551,6.09347,6.09347,0,0,1,4.20907-1.57831,6.22133,6.22133,0,0,1,4.51829,1.73309c1.60932,1.70215,1.85693,2.84718,1.85693,6.65378v9.37706H73.34142V149.381a6.08358,6.08358,0,0,0-.3406-2.414,2.169,2.169,0,0,0-2.29-1.39263,2.43419,2.43419,0,0,0-2.4759,1.4236,4.91619,4.91619,0,0,0-.37143,2.13555v9.37706H62.726v-9.34625a5.89019,5.89019,0,0,0-.30931-2.13527,2.21967,2.21967,0,0,0-2.25939-1.45469,2.49731,2.49731,0,0,0-2.53767,1.51647,5.64185,5.64185,0,0,0-.37134,2.29013v9.12961H52.11086Z" fill="#fff"/><path d="M82.09988,141.33464h4.79706v1.82591a5.09988,5.09988,0,0,1,4.735-2.4139c5.78736,0,6.37537,4.70388,6.37537,7.0252v10.73873H92.86984v-9.37706c0-1.888-.40218-3.55915-2.69253-3.55915-2.53765,0-2.94,1.82607-2.94,3.59v9.34625H82.09988Z" fill="#fff"/><path d="M101.65911,135.60919h5.13745v3.89947h-5.13745Zm0,5.72539h5.13745v17.176h-5.13745Z" fill="#fff"/><path d="M127.87219,151.98063a9.22437,9.22437,0,0,1-18.19764-2.10445,9.19129,9.19129,0,0,1,18.16668-1.91879H122.642a3.84981,3.84981,0,0,0-3.71378-2.414,3.68841,3.68841,0,0,0-2.9711,1.207,4.72734,4.72734,0,0,0-1.11413,3.15669,4.05972,4.05972,0,0,0,4.08523,4.36349,3.9472,3.9472,0,0,0,3.71378-2.29Z" fill="#fff"/><path d="M129.88385,149.87609a9.14579,9.14579,0,1,1,0,.031Zm5.13746.06193a4.35455,4.35455,0,1,0,0-.031Z" fill="#fff"/><path d="M151.2998,141.33464h4.79706v1.82591a4.03622,4.03622,0,0,1,1.0522-1.207,5.70227,5.70227,0,0,1,3.74477-1.20694,5.24283,5.24283,0,0,1,3.93037,1.64009,5.80976,5.80976,0,0,1,1.02151,1.42373,7.01775,7.01775,0,0,1,1.23772-1.48551,6.09372,6.09372,0,0,1,4.209-1.57831,6.22134,6.22134,0,0,1,4.51838,1.73309c1.60947,1.70215,1.857,2.84718,1.857,6.65378v9.37706h-5.13753V149.381a6.08721,6.08721,0,0,0-.34038-2.414,2.16927,2.16927,0,0,0-2.2902-1.39263,2.43456,2.43456,0,0,0-2.4759,1.4236,4.91714,4.91714,0,0,0-.37135,2.13555v9.37706H161.9152v-9.34625a5.886,5.886,0,0,0-.30955-2.13527,2.21917,2.21917,0,0,0-2.25915-1.45469,2.49755,2.49755,0,0,0-2.53791,1.51647,5.64171,5.64171,0,0,0-.37135,2.29013v9.12961H151.2998Z" fill="#fff"/><path d="M200.47688,141.55121a9.75967,9.75967,0,0,0-2.56874-2.47583,9.5566,9.5566,0,1,0-5.29218,17.60929,9.93541,9.93541,0,0,0,6.12781-2.07358,8.43576,8.43576,0,0,0,3.09487-4.79691h-11.389v-2.10446h14.36a11.32866,11.32866,0,0,1-1.02133,4.42556,12.26154,12.26154,0,0,1-11.17241,6.80856,11.86913,11.86913,0,1,1,.031-23.737,11.96518,11.96518,0,0,1,10.73912,6.34433Z" fill="#fff"/><path d="M208.05934,141.86072h2.1663v2.72341a5.669,5.669,0,0,1,5.32332-3.18765v2.25919h-.2168c-3.21868,0-5.01354,2.01166-5.01354,5.78716v9.06775h-2.25928Z" fill="#fff"/><path d="M216.44608,150.15466a8.77391,8.77391,0,1,1,0,.031Zm2.25928.0619a6.67014,6.67014,0,1,0,0-.03094Z" fill="#fff"/><path d="M252.87211,158.51058h-2.16634v-2.971c-.92861,2.16636-3.18772,3.46613-6.15873,3.43523-5.19919-.09287-7.02533-3.62091-7.02533-7.67511v-9.439H239.781v9.00585c0,3.58994,1.60934,6.00377,5.3541,5.97281,3.46626-.03094,5.447-2.10446,5.447-5.57066v-9.408h2.29006Z" fill="#fff"/><path d="M257.3287,141.86079h2.16643v3.466a7.658,7.658,0,0,1,6.96327-3.93037c5.60173,0,8.5416,4.54932,8.5416,8.85111a8.46146,8.46146,0,0,1-8.5416,8.72714,7.39727,7.39727,0,0,1-6.83963-3.86831v9.71751H257.3287ZM272.71,150.15466a6.49689,6.49689,0,0,0-6.68485-6.65379,6.59062,6.59062,0,0,0-4.70408,1.94966,6.87646,6.87646,0,0,0-1.85692,4.766,6.50185,6.50185,0,0,0,6.62284,6.62291,6.50332,6.50332,0,0,0,6.623-6.65385Z" fill="#fff"/></svg>