<svg id="Layer_1" data-name="Layer 1" xmlns="http://www.w3.org/2000/svg" viewBox="0 0 300 300"><defs><style>.cls-1{fill:#da7f3c;}.cls-2{fill:#fff;}</style></defs><title>ON_Dark_bg</title><path class="cls-1" d="M246.93,131.38v13.26h0c1.35-4.35,6.37-13.58,6.63-14.09h-5.75A.83.83,0,0,0,246.93,131.38Z"/><path class="cls-2" d="M257,169.3v-2.54h-.88v-.57h2.44v.57h-.88v2.54Zm2,0v-3.16h1l.57,1.91.57-1.91h1v3.16h-.62v-2.49l-.62,2.07h-.62l-.68-2.12v2.54Zm-76.93-33a17.31,17.31,0,0,0-13.06-5.7,17.55,17.55,0,0,0-13.16,5.7,19.25,19.25,0,0,0-5.38,13.78,18.92,18.92,0,0,0,5.38,13.62,17.19,17.19,0,0,0,13.16,5.7A17.38,17.38,0,0,0,179.53,166a18.88,18.88,0,0,0,6.68-8.85l.42-1.14a.61.61,0,0,0-.57-.83h-5.7a.63.63,0,0,0-.57.36l-.21.47a12.07,12.07,0,0,1-4.4,5.07,11.37,11.37,0,0,1-14.71-1.91A13,13,0,0,1,157,152a.61.61,0,0,1,.63-.67h29.21a.63.63,0,0,0,.63-.62v-.83A19.31,19.31,0,0,0,182.07,136.35Zm-2.9,8.7H158.7a.58.58,0,0,1-.51-.88,14.2,14.2,0,0,1,3.36-4.35,11.15,11.15,0,0,1,7.36-2.69,11.28,11.28,0,0,1,7.41,2.69,13.64,13.64,0,0,1,3.37,4.35A.59.59,0,0,1,179.17,145.05Zm-33.47,8.76a10.45,10.45,0,0,0-3.26-3.58,9.53,9.53,0,0,0-1.14-.72,8.5,8.5,0,0,0-1.35-.68c-.93-.41-1.71-.72-2.28-.93l-3-1a19.41,19.41,0,0,1-6.95-3.11,3.31,3.31,0,0,1-1-4.56,4.51,4.51,0,0,1,2.22-1.87,10.43,10.43,0,0,1,3.79-.72,7.89,7.89,0,0,1,4.71,1.5,4.22,4.22,0,0,1,1.76,3.52v1a.52.52,0,0,0,.52.52h5.65a.52.52,0,0,0,.52-.52v-1a10.06,10.06,0,0,0-3.89-8,13.54,13.54,0,0,0-9.27-3.16,15,15,0,0,0-7.46,1.87,10.59,10.59,0,0,0-4.87,5.18,8.69,8.69,0,0,0,0,7.2c1.19,2.7,3.52,4.82,7,6.48l2.13.83c.77.26,1.65.51,2.59.83a36.3,36.3,0,0,1,3.67,1.19c2.85,1.24,4.3,2.74,4.3,4.45a3.93,3.93,0,0,1-2.07,3.32,9.55,9.55,0,0,1-5.39,1.55,9,9,0,0,1-5.23-1.6,4.34,4.34,0,0,1-2.12-3.58v-.88a.52.52,0,0,0-.52-.52h-5.54a.52.52,0,0,0-.52.52v.88a9.39,9.39,0,0,0,1.19,4.66,10,10,0,0,0,3.32,3.63,16.26,16.26,0,0,0,9.53,3,16,16,0,0,0,9.58-3,11,11,0,0,0,3.32-3.63,9.7,9.7,0,0,0,1.19-4.66A9.82,9.82,0,0,0,145.7,153.81ZM115,147.28A15.88,15.88,0,0,0,109.85,135c-3.06-2.95-7.15-4.46-12.23-4.46h0c-5,0-9.12,1.51-12.17,4.41a16.24,16.24,0,0,0-5.13,12.33c0,.21,0,18.34,0,21.76a.58.58,0,0,0,.57.57H87a.58.58,0,0,0,.57-.57c0-3.47,0-16.48,0-20.78a11.74,11.74,0,0,1,2.9-8.18,10.32,10.32,0,0,1,7.2-3.06,10.12,10.12,0,0,1,7.26,3.11c1.6,1.5,2.85,5,2.9,8.29v20.51a.58.58,0,0,0,.57.57l6.11.06a.58.58,0,0,0,.57-.57Zm-40.62-7.36A18.38,18.38,0,0,0,67.47,133a20.16,20.16,0,0,0-10-2.48A20.08,20.08,0,0,0,47.32,133a18,18,0,0,0-6.89,6.89,21.76,21.76,0,0,0,0,20.31,17.89,17.89,0,0,0,6.89,6.89,20,20,0,0,0,10.1,2.49,20,20,0,0,0,10.1-2.49,17.56,17.56,0,0,0,6.84-6.89,20.11,20.11,0,0,0,2.49-10.1A19.87,19.87,0,0,0,74.36,139.92Zm-6,17a12,12,0,0,1-4.4,4.66,12.28,12.28,0,0,1-6.53,1.71,12.1,12.1,0,0,1-11-6.37,15.33,15.33,0,0,1,0-13.68,12,12,0,0,1,4.45-4.66,12.28,12.28,0,0,1,6.53-1.71A12.53,12.53,0,0,1,64,138.58a11.89,11.89,0,0,1,4.4,4.66A14.6,14.6,0,0,1,70,150.08,14.45,14.45,0,0,1,68.35,156.92ZM253.2,169.3h-5.49a.63.63,0,0,1-.67-.73c.56-9.84,2.33-24.35,7-34.29.05-.06.15-.06.15.05v34A1.06,1.06,0,0,1,253.2,169.3Zm-9.9-24.14v23.31a1,1,0,0,1-1,1h-5a1,1,0,0,1-1-1V145.16a7.87,7.87,0,0,0-7.87-7.88,8,8,0,0,0-7.88,7.88v23.31a1,1,0,0,1-1,1h-4.87a1,1,0,0,1-1-1V145.16a7.87,7.87,0,0,0-2.33-5.6,8,8,0,0,0-5.64-2.28,7.62,7.62,0,0,0-5.55,2.28,8,8,0,0,0-2.33,5.6v23.31a1,1,0,0,1-1,1H192a1,1,0,0,1-1-1V145.16a14.23,14.23,0,0,1,4.35-10.42,14.41,14.41,0,0,1,10.47-4.3,13.5,13.5,0,0,1,7.35,2.18,18.62,18.62,0,0,1,3.32,2.74.94.94,0,0,0,1.4,0c.36-.41.78-.77,1.14-1.14a17.26,17.26,0,0,1,2.12-1.65,13.56,13.56,0,0,1,7.36-2.18,14.44,14.44,0,0,1,10.52,4.3A15,15,0,0,1,243.3,145.16Z"/></svg>