<svg id="Layer_1" data-name="Layer 1" xmlns="http://www.w3.org/2000/svg" viewBox="0 0 300 300"><defs><style>.cls-1{fill:#fff;}</style></defs><title>ORCL_Dark_bg</title><path class="cls-1" d="M133.19,153.79H146l-6.75-10.88-12.39,19.67h-5.65L136.27,139a3.58,3.58,0,0,1,5.86,0l15.14,23.66h-5.65l-2.65-4.4H136l-2.83-4.39Zm58.64,4.39V137.67H187v22.52a2.36,2.36,0,0,0,.7,1.66,2.47,2.47,0,0,0,1.76.73h21.84l2.82-4.4Zm-79.24-3.67a8.42,8.42,0,1,0,0-16.84h-21v24.91h4.78V142.06h15.85a4,4,0,0,1,0,8.06H98.76l14.3,12.46h7l-9.61-8.07Zm-50.44,8.07a12.46,12.46,0,1,1,0-24.91H76.63a12.46,12.46,0,0,1,0,24.91Zm14.15-4.39a8.07,8.07,0,1,0,0-16.13H62.47a8.07,8.07,0,1,0,0,16.13Zm91,4.39a12.46,12.46,0,1,1,0-24.91h17.2l-2.82,4.39H167.59a8.07,8.07,0,1,0,0,16.13h17.27l-2.81,4.39Zm58.59-4.39a8.06,8.06,0,0,1-7.75-5.86h20.47l2.82-4.4H218.1a8.06,8.06,0,0,1,7.76-5.87h14.06l2.82-4.39H225.53a12.46,12.46,0,0,0,0,24.91h14.78l2.82-4.39Z"/><path class="cls-1" d="M245.31,140.32a2.2,2.2,0,1,1,2.2,2.2,2.19,2.19,0,0,1-2.2-2.2Zm2.2,2.81a2.8,2.8,0,1,0-2.8-2.8,2.81,2.81,0,0,0,2.8,2.8Zm-.27-4.46a2.18,2.18,0,0,1,.82.08.9.9,0,0,1,.61.88,1,1,0,0,1,0,.26.84.84,0,0,1-.39.54.43.43,0,0,1-.14.07l.73,1.3h-.71l-.64-1.2h-.42v1.2h-.62v-3.13Zm.22,1.41a.57.57,0,0,0,.52-.19.47.47,0,0,0,.07-.27.42.42,0,0,0-.23-.38,1.47,1.47,0,0,0-.58-.06h-.17v.9Z"/></svg>