<?xml version="1.0" encoding="utf-8"?>
<!-- Generator: Adobe Illustrator 24.0.1, SVG Export Plug-In . SVG Version: 6.00 Build 0)  -->
<svg version="1.1" id="Layer_1" xmlns="http://www.w3.org/2000/svg" xmlns:xlink="http://www.w3.org/1999/xlink" x="0px" y="0px"
	 viewBox="0 0 300 300" style="enable-background:new 0 0 300 300;" xml:space="preserve">
<style type="text/css">
	.st0{fill:#F9FCFB;}
	.st1{fill:#211F20;}
	.st2{fill:#039C57;}
</style>
<title>ORLY_Dark_bg</title>
<g>
	<path class="st0" d="M251,145.1c-0.1,27.5-4.5,49.9-16.6,70.3c-13.3,22.5-32.6,37.3-58,43.7c-23.4,5.9-46.6,4.8-68.8-5.3
		c-23.5-10.7-39.7-28.7-48.9-52.6c-13.1-34.1-13.2-68.6,1.4-102.1c15.8-36.2,43.5-58,83.6-61.5c26-2.2,49.6,5.1,69.7,22.1
		c19.4,16.4,30.1,37.9,35,62.5C250.2,131.1,251.1,140.1,251,145.1z M249.5,150.9c0-21.3-3.8-39.6-11.7-56.6
		c-22.6-48.6-75.1-65.8-119.9-49.5c-29.7,10.9-48.8,32.7-59.2,62.1c-10.7,29.8-10.5,60-0.1,89.9c7.5,21.6,20.7,38.9,40.4,50.8
		c19.3,11.7,40.3,15.2,62.5,12.7c31.1-3.6,55.1-18.5,71.4-45.3C245,194.9,249.1,172.7,249.5,150.9z"/>
	<path class="st1" d="M249.5,150.9c-0.4,21.9-4.4,44-16.5,64.1c-16.2,26.8-40.2,41.7-71.4,45.3c-22.2,2.6-43.3-1-62.5-12.7
		c-19.7-11.9-32.9-29.2-40.4-50.8c-10.4-29.9-10.6-60.1,0.1-89.9c10.5-29.3,29.5-51.2,59.2-62.1c44.7-16.3,97.3,0.9,119.9,49.5
		C245.7,111.2,249.5,129.6,249.5,150.9z M240.6,149.4c0.1-17.7-2.8-32.7-9.3-48.3c-16.1-39-57.3-60.8-98.5-51.5
		c-33.9,7.6-55,29.7-66.3,61.6c-8.5,24.1-8.8,48.8-2.5,73.5c5.2,20.3,15.4,37.6,32.3,50.4c20.8,15.8,44.5,19.9,69.8,15.7
		c26.9-4.4,47.2-18.7,60.6-42.4C236.9,190,240.5,170.1,240.6,149.4z"/>
	<path class="st0" d="M240.6,149.4c-0.1,20.7-3.7,40.6-14,58.9c-13.4,23.8-33.7,38-60.6,42.4c-25.3,4.2-49,0.1-69.8-15.7
		c-16.8-12.8-27.1-30.1-32.3-50.4c-6.3-24.7-6.1-49.4,2.5-73.5c11.3-31.9,32.5-53.9,66.3-61.6c41.2-9.3,82.4,12.5,98.5,51.5
		C237.8,116.7,240.6,131.7,240.6,149.4z M229.5,150.8c0-19.5-3.4-37.2-12.5-53.5c-19.2-34.6-57.7-45.5-90.3-34.5
		C99.4,72,83.5,92.5,75.5,119.4c-6.9,23.3-6.3,46.7,1.5,69.6c6.2,18.4,17.3,33.1,34.5,42.7c14.6,8.2,30.5,10.6,47,8.8
		c24.1-2.6,43.3-13.5,56.3-34.2C225.7,189.1,229.3,169.8,229.5,150.8z"/>
	<path class="st2" d="M229.5,150.8c-0.2,19.1-3.7,38.4-14.6,55.6c-13.1,20.7-32.3,31.6-56.3,34.2c-16.5,1.8-32.3-0.6-47-8.8
		c-17.2-9.6-28.3-24.4-34.5-42.7c-7.8-23-8.4-46.4-1.5-69.6c8-26.9,23.9-47.4,51.2-56.6c32.5-11,71.1-0.1,90.3,34.5
		C226.1,113.6,229.5,131.3,229.5,150.8z M193.7,153.4c0-6-0.3-12.1-1-18.1c-1.7-14.6-5.1-28.6-13.6-40.9
		c-11.8-17.2-34.3-21.8-51.2-10.2c-9.8,6.7-14.5,16.8-17.3,27.9c-4.9,19.5-4.9,39.2-1.6,58.9c2.1,13,5.9,25.4,14,36
		c9.3,12.2,21.9,16.8,36.8,14.4c14.5-2.3,22.7-12.1,27.6-25.2C192.5,182.4,193.4,167.9,193.7,153.4z"/>
	<path class="st0" d="M193.7,153.4c-0.2,14.6-1.1,29.1-6.3,42.9c-4.9,13.1-13,22.8-27.6,25.2c-14.9,2.4-27.5-2.2-36.8-14.4
		c-8.2-10.6-11.9-23.1-14-36c-3.3-19.7-3.3-39.4,1.6-58.9c2.8-11.1,7.5-21.2,17.3-27.9c16.9-11.6,39.4-7,51.2,10.2
		c8.5,12.3,11.9,26.3,13.6,40.9C193.4,141.3,193.7,147.3,193.7,153.4z M167.2,136.9c0.5-1.6,0.8-2.6,1.1-3.7
		c1.4-5.3,0.3-9.5-3.6-12.1c-4.1-2.9-8.4-3-12.6-0.1c-1.3,0.9-1.9,0-2.7-0.5c-6.4-4.1-14.5-0.7-16.1,6.7c-0.8,3.6,1.1,6.4,3,9.5
		c-0.7-0.2-1.1-0.3-1.5-0.4c-5.2-1.7-9.7-0.5-12.8,3.5c-2.8,3.6-2.7,7.4,0.6,12.2c0.6,0.9,0.4,1.3-0.1,2c-2.8,4.6-2.3,9.5,1.3,13.1
		c3.9,3.8,9.5,4.7,13.9,2c3-1.8,6-3.1,9.5-3.4c1-0.1,1.9-0.3,2,1.2c0.1,5.4,0.1,10.8-3.8,15.3c-1.9,2.2-1.4,4.6,0.6,6.6
		c2.1,2,4.4,2,6.7,0.3c2.2-1.7,3.5-4.1,4.7-6.5c2.5-5,2.6-10.3,2.3-16c2.3,0.8,4.1,1.6,6.1,2.2c2.1,0.6,4.2,0.6,6.4,0.4
		c8.6-0.8,13.2-8.6,9.6-16.4c-0.6-1.3,0.1-1.9,0.5-2.8c2.3-4.6,1.3-9.3-2.7-12.3C175.9,134.8,171.9,134.6,167.2,136.9z"/>
	<path class="st2" d="M167.2,136.9c4.6-2.3,8.6-2.1,12.4,0.7c4,3,5,7.8,2.7,12.3c-0.4,0.9-1.1,1.6-0.5,2.8c3.7,7.7-1,15.6-9.6,16.4
		c-2.2,0.2-4.3,0.2-6.4-0.4c-2-0.6-3.8-1.4-6.1-2.2c0.3,5.7,0.1,11-2.3,16c-1.2,2.4-2.5,4.8-4.7,6.5c-2.3,1.7-4.6,1.7-6.7-0.3
		c-2-2-2.5-4.4-0.6-6.6c3.9-4.5,3.9-9.8,3.8-15.3c0-1.5-1-1.3-2-1.2c-3.5,0.3-6.6,1.6-9.5,3.4c-4.4,2.7-10,1.8-13.9-2
		c-3.6-3.6-4.1-8.4-1.3-13.1c0.4-0.7,0.7-1.2,0.1-2c-3.3-4.8-3.4-8.6-0.6-12.2c3.1-4,7.6-5.2,12.8-3.5c0.4,0.1,0.7,0.2,1.5,0.4
		c-1.9-3.1-3.8-5.9-3-9.5c1.6-7.4,9.7-10.8,16.1-6.7c0.8,0.5,1.4,1.4,2.7,0.5c4.2-2.9,8.5-2.7,12.6,0.1c3.8,2.7,4.9,6.8,3.6,12.1
		C168.1,134.2,167.7,135.3,167.2,136.9z"/>
</g>
</svg>
