<svg id="Layer_1" data-name="Layer 1" xmlns="http://www.w3.org/2000/svg" viewBox="0 0 300 300"><title>OTIS_Mark_Dark</title><path d="M24.67825,146.5521c.23146-1.73295.40347-3.4763.70425-5.19713,1.66269-9.51276,5.82622-17.65194,13.34407-23.88594a37.09646,37.09646,0,0,1,18.34213-8.05774,43.50664,43.50664,0,0,1,21.262,1.66941c11.55175,4.009,19.30631,11.93614,23.16162,23.46948a45.92721,45.92721,0,0,1-1.15257,33.53284c-5.3057,12.38839-14.90381,19.6418-28.10023,22.02382a41.95246,41.95246,0,0,1-25.40746-2.91406c-10.892-4.9825-17.53686-13.58165-20.58521-25.02629-.7048-2.64611-.94416-5.41611-1.40068-8.12859-.0453-.26913-.11148-.53473-.168-.802Zm55.18017,3.381a31.27081,31.27081,0,0,0-2.20175-12.4c-2.54576-5.89145-7.7332-9.41352-13.76784-9.15111-5.962.25924-10.12029,3.329-12.67457,8.63923a27.62027,27.62027,0,0,0-2.40591,11.34921c-.14158,4.79739.23887,9.53428,2.27553,13.96224,2.55831,5.56212,6.8395,8.83862,13.07181,8.90949,6.11494.06951,10.4552-2.99042,13.14782-8.39647C79.33733,158.76234,79.81039,154.3443,79.85842,149.93308Z" fill="#fff"/><path d="M275.32175,165.43391c-.20222,1.398-.33619,2.81-.618,4.19174-1.57264,7.71079-6.21526,13.016-13.09565,16.51959a44.32032,44.32032,0,0,1-15.2722,4.26422,52.14059,52.14059,0,0,1-19.71038-1.27546,32.8951,32.8951,0,0,1-13.75614-7.05861,24.075,24.075,0,0,1-7.85611-15.41734c-.16516-1.292-.21682-2.5985-.32654-3.97009h24.09043c.09075.85759.1517,1.73657.28116,2.60536a8.49388,8.49388,0,0,0,7.0211,7.61283,18.45049,18.45049,0,0,0,10.45566-.31512,6.34269,6.34269,0,0,0,4.62177-5.996,4.08263,4.08263,0,0,0-2.28-4.13357,49.10786,49.10786,0,0,0-6.62555-2.69418c-5.46485-1.71437-10.99586-3.21706-16.46855-4.90745a35.45513,35.45513,0,0,1-10.64817-5.082,17.17087,17.17087,0,0,1-7.29713-13.80119c-.26437-6.28381,1.19441-12.0503,5.31534-16.94881a27.28782,27.28782,0,0,1,13.40209-8.37359,47.1686,47.1686,0,0,1,18.019-1.59336,39.521,39.521,0,0,1,13.76825,3.44941c8.10778,3.86846,12.45328,10.38554,13.4538,19.23162.09346.82639.14013,1.658.21484,2.56418H249.295c-.00955-.19588-.03737-.40726-.02741-.61683a5.88579,5.88579,0,0,0-2.53077-5.254,12.51392,12.51392,0,0,0-8.70452-2.20516,17.7271,17.7271,0,0,0-3.35734.598,7.22962,7.22962,0,0,0-2.10617.9716,3.97265,3.97265,0,0,0-.38551,6.59446,12.80084,12.80084,0,0,0,4.99722,2.60436c4.00989,1.14109,8.04713,2.18909,12.087,3.22119,4.99158,1.27525,9.96327,2.59992,14.546,5.04144,4.2303,2.25376,7.708,5.27,9.71321,9.74763a19.59613,19.59613,0,0,1,1.62059,6.35743,8.25933,8.25933,0,0,0,.17452.89289Z" fill="#fff"/><path d="M125.32657,130.792H103.46092V110.77813h67.79289v19.99855H149.42956v58.13726h-24.103Z" fill="#fff"/><path d="M200.55072,110.76006v78.15605H176.51523V110.76006Z" fill="#fff"/></svg>