<svg id="Layer_1" data-name="Layer 1" xmlns="http://www.w3.org/2000/svg" viewBox="0 0 300 300"><defs><style>.cls-1{fill:#fff;}</style></defs><title>Artboard 2</title><path class="cls-1" d="M99.19,197.28c13.19,23.32,38.63,47.23,81.95,48.64a91,91,0,0,0,72.78-34.39,71.32,71.32,0,0,0,8.81-14.14h2.12c-20,48.05-66.41,81.37-118.33,80.55-21.9-.71-42.39-4.95-61.46-15.88a124.55,124.55,0,0,1-56.78-64.67h71.5"/><path class="cls-1" d="M193.16,102.61h71.58A125.23,125.23,0,0,0,208,37.94c-19.07-10.82-39.56-15.06-61.47-15.88C94.61,21.24,48.2,54.34,28.19,102.61h2.12a76.69,76.69,0,0,1,8.82-14.13,91,91,0,0,1,72.55-34.4c43.44,1.41,68.76,25.44,82,48.64"/><path class="cls-1" d="M79.29,120.27c12,.34,17.66,1.75,20.6,5.43s3.54,6.69,3.54,19.52v3.54c0,8-.37,13.53-.6,16.36a13.66,13.66,0,0,1-3.64,8.25c-4.36,3.76-12,4.95-32.17,4.95a178.33,178.33,0,0,1-30-1.78c-7.66-1.53-11.08-5.4-11.67-13.43-.23-2.82-.34-6.21-.34-9.63v-4.24A132.49,132.49,0,0,1,25.71,134,14.55,14.55,0,0,1,30,124.51c3.53-3.2,8.47-4.24,20.71-4.5H64.34ZM74,163.37c8.84,0,11.3-1.64,11.67-7.32,0-2.83.22-6.7.22-9.53,0-9.07-.81-10.59-6-11.3a151.55,151.55,0,0,0-16.5-.82c-12,0-16.7.48-18.48,2s-2.83,5.06-2.83,12.6c0,11.31,1.07,13.28,7.77,13.88,3.31.25,6.36.48,11.31.48a22.11,22.11,0,0,0,2.82,0Zm33.32-42.62,27,28.26-29.23,28.71h25l18.59-20.49,18.71,20.49h24.39L162.89,149l27.44-28.26h-24l-17.67,20-17.66-20Zm86.08,0L226,157.49v20.12h17.92V157.49L275,120.75H252.39l-17.78,22.83-18.48-22.83Z"/></svg>