<svg id="Layer_1" data-name="Layer 1" xmlns="http://www.w3.org/2000/svg" viewBox="0 0 300 300"><title>PARA_Mark_Dark</title><circle cx="150" cy="150" r="114.44201" fill="#000a3e"/><path d="M83.24216,199.82043c-23.11729-30.1364-23.88023-77.97317,8.545-109.788,31.586-31.05194,82.55084-31.6623,115.35755-.91554,32.65411,30.51787,33.72225,78.7361,9.99461,110.24581a17.1059,17.1059,0,0,1-6.40875-4.95915c-7.248-8.6213-14.41969-17.1663-21.66769-25.7113a23.92251,23.92251,0,0,0-9.30794-6.94282,5.79806,5.79806,0,0,1-2.36514-2.13626q-8.12539-14.07636-16.02189-28.15273c-2.13625-3.891-5.7221-6.10358-9.30794-8.39242a2.0272,2.0272,0,0,0-1.75478-.07629,29.5474,29.5474,0,0,0-4.88286,3.891,33.04764,33.04764,0,0,0-4.34879,5.951c-1.98367,3.43326-5.41693,5.49322-7.78206,8.46871-7.85835,9.842-15.64041,19.76032-23.49876,29.67863-.38147.53406-.83924,1.22072-1.4496,1.3733-2.36513.68665-3.73844,2.594-5.11174,4.3488-4.57768,5.87468-9.07907,11.74937-13.733,17.47147C87.74355,196.15828,85.37841,197.83676,83.24216,199.82043ZM149.9237,85.60729l4.50138,3.20438c-.61036-2.06-1.14442-3.66215-1.60219-5.188l4.04362-3.05179-.15259-.38147h-5.03545c-.53406-1.67849-1.06812-3.20438-1.67848-5.03545l-1.83107,5.188H142.752l4.4251,3.28067-1.6022,5.26433Zm66.37637,61.41722-5.26433-1.60219,3.12809,4.50138-3.12809,4.50138,5.188-1.60219,3.357,4.50138v-5.56951L224.76878,150l-5.188-1.75478V142.752Zm-14.34339-34.943v5.49321l3.28067-4.42509,5.188,1.60219-3.12808-4.50139,3.12808-4.50139-5.188,1.60219c-1.06812-1.4496-2.05995-2.74661-3.05178-4.04362l-.38148.22889V108.572l-5.11174,1.67848ZM126.80642,78.66448v5.49321l-5.188,1.75478,5.26433,1.83108v5.34062l3.20437-4.34879,5.18805,1.60219L132.147,85.83618c.99184-1.4496,1.98366-2.74661,3.20438-4.50139L130.08709,82.937Zm-20.90475,10.605,1.60219,5.188L103.46024,97.433l.15259.38148H108.572l1.75478,5.188c.68666-1.98366,1.22072-3.50956,1.75478-5.188h5.49322l-4.50139-3.28068c.53406-1.67848.99183-3.28067,1.60219-5.26433l-4.50139,3.20437ZM85.98877,178.229l1.75478-5.26433h5.49321l-4.42509-3.20437c.53406-1.67848.99183-3.28068,1.60218-5.188l-4.50138,3.12808-4.42509-3.12808c.61035,2.05995,1.06812,3.58585,1.60218,5.188l-4.42509,3.357h5.49322C84.76805,174.71947,85.30211,176.32166,85.98877,178.229ZM186.62144,94.53377l-4.34879,3.28068h5.41693c.61036,1.67848,1.14442,3.357,1.75478,5.188.61036-1.90737,1.14442-3.50956,1.75478-5.188h5.49321l-4.42509-3.28068c.45777-1.67848.91553-3.20437,1.52589-5.188l-4.42509,3.12808-4.50138-3.20437ZM209.43355,164.496c.61036,2.05995,1.14442,3.66215,1.60219,5.26433l-4.42509,3.28067h5.49321c.61036,1.67848,1.14442,3.28067,1.75478,5.188.61036-1.90737,1.14442-3.50956,1.75478-5.188h5.49322l-4.4251-3.28067c.53406-1.67848.99184-3.28068,1.6022-5.188l-4.50139,3.20437C212.48534,166.70853,211.18833,165.71671,209.43355,164.496ZM80.343,157.17169l3.28067-4.50138,5.188,1.67848-3.12808-4.50138c.99183-1.44959,1.98366-2.74661,3.12808-4.50138l-5.188,1.60219c-1.06812-1.52589-2.06-2.74661-3.357-4.50138v5.56952l-5.188,1.75478,5.188,1.75478ZM216.75784,130.0108l4.4251-3.357h-5.49322c-.61036-1.67848-1.06812-3.28067-1.75478-5.188-.68665,1.98366-1.22072,3.58585-1.83107,5.34063h-5.26432l4.2725,3.20437c-.53406,1.67848-.99183,3.20438-1.60219,5.188l4.50138-3.20438,4.50138,3.20438C217.74967,133.21517,217.2919,131.613,216.75784,130.0108Zm-133.592,0-1.67848,5.188,4.50139-3.12808,4.50138,3.20438c-.61036-1.98367-1.06812-3.58585-1.60218-5.188l4.50138-3.28068H87.81984c-.53406-1.67848-1.06813-3.20437-1.75478-5.188-.68665,2.06-1.22071,3.66215-1.83107,5.34063H78.89336c1.60219,1.06812,2.8992,1.98366,4.2725,3.05179Zm81.40643-48.59972,3.12808,4.50139-3.12808,4.50139,5.188-1.60219,3.28067,4.3488V87.74355l5.188-1.83108-5.26433-1.75478V78.81707l-3.20437,4.34879Zm-61.49352,28.91569-5.188-1.83108v-5.41692l-3.20437,4.3488L89.422,105.82538l3.20437,4.50139L89.422,114.82816l5.26433-1.67849,3.28067,4.3488v-5.41692Z" fill="#fff"/><path d="M208.59431,199.05748H189.90212a79.43626,79.43626,0,0,0-12.81751-17.70036l-.61036.15258a5.824,5.824,0,0,0,.15259,1.98367c1.14442,3.20437,2.44142,6.33246,3.50956,9.53683a39.31482,39.31482,0,0,1,.76294,5.26433l-17.92925-2.8992c.15259,1.22072.30518,2.44143.53407,3.81474h-14.496a12.17136,12.17136,0,0,1-.0763-7.55317c1.67848-5.34063,3.50956-10.68126,5.34062-16.09818-5.49321-3.20438-11.97826-2.44143-18.5396-2.51773.22888-.61036.38147-1.14442.61036-1.60219,2.51772-5.87469,5.03545-11.67309,7.55316-17.54778.99184-2.28884.83925-2.8229-1.3733-4.04362l9.308-21.4388a14.02279,14.02279,0,0,1,5.49321,5.26433c6.40875,11.21532,12.74121,22.50693,19.15,33.72225.22889.38147.45777.76294.99183,1.67848.15259-1.297.22889-2.06.38148-3.50956,2.05995,1.52589,4.1962,2.44142,5.6458,4.04362,6.485,7.248,12.74121,14.64857,19.07367,21.97287C204.55069,194.09833,206.53436,196.61605,208.59431,199.05748Z" fill="#fff"/><path d="M116.35405,194.17461c-1.67848-.99183-1.83107-2.13625-.91553-3.58584,1.67848-2.8992,3.43326-5.72211,5.11174-8.62131l-.76295-1.14442c5.34063-8.01094,9.07907-17.2426,17.31889-23.88023a10.80242,10.80242,0,0,1-.53406,1.67848c-1.67848,3.50956-3.357,6.94282-4.95915,10.45237a7.34671,7.34671,0,0,0-.99183,2.8229,14.3097,14.3097,0,0,0,.76294,3.58585h.763l-2.67031,6.33246C122.8391,183.56966,120.01619,189.21546,116.35405,194.17461Z" fill="#fff"/></svg>