<?xml version="1.0" encoding="utf-8"?>
<!-- Generator: Adobe Illustrator 24.0.1, SVG Export Plug-In . SVG Version: 6.00 Build 0)  -->
<svg version="1.1" id="Layer_1" xmlns="http://www.w3.org/2000/svg" xmlns:xlink="http://www.w3.org/1999/xlink" x="0px" y="0px"
	 viewBox="0 0 300 300" style="enable-background:new 0 0 300 300;" xml:space="preserve">
<style type="text/css">
	.st0{clip-path:url(#SVGID_2_);fill:url(#SVGID_3_);}
</style>
<title>PAYC_Light_bg</title>
<g>
	<defs>
		<path id="SVGID_1_" d="M55.8,42.1c-7.6,0-13.7,6.2-13.8,13.8v188.2c0,7.6,6.2,13.8,13.8,13.8h29.1c7.6,0,13.8-6.2,13.8-13.8V112.5
			c0-7.6,6.2-13.7,13.8-13.8h75c7.6-0.1,13.9,6,14,13.7c0,0,0,0.1,0,0.1v74.8c0,7.6-6.2,13.8-13.8,13.8h-43.1
			c-7.6,0-13.8,6.2-13.8,13.8v29.1c0,7.6,6.2,13.8,13.8,13.8h99.8c7.6,0,13.8-6.2,13.8-13.8V55.9c0-7.6-6.2-13.7-13.8-13.8
			L55.8,42.1L55.8,42.1z"/>
	</defs>
	<clipPath id="SVGID_2_">
		<use xlink:href="#SVGID_1_"  style="overflow:visible;"/>
	</clipPath>
	
		<linearGradient id="SVGID_3_" gradientUnits="userSpaceOnUse" x1="-1914.7946" y1="1095.0931" x2="-1911.3424" y2="1095.0931" gradientTransform="matrix(51.9048 45.5995 45.5995 -51.9048 49520.6367 144236.1406)">
		<stop  offset="0" style="stop-color:#AECC50"/>
		<stop  offset="0" style="stop-color:#AECC50"/>
		<stop  offset="0.7" style="stop-color:#00853D"/>
		<stop  offset="1" style="stop-color:#00603E"/>
		<stop  offset="1" style="stop-color:#00603E"/>
	</linearGradient>
	<polygon class="st0" points="134.2,-63.8 363.1,137.2 162,366 -66.8,165 	"/>
</g>
</svg>
