<svg id="Layer_1" data-name="Layer 1" xmlns="http://www.w3.org/2000/svg" viewBox="0 0 300 300"><defs><style>.cls-1{fill:#fff;}</style></defs><title>PAYX_Dark_bg</title><path id="path4757" class="cls-1" d="M41.31,140.24h4.06c2.46,0,5.21.45,5.21,3.63,0,2.72-1.59,4.54-6.37,4.54H39.72ZM23.5,170.36H35.23l2.46-12.26h8c10.13,0,16.65-7,16.65-15.14,0-8.93-4.63-13-11.73-13h-19Z"/><path id="path4759" class="cls-1" d="M76.79,143.72h0l1.45,12.11H70.86ZM51.45,170.36H63.62l3-5.75h12.6l.57,5.75H91.57l-6.23-40.42H73.61Z"/><polygon id="polygon4761" class="cls-1" points="105.18 170.36 93.3 170.36 96.2 155.53 87.94 129.94 99.82 129.94 103.58 144.93 113 129.94 126.9 129.94 108.08 155.37 105.18 170.36"/><path id="path4763" class="cls-1" d="M155.29,154.92c-.73,4.09-3.77,16.35-19.84,16.35-11.16,0-16.66-7.57-16.66-18.32,0-13,7.82-23.92,20.86-23.92,8.54,0,16.22,3.94,16.5,16.05h-11c.14-3.78-1.59-5.9-5.36-5.9-6.66,0-9,7.87-9,13.62,0,3.33.73,8.48,6.23,8.48,3.76,0,5.79-2.73,6.66-6.21Z"/><polygon id="polygon4765" class="cls-1" points="174.11 129.94 171.36 144.02 182.22 144.02 184.97 129.94 196.85 129.94 188.88 170.36 176.86 170.36 180.05 154.31 169.19 154.31 166 170.36 154.13 170.36 162.24 129.94 174.11 129.94"/><path id="path4767" class="cls-1" d="M269.69,129.94h-14L248,140.39l-3.76-10.45H200l-8.11,40.42h44.45l9-11.35,4.2,11.35h13.33L253.47,149Zm-44.6,36.64,1.3-6.66H206l1-5h18.53l1.89-9.69H208.87l1-5h20l1.74-9.39,8.4,17.86Z"/><path id="path4769" class="cls-1" d="M271.29,131.76a2.41,2.41,0,0,1,2.46-2.57,2.5,2.5,0,0,1,2.46,2.57,2.41,2.41,0,0,1-2.46,2.57,2.33,2.33,0,0,1-2.46-2.57m-.58,0a2.88,2.88,0,0,0,2.89,3,3,3,0,1,0-2.89-3m1.74,1.82H273v-1.52h.58l.87,1.52h.58l-1-1.52c.58,0,.87-.3.87-.91s-.44-1.06-1.16-1.06h-1.3Zm.57-3.18h.73c.43,0,.72,0,.72.6s-.43.61-.87.61H273Z"/></svg>