<svg id="Layer_1" data-name="Layer 1" xmlns="http://www.w3.org/2000/svg" viewBox="0 0 300 300"><path id="path115" d="M40.33588,150.1583V137.76107h5.58253a6.20413,6.20413,0,0,1,0,12.39723ZM25,125.84406v48.13216H40.33845V162.31676l9.87164-.008c9.65049,0,17.47528-8.16377,17.47528-18.23233,0-10.07124-7.82479-18.23232-17.47528-18.23232Z" fill="#fff"/><path id="path119" d="M81.715,125.84405,56.26315,173.9762H73.50959l6.23309-11.78555H94.19914V173.9762H109.301V125.84405Zm12.48419,24.31423h-8.0948l8.0948-15.31075Z" fill="#fff"/><path id="path123" d="M198.69859,125.84405l-15.22788,28.80256a9.42735,9.42735,0,0,1-8.35965,5.23415,9.88836,9.88836,0,0,1,0-19.75884,9.49749,9.49749,0,0,1,8.86107,6.39312l8.12308-15.402a24.14378,24.14378,0,0,0-36.56028,2.95913,26.39875,26.39875,0,0,0-2.19341,3.46886L146.769,150l-2.45055,4.64661a9.42347,9.42347,0,0,1-8.35708,5.23415,9.88825,9.88825,0,0,1,0-19.75884,9.49422,9.49422,0,0,1,8.85851,6.39312l8.12564-15.39929a24.196,24.196,0,0,0-16.98415-7.01553c-13.71074,0-24.82437,11.59508-24.82437,25.89978s11.11363,25.89978,24.82437,25.89978a24.42621,24.42621,0,0,0,19.57356-9.972,24.4274,24.4274,0,0,0,19.57613,9.972,24.69892,24.69892,0,0,0,21.90583-13.70913h14.16588V173.9762h15.10188V125.84405Zm12.63333,24.31423h-8.0948l8.0948-15.31075Z" fill="#fff"/><path id="path127" d="M246.51137,150.1583V137.76107h5.5851a6.20413,6.20413,0,0,1,0,12.39723ZM275,173.97622l-8.97679-16.95263a17.42538,17.42538,0,0,0,6.86052-13.96935c0-9.50517-7.38508-17.21018-16.49558-17.21018H231.17549v48.13216h15.33845V162.31676l5.058-.00537,6.17652,11.66483Z" fill="#fff"/></svg>