<svg id="Layer_1" data-name="Layer 1" xmlns="http://www.w3.org/2000/svg" viewBox="0 0 300 300"><path id="path2111" d="M213.67913,65.17011H65V234.82989H213.67913Z" fill="#fff"/><g id="g2113"><path id="path2115" d="M150.62375,180.28018a9.42408,9.42408,0,0,0-4.30954,4.64977c-1.58773,4.30954-.68045,9.18612,2.60841,14.62976l-3.17546,3.17545-3.62908,5.33022c-1.70113,4.64977-1.02068,9.52634,2.38159,14.85657,2.04136,3.51569,5.78385,5.21682,11.34089,5.10341h14.17612c2.15477.22681,3.062-.45363,2.60841-2.15477V200.12675h-8.052v6.46431l-9.07272-12.81522-1.3609-3.96931q0-3.40227,3.062-3.062l1.13409.34023a2.74086,2.74086,0,0,1,1.47432,2.15477v3.62909h9.07272v-3.062a14.3189,14.3189,0,0,0-1.47432-6.46431l-1.2475-1.58773c-1.92795-1.81454-4.53635-2.72181-7.82522-2.94863l-4.64976.34023Z" fill="#f1b944"/></g><g id="g2117"><path id="path2119" d="M159.016,220.08673h4.99l.11341-.567-11.00067-12.92863c-1.02068.68046-1.70113,2.04137-2.15477,4.08272a9.17318,9.17318,0,0,0,1.36091,7.25817l1.81454,1.24751Z" fill="#fff"/></g><g id="g2121"><path id="path2123" d="M203.58573,203.3022h-13.042v14.28954h13.042v10.43362h3.62908V71.521H176.02736V228.479h1.81454V168.82588h25.74383v10.547h-13.042v13.38226h13.042Z" fill="#4085be"/></g><g id="g2125"><path id="path2127" d="M92.8986,183.79586c-.79386-3.51568-2.83522-4.99-5.78386-4.423v17.35157q5.1034.85057,5.78386-5.44363Z" fill="#4085be"/></g><g id="g2129"><path id="path2131" d="M116.14743,168.25884l6.3509-.90728c4.64977.22682,8.27885,1.92795,10.66044,5.21681l1.81454,2.83523a27.27613,27.27613,0,0,1,.90728,11.11408l-11.45431-.11341v-5.67045c-.22682-1.70113-1.02068-2.60841-2.83522-2.60841-1.70114.11341-2.60841,1.2475-2.60841,3.40227V215.437l.34023,1.58772a2.69249,2.69249,0,0,0,2.15477,1.81455c2.26818.79385,3.51567-.22682,3.51567-2.83523v-9.98h-3.17545V195.59039h14.51635V209.6531L175.23349,71.521H71.3509V228.5924h3.7425V168.59906H87.34156l6.3509.68045c4.64977,1.36091,7.82522,3.7425,9.52635,7.485.90728,1.928,1.47432,5.21681,1.928,9.75317.45364,6.3509-.11341,10.43362-1.47432,12.13475-2.6084,5.89726-6.80453,8.8459-12.7018,8.39226l-4.08272-.1134v21.20748H115.6938c-5.78386-1.24751-8.61908-5.67045-8.61908-12.81522V180.96063C106.28086,174.1561,109.3429,169.84657,116.14743,168.25884Z" fill="#4085be"/></g><g id="g2133"><path id="path2135" d="M225.92728,83.54236c6.12408,0,9.07272-3.062,9.07272-9.29954,0-5.89726-2.94864-8.73249-9.07272-8.73249-6.23749,0-9.18613,2.83523-9.18613,8.73249C216.74117,80.48031,219.68979,83.54236,225.92728,83.54236Zm7.37159-9.29954c0,5.44363-2.3816,7.93863-7.37159,7.93863-5.1034,0-7.59839-2.495-7.59839-7.93863,0-4.99,2.495-7.5984,7.59839-7.5984C230.91729,66.64442,233.29887,69.25283,233.29887,74.24282Z" fill="#4085be"/><path id="path2137" d="M230.12343,72.08805c0-2.04136-1.3609-3.062-3.7425-3.062h-3.96931V79.79986h1.58772V75.15009h1.81455l2.94864,4.64977h1.70113l-3.062-4.76318A2.67161,2.67161,0,0,0,230.12343,72.08805Zm-3.85592-1.70113c1.58772,0,2.26818.567,2.26818,1.58772,0,1.2475-1.02067,1.81455-2.83522,1.81455h-1.70113V70.38692Z" fill="#4085be"/></g></svg>