<svg id="Layer_1" data-name="Layer 1" xmlns="http://www.w3.org/2000/svg" viewBox="0 0 300 300"><defs><style>.cls-1{fill:#fff;}</style></defs><title>PEAK_Dark_bg</title><path class="cls-1" d="M73.73,82h40.09c5-5.41,10-10.9,15-16.43q10.46-11.52,20.88-23.07h1c3.79,4.29,7.55,8.61,11.39,12.87,8,8.9,16.1,17.76,24.27,26.77h39.77v9.78c-.73.06-1.45.16-2.17.16-11.92,0-23.83,0-35.74,0a6.44,6.44,0,0,1-3.59-1.23c-10.79-8.25-21.5-16.58-32.24-24.89-.71-.55-1.44-1.07-2.33-1.72L113.89,92H73.73Z"/><path class="cls-1" d="M73.73,100.5c1,.08,2,.23,3,.24,11.41,0,22.83.06,34.24,0a10.53,10.53,0,0,0,4.91-1.31c10.74-6.18,21.4-12.52,32.09-18.8.71-.41,1.45-.78,2.31-1.25l17.4,10.27c5.59,3.31,11.14,6.68,16.79,9.88a9.46,9.46,0,0,0,4.43,1.21c11.49.1,23,.06,34.49.06h2.92v9.69c-.74,0-1.46.14-2.18.14-12,0-24,0-36,0a10.6,10.6,0,0,1-3.84-.8c-11.36-4.72-22.69-9.51-34-14.27-11.46,4.77-22.82,9.5-34.19,14.21a8.61,8.61,0,0,1-3.07.85c-13.08,0-26.16,0-39.24,0Z"/><path class="cls-1" d="M73.73,119c.9.08,1.8.23,2.71.24,11.66,0,23.33,0,35,0a17.92,17.92,0,0,0,4.65-.69c10.41-2.93,20.77-6,31.2-8.84a11.67,11.67,0,0,1,5.81,0c10.42,2.85,20.79,5.94,31.19,8.88a16.9,16.9,0,0,0,4.41.63c11.5,0,23,0,34.49,0h3v9.83h-2.74c-10.91,0-21.85.41-32.73-.13-7.76-.39-15.47-2-23.18-3.18-5-.78-10-2.35-15-2.56-4.65-.19-9.38.8-14,1.56-7.71,1.26-15.39,2.75-23.09,4.14a8.27,8.27,0,0,1-1.49.15q-20.11,0-40.23-.06Z"/><path class="cls-1" d="M73.73,156.5c.83,0,1.66-.08,2.49-.08H226.1v10H77c-1.08,0-2.16.05-3.24.08Z"/><path class="cls-1" d="M73.73,138c.83,0,1.66-.08,2.49-.08h149.9v9.83H77.19c-1.16,0-2.31.16-3.46.24Z"/><path class="cls-1" d="M73.73,175c13.16,0,26.34-.49,39.47.12,6.12.28,12.16,2.6,18.22,4,5.67,1.34,11.31,2.77,17,4.05a8.33,8.33,0,0,0,3.65,0c11-2.6,22-5.29,33-7.94a9.36,9.36,0,0,1,2.22-.31q18.87,0,37.73,0c.33,0,.65.07,1.14.12v9.87h-2.8c-10.74,0-21.49.16-32.23-.06-6.48-.14-12.45,2-18.6,3.31-6.67,1.41-13.25,3.21-19.91,4.68a11.59,11.59,0,0,1-4.87,0c-10.78-2.45-21.54-5-32.3-7.57a10,10,0,0,0-2.21-.34q-19.74,0-39.48.06Z"/><path class="cls-1" d="M73.73,193.5c12.66,0,25.32,0,38,.05a7.89,7.89,0,0,1,3.92,1.13c11.48,7.21,22.91,14.52,34.53,21.91l13.2-8.43c7.08-4.53,14.14-9.09,21.24-13.58a5.93,5.93,0,0,1,3-1c12.49-.07,25-.05,37.48,0,.32,0,.64.06,1.12.11v9.8h-2.66c-11.58,0-23.16,0-34.73.05a9.2,9.2,0,0,0-4.41,1.23c-10.46,6.18-20.84,12.49-31.24,18.76-.92.55-1.86,1.08-3,1.71-4-2.39-8-4.75-12-7.13-7.64-4.56-15.27-9.15-22.93-13.67a5.73,5.73,0,0,0-2.76-.91c-12.91,0-25.81,0-38.72,0Z"/><path class="cls-1" d="M149.73,257.5c-7.74-7.65-15.51-15.26-23.19-23-4.16-4.19-8.15-8.54-12-12.53H73.73V212h40.06l36.38,37.48,36-37.36h40v9.73H185.3c-3,3.34-6.43,7.34-10.12,11.07-7.78,7.88-15.71,15.61-23.58,23.42a10,10,0,0,0-.87,1.16Z"/></svg>