<svg xmlns="http://www.w3.org/2000/svg" viewBox="0 0 300 300"><g id="svg2"><path id="path3244" d="M25,150A125,125,0,1,1,150,274.97123,125.00733,125.00733,0,0,1,25,150" fill="#e06832"/><path id="path3246" d="M133.08012,118.30737,85.49976,53.59747l20.304,42.64012L67.96616,68.0189l54.24492,59.18646-68.601-41.59053,34.96694,31.56754-45.734-11.49714,72.70345,33.91735-79.368-12.1723,44.50393,15.77134-46.65717,6.84851,80.18834,3.52406L36.28137,172.67l47.0669-2.3995L42.84394,194.43986l75.47214-27.46854L53.509,214.46014l42.65756-20.27047L68.069,232.03079l59.16772-54.23751-41.63238,68.6341,31.58279-34.96695L105.5998,257.1748l33.94176-72.73309-12.20282,79.30656L142.72,219.33368l7.28089,46.66415V185.96641l22.55926,77.80714L170.202,216.68442,194.40194,257.15,166.92075,181.7676l47.4775,64.68506-20.304-42.59,37.83763,28.16856L177.78892,172.87l68.60184,41.61538-34.96694-31.568,45.734,11.54726-72.70258-33.9422,79.26515,12.19715L219.3193,156.92347l46.65717-6.8485-80.08634-3.52407,77.83024-19.0705-47.0669,2.39951,40.50433-24.19424-75.36927,27.41886,64.7051-47.41386-42.65756,20.1955L232.03558,68.0699l-59.16772,54.16254,41.63238-68.584L182.91745,88.59056l11.48449-45.73964-33.94176,72.78321L172.663,36.3023,156.87117,80.71688l-6.8703-46.66415-3.48614,80.15652L127.44161,36.25217l2.359,47.08913L105.60067,42.85048" fill="#fff"/></g></svg>