<svg id="Layer_1" data-name="Layer 1" xmlns="http://www.w3.org/2000/svg" viewBox="0 0 300 300"><defs><style>.cls-1{fill:#fff;}</style></defs><title>PEP_Dark_bg</title><path class="cls-1" d="M240.21,194.66c2.65-55.25-45-117.46-110-125.14l.11-.76c64.07,0,113.19,59.28,113.19,106-.07,9.73-.84,15.76-2.21,20.14Zm-3.88,7a104.77,104.77,0,0,1-15.91,15.43C208.87,150.69,160,92.61,125.51,75.66l-.74.52C159.49,104.66,200.91,160,217,219.71a135.2,135.2,0,0,1-26.45,15.14c-32.77-37.34-63.31-109.36-73.16-155.06l-1,.3c.22,44.36,31.73,119.67,70.17,156.41a132.67,132.67,0,0,1-27.33,7.55c-36.85-14.59-63.07-61.3-63.07-109.15,0-31.24,9.54-50.56,11.38-54.52l-.79-.31c-2.23,3.36-16.19,22.68-16.19,56.41,0,54.09,26.69,95.43,62.13,108.45a122,122,0,0,1-38-1.78l-.26.83a96.85,96.85,0,0,0,36.27,6.78c44.38,0,74.37-27.55,86.45-48.49Z"/><path class="cls-1" d="M146.3,49.24c-33.64,0-73.09,24.26-73.09,46.44,0,8.58,7.86,15.84,24.11,15.84,37.73,0,72.79-25.92,72.79-46.06C170.11,54.86,159.92,49.24,146.3,49.24Zm13.43,15.59c0,17-32.63,37.74-59.9,37.74-12,0-18.57-4.74-18.57-12.56,0-17.23,33-37.63,58.59-37.63C156.53,52.38,159.73,60.86,159.73,64.83Z"/><path class="cls-1" d="M59.81,106c-.94,1.63-4.73,9-4.73,16.64,0,14.08,14.24,27.16,40.42,27.16,50.38,0,108.58-37.06,108.58-71.46,0-15.44-14.62-23.84-24.78-25.58l-.19.6c3.16,1,14.73,6.38,14.73,20.14,0,27.41-51.39,64.75-102.58,64.75-19.59,0-31.94-9.67-31.94-23.75a27.62,27.62,0,0,1,1.17-8.23Z"/><path class="cls-1" d="M224.85,80.86a26.72,26.72,0,0,1,9.68,21c0,44.57-69.87,88.38-131.62,88.38C66.07,190.27,49.27,172.1,50,156h.66c1.45,8.37,13.4,23.37,45.64,23.37,61.84,0,130.89-45.33,130.89-85.06,0-6.82-1.85-11.06-2.9-13Z"/><path class="cls-1" d="M248.2,122.47a37.15,37.15,0,0,1,1.8,11.89c0,49.57-70.71,92-132.2,92-31.64,0-48.17-15.36-51.66-21.6l.56-.41c8.76,7.65,26,13.46,46.14,13.46,54.31,0,135.34-41.29,134.61-95.18Z"/></svg>