<svg id="Layer_1" data-name="Layer 1" xmlns="http://www.w3.org/2000/svg" viewBox="0 0 300 300"><defs><style>.cls-1{fill:#fff;}</style></defs><title>PFE_Dark_bg</title><path class="cls-1" d="M75.33,153.08c15-5.56,40.68-7,74.67-3.08l10-37.88c-38.73-5.31-79.41-1.38-88.9,12.25-4.18,6.12-5.27,18.94,4.21,28.71ZM224.67,147c-15,5.55-40.68,7-74.67,3.08l-10,37.88c38.73,5.31,79.41,1.38,88.9-12.25,4.18-6.16,5.27-19-4.21-28.71Zm13.38,13.34,6.12-22.83c2.23-8.07,3.33-12.25,3.33-15.62,0-29.24-76.65-64.92-149.65-69.39L87.55,90.35c75.23,5.31,152.16,41.81,150.18,70ZM62,139.7l-6.12,22.83c-2.23,8.07-3.33,12.25-3.33,15.62,0,29.24,76.65,64.92,149.65,69.39l10.3-37.89c-75.27-5.31-152.16-41.81-150.21-70Z"/></svg>