<svg id="Layer_1" data-name="Layer 1" xmlns="http://www.w3.org/2000/svg" xmlns:xlink="http://www.w3.org/1999/xlink" viewBox="0 0 300 300"><defs><style>.cls-1{fill:url(#radial-gradient);}.cls-2{fill:url(#radial-gradient-2);}.cls-3{fill:url(#radial-gradient-3);}.cls-4{mask:url(#mask);}.cls-5{fill:url(#radial-gradient-4);}.cls-6{fill:#fff;}</style><radialGradient id="radial-gradient" cx="888.61" cy="806.74" fx="790.0870920827713" r="124.92" gradientTransform="matrix(0.03, -0.92, -0.93, -0.03, 861.13, 985.56)" gradientUnits="userSpaceOnUse"><stop offset="0.1" stop-color="#fff"/><stop offset="0.35" stop-color="#fdfdfd"/><stop offset="0.45" stop-color="#f6f6f6"/><stop offset="0.51" stop-color="#eaeaea"/><stop offset="0.57" stop-color="#d9d9d9"/><stop offset="0.62" stop-color="#c3c3c3"/><stop offset="0.66" stop-color="#a7a7a7"/><stop offset="0.7" stop-color="#868686"/><stop offset="0.73" stop-color="#606060"/><stop offset="0.77" stop-color="#353535"/><stop offset="0.8" stop-color="#060606"/><stop offset="0.8"/></radialGradient><radialGradient id="radial-gradient-2" cx="-4.24" cy="11833.43" r="216.6" gradientTransform="matrix(0.92, 0, 0, -0.92, 92.57, 10950.83)" gradientUnits="userSpaceOnUse"><stop offset="0" stop-color="#00a1df"/><stop offset="0.13" stop-color="#0092d7"/><stop offset="0.37" stop-color="#006cc1"/><stop offset="0.62" stop-color="#003da6"/><stop offset="0.73" stop-color="#043799"/><stop offset="0.93" stop-color="#102777"/><stop offset="1" stop-color="#152169"/></radialGradient><radialGradient id="radial-gradient-3" cx="-20.01" cy="11860.69" r="359.14" gradientTransform="matrix(0.92, 0, 0, -0.92, 92.57, 10950.83)" gradientUnits="userSpaceOnUse"><stop offset="0.02" stop-color="#fff"/><stop offset="0.03" stop-color="#fbfeff"/><stop offset="0.09" stop-color="#bae7f9"/><stop offset="0.14" stop-color="#87d5f4"/><stop offset="0.19" stop-color="#63c9f1"/><stop offset="0.23" stop-color="#4cc1ef"/><stop offset="0.26" stop-color="#44beee"/><stop offset="0.28" stop-color="#37b8eb"/><stop offset="0.35" stop-color="#19ace5"/><stop offset="0.41" stop-color="#07a4e0"/><stop offset="0.45" stop-color="#00a1df"/><stop offset="0.79" stop-color="#0045ab"/><stop offset="0.82" stop-color="#003da6"/><stop offset="0.96" stop-color="#0059b6"/></radialGradient><mask id="mask" x="43.5" y="43.59" width="102.48" height="212.82" maskUnits="userSpaceOnUse"><g id="SVGID"><path class="cls-1" d="M71.78,150a113.44,113.44,0,0,1,74-106.38A106.49,106.49,0,0,0,146,256.41,113.51,113.51,0,0,1,71.78,150Z"/></g></mask><radialGradient id="radial-gradient-4" cx="36.79" cy="11785.22" r="145.92" gradientTransform="matrix(0.92, 0, 0, -0.92, 92.57, 10950.83)" gradientUnits="userSpaceOnUse"><stop offset="0.32" stop-color="#44beee" stop-opacity="0"/><stop offset="0.48" stop-color="#2b99d9" stop-opacity="0.27"/><stop offset="0.67" stop-color="#1476c6" stop-opacity="0.58"/><stop offset="0.82" stop-color="#0561ba" stop-opacity="0.84"/><stop offset="0.92" stop-color="#0059b6"/></radialGradient></defs><title>PG_Light_bg</title><circle class="cls-2" cx="150" cy="150" r="106.5"/><path class="cls-3" d="M71.78,150a113.44,113.44,0,0,1,74-106.38A106.49,106.49,0,0,0,146,256.41,113.51,113.51,0,0,1,71.78,150Z"/><g class="cls-4"><path class="cls-5" d="M71.78,150a113.44,113.44,0,0,1,74-106.38A106.49,106.49,0,0,0,146,256.41,113.51,113.51,0,0,1,71.78,150Z"/></g><path class="cls-6" d="M148.2,139.85c7.07-17.42-6.16-22.15-14.77-22.15H104.92a4,4,0,0,1,1.5,5.11L89.8,175.92a8.31,8.31,0,0,1-4.47,4.64h23.08a3.63,3.63,0,0,1-2.43-4.5l6-19.2s27.77,3.76,36.18-17Zm-22.43-17.27c3,0,11.39.41,6,16.24-5.65,16.62-18.2,13.19-18.2,13.19l9.23-29.43Z"/><path class="cls-6" d="M166.66,180.59h15.53c-5-1.6-12.31-6.3-15.24-9.65,2.37-2.57,5.3-5.82,5.83-12.42h-8.05a3.35,3.35,0,0,1,1.54,2.78,10.11,10.11,0,0,1-2.07,5.86c-2.37-3.49-4.88-7.49-5.77-13.34,3.17-1.57,7.6-3.29,11.12-6.36,3.35-2.93,4.12-5.71,4.18-7.52v-.24a6.92,6.92,0,0,0-2.1-5c-2.34-2.31-6-3.26-9.89-2.55a15.54,15.54,0,0,0-7.07,3.46c-4.67,4.41-5.26,11.66-5.26,14.94,0,.8,0,1.39.06,1.75-.27.12-.74.29-.74.29-3.43,1.28-12.57,3.7-15.83,11.22a14.71,14.71,0,0,0-1,5.41,12,12,0,0,0,1.77,6.48c2.31,3.61,6.21,5.88,12.48,5.77,6.81-.12,13.52-4.77,14.71-5.62,1.15,1.09,4.2,4,5.8,4.73Zm0-42c-.8,5.06-7.37,10.18-9,10.86-.29-2.84-.15-7.34,2.22-11,1.57-2.42,3.67-3.49,5.36-2.9,1.36.48,1.5,1.72,1.39,3.05Zm-9.12,33.84a21.82,21.82,0,0,1-7.9,2.73c-3.13.29-8.34-.92-8.31-7.19,0-5.36,5.83-9.29,9-10.65a45,45,0,0,0,7.21,15.11Z"/><path class="cls-6" d="M213.84,122.64c9.23-2.22,16.83,5,17.51,5.5l2.64-8.37c-3.64-1.1-30.12-10.06-48.84,11.3-11.51,13.13-14.32,40.05.26,47.27,15.62,7.72,32.87-1.18,34.14-1.8l7.13-22.72c.77-2.75,2.51-4.53,5.59-5.68H207.48c3.61,1.51,3.34,4.23,3.08,5.35l-7.13,22.72c-1,.18-20.89,5.15-9.74-29.73,2.46-7.48,9.18-21.21,20.15-23.84Z"/></svg>