<svg id="Layer_1" data-name="Layer 1" xmlns="http://www.w3.org/2000/svg" viewBox="0 0 300 300"><path d="M146.39976,151.25544a6.64889,6.64889,0,0,0,5.69352-3.792c.88773-1.83025,2.25768-4.79483,2.26864-4.82771,1.359-2.80567.94253-4.52085.35071-5.47981a4.651,4.651,0,0,0-3.94546-1.92342H137.31423L123.39,164.82346h6.99224l5.33185-11.62268h3.74819a2.12069,2.12069,0,0,1,1.58915.87129c.44934.74525.32879,1.88505-.37811,3.38652-1.68779,3.62216-3.03034,7.37583-3.03034,7.37583h7.09088a15.8906,15.8906,0,0,1,.86034-2.86047c.548-1.29323,2.19192-5.38117,2.19192-5.41953C149.13966,153.23913,147.46284,151.913,146.39976,151.25544Zm-.73978-4.88251a2.89075,2.89075,0,0,1-2.71251,1.88506h-4.877l3.69888-8.05533h5.33734a.959.959,0,0,1,.72334.38359c.21371.35071.137.937-.21919,1.69874l-1.222,2.56455Z" fill="#fff"/><path d="M71.76472,151.25544a6.67841,6.67841,0,0,0,5.69352-3.79751c.88773-1.83025,2.25769-4.79483,2.27412-4.82771,1.359-2.80567.94253-4.52085.35071-5.47981a4.68866,4.68866,0,0,0-3.95094-1.9015H62.66275l-13.9242,29.591h7.00868l5.33185-11.62268h3.75367a2.12069,2.12069,0,0,1,1.58915.87129c.45483.74525.32879,1.885-.37811,3.38652-1.68778,3.62216-3.03033,7.37583-3.03033,7.37583h7.09087a15.74953,15.74953,0,0,1,.85485-2.86047c.548-1.29323,2.19193-5.38117,2.19193-5.41953C74.5101,153.23913,72.8278,151.913,71.76472,151.25544Zm-.73978-4.888a2.85973,2.85973,0,0,1-2.707,1.86314h-4.877l3.803-8.05533h5.22774a.959.959,0,0,1,.72334.38359c.21371.35071.137.937-.2192,1.69874l-1.222,2.56455Z" fill="#fff"/><path d="M104.59975,142.6083c2.44948-5.24966-.32331-7.52926-3.85231-7.52926H92.25373c-3.57283,0-6.09355,1.68778-7.71557,5.1565-.87129,1.86314-2.32344,4.93183-4.00574,8.43343l-3.55092,7.48542c-3.56736,7.50735,1.77,8.7677,4.38385,8.7677h5.36473c5.3757.0548,8.02245-1.46311,10.0993-5.79216,1.39187-2.89334,3.32077-7.02512,5.37022-11.40349Zm-6.9758-.83293L90.5002,156.949c-.99185,2.09329-1.644,2.44947-3.18377,2.44947H84.23677c-.548,0-1.64394-.14795-.822-1.93985,1.1946-2.57551,6.20315-13.37074,7.22787-15.54075.69594-1.47955,1.41927-1.77546,2.3618-1.77546h3.83586C97.56915,140.1095,98.22125,140.50953,97.62395,141.77537Z" fill="#fff"/><path d="M116.24983,148.41142l-2.32345,4.93183h3.68244l-2.07137,4.477a2.104,2.104,0,0,1-2.433,1.56174H109.4439c-1.096,0-1.47955-.548-.822-1.93985.83293-1.7645,7.40871-15.49691,7.40871-15.49691.74525-1.56175,1.18912-1.79738,2.33988-1.79738h3.78107c.91513,0,1.40831.42195.79457,1.64395-.137.26851-1.64394,3.56187-1.64394,3.56187l6.66893.04932,1.51791-3.26049c2.21932-4.76743.23563-6.99772-4.35645-7.06347h-7.24432a8.76768,8.76768,0,0,0-8.21971,5.1565c-1.32064,2.81114-7.55118,15.91885-7.55118,15.91885-2.27961,4.79484-.959,8.7677,5.27706,8.7677H112.962c4.4496.04384,6.636-.65209,8.66907-5.1017l5.18938-11.37061Z" fill="#fff"/><polygon points="216.772 135.156 202.831 164.791 210.015 164.791 224.043 135.156 216.772 135.156" fill="#fff"/><polygon points="241.853 135.161 225.583 161.267 233.814 135.161 226.279 135.161 219.374 164.791 229.096 164.791 249.409 135.161 241.853 135.161" fill="#fff"/><path d="M186.20512,154.51045l-.60278-10.95962c-.07124-1.32064.25206-3.11254,2.66866-3.11254h4.85511l2.49331-5.28254H187.3449c-6.57578,0-8.7677,4.00575-8.53207,8.7129.15343,2.87691.548,12.23642.548,12.23642.09863,2.25769-.76717,3.28789-2.87691,3.28789h-5.53461l-2.48235,5.3757h8.8225C183.14189,164.80154,186.5887,160.98211,186.20512,154.51045Z" fill="#fff"/><path d="M202.14589,143.56179c-.07124-1.32064.25207-3.11254,2.66867-3.11254h4.8551l2.49331-5.28254h-8.27452c-5.436,0-8.84442,2.97006-8.53207,8.7129.15892,2.87691.548,12.23643.548,12.23643.10412,2.25768-.7617,3.28788-2.8769,3.28788h-5.39213l-2.48236,5.3757h8.68c6.4333,0,9.24993-4.603,8.91018-10.29109Z" fill="#fff"/><path d="M161.535,151.54587h8.99238l2.307-4.93183h-9.02524l2.87143-6.14835h9.31568l2.444-5.25514H162.209l-13.84749,29.591h17.53541l2.52618-5.36474H157.78681Z" fill="#fff"/><path d="M237.951,164.79606h17.5354l2.54811-5.35926H247.37625l3.74819-7.89093h8.99237l2.307-4.93183h-9.02524l2.87142-6.14835h9.31568l2.43852-5.25514H251.79846Z" fill="#fff"/><path d="M52.63469,149.39779c.58634-1.211,1.74806-3.7208,3.0687-6.63606,2.318-5.1291-.548-7.50186-3.58928-7.51282h-13.305L25,164.88373h7.17855L37.00079,154.505H43.993C48.47,154.53785,50.80991,153.16242,52.63469,149.39779Zm-3.70435-6.87169c-1.29324,2.73991-2.2796,4.78936-2.3892,5.014a2.70984,2.70984,0,0,1-2.66867,1.78642h-4.5044l4.25781-9.22253h4.51537C49.13309,140.1095,49.84,140.60817,48.93034,142.5261Z" fill="#fff"/><path d="M273.82731,137.22164a.65758.65758,0,0,0-.30138-.58086,1.2494,1.2494,0,0,0-.65758-.13151h-1.17269v2.69607h.32879v-1.24392h.60278l.77266,1.24392h.38906l-.811-1.24392C273.45469,137.95046,273.82731,137.75319,273.82731,137.22164Zm-1.28776.48223h-.50415V136.723h.77266c.33426,0,.70141.04932.70141.46578C273.493,137.76414,272.90671,137.70387,272.53955,137.70387Z" fill="#fff"/><path d="M272.59435,135.44618A2.41112,2.41112,0,1,0,275,137.86276v-.01094A2.41112,2.41112,0,0,0,272.59435,135.44618Zm0,4.53181a1.751,1.751,0,1,1,.022.00554q-.011,0-.022-.00006Z" fill="#fff"/></svg>