<svg id="Layer_1" data-name="Layer 1" xmlns="http://www.w3.org/2000/svg" viewBox="0 0 300 300"><path d="M25,102.015v45.91H98.53v11.44H25v38.62H275v-95.97Zm77.16,71.48H97.45v9.08H77.83v-20.69h23.24v-16.5H77.83v-13.05H101.8c4.37005,0,19.07-.39,19.07,21.03C120.87,174.405,102.16,173.495,102.16,173.495Zm50.1,9.08H130.85s-12.88,1.64-12.88-10.72c0-11.05,10.34-9.77,12.88-9.77h4.54v10.33h2.73v-12.87H122.68v-11.8h18.16s11.42-.73,11.42,9.61Zm25.06-23.03h-8.17v23.02H154.81v-25.21s.17-9.61,10.71-9.61h11.8Zm22.34,23.03-6.17-12.15v12.32H179.32v-49.89h13.99V159.715l6.35-11.97h15.05l-9.8,16.87,10.54,17.96Zm44.66-23.21v9.6H229.79v-10.5H227.43V171.155h16.89v11.42H227.43c-13.8.55-15.61-6.7-15.61-17.06.17-9.43-.36-18.67,16.89-18.14C246.31,146.465,244.32,159.365,244.32,159.365Zm25.24.18h-8.17v23.02H247.04v-25.21s.18-9.61,10.72-9.61h11.8Z" fill="#fff" fill-rule="evenodd"/></svg>