<svg id="Layer_1" data-name="Layer 1" xmlns="http://www.w3.org/2000/svg" viewBox="0 0 300 300"><path d="M56.25,143.75V125H75c4.81667,0,8.91666,4.59167,8.91666,9.375,0,4.75-4.1,9.375-8.91666,9.375ZM25,100V200H56.25V168.75H75.19166c11.16667,0,21.19167-1.59167,27.86668-9.475,4.425,22.88332,25,40.725,49.25,40.725h52.28333l13.44166-19.925L231.25,170.08333V200h25V148.95833L275,135.51666V134.475l-81.21667,54.85L275,129.23333v-1.04167l-75.13334,50.65L275,122.88334v-1.075L206.025,168.425,275,116.5v-1.04167l-62.63334,42.25834L275,110.19166V109.15l-18.75,12.65834V100H231.44167l-42.83334,75H147.85c-12.43333,0-22.55833-12.89167-22.55833-25.1,0-12.4,10.125-24.9,22.55833-24.9H200V100H152.30834a50.49163,50.49163,0,0,0-42.86668,23.99166A36.4571,36.4571,0,0,0,75.19166,100Z" fill="#fff"/></svg>