<svg id="Layer_1" data-name="Layer 1" xmlns="http://www.w3.org/2000/svg" viewBox="0 0 300 300"><path d="M235.3922,161.10861c-17.49557,14.85956-10.13791,38.32212-2.95472,51.61762,9.00839,16.59771-2.491,41.074-18.21969,54.91982A129.97571,129.97571,0,0,0,280,158.58843c-11.87642-7.7627-31.80476-8.37134-44.60816,2.51982Z" fill="#23ada7"/><path d="M144.20676,198.50374c-25.08488-21.26109-47.04094-10.97821-62.01669,6.60441-15.17826,17.81427,5.735,23.14419,34.29581,29.63241,21.551,4.8954,18.88588,34.18,20.88482,40.75559,25.75107-41.5664,18.33551-67.25956,6.83607-76.99208Z" fill="#77b82d"/><path d="M184.52782,68.93827c42.75384,33.19507,5.15582,50.14027,5.15582,50.14027,24.27371,20.62367,48.837-18.88587,75.19637,3.67848,6.98068,5.96734,11.44189,13.20846,14.74373,20.97152A130.09617,130.09617,0,0,0,187.65628,30.03667c-19.69668,8.66091-27.54679,19.95783-3.12845,38.90127Z" fill="#3fb4e5"/><path d="M81.23431,183.41217c-9.70338-26.504,2.636-38.72787,44.75277-68.70778,53.21081-37.88758-30.009-24.44747,3.85258-58.56952,11.99224-12.07895,28.8504-21.464,41.30561-29.922a133.07262,133.07262,0,0,0-21.08735-1.709A130.04266,130.04266,0,0,0,20,154.53264c0,2.89646.11583,5.735.31871,8.57387,19.61033,18.19055,43.91248,29.97991,60.9156,20.30531Z" fill="#fff"/></svg>