<svg id="Layer_1" data-name="Layer 1" xmlns="http://www.w3.org/2000/svg" viewBox="0 0 300 300"><defs><style>.cls-1{fill:#fff;}</style></defs><title>PM_Dark_bg</title><path class="cls-1" d="M152.71,122.49c-14,0-25.33,13.8-25.33,30.75S138.74,184,152.71,184,178,170.15,178,153.24s-11.34-30.75-25.31-30.75m-10.66,33.29-.15,0c-.7.29-.74.9-.79,1.4v.18c-1.1,9.42-4.79,12.44-5.9,13.15-.3.17-.51.22-.63.09s-.1-.13-.1-.26a.92.92,0,0,1,.1-.46c1.31-3.91,1.78-15.71,1.78-24.16,0-3.69-.09-6.75-.21-8.28a5.48,5.48,0,0,1-.07-.85c0-1.19.36-1.41,1.13-1.66l.09,0a3,3,0,0,0,1.77-1.14,4,4,0,0,1,3.62-2.73c1.5,0,7.18,2,7.18,12.07,0,6.41-2.76,10.91-7.82,12.65m27.6,14.82-.05,0c-4.92-3.27-7.43-13.71-7.51-14.51,0-.38-.13-.47-.13-.47v.09c-.44,1.31-1.58,6.57-2.35,10.05-.35,1.62-.61,2.81-.65,3l-.08.34c-.07.21-.09.34-.19.34s-.16-.08-.32-.68-1.2-4.42-2-7.56c-.55-2.17-1-4-1.11-4.29a4.2,4.2,0,0,0-.17-.42.78.78,0,0,0-.08.1l-.6,1.94c-1.18,3.82-2.65,8.62-6.28,11-.89.68-1,.61-1.1.59s0-.38.3-.8c5-10.11,7.25-27.57,5.77-35.24-.08-.44-.08-.6,0-.6s.26.08.47.51l.12.16c2.38,3.49,5.78,15,5.78,15.13a.69.69,0,0,0,.13.28.91.91,0,0,0,.13-.28C161,145,164.59,135.65,166,133.7c.51-.7.65-.81.78-.76s.09.29,0,.68l-.06.21c-.55,3.95-1.08,22.28,3.4,36.32.21.54.16.7.06.75s-.32-.09-.53-.3"/><path class="cls-1" d="M142.18,132.42h0c-1.15.09-1.28,1.41-1.28,2.59,0,1.49-.12,13.85-.28,16.74-.05,1.39.09,2.16.52,2.41s1.15,0,1.88-.42c1.58-.81,1.88-2.17,2.4-10.53.43-6.79-1.16-9.3-1.88-10.06a1.92,1.92,0,0,0-1.36-.73"/><polygon class="cls-1" points="110.21 219.38 108.87 219.77 106.98 213.4 108.31 212.97 110.21 219.38"/><polygon class="cls-1" points="111.15 212.16 112.56 211.78 116.23 215.64 115.08 211.15 116.36 210.84 117.95 217.31 116.63 217.64 112.9 213.74 114.07 218.28 112.8 218.62 111.15 212.16"/><polygon class="cls-1" points="124.09 209.24 124.34 210.34 122.37 210.77 123.45 216.16 122.09 216.41 120.98 211.03 119.03 211.41 118.82 210.3 124.09 209.24"/><polygon class="cls-1" points="131.61 209.24 128.16 209.75 128.37 211.15 131.54 210.68 131.71 211.78 128.57 212.29 128.81 213.99 132.41 213.44 132.6 214.63 127.66 215.35 126.65 208.79 131.43 208.05 131.61 209.24"/><path class="cls-1" d="M138.61,207.45a2.38,2.38,0,0,1,.68.38c.13.17.25.35.39.56a1.84,1.84,0,0,1,.16.68,1.87,1.87,0,0,1-.13,1,1.52,1.52,0,0,1-.69.73,1.24,1.24,0,0,1,.68.42,2.42,2.42,0,0,1,.27,1l0,.48c.05.29.09.51.11.58a.48.48,0,0,0,.29.35l0,.17-1.52.17a3.17,3.17,0,0,0-.13-.34,3.21,3.21,0,0,1-.13-.59l-.06-.6a1.16,1.16,0,0,0-.3-.8,1.07,1.07,0,0,0-.82-.17l-1.32.17.23,2.58-1.36.12-.65-6.61,3.18-.35a3.46,3.46,0,0,1,1.06.09m-2.76,1.23.16,1.83,1.5-.17a1.55,1.55,0,0,0,.66-.16.75.75,0,0,0,.31-.77.87.87,0,0,0-.47-.81,2.66,2.66,0,0,0-.63,0Z"/><polygon class="cls-1" points="142.64 206.94 144.08 206.91 146.91 211.41 146.68 206.77 147.99 206.73 148.29 213.36 146.91 213.44 144.03 208.86 144.26 213.57 142.94 213.61 142.64 206.94"/><path class="cls-1" d="M152.88,206.65l1.59,0,2.31,6.67h-1.53l-.42-1.36-2.45-.05-.44,1.36h-1.48Zm-.1,4.16h1.71l-.84-2.59Z"/><polygon class="cls-1" points="163.45 207.03 163.39 208.18 161.41 208.05 161.11 213.57 159.74 213.48 160.01 208 158.02 207.88 158.05 206.73 163.45 207.03"/><polygon class="cls-1" points="166.55 213.95 165.15 213.83 165.74 207.2 167.15 207.33 166.55 213.95"/><path class="cls-1" d="M174.37,214.25a2.79,2.79,0,0,1-2.26.51,2.91,2.91,0,0,1-2.08-1.07,3.57,3.57,0,0,1-.64-2.82,3.5,3.5,0,0,1,1.36-2.61,3,3,0,0,1,2.26-.51,3,3,0,0,1,2.05,1.06,4.22,4.22,0,0,1-.69,5.44m-.73-1.11a2.73,2.73,0,0,0,.68-1.65,2.81,2.81,0,0,0-.25-1.78,1.76,1.76,0,0,0-1.22-.77,1.7,1.7,0,0,0-1.37.42,3,3,0,0,0-.71,1.67,2.64,2.64,0,0,0,.28,1.77,1.75,1.75,0,0,0,1.21.79,1.68,1.68,0,0,0,1.38-.45"/><polygon class="cls-1" points="178.86 208.81 180.3 209.07 182.04 214.08 182.86 209.57 184.13 209.78 182.94 216.32 181.56 216.07 179.8 210.98 178.95 215.59 177.67 215.35 178.86 208.81"/><path class="cls-1" d="M189,210.89l1.53.34.74,7.05-1.46-.38-.14-1.4-2.37-.6-.74,1.24-1.43-.35Zm-1.07,4,1.67.38-.22-2.72Z"/><polygon class="cls-1" points="195.21 212.47 196.55 212.84 195 218.11 198.2 219.05 197.87 220.2 193.35 218.88 195.21 212.47"/><path class="cls-1" d="M110,207.36a2.6,2.6,0,0,1-1.45.94l-1.31.38.66,2.3-1.33.38L104.68,205l2.72-.81a2.51,2.51,0,0,1,1.66,0,2.06,2.06,0,0,1,1,1.36,2.13,2.13,0,0,1-.08,1.77m-1.71-2a1.4,1.4,0,0,0-.75,0l-1.18.38.54,1.86,1.2-.33a1.25,1.25,0,0,0,.61-.42,1,1,0,0,0,0-.81.83.83,0,0,0-.44-.63"/><polygon class="cls-1" points="114.58 209.1 113.1 202.66 114.44 202.33 115.03 204.78 117.5 204.23 116.93 201.72 118.27 201.41 119.8 207.92 118.44 208.22 117.76 205.33 115.28 205.92 115.94 208.81 114.58 209.1"/><polygon class="cls-1" points="124.65 206.98 123.28 207.2 122.04 200.66 123.43 200.4 124.65 206.98"/><polygon class="cls-1" points="127.26 199.77 128.63 199.55 129.42 204.99 132.71 204.52 132.88 205.65 128.2 206.35 127.26 199.77"/><polygon class="cls-1" points="137.42 205.2 136.01 205.33 135.34 198.7 136.74 198.58 137.42 205.2"/><path class="cls-1" d="M145.32,201.72a2.58,2.58,0,0,1-1.64.6l-1.37.08.14,2.38-1.38.08-.4-6.67,2.84-.14a2.27,2.27,0,0,1,1.6.44,1.9,1.9,0,0,1,.68,1.53,2.12,2.12,0,0,1-.47,1.7m-1.24-2.33a1.12,1.12,0,0,0-.71-.17l-1.24.08.11,1.95,1.23-.08a.89.89,0,0,0,.7-.3,1,1,0,0,0,.24-.76,1,1,0,0,0-.33-.72"/><path class="cls-1" d="M158.82,197.9l2,0-.19,6.66-1.29-.05.12-4.49c0-.14,0-.3,0-.56a5,5,0,0,0,0-.5l-1.42,5.55-1.37,0-1.08-5.65V200l-.12,4.51-1.32-.05.21-6.67,2,0,1.06,5.27Z"/><path class="cls-1" d="M169.31,204.7a2.79,2.79,0,0,1-2.25.59,2.88,2.88,0,0,1-2.08-1,3.42,3.42,0,0,1-.77-2.81,3.48,3.48,0,0,1,1.25-2.63,2.8,2.8,0,0,1,2.23-.59,2.88,2.88,0,0,1,2.12,1,3.51,3.51,0,0,1,.75,2.8,3.6,3.6,0,0,1-1.25,2.64m-.77-1.06a2.79,2.79,0,0,0,.62-1.71,2.57,2.57,0,0,0-.31-1.74,1.7,1.7,0,0,0-1.23-.72,1.57,1.57,0,0,0-1.34.46,2.46,2.46,0,0,0-.66,1.67,2.58,2.58,0,0,0,.31,1.78,1.48,1.48,0,0,0,1.27.71,1.66,1.66,0,0,0,1.34-.45"/><path class="cls-1" d="M178.73,200.07a1.39,1.39,0,0,1,.56.51,2.65,2.65,0,0,1,.25.64,1.56,1.56,0,0,1,0,.68,1.65,1.65,0,0,1-.37.88,1.33,1.33,0,0,1-.86.56,1.39,1.39,0,0,1,.55.63,2.07,2.07,0,0,1,0,1l-.07.47a2,2,0,0,0,0,.59.51.51,0,0,0,.18.41v.19l-1.53-.21c0-.18,0-.3,0-.39a3.13,3.13,0,0,1,0-.59l.08-.6a1.2,1.2,0,0,0-.08-.89,1.33,1.33,0,0,0-.76-.3l-1.32-.21-.42,2.59-1.35-.21,1-6.58,3.14.46a2.4,2.4,0,0,1,1,.35m-3,.51-.28,1.77,1.48.21a.79.79,0,0,0,.68,0c.29-.07.45-.28.5-.66a.89.89,0,0,0-.26-.87,1.71,1.71,0,0,0-.63-.2Z"/><path class="cls-1" d="M187.9,201.81a1.66,1.66,0,0,1,.52.59,2.91,2.91,0,0,1,.21.59,2.2,2.2,0,0,1,0,.72,2,2,0,0,1-.45.85,1.13,1.13,0,0,1-.89.47,1.45,1.45,0,0,1,.53.68,2.16,2.16,0,0,1,0,1.06l-.08.4a4.74,4.74,0,0,0-.11.62.71.71,0,0,0,.17.47l0,.13-1.48-.32a2.64,2.64,0,0,1,0-.36c0-.17,0-.38,0-.56l.14-.63a1.12,1.12,0,0,0,0-.85,1.07,1.07,0,0,0-.73-.38l-1.31-.3-.55,2.55-1.31-.26,1.34-6.53,3.11.68a2.09,2.09,0,0,1,1,.38m-3,.38-.38,1.74,1.46.3a1.37,1.37,0,0,0,.68,0,.73.73,0,0,0,.52-.63c.1-.43,0-.73-.19-.9a1.31,1.31,0,0,0-.61-.25Z"/><polygon class="cls-1" points="192.37 209.57 191.03 209.24 192.69 202.8 194.02 203.12 192.37 209.57"/><path class="cls-1" d="M197.42,208.86a1.11,1.11,0,0,0,.05.71,1.41,1.41,0,0,0,1,.73,3,3,0,0,0,.8.12.81.81,0,0,0,.77-.54.54.54,0,0,0-.12-.59,3.13,3.13,0,0,0-.77-.56l-.64-.32a7.19,7.19,0,0,1-1.23-1,1.62,1.62,0,0,1-.23-1.57,2,2,0,0,1,1-1.27,3.35,3.35,0,0,1,2,0,3,3,0,0,1,1.56,1.1,1.87,1.87,0,0,1,.26,1.74l-1.27-.38a1,1,0,0,0-.26-1,1.74,1.74,0,0,0-.73-.38,1.27,1.27,0,0,0-.9,0,.65.65,0,0,0-.34,1.08,6.45,6.45,0,0,0,.76.51l1,.6a2.87,2.87,0,0,1,.94.8,1.67,1.67,0,0,1,.17,1.45,2,2,0,0,1-1.11,1.28,2.93,2.93,0,0,1-2.07,0,3.07,3.07,0,0,1-1.79-1.22,1.86,1.86,0,0,1-.23-1.76Z"/><path class="cls-1" d="M152.71,185.51h0c14.82,0,26.88-14.49,26.88-32.27s-12.06-32.32-26.88-32.32-26.88,14.48-26.88,32.32,12.06,32.27,26.88,32.27m0-63c14,0,25.31,13.8,25.31,30.75S166.68,184,152.71,184s-25.33-13.81-25.33-30.74,11.36-30.75,25.33-30.75"/><path class="cls-1" d="M155.34,87.59a2.84,2.84,0,1,0-2.84,2.85,2.85,2.85,0,0,0,2.84-2.85m-4.12,0a1.29,1.29,0,0,1,2.57,0,1.29,1.29,0,0,1-2.57,0"/><path class="cls-1" d="M252.81,130.05a4.16,4.16,0,0,1,.44-1.7,3.58,3.58,0,0,0,.69-1.87,1.64,1.64,0,0,0-.2-.81c-.53-.93-1.8-.89-2.71-.85h-.54a13,13,0,0,1-1.51-.54,16.66,16.66,0,0,0-3.2-1.07,7.39,7.39,0,0,0-2.63.42,9.4,9.4,0,0,1-3.23.47,12,12,0,0,1-3.16-1.06,10.66,10.66,0,0,0-7.58.21,11.42,11.42,0,0,0-6,5.39c-2.51,4.8-1.45,11.05.59,14.83a100.06,100.06,0,0,0,5.36,8.66.31.31,0,0,0,.17.17h-.09c-2.21.94-2.55,3.57-2.55,5,0,.5.05.89.05,1,.1.85.4,1.36.82,1.53a.88.88,0,0,0,.92-.13,5,5,0,0,1,3.2-.77c1.51.14,4.35,1.2,4.35,4.3,0,2.86-2.37,6.15-5.57,6.15-2.75,0-4.36-1.35-4.79-2.85a15.53,15.53,0,0,0-1.65-6.11,3.84,3.84,0,0,0-.73-.85c-.87-.85-2.2-2.12-2.54-7.77-.34-6.24-2.87-12.18-4.72-16a4.18,4.18,0,0,0,1.23.08c2.09-.26,2.17-2.59,2.24-4.85l0-1.16c.08-1.72.64-1.85,1.55-2l.55-.17a1.67,1.67,0,0,0,1.44-1.87c0-.24,0-.59-.06-.93l0-.6v-.12c0-.89.53-1.19,1.42-1.41l.15,0a4.15,4.15,0,0,0,1.4-.6l.28-.12a1.59,1.59,0,0,0,.82-1.46,4.15,4.15,0,0,0-.3-1.43l0-.11a1.15,1.15,0,0,1-.11-.49c0-.3.19-.59.87-1.31a3.07,3.07,0,0,0,1-2.12,2.45,2.45,0,0,0-.41-1.29l0,0a3,3,0,0,1-.43-1.36c.08-.35.93-1.06,1.35-1.41l.89-.84a2.4,2.4,0,0,0,.59-1.58,1.65,1.65,0,0,0-.28-1.06,1,1,0,0,0-1.2-.21H229c-1.7.81-3.7-.76-5.29-2.24a13.92,13.92,0,0,1-1.84-3.53,13.88,13.88,0,0,0-1.46-2.93,18.78,18.78,0,0,0-1.52-1.58,10.8,10.8,0,0,1-1.93-2.24,8.05,8.05,0,0,1-.78-2.68,6.79,6.79,0,0,0-.78-2.55,1.57,1.57,0,0,0-1.18-.81,2.38,2.38,0,0,0-1.83.9c-1.14,1.1-5.09,2.46-6.17,2.46l-1.95,0c-1.5,0-3.17-.08-4,0a6.61,6.61,0,0,0-2.5.89,4.44,4.44,0,0,1-1.56.64,6.54,6.54,0,0,1-1.6,0,11.39,11.39,0,0,0-3.27.18,2.33,2.33,0,0,0-1.77,1.09,3,3,0,0,0,.1,2.42,3.58,3.58,0,0,1,.24.48c.34.72.49,1.14.28,1.31-1.11.94-.64,2.46-.52,2.93a2.52,2.52,0,0,0,1.11,1.61,1.94,1.94,0,0,0,1.45,0h-.09c1-.26,3.19-.17,4,.47a.43.43,0,0,1,.24.42c0,.84-.14.89-1.47,1.15l-1.21.26a2.94,2.94,0,0,0-2.29,1.69,1.49,1.49,0,0,0,.06,1.39l.34.44a23.09,23.09,0,0,1,1.6,2,2.16,2.16,0,0,0,1.91,1.16,1.79,1.79,0,0,0,1.35-.69,8.27,8.27,0,0,1,4.37-1.48,27.26,27.26,0,0,0,4.63-1v.46a4.54,4.54,0,0,1-.17,1.44l0,.17c-1.48,4.42-4.84,6.84-10,7.22l-3.27.21c-6.45.35-10.78.59-10.78,7.22v0a10.69,10.69,0,0,1-2.89-.26l-.09-.05-.76-1a37.21,37.21,0,0,0-7.58-7.48c-1.76-3.86-1-8.58.91-10.06a2.64,2.64,0,0,0,1.53.47,2.82,2.82,0,0,0,2.82-2.85,2.67,2.67,0,0,0-.23-1.1,3.09,3.09,0,0,0,.89.13,3.29,3.29,0,0,0,3.31-3.27,3.17,3.17,0,0,0-.42-1.66,4.18,4.18,0,0,0,.68.06,3.94,3.94,0,0,0,1.83-7.45,4,4,0,0,0,2.8-3.81,4,4,0,0,0-3.95-3.95,4.13,4.13,0,0,0-1.79.42,4,4,0,0,0,.26-1.45,4.28,4.28,0,0,0-4.28-4.24,4.23,4.23,0,0,0-3.74,2.21,3.29,3.29,0,0,0-3.21-2.47,3.36,3.36,0,0,0-3.29,2.94,2.76,2.76,0,0,0-2.13-1,2.85,2.85,0,0,0-2.63,1.74h-.71a1.8,1.8,0,0,1-2-1.66c0-1.06-1-1.78-2.34-1.78H151c-1.38,0-2.35.72-2.35,1.78a1.83,1.83,0,0,1-2,1.66H146a2.84,2.84,0,0,0-2.62-1.74,2.81,2.81,0,0,0-2.14,1,3.3,3.3,0,0,0-6.47-.47,4.28,4.28,0,0,0-8,2,4.45,4.45,0,0,0,.23,1.45,3.78,3.78,0,0,0-1.76-.42,4,4,0,0,0-4,3.95,4,4,0,0,0,2.8,3.81A3.89,3.89,0,0,0,122,95.19a3.93,3.93,0,0,0,3.93,3.92,4.14,4.14,0,0,0,.7-.06,3.18,3.18,0,0,0-.44,1.66,3.3,3.3,0,0,0,3.3,3.27,3,3,0,0,0,.89-.13,3.26,3.26,0,0,0-.21,1.1A2.84,2.84,0,0,0,133,107.8a3,3,0,0,0,1.69-.55c2,1.53,2.33,6.41.69,10.1a35.08,35.08,0,0,0-7.7,7.52A45.1,45.1,0,0,0,121,137.48a13.79,13.79,0,0,0-.81-7.48c-2.87-6.82-9-9.43-13-11.46l-2.1-1.06a18.17,18.17,0,0,1-5.91-5.4l-.72-.92s-.09,0-.11-.09a.51.51,0,0,1,.26.09,9.82,9.82,0,0,1,3.9,1.52l1.26,1.06a20.57,20.57,0,0,0,2.22,1.79,3.87,3.87,0,0,0,3.81-.18,1.4,1.4,0,0,0,.47-1.1,3.66,3.66,0,0,0-.31-1.28c-.07-.21-.12-.33-.16-.46s.12,0,.16,0l.68.3a2.65,2.65,0,0,0,2.87-1.41c.66-1.1.53-3-1.34-4.58-.93-.85-3.69-3.51-5.9-5.72-1.76-1.71-3.13-3.06-3.57-3.45a10.89,10.89,0,0,1-1.35-1.48,1.84,1.84,0,0,0,0-1.87A1.58,1.58,0,0,0,99.81,94h-.3a.33.33,0,0,0-.17,0h-.22a28.63,28.63,0,0,0,1.45-4.47c.54-2.24.25-4.19-.88-5.43a3.43,3.43,0,0,0-3.17-1,8.25,8.25,0,0,0-4.66,3.14l-.38-1.27-.81.3-3.8,1.18.43,1.36c-1.62-.42-3.89-.8-5.8.14a3.53,3.53,0,0,0-2,2.71c-.2,1.62.69,3.4,2.43,4.89.66.54,1.24.94,1.74,1.35a.7.7,0,0,0-.29.22,18.18,18.18,0,0,0-1.47,1.44l-.57.59A17.91,17.91,0,0,1,72,103.47a1,1,0,0,0-.85.85c-.12.8.73,1.74,2.1,2.33s1.72,2.44,1,6.16l0,.16a1.22,1.22,0,0,0,.26,1.28c.47.47,1.16.39,2.37,0l.24-.08.46-.13a6.47,6.47,0,0,1-.15.68l-.05.38-.1.35a15.68,15.68,0,0,0-.38,2.89,4,4,0,0,0,.26,1.52,14.35,14.35,0,0,0,2.31,3.73,1.77,1.77,0,0,0,1.3.61,2.24,2.24,0,0,0,1.41-.85l0,0c.09.17.17.43.32.81l0,0a7.33,7.33,0,0,0,5.08,5.13,2.56,2.56,0,0,0,2.1,0,2.38,2.38,0,0,0,1-1.56,10.14,10.14,0,0,0,.19-1.19,1.88,1.88,0,0,1,0-.34,1,1,0,0,1,.21.25,18.61,18.61,0,0,1,3.34,10.2,12.4,12.4,0,0,1-.45,3.43,28.46,28.46,0,0,1-1.63,4.45c-.39.9-.68,1.74-1,2.54a27.83,27.83,0,0,1-5.56,3.62l-1.08.6c-1.68,1-6.77,5.94-7.12,12.57,0,.08,0,.21,0,.34-3,1-5,.85-6.07-.47-2.27-2.8-.55-5.6,2-9l.77-1.07.76-1.07s.7-.85.75-.93a2.24,2.24,0,0,1,.1.55l.3,1.36.3,1.07c.17.93.78,1.1,1,1.1s.93.68,2.49-2.21c.35-.59.94-1.65,1.67-2.76L82.8,149c1.21-2,.9-3.39-1-4.71-.76-.51-.71-.79,0-2.08l.19-.38c.62-1.18,3.13-9-.5-14.65-2.53-3.86-6.07-7.47-10.89-6.36a21,21,0,0,0-6.33,2.66,15.34,15.34,0,0,1-5.78,2.3,46,46,0,0,0-5.34,1.49c-.49.16-1.15.38-1.2,1.1v0c0,.77.83,1.14,1.88,1.61a6.86,6.86,0,0,1,2,1.32,26.26,26.26,0,0,1-3.39,3.83,1.43,1.43,0,0,0-.73,1.18.5.5,0,0,0,.05.21c.12.77.93,1.32,2.37,1.51h0l0,.28c-.14,1.61-.38,4.07.64,5.69l.26.33c.87,1.32,2.63,4.08,2.72,5.06a5.24,5.24,0,0,1-.2,1.15,2.49,2.49,0,0,0,0,2,1.44,1.44,0,0,0,.94.66c1.69.37,2.29-.94,2.82-2.05l.28-.54c.68-1.36,1.58-3.24,2.73-5.15l.75-1.13c1.32-1.93,3.08-5.32,2.68-8.1h.57a2,2,0,0,0,1,0l.32,0c.57-.11,1.36-.24,1.53-1s-.42-1.31-1.06-1.81c-.83-.64-1.7-3.19-1.25-4.89.33-1.23.9-1.86,1.76-2,1.74-.29,4.43,1.53,5.73,3.38a9.59,9.59,0,0,1,1.57,5.16,7.4,7.4,0,0,1-.17,1.57c-.37,1.79-.72,2-.72,2a3.12,3.12,0,0,1-.47-.13l-.59-.12a4.71,4.71,0,0,0-3.65.8l-.32.21c-.74.52-1.74,1.2-1.6,2.21s1.11,1.36,1.83,1.62a1.09,1.09,0,0,1,.79.76c.34,1.19-.81,3.31-1.73,4.42l-.42.55-1.11,1.45c-4.37,5.64-5.79,11.08-3.9,14.88,1.15,2.36,4,5.11,11.12,5.15A9.73,9.73,0,0,1,75.6,174c-1.74,2.8-4.7,3.08-6.29,3.22l-.5,0-.39,0a2.11,2.11,0,0,0-1.61.6c-.61.72-.79,2-.59,4.76a23.24,23.24,0,0,1-.51,7,13.89,13.89,0,0,0-.28,1.65,7.38,7.38,0,0,1-.24,1.27,8.4,8.4,0,0,0-.26,1.75,2.21,2.21,0,0,0,.33,1.24,2,2,0,0,0,1.48.8l1.6.09c.33,0,.76,0,1.06,0a.16.16,0,0,0,0,.09,3.32,3.32,0,0,0-.13.35H51.08s5.37,9.29,5.75,10c-.34.71-5.31,10.4-5.31,10.4H100.4l2.78,9.39A150,150,0,0,1,152.71,218h.1a149.93,149.93,0,0,1,49.53,8.66l2.77-9.39h48.12s-5-9.69-5.31-10.4c.38-.68,5.76-10,5.76-10H232.87a20.49,20.49,0,0,0,.21-3.83,26.1,26.1,0,0,0-.47-2.63c-.21-1.11-.45-2.42-.45-2.76,0-1.06,0-4.33.1-5,.28-2.17-2.07-3.91-3.16-4.76l-.39-.26a18,18,0,0,1-2.87-3c2.79,1,7.9,1.91,12.25-3.31a20.68,20.68,0,0,0,2.51-4.46l.06-.21a13.85,13.85,0,0,1,1.9-3c1.06-.93,5.43-6.7,4-9-.92-1.56-3.45-.63-4.3-.33-.45.17-.7-.17-1-1.36-.28-1-.85-3.6-.92-4v0a2.21,2.21,0,0,0-.91-1.87,1.75,1.75,0,0,0-1.68.21c-.32.21-.58.3-.79.21a1.14,1.14,0,0,1-.55-.59c-.21-.52-.58-1.79-.8-2.5l-.18-.6-.1-.38c-.11-.52-.28-1.23-1-1.44s-1.27.38-1.74.89-.73.85-1,1.23c-4.48-4-4-7.75-3.64-10,.44-2.76,1.56-4.59,3.34-5.48a8.3,8.3,0,0,1,6.26.09l.37.16c.19.13.5.24.68.39a1,1,0,0,1-.25.21l-.05,0-.09.09a5.62,5.62,0,0,0-1.56,3.82c0,3.14,2.66,6.23,4.66,8.34,0,2.9.73,7.25,2.68,9.06a3.46,3.46,0,0,0,2.71.92,13.78,13.78,0,0,0,4.51-1.83c.4-.15,1.61-1.38-.35-1.84s-1.43-2.25-1.32-3.15a15.37,15.37,0,0,1,1.54-4.45,5,5,0,0,0,.39-1.92,10,10,0,0,0-.75-3.39,5.06,5.06,0,0,0,1-.22,2.79,2.79,0,0,0,1.89-1.74,1.65,1.65,0,0,0,.06-.49,2.22,2.22,0,0,0-.57-1.41,1.77,1.77,0,0,1-.36-1.15M192.2,120.5l3.27-.22c4.05-.32,9.29-2,11.39-8.28l.07-.19a11,11,0,0,0,.16-3.59l-.12-1-1,.38a32.89,32.89,0,0,1-5.11,1.27,9.59,9.59,0,0,0-5.27,1.79l-.11.08-.07.11c0,.06-.15.19-.24.19s-.34-.13-.59-.52a23.81,23.81,0,0,0-1.71-2.12.5.5,0,0,1-.12-.17c0-.21.26-.59,1.25-.84l1.1-.22c1.3-.25,2.66-.55,2.73-2.65v0a2.11,2.11,0,0,0-.83-1.65c-1.36-1.06-4.16-1-5.29-.73h-.11a.28.28,0,0,1-.21.09,3,3,0,0,1-.29-.68,3.49,3.49,0,0,1-.18-.85.54.54,0,0,1,.2-.47,1.75,1.75,0,0,0,.66-1.36,4.3,4.3,0,0,0-.56-1.83l-.12-.33a2.48,2.48,0,0,1-.26-.89.3.3,0,0,1,.05-.22,1,1,0,0,1,.67-.38,9.82,9.82,0,0,1,2.89-.08,9.32,9.32,0,0,0,1.93-.05,8.37,8.37,0,0,0,2-.76,6.12,6.12,0,0,1,1.87-.77c.78,0,2.5,0,3.88,0l2,0c1.33,0,5.79-1.41,7.3-2.93a1.06,1.06,0,0,1,.54-.39s0,0,0,0a6.7,6.7,0,0,1,.56,2,9.9,9.9,0,0,0,1,3.18,15,15,0,0,0,2.18,2.55,12.38,12.38,0,0,1,1.39,1.45,14.14,14.14,0,0,1,1.22,2.54,14.1,14.1,0,0,0,2.21,4c1,1,3.6,3.35,6.16,2.83a.87.87,0,0,0-.08.14l-.76.68c-.94.76-1.87,1.6-1.87,2.54v.13a4.49,4.49,0,0,0,.62,2.08l.05.09a.74.74,0,0,1,.18.46,1.64,1.64,0,0,1-.6,1c-1,1-1.32,1.69-1.32,2.33a2.65,2.65,0,0,0,.24,1l0,.14a4.51,4.51,0,0,1,.21.92v.05s0,0,0,0l-.27.14a2.86,2.86,0,0,1-1,.45H224c-1.76.39-2.65,1.37-2.65,2.94a1,1,0,0,0,0,.25l0,.55a6.67,6.67,0,0,1,.06.94c0,.09,0,.12,0,.17a.77.77,0,0,1-.35.13l-.42.12c-1.07.22-2.61.6-2.76,3.48l-.05,1.15c-.06,2.25-.16,3.27-.86,3.4a2.59,2.59,0,0,1-2.36-1.28,10.47,10.47,0,0,1-.43-1.4c-1-3-.65-2.29-2.06.34-.23.38-.4.85-.74,1.45a5.44,5.44,0,0,1-2.29,2.67l-.3.17a.52.52,0,0,1-.36,0,1.68,1.68,0,0,1-.55-1.1,27.37,27.37,0,0,1-.62-4.12c-.08-2.07,2.13-4.28-2.36-.68l-.89.56c-.55.38-4,1.86-4.94,2.29-.34.12-1.49.19-1.49-.09a1.58,1.58,0,0,1,.05-.38.32.32,0,0,1,0-.13c.52-1.89,1.42-1.45-1.69-1.15l-1.48.05-.47,0a3.58,3.58,0,0,1-2.44-.35,1.75,1.75,0,0,1-.45-1.32,4.54,4.54,0,0,1,3.48-4.6c1.9-.36,9.22-1.16,12.44-1.42,2.68-.26,7.48-1.3,10-5.57.93-1.57,2.06-7.93,1.24-11.63-.28-1.19-1.49-3-.75.34s-1,9.17-1.82,10.49c-2.19,3.69-6.49,4.63-8.82,4.79-3.2.28-10.61,1.06-12.61,1.49a6,6,0,0,0-4.29,3.62c-.67,1-2.33,3.26-3.91,3.22-1.84,0-3.28-2.26-3.28-4.12-.16-5.6,2.61-5.78,9.32-6.11m-10.75,7.21c.47,2.29,2.3,4.55,4.68,4.6a5,5,0,0,0,3.51-1.79,3.25,3.25,0,0,0,.94,1.95,3.51,3.51,0,0,0,1.62.76,8.11,8.11,0,0,0-1.06,3l-7.48-.45a47.28,47.28,0,0,0-4.07-8.07,11.54,11.54,0,0,0,1.86,0m10.49,15.08a15.29,15.29,0,0,1-2.16.93,15.8,15.8,0,0,0-3.55,1.31,48.88,48.88,0,0,0-2-7.67l6.82.42a19.42,19.42,0,0,0,.89,5m-19.49-36.56a1.27,1.27,0,0,1-1.3-1.28,1.29,1.29,0,1,1,2.57,0,1.26,1.26,0,0,1-1.27,1.28m3.48-3.78a1.76,1.76,0,1,1,1.79-1.74,1.78,1.78,0,0,1-1.79,1.74m6-7.26a2.4,2.4,0,1,1-2.42-2.42,2.37,2.37,0,0,1,2.42,2.42m-1.74-9.72a2.4,2.4,0,0,1,0,4.8,2.4,2.4,0,1,1,0-4.8m-5.81-5.31a2.74,2.74,0,1,1,0,5.48,2.74,2.74,0,1,1,0-5.48m-7-.26a1.79,1.79,0,0,1,1.76,1.79,1.76,1.76,0,0,1-3.51,0,1.78,1.78,0,0,1,1.75-1.79m-5.42,2a1.27,1.27,0,0,1,1.28,1.29,1.29,1.29,0,0,1-2.57,0A1.28,1.28,0,0,1,162,81.88m-2.71,2.3.05,0A2.87,2.87,0,0,0,162,86a2.82,2.82,0,0,0,2.78-2.38A3.36,3.36,0,0,0,167.42,85a3.3,3.3,0,0,0,2.7-1.45,4.32,4.32,0,0,0,4.25,3.61,4,4,0,0,0,2-.51,4.92,4.92,0,0,0-.19,1.2,3.9,3.9,0,0,0,2.16,3.51,4,4,0,0,0-2.8,3.83,3.85,3.85,0,0,0,.71,2.21h-.33a3.28,3.28,0,0,0-2.92,4.75c-.17,0-.37,0-.56,0A2.86,2.86,0,0,0,169.6,105a4.29,4.29,0,0,0,.09.73,6,6,0,0,1-.56.59,33.94,33.94,0,0,0-3.51-1.36l0-.08a32,32,0,0,0,6.14-6.8c2.09-2.84,2.59-5.73,1.43-7.9a6,6,0,0,0-4.74-3c-4-.51-8,1.53-10.31,3Zm8.33,26.55a35.85,35.85,0,0,0-15-3.27,35.49,35.49,0,0,0-14.78,3.18,8.57,8.57,0,0,0-.93-3,39.09,39.09,0,0,1,15.78-3.22,39.61,39.61,0,0,1,15.94,3.3,8.35,8.35,0,0,0-1,3m.24,5.3a29.1,29.1,0,0,0-30.35-.12,14.87,14.87,0,0,0,.45-3.61,34.15,34.15,0,0,1,29.5.08,14.74,14.74,0,0,0,.4,3.65m-26.37-11.71c-.82-.47-3.31-2.49-6.59-7-1.81-2.46-2.28-4.88-1.32-6.71a4.57,4.57,0,0,1,3.54-2.16c4.23-.56,8.69,2.38,10.45,3.53l2,10.95a42.71,42.71,0,0,0-8.07,1.4ZM155.81,103h0l2-10.95c1.74-1.15,6.2-4.09,10.42-3.53a4.54,4.54,0,0,1,3.55,2.16c1,1.83.49,4.25-1.31,6.71-3.28,4.48-5.75,6.5-6.59,7l0,0a43.28,43.28,0,0,0-8.07-1.4M150.2,80.41c0-.38.47-.42.79-.42h3.37c.3,0,.77,0,.77.42a3.15,3.15,0,0,0,2.76,2.93l-3.63,19.54h0c-.56,0-1.06,0-1.59,0s-1,0-1.55,0l-3.61-19.54a3.16,3.16,0,0,0,2.67-2.93m-6.78,1.47a1.29,1.29,0,0,1,1.3,1.29,1.3,1.3,0,0,1-2.59,0,1.29,1.29,0,0,1,1.29-1.29m-5.41-2a1.78,1.78,0,0,1,1.74,1.79,1.76,1.76,0,0,1-3.52,0A1.79,1.79,0,0,1,138,79.9m-6.94.26a2.74,2.74,0,1,1-2.71,2.71,2.71,2.71,0,0,1,2.71-2.71m-8.21,7.69a2.41,2.41,0,1,1,2.4,2.42,2.39,2.39,0,0,1-2.4-2.42m3.06,9.71a2.4,2.4,0,1,1,2.44-2.37,2.4,2.4,0,0,1-2.44,2.37m3.56,4.89a1.76,1.76,0,0,1,0-3.52,1.76,1.76,0,1,1,0,3.52m3.5,3.78a1.27,1.27,0,0,1-1.27-1.28,1.28,1.28,0,1,1,1.27,1.28m3.25,0a3.91,3.91,0,0,0-.48-.64,2.81,2.81,0,0,0-2.77-3.48c-.19,0-.36,0-.57,0a3,3,0,0,0,.38-1.44,3.31,3.31,0,0,0-3.31-3.31h-.29a4.08,4.08,0,0,0,.7-2.21,4,4,0,0,0-2.82-3.83,3.87,3.87,0,0,0,2.17-3.51,3.57,3.57,0,0,0-.21-1.2,4.07,4.07,0,0,0,2,.51,4.31,4.31,0,0,0,4.23-3.61A3.31,3.31,0,0,0,138,85a3.39,3.39,0,0,0,2.64-1.36A2.82,2.82,0,0,0,143.42,86a2.79,2.79,0,0,0,2.66-1.87l0,0,1.08,5.95c-2.33-1.44-6.28-3.48-10.31-3a6,6,0,0,0-4.71,3c-1.16,2.17-.66,5.06,1.42,7.9a33.22,33.22,0,0,0,6.13,6.8l.09.08c-1.21.39-2.38.81-3.57,1.32m-7.32,19.58c6.18-8.11,14.58-12.58,23.71-12.58s17.54,4.47,23.73,12.58a44.84,44.84,0,0,1,8.49,20.37l-.8.77a8,8,0,0,0-2.56,3.27l0,.13a10,10,0,0,0-.55,2.46,2.2,2.2,0,0,0,.24,1,2.27,2.27,0,0,0,1.74,1.19c.1,0,.21.42.21.71a.34.34,0,0,1,0,.14,1,1,0,0,0,0,.24c0,.61.29,1.5,1.78,2.09a.7.7,0,0,0,.29.09c-2.14,19.48-15.88,34.6-32.48,34.6-15.71,0-28.87-13.54-32-31.51,1.41-.89,1.22-2.5,1.08-3.48l0-.64a50.26,50.26,0,0,1-.17-5.17,34.34,34.34,0,0,1,.59-4.8c.23-1,.4-2,.5-2.68.19-1.74-.1-2.54-1.09-3.48a44,44,0,0,1,7.46-15.32m67.9,27.08h0c1.35,1.53,4.41,2.34,6.1,2.72a14.94,14.94,0,0,1,4,1.44,6.11,6.11,0,0,1,.21,1.74c-1.59.47-7,1.74-11,.38l-.3-.12a3.34,3.34,0,0,0-2.61-.3,4.4,4.4,0,0,0-2.19,2.63c-1.53,3.57-1.41,7.17.34,9.69a18.77,18.77,0,0,0,2.08,2.46,8.19,8.19,0,0,1,1.95,2.67.86.86,0,0,1-.06.68,4.35,4.35,0,0,1-3,.77h-1.25a29.87,29.87,0,0,0-5.73.17,40.43,40.43,0,0,0-2.94-3.06l-.45-.45a46.35,46.35,0,0,0,4.59-15.81,1.55,1.55,0,0,0,.64-.18,2.41,2.41,0,0,1,.19.26,3.75,3.75,0,0,0,2.89,1.32c1.4-.17,2.44-2.34,2.65-4.29.09-1,.38-1.06,1-1.31l.56-.26.85-.43a14.14,14.14,0,0,0,1.36-.72m22,44H204.55l-4.16,3.3c-4.35-1.32-8.83-2.45-13.41-3.43a6.3,6.3,0,0,0,.8-.71c1.34-1.58,1.86-4.35,2-6.26l0,0,.93-1.36c.91-1.36,2.16-3.21,3.27-3.65a21.78,21.78,0,0,1,5.94-1.65h.35c1.72,0,5.3,0,6.19-2.17a2.69,2.69,0,0,0-.8-3.32c-.17-.21-.35-.37-.38-.51l-.23-.38c-.61-1-1.51-2.63.24-4.5a.3.3,0,0,0,.16-.08.67.67,0,0,0,.21-.26,19.27,19.27,0,0,0,5.6,8c4.19,3.23,7.34,3.73,8.22,3.77a24.92,24.92,0,0,1,4,.68,3.44,3.44,0,0,1,1.36,2.38c.17,1.95-.38,3.31-1.62,4-2.12,1.22-4.47,4-4.45,5.81v.35M182,190.56c0,.46-.17.64-.3.71-.74.64-2.93.31-4.54,0-.77-.12-1.48-.26-2.08-.3-2.67-.13-4.62,1.7-5.39,2.42a5,5,0,0,0-.52.51c-3-.33-5.93-.55-8.87-.72h.51a34,34,0,0,0,17.08-12.1c1.56,1.61,4.41,4.88,4.11,9.43m-3.21-10.7a44.12,44.12,0,0,0,2.56-4.09l.1.14a25.5,25.5,0,0,1,2.34,2.33A6.13,6.13,0,0,0,182,179a3.56,3.56,0,0,0-1.92,2.24,10.69,10.69,0,0,0-1.29-1.35m-3.81,12.73a12.47,12.47,0,0,1,1.93.26c2.12.33,4.49.72,5.81-.34a2.56,2.56,0,0,0,.81-1.9,10.18,10.18,0,0,0-.17-2.94,2.14,2.14,0,0,0,2.13.5c.08.22.12.52.21.73l.05.25a2.44,2.44,0,0,0,1.74,1.62,1.83,1.83,0,0,0,.66,0,8.65,8.65,0,0,1-1.54,4.29,10.06,10.06,0,0,1-1.73,1.27c-4.45-.9-8.94-1.62-13.45-2.12.91-.73,2.33-1.7,3.55-1.62M205.06,170a3.38,3.38,0,0,1,.08.34c-.29.25-.54.47-.76.68-1.25.55-3.12-.76-4-1.4l-.12-.09c-2-1.55-3.82-1.86-.89.89l.12.05a9.6,9.6,0,0,0,3.79,2,5.16,5.16,0,0,0,.51,5l.14.25a4.54,4.54,0,0,0,.73.94c.52.51.78.76.44,1.61-.51,1.28-3.57,1.21-4.75,1.21H200a24,24,0,0,0-6.56,1.76c-1.46.6-2.73,2.47-3.77,4a15.56,15.56,0,0,1-1.41,1.79.84.84,0,0,1-.48.13.68.68,0,0,1-.51-.51l-.39-1.27c-.29-1.24,0-2-1.58-.85h0c-.44.17-.67.08-.78,0-.4-.21-.81-.63-.61-1,0,0,.3-.68.3-.68,1-1.74.31-1.66-1.2-1.53a1.7,1.7,0,0,0-.33.09c-.21,0-.82-.35-1.07-1.06s.08-1.58,1.14-2.13a7.73,7.73,0,0,1,2.05-.76,9.49,9.49,0,0,1,1.74-.3,33.06,33.06,0,0,1,4.61-.08l1.29,0c1.15,0,3.22-.18,4.16-1.4a2.27,2.27,0,0,0,.34-2,8.87,8.87,0,0,0-2.31-3.31,20.82,20.82,0,0,1-1.93-2.29c-1.43-2-1.5-5.09-.18-8.19a3.24,3.24,0,0,1,1.32-1.78,1.83,1.83,0,0,1,1.4.29l.42.17c3.91,1.32,9,.39,11.23-.17a2.67,2.67,0,0,1-.34.86c-.78,1.48-2,6.66-1.46,8.61M76.57,192.47l-.21-.21L74.9,191c-.83-.67-1.76-1.49-2.06-1.74a6.72,6.72,0,0,1-.57-2.85,4.12,4.12,0,0,1,0-.54,19.18,19.18,0,0,1,.43-2.3s.07-.38.12-.6a3.7,3.7,0,0,1,2.21-.33,10.74,10.74,0,0,0,4.94-.21,4.66,4.66,0,0,0,2.85-3.1c2.16.16,4.8-1.53,5.78-2.73a11.55,11.55,0,0,0,1.5-2.87l.17,0a9.72,9.72,0,0,0,6.14,1.1,3.84,3.84,0,0,0,.59-.08,13.22,13.22,0,0,0-2.55,2.85,4.14,4.14,0,0,0-1,2.5,2,2,0,0,0,.08.6c.36,1.61,2,2.5,3.22,3.14L97,184a28.83,28.83,0,0,0,3.68,1.53l2,.71a6.61,6.61,0,0,1,1.84,1.32,12.55,12.55,0,0,0,2.35,1.7c1.88,1,2.94,1.35,4.13,1.06h.15c.06.26.1.68.14.81.26,2,2.43,2.29,3.83,2.51l.61.07.71.14a6.83,6.83,0,0,0,1.18,2.22s.53.4.89.71c-4.5,1-8.92,2.11-13.22,3.4l-4.35-3.27H78.4v-.13c0-2.76-1.05-3.66-1.83-4.29m40.13-37.54c-.61,1.11-.76,1.44-1.7,1.79a1,1,0,0,1-.84-.05,2.33,2.33,0,0,0-1.71,0c-2.2.8-2.12,2-2,3.61l0,1.07a3.83,3.83,0,0,0,.43,1.69,2.65,2.65,0,0,0,.71.81,2.77,2.77,0,0,0,2.47.09c.25-.14,1-.4,1.78-.69,1.06-.34,2.29-.77,3.27-1.19a46.3,46.3,0,0,0,4.1,12.36l-.36.34c-2.21,2.07-5.31,5-6.71,10.4a5.71,5.71,0,0,1-1.19-.81,10.57,10.57,0,0,0-4.89-2.29,21.94,21.94,0,0,1-5.6-2c-.57-.24-.94-.54-1-.84a1.25,1.25,0,0,1,.33-1,17.3,17.3,0,0,1,3.19-1.86c1.59-.86,6.22-4.82,5.82-7.27a12.83,12.83,0,0,0-1.62-3.4l-.72-1.27a4,4,0,0,0-4.7-1.82,38.69,38.69,0,0,1-9.45.68,11.79,11.79,0,0,1,6.89-2.72,14.73,14.73,0,0,0,8.19-4,31.44,31.44,0,0,0,5.36-7,1,1,0,0,0,.16-.33,5.06,5.06,0,0,1,0,.56l0,.5c0,1.1.33,3.69-.14,4.58m-10.57,9.25a2.45,2.45,0,0,1,2.93,1l.74,1.31a14.81,14.81,0,0,1,1.42,2.81c.19,1.18-3,4.58-5,5.64-.47.34-3.37,1.95-3.71,2.38a3.42,3.42,0,0,0-.62,1.78,1.49,1.49,0,0,0,.07.55,3.08,3.08,0,0,0,1.88,1.83,21.58,21.58,0,0,0,6,2.08,8.84,8.84,0,0,1,4.11,2,6.39,6.39,0,0,0,2.18,1.31l.81.17a9.66,9.66,0,0,1,1.78,4.59V192a1.11,1.11,0,0,1-.25.51c-.26.17-.94,0-1.53-.13l-.58-.12-.44-.14-.7-.08c-1.39-.17-2.38-.34-2.49-1.15-.07-.38-.1-.77-.17-1-.68-2.68-.55-1.53-1.74-1.11-.09,0-.19,0-.26.07-.61.14-1.18.06-3-.92a11.63,11.63,0,0,1-2-1.53,8.61,8.61,0,0,0-2.24-1.53l-2.06-.8a28,28,0,0,1-3.48-1.4l-.15-.09c-1-.51-2.3-1.19-2.49-2.12a2.28,2.28,0,0,1,.66-1.79A9.83,9.83,0,0,1,98.08,176c.28-.12,1.31-1,1.08-1.76s-.85-1.29-3-.92a8.3,8.3,0,0,1-5.27-1l-.21-.09c.56-1.39,1.22-2.92,2-4.54a17.13,17.13,0,0,1,1.74-2.63l.43-.47c2.92.73,8.75.09,11.21-.47m12,29.94a1.93,1.93,0,0,0,1.17-.34,2.05,2.05,0,0,0,.92-1.52c.36-2-1.38-5.91-2.59-6.63a19.22,19.22,0,0,1,6.26-9.72l0,0a45.81,45.81,0,0,0,2.57,4c-1.72,1.74-5.08,5.4-4.7,10.72a2.39,2.39,0,0,0,.86,1.9c1.27,1.06,3.65.67,5.77.34a12.57,12.57,0,0,1,1.91-.26c1.13-.08,2.63.89,3.64,1.62-4.53.55-9.07,1.22-13.57,2.16a7,7,0,0,1-1.7-1.31,5.08,5.08,0,0,1-.58-.94m12.13-3.1c-.6,0-1.32.18-2.09.3-1.6.26-3.77.59-4.54,0-.12-.07-.25-.25-.28-.71-.31-4.51,2.47-7.73,4.07-9.38a33.72,33.72,0,0,0,17,12h.69c-3,.17-5.93.42-9,.72-.18-.17-.34-.38-.39-.38l-.12-.13c-.77-.72-2.72-2.55-5.39-2.42M83,94.3c-1.34-1.15-2-2.47-1.91-3.57a2,2,0,0,1,1.14-1.59c1.36-.62,3.24-.53,5.84.4a3.64,3.64,0,0,0,1.16.17h.35l-.77-2.4c.3-.07,1.43-.4,1.74-.52.13.37.77,2.35.77,2.35l.29-.19a6.1,6.1,0,0,0,.81-1c1.47-2.07,2.95-3.27,4.38-3.48a2.12,2.12,0,0,1,1.86.54,3.58,3.58,0,0,1,.75,2.32,6.92,6.92,0,0,1-.24,1.72,25,25,0,0,1-1.52,4.54c-.14,0-.26,0-.4-.07a4.41,4.41,0,0,0-.8-.05.37.37,0,0,0-.21.05,20.61,20.61,0,0,0,1.65-4.8,5,5,0,0,0,.22-1.39,2.2,2.2,0,0,0-.43-1.42.67.67,0,0,0-.67-.17c-1.1.17-2.39,1.32-3.83,3.38a5.48,5.48,0,0,1-1.25,1.2c.17.47,1,2.9,1,2.9s.18.51.32,1h-.14c-.84-.17-1.56-.29-2.19-.38a2.75,2.75,0,0,1-.09-.34L90,90.81h-.17a7.64,7.64,0,0,1-1.91-.17v0c-2.38-.85-4.14-1-5.22-.47a.93.93,0,0,0-.55.73l0,.1a3.79,3.79,0,0,0,1.58,2.53,29.18,29.18,0,0,0,3.18,2.34s-.13.08-.15,0a2.57,2.57,0,0,0-1.17,0l-.38.12c-.68-.5-1.41-1.06-2.16-1.69m12.14-1.41,0,0L95,93a1.93,1.93,0,0,1-.69.76l-1-3c.23-.26.53-.55.77-.85v0h0a7.84,7.84,0,0,1,2.59-2.72c0,.08,0,.13,0,.19a4.26,4.26,0,0,1-.14,1.08,17.28,17.28,0,0,1-1.55,4.46m-5.86.77h-.15a1.66,1.66,0,0,0-1.45.68c0,.08,0,.12-.1.17a23.4,23.4,0,0,1-2.93-2.17,3.51,3.51,0,0,1-.87-1,7.76,7.76,0,0,1,3.69.68l.07,0h0c.43.09.85.16,1.25.21ZM94,128.39a20.21,20.21,0,0,0-1.66-2.84l0,0h0c-.09-.14-.17-.17-.23-.3-3-3.78-2.32-2.29-2.7.55,0,.22-.06.43-.08.64a4,4,0,0,1-.14,1,1.15,1.15,0,0,1-.25.6s-.25,0-.9-.13a5.87,5.87,0,0,1-4-4.12l-.05-.09a3.59,3.59,0,0,0-.33-.85c-1.45-3.77-1-2.28-2.26-.92l0,0a1.35,1.35,0,0,0-.32.35l-.12.12c-.17.21-.26.26-.28.3s-.06,0-.15-.12a15.1,15.1,0,0,1-2-3.19,4.18,4.18,0,0,1-.13-.94,17.29,17.29,0,0,1,.34-2.63l.07-.38,0-.26c.37-1.23.56-1.91,0-2.43s-1.11-.33-2.25,0l-.21.1a4.76,4.76,0,0,0-.63.13,18.29,18.29,0,0,0,.33-3.31c0-2-.51-3.66-2.29-4.42a3.16,3.16,0,0,1-.68-.38,19.94,19.94,0,0,0,9.28-4.68l.61-.68c.82-.84,1.83-1.91,2.74-2.07a2.7,2.7,0,0,1,2,.63c.21.17.63.55.92.81.5.42,1,.89,1.51.38a.74.74,0,0,0,0-1.14c-.95-1.19-1.53-2.58-1.34-2.85,0,0,.31-.25,2,0h-.07c1.37.33,5.17,2.07,3.09.33.42-.12.89-.26,1.38-.38L96,95.1a3.42,3.42,0,0,1,1.06,0,16.37,16.37,0,0,1,2.11.39h.76c0,.08-.07.17-.1.29a.39.39,0,0,0-.14.3c-.12.94,1.91,2.76,2,2.8.37.3,1.9,1.79,3.48,3.36,2.37,2.31,5,4.92,6,5.77,1.4,1.19,1.19,2.3,1,2.63s-.72.8-1.1.73l-.45-.21c-.63-.31-1.46-.68-2.09-.14a1.34,1.34,0,0,0-.38,1,4.52,4.52,0,0,0,.35,1.49,4.39,4.39,0,0,1,.17.59c-.26.42-1.25.45-1.89.09-.32-.17-1.27-1-2-1.62l-1.32-1.11a12.55,12.55,0,0,0-4.63-1.86,5.34,5.34,0,0,1-.92-.3c-.24-.08-.47-.19-.69-.26a4.88,4.88,0,0,1-2-3.27c-.11-.42-.37-.59-.43,0a6.49,6.49,0,0,0,1.11,4.67,10.23,10.23,0,0,0,1.33,1.78l.68.85a18.6,18.6,0,0,0,6.37,5.78l2.19,1.14c4,2,9.92,4.25,12.25,10.67a15.61,15.61,0,0,1,.33,8.61c-1.6-1.17-3.69-2.54-5.74-3.91-1.2-.77-2.49-1.66-3.67-2.46l.78-.38a4.34,4.34,0,0,0,2.23-2.64c.29-1.4-.77-2.65-1.74-4.16-2.24-3.6-7.57-4.42-11-4.84l-2.31-.38c-3.64-.68-8-2.37-10.58-4.71-3.65-3.31-3.14-9.59-2.8-11.47.09-.42,0-1.36-.34-.33-.49,2-2.21,9.08,2.12,12.94,2.85,2.56,7.67,4.42,11.53,5.19l2.19.29c3.14.39,8.09,1.27,9.93,4.25.81,1.27,1.59,2.21,1.49,2.92a3.4,3.4,0,0,1-1.57,1.62l-1.47.68a16.69,16.69,0,0,1-2.22-1.74,3.7,3.7,0,0,0-.77-.85c-2.5-2-1.36-.77-1.58.43-.29.21-1.46.23-3.6-.56-1.27-.5-1.32-.55-1.87-1.27-1.52-2-1.23-1.18-1.59.46-.16.64-.23.81-.83.71a3.12,3.12,0,0,1-1.61-.62M63.75,143.48,63,144.7c-1.13,2-2.12,3.86-2.8,5.22l-.29.64c-.55,1.19-.68,1.22-1,1.14a5.38,5.38,0,0,1,.16-.81,5.39,5.39,0,0,0,.23-1.39v-.21c-.09-1.28-1.45-3.49-3-5.81l-.21-.31a5,5,0,0,1-.53-2.59,20.21,20.21,0,0,1,.12-2.09v0a4.39,4.39,0,0,0,3.51-.88v.17a11.86,11.86,0,0,0,.52,3.22l.09.3c.19.72.54,2,1.6,2.08s1.82-.64,3-2.57c1.45-2.44,1.55-3.5,1.55-4.31v-.09l.07-.1h.21c.47,2.18-1.19,5.44-2.42,7.21m3.49,21.09c-1.6-3.22-.22-8.2,3.73-13.25,0,0,1.06-1.47,1.06-1.47l.47-.52a9.34,9.34,0,0,0,2.1-5,5,5,0,0,0-.1-.89,2.88,2.88,0,0,0-1.79-1.82,1.85,1.85,0,0,1-.77-.32,5.51,5.51,0,0,1,.9-.71l.38-.26a3.38,3.38,0,0,1,2.44-.51l.4.12a2,2,0,0,0,1.71-.1c.66-.36,1.1-1.21,1.48-2.91a10.91,10.91,0,0,0-1.66-8c-1.32-1.9-4.52-4.49-7.23-4-1,.17-2.39.77-3,3a6.51,6.51,0,0,0-.29,1.66,7,7,0,0,0,2,5c.06.05.09.05.13.09a2.87,2.87,0,0,1-.3.08c-.09,0-.3,0-.42,0-.94-.08-4-.76-4.29,1.61v.17c0,.47-.09,1.24-1.34,3.4a7,7,0,0,1-1.21,1.66,2.88,2.88,0,0,1-.25-.83l-.11-.36a8.82,8.82,0,0,1-.36-2.55c0-.08,0-.12,0-.21a2.86,2.86,0,0,1,.14-.94,2.6,2.6,0,0,0,.26-.93.85.85,0,0,0-.38-.72c-.66-.52-1.26.12-2.73,1.1a2.89,2.89,0,0,1-2.33.68,9.27,9.27,0,0,1-1.55-.42l-.7-.19c1.13-1,3.65-3.72,3.86-4.7a1.12,1.12,0,0,0-.08-.76,6,6,0,0,0-2.89-2.25,32.93,32.93,0,0,1,4.1-1.15,16.61,16.61,0,0,0,6.3-2.55,19.5,19.5,0,0,1,5.9-2.54c3.13-.68,5.91,1,9.26,5.77a10.93,10.93,0,0,1,1.66,6.46,17.53,17.53,0,0,1-1.23,6.62l-.19.38a4.54,4.54,0,0,0-.68,2,2.38,2.38,0,0,0,1.2,2c.73.47,1.06.8,1.06,1.27a2.59,2.59,0,0,1-.5,1.28L80.34,150a29.11,29.11,0,0,0-1.81,3c-.07.17-.55,1-.59.77l-.17-.56L77.51,152c-.4-2.43-.79-2.88-1.43-3a1,1,0,0,0-1,.59l-.71,1.18-.66,1.17-.71.89-.77,1.06c-2,2.76-5.1,6.92-1.84,10.87,2,2.47,5.34,1.69,7.11,1.15-.09,1.13-.17,2.05-.26,2.92-4.94,0-8.64-1.48-10-4.24m1.12,30.14-1.43,0c-.19-.05-.26-.09-.26-.14-.16-.21.07-1.1.16-1.6a8.1,8.1,0,0,0,.19-1.5,13.3,13.3,0,0,1,.22-1.48,23.71,23.71,0,0,0,.59-5.3c0-.64,0-1.37-.08-2.13s0-1.23,0-1.7c0-1.39.17-1.82.26-1.91s.25-.11.55-.11l.51-.05.47,0c1.56-.13,5.28-.51,7.43-3.91,1.52-2.46,1.91-4.84,2.2-10.83a16.17,16.17,0,0,1,6.37-11.29l1.06-.59c1.41-.77,3.1-1.87,4.54-2.73a3,3,0,0,0,1.62-1.6c.3-.81.64-1.62,1.06-2.59a29.11,29.11,0,0,0,1.74-4.63,17.15,17.15,0,0,0-.59-10.07,1.26,1.26,0,0,0,.57.14,2,2,0,0,0,2.11-1,4.58,4.58,0,0,0,1.79,1c1.81.68,4.07,1.23,5.17.27,0,.06.08.15.15.23.65.82,3.38,2.68,7.78,5.57,3,2,6.18,4.12,7.57,5.27.76.63,1.06.92,1.06,1.78,0,.21,0,.43,0,.69-.12.71-.31,1.6-.5,2.58A34.09,34.09,0,0,0,120,152a40.49,40.49,0,0,0,.17,5.26l.06.85c0,.34.07.64.07.89a1.1,1.1,0,0,1-.51,1.11,36.45,36.45,0,0,1-4.4,1.69l-1.93.68a1.15,1.15,0,0,1-1,0c-.32-.19-.4-.78-.42-1.25l-.07-1.11c-.09-1.53-.1-1.61,1.06-2,.3-.15.43-.08.73,0a2.57,2.57,0,0,0,1.8,0,4.31,4.31,0,0,0,2.53-2.47c.54-1.06.25-2.29.37-4.62l.1-1.62c.12-1.15.73-2.8-2.32-3.78C111,144,108,143.13,106.89,143a9.39,9.39,0,0,1-3.34-1.2.72.72,0,0,0-1,0,.8.8,0,0,0,0,1.11c.68.73,2.84,1.4,4.14,1.62.66.12,2.74.72,9.07,2.65a1.21,1.21,0,0,1,.42.24c-.25.5-.49,1-.79,1.52a29.68,29.68,0,0,1-5,6.58c-2,1.74-4.49,3.31-7.28,3.52-5.16.43-9.11,3.15-11.7,8a50.38,50.38,0,0,0-2.33,5.19,14.11,14.11,0,0,1-1.62,3.44c-1,1.18-3.69,2.59-5,2-1.82-.77-2.8-.85-3.92-.17-.66.34-.41.85-1.64.72-.42,0-2-.13-2,.3s1.09.85,1.51.85c2.4.21,2.1-.09,2.91-.54.45-.23.76-.45,2.12.07A3,3,0,0,1,79.44,181a10,10,0,0,1-4.18.13c-1.51-.17-3.7.26-3.91,1.49l-.12.63a17.62,17.62,0,0,0-.47,2.42c-.17,1.3.17,3.86,1,4.71l2.17,1.83,1.42,1.23.24.21c.68.56,1.36,1.11,1.27,3.4,0,2-.8,2.12-3.22,2.21h-.33a4.3,4.3,0,0,1-2.69-.6c-.47-.29.29-1.32.38-1.65a1.88,1.88,0,0,0,.13-.47c.42-1.78,1.61-1.74-1.63-1.74-.37,0-.71,0-1.11-.09m-14.29,21c.89-1.79,4.54-8.87,4.54-8.87s-3.82-6.63-4.83-8.37H68.84a1,1,0,0,0,0,.18,2,2,0,0,0,.25,1,2.07,2.07,0,0,0,1.66,1,11,11,0,0,0,2.61.18h.31c1.87,0,3.91-.13,4.55-2.34h22.14c.11,0,1.6,1.15,3.08,2.25-2.21.68-4.37,1.41-6.49,2.21l-.64.21L100,215.69Zm147.23,9a152.7,152.7,0,0,0-48.49-8.24h-.1a151.94,151.94,0,0,0-48.54,8.28l-6-20.6a167.09,167.09,0,0,1,54.52-9.5h.1a165.86,165.86,0,0,1,54.54,9.55Zm30.77-24.72a6.33,6.33,0,0,0,.51-1.48H251c-1.06,1.74-4.88,8.37-4.88,8.37l4.58,8.87H205.57l3.66-12.53-.64-.25c-2.09-.77-4.25-1.48-6.42-2.21,1.41-1.06,2.81-2.21,2.89-2.25h14.31a3.35,3.35,0,0,0,.68.68,2.56,2.56,0,0,0,2.23,0,2.76,2.76,0,0,0,.57,1.15,3,3,0,0,0,3.91.89s.4-.3.68-.47h0a2.9,2.9,0,0,0,2.44.64,2.85,2.85,0,0,0,2.17-1.41m-4.33-21.14.42.34c.9.62,2.71,2.05,2.59,3.27-.12,1-.12,5.18-.12,5.27a22.41,22.41,0,0,0,.46,3.06c.21,1,.39,2,.47,2.5.08,1.1-.26,4.88-.85,6a1.45,1.45,0,0,1-1,.59,1.54,1.54,0,0,1-1.13-.21l-.19-.21c-.87-2.47-1.24-1.15-2.06.21l-.34.21c-.89.59-1.69-.26-1.9-.51a1,1,0,0,1-.31-.64v-.21c.4-2.24.31-2-1.44-1.06a.74.74,0,0,1-.3.16h.05c-.21.14-1,.4-1.11.26-.42-.29-.56-.5-.56-1.27v0c0-1,1.79-3.32,3.7-4.46a5,5,0,0,0,2.39-4.72,4.63,4.63,0,0,0-.05-.8,4.56,4.56,0,0,0-2.37-3.69,23,23,0,0,0-4.38-.73c-.56,0-3.46-.47-7.43-3.48-3.36-2.59-5.27-7.51-5.69-9a3.81,3.81,0,0,1-.09-.85,20.4,20.4,0,0,1,1.43-6.63,7.68,7.68,0,0,0,.82-3.52c0-.13,0-.26,0-.38a23.41,23.41,0,0,1,2.57,2.21c2.8,2.76,2.32,1.48.85-.56a13.29,13.29,0,0,0-3.06-3.3,16.12,16.12,0,0,0-5.77-2.47,13.16,13.16,0,0,1-5.06-2,4,4,0,0,0,.52-.31c.08,0,1.36-.89,2.47-1.69a3.85,3.85,0,0,0,1.72,1.32,4,4,0,0,0,3.66-1.23,11.15,11.15,0,0,0,.93-1.91l.35-.77a22.44,22.44,0,0,1,3.15-2.29c.73-.34.54-.47-.16-.39s-3.79.94-4.31,1.88l-.47,1a10.5,10.5,0,0,1-.75,1.62,2.35,2.35,0,0,1-2,.56,1.63,1.63,0,0,1-.87-.73,1.6,1.6,0,0,0,.48-.56.71.71,0,0,0-.22-1,.79.79,0,0,0-1.08.26v0a25.72,25.72,0,0,1-3.75,2.71,19,19,0,0,1-3.1,1.74l-.9.42-.42.21a2.71,2.71,0,0,0-2,2.64c-.12,1.59-.76,2.81-1.25,2.84a2.48,2.48,0,0,1-1.85-1.18c-.48-1.36-.72-1.36-1.53-.3-.27.3-1.25,0-1.56-.12s-.75-.38-.62-.94c.53-2.68.53-2.85-1.47-2.31-.29.05-.5-.11-.7-.45s.11-1.06.47-2.21l0-.13a6.94,6.94,0,0,1,2.14-2.59l1.41-1.27a10.11,10.11,0,0,1,3.73-1.65,12.48,12.48,0,0,0,4.46-2.38,27.25,27.25,0,0,1,5.08-3.4c.78-.34.75-.64-.55-.29-1.73.67-4.7,1.65-5.62,2.56a1.24,1.24,0,0,1-.28.28c-1.56-5.26-.24-7.26.65-8.62l.06-.09h.16l.42,0,1.44-.09a1.69,1.69,0,0,0,.47,1.28,3.39,3.39,0,0,0,3.18.34s4.37-1.83,5.22-2.41c.3-.18.62-.35.89-.52a32.72,32.72,0,0,0,.61,3.83c.31,1.43,1,2,1.46,2.16a1.81,1.81,0,0,0,1.67-.13l.17-.08a6.25,6.25,0,0,0,3.1-3.45c.14-.21.21-.42.35-.61a1.76,1.76,0,0,0,0,.23,4.87,4.87,0,0,0,.28.47l.23.59c1.79,3.57,5.06,10.23,5.44,17.16l.3,2.93c.61,3.86,1.82,5.05,2.71,5.9a3.2,3.2,0,0,1,.49.51,14.57,14.57,0,0,1,1.32,4.5s0,0,0,.09a4.39,4.39,0,0,0,.14,1,11.31,11.31,0,0,1-.53,4.69c-.34-.48-.63-1-.89-1.29-1.78-2.76-5.48-5.09-1.29.85,1.29,1.83,3.65,5.47,6.35,7.64m3.65-30.1c.17-.55.25-.93.38-1.45a8.62,8.62,0,0,1,2.08-3.43l0-.05c0,.13.1.43.1.43l.16.59c.26.85.64,2,.89,2.63.82,2.16.52,2.44,2.94,1.41l.61-.26c.07-.08.11-.08.15-.08a4.34,4.34,0,0,1,.11.5l0,.09c0,.59.93,4.07,1.14,5,.77,3,0,2.76,2.49,1.74,1.72-.73,2.72-.54,2.78-.38.6,1-2.4,5.86-3.72,7.08a14.18,14.18,0,0,0-2.31,3.58l-.09.16a16.35,16.35,0,0,1-2.22,4.12c-4.53,5.4-9.68,3.23-11.87,2.35l-.19-.09a11.27,11.27,0,0,0,.76-3.23A7,7,0,0,0,230.4,171c4.09,0,7.15-4.08,7.15-7.68s-3-5.61-5.8-5.87a6.28,6.28,0,0,0-3.54.68v-.71c0-1.15.19-3.1,1.58-3.66a7.51,7.51,0,0,1,.75-.27c2.33-.63,2.25-.63.68-1.77-.09-.06-.17-.08-.23-.16s-.05,0-.07,0a.58.58,0,0,1-.08-.34,11.45,11.45,0,0,1,.55-2.46m18.34-9a17.72,17.72,0,0,0-1.87,6.62,3,3,0,0,0,1.52,2.38c.14.13.14.25,0,.34s-.53.29-.53.29a6.46,6.46,0,0,1-2.26.73,1.79,1.79,0,0,1-1.5-.52c-1.26-1.14-1.91-3.81-2.08-6.23,1.06,1,1.74,1.4,2.38,1.19s.89-1,1-1.57l.15-.56a34.85,34.85,0,0,0,1.44-6.13,6.54,6.54,0,0,1,.31-1.76.12.12,0,0,0,.09,0l.12.09.54.21a8.82,8.82,0,0,1,1,3.61,4,4,0,0,1-.21,1.28m2.26-7.56c.07.14.21.3.21.44v.11a1.57,1.57,0,0,1-.94.64,2.65,2.65,0,0,1-2.21-.17l-.11,0a.31.31,0,0,0-.21-.09c-2.86-1.1-1.8-.8-2.2,1.87-.07.34-.11.77-.18,1.14a34.15,34.15,0,0,1-1.29,5.74l-.26.89v.17a10,10,0,0,1-1.12-1l-.55-.59c-2.48-2.63-4.87-5.35-4.87-7.9a4.08,4.08,0,0,1,1.15-2.8,1.79,1.79,0,0,0,.89-1.4V129c-.09-.83-1-1.3-1.65-1.6l-.3-.16c-.57-.3-4.42-1.7-7.64-.14-2.29,1.11-3.7,3.31-4.24,6.63v0c-.35,2.25-1,6.91,4.35,11.52a5.59,5.59,0,0,0-.58,1.68c-.05.3-.19.77-.34,1.28s-.34,1.09-.46,1.65c-1.53-2.38-3.7-6-4.33-7.22-1.91-3.48-2.73-9.21-.6-13.38a9.83,9.83,0,0,1,5-4.5,9.18,9.18,0,0,1,6.7-.35,13.32,13.32,0,0,0,3.6,1.16,9.68,9.68,0,0,0,3.81-.51,7.8,7.8,0,0,1,2-.38,22.47,22.47,0,0,1,2.82,1,13.24,13.24,0,0,0,1.77.63,5,5,0,0,0,.92.05,3,3,0,0,1,1.29.08h0a3,3,0,0,1-.51,1.1l0,0a5,5,0,0,0-.64,2.37,3.48,3.48,0,0,0,.73,2.17"/><path class="cls-1" d="M201.33,95.78a4.76,4.76,0,0,1,3.41.64,5.13,5.13,0,0,0,1,.63c.17.14.29.47-.37.64a9.26,9.26,0,0,0-1.48.47A2.27,2.27,0,0,1,202,98c-.5-.3-1.37-1.1-1.37-1.48a.84.84,0,0,1,.71-.73"/><path class="cls-1" d="M97.13,101.6a15.44,15.44,0,0,0,2,1.1c1.1.47,1.25,0,1.57-1.1s-.32-1.07-.72-1.07-1.53,0-2.31.14c-1.6.16-.84.8-.49.93"/></svg>