<svg id="Layer_1" data-name="Layer 1" xmlns="http://www.w3.org/2000/svg" viewBox="0 0 300 300"><defs><style>.cls-1{fill:#fff;}.cls-2{fill:#f58025;fill-rule:evenodd;}</style></defs><g id="Layer"><ellipse id="Layer-2" data-name="Layer" class="cls-1" cx="150.03" cy="150" rx="131.2" ry="130.86"/></g><path id="Layer-3" data-name="Layer" class="cls-2" d="M150,286.72C74.17,286.72,12.89,225.6,12.89,150S74.17,13.28,150,13.28,287.11,74.4,287.11,150,225.83,286.72,150,286.72ZM251.62,175.61c-9.87,2.93-20.74,3.93-34.55,3.93H124.35a16.36,16.36,0,0,1-11.81-4.93L98.73,199.17c-14.8,26.6-18.74,46.24-10.87,54.15,5.94,5.86,20.75,5.86,33.55-2l3.94-2.93C197.39,208.08,233.88,187.39,251.62,175.61ZM76.05,224.78c1.94-9.85,6.88-19.69,13.81-31.47l46.36-79.7a15.53,15.53,0,0,1,9.87-7.86L132.28,81.14c-14.8-25.55-30.61-39.32-41.48-36.39-8.87,2-14.75,14.77-14.75,29.53v150.5ZM270.36,150c2-7.85-5.93-19.69-18.74-27.54l-3.94-1.94c-71-41.31-107.52-62-126.27-71.85a188.2,188.2,0,0,1,19.75,27.55l46.36,80.7a15.51,15.51,0,0,1,1.94,12.77h28.61c30.61,0,49.36-6.91,52.29-19.69Z"/></svg>