<?xml version="1.0" encoding="UTF-8" standalone="no"?>
<svg
   version="1.1"
   width="300"
   height="300"
   id="svg3412"
   sodipodi:docname="PNR_Mark_dark.svg"
   inkscape:export-filename="PNR_Mark_dark.png"
   inkscape:export-xdpi="96"
   inkscape:export-ydpi="96"
   inkscape:version="1.2.1 (9c6d41e4, 2022-07-14)"
   xmlns:inkscape="http://www.inkscape.org/namespaces/inkscape"
   xmlns:sodipodi="http://sodipodi.sourceforge.net/DTD/sodipodi-0.dtd"
   xmlns="http://www.w3.org/2000/svg"
   xmlns:svg="http://www.w3.org/2000/svg">
  <sodipodi:namedview
     id="namedview14"
     pagecolor="#ffffff"
     bordercolor="#666666"
     borderopacity="1.0"
     inkscape:showpageshadow="2"
     inkscape:pageopacity="0.0"
     inkscape:pagecheckerboard="0"
     inkscape:deskcolor="#d1d1d1"
     showgrid="false"
     inkscape:zoom="1.4073573"
     inkscape:cx="266.10159"
     inkscape:cy="154.54498"
     inkscape:window-width="1440"
     inkscape:window-height="847"
     inkscape:window-x="0"
     inkscape:window-y="25"
     inkscape:window-maximized="0"
     inkscape:current-layer="svg3412" />
  <defs
     id="defs3414">
    <clipPath
       clipPathUnits="userSpaceOnUse"
       id="clipPath312">
      <rect
         style="fill:#0000ff;fill-rule:evenodd"
         id="rect314"
         width="75.318474"
         height="90.950607"
         x="0.71055162"
         y="0.71055162" />
    </clipPath>
    <clipPath
       clipPathUnits="userSpaceOnUse"
       id="clipPath316">
      <rect
         style="fill:#0000ff;fill-rule:evenodd"
         id="rect318"
         width="75.318474"
         height="90.950607"
         x="0.71055162"
         y="0.71055162" />
    </clipPath>
    <clipPath
       clipPathUnits="userSpaceOnUse"
       id="clipPath326">
      <rect
         style="fill:#0000ff;fill-rule:evenodd;stroke-width:0.246732"
         id="rect328"
         width="55.925858"
         height="71.353683"
         x="9.6862783"
         y="9.7103395" />
    </clipPath>
    <clipPath
       clipPathUnits="userSpaceOnUse"
       id="clipPath390">
      <rect
         style="fill:#0000ff;fill-rule:evenodd;stroke-width:0.257276"
         id="rect392"
         width="54.293991"
         height="71.112328"
         x="9.6346893"
         y="9.8264914" />
    </clipPath>
  </defs>
  <g
     id="g322"
     transform="matrix(3.8868726,0,0,3.8868726,6.3243208,-26.733819)"
     clip-path="url(#clipPath390)"
     style="fill:#ffffff">
    <path
       d="m 19.090296,27.358877 v 18.170872 l 9.080575,-9.084462 v 18.172817 l 9.084462,-9.088355 z M 9.999999,54.616344 19.086407,45.531883 9.999999,36.443527 Z m 9.086408,-9.084461 0.0047,0.0014 v -0.0062 l -0.0047,0.0032 z m 0.0047,18.166983 9.080575,-9.082522 -9.080575,-9.082517 z"
       id="path312"
       style="fill:#ffffff;fill-opacity:1;fill-rule:evenodd;stroke:none;stroke-width:0.450161"
       clip-path="url(#clipPath316)" />
    <path
       d="m 268.63634,36.346121 v 9.370296 h 9.4403 c 2.52778,0 4.61223,-2.173895 4.61223,-4.707509 0,-1.121946 -0.40639,-2.479172 -1.16278,-3.245284 -1.1725,-1.267784 -2.64056,-1.417503 -3.95889,-1.417503 z M 261.3855,60.776172 V 30.207496 h 15.93086 c 4.71724,0 7.80891,1.372779 9.93614,3.601117 1.73056,1.827784 2.7475,4.557791 2.7475,7.200295 0,4.262232 -2.64056,7.908073 -6.70057,9.683351 l 6.3564,10.083913 h -8.32028 l -5.2928,-8.9153 h -7.40641 v 8.9153 z m -15.345,-30.5681 h 7.25668 v 30.568677 h -7.25668 z m -27.37667,20.397076 5.02057,-11.721136 h 0.30528 l 5.0264,11.721136 z m 8.47391,-20.397265 h -6.24363 l -14.21003,30.566732 h 7.66113 l 1.87834,-4.431399 15.27947,-0.0078 1.62362,4.439173 h 7.97224 l -13.96114,-30.56672 z m -48.55483,0 h 32.76785 l -2.92056,6.288349 H 197.86601 V 60.77656 h -7.25668 V 36.496232 h -12.02642 z m -12.35639,0 V 48.2407 L 149.28455,30.207883 h -6.24362 V 60.77656 h 7.30529 V 42.837079 h 0.0506 l 16.84279,17.939481 h 6.29807 V 30.207883 Z m -36.09868,18.355006 h -12.22863 v 5.975289 h 18.60448 V 60.77597 H 110.64836 V 30.207293 h 25.85533 v 6.288345 h -18.60448 v 5.829459 h 12.22863 z M 83.890023,36.346121 v 9.370296 h 8.926964 c 1.261946,0 2.685283,-0.198332 3.809177,-1.267779 0.810835,-0.806946 1.312503,-2.271117 1.312503,-3.391118 0,-1.170558 -0.456949,-2.527784 -1.213337,-3.338619 -1.12195,-1.166669 -2.590006,-1.37278 -3.908343,-1.37278 z M 76.635286,60.776172 V 30.207496 h 15.926977 c 4.668621,0 7.816687,1.318337 9.990577,3.653619 1.73056,1.928891 2.68723,4.610289 2.68723,7.147793 0,2.889448 -1.20945,5.773067 -3.13834,7.65335 -2.07861,1.979448 -5.020565,3.198614 -9.539467,3.198614 h -8.67224 v 8.9153 z M 28.170295,10.000009 v 26.4445 l 9.086406,-9.086407 V 45.52897 l 9.084466,-9.084461 V 54.615381 L 37.256701,45.52897 v 18.170872 l -9.086406,-9.084461 v 26.37061 L 63.62926,45.52897 Z"
       id="path350"
       style="fill:#ffffff;fill-opacity:1;fill-rule:nonzero;stroke:none;stroke-width:0.450161"
       clip-path="url(#clipPath312)" />
  </g>
</svg>
