<svg id="Layer_1" data-name="Layer 1" xmlns="http://www.w3.org/2000/svg" viewBox="0 0 300 300"><defs><style>.cls-1{fill:#fff;}</style></defs><title>PODD_Dark_bg</title><path class="cls-1" d="M196.79,142.48a14.21,14.21,0,0,0,2.06,7.9c2.14,3.16,5.35,3.74,8.86,3.42a17.39,17.39,0,0,0,6.08-1.86,7.06,7.06,0,0,1,2.36-.94,48.11,48.11,0,0,1,2.4,5,1.73,1.73,0,0,1-1.08,1.4c-5.39,2.85-11.08,4-17.07,2.48-5.72-1.45-9.06-5.43-10.59-10.94a28.41,28.41,0,0,1,.65-18.19c1.95-5.06,5.42-8.66,10.92-9.74,8.15-1.59,14.7,1.83,17,10.16a33.29,33.29,0,0,1,1,9.93,1.64,1.64,0,0,1-.64,1.4Zm14.33-5.91a16.79,16.79,0,0,0-1.12-6.5c-1.92-4.81-8.82-4.38-10.95-1.14a15.69,15.69,0,0,0-2.2,7.64Z"/><path class="cls-1" d="M155.3,122.45c2.49-.72,4.94-1.32,7.33-1.78a2.18,2.18,0,0,1,.44,1.85c0,7.58,0,15.15,0,22.72,0,4.28-.63,8.69,2,12.37-.2.7-.65.77-1,.92-1.38.53-2.77,1.05-4.17,1.55-1.2.42-1.65.26-2.32-.81a16.48,16.48,0,0,1-1.27-3.18l-2,1.52c-4.06,3-8.59,3.55-13.36,2.34A8.14,8.14,0,0,1,135,154a20.33,20.33,0,0,1-.79-6.05q0-12,0-24a2.28,2.28,0,0,1,.38-1.64c2.22-.68,4.64-1.2,6.93-1.7.8.62.64,1.31.64,1.94V146a19.35,19.35,0,0,0,.35,4.43,4,4,0,0,0,4.17,3.53c3.37.17,6.1-1.27,8.64-3.43Z"/><path class="cls-1" d="M65.29,123.42a55.53,55.53,0,0,1,6.34-2.94c1.52,1.45,1.81,3.45,2.67,5.25,1.13-.81,2.24-1.63,3.36-2.42A14.51,14.51,0,0,1,89.06,121a7.44,7.44,0,0,1,6.27,5.76,15.49,15.49,0,0,1,.6,4.12L96,158a1.67,1.67,0,0,1-.34,1.25,71.57,71.57,0,0,1-7.18,0,2.78,2.78,0,0,1-.29-1.81c0-7.9,0-15.79,0-23.69a13.29,13.29,0,0,0-.3-3.32,4.09,4.09,0,0,0-4.16-3.39c-3.61-.19-6.25,1.68-8.83,4v28.09c-2.6.25-5.07.1-7.42.1a2.83,2.83,0,0,1-.38-1.94q0-12.27,0-24.53a19.35,19.35,0,0,0-1.58-8.82A3.64,3.64,0,0,1,65.29,123.42Z"/><path class="cls-1" d="M53.91,153.08h6.6a22.5,22.5,0,0,1,.13,6.14H38.72a28.31,28.31,0,0,1-.11-6.11h6.63V112.93c-2.11-.19-4.29.08-6.52-.17a29.18,29.18,0,0,1-.11-6.12H60.49c.54,2,.18,3.91.22,6-2.31.59-4.55.06-6.8.36Z"/><path class="cls-1" d="M227.92,127.75h-6.14a22.46,22.46,0,0,1-.08-5.91h6.43v-11a67.33,67.33,0,0,1,7.68-1.55v12.48h11.24a25.18,25.18,0,0,1-1.22,5.93h-9.62a1.47,1.47,0,0,0-.3,1.22v19.23a15.66,15.66,0,0,0,.27,3.05,2.55,2.55,0,0,0,2.29,2.26,11.22,11.22,0,0,0,5.58-.81c.81-.28,1.53-.9,2.62-.7a34.68,34.68,0,0,1,1.53,5.76,5.78,5.78,0,0,1-2.4,1.25,20.48,20.48,0,0,1-10.13,1.2c-4.4-.68-6.69-3.11-7.3-7.52a30,30,0,0,1-.28-4q0-9.62,0-19.24A3.46,3.46,0,0,0,227.92,127.75Z"/><path class="cls-1" d="M127,123.82c-.23,1.82-1.38,3.31-2.06,4.89-.81.42-1.37,0-2-.27a15.93,15.93,0,0,0-7.83-1.58,4.29,4.29,0,0,0-4.18,4.88,3.52,3.52,0,0,0,1.39,2.62A14.14,14.14,0,0,0,114.9,136c2.54,1.34,5.07,2.71,7.64,4,3.65,1.82,5.8,4.55,5.69,8.78-.12,4.47-1.88,8-5.91,10.17a13.51,13.51,0,0,1-6.3,1.56,25.59,25.59,0,0,1-12.73-3,9.14,9.14,0,0,1-.94-.58,3.3,3.3,0,0,1-.36-.4,52.31,52.31,0,0,1,2.2-5.31,2,2,0,0,1,1.45.4c3.19,1.44,6.41,2.75,10,2.6a4.67,4.67,0,0,0,4.69-3.61,3.74,3.74,0,0,0-1.63-4.37,40.61,40.61,0,0,0-4.13-2.3c-1.93-1-3.83-2.09-5.8-3-7.27-3.43-6.59-12.66-2.1-16.82a13,13,0,0,1,8.87-3.46,21.6,21.6,0,0,1,10.23,2.24A3.1,3.1,0,0,1,127,123.82Z"/><path class="cls-1" d="M172.77,105.18a46.52,46.52,0,0,1,7.28-1.71,2.71,2.71,0,0,1,.36,2q0,21.94,0,43.88a8.42,8.42,0,0,0,.18,2.35,2,2,0,0,0,2.16,1.78,6.22,6.22,0,0,0,2.73-.42,2.09,2.09,0,0,1,1.44-.27c.79,1.81,1.15,3.81,1.77,5.61a1.45,1.45,0,0,1-1,.83,16.43,16.43,0,0,1-8.88.92c-3.43-.64-5.28-2.54-5.91-6a17.61,17.61,0,0,1-.3-2.9c-.17-14.86,0-29.72-.08-44.58A3,3,0,0,1,172.77,105.18Z"/><path class="cls-1" d="M246,177.89c.66.39.52,1,.4,1.53a2.62,2.62,0,0,1-.85.78,89.37,89.37,0,0,1-40.63,15.58c-12.68,1.59-25.19.54-37.63-2.14-7.73-1.66-15.15-4.31-22.67-6.66a195.77,195.77,0,0,0-30.31-7.07,124.48,124.48,0,0,0-30.43-.86A98.21,98.21,0,0,0,47,190.25c-.43.24-.82.61-1.38.56-.45-.69-.45-.69-.32-1.62a2.58,2.58,0,0,1,1-.71,97.61,97.61,0,0,1,33.1-10.9,125.51,125.51,0,0,1,38,.78c12.64,2,24.84,5.69,37,9.67a121.81,121.81,0,0,0,38.69,6.46,89.46,89.46,0,0,0,51.82-16C245.21,178.22,245.49,177.87,246,177.89Z"/><path class="cls-1" d="M261.5,110.34a1.39,1.39,0,0,1-1.27.07l-.35-4.61-.18,0q-.75,2.26-1.49,4.51a1.86,1.86,0,0,1-1.43.07c-.5-1.6-1-3.22-1.57-5-.13,1.81-.24,3.44-.35,5a1.07,1.07,0,0,1-1.15.08c-.07-2.06.28-4.11.37-6.19a4,4,0,0,1,1.88-.1,43.78,43.78,0,0,1,1.6,4.4l1.56-4.33a3.29,3.29,0,0,1,1.89,0C261.17,106.25,261.34,108.32,261.5,110.34Z"/><path class="cls-1" d="M251.28,110.32a1.43,1.43,0,0,1-1.37.05v-5c-.67-.33-1.29-.09-1.87-.24-.32-.26-.18-.57-.09-1h5.12a.81.81,0,0,1,.07.9c-.56.26-1.18,0-1.86.2Z"/></svg>