<svg id="Layer_1" data-name="Layer 1" xmlns="http://www.w3.org/2000/svg" viewBox="0 0 300 300"><path d="M250,80.77586H75.51724l-7.75862,38.44828a70.33514,70.33514,0,0,1,14.82759-.51724c29.82758,2.24138,46.37931,27.75862,78.27586,24.65517,28.62069-3.10345,50.68966-21.55173,80-21.55173" fill="#fff"/><path d="M232.069,171.12069c-16.2069,5.68966-31.72414,13.7931-49.82759,15.68965C150.51723,189.91379,133.7931,164.569,104.13793,162.5c-17.24138-1.2069-31.72414,3.7931-45.86207,11.37931L50,219.22414H223.27586" fill="#fff"/><path d="M237.931,134.91379c-24.82758,3.44828-45.34483,20.34483-70.86206,23.44827-31.72414,3.44828-47.75862-25.34483-77.4138-27.5862a66.09488,66.09488,0,0,0-25,2.931l-4.82758,24.82759c14.48275-8.79311,29.65517-11.55173,45.86206-7.58621,32.4138,7.931,46.2069,25.68967,77.931,22.24139,18.27586-2.24138,33.96551-11.37931,50.34482-17.931Z" fill="#fff"/></svg>