<svg id="Layer_1" data-name="Layer 1" xmlns="http://www.w3.org/2000/svg" viewBox="0 0 300 300"><g id="Page-1"><g id="_01---IR-Landing-Copy" data-name="01---IR-Landing-Copy"><g id="ppg_lg_rgb_rev" data-name="ppg lg rgb rev"><path id="Path" d="M218.34883,237.58984H81.65117A41.857,41.857,0,0,1,40,195.62233V104.37767A41.85626,41.85626,0,0,1,81.65117,62.41016H218.34883A41.857,41.857,0,0,1,260,104.37767v91.24466A41.857,41.857,0,0,1,218.34883,237.58984Z" fill="#fff"/><path id="Path-2" data-name="Path" d="M218.34883,230.20222H81.65117a34.552,34.552,0,0,1-34.32034-34.57989V104.37767a34.552,34.552,0,0,1,34.32034-34.5799H218.34883a34.55108,34.55108,0,0,1,34.31923,34.5799v91.24466A34.55108,34.55108,0,0,1,218.34883,230.20222Z" fill="#3376a3"/><path id="Shape" d="M219.81145,122.05137c8.20641-2.4451,16.55323.08465,23.1732,5.62314V109.90167c-21.40322-3.41755-32.62224-1.09054-41.18132,4.2608a29.225,29.225,0,0,0-9.89015,10.569s-.15588.32416-.40905.90452c-1.12433-44.9796-28.43776-41.06077-61.03679-41.053-9.13727.00334-18.35637,0-18.35637,0v38.7616c-5.41714-16.04289-22.14614-14.31629-40.04592-14.31629-6.48509,0-15.05191.00222-15.05191.00222v82.00012H81.66665c-4.1115-1.44032-6.19876-5.0361-6.19876-10.25377V158.24757l7.11194,7.166a24.39934,24.39934,0,0,0,5.88257.68841c6.8068-.37873,19.0429-3.0377,23.64968-16.9385v66.346h29.33216c-4.09934-1.43587-6.18107-4.9637-6.18107-10.1669V160.7918l11.11951,11.16386a22.0183,22.0183,0,0,0,9.26331,1.3746c8.55686-.53914,23.20747-4.18171,30.8799-19.77013.63016,14.65382,5.39614,29.35332,20.15066,35.13018,6.49394,2.67456,13.87562,3.41867,21.55359,2.82383a98.033,98.033,0,0,0,14.75783-1.48489V149.8641l-22.46565.00557c4.1115,1.44032,6.19875,4.85007,6.19875,10.06886V178.2338a15.04945,15.04945,0,0,1-15.91091-5.01048c-4.87764-6.35611-5.75875-24.247-3.68807-36.448C208.29616,130.67656,213.47892,123.93725,219.81145,122.05137Zm-135.916,33.01369c-5.96217,0-8.42862-2.61329-8.42862-2.61329V122.96924c0-2.51192,1.79871-4.2374,4.5117-4.55376,2.90757-.33975,16.12207-2.46626,16.12207,17.276C96.10056,154.17391,88.03124,155.06506,83.89541,155.06506Zm66.16539,3.021a26.84367,26.84367,0,0,1-14.79874-4.24409V104.938c0-4.07924,4.78809-6.88078,8.88411-7.39542,4.39009-.5514,24.60929-3.62252,24.60929,28.431C168.75546,154.86344,155.12638,158.08605,150.0608,158.08605Z" fill="#fff"/></g></g></g></svg>