<svg id="Layer_1" data-name="Layer 1" xmlns="http://www.w3.org/2000/svg" viewBox="0 0 300 300"><defs><style>.cls-1{fill:#fff;fill-rule:evenodd;}</style></defs><g id="g10"><g id="g12"><path id="path14" class="cls-1" d="M166.51,125.37v77.72H150.69V134.47ZM53.87,159a19.29,19.29,0,0,1,13.67-5.48A18.19,18.19,0,0,1,82,160.59c2.8,3.53,5.15,9.26,5.15,17.93,0,16.89-8.77,25.55-19.55,25.55a17.84,17.84,0,0,1-13-5.38v21.79H38.89V154.66h15Zm9.06,6.32c-6.56,0-8.37,7-8.37,13.87s1.81,13.55,8.37,13.55a7.33,7.33,0,0,0,6.23-3.23c2.4-3.48,2.4-8.66,2.3-11.11C71.36,175.62,71.07,165.34,62.93,165.34ZM109.57,159a19.29,19.29,0,0,1,13.67-5.48,18.31,18.31,0,0,1,14.51,7.05c2.75,3.53,5.14,9.26,5.14,17.93,0,16.89-8.77,25.57-19.55,25.57a17.88,17.88,0,0,1-13-5.4v21.8H94.59V154.66h15Zm9.08,6.32c-6.58,0-8.39,7-8.39,13.87s1.81,13.55,8.39,13.55a7.31,7.31,0,0,0,6.21-3.23c2.4-3.48,2.4-8.66,2.31-11.11-.1-2.79-.4-13.08-8.52-13.08Z"/><path id="path16" class="cls-1" d="M197.43,209.45,190,203.09l7.05-7,6.37,7.45A56.46,56.46,0,0,1,197.43,209.45Zm-38-147.17.65,8h-2.9l.65-8Zm1.12,14.11L161.36,87c-.94,0-1.86,0-2.79,0s-1.82,0-2.74,0l.83-10.62h3.86Zm1.18,15.23.79,10.18c-1.28-.09-2.6-.14-3.92-.14s-2.6,0-3.88.14l.79-10.18c1-.05,2.06-.1,3.09-.1S160.68,91.57,161.7,91.62Zm1.08,14,.79,9.74h-9.95l.79-9.74c1.36-.1,2.78-.15,4.16-.15S161.41,105.48,162.78,105.58ZM132.84,65.51l2.7,7.59-2.8.74L131.28,66C131.77,65.81,132.31,65.67,132.84,65.51Zm4.71,13.38,3.58,10c-1.81.41-3.58.89-5.3,1.42l-2-10.42C135.1,79.52,136.33,79.23,137.55,78.89Zm5.1,14.4,3.43,9.64a55.49,55.49,0,0,0-7.55,2l-1.87-10.09c2-.59,4-1.12,6-1.56Zm4.69,13.22,3.25,9.2-9.56,2.6-1.81-9.65A51.08,51.08,0,0,1,147.34,106.51ZM108.05,75.56l4.51,6.66c-.83.44-1.66.93-2.5,1.42l-3.43-7.25c.45-.24.93-.54,1.42-.83Zm8,11.7L122.12,96c-1.62.83-3.24,1.77-4.81,2.74l-4.55-9.65c1.08-.58,2.21-1.22,3.29-1.86Zm8.67,12.55,5.77,8.47a62.65,62.65,0,0,0-6.76,3.91l-4.41-9.26C121.09,101.8,122.85,100.78,124.72,99.81Zm7.94,11.55,5.53,8.13-8.58,5-4.22-8.87a63.44,63.44,0,0,1,7.27-4.21ZM86.75,91.67l6,5.19c-.67.69-1.36,1.37-2,2.06l-5.2-6.12c.39-.39.78-.73,1.18-1.13Zm10.72,9.21,8.08,6.91c-1.32,1.27-2.64,2.54-3.86,3.92l-7-8.14c.93-.88,1.81-1.81,2.74-2.69Zm11.62,9.94,7.78,6.66a59.6,59.6,0,0,0-5.53,5.48l-6.66-7.74A61,61,0,0,1,109.09,110.82Zm10.63,9.11,7.5,6.36-7.07,7-6.37-7.44A61.56,61.56,0,0,1,119.72,119.93ZM185.9,66l-1.46,7.89-2.8-.74,2.7-7.59C184.87,65.67,185.37,65.81,185.9,66Zm-2.59,14-2,10.42c-1.72-.53-3.47-1-5.29-1.42l3.53-10C180.85,79.23,182.09,79.52,183.31,79.92Zm-2.79,14.93-1.87,10.09a57.09,57.09,0,0,0-7.55-2l3.39-9.64C176.54,93.73,178.55,94.26,180.52,94.85ZM178,108.66l-1.8,9.65-9.61-2.6,3.29-9.2A51.08,51.08,0,0,1,178,108.66Zm32.59-32.27-3.49,7.25a27.77,27.77,0,0,0-2.48-1.42l4.55-6.66c.49.29,1,.59,1.42.83Zm-6.13,12.73-4.61,9.65c-1.5-1-3.13-1.91-4.75-2.74l6-8.77C202.23,87.9,203.35,88.54,204.42,89.12Zm-6.56,13.81-4.41,9.26a66.76,66.76,0,0,0-6.76-3.91l5.77-8.47C194.29,100.78,196.1,101.8,197.86,102.93Zm-6.07,12.64-4.22,8.87-8.57-5,5.54-8.13a64,64,0,0,1,7.25,4.21ZM231.67,92.8l-5.25,6.12c-.68-.69-1.33-1.37-2.06-2.06l6.13-5.19c.39.4.78.74,1.18,1.13Zm-9.26,10.77-6.9,8.14c-1.28-1.38-2.56-2.65-3.88-3.92l8.08-6.91c.93.88,1.81,1.81,2.7,2.69Zm-9.89,11.65L205.84,123a59.49,59.49,0,0,0-5.52-5.48l7.78-6.66Q210.38,112.88,212.52,115.22Zm-9.13,10.64L197,133.3l-7.05-7,7.44-6.36A55.71,55.71,0,0,1,203.39,125.86Zm44.4-11.71-6.62,4.55c-.48-.83-1-1.65-1.48-2.49l7.27-3.48c.29.48.53,1,.83,1.42Zm-11.71,8-8.77,6c-.89-1.61-1.81-3.17-2.75-4.75l9.61-4.59c.69,1.07,1.32,2.19,1.91,3.33Zm-12.59,8.67-8.43,5.77a65.1,65.1,0,0,0-3.92-6.76l9.2-4.41c1.14,1.72,2.16,3.53,3.15,5.4Zm-11.57,7.88-8.09,5.58-5-8.63,8.87-4.2a59.47,59.47,0,0,1,4.21,7.25Zm45.91.24-7.56,2.64c-.24-.93-.48-1.85-.77-2.78l7.9-1.48C257.54,137.91,257.68,138.45,257.83,139Zm-13.38,4.7-10,3.53c-.44-1.77-.89-3.53-1.42-5.29l10.48-2C243.81,141.18,244.16,142.41,244.45,143.68Zm-14.4,5.09-9.65,3.43a77.65,77.65,0,0,0-2-7.53l10-1.91a58.28,58.28,0,0,1,1.62,6Zm-13.22,4.65-9.26,3.29-2.56-9.6,9.66-1.77A65.76,65.76,0,0,1,216.83,153.42Zm44.28,12.11-8,.58v-2.88l8,.63ZM247,166.6l-10.64.83c0-.93,0-1.8,0-2.74s0-1.86,0-2.74l10.64.83v3.82Zm-15.25,1.18-10.19.83c.06-1.32.1-2.6.1-3.92s0-2.6-.1-3.92l10.19.79c.06,1.08.06,2.1.06,3.13S231.77,166.75,231.71,167.78Zm-14,1.12-9.79.73v-9.89l9.79.75c.11,1.4.16,2.78.16,4.2s-.05,2.79-.16,4.21ZM257.4,192l-7.9-1.46c.29-.92.53-1.85.77-2.79l7.56,2.64C257.68,190.94,257.54,191.48,257.4,192Zm-13.93-2.58-10.48-2c.53-1.76,1-3.52,1.42-5.34l10,3.58C244.16,186.93,243.81,188.21,243.47,189.43Zm-15-2.8-10-1.91a77.09,77.09,0,0,0,2-7.54l9.65,3.43c-.45,2.06-1,4-1.62,6ZM214.67,184,205,182.28l2.56-9.61,9.26,3.28a64.35,64.35,0,0,1-2.16,8.08ZM247,216.66l-7.27-3.49c.5-.83,1-1.66,1.48-2.48l6.62,4.55c-.3.44-.54.92-.83,1.42Zm-12.79-6.13-9.61-4.59c.94-1.58,1.86-3.15,2.75-4.75l8.77,6c-.59,1.13-1.22,2.25-1.91,3.33Zm-13.83-6.6-9.2-4.41a69.55,69.55,0,0,0,3.92-6.76l8.43,5.77C222.5,200.4,221.48,202.2,220.34,203.93Zm-12.63-6-8.87-4.27,5-8.57,8.09,5.55a57.07,57.07,0,0,1-4.21,7.29Zm22.78,39.82-6.13-5.2c.73-.69,1.38-1.37,2.06-2.05l5.25,6.07c-.39.39-.79.78-1.18,1.18Zm-10.78-9.22-8.08-6.9c1.32-1.26,2.6-2.58,3.88-3.92l6.9,8.08c-.89.94-1.77,1.87-2.7,2.74Zm-11.61-9.93-7.78-6.66a66.42,66.42,0,0,0,5.52-5.48l6.68,7.73q-2.15,2.34-4.42,4.41Z"/><path id="path18" class="cls-1" d="M232.56,224.59a5.92,5.92,0,0,1,.17-1.41,5.6,5.6,0,0,1,.5-1.27,4.64,4.64,0,0,1,.78-1,4.66,4.66,0,0,1,2.2-1.32,4.68,4.68,0,0,1,2.64,0,4.72,4.72,0,0,1,1.17.51,4.44,4.44,0,0,1,1,.81,5.33,5.33,0,0,1,.78,1,6.1,6.1,0,0,1,.5,1.27,5.45,5.45,0,0,1,.17,1.41,5.52,5.52,0,0,1-.17,1.42,5.81,5.81,0,0,1-.5,1.26,5.18,5.18,0,0,1-.78,1.06,5.05,5.05,0,0,1-1,.81,4.08,4.08,0,0,1-1.17.51,4.68,4.68,0,0,1-2.64,0,4.38,4.38,0,0,1-1.2-.51,5.91,5.91,0,0,1-1-.81,4.54,4.54,0,0,1-.78-1.06,5.34,5.34,0,0,1-.5-1.26A6,6,0,0,1,232.56,224.59Zm.59,0a4.53,4.53,0,0,0,.16,1.24,4.43,4.43,0,0,0,.44,1.12,4.3,4.3,0,0,0,.69.94,4.22,4.22,0,0,0,.88.71,4.28,4.28,0,0,0,1,.48,4.53,4.53,0,0,0,1.17.16,4.45,4.45,0,0,0,1.16-.16,4.39,4.39,0,0,0,1-.48,3.81,3.81,0,0,0,.89-.71,4,4,0,0,0,.68-.94,4.43,4.43,0,0,0,.44-1.12,4.89,4.89,0,0,0,0-2.48,4.75,4.75,0,0,0-.44-1.12,4.29,4.29,0,0,0-.68-.92,4.46,4.46,0,0,0-.89-.72,4.33,4.33,0,0,0-1-.46,4.45,4.45,0,0,0-1.16-.15,4.2,4.2,0,0,0-1.7.34,4.3,4.3,0,0,0-1.39,1,4.49,4.49,0,0,0-.95,1.47A4.7,4.7,0,0,0,233.15,224.59Zm3.24.44v2.41h-.69v-5.87h1.81a2.48,2.48,0,0,1,1.58.43,1.56,1.56,0,0,1,.56,1.31,1.3,1.3,0,0,1-.26.82,1.85,1.85,0,0,1-.73.56,1.17,1.17,0,0,1,.7.57,1.87,1.87,0,0,1,.19.88v.31a3.79,3.79,0,0,0,0,.49,1.46,1.46,0,0,0,.1.4v.1H239a.64.64,0,0,1-.06-.23,2.64,2.64,0,0,1,0-.28c0-.1,0-.19,0-.28v-.51a1.16,1.16,0,0,0-.26-.85,1.24,1.24,0,0,0-.89-.26Zm0-.63h1.27a1.85,1.85,0,0,0,.48-.07,1.05,1.05,0,0,0,.42-.22.85.85,0,0,0,.29-.33,1,1,0,0,0,.1-.46,1.83,1.83,0,0,0-.07-.5.81.81,0,0,0-.25-.36,1,1,0,0,0-.44-.19,3.16,3.16,0,0,0-.68-.07h-1.12Z"/></g></g></svg>