<svg id="Layer_1" data-name="Layer 1" xmlns="http://www.w3.org/2000/svg" viewBox="0 0 300 300"><path d="M246.5989,232.73583c-22.20236,29.537-60.38953,45.62526-95.694,45.62526-30.94464,0-68.77-11.2164-96.08213-45.62526Z" fill="#fff" fill-rule="evenodd"/><path d="M142.5367,106.92146c-18.1783-19.81662-18.92906-20.90939-18.92906-20.90939l21.867,1.84519L129.82724,72.89053V57.515l20.36384,3.75879,55.69275,33.34691,64.37149,17.9047c-6.55993-31.02458-45.51083-90.88653-118.62946-90.88653C75.56759,21.63891,25,85.60166,25,146.21437c0,40.45574,13.11988,63.68914,24.73658,80.90981,7.99472-18.72385,23.30347-56.924,23.30347-56.924L79.6,166.50981l9.42949-26.99219,5.46718-2.66435L73.04,204.64154,57.7313,226.71377h6.5616L90.12392,194.87,102.493,145.46361l4.78148,6.76515c-1.84352,22.823-1.09276,17.22067-2.59594,29.93014L73.7908,226.71377h7.244l30.20376-23.57541,1.77679.75243-11.20629,22.823h33.41532l51.32-35.19211,15.6491-58.76918,37.85812-1.84519-14.55465-9.70311Zm-37.1057-25.831L91.21669,118.19782c0-.75242-9.83991,4.44114-9.83991,4.44114s-21.11627,58.01676-31.6402,87.26455c-8.33673-15.37549-15.98944-31.50173-15.98944-63.68914,0-56.10317,46.6036-116.37553,117.87872-116.37553,49.88357,0,90.95493,32.52942,105.50959,70.79629L200.75867,84.50722,150.53142,55.66985l-24.73658-4.16753L114.51849,76.2389Z" fill="#fff" fill-rule="evenodd"/><path d="M258.24649,155.61241,275,161.59654a126.97783,126.97783,0,0,1-23.32907,65.12026H223.66927l26.55466-43.02463Z" fill="#fff" fill-rule="evenodd"/><polygon points="236.783 146.977 253.517 154.093 241.877 182.192 231.323 191.548 210.183 226.717 196.387 226.717 210.183 201.637 221.103 192.281 236.783 146.977" fill="#fff" fill-rule="evenodd"/><polygon points="203.66 185.208 206.935 191.548 188.753 226.717 171.299 226.717 203.66 185.208" fill="#fff" fill-rule="evenodd"/><polygon points="211.31 136.501 232.743 145.493 217.501 175.073 209.116 176.607 211.31 159.372 209.116 155.984 211.31 136.501" fill="#fff" fill-rule="evenodd"/></svg>