<svg id="Layer_1" data-name="Layer 1" xmlns="http://www.w3.org/2000/svg" viewBox="0 0 300 300"><defs><style>.cls-1{fill:#f37b36;fill-rule:evenodd;}.cls-2{fill:#fefefe;}</style></defs><title>PSA_Light_bg</title><g id="layer1"><g id="g41668"><g id="g41644"><path id="path41614" class="cls-1" d="M43.36,90.08H256.64A8.37,8.37,0,0,1,265,98.42V201.58a8.37,8.37,0,0,1-8.36,8.34H43.36A8.37,8.37,0,0,1,35,201.58V98.42a8.37,8.37,0,0,1,8.36-8.34Z"/><path id="path41616" class="cls-2" d="M87.67,125.8h3.92c1.83,0,6,0,6-4.51s-4.28-4.42-6.37-4.42H87.67Zm-9.22-17.35H90.77c7,0,9.57,1.07,11.61,2.74a12.77,12.77,0,0,1,4.43,10c0,3.81-1.58,7.81-4,9.84-2.6,2.18-5.14,3.25-11,3.25H87.67V146H78.45"/><path id="path41618" class="cls-2" d="M135.62,146h-8v-3h-.1c-1.73,3.6-5.19,3.9-7.33,3.9-1.73,0-5.8-.4-8.3-3.55-2.24-2.79-2.54-4.82-2.54-8.67V117.84h8.45v15.57c0,1.93,0,5.64,4.53,5.64,2.44,0,4.83-1.27,4.83-5.74V117.84h8.45"/><path id="path41620" class="cls-2" d="M153.7,139.1a7.18,7.18,0,0,0,.15-14.36,6.93,6.93,0,0,0-7,7.1C146.83,135.75,149.47,139.1,153.7,139.1Zm-15-30.65h8.45v11.62a11,11,0,0,1,8.2-3.2c5.9,0,13.89,4.22,13.89,14.87,0,10.15-7.07,15.23-14.25,15.23-4,0-7-1.94-8.09-4h-.11v3h-8.09"/><rect id="rect41622" class="cls-2" x="171.92" y="108.45" width="8.45" height="37.55"/><path id="path41624" class="cls-2" d="M191.88,146h-8.45V117.84h8.45Zm0-31.16h-8.45v-6.39h8.45Z"/><path id="path41626" class="cls-2" d="M224.51,135.29a15.18,15.18,0,0,1-29.93-3.45,15.12,15.12,0,0,1,29.88-3.14h-8.55a6.34,6.34,0,0,0-6.11-4c-4-.21-6.72,3.09-6.72,7.15s2.7,7.16,6.72,7.16a6.5,6.5,0,0,0,6.11-3.76"/><path id="path41628" class="cls-2" d="M70.33,161.61c-.21-1.27-.51-3.65-3.46-3.65a3.13,3.13,0,0,0-3.31,2.95c0,2.23,1,2.68,7.78,5.72,7,3.15,8.81,6.4,8.81,10.76,0,5.49-3.16,11.52-13.13,11.52-10.9,0-13.59-7.1-13.59-11.92v-1.22H63c0,4.36,2.7,5.13,3.93,5.13a3.63,3.63,0,0,0,3.66-3.61c0-2.49-1.58-3.09-7.38-5.53C60.56,170.7,54,168.06,54,161s6.87-11.06,13.18-11.06c3.71,0,7.74,1.37,10.18,4.27a11.26,11.26,0,0,1,2.49,7.4"/><path id="path41630" class="cls-2" d="M95.53,160H99.6v6.4H95.53V188.2H87.08V166.44H82.9V160h4.18v-9.39h8.45"/><path id="path41632" class="cls-2" d="M115.64,181.2a7.11,7.11,0,1,0-6.77-7.11A6.87,6.87,0,0,0,115.64,181.2Zm0-22.07c10.28,0,15.22,8.07,15.22,15s-4.94,15-15.22,15-15.22-8.07-15.22-15S105.35,159.13,115.64,159.13Z"/><path id="path41634" class="cls-2" d="M133.55,160h7.95v3h.1c.71-1.36,2.19-3.95,7.07-3.95v8.47c-3.91.1-6.66.91-6.66,5.18V188.2h-8.46"/><path id="path41636" class="cls-2" d="M165.47,181.3c5.3,0,7.08-4.46,7.08-7.21a6.93,6.93,0,0,0-7.12-7.15c-4.84,0-7,4.06-7,7.26C158.45,176.84,160.38,181.3,165.47,181.3ZM181,188.2h-8.45v-3h-.1c-1.43,2.73-4.94,4-8.25,4-9,0-14.2-7-14.2-15.07,0-9.23,6.67-15,14.2-15,4.63,0,7.23,2.23,8.25,3.95h.1v-3H181"/><path id="path41638" class="cls-2" d="M199,181.25a6.7,6.7,0,0,0,6.93-7c0-4.52-3.11-7.26-6.88-7.26a6.86,6.86,0,0,0-6.82,7C192.25,178.51,195.51,181.25,199,181.25Zm15.38,3.55c0,4.21-.3,6.9-1.68,9.29-2.19,3.55-7.33,6.65-14.31,6.65-9.82,0-13.53-5.89-14.1-9.9h9.78c1.22,2.79,4.38,2.79,4.93,2.79,1.07,0,6.88-.1,6.88-7.66v-.87h-.11c-.86,1.63-3.31,4-7.73,4-7.69,0-14.26-5.79-14.26-14.82,0-9.64,6.93-15.17,14.26-15.17,3.15,0,6.26,1.11,7.78,3.55H206V160h8.45"/><path id="path41640" class="cls-2" d="M238.12,171a6.67,6.67,0,0,0-12.82,0Zm7.49,8.37a16.61,16.61,0,0,1-5.75,7.21,13.82,13.82,0,0,1-8.05,2.54,15,15,0,0,1-.15-30c8.6,0,14.91,6.79,14.91,15.37a11.64,11.64,0,0,1-.2,2.23H225.2c.5,3.35,3.3,5.33,6.61,5.33a6,6,0,0,0,5.14-2.64"/><path id="path41642" class="cls-2" d="M245.93,185.57v.8h.34c.15,0,.49,0,.49-.44s-.31-.36-.45-.36Zm.49-.49c.55,0,1.05.23,1.05.8a.7.7,0,0,1-.46.69.65.65,0,0,1,.4.66,2.65,2.65,0,0,0,.09.7h-.69a4.1,4.1,0,0,1-.09-.68c0-.17-.06-.42-.51-.42h-.28v1.1h-.71v-2.85Zm-2.12,1.45a2,2,0,1,0,4,0,2,2,0,1,0-4,0Zm4.58,0a2.57,2.57,0,1,1-2.55-2.57A2.58,2.58,0,0,1,248.88,186.53Z"/></g></g></g></svg>