<svg id="Layer_1" data-name="Layer 1" xmlns="http://www.w3.org/2000/svg" viewBox="0 0 300 300"><path d="M121.08151,217.14258c0,20.68967,3.60188,29.05017,16.56113,37.13793H75c11.72727-6.28213,14.10658-13.4765,14.10658-40.43887V86.55324c0-26.96239-2.40752-34.14734-14.10658-40.43888h30.41379c9.6395,0,9.6395,0,35.54859-.30094H150.884a94.04391,94.04391,0,0,1,41.88715,7.78684A54.37618,54.37618,0,0,1,225,101.22408c0,32.64263-31.63637,59.30408-70.185,59.30408a51.96854,51.96854,0,0,1-22.89968-4.19436,69.68654,69.68654,0,0,0,40.96551-15.26333,43.16614,43.16614,0,0,0,16.57054-34.14733c0-24.26332-17.464-39.24451-46.0815-39.24451a82.00611,82.00611,0,0,0-22.2884,2.69906Z" fill="#88a16c"/></svg>