<svg id="Layer_1" data-name="Layer 1" xmlns="http://www.w3.org/2000/svg" viewBox="0 0 300 300"><defs><style>.cls-1{fill:#fff;}.cls-1,.cls-2,.cls-3{fill-rule:evenodd;}.cls-2{fill:#b7b7b8;}.cls-3{fill:#e9e9ea;}</style></defs><title>PYPL_Dark_bg</title><path class="cls-1" d="M110.5,219.91c.74-1.48,4.07-24.63,4.56-28.07.68-4.74,1.49-9.25,2.25-14.15.72-4.56,1.18-9.68,2.58-13.81l-.47-.09a25.51,25.51,0,0,0,.87-4.46c.27-1.51.49-3,.73-4.55.42-2.68.87-5.63,1.35-8.49l5.23-33.36c.92-5.88.58-12.56,6.66-14,3.29-.8,16.31-.27,20.76-.27,13.44,0,35.28-.91,47.44,2.83l7.51,2.81.12,0c.73-7.64,1.48-13.57-1-20.83-5.09-15.1-18.31-21.73-33-24.06-4.15-.66-5.35-.6-8.83-1l-1.49-.38h-65l-1.18.62a11.4,11.4,0,0,0-1.18.49C96,60.51,94.8,63,94.32,66L80.55,153.31c-.8,5.13-10,60.31-9.64,62.71.67,5,6.26,4.07,10.76,4.07s26.48.51,28.83-.18"/><path class="cls-2" d="M119.89,163.88c-1.4,4.13-1.86,9.25-2.58,13.81-.76,4.9-1.57,9.41-2.25,14.15-.49,3.44-3.82,26.59-4.56,28.07.13,2.64-2,11.86-2.28,15.58-.5,6.43,8.11,4.82,13.36,4.82h18.27c7,0,8.56-2.31,9.6-8.76,1.67-10.36,3.32-20.85,4.94-31.3.67-4.32,1-10.21,7.66-10.51,6.21-.27,11.27,0,17.44-.9,21.07-3,34.82-14.83,41-31.84,5.65-15.56,8.92-36.57-5.05-48.9-2-1.79-4.9-3.24-5.36-3.78l-.12,0c-.51,8.61-5.87,22.13-9.59,28.12-10.79,17.39-26.94,24.92-48.15,26.66-6.07.49-12.42.34-18.57.34-7.52,0-10.26-.9-13.77,4.49"/><path class="cls-3" d="M119.89,163.88c3.51-5.39,6.25-4.49,13.77-4.49,6.15,0,12.5.15,18.57-.34,21.21-1.74,37.36-9.27,48.15-26.66,3.72-6,9.08-19.51,9.59-28.12l-7.51-2.81c-12.16-3.74-34-2.84-47.44-2.83-4.45,0-17.47-.53-20.76.27-6.08,1.47-5.74,8.15-6.66,14l-5.23,33.36c-.48,2.86-.93,5.81-1.35,8.49-.24,1.53-.46,3-.73,4.55a25.51,25.51,0,0,1-.87,4.46Z"/></svg>