<svg id="Layer_1" data-name="Layer 1" xmlns="http://www.w3.org/2000/svg" viewBox="0 0 300 300"><defs><style>.cls-1{fill:#fff;}</style></defs><title>QCOM_Dark_bg</title><path class="cls-1" d="M226.23,138.83c0-43.86-34-76.66-76.23-76.66S73.77,95,73.77,138.83s34,76.65,76.23,76.65a78.63,78.63,0,0,0,20.8-2.79L179,234.07c.84,2.29,2.51,3.76,5.64,3.76h13.16c3.13,0,5.43-2.09,4-6.06l-10.73-28C212.23,190.5,226.23,167,226.23,138.83Zm-43,44.41-9.59-25c-.83-2.09-2.5-4-6.26-4H154.8c-3.13,0-5.64,2.09-4.17,6.06l12.66,32.86A55.17,55.17,0,0,1,150,194.8c-30.91,0-52.84-24.23-52.84-56s21.93-56,52.84-56,52.84,24.23,52.84,56C202.84,157.26,195.44,173.15,183.19,183.24Z"/></svg>