<svg id="Layer_1" data-name="Layer 1" xmlns="http://www.w3.org/2000/svg" viewBox="0 0 300 300"><defs><style>.cls-1{fill:#fff;}</style></defs><title>QRVO_Dark_bg</title><path class="cls-1" d="M199.05,164.33v-.08a4.8,4.8,0,0,0-.05-.52v-.45l-1.56-3.64c-3.86-9.14-14.37-33.66-14.73-34.3a4.65,4.65,0,0,0-1-1.16l-.19-.15-.33-.24-.43-.25-.12-.07h0l-.07,0a2.56,2.56,0,0,0-.64-.22l-.08,0h0l-.29,0a4.27,4.27,0,0,0-1.67,0,3.16,3.16,0,0,0-.48.09,3.54,3.54,0,0,0-1.86,1.18,4.82,4.82,0,0,0-1.32,4.13l.06.2v.38l2.87,6.72c1.23,2.91,2.91,6.85,5.16,12.1,2.58,6,4.94,11.49,6.49,15,.86,2,1.4,3.24,1.48,3.39s0,0,0,0l.1.21a2.25,2.25,0,0,0,.12.21l.15.32a5.11,5.11,0,0,0,2.28,1.83h0a3.48,3.48,0,0,0,1,.19,6.33,6.33,0,0,0,1.15,0,3,3,0,0,0,1.63-.47,3.21,3.21,0,0,0,.3-.21l.19-.13a4.73,4.73,0,0,0,1.74-2.57v0A4.9,4.9,0,0,0,199.05,164.33Z"/><path class="cls-1" d="M258.49,164.78A2.64,2.64,0,0,0,257,165l-.06,0s0,0,0,0h0v0a.28.28,0,0,0,0,.2c.05.15.23.22.59.22h.51v1.53h0c0,.49,0,.87,0,1.15v.06a1.3,1.3,0,0,0,0,.32h0a.34.34,0,0,0,.07.17h0c.1.11.14.15.21.14a.1.1,0,0,0,.09,0h.05a.13.13,0,0,0,.08-.07c.14-.09.17-.41.17-1.67v-1.62h.42a.71.71,0,0,0,.21,0l.18,0a.46.46,0,0,0,.17-.07h0a.27.27,0,0,0,.09-.12l0,0s0,0,0,0C260,164.88,259.73,164.79,258.49,164.78Z"/><path class="cls-1" d="M76.61,157.52h0v-.82c0-.87.06-2.5,0-6v-.17c0-2.81,0-5,0-6.51,0-.81,0-1.42-.05-1.79a10.5,10.5,0,0,0-.25-2.27,22.81,22.81,0,0,0-1-3.47l-.06-.15c-.18-.48-.37-.94-.58-1.39l-.13-.26q-.32-.67-.69-1.32l0-.06,0-.05a20.65,20.65,0,0,0-1.68-2.47l-.18-.22c-.14-.18-.29-.35-.43-.52l-.54-.59c-.08-.08-.14-.17-.22-.25l-.18-.17-.06-.07a19.17,19.17,0,0,0-5-3.68,18.12,18.12,0,0,0-5.14-1.86h0a10.07,10.07,0,0,0-2.24-.26h-.19a16.57,16.57,0,0,0-1.73-.06,18.93,18.93,0,0,0-2.58.13,7.08,7.08,0,0,0-1.09.18,18.27,18.27,0,0,0-2,.53,20.78,20.78,0,0,0-14,15.6c0,.07,0,.13-.05.19a1.6,1.6,0,0,1,0,.21,11.06,11.06,0,0,0-.2,1.22,24.27,24.27,0,0,0-.14,3.66c0,1.62,0,3.43.06,4.75a12.21,12.21,0,0,0,.34,3.19A18.68,18.68,0,0,0,37.82,157l.16.33.09.2a18.84,18.84,0,0,0,3.86,5.56,18.61,18.61,0,0,0,5,3.84c.55.29,1.1.54,1.65.78a14.8,14.8,0,0,0,3.46,1.1c.27.06.55.11.83.15a31.28,31.28,0,0,0,5.43.41,10.33,10.33,0,0,1,4.61.85,12.15,12.15,0,0,1,2.1,1.18A11.85,11.85,0,0,1,66.83,173a10.34,10.34,0,0,1,1,1.21,11.3,11.3,0,0,0,.78,1,5.26,5.26,0,0,0,.74.75,4.34,4.34,0,0,0,1.09.7,2.34,2.34,0,0,0,.4.12l.07,0h0a1.66,1.66,0,0,0,.35,0,5.57,5.57,0,0,0,1.63,0,2.78,2.78,0,0,0,1-.26l.21-.08a5,5,0,0,0,2.23-2.31,3.75,3.75,0,0,0,.34-2v0c0-.12,0-.23,0-.34a3,3,0,0,0-.24-1.39,9.67,9.67,0,0,0-1.22-2.1A20.45,20.45,0,0,0,70.85,164c-.18-.14-.36-.28-.54-.4a19.6,19.6,0,0,0-4-2.27,20.46,20.46,0,0,0-8.44-1.55c-3.12-.07-4.14-.22-5.65-.83A12.14,12.14,0,0,1,47.35,155c-.07-.1-.15-.2-.21-.3a15,15,0,0,1-1.42-3s0-.09,0-.14l-.11-.33a6.91,6.91,0,0,1-.18-.8c-.1-.89-.11-2.12-.11-4.37v-.77a17.29,17.29,0,0,1,.31-4.31c.08-.3.19-.58.29-.87s.22-.51.35-.81a10.21,10.21,0,0,1,2.08-3.16,11.49,11.49,0,0,1,3-2.3h0a5.6,5.6,0,0,1,.55-.27,10.44,10.44,0,0,1,1-.41l.47-.16.18,0a11.34,11.34,0,0,1,2.39-.32h.3a10.53,10.53,0,0,1,2.35.17,11,11,0,0,1,5.38,2.87A11.38,11.38,0,0,1,67,140.94l.18.59c.16.82.18,2.07.23,8.28v1c0,1.37,0,2.6,0,3.6l0,3.14.2.44a2.91,2.91,0,0,0,.62,1.24,4.5,4.5,0,0,0,2.06,1.64l.31.11a4.54,4.54,0,0,0,2.53.05l0,0a1.46,1.46,0,0,0,.39-.12,3,3,0,0,0,.78-.39,4.65,4.65,0,0,0,1.82-2.08l.34-.73h0Z"/><path class="cls-1" d="M256.68,156.08c.13-.32.24-.65.35-1l.12-.31.15-.49.06-.21c.13-.47.25-.94.34-1.42a1.16,1.16,0,0,0,0-.18c.06-.31.11-.62.16-.94s.07-.41.1-.62c.09-.72.15-2,.17-3.51,0-.4,0-.82,0-1.26v-.72c0-.11,0-.23,0-.34,0-.27,0-.53,0-.78,0-1.23-.08-2.32-.16-2.94,0-.26-.08-.51-.13-.77s0-.29-.07-.43a20.17,20.17,0,0,0-3.67-8.61q-.39-.54-.81-1.05l0,0-.27-.31,0,0-.6-.67-.18-.18-.12-.12c-.18-.19-.36-.36-.55-.54l-.3-.29-.09-.08-.32-.27-.49-.43a19.07,19.07,0,0,0-8.19-4,22.53,22.53,0,0,0-7.7-.19l-.12,0a15.19,15.19,0,0,0-2.46.61l-.38.12-.15.05-.63.24c-.26.1-.53.21-.79.33l-.52.23c-.26.12-.51.25-.76.38l-.1,0a20.88,20.88,0,0,0-10.13,12.23c-.86,2.74-1.08,4.86-1,9.53a23,23,0,0,0,.81,6.95,8,8,0,0,0,.58,1.54v0a4.25,4.25,0,0,0,1.59,1.74,3.8,3.8,0,0,0,1.22.54,4.39,4.39,0,0,0,3-.21h0a4.65,4.65,0,0,0,2.75-4.35,9.19,9.19,0,0,0-.28-1.9,18.08,18.08,0,0,1-.46-3.5v-1.15h0v-.7c0-1,0-1.71,0-2.28a16.72,16.72,0,0,1,.3-2.43,13.25,13.25,0,0,1,2.3-4.69v0l.08-.08c.38-.43.8-.86,1.21-1.25a10.71,10.71,0,0,1,6.5-2.71h.21c.4,0,.81,0,1.21,0a11,11,0,0,1,9.21,6.33c.25.54.45,1,.61,1.39a10.31,10.31,0,0,1,.29,1c0,.17.07.34.11.52a32.57,32.57,0,0,1,.17,4.23c0,1.42,0,2.35,0,3,0,.51-.07.95-.13,1.33a1.27,1.27,0,0,1-.06.28,11.56,11.56,0,0,1-6.17,7.93c-.39.19-.72.33-1,.46l-.39.14-.07,0a10.34,10.34,0,0,1-1.1.26,15.54,15.54,0,0,1-2.12.1,10.69,10.69,0,0,1-2.61-.2l-.59-.16a16.53,16.53,0,0,1-2-.84,5.33,5.33,0,0,0-2.09-.66,4.52,4.52,0,0,0-4.16,2.07,4,4,0,0,0-.27.49l-.07.12a2.71,2.71,0,0,0-.35,1.21,5.43,5.43,0,0,0-.06,1.23c0,.12,0,.23,0,.34a2.18,2.18,0,0,0,.24,1.06,4.38,4.38,0,0,0,.9,1.43c0,.05.1.1.15.15a.94.94,0,0,0,.1.1l.07.07.07.06.21.17a15.8,15.8,0,0,0,6.06,2.54c.63.15,1.26.27,1.85.35h0l.44,0c.42.05.85.09,1.27.1h0a23.24,23.24,0,0,0,4.89-.41,20.54,20.54,0,0,0,14.75-12.74Z"/><path class="cls-1" d="M214.83,127.5a.17.17,0,0,0,0-.07,2.52,2.52,0,0,0-.06-.48s0-.07,0-.1-.06-.29-.1-.43a4.34,4.34,0,0,0-2.29-2.86,3.66,3.66,0,0,0-.92-.37h0a4.43,4.43,0,0,0-1.7-.07l-.17,0a2.48,2.48,0,0,0-1.35.41,4.82,4.82,0,0,0-.74.5l0,0-.2.18-.11.09c-.11.11-.21.21-.3.32l-.12.13a4.32,4.32,0,0,0-.33.5l-.06,0,0,.08a.35.35,0,0,0,0,.08c-.07.13-.27.57-.55,1.21-.74,1.6-2,4.54-4.47,10.28l-5,11.63v.54a4.59,4.59,0,0,0,0,1.61,2.92,2.92,0,0,0,.31,1.2,5.17,5.17,0,0,0,.77,1.22v0h0a4.4,4.4,0,0,0,2.24,1.41h0a3.39,3.39,0,0,0,2,.07c.13,0,.25-.08.38-.12l.19-.05a4.94,4.94,0,0,0,1.94-1.26,2.71,2.71,0,0,0,.38-.53l.31-.32,2.44-5.71,2.36-5.49c2.69-6.28,5-11.69,5.08-12a4,4,0,0,0,.12-.8A4,4,0,0,0,214.83,127.5Z"/><path class="cls-1" d="M264,168.86l0-1.1c0-.27,0-.56,0-.88,0-.72,0-1.17,0-1.46a2.6,2.6,0,0,0,0-.38V165h0a.18.18,0,0,0-.11-.15.23.23,0,0,0-.24,0,.7.7,0,0,0-.3.33,6.16,6.16,0,0,0-.53,1.09l-.36.86s0,0,0,.05-.13-.11-.25-.35l-.21-.49c-.48-1.11-.57-1.29-.78-1.44l0,0,0,0c-.17-.11-.26-.09-.4.11a11,11,0,0,0-.06,3.72v.17l.08,0a.1.1,0,0,0,0,0h0a.22.22,0,0,0,.15,0,.17.17,0,0,0,.12,0,.15.15,0,0,0,.11-.08l.11,0a5.32,5.32,0,0,0,.06-1.1v-.29l0-.8.32.73c.51,1.21.8,1.3,1.26.29l.11-.24.34-.79.05.88v.16a4,4,0,0,0,.09,1.08.31.31,0,0,0,.09.12h.16a.29.29,0,0,0,.19,0s0,0,0,0Z"/><path class="cls-1" d="M123.72,141.18l-.19-.83c0-.31-.11-.62-.18-.94-.43-2-.73-2.72-1.46-3.56l-.09-.11a4,4,0,0,0-3.32-1.49,3.28,3.28,0,0,0-1.91.41s-.06,0-.1.05l-.28.17a4.46,4.46,0,0,0-1.73,1.82l-.08.13a2,2,0,0,1-.11.2,3.48,3.48,0,0,0-.38,1.92,8.13,8.13,0,0,0,.28,2,16.44,16.44,0,0,1,.45,3.23v2.14c0,.9,0,1.59,0,2.15a16.47,16.47,0,0,1-.35,2.65,11.5,11.5,0,0,1-2,4.27c-.1.12-.2.25-.31.37s-.13.14-.19.22l-.38.41a10.7,10.7,0,0,1-2.9,2.15c-.51.26-.93.45-1.33.61l-.51.17-.28.08a10.62,10.62,0,0,1-2.31.28,11.3,11.3,0,0,1-3-.21l-.14,0-.49-.14h0a8.69,8.69,0,0,1-1.09-.42,12,12,0,0,1-1.44-.73l-.1-.06-.3-.19-.22-.16a12.36,12.36,0,0,1-1.49-1.35,11.56,11.56,0,0,1-3.07-5.64l0-.12c-.06-.43-.12-1-.16-1.62s0-1.55,0-2.88a29.58,29.58,0,0,1,.17-4.25c.08-.39.16-.77.27-1.13a14.07,14.07,0,0,1,.74-1.75,11.93,11.93,0,0,1,1.54-2.41l.49-.53a11.87,11.87,0,0,1,2-1.71,10.66,10.66,0,0,1,4.23-1.57l.13,0,.33,0a11.31,11.31,0,0,1,1.66,0,16.05,16.05,0,0,1,1.63.14,12.94,12.94,0,0,1,3,1.11,5.22,5.22,0,0,0,1.41.55l.08,0h.07l.21,0a3.43,3.43,0,0,0,1.11,0l.15,0a2.84,2.84,0,0,0,1.36-.36,5.14,5.14,0,0,0,2.06-2,.35.35,0,0,0,0-.08c0-.06.08-.12.11-.19a3.05,3.05,0,0,0,.33-1.41c0-.08,0-.16,0-.23s0-.2,0-.29,0-.28,0-.42,0-.13,0-.19a3,3,0,0,0-.34-1.56,4.24,4.24,0,0,0-.74-1.06,3.84,3.84,0,0,0-.31-.36,6.9,6.9,0,0,0-1.33-.91,17.8,17.8,0,0,0-2.76-1.24,15.32,15.32,0,0,0-3.67-.93c-.27,0-.55-.06-.88-.08a23.73,23.73,0,0,0-3.78,0,9.47,9.47,0,0,0-2.38.28A19.5,19.5,0,0,0,92,126.77l-.2.14-.54.42-.18.14c-.27.22-.53.45-.79.68l-.42.38c-.2.18-.39.37-.58.57s-.35.35-.52.54-.29.33-.44.51l-.54.64-.16.21a19.23,19.23,0,0,0-3.37,6.32,18.61,18.61,0,0,0-1,4.9c0,.21,0,.44,0,.7-.05,1-.07,2-.06,3.36,0,1,0,1.84,0,2.6,0,.56,0,1,.08,1.38a18.56,18.56,0,0,0,.5,3.11,20.85,20.85,0,0,0,.71,2.28l.11.3c.17.43.35.86.54,1.28l.2.42c.22.46.46.9.71,1.33l.09.16a20.31,20.31,0,0,0,13.25,9.69l.81.15.4.08.49.08h0a2.94,2.94,0,0,0,.4,0h.27c.13,0,.27,0,.4,0h0a21.28,21.28,0,0,0,4.62-.2q.44-.06.84-.15a18.85,18.85,0,0,0,8.17-3.86l.5-.4h0l.13-.11.17-.15.26-.22c.27-.25.54-.5.8-.76l.26-.26c.25-.26.49-.52.73-.79l.28-.33a18.32,18.32,0,0,0,3-4.65c1.56-3.38,2-5.95,2-11.08a40.52,40.52,0,0,0-.19-4.61Z"/><path class="cls-1" d="M171.74,141a17.71,17.71,0,0,0-1.51-5.47v-.05a23.17,23.17,0,0,0-1.69-3.2,19.4,19.4,0,0,0-1.44-1.88l-.05-.05-.45-.52a3.45,3.45,0,0,0-.26-.28c-.16-.18-.32-.35-.49-.52l-.3-.29c-.14-.14-.28-.28-.43-.41l-.39-.35a17.67,17.67,0,0,0-1.69-1.36,20.27,20.27,0,0,0-7.32-3.19,11,11,0,0,0-2.56-.29,19.28,19.28,0,0,0-3,0,10.32,10.32,0,0,0-2.58.29l-.14,0c-.33.08-.66.16-1,.27a18.94,18.94,0,0,0-7,3.57q-.6.47-1.17,1c-.25.23-.5.48-.75.72l-.19.19c-.27.29-.54.58-.8.88l-.09.11c-.26.31-.51.62-.76.94l-.11.15a20.73,20.73,0,0,0-3.9,8.94,12.46,12.46,0,0,0-.25,2.86c-.07,1.51-.09,3.71-.09,7.33,0,4.31,0,9.36,0,12.29v2.92l.37.82a4.64,4.64,0,0,0,.38.68h0l.2.28.14.18,0,0,.29.31a4.72,4.72,0,0,0,1.44,1h0a3.16,3.16,0,0,0,.59.16h0a2.32,2.32,0,0,0,.38.06h.12a5.21,5.21,0,0,0,2.63-.4,4.56,4.56,0,0,0,1.95-1.89l0-.05.09-.14.43-.82.07-11.7c.07-10.1.1-11.82.28-12.56.05-.23.12-.46.18-.68s.06-.2.1-.3a11.93,11.93,0,0,1,4-5.8l0,0,.23-.17.42-.29.25-.16c.32-.19.65-.38,1-.54a10.24,10.24,0,0,1,1.08-.45l.12,0c.16-.06.33-.09.5-.14s.47-.14.71-.19a11.07,11.07,0,0,1,3.63-.17l.45.07c.22,0,.44.07.65.12s.58.15.86.24l.19.06c.32.11.64.24.95.38l.09,0c.28.14.55.28.82.44a3.79,3.79,0,0,1,.34.2,10.41,10.41,0,0,1,1.56,1.17l.12.1c.24.23.47.46.69.7l.12.14a12,12,0,0,1,2.68,5.32,11.65,11.65,0,0,0,.67,2.12,5,5,0,0,0,2.16,2,3,3,0,0,0,1.47.34,5.21,5.21,0,0,0,.79,0,2.94,2.94,0,0,0,1.45-.35,4.73,4.73,0,0,0,2.73-4c0-.06,0-.13,0-.19A2.77,2.77,0,0,0,171.74,141Z"/></svg>