<?xml version="1.0" encoding="utf-8"?>
<!-- Generator: Adobe Illustrator 24.0.1, SVG Export Plug-In . SVG Version: 6.00 Build 0)  -->
<svg version="1.1" id="Layer_1" xmlns="http://www.w3.org/2000/svg" xmlns:xlink="http://www.w3.org/1999/xlink" x="0px" y="0px"
	 viewBox="0 0 300 300" style="enable-background:new 0 0 300 300;" xml:space="preserve">
<style type="text/css">
	.st0{fill-rule:evenodd;clip-rule:evenodd;fill:#FFFFFF;}
</style>
<title>RCL_Light_bg</title>
<g>
	<path class="st0" d="M150.1,69.6c7.9,7.5,16.5,15.8,24,23.3l-8.7,11.3v0.8l22.8,10l15.8-10.4l-9.6-10.8V93
		c9.9-6.7,18.2-13.3,27.3-19.6l-4.5,47H82.8l-4.5-47c9.5,6.2,17.8,12.9,27.3,19.6v0.8l-9.5,10.8l15.8,10.4l23.2-10v-0.8l-8.7-11.3
		c7.4-7.5,15.8-15.8,23.6-23.3H150.1z"/>
	<path class="st0" d="M216.3,128.8l-1.7,15.8h-49.6v54.1h24.4c5.4,0,11.2-5.8,9.9-9.6c-1.2-5.4-6.2-9.2-10.8-11.6
		c0.8,0,17.4-12.5,25.2-17.9c-0.4,3.7-5.8,47.9-5.8,48.7l-57.5,22.1h-0.8l-57.5-22.1c0-0.8-5.8-45-6.2-48.7
		c7.9,5.4,24.4,17.9,25.2,17.9c-4.5,2.5-9.1,6.2-10.3,11.6c-1.2,3.8,4.1,9.6,9.9,9.6h24v-54.1H85.1l-1.2-15.8H216.3z"/>
</g>
</svg>
