<svg id="Layer_1" data-name="Layer 1" xmlns="http://www.w3.org/2000/svg" viewBox="0 0 300 300"><title>REG_Mark_Dark</title><path d="M33.19965,138.62124v4.9223H18.19173v-4.9223h4.2456V100.04h-4.2456V95.127H38.96551c13.28372,0,16.9824,6.61869,16.9824,13.33007,0,5.56193-2.8922,10.86429-9.789,12.18061,4.03239.73232,4.95011,2.4936,6.4889,6.31278l3.52255,11.67077H60.4716v4.9223H51.06269l-4.88522-15.48995c-2.16915-4.63494-5.43215-5.358-10.86429-5.358H28.89843v15.92564h4.30122m-4.26414-20.83867h7.48078c8.34289,0,12.82023-3.08686,12.82023-8.65805,0-6.23863-4.44953-9.07521-12.82023-9.07521H28.89843Z" fill="#fff"/><path d="M93.528,133.11493c-1.5388,7.4159-7.0451,11.3-16.14811,11.3-10.56765,0-16.88043-6.82262-16.88043-17.61275,0-10.49349,6.75773-17.61275,17.02875-17.61275,10.79013,0,16.95459,6.82263,16.95459,19.08666H66.81219c.22248,7.40663,4.3383,11.69858,10.79013,11.69858,5.72878,0,9.47381-2.64191,10.35445-6.906h5.56192m-5.358-9.26987c-.927-6.74847-4.63493-10.271-10.64181-10.271s-10.0578,3.708-10.56765,10.271Z" fill="#fff"/><path d="M170.39371,133.11493c-1.5388,7.4159-7.0451,11.3-16.14811,11.3-10.56764,0-16.88044-6.82262-16.88044-17.61275,0-10.49349,6.74847-17.61275,17.02875-17.61275,10.79013,0,16.9546,6.82263,16.9546,19.08666h-27.652c.22248,7.4159,4.329,11.74492,10.79012,11.74492,5.71025-.04634,9.46455-2.65118,10.34518-6.90605h5.56192m-5.358-9.26986c-.88064-6.74847-4.63494-10.271-10.64181-10.271s-10.05781,3.70795-10.56764,10.271Z" fill="#fff"/><path d="M173.57327,139.32575h3.30935V114.6679h-3.29081v-4.40319h9.01958v5.79367c2.07646-4.94084,6.67431-6.67431,11.5966-6.67431,8.12042,0,13.2652,3.88408,13.2652,12.05083v17.89085h2.9849v4.40319h-11.8747v-4.40319h2.92V121.4349c0-5.06135-3.93969-7.6291-8.78783-7.6291-5.79367,0-9.90949,3.95823-9.90949,10.56765v14.9523h3.18883v4.40319H173.57328v-4.40319" fill="#fff"/><path d="M114.22758,144.05338c-9.64994,0-15.9998-6.8597-15.9998-17.39954,0-10.64181,6.23863-17.47371,16.29643-17.47371,5.28383,0,9.50162,2.32674,11.68931,7.26758V110.07h9.789v4.40319h-4.0602V141.189c0,10.49349-5.358,15.4158-16.80627,15.4158-9.83533,0-14.53515-2.93855-14.98011-10.05781h5.95125c.80649,4.10655,3.4484,5.65462,8.73222,5.65462,8.14822,0,11.12384-3.161,11.12384-11.01261v-3.99531c-2.34527,4.45881-5.06135,6.89678-11.77273,6.89678m1.03823-30.12707c-6.48891-.03708-10.65108,4.69055-10.65108,12.69045,0,7.85158,4.2456,12.79242,10.855,12.79242,6.48891,0,10.28955-5.07062,10.28955-12.69972s-4.06947-12.82023-10.45641-12.82023Z" fill="#fff"/><path d="M238.518,132.30846c-.73231,4.5515-4.1807,7.33246-9.26986,7.33246-6.23862,0-10.35445-4.69982-10.35445-12.91292s4.09728-12.709,10.41006-12.76461c4.94084.08343,8.34288,2.84585,9.02886,7.32319h5.56192c-1.09384-8.11113-6.05322-12.05083-14.83179-12.10645h-.11123c-9.91876.05562-16.33351,6.85971-16.33351,17.5386,0,10.93844,6.48891,17.68691,16.50964,17.68691,8.88053,0,13.9048-3.95824,14.97083-12.10645h-5.56192" fill="#fff"/><path d="M244.015,110.07H257.753v4.40319h-3.61524l9.60359,21.469,9.548-21.469h-3.708V110.07h13.16323v4.40319h-3.43912L264.09354,148.54c-1.76127,4.18071-4.06949,7.4159-10.43787,7.4159a22.48878,22.48878,0,0,1-3.42985-.3708v-4.76471a13.90522,13.90522,0,0,0,2.86439.37079,5.56193,5.56193,0,0,0,5.36726-3.42058l2.0301-4.63494-12.97782-28.73659h-3.55036V110.07" fill="#fff"/><path d="M98.61712,193.56375c-1.5388,7.40663-7.01729,11.3-16.14811,11.3-10.56766,0-16.88044-6.82262-16.88044-17.61275,0-10.49349,6.74847-17.61275,17.02876-17.61275,10.79012,0,16.95459,6.82262,16.95459,19.07739H71.90135c.22248,7.4159,4.329,11.74492,10.79013,11.74492,5.72878,0,9.47381-2.64191,10.35444-6.89678h5.56192m-5.358-9.26987c-.927-6.74846-4.63493-10.28028-10.64181-10.28028s-10.0578,3.708-10.56765,10.28028Z" fill="#fff"/><path d="M103.24278,199.5799h3.2908V174.91278h-3.2908v-4.40319h9.01958v5.79367c2.08572-4.94084,6.68357-6.6743,11.59661-6.6743,8.14821,0,13.26518,3.88407,13.26518,12.05083V199.5799h2.9849v4.35684H128.24362V199.5799h2.92928V181.68905c0-5.07062-3.949-7.6291-8.78783-7.6291-5.79367,0-9.9095,3.95823-9.9095,10.56765v14.9523h3.22591v4.35684h-12.4587V199.5799" fill="#fff"/><path d="M205.22062,193.56375c-1.54807,7.4159-7.04511,11.3-16.14811,11.3-10.56765,0-16.88044-6.82262-16.88044-17.61275,0-10.49349,6.74846-17.61275,17.02874-17.61275,10.79013,0,16.9546,6.82262,16.9546,19.07739H178.49558c.22248,7.4159,4.329,11.74492,10.79013,11.74492,5.72877,0,9.46454-2.64191,10.34518-6.89678h5.56192m-5.358-9.26987c-.927-6.74846-4.63493-10.28028-10.6418-10.28028s-10.05781,3.708-10.56765,10.28028Z" fill="#fff"/><path d="M222.546,199.617v4.40319H208.9749V199.617h3.86554V174.95912H208.9749v-4.39391H218.597v5.56192c2.64192-4.63494,6.01615-6.48891,11.3-6.48891,3.708,0,4.57932,1.32559,4.774,1.38121v5.31164c-.65817.05561-2.08572-1.92814-5.27456-1.92814-5.39507,0-10.56764,4.774-10.56764,13.20957v12.05083h3.76356" fill="#fff"/><path d="M283.48611,198.21723a6.21081,6.21081,0,1,0-6.21082,6.21081,6.21082,6.21082,0,0,0,6.21082-6.21081h0" fill="#fff"/><path d="M252.80284,204.48365c7.74035,0,13.775-3.70794,13.775-9.98365,0-3.79137-1.854-8.81565-11.02188-10.19685-.83429-.12978-6.665-.927-7.29539-1.05677-3.022-.4913-4.98719-2.00229-4.98719-4.44027s1.854-4.46807,6.64649-4.46807c7.66619,0,9.14937,3.44839,9.94657,4.95937h4.71836v-8.7322h-4.71836v1.854c-1.58514-.80648-3.59671-2.42871-10.34518-2.42871-7.67545,0-12.18987,4.30122-12.18987,9.82606,0,3.80992,2.29892,8.15749,9.57578,9.21425l7.15632,1.066c4.431.64889,6.56306,2.11353,6.56306,4.913s-3.07761,4.876-8.76,4.876c-7.87012,0-10.19685-3.38351-10.19685-6.05323v-.51911H236.905v10.62327h4.774v-2.48433c1.46464.99188,3.70795,3.06832,11.12385,3.06832" fill="#fff"/><path d="M61.26881,188.02964c-1.066,10.83648-8.97323,16.68576-20.87574,16.68576-14.19217,0-23.87918-9.12155-23.87918-24.10166s9.67774-24.2407,23.45276-24.2407c10.57692,0,14.73909,4.913,15.75878,5.92345v-3.43913h5.07062v14.8318H55.44734c-.482-3.55963-3.263-12.10645-15.10062-12.10645-10.19686,0-16.68577,6.75773-16.68577,18.4563,0,12.6163,6.79482,18.79,17.14,18.79,6.98948,0,12.18061-2.92928,13.9048-10.80867h6.5538" fill="#fff"/><path d="M165.02646,193.56375c-.26882,3.43912-1.48318,6.89678-6.3962,6.89678-4.49589,0-6.13665-2.88293-6.13665-6.96167v-18.41h13.51547v-4.40319H152.58629V160.59083l-5.95126,2.28038V170.695h-5.154v4.40319h5.21894v18.40069c0,7.08218,4.1807,11.37413,11.99521,11.37413,9.90949,0,11.83763-6.72066,11.90251-11.3h-5.56192" fill="#fff"/></svg>