<svg id="Layer_1" data-name="Layer 1" xmlns="http://www.w3.org/2000/svg" viewBox="0 0 300 300"><defs><style>.cls-1{fill:#fff;}.cls-2{fill:#a71e28;}</style></defs><path id="path9863" class="cls-1" d="M37.63,228.81H262.37V71.19H37.63Z"/><path id="path9875" class="cls-2" d="M125.69,130.72a51.8,51.8,0,0,0-6.6-.4c-12,0-18.07,7-18.07,20.81v42.65H72.66V106.25H100.5v8c5-5.68,12.58-10.39,22-10.39,1.21,0,2.22,0,3.17.09Zm42.73-59.53v43.09c5.86-7.08,14.79-10.61,23.63-10.61,23.07,0,35.3,13.57,35.3,40.23v49.88H199v-48.5c0-7.3-3.66-16-14.32-16-9.52,0-16.24,6.7-16.24,18.4v46.09H140.06V71.19H37.63V228.81H262.37V71.19Z"/></svg>