<svg id="Layer_1" data-name="Layer 1" xmlns="http://www.w3.org/2000/svg" viewBox="0 0 300 300"><defs><style>.cls-1{fill:#fff;}</style></defs><title>RJF_Dark_bg</title><path class="cls-1" d="M156.11,122.35c0-3.87-.09-6.14,4.41-6V114.7c-2.17,0-4,.15-5.89.2-1.73-.05-3.52-.15-5.3-.2l-8.42,21.8-9.17-21.8H111.63v1.67c1.63,0,3.42.29,3.42,2.33,0,1.22-1.19,3.36-1.79,4.5l-4.5,7.54-4.65-8.48c-.5-.84-1.69-2.93-1.69-3.87,0-1.78,2.28-1.93,3.52-2V114.7c-2.68,0-5.3.15-8,.2-2.33-.05-4.7-.15-7-.2v1.66c2.41.54,2.67,1.09,3.91,3.17l8.07,14.36v4.05c-.06,4,.1,5.9-4.32,5.9h-.93a6.22,6.22,0,0,1-3.08-1.09,16.39,16.39,0,0,1-2.37-4.5l-9.61-24H80.37l-9.28,22.25c-.75,1.74-1.53,4.07-2.87,5.65-.8.93-1.44.39-1.84,0a40.16,40.16,0,0,1-3-4L57,130.21c3.82-.6,7.33-3.23,7.33-7.39a7.09,7.09,0,0,0-4.6-7c-2.07-.89-5.5-1-7.73-1.14-2.56,0-5,.15-7.57.2s-5.25-.15-7.93-.2v1.68c4.51-.15,4.41,2.08,4.41,5.9V138c0,3.86.05,6-4.41,5.89v1.68h16v-1.65C48,144.08,48,141.85,48,138v-6.14c.26,0,.5,0,.75,0,1.29-.09,3.33,2.29,4.86,4.41l6.63,9.41H75.89V144c-1.74-.15-3.87-.31-3.87-2.58a12.83,12.83,0,0,1,1.14-3.91l.57-1.37H84.06l1,2.68a11.42,11.42,0,0,1,.9,3.08c0,2-2.48,1.88-3.87,2.08v1.64H114.6v-1.66c-4.65.15-4.55-1.89-4.55-5.89v-5L118,119.71c.88-1.59,1.58-2.87,3.36-3.12l0,0a4,4,0,0,1,3.87,1.89V137a22.64,22.64,0,0,1-.35,4.5c-.44,1.94-2.22,2.13-4,2.43v1.68H132v-1.65c-1.44-.16-3-.5-3.77-1.89s-.7-4.3-.7-5.79V121.93h.1l9.74,23.65h2.23l9.31-23.3H149V137a21.91,21.91,0,0,1-.34,4.5c-.44,1.94-2.23,2.13-4,2.43v1.68h15.81V144c-1.78-.3-3.52-.44-4-2.43a19.39,19.39,0,0,1-.34-4.5ZM49.8,129.71H48v-8a43.62,43.62,0,0,1,.15-4.36c.14-.55,1.74-.5,2.23-.5,4.44,0,6.19,2.25,6.19,6.52C56.59,128,54.31,129.71,49.8,129.71Zm24.84,4.06L79,123l4.11,10.75Z"/><path class="cls-1" d="M178.56,114.32c-9.41,0-17.39,5.91-17.39,15.91,0,9.83,7.77,15.9,17.23,15.91s17.49-6,17.49-15.91S188,114.32,178.56,114.32ZM178.42,144c-7.54,0-9.17-8.08-9.17-14.07s1.68-13.52,9.17-13.48c7.77,0,9.4,7.82,9.4,14.07C187.82,137,186.09,144,178.42,144Z"/><path class="cls-1" d="M258.2,118.66c-3.57-3-7.83-3.91-12.38-3.91H219.36v1.68c4.47.16,4.47,3.57,4.47,7.14V136L205.4,114.75c-1.78,0-3.51.15-5.3.2-1.49,0-3-.15-4.46-.2v1.67c2.57.25,3.16,1.09,4.65,3.18v18.7c0,3.32-.29,5.21-4.16,5.6v1.68h11v-1.65c-4.51-.21-4.51-3.82-4.51-7.39V122.12l21.21,24.15h2.28V123.82c0-5.76-.05-7.34,4.16-7.39h1.41c4.52,0,4.42,2.13,4.42,5.85v15.8c0,3.86.09,6-4.42,5.9v1.68s12.59,0,15.07,0c4.36.15,8.87-.6,12.19-3.57A14.53,14.53,0,0,0,263.5,131,15.53,15.53,0,0,0,258.2,118.66Zm-11.67,24.81a3.68,3.68,0,0,1-3.77-2.28c-.44-1.23-.44-4.5-.44-5.89h-.1V118.44a2.19,2.19,0,0,1,.2-1.13,3.63,3.63,0,0,1,1.88-.45c3.37,0,6.59.89,8.27,4.06a22.32,22.32,0,0,1,1.89,9.72C254.46,136.29,253.76,143.47,246.53,143.47Z"/><path class="cls-1" d="M88.28,173.67a1.93,1.93,0,0,0-.59.34c-.73.58-1.41,2.91-1,5.34a5.21,5.21,0,0,0,5.77,4.27c4.61-.63,3.79-4.07,3.79-13.83v-8.1c0-3.79-.15-6-4.61-5.87v-1.65c2.28.05,4.91.15,7.24.2,2.86-.05,6.12-.15,9-.2v1.62c-3.79.1-4.32.73-4.32,5.87v11c0,7.57-2,11.55-9.22,12.82-5.29.91-12.43-.25-14.41-5.49-1-2.58-.58-5.4-.58-6.56l6.75-1.31L88,171.8l.33,1.85"/><path class="cls-1" d="M211.19,165.13c-2.57-1.21-6.07-2.14-6.07-5.58,0-2.48,2.28-3.75,4.51-3.75,4,0,6.62,3.09,7.45,6.63h2l-.29-8.25h-2l-.58,1.8a9.78,9.78,0,0,0-6.84-2.23c-5.29,0-9.62,3-9.62,8.63,0,5.05,3.35,7.33,7.48,9.12,3.2,1.36,7.62,2.52,7.62,6.8,0,2.81-2.58,4.56-5.25,4.56-5.05,0-7.18-3.83-8.45-8h-1.79a4,4,0,0,1-.27.76c-1.16,5-3,6.6-7.86,6.7h-2.28c-5.44,0-5.3-2.71-5.3-7V170c4.22,0,5.38.68,6.26,4.91h1.85c-.05-1.89-.15-3.78-.2-5.68,0-2.08.15-4.22.2-6.31H189.9c-.18,4.23-2.56,4.91-6.26,4.91v-8.5a14.62,14.62,0,0,1,.15-2.63c.25-.48,3.21-.48,3.75-.48,4.37,0,7,1.46,7.77,6h2l-.38-8H160.16l-8.25,21.36-9-21.36c-1.93,0-3.78.15-5.72.2-1.65,0-3.35-.15-5-.2v1.63c1.65.15,3.45.45,4.28,2.05V176a21.85,21.85,0,0,1-.33,4.41,2.63,2.63,0,0,1-1.75,1.94,1.58,1.58,0,0,1-1.17,0,3.26,3.26,0,0,1-1.11-.68c-.92-.87-1.85-3.2-2.33-4.41l-9.42-23.55h-2.18l-9.08,21.8c-.49,1.27-1,2.53-1.65,3.79-.87,1.65-2,3.16-3.83,3.5v1.6h10.2v-1.65c-1.71-.15-3.79-.3-3.79-2.53a14.26,14.26,0,0,1,1.11-3.83l.53-1.31h10.1l1,2.63a10.91,10.91,0,0,1,.88,3c0,1.94-2.43,1.84-3.79,2v1.65h23.37v-1.65c-1.36-.15-2.91-.48-3.64-1.85s-.69-4.21-.69-5.67v-14h.1l9.62,23.21h2.18l9.15-22.84h.1V176a22.61,22.61,0,0,1-.34,4.41c-.43,1.89-2.18,2.08-3.93,2.38v1.64h45.63l.66-2.62a10.93,10.93,0,0,0,7.95,3.11c5.59,0,10.71-3.31,10.71-9.42S216.1,167.22,211.19,165.13Zm-98.59,7.73,4.33-10.54,4,10.54Zm64.13-11.27,0,15.44c0,2.91,0,4.91-2.05,5.54a7.24,7.24,0,0,1-1.85.2h-2a8.57,8.57,0,0,1-1.9-.2c-2.09-.63-2-2.58-2-5.54V161.59c0-2.91,0-4.91,2-5.54a7.24,7.24,0,0,1,1.85-.2h2a9.29,9.29,0,0,1,1.9.2C176.78,156.68,176.73,158.63,176.73,161.59Z"/></svg>