<svg id="Layer_1" data-name="Layer 1" xmlns="http://www.w3.org/2000/svg" viewBox="0 0 300 300"><path d="M19.86556,149.34354V141.157h2.54863c3.08924,0,4.17048,2.008,4.17048,3.93878,0,2.62586-1.62186,4.325-5.02,4.325H19.86556Zm3.70709.46338c4.17048-.30892,6.333-2.08524,6.333-4.63386,0-2.39417-1.62186-4.55664-6.56465-4.55664H15v.61785h1.77632V158.843H15v.61785h6.9508V158.843H19.86556v-8.95881h.07723l7.25973,9.49943h4.63386v-.61785H30.44622ZM42.57151,151.506l2.85755-7.95481h.07723l2.78032,7.95481Zm4.94279-10.96682H45.66075L39.09611,158.843H37.397v.61784h5.25172V158.843H39.86842l2.4714-6.95081h6.10126l2.39416,6.95081H48.75v.61784H55.083V158.843H53.92449Zm24.09611,18.22654H67.3627V141.23427h2.85755v-.61785H62.49714v.61785h1.77631V158.843H62.49714v.61785h13.9016v-7.56865h-.61785c-1.69908,6.56465-2.2397,6.87357-4.17048,6.87357M90.30034,141.466h2.93479c3.012,0,4.24771,1.69909,4.24771,4.32494,0,3.32094-1.39016,4.09325-4.47941,4.09325H90.30034Zm2.70309,17.377H90.30034v-8.57265h3.4754c4.7111,0,6.9508-1.93078,6.9508-4.7111s-2.47139-4.94279-6.9508-4.94279H85.512v.61785h1.77632v17.53146H85.512v.61785H92.9262V158.843Zm32.82323.61785v-.69508h-1.77632v-17.377h1.77632v-.77231h-6.71911v.77231h1.77632v8.032h-7.49142v-8.032H115.246v-.77231h-6.71911v.77231H110.226v17.377h-1.69908v.69508H115.246v-.69508h-1.85355v-8.80434h7.49142v8.80434h-1.77632v.69508Zm39.92848-7.64588h-.61785c-1.77632,6.56465-2.31693,6.9508-4.17047,6.9508h-4.24771V141.23427h2.85754v-.61785h-7.72311v.61785h1.77632V158.843h-1.77632v.61785h13.9016v-7.64588m12.04806-.30892,2.85755-7.95481h.07724l2.78032,7.95481Zm5.02-10.96682h-1.85355L174.3278,158.843h-1.62186v.61784h5.25172V158.843h-2.78032l2.47139-6.95081H183.75l2.39416,6.95081h-2.08523v.61784h6.333V158.843h-1.08123Zm25.33181.61785h2.54862v13.43821c0,2.85755-1.93077,4.55664-4.7111,4.55664-1.85354,0-3.78432-1.08124-3.78432-4.40218V141.157h2.008v-.77231h-6.87357v.61785H199.119v13.05205c0,3.7071,2.08524,5.56064,6.79634,5.56064,3.39816,0,5.63787-2.008,5.63787-5.09725V141.157h1.77631v-.77231h-5.17448Zm17.91762,8.1865V141.157h2.54862c3.08925,0,4.17048,2.008,4.17048,3.93878,0,2.62586-1.62186,4.325-5.02,4.325h-1.6991Zm3.78433.46338c4.17047-.30892,6.333-2.08524,6.333-4.63386,0-2.39417-1.62186-4.55664-6.56465-4.55664h-8.341v.61785h1.77631V158.843h-1.77631v.61785h6.9508V158.843h-2.2397v-8.95881h.07724l7.25972,9.49943h4.63387v-.61785h-1.313Zm24.86843,8.95881h-5.02v-8.88158h2.2397c1.46739,0,2.08525.84955,2.70309,3.7071h.61784V145.482h-.61784c-.54063,2.93478-1.31294,3.70709-2.70309,3.70709h-2.2397v-8.032h5.7151c1.39015,0,1.85354.38615,3.39817,5.40618h.61783v-5.9468H244.83982v.61785h1.7763V158.843h-1.7763v.61785h14.90559v-7.028h-.69507c-1.6991,5.56064-2.31693,6.33295-4.325,6.33295m27.64873-17.377V154.2091h-.07723l-8.4954-13.59268h-5.48342v.77231h1.93078v17.377h-1.93078v.69508h5.09726v-.69508h-2.39417V141.85212l11.19851,17.60869h.84955V141.38873H285v-.77231h-4.94279v.77231Z" fill="#fff"/></svg>