<svg id="Layer_1" data-name="Layer 1" xmlns="http://www.w3.org/2000/svg" viewBox="0 0 300 300"><defs><style>.cls-1{fill:#e51e25;}.cls-2{fill:#de1f2b;}.cls-3{fill:#d81f33;}.cls-4{fill:#d11f38;}.cls-5{fill:#c81f3f;}.cls-6{fill:#c11f46;}.cls-7{fill:#b81e4b;}.cls-8{fill:#b01e56;}.cls-9{fill:#a61f61;}.cls-10{fill:#9d216b;}.cls-11{fill:#922475;}.cls-12{fill:#238fcf;}.cls-13{fill:#1f85c7;}.cls-14{fill:#197bc0;}.cls-15{fill:#1370b8;}.cls-16{fill:#0f64b0;}.cls-17{fill:#1458a6;}.cls-18{fill:#3b4c9d;}.cls-19{fill:#503b93;}.cls-20{fill:#5f2d89;}.cls-21{fill:#6a2a82;}.cls-22{fill:#7e287c;}</style></defs><path class="cls-1" d="M276.66,167a8.38,8.38,0,1,0-8,8.76,8.39,8.39,0,0,0,8-8.76"/><path class="cls-2" d="M262.27,182.28a7.55,7.55,0,1,0-7.18,7.87,7.58,7.58,0,0,0,7.18-7.87"/><path class="cls-3" d="M246.48,193.58a6.78,6.78,0,0,0-13.55.66,6.78,6.78,0,1,0,13.55-.66"/><path class="cls-4" d="M229.7,200a6.12,6.12,0,1,0-5.82,6.4,6.11,6.11,0,0,0,5.82-6.4"/><path class="cls-5" d="M213.06,201.09a5.49,5.49,0,1,0-5.23,5.74,5.48,5.48,0,0,0,5.23-5.74"/><path class="cls-6" d="M198.3,196.71a5,5,0,1,0-9.9.47,5,5,0,0,0,9.9-.47"/><path class="cls-7" d="M186.38,188.87a4.46,4.46,0,1,0-4.24,4.67,4.46,4.46,0,0,0,4.24-4.67"/><path class="cls-8" d="M177.07,179.48a4,4,0,1,0-3.83,4.2,4.06,4.06,0,0,0,3.83-4.2"/><path class="cls-9" d="M169.67,169.58a3.61,3.61,0,1,0-3.46,3.79,3.59,3.59,0,0,0,3.46-3.79"/><path class="cls-10" d="M163.89,159.68a3.24,3.24,0,1,0-3.09,3.39,3.24,3.24,0,0,0,3.09-3.39"/><path class="cls-11" d="M159.4,150a2.95,2.95,0,1,0-3,2.94,3,3,0,0,0,3-2.94"/><path class="cls-12" d="M23.33,151.55a9.41,9.41,0,1,0,9.39-9.43,9.41,9.41,0,0,0-9.39,9.43"/><path class="cls-13" d="M36.21,133.11a8.38,8.38,0,1,0,8-8.76,8.39,8.39,0,0,0-8,8.76"/><path class="cls-14" d="M50.6,117.76a7.55,7.55,0,1,0,7.18-7.91,7.58,7.58,0,0,0-7.18,7.91"/><path class="cls-15" d="M66.39,106.46a6.78,6.78,0,1,0,6.44-7.14,6.88,6.88,0,0,0-6.44,7.14"/><path class="cls-16" d="M83.21,100.06A6.12,6.12,0,1,0,89,93.65a6.13,6.13,0,0,0-5.82,6.41"/><path class="cls-17" d="M99.81,99A5.49,5.49,0,1,0,105,93.17,5.51,5.51,0,0,0,99.81,99"/><path class="cls-18" d="M114.57,103.33a5,5,0,1,0,4.71-5.19,5,5,0,0,0-4.71,5.19"/><path class="cls-19" d="M126.5,111.17a4.46,4.46,0,1,0,4.23-4.67,4.44,4.44,0,0,0-4.23,4.67"/><path class="cls-20" d="M135.84,120.56a4,4,0,1,0,3.83-4.2,4,4,0,0,0-3.83,4.2"/><path class="cls-21" d="M143.2,130.46a3.61,3.61,0,1,0,3.43-3.79,3.61,3.61,0,0,0-3.43,3.79"/><path class="cls-22" d="M149,140.36a3.24,3.24,0,1,0,3.09-3.39,3.2,3.2,0,0,0-3.09,3.39"/></svg>