<svg id="Layer_1" data-name="Layer 1" xmlns="http://www.w3.org/2000/svg" viewBox="0 0 300 300"><path d="M100.44054,106.27619l92.03485-68.16965a1.70072,1.70072,0,0,0-.98713-3.07751h-75.486a33.01519,33.01519,0,0,0-23.28452,9.639L44.639,92.68872A33.15064,33.15064,0,0,0,35,116.03131v67.93738a33.15066,33.15066,0,0,0,9.639,23.3426L92.65968,255.332a33.253,33.253,0,0,0,23.34259,9.639h65.32441a1.70122,1.70122,0,0,0,.69679-3.25171L52.24565,200.51755a15.52016,15.52016,0,0,1-8.88412-13.994V153.94849a10.78032,10.78032,0,0,1,4.355-8.65185l18.6973-13.87781v-25.2007h34.02675Z" fill="#fff"/><polygon points="189.92 132.522 181.036 156.678 198.398 156.678 189.92 132.522" fill="#fff"/><path d="M115.24741,133.50922c0-7.7228-5.284-8.826-10.85837-8.826H93.18227v18.23276h10.80031c5.69048-.05807,11.26483-.81293,11.26483-9.40671Z" fill="#fff"/><path d="M256.58041,94.02424,211.86948,49.31331a7.381,7.381,0,0,0-9.40672-.81293l-86.054,57.95c16.31659,1.04519,26.18783,7.60667,26.18783,22.70387,0,13.123-7.08407,21.31027-19.10376,22.76192v.23227a18.89237,18.89237,0,0,1,12.01969,7.08406,10.4227,10.4227,0,0,1,1.97425,4.1227l6.79373,20.61348,29.26534-73.27947a6.81548,6.81548,0,0,1,6.27114-4.23883h25.7233l34.201,85.58949H218.60514a11.25949,11.25949,0,0,1-10.10351-6.79374h0l-3.30978-9.34865H174.12647l-6.03888,16.14238H121.69275a5.05353,5.05353,0,0,1-4.9937-4.355l-7.72279-22.41354c-1.0452-3.83237-4.87756-4.47109-8.65186-4.47109H92.83388V191.9818H66.41378V140.07067l-15.794,10.6261a5.21538,5.21538,0,0,0-2.26458,4.355v33.03964a5.2903,5.2903,0,0,0,3.19364,4.87755l148.93966,62.363a7.39251,7.39251,0,0,0,8.12926-1.50972l47.96264-47.78843A28.51062,28.51062,0,0,0,265,185.76875v-71.5375a28.37676,28.37676,0,0,0-8.41959-20.207Z" fill="#fff"/></svg>