<svg id="Layer_1" data-name="Layer 1" xmlns="http://www.w3.org/2000/svg" viewBox="0 0 300 300"><path d="M148.32134,86.39578,25,150v.448l123.32134,63.15625L275,150Z" fill="#cd0e2d"/><path d="M149.66477,195.6848a1.97029,1.97029,0,0,0,1.79091-2.0154c0-1.56639-.89794-2.01537-2.68885-2.01537h-2.90834v7.393h1.12243v-3.13779h1.34192l2.0154,3.13779h1.34193Zm-2.46435-.893V192.552h1.57141c.89294,0,1.56641.22449,1.56641,1.11744,0,1.12242-.89793,1.12242-1.7909,1.12242Z" fill="#fff"/><path d="M149.66477,195.6848a1.97029,1.97029,0,0,0,1.79091-2.0154c0-1.56639-.89794-2.01537-2.68885-2.01537h-2.90834v7.393h1.12243v-3.13779h1.34192l2.0154,3.13779h1.34193Zm-2.46435-.893V192.552h1.57141c.89294,0,1.56641.22449,1.56641,1.11744,0,1.12242-.89793,1.12242-1.7909,1.12242Z" fill="#fff"/><path d="M148.54734,188.74568a6.49511,6.49511,0,1,0,6.49013,6.49513A6.35534,6.35534,0,0,0,148.54734,188.74568Zm0,11.86779a5.38016,5.38016,0,1,1,5.1482-5.37266A5.12037,5.12037,0,0,1,148.54734,200.61347Z" fill="#fff"/><path d="M149.66477,195.6848a1.97029,1.97029,0,0,0,1.79091-2.0154c0-1.56639-.89794-2.01537-2.68885-2.01537h-2.90834v7.393h1.12243v-3.13779h1.34192l2.0154,3.13779h1.34193Zm-2.46435-.893V192.552h1.57141c.89294,0,1.56641.22449,1.56641,1.11744,0,1.12242-.89793,1.12242-1.7909,1.12242Z" fill="#fff"/><path d="M219.71821,145.52027c-4.02876-.224-3.35731-4.70322-.44747-5.37518,4.69972-1.34342,9.62393,3.13531,9.62393,3.13531l5.59518-2.68734s-2.68584-6.27073-12.30978-6.94264c-5.81917-.44792-12.98125,4.03131-12.75726,10.078.224,10.07839,11.41434,8.06251,16.11457,9.63042s1.79039,6.7186-2.68585,6.27063c-6.49061-.448-8.281-4.92671-8.281-4.92671l-5.59518,3.13532s2.68585,7.39056,13.65272,7.61455c8.7285.224,12.30928-5.1512,12.75726-8.51049,1.11894-10.30189-7.38607-10.74986-15.6671-11.42182Z" fill="#fff"/><path d="M110.05058,133.87645c-8.05655,0-14.77114,7.16357-14.77114,16.12305s6.49013,16.123,14.77114,16.123c8.05655,0,14.77114-7.16358,14.77114-16.123S118.33159,133.87645,110.05058,133.87645Zm0,25.751c-4.03077,0-7.38807-4.25523-7.38807-9.62792s3.3573-9.62793,7.38807-9.62793c4.02578,0,7.38307,4.25523,7.38307,9.62793S114.30085,159.62742,110.05058,159.62742Z" fill="#fff"/><path d="M87.66688,153.80578S93.264,149.775,93.264,143.95336c0-6.94408-8.05652-9.40843-8.05652-9.40843H69.314v30.46018h6.4901l-.2195-10.07691,5.14321-.22449,5.59719,10.3014,7.832.22449Zm-3.80627-4.92372a28.70846,28.70846,0,0,1-7.38308.2195l-.22449-8.51049h7.16358C87.89138,143.95336,85.876,146.86669,83.86061,148.88206Z" fill="#fff"/><polygon points="155.707 134.77 148.545 134.77 148.545 164.781 166.227 164.781 166.227 158.958 155.707 158.958 155.707 134.77" fill="#fff"/><rect x="168.46468" y="134.77021" width="7.38607" height="29.78643" fill="#fff"/><polygon points="146.083 158.958 135.564 158.958 135.564 134.77 128.402 134.77 128.402 164.781 146.083 164.781 146.083 158.958" fill="#fff"/><polygon points="199.351 150 198.456 150 188.161 134.77 181.222 134.77 181.222 164.781 188.385 164.781 188.385 148.432 189.503 148.432 199.351 164.557 205.618 164.557 205.618 134.77 199.351 134.77 199.351 150" fill="#fff"/></svg>