<svg id="Layer_1" data-name="Layer 1" xmlns="http://www.w3.org/2000/svg" viewBox="0 0 300 300"><defs><style>.cls-1{fill:#fff;}</style></defs><title>ROP_Dark_bg</title><path class="cls-1" d="M58.84,206.53h-2.7c-.49-.07-1-.13-1.47-.21a25.66,25.66,0,0,1-17.22-10.6A21.31,21.31,0,0,1,33.67,183c0-.66-.11-1.33-.17-2V167.39a8.66,8.66,0,0,0,.12-.87c0-1.73,0-3.45.05-5.17,0-5.82.09-11.64.1-17.46,0-6.34-.05-12.69-.07-19,0-1.68,0-3.35,0-5,0-.89-.1-1.78-.16-2.68V116c.08-.58.15-1.17.24-1.76a23.14,23.14,0,0,1,4.46-10.64c4.23-5.68,9.6-9.43,16.93-9.77.89-.05,1.77-.21,2.66-.32h108.1a9.44,9.44,0,0,0,1.18.12q37.62,0,75.25,0a29,29,0,0,1,5.34.51,23.59,23.59,0,0,1,18.2,17.94c.27,1.29.43,2.59.64,3.89V153.9a5.52,5.52,0,0,0-.12.8q0,7.37,0,14.74a5.52,5.52,0,0,0,.12.8v14.1a3.57,3.57,0,0,0-.16.72,21.66,21.66,0,0,1-4.47,11.63c-4.84,6.39-11.16,9.79-19.28,9.65-2.85-.06-5.7,0-8.55,0q-63.14,0-126.29-.08c-10.59,0-21.18,0-31.77.07-5.42,0-10.85,0-16.27.08A5.2,5.2,0,0,0,58.84,206.53Zm145.63-78.22a7.88,7.88,0,0,1,1-.15c6.72,0,13.45,0,20.17,0a10.58,10.58,0,0,1,7.14,2.67c3.5,3.13,4.08,7.18,3.24,11.52-.63,3.28-2.78,5.5-5.6,7.14l-1.53.91c2.52,4.44,5,8.77,7.49,13.17a4,4,0,0,1-.53.08c-3.07,0-6.14-.07-9.22,0a2.53,2.53,0,0,1-2.45-1.47c-2.33-4-4.7-8-7.06-12-1-1.71-.94-1.91.78-2.87,2.35-1.32,4.69-2.66,7-4a2.55,2.55,0,0,0,1.54-2.06,2.49,2.49,0,0,0-2.64-2.84l-7.41-.12c-1.34,0-1.93.5-2.05,1.84-.06.77,0,1.54,0,2.32v21.44c-3,0-5.8,0-8.65,0a1.13,1.13,0,0,1-.86-.48,4.18,4.18,0,0,1-.49-1.67c-.07-2.52-.07-5.05-.1-7.57,0-.32-.06-.65-.09-1l-.18-.09c-4,7.32-9.88,11.44-18.47,10.81-8.75-.65-13.47-6.1-16.31-14.08-2,5.77-5,10.37-10.69,12.69s-11,1.76-16.38-.85v32.59h1.08q49.4,0,98.8,0a35.79,35.79,0,0,0,3.59-.14,8.48,8.48,0,0,0,7.34-6.44,28.09,28.09,0,0,0,.32-5.51q0-33.81,0-67.62a7.76,7.76,0,0,0-1.22-4.25c-2.05-3.24-5.05-4.52-8.81-4.52q-36.24,0-72.49,0l-43.33,0q-36,0-72,0a8.78,8.78,0,0,0-8.73,8.81v71.14a8.69,8.69,0,0,0,8.41,8.45l24.66.07,24.44.05,25.26,0c1.7,0,2.19-.49,2.19-2.18q0-6.6,0-13.2,0-13.15,0-26.31a15.64,15.64,0,0,0-.2-1.78h-.22c-.39.9-.76,1.81-1.19,2.7-2.23,4.51-5.4,8.05-10.35,9.59a20.26,20.26,0,0,1-12.3-.2,15.24,15.24,0,0,1-8.43-6.48,22.58,22.58,0,0,1-3-7.38c-.17-.75-.32-1.5-.5-2.36l-5.35,3.85,7.61,13.4h-1c-2.78,0-5.55-.08-8.32,0a2.83,2.83,0,0,1-2.8-1.56q-4-6.8-8.1-13.56a3,3,0,0,1-.17-.48L78,148c2.58-1.53,5.17-3,7.73-4.58A5,5,0,0,0,87.16,142c1.18-1.73.32-3.53-1.77-3.6-2.69-.1-5.39-.08-8.08-.05-1.19,0-1.64.55-1.71,1.73,0,.22,0,.45,0,.67,0,3.3.06,6.6.06,9.9q0,6.21,0,12.44c0,.24,0,.48,0,.75-.23,0-.4,0-.57,0-2.62,0-5.24,0-7.87,0-1.21,0-1.63-.47-1.63-1.8q0-16.15,0-32.3c0-1.36.34-1.7,1.67-1.7,2.75,0,5.5,0,8.25,0,4.22,0,8.44,0,12.66.18a9,9,0,0,1,6.61,3.06,14.81,14.81,0,0,1,2.67,4.9,6.2,6.2,0,0,0,.59.92,2.81,2.81,0,0,0,.27-.21l.42-.62c3.46-5.08,8.11-8.08,14.39-8.28a17.49,17.49,0,0,1,12.67,4.2,24.34,24.34,0,0,1,5.55,7.56c.15.29.32.58.48.86l.2-.06v-12.2h7.67c1.95,0,2.05,0,2.73,1.84,5.26-2.5,10.64-3.16,16.12-.84s8.7,6.81,10.86,12.36c.18-.41.31-.67.41-.94a21.79,21.79,0,0,1,5.11-8.1c3.7-3.55,8.24-4.8,13.25-4.67a16.34,16.34,0,0,1,11.09,4.55,24,24,0,0,1,4.43,5.82c.13.23.28.45.5.82a4,4,0,0,0,.4-.7,2.5,2.5,0,0,0,0-.67Zm-90.58,8.91a9.09,9.09,0,0,0-8.84,9c0,4.41,4.17,8.59,8.68,8.65a9,9,0,0,0,8.8-8.8A8.79,8.79,0,0,0,113.89,137.22Zm37.43,0a8.81,8.81,0,0,0,.21,17.61c4.35,0,8.63-4.21,8.63-8.53A9,9,0,0,0,151.32,137.22Zm28.39,13c1.86,3.81,7.41,6.36,11.63,3.2a10,10,0,0,1,6.34-2.07c1.68,0,3.35.05,5,.07,1.2,0,1.63-.43,1.63-1.62q0-3.72,0-7.42c0-1.24-.41-1.66-1.66-1.66-1.45,0-2.9,0-4.35.05a10.81,10.81,0,0,1-5.89-1.39c-.82-.46-1.68-.88-2.51-1.32a7.13,7.13,0,0,0-8.42,1.36,4.86,4.86,0,0,0-1.56,2.69h15.12v8.11Z"/></svg>