<svg id="Layer_1" data-name="Layer 1" xmlns="http://www.w3.org/2000/svg" viewBox="0 0 300 300"><defs><style>.cls-1{fill:#fff;}</style></defs><title>ROST_Dark_bg</title><path id="path2195" class="cls-1" d="M248.46,174.84a1.72,1.72,0,0,0-.57-.07h-.24v1.08H248a.88.88,0,0,0,.53-.14.55.55,0,0,0,.2-.45.45.45,0,0,0-.3-.42m-1.78,3v-3.72h1.8a1.7,1.7,0,0,1,.73.19.93.93,0,0,1,.51.89.81.81,0,0,1-.27.67,1.14,1.14,0,0,1-.64.25,1.34,1.34,0,0,1,.52.21,1,1,0,0,1,.32.84v.34s0,.06,0,.1,0,.08,0,.12l0,.1h-.93a2.61,2.61,0,0,1-.07-.52,1.36,1.36,0,0,0-.06-.45.44.44,0,0,0-.27-.28,1.08,1.08,0,0,0-.33-.06h-.42v1.32Zm-.5-3.82a2.78,2.78,0,0,0,0,3.93,2.73,2.73,0,0,0,3.91,0,2.69,2.69,0,0,0,.81-2,2.74,2.74,0,0,0-.8-2,2.74,2.74,0,0,0-3.93,0m4.32,4.36a3.35,3.35,0,0,1-5.71-2.41,3.19,3.19,0,0,1,1.05-2.44,3.27,3.27,0,0,1,2.31-.91,3.37,3.37,0,0,1,2.35,5.76"/><path id="path2129" class="cls-1" d="M161.68,137.34a13.68,13.68,0,0,1,5-26.42l24.57,0a5.48,5.48,0,0,1,5.47,5.46,5.42,5.42,0,0,1-5.47,5.46H166.67a2.73,2.73,0,0,0-1.12,5.22l21.61,9.81a14.83,14.83,0,0,1-5.34,28.68H158.45a5.46,5.46,0,1,1,0-10.91l23.37,0a4,4,0,0,0,1.32-7.68Zm46.78,0a13.68,13.68,0,0,1,5-26.42l24.57,0a5.47,5.47,0,0,1,5.46,5.46,5.41,5.41,0,0,1-5.46,5.46H213.45a2.73,2.73,0,0,0-1.12,5.22l21.61,9.81a14.83,14.83,0,0,1-5.34,28.68H205.23a5.46,5.46,0,1,1,0-10.91l23.37,0a3.94,3.94,0,0,0,4-4,4,4,0,0,0-2.63-3.72Zm-128-10.86a2.69,2.69,0,0,0,.81-1.93,2.74,2.74,0,0,0-2.74-2.73H54a5.47,5.47,0,0,1-5.47-5.46,5.4,5.4,0,0,1,5.41-5.45H78.55a13.69,13.69,0,0,1,9.1,23.89L74.58,147.86a3.55,3.55,0,0,0-1.2,2.79,3.94,3.94,0,0,0,4,4h9.42a5.47,5.47,0,0,1,0,10.93H77.33a15,15,0,0,1-14.88-15,15.29,15.29,0,0,1,4.42-10.47ZM59.43,160.1a5.47,5.47,0,0,1-10.93,0V132.75a5.47,5.47,0,0,1,10.93,0Zm41.33-38.28a27.66,27.66,0,0,1,21.85-10.94,27.29,27.29,0,1,1-26.46,20.49,5.5,5.5,0,0,1,5.35-4.09,5.42,5.42,0,0,1,5.23,6.82,16.83,16.83,0,0,0-.52,4.11,16.4,16.4,0,1,0,16.4-16.39Z"/><path id="path2191" class="cls-1" d="M146.79,176.1a8.14,8.14,0,1,1-1.63,4.88,7.66,7.66,0,0,1,.26-2,1.63,1.63,0,0,1,3.15.82,4.44,4.44,0,0,0-.16,1.22,4.87,4.87,0,1,0,4.87-4.88Zm86.37,4.62a4.08,4.08,0,0,1,1.49-7.87H242a1.63,1.63,0,0,1,0,3.25h-7.31a.81.81,0,0,0-.34,1.55l6.43,2.92a4.42,4.42,0,0,1-1.59,8.55H232.2a1.63,1.63,0,1,1,0-3.25h6.94a1.17,1.17,0,0,0,1.18-1.18,1.16,1.16,0,0,0-.79-1.1Zm-14.84,0a4.08,4.08,0,0,1,1.5-7.88h7.29a1.63,1.63,0,0,1,0,3.26h-7.3a.81.81,0,0,0-.82.8.83.83,0,0,0,.48.75l6.42,2.92a4.42,4.42,0,0,1-1.59,8.55h-6.94a1.63,1.63,0,0,1,0-3.25h6.94a1.18,1.18,0,0,0,1.19-1.18,1.16,1.16,0,0,0-.78-1.1Zm-108.39,0a4.08,4.08,0,0,1,1.48-7.88h7.3a1.63,1.63,0,1,1,0,3.26H111.4a.8.8,0,0,0-.8.8.82.82,0,0,0,.47.75l6.43,2.92a4.42,4.42,0,0,1-1.59,8.55H109a1.63,1.63,0,1,1,0-3.25h6.94a1.17,1.17,0,0,0,1.18-1.18,1.16,1.16,0,0,0-.79-1.1Zm-14.84,0a4.08,4.08,0,0,1,1.49-7.88h7.3a1.63,1.63,0,0,1,0,3.26h-7.3a.81.81,0,0,0-.82.8.83.83,0,0,0,.48.75l6.42,2.92a4.42,4.42,0,0,1-1.58,8.55h-7a1.63,1.63,0,1,1,0-3.25h7a1.16,1.16,0,0,0,1.17-1.18,1.15,1.15,0,0,0-.78-1.1Zm77.61-3.24a.82.82,0,0,0,.23-.58.8.8,0,0,0-.8-.8h-7.31a1.63,1.63,0,0,1,0-3.26h7.3a4.08,4.08,0,0,1,2.7,7.12l-3.88,3.89a1.06,1.06,0,0,0-.35.83,1.17,1.17,0,0,0,1.17,1.18h2.8a1.63,1.63,0,0,1,0,3.25h-2.8a4.46,4.46,0,0,1-4.43-4.46,4.54,4.54,0,0,1,1.32-3.12Zm-6.26,10a1.63,1.63,0,1,1-3.25,0v-8.14a1.63,1.63,0,1,1,3.25,0Zm-93.14-10a.75.75,0,0,0,.24-.58.8.8,0,0,0-.81-.8H65.42a1.63,1.63,0,0,1,0-3.26h7.3a4.06,4.06,0,0,1,4.07,4.07A4.12,4.12,0,0,1,75.44,180l-3.89,3.89a1,1,0,0,0-.35.83,1.16,1.16,0,0,0,1.17,1.18h2.8a1.63,1.63,0,0,1,0,3.25H72.36A4.45,4.45,0,0,1,68,184.66a4.54,4.54,0,0,1,1.31-3.12Zm-6.25,10a1.63,1.63,0,1,1-3.25,0v-8.14a1.63,1.63,0,1,1,3.25,0ZM134.88,181h7.21a1.63,1.63,0,1,0,0-3.25h-8.85c-1.69,0-1.61,1.89-1.61,1.63v8.11a1.63,1.63,0,1,0,3.25,0Zm56.34,4.89h7.22a1.63,1.63,0,0,1,0,3.25H189.6a1.63,1.63,0,0,1-1.62-1.63v-13a1.62,1.62,0,1,1,3.24,0Zm-49.13-9.77a1.63,1.63,0,0,0,0-3.26h-8.85a1.63,1.63,0,0,0,0,3.26Zm70.22,0a1.63,1.63,0,0,0,0-3.26h-8.85a1.63,1.63,0,0,0,0,3.26Zm-7.21,9.76h7.23a1.63,1.63,0,0,1,0,3.26h-8.85a1.64,1.64,0,0,1-1.62-1.63v-8.13a1.64,1.64,0,0,1,1.62-1.64h8.85a1.63,1.63,0,0,1,0,3.26H205.1Zm-116-9.76a1.63,1.63,0,1,0,0-3.26H80.23a1.63,1.63,0,0,0,0,3.26Zm-7.19,9.76h7.21a1.63,1.63,0,0,1,0,3.26H80.25a1.63,1.63,0,0,1-1.62-1.63v-8.13a1.64,1.64,0,0,1,1.62-1.64h8.84a1.63,1.63,0,0,1,0,3.26H81.88Zm-30,0h2.08a4.88,4.88,0,0,0,0-9.76h-3.7a1.63,1.63,0,0,1,0-3.26h3.7a8.14,8.14,0,0,1,0,16.27h-3.7a1.63,1.63,0,0,1-1.63-1.61v-8.16a1.63,1.63,0,1,1,3.25,0Z"/></svg>