<svg id="Layer_1" data-name="Layer 1" xmlns="http://www.w3.org/2000/svg" viewBox="0 0 300 300"><defs><style>.cls-1{fill:#d33453;}</style></defs><path class="cls-1" d="M176.9,74.58c-1.33-4.24-4.7-13.56-7.8-16.67-4.61-4.63-11.92-5.33-25.21-5.33-9.42,0-15.65,3.47-19,7.44-2.78,3.21-4.07,8.65-5.51,13.33L103.6,120.6l22.51.07,10.38-31.23,10.38,31.38H169.4l-8.19-24.73a35.65,35.65,0,0,0-2.58-6.52,4.65,4.65,0,0,0-3.26-2.48c-.3-.06,4.89,0,9.58,0,4.34,0,8.72,0,9.63-.06C177.8,86.65,179.93,84.09,176.9,74.58ZM151.34,86c-5.16,0-13.69,0-13.69,0l10.06-30.19s6.54,19.3,7.72,22.87C156.74,82.64,155.81,86,151.34,86Z"/><path class="cls-1" d="M235.27,154.87c3.63-2.58,11.47-8.66,13.45-12.56,3-5.83,1.42-13-2.69-25.62-2.92-9-8.17-13.82-13-15.82-3.92-1.62-9.46-1.18-14.39-1.12l-49.8-.38,6.91,21.45,32.89.22S182,140.62,182,140.62L189,162l21-15.43a36.44,36.44,0,0,0,5.41-4.49,4.92,4.92,0,0,0,1.37-3.87c0-.32,1.53,4.64,3,9.1,1.32,4.17,2.63,8.3,3,9.16C224.08,159.46,227.18,160.68,235.27,154.87Zm-18.75-20.78c-1.62-4.89-4.24-13-4.24-13l31.84.21s-16.35,12.2-19.37,14.41C221.41,138.18,217.93,138.33,216.52,134.09Z"/><path class="cls-1" d="M177,235.2c3.57,2.65,11.79,8.21,16.11,8.91,6.44,1,12.78-2.67,23.53-10.49,7.65-5.55,10.6-12,11-17.23.34-4.24-1.82-9.39-3.38-14L209.2,154.88,191,168.07l9.95,31.36-26.86-19.28-18.19,13.23L177,208.61a41.52,41.52,0,0,0,5.92,3.74,4.72,4.72,0,0,0,4.1.08c.3-.12-3.94,2.92-7.74,5.64-3.53,2.53-7.07,5.07-7.76,5.7C169.13,226,168.94,229.29,177,235.2Zm14-24.24c4.14-3.08,11.06-8.06,11.06-8.06l9.62,30.33s-16.65-11.78-19.69-14C188.52,216.85,187.33,213.61,190.93,211Z"/><path class="cls-1" d="M82.55,204.56c-1.43,4.22-4.19,13.73-3.5,18.06,1,6.47,6.48,11.34,17.24,19.14,7.64,5.58,14.73,6.39,19.8,5.18,4.14-1,8.36-4.62,12.28-7.54l40.52-29L150.7,197.14,124,216.3l10-31.52-18.22-13.21-7.91,24.81a37.78,37.78,0,0,0-1.74,6.82,4.75,4.75,0,0,0,1.17,3.91c.21.23-4-2.84-7.74-5.63-3.51-2.55-7-5.16-7.84-5.61C88.89,194.28,85.69,195.1,82.55,204.56Zm27.37,5.79c4.2,3,11.07,8,11.07,8L95.13,236.9s6.06-19.48,7.17-23C103.58,209.91,106.28,207.73,109.92,210.35Z"/><path class="cls-1" d="M82.51,105.3c-4.45,0-14.37.27-18.26,2.26-5.83,3-8.78,9.69-12.89,22.32-2.93,9-1.51,16,1.2,20.4,2.21,3.65,7,6.54,11,9.36l40.07,29.56,7-21.37L84.15,148.3s33.05-.17,33.05-.17l7-21.42-26.06.13a37.59,37.59,0,0,0-7,.45,4.81,4.81,0,0,0-3.36,2.33c-.16.29,1.47-4.65,2.93-9.09,1.38-4.13,2.76-8.27,3-9.17C94.25,108.16,92.47,105.38,82.51,105.3Zm2.95,27.83c-1.56,4.92-4.21,13-4.21,13L55.63,127.24S76,127,79.76,127C83.93,126.94,86.82,128.85,85.46,133.13Z"/></svg>