<svg id="Layer_1" data-name="Layer 1" xmlns="http://www.w3.org/2000/svg" viewBox="0 0 300 300"><path d="M155.06849,99.27134a50.5119,50.5119,0,0,1,7.493,1.32448l13.04763-74.886c-2.46526-.52032-4.965-.95866-7.48357-1.33077Z" fill="#fff" fill-rule="evenodd"/><path d="M115.64021,112.54124,58.1899,63.7378q-3.99427,4.38019-7.57766,9.13251l57.31544,48.71515a50.61853,50.61853,0,0,1,7.71253-9.04422Z" fill="#fff" fill-rule="evenodd"/><path d="M215.82463,42.01339c-2.01362-1.26455-4.0523-2.4881-6.138-3.63913l-37.54329,65.75662a50.65063,50.65063,0,0,1,6.18507,3.58552Z" fill="#fff" fill-rule="evenodd"/><path d="M244.19066,66.4435l-57.2778,48.6363a51.66179,51.66179,0,0,1,3.94877,4.76178L248.11436,71.2305q-1.90068-2.44082-3.9237-4.787Z" fill="#fff" fill-rule="evenodd"/><path d="M100.64171,138.49448a51.22524,51.22524,0,0,1,4.78309-12.759L35.06487,99.79483a126.25217,126.25217,0,0,0-4.63567,12.83471Z" fill="#fff" fill-rule="evenodd"/><path d="M200.66931,149.95426a50.63839,50.63839,0,0,1-100.589,8.6122L29.84581,184.46923a127.17684,127.17684,0,0,0,5.72088,16.05443l69.8048-25.73564L48.39163,223.26033A126.55034,126.55034,0,0,0,60.26,237.64342l53.282-45.281L78.78382,253.578A124.53323,124.53323,0,0,0,96.2601,263.871l32.663-57.51023L117.52521,271.802a123.14947,123.14947,0,0,0,21.59131,3.83466l10.63255-61.15883,10.67021,61.19354a123.3916,123.3916,0,0,0,22.573-4.01757l-9.89549-56.7723L201.59141,264.858a125.08584,125.08584,0,0,0,22.021-13.005l-26.15168-45.82025,39.98654,33.95364a126.5943,126.5943,0,0,0,17.009-20.9108l-35.73356-30.324,43.744,16.12065a126.45663,126.45663,0,0,0,9.30583-26.77315L233.373,163.96208l40.80521-.00632a125.61362,125.61362,0,0,0-.27916-30.9389h-76.109a51.1271,51.1271,0,0,1,2.87925,16.9374Z" fill="#fff" fill-rule="evenodd"/><path d="M99.34323,149.95426a51.33049,51.33049,0,0,1,.68375-8.3H25.26973C25.10037,144.28114,25,146.9206,25,149.59477c0,2.48811.091,4.96044.2321,7.417H99.83878a51.80959,51.80959,0,0,1-.49555-7.05752Z" fill="#fff" fill-rule="evenodd"/><path d="M120.64285,108.46377a50.17913,50.17913,0,0,1,8.782-5.05189L91.87534,37.55751q-4.48354,2.38876-8.735,5.12758Z" fill="#fff" fill-rule="evenodd"/><path d="M123.99884,25.80129q4.08837-.87983,8.28336-1.47268L145.34238,99.243a49.88716,49.88716,0,0,0-8.30846,1.46637Z" fill="#fff" fill-rule="evenodd"/></svg>