<svg id="Layer_1" data-name="Layer 1" xmlns="http://www.w3.org/2000/svg" viewBox="0 0 300 300"><defs><style>.cls-1{fill:#27b359;}</style></defs><path class="cls-1" d="M149.35,239.44q-32.38,0-64.76,0a35.68,35.68,0,0,1-18.36-4.79c-10.13-5.92-14.85-15.05-14.86-26.6,0-38.58,0-77.15.15-115.73C51.59,77,59.79,66.26,74.14,61.83a20.85,20.85,0,0,1,3.76-.74,32.53,32.53,0,0,1,3.83-.17c45.2-.1,90.4,0,135.59-.36,16.48-.14,31.38,14.36,31.32,30.69-.13,39.43,0,78.86-.11,118.29-.06,15.06-11.58,27.21-27.09,29.25a68.46,68.46,0,0,1-8.94.56q-31.58,0-63.15,0Zm47.46-90.82c.21-10.84-2.69-23.77-7.73-36.26A92.65,92.65,0,0,0,166.44,79c-4.4-4.15-10.63-2.81-12,2.59-.83,3.33,1.13,5.69,3,8,4.45,5.53,9.74,10.28,13.13,16.78,3.28,6.32,6.67,12.6,8.9,19.32a82.07,82.07,0,0,1,3.6,21.73c1.32,25.3-7.29,47-24.33,65.6a23.24,23.24,0,0,0-3.26,3.92c-2.74,4.74.09,10.21,5.28,10.24,2.7,0,4.79-1.43,6.64-3.36C186.89,203.59,196.72,179.43,196.81,148.62Zm-36,9.55c.49-23-5.71-38.84-18-52.39a15.06,15.06,0,0,0-4.58-3.46c-3.14-1.53-5.61-.93-7.93,1.86a5.91,5.91,0,0,0-.31,7.91c1.33,1.8,2.9,3.42,4.31,5.15,12.15,14.93,16.36,31.68,10.8,50.3a45.26,45.26,0,0,1-13.84,21.88,7.72,7.72,0,0,0-1.13,10.15c2,2.58,6.53,3,9.62.81a11.25,11.25,0,0,0,1.66-1.5C153.57,186.22,160.45,171.28,160.81,158.17ZM125,152.91a16.21,16.21,0,0,0-.29-6.26c-1.48-7.53-4.75-14.17-11.19-18.69-3.18-2.23-6.15-1.74-8.43.65-2.49,2.63-2.73,5.87-.53,9,1.1,1.57,2.44,3,3.6,4.5a15.85,15.85,0,0,1,.14,19.33c-1.07,1.45-2.4,2.71-3.51,4.13-2.28,2.92-2.24,6.79,0,9.07,2.76,2.8,6.27,3,9.42.35A29.46,29.46,0,0,0,125,152.91Z"/></svg>