<svg id="Layer_1" data-name="Layer 1" xmlns="http://www.w3.org/2000/svg" viewBox="0 0 300 300"><defs><style>.cls-1,.cls-3{fill:#fff;}.cls-2{fill:#007042;}.cls-3{opacity:0.99;isolation:isolate;}</style></defs><title>SBUX_Logo_Dark</title><path id="path3040" class="cls-1" d="M257.5,150c0,59.68-48.13,108.05-107.5,108.05S42.5,209.68,42.5,150,90.63,42,150,42,257.5,90.33,257.5,150Z"/><path id="inner_artwork" data-name="inner artwork" class="cls-2" d="M149.1,80.36a56.37,56.37,0,0,1,10.86,8l-1.2,1.2c-6-.64-12.38.16-18.1.25-.64-.64-1.92-1.61-.73-2.42l9.17-7Zm106.62,74.91c.08,2.72.34,5.06-.72,7.84-11,3.13-18.25-8.53-28.94-6.77l1.21,6c9.88.32,16.06,9.8,26.28,9.4-1.45,2.89.64,10.53-5.79,7.48-6.67-1.6-11.5-7.48-18.81-7.48-.88,1.62-.32,3.86-.48,5.78,7.72,1.21,13.27,7.73,21,8.93-.72,2.65-1.44,5.62-3.62,7.24-6.27-1.53-11.17-7.16-17.86-7l-1.18,5.55c6.34.16,10.45,5.78,16.15,7.47.16,2.34-1.93,4.43-3.14,6.52-5.06-1.52-8.93-5.87-14.72-5.55-.08-2.18,1.22-4.66.73-7-6.5,1.93-10.86-4.11-15.68-7.73-.14-11.86-12.62-19.64-13.28-30.74a16.57,16.57,0,0,1,1.22-7.12c4.11-9.49,2.82-21.8-1.68-30.65a17.45,17.45,0,0,0-6-5.53c3.3,7,7.33,15.27,5.32,23.87-.23,6.64-4.15,13-4.2,19.43a13.45,13.45,0,0,0,1.79,6.87c5.23,9.42,14.64,18.33,11.1,30.15-1,3.62-3.87,6.43-4.59,10.12,6.12,5.07,11.9,10.78,20,11.1,2.89-1.85,1.28-10,7.23-6.26l8.69,4.35c-.63,2.32-2.58,4.41-4.34,6-3.3-1.61-6.51-3.53-10.62-3.37-1.22,1.28-2.26,2.73-2.17,4.57a19.46,19.46,0,0,1,8,3.39c-1.13,2.42-3.31,3.93-5.32,5.78l-6.74-2.41c-1.13,1.61-3.46,3.3-2.64,5.07a14,14,0,0,1,4.32,2.66c-3,3.22-6.74,5.28-10.37,7.47-3.13-10.22-13.42-17.38-12.54-29.19l-.48-.48c-2.42,2.72-1.61,7.07-1.45,10.6,2.89,7.4,9.8,13.12,10.85,21.23-1.21,2.09-3.94,2.51-6,3.39.24-14.63-21.95-25.72-7.72-40.52,4.75-7.25,12.7-14.16,9.88-24.14-2.89-9.63-13.12-15.6-13-26.39l0-.85c2.33-11.26,9.41-23.24,3.61-35.21-1.61-4.82-5.21-10.3-10.12-12.31,7.31,8.37,10.21,22,6,33.29-2.11,4.48-5,9.81-5.3,15.08h0a12.56,12.56,0,0,0,2.18,8.08c5.55,9,15.19,18.9,9.65,30.64-6.27,9.4-17.21,19-11.1,31.35,4.42,7.4,11.26,14.78,9.42,23.87l-7.24,2.41c4.82-17-18.82-26.92-8.92-43.89,6.11-9.08,17-17.61,10.85-29.66-3.7-7.48-11.34-11.9-11.1-21.23l.27-1.57C176,142,186.05,129.49,179,115.34a25.11,25.11,0,0,0-9.64-10.85l-.25.25c8.2,8,10.7,21.05,6.28,31.58-2.07,6.18-6.6,12.33-7.52,19a15.55,15.55,0,0,0,1.73,9.76c5.23,8.28,14.39,17.06,8.68,27.75-6,8.84-16.08,17.44-12.06,28.93,4.42,10,13.65,19.63,8.67,32.1l-7.47,1.68c5.95-12.15-3-24.2-8.19-34.74-6.36-15.11,13.65-22.35,14-36.17-.07-8.92-9.56-14-11.56-22.19-4.11-3.46-8.36,1.38-13.27.48-3.62.73-9.18-5-11.35,1.21-2.57,9.08-14.3,15.75-9.15,26.52,4.91,9.58,16.72,16.57,12.77,29-3.53,11.57-15.19,22.59-8,35.93-3-1-8.52.88-8.44-3.87-4.58-16.16,14.95-25.57,8.92-41.72-2.81-9.89-15.6-15.36-12.79-27.26,2.09-9.79,13.08-16.64,11.54-27.37a16,16,0,0,0-.67-2.78c-4.1-11.57-12.47-23.16-7.48-36.67,1.37-3.86,4.11-7.15,6.51-10.6-8,4.26-12,13.26-11.81,22.43-.35,10,7,18.5,8.06,27.62a16.85,16.85,0,0,1-2.76,11.45c-5.22,7.08-12,14.55-8.92,23.88s14.71,15.11,14,26.05c-.08,12.94-15.11,21-10.85,35.47l-7.49-2.43c-3-12.86,10.7-19.44,10.86-31.33,1.93-13.69-15.52-18.76-14.47-32.1-.08-10.13,8.84-16.55,12.78-25.08a16.21,16.21,0,0,0,.81-5.91c-.48-9.42-9-16.79-7.56-27.39a33.5,33.5,0,0,1,8.19-20.5c-7,2.81-9.88,10.86-11.81,17.61-3.35,10.83,4.65,20.58,5.45,30.28.36,4.29-.69,8.55-4.72,12.9-5.8,6.83-11.67,15.44-7.49,24.61,4.43,10.13,18.34,18,12.31,30.63-3.29,8-11.18,14-10.85,23.39a20.2,20.2,0,0,1-6-3.37c0-12,17-19.46,8.92-32.08-.72,2.49-.88,5.88-1.44,8.69-2.82,7.32-8.85,13.18-11.1,20.75-3.77-1.46-7.72-4.52-10.85-7.73l4.34-2.66c-.48-1.61-1.77-3-2.89-4.35-2.82-.39-4.67,1.46-7,2.18a36,36,0,0,1-5.55-5.55c1.44-4.11,12.71-.71,7-7.46-3.85-2.41-7.72,1-11.1,2.64l-4.58-5.78c3.94-2.41,7.87-5.8,12.77-4.83,1.21,2.18,1.29,5.37,3.62,6.51,8.28-.16,14.15-6.43,20.5-11.33-4.42-6.59-8-15.68-4.09-23.64,3.15-8,11.35-14.7,11.72-23.52a15.58,15.58,0,0,0-1.1-6.4c-4.34-11.18-5.87-26.28,2.41-36.18-4.5,1.21-7.16,6.83-8.69,11.09-5,10.91,1.32,21,1.54,31.49a22.78,22.78,0,0,1-.58,5.66c-4.27,8.6-11.17,16.15-12.29,26-4.91,3.13-8.94,8.6-15.93,6.76a18.66,18.66,0,0,0,1,6.75c-5.54-.23-9.32,3.85-14,5.78-2.49-.79-3.13-4-4.1-6.26,5.47-1.84,9.41-7.32,15.68-7.23.73-2-.41-3.87-.73-5.8-7.8-3.46-20.17,17.12-21.21-.73,7.8-.48,12.78-7.72,20.5-8.44l.23-5.78c-8.76-.88-14.4,8.12-23.16,7.24l-1.93-7.72c10.13.64,16.17-8.45,25.82-8.93,1.28-1.69,1.44-4.18,1.69-6.51-10.54-1.37-17.77,10.3-28.95,6.75,0,0-.38-4.85-.59-7.59h0c-.07-1.08-.14-1.82-.14-1.82,10,3.87,18.72-3.29,27.25-7,2.17-.65,5.55.48,6.53-1.93-.09-1.85,3.29-4,.48-5.31-12.47-1.69-20.75,13.35-33.54,6.51l-1-1.93C46.11,107.46,66.61,72.33,100.61,55c13.78-7.87,30.89-11.88,48.14-12,20.83-.17,41.87,5.29,57.52,16.37,15.2,9.32,29.74,24.69,37.63,40.29,7.55,13.67,11,29,12.06,45.33-13.19,10-22-9.39-35.47-5.06.73,2.1,1.13,4.26,2.66,6,11.91-.08,20.1,12.38,32.56,7.47v1.82ZM104.23,110.52c-8.37-5.47-19-.32-26.76,2.65-.73-7.32-3.7-14-9.9-18.81a6.41,6.41,0,0,0-2.18-1,1.25,1.25,0,0,0-1.21.72C67,111.4,55.76,123.46,47.8,136.57c2.65,2.16,6.91,1.84,10.12,1.2,8.44-3.37,16.48-9.25,26.53-7.23,3-5.07,8-10,12.06-14,2.5-2.17,5.94-3.54,7.72-6Zm25.57,10.85c-.16,1,.08,2.9,1.68,2.18,2.5-3.46,6.92-.72,9.65-.48v-1c-1.5-2.36-4.58-3.54-7.71-3.42a11.32,11.32,0,0,0-2.17.29,1.88,1.88,0,0,0-1.45,2.4ZM169.11,111c-2.24-5-7.39-7-12.06-8.21a62.52,62.52,0,0,0-7-.49q-.66,0-1.32,0c-6.59.13-12.89,1.82-16.74,7.25-.55,1.53-3,3.68-.72,5,5.07-.32,10.85-1,14.22,3.39,0,3.86,2.5,9-1.68,10.85-3.47-3.2-7.57,1.37-11.33-1.21-1.78-1-2.9.18-3.62,1.71a28.33,28.33,0,0,0,13.49,26.51c3.78,1.36,8.86,2.66,12.81.73,9.49-4.42,13.41-14.55,15.18-23.87-.24-1.78-.15-5.24-2.64-5.32-2.81,1.78-6.92.73-9.9,0-1.76.57-1.84,3.14-3.84,3.63l-1.23-1c-1-4.42-1.69-10.69,2.42-13.75,4.58-1.85,10-2.65,14.71-1.2.89-1.53-.48-2.73-.73-4.1Zm-4.84,7.93-.94,0c-1.68,1.13-6.59.32-4.82,4.1,3.06-2.42,7.32-.72,10.37.48,1.13-.56.89-1.69,1-2.66C168.86,119.07,166.52,118.89,164.27,118.94Zm35-34c-5.95-.32-10.94,3.06-16.4,4.59-.48-4.66,3.06-9.57,3.86-14.24-8.84.57-15.84,5.89-23.16,10.14-1.69-4.09-3.39-8.2-5.07-12.31L168.16,64l.25-1.21-13-.73c-2.24-3.93-3.12-8.67-5.78-12.29-2.17,4.1-3.63,8.44-5.8,12.54l-13,.73v1l9.88,8.92c-1.21,4.58-2.33,9.56-5.31,13-5.78-3.47-11.49-7.24-17.84-9.65-1.52-.49-3.7-1.29-5.07-.25,2,4.43,4.82,9.18,4.35,14-2.66-.49-4.74-2.19-7.24-2.9-3-.82-6.52-2.41-9.41-1.44,4.82,6.75,8.76,13.81,10.12,21.94,16-7.73,34.68-12,54.05-8.68,9.09,1.45,17.44,5.15,25.56,8.2.32-8.52,5.7-15.37,9.41-22.2Zm27.49,46.31c8.19,2.17,16.41,11.1,25.09,5.31-7.56-12.54-18.81-24.12-15.68-40.52a1.89,1.89,0,0,0-1.43-2.42c-4.91,2-8.7,6.84-10.64,11.59-.8,2.8-1.27,5.79-2.4,8.44-5.87-3.06-12.14-6-19.29-5.31-2.58.33-6.28.49-6.76,3.14,8.12,4.34,14.8,11.58,19.77,19.3,3.47-.57,7.72-.09,11.34.47ZM140.9,142.6l.23,1.45c3.14,2.09,4.11,5.64,8.46,5.32,3.86.23,6.75-3.39,8.67-6.28-5.22-.72-11.57.4-17.36-.49Zm4.34-6.51c.16.64-.4,1.61.48,1.93,2.57-.56,7.24,1.37,8.67-1.68A5.75,5.75,0,0,0,150,134.7,8.69,8.69,0,0,0,145.24,136.09Z"/><g id="g4377"><path id="rect3815" class="cls-3" d="M140.91,133.3h17.62v7.24H140.91Z"/><path id="path3032-6" class="cls-2" d="M144.16,137.17c2.28.54,2.84,1.35,4.64,1.57,1.92,0,1.64-.42,5-1.57a.58.58,0,0,0,.15-.93c-2.08-2.06-3.51-.59-4.81-.55-1.72,0-3.34-1.48-5,.46-.29.4-.44.79.06,1Z"/></g><g id="text4354"><path id="path4430" class="cls-2" d="M227.45,256V245.69h-3.69v-2.1h9.87v2.1H230V256Z"/><path id="path4432" class="cls-2" d="M235.22,256V243.59H239l2.25,8.47,2.23-8.47h3.76V256h-2.33v-9.78L242.42,256H240l-2.46-9.78V256Z"/></g></svg>