<?xml version="1.0" encoding="utf-8"?>
<!-- Generator: Adobe Illustrator 24.0.1, SVG Export Plug-In . SVG Version: 6.00 Build 0)  -->
<svg version="1.1" id="Layer_1" xmlns="http://www.w3.org/2000/svg" xmlns:xlink="http://www.w3.org/1999/xlink" x="0px" y="0px"
	 viewBox="0 0 300 300" style="enable-background:new 0 0 300 300;" xml:space="preserve">
<style type="text/css">
	.st0{fill:#00A0DF;}
	.st1{fill-rule:evenodd;clip-rule:evenodd;fill:#FFFFFF;}
</style>
<title>SCHW_Light_bg</title>
<g>
	<rect x="46.5" y="46.8" class="st0" width="207" height="206.5"/>
	<g>
		<path class="st1" d="M226.3,140.3c0,4.8-5.6,9.3-10.6,9.3c-3.2,0-5.9-2.1-5.9-3.3c0-0.7,0.2-3.2,1.3-3.2c1.8,0,3.5,3.8,7.1,3.8
			c2.2,0,4.3-1.5,4.3-3.8c0-3.2-5.6-6.3-5.6-11.3c0-5.3,5.7-11.8,10.9-11.8c2.6,0,3.7,1.5,3.7,2.9c0,1.1-1,2.4-2.4,2.4
			c-2.1,0-3.3-1.5-5.4-1.5c-2.3,0-3.5,1.5-3.5,4.1C220.5,131.6,226.3,135.1,226.3,140.3L226.3,140.3z"/>
		<path class="st1" d="M119.1,141.7c-2.9,3.5-7,7.8-11.1,7.8c-1.6,0-2.1-0.8-2.1-2.1c0-3.6,7.3-15.9,7.3-20.4c0-1.5-0.5-2.2-2.1-2.2
			c-4.6,0-14,11.9-17.3,23.1c-0.2,0.7-0.8,1-2.5,1c-1.8,0-2.1-0.2-2.1-0.9c0-1.2,6.7-17.5,9.8-26.4c2.6-7.6,4.8-13.3,4.8-14.9
			c0-0.8-0.5-1.3-1.8-1.5c-0.5-0.1-1.6-0.1-1.9-0.2c-0.1,0-0.1-0.1-0.1-0.2v-1.1c0-0.1,0.1-0.2,0.2-0.2h8.7c0.7,0,1,0.1,1,0.7
			c0,0.5-2,6.5-6.2,17.4c-2.9,7.6-4.5,10.5-3.8,10.5s8-12.3,14.2-12.3c2.5,0,4.1,1.6,4.1,5.2c0,5.8-5.9,17.3-5.9,18.6
			c0,0.6,0.3,0.8,1,0.8c1.1,0,3.6-2.7,4.8-4c0,0,0,0,0,0c0.1-0.1,0.1-0.1,0.2,0l0,0l0.7,0.8c0.1,0.1,0.3,0.3,0.3,0.3
			S119.2,141.6,119.1,141.7L119.1,141.7z"/>
		<path class="st1" d="M87.7,142.8c-0.7,1.4-5.5,6.7-11.4,6.7s-7.8-4.4-8-8.2C67.7,129.8,81.2,120,89,120c3.9,0,5.4,2.5,5.5,4.4
			c0.1,1.2-0.9,2.1-1.8,2.1c-2.4,0-3.1-4.7-6.2-4.7c-4.5,0-13.4,12.7-13.1,19.5c0.2,3.7,2.7,5.3,5.1,5.3c2.6,0,5-1.8,6.4-2.9
			c0.8-0.6,2-1.7,2-1.7c0,0,0.1-0.1,0.1-0.1c0,0,0.1,0.1,0.1,0.1L87.7,142.8C87.7,142.7,87.7,142.7,87.7,142.8
			C87.7,142.7,87.7,142.8,87.7,142.8L87.7,142.8z"/>
		<path class="st1" d="M152.6,128.1l0.6,0.6c0.1,0.1,0.1,0.1,0.2,0c0.1-0.1,0.2-0.2,0.3-0.3c1-1.2,3.4-4.3,4.6-4.3
			c0.7,0,1,0.7,1,1.8c0,4.2-6.9,21.1-6.9,22.2c0,0.6,0.2,0.8,0.7,0.8h2.6c0.5,0,0.7-0.3,1-1.1c0,0,1.3-3,2-4.5
			c5.3-10.8,8-15.9,10.1-17.9c4.5-4.4,3.9-0.2,6.1,0c1.5,0.1,2.4-1.5,2.4-3.2c0-1.9-1.4-2.5-2.4-2.5c-4.2,0-7.1,3.8-12.3,12.9
			c-0.4,0.7-0.7,1.2-0.9,1.2c-0.1,0-0.4-0.1-0.4-0.5c0-0.7,2.4-9.5,2.4-11.2c0-1.5-0.7-2.1-2.1-2.1c-2.5,0-7.5,5.4-9.1,8
			C152.5,128,152.6,128.1,152.6,128.1L152.6,128.1z"/>
		<path class="st1" d="M148.9,120.6l-1.6-1c-0.2-0.1-0.4-0.3-0.7-0.2c-0.8,0.3-0.9,1.7-1.9,1.7s-2.1-0.5-4-0.5
			c-13,0-19.6,17.5-19.6,23.3c0,3.8,2.1,5.7,4.4,5.7c2.9,0,6.4-1.5,11-8.2c1.2-1.7,1.2-2.1,1.5-2.1c0.2,0,0.4,0.2,0.4,0.5
			c0,0.6-2,4.2-2,7.1c0,1.8,0.7,2.6,2.2,2.6c3.7,0,8-5.5,9.6-7.9c0.1-0.1,0-0.2,0-0.2l-0.7-0.8c-0.1-0.1-0.1-0.1-0.2,0
			c-1.4,1.5-3.8,4.9-5.2,4.9c-0.6,0-0.9-0.2-0.9-1.2c0-2.4,7.9-21.6,8.1-23C149.3,121.1,149.2,120.8,148.9,120.6z M128.1,145.4
			c-1.3,0-2.1-0.6-2.1-2.9c0-8.1,6.8-20.4,13.5-20.4c2.5,0,3.5,1.8,3.5,3.8C143,129.4,133.7,145.4,128.1,145.4z"/>
		<path class="st1" d="M200,132.2c4.5,0,13.7-2,13.7-7.6c0-2.4-2.1-4.6-5.7-4.6c-8.1,0-20,11.2-20,21.7c0,4.8,3.1,7.9,7.6,7.9
			c5.2,0,10.6-4.9,11.9-6.7c0.1-0.1,0-0.2,0-0.2l-0.6-0.7c-0.1-0.1-0.1-0.1-0.2,0c-1.4,1-4.9,4.1-8.2,4.1c-3.1,0-4.8-2.1-4.8-5
			c0-3.9,1.8-6.9,3.2-9C197.6,132.1,198.3,132.2,200,132.2z M206.9,121.5c1.5,0,2.6,1.3,2.6,2.8c0,4-5.1,6.1-11.9,6.2
			C198.5,128.7,203,121.5,206.9,121.5z"/>
		<path class="st1" d="M185.3,141.8c-2.4,3-6.2,7.8-9.5,7.8c-2.4,0-3.5-1.3-3.4-3.8c0.2-3.7,7.8-22.5,8.4-23.9
			c3-7.6,5.4-13.3,5.5-14.9c0-0.8-0.4-1.3-1.8-1.5c-0.6-0.1-1.6-0.1-1.9-0.2c-0.1,0-0.1-0.1-0.1-0.2l0.1-1.1c0-0.1,0.1-0.2,0.2-0.2
			h8.7c0.7,0,0.9,0.1,0.9,0.7c0,0.5-2.5,6.5-6.7,17.5c-3.7,9.7-7.5,20.3-7.6,22.3c0,0.8,0.2,1.1,1,1.1c1.2,0,2.8-1.6,5.5-4.6
			c0.1-0.1,0.1-0.1,0.2,0l0.6,0.8C185.4,141.6,185.3,141.8,185.3,141.8L185.3,141.8z"/>
		<path class="st1" d="M82.2,166.7c-0.8-2.4-2.1-5.4-5.6-5.4c-2.8,0-4.3,2-4.3,4.4c0,2.3,1.7,3.9,4.9,5.4l1.1,0.5
			c3.3,1.5,6.3,3.7,6.3,8c0,5-3.9,8.5-9.5,8.5c-1.6,0-3.1-0.3-4.2-0.7c-1.2-0.4-1.9-0.7-2.4-0.9c-0.3-1.1-0.8-3.9-1.3-6.5l1.3-0.4
			c0.8,2.2,3.1,6.8,7.4,6.8c2.7,0,4.4-2.1,4.4-4.7c0-2.3-1.1-4-4.4-5.7l-1.3-0.7c-2.8-1.4-6.3-3.6-6.3-7.7c0-4.4,3.3-8,8.9-8
			c1.1,0,2.6,0.2,3.8,0.6c0.7,0.3,1.3,0.3,1.8,0.5c0.2,1.5,0.4,3.3,0.8,5.6L82.2,166.7L82.2,166.7z"/>
		<path class="st1" d="M111.1,167.6c-1.3-4.8-4-6.2-7.9-6.2c-6.9,0-9.9,5.7-9.9,11.9c0,7.8,3.8,13.2,9.9,13.2c4.5,0,6.6-2.3,8.8-6.8
			l1.2,0.3c-0.5,2-1.4,5.3-2.1,6.9c-1.2,0.3-4.9,1.3-7.9,1.3c-11,0-15.4-7.1-15.4-13.8c0-8.8,6.8-14.7,16.1-14.7
			c3.6,0,6.4,0.8,7.5,1.1c0.3,2.3,0.5,4.2,0.8,6.6L111.1,167.6L111.1,167.6z"/>
		<path class="st1" d="M127.1,160.1v1.2c-3.1,0.3-3.5,0.6-3.5,5.2v5.7h12.9v-5.7c0-4.6-0.3-4.9-3.6-5.2v-1.2h12v1.2
			c-3.4,0.3-3.7,0.6-3.7,5.2v14.8c0,4.6,0.3,4.9,3.6,5.2v1.2h-12.3v-1.2c3.6-0.3,3.9-0.6,3.9-5.2v-7.2h-12.9v7.2
			c0,4.6,0.3,4.9,3.6,5.2v1.2h-11.9v-1.2c3.4-0.3,3.7-0.6,3.7-5.2v-14.8c0-4.6-0.3-4.9-3.9-5.2v-1.2H127.1z"/>
		<path class="st1" d="M168.3,160.5l7.3,20.1h0.1c1.6-5.2,3.6-13.1,4.3-15.8c0.7-2.6,0.3-3.2-1.4-3.3l-1.5-0.1v-1.2h9.7v1.2
			c-2.7,0.3-3.1,0.5-4.4,4.3c-0.6,1.8-3.6,10.5-7.1,22.3h-1.9l-7.2-19.7h-0.1l-6.6,19.7h-1.9l-7-22.4c-1.1-3.6-1.9-3.9-4.1-4.1v-1.2
			h11.4v1.2c0,0-1.1,0.1-1.3,0.1c-1.5,0.2-2,0.5-1.4,2.7l4.9,16.4h0.1l6.4-20.2H168.3L168.3,160.5z"/>
		<path class="st1" d="M204.5,182.1c-1.6-4.2-3.5-9.5-5.4-14.7l-2.8-7.7l-1.7,0.2L186,182c-1.5,3.8-2,4-4.6,4.3v1.2h9.4v-1.2
			l-1.2-0.1c-1.9-0.2-2.2-0.8-1.4-3c0.6-1.8,1.4-4.2,1.9-5.4h7.8c0.9,2.2,1.9,4.8,2.3,6.1c0.5,1.6,0.4,2-1.2,2.3l-1.2,0.2v1.2h11.1
			v-1.2C206.5,186.2,205.9,185.9,204.5,182.1z M190.5,175.9l3.3-9.3h0.1l3.3,9.3H190.5z"/>
		<path class="st1" d="M225.2,172.5L225.2,172.5c2.5-0.6,6-2.5,6-6.1c0-2.2-0.8-3.8-2.4-4.8c-1.5-1-3.2-1.4-6.5-1.4h-11.7v1.2
			c3,0.3,3.4,0.6,3.4,5.2v14.8c0,4.6-0.3,4.9-3.6,5.2v1.2h10.5c3.1,0,6.1-0.5,8.1-1.7c2.3-1.4,3.8-3.4,3.8-6.4
			C232.9,175.3,229.6,173,225.2,172.5z M218.6,163.8c0-1,0.1-1.7,0.4-1.9c0.3-0.1,0.8-0.2,1.9-0.2c2.6,0,5.3,1.3,5.3,5.2
			c0,3.6-2.3,5.2-5.9,5.2h-1.7L218.6,163.8L218.6,163.8z M221.9,185.9c-2.7,0.1-3.2-0.8-3.2-4.7v-7.5h1.4c4.3,0,7.5,2,7.5,6.4
			C227.6,184.4,224.7,185.9,221.9,185.9z"/>
	</g>
</g>
</svg>
