<svg id="Layer_1" data-name="Layer 1" xmlns="http://www.w3.org/2000/svg" viewBox="0 0 300 300"><defs><style>.cls-1{fill:#da2128;}.cls-2{fill:#fff;}</style></defs><title>SEDG_Logo_Dark</title><path class="cls-1" d="M232.6,149.54c0-5.9-.89-8.27-6.63-8.27-4.58,0-5.9,1.32-5.9,8.27,0,6.26,0,9.9,5.9,9.9,6.63,0,6.63-3.32,6.63-9.9"/><path class="cls-1" d="M167.67,141.27c-5.74,0-6.11,1.21-6.11,6.11h12.37c0-5.69-.84-6.11-6.26-6.11"/><path class="cls-1" d="M203.16,149.54c0-5.9-.79-8.27-6.53-8.27-4.58,0-5.9,1.32-5.9,8.27,0,6.26-.15,9.9,5.9,9.9,6.8,0,6.53-3.32,6.53-9.9"/><path class="cls-1" d="M272.23,124.73H209.91v39.45h-6.64l.26-4.16h-.21c-1.68,3.63-4.74,4.47-8.64,4.47-10.26,0-10.58-6.47-10.58-15,0-8.11,1.11-13.33,10.58-13.33,3.38,0,6.9.63,8.33,4h.26V124.73H168.61a5.56,5.56,0,0,0-5.08,3.62l-3.07,8.89a20.26,20.26,0,0,1,7.21-1c11.37,0,12.9,3.32,12.9,15.38h-19c0,5.95.16,7.85,6.11,7.85,3.68,0,6.26.05,6.26-4.06h6.64c0,8.69-5,9.11-12.9,9.11-9.66,0-12.3-2.82-12.69-11.42l-6.44,18.63s-1.25,3.62,2.57,3.62h67.38c-2.6-1.2-4.14-3.6-3.9-8.3h6.22c0,3.79,1.42,4.37,5.16,4.37,5.63,0,6.85-1.16,6.85-5.9v-5.26h-.16c-1.74,3.63-5.27,4.26-8.64,4.26-9.48,0-10.59-5.21-10.59-13.32,0-8.48.32-15,10.59-15,3.9,0,6.95.84,8.64,4.48h.21l-.27-4.16h6.64v27.59c0,6.44-1.34,9.7-5,11.2h20.5a5.56,5.56,0,0,0,5.08-3.62l2.65-7.67a35.13,35.13,0,0,1-6.95.46c-10.58,0-12.74-3.37-12.74-14.06,0-9.9,1.58-14.22,12.74-14.22,9.82,0,12.3,2.49,12.8,10.93l6.49-18.79s1.26-3.62-2.57-3.62"/><path class="cls-1" d="M249.4,147.38h12.38c0-5.69-.84-6.11-6.27-6.11-5.74,0-6.11,1.21-6.11,6.11"/><path class="cls-1" d="M261.78,155.38h3.67l1.31-3.79H249.4c0,5.95.16,7.85,6.11,7.85,3.69,0,6.27.05,6.27-4.06"/><path id="path2512" class="cls-2" d="M49.49,144.06c0-7.74-6.48-7.85-11.9-7.85-7.11,0-12.59.16-12.59,7.74,0,7.06,1.84,8.43,12,8.59,6.69.1,6.85,1.32,6.85,3.74,0,3.79-2.32,3.68-6.27,3.68-4.9,0-5.85-.47-6-4.47H25c0,9,5.06,9,12.59,9,7,0,12.9-.73,12.9-8.21,0-8.95-5.79-8.48-12.32-8.8-5.8-.26-6.53-.37-6.53-3.11,0-3.63,2.42-3.63,6-3.63s5.26,0,5.26,3.32Zm18-7.85c-11.54,0-13,3.43-13,14.17s1.47,14.11,13,14.11,13-3.42,13-14.11-1.48-14.17-13-14.17m0,5.06c5.9,0,6.37,1.68,6.37,9.16s-.47,9-6.37,9-6.37-1.64-6.37-9,.47-9.16,6.37-9.16m25.28-16.59H86.09v39.5h6.64ZM111,151.75c3.27,0,6.11.1,6.11,3.95S114.53,160,111,160c-4.47,0-6-.36-6-4.26s2.68-3.95,6-3.95m6.11,12.43h6.64V146.85c0-9.27-3.69-10.64-12.54-10.64-6.32,0-11.85.32-11.85,8.38H106c0-3.59,2.32-3.85,5.21-3.85,5.53,0,5.9,1.58,5.9,6.06v3.58h-.21c-1.58-3.11-4.9-3.16-8.27-3.16-6.84,0-10.32,1.84-10.32,8.48,0,7.48,4.06,8.79,10.32,8.79,3.22,0,7.27-.1,8.59-3.79h.15Zm12.75-27.65v27.65h6.63V147.11c-.1-3.58,1.06-5.84,5-5.84,3.1,0,3.37,1.63,3.37,4.42v1.42h6.21V144.9c0-5.21-1.42-8.69-7.27-8.69-3.21,0-6.05.9-7.37,3.95h-.26l.15-3.63Z"/></svg>