<svg id="Layer_1" data-name="Layer 1" xmlns="http://www.w3.org/2000/svg" viewBox="0 0 300 300"><defs><style>.cls-1,.cls-2{fill:#fff;}.cls-2{fill-rule:evenodd;}</style></defs><path id="Layer" class="cls-1" d="M228.76,170.48A76,76,0,0,1,110,192.63,71.88,71.88,0,1,0,163.48,60.14a75.89,75.89,0,0,1,64.37,40.14,73.88,73.88,0,0,1,8.24,25.06,76.15,76.15,0,0,1-7.33,45.14Z"/><path id="Layer-2" data-name="Layer" class="cls-1" d="M113.84,82.87a54.23,54.23,0,0,0-10.74,6,55,55,0,0,0-9.24,8.32,57.25,57.25,0,0,0-7.08,10.16,60.06,60.06,0,1,1,67,79.12,43.08,43.08,0,0,1-4.58.58A55.15,55.15,0,0,0,125.75,79.37a50.53,50.53,0,0,0-11.91,3.5Z"/><path id="Layer-3" data-name="Layer" class="cls-1" d="M164.23,117.93v-2.41h-.92v-.34h2.25v.34h-.92v2.41Z"/><path id="Layer-4" data-name="Layer" class="cls-1" d="M165.89,117.93v-2.75h.58l.67,1.92a3.72,3.72,0,0,0,.08.41c0-.05,0-.08.09-.08v-.17l.08-.08v-.08l.67-1.92h.5v2.75h-.42V115.6l-.83,2.33H167l-.75-2.33v2.33Z"/><path id="Layer-5" data-name="Layer" class="cls-2" d="M161.89,157.57a8.89,8.89,0,0,1-.25,1.33,8,8,0,0,1-.58,1.25,5.87,5.87,0,0,1-.75,1.17,7.86,7.86,0,0,1-1,1,2.94,2.94,0,0,1-.41.33l-.5.33a2.12,2.12,0,0,1-.5.25,1,1,0,0,1-.5.25l-.34.17a.8.8,0,0,0-.33.08.68.68,0,0,1-.33.09.81.81,0,0,1-.34.08,1.46,1.46,0,0,0-.41.08h-.33a.9.9,0,0,1-.42.09H90.78A2.86,2.86,0,0,1,90,164h-.75a4.36,4.36,0,0,0-.75-.08l-.67-.17a3.75,3.75,0,0,1-.58-.25,6,6,0,0,0-.58-.33,2.72,2.72,0,0,1-.5-.42l-.25-.25a.27.27,0,0,0-.17-.08l-.17-.17a.24.24,0,0,1-.08-.16l-.17-.17a.27.27,0,0,1-.08-.17l-.17-.16a.27.27,0,0,1-.08-.17.21.21,0,0,1-.08-.17,1,1,0,0,1-.25-.41.75.75,0,0,0-.09-.34l-.16-.33a.86.86,0,0,0-.09-.41,4.36,4.36,0,0,1-.08-.75,3.52,3.52,0,0,1-.08-.75,3,3,0,0,1-.09-.75v-1.92a1.69,1.69,0,0,0-.08.58.81.81,0,0,1-.08.34.63.63,0,0,1-.09.25.67.67,0,0,1-.08.33.8.8,0,0,1-.08.33.58.58,0,0,1-.09.25.71.71,0,0,1-.08.34,1.18,1.18,0,0,0-.17.25.33.33,0,0,1-.08.25,1.79,1.79,0,0,1-.25.58l-.33.5-.33.5-.34.5a3.66,3.66,0,0,1-.83,1,4.22,4.22,0,0,1-.92.83,6.29,6.29,0,0,1-1.16.67,5.35,5.35,0,0,1-1.17.5l-1,.16a3.14,3.14,0,0,1-1,.17c-.39,0-.75.11-1.08.17H50.14a.27.27,0,0,1-.17.08.29.29,0,0,1-.17-.08h-.58a.68.68,0,0,1-.33-.09,1,1,0,0,1-.42-.08.8.8,0,0,1-.33-.08,3.65,3.65,0,0,1-.67-.25,7.7,7.7,0,0,1-1.83-1.09,11.31,11.31,0,0,1-1.5-1.66,8.43,8.43,0,0,1-.91-1.92,9.36,9.36,0,0,1-.25-2.16H70.87a2.35,2.35,0,0,0,.59-.09,1.49,1.49,0,0,0,.5-.08l.5-.17h.08a7.7,7.7,0,0,0,.33-.16l.09-.09a4.56,4.56,0,0,1,.41-.25,2.94,2.94,0,0,0,.33-.41l.34-.33c.11-.17.19-.31.25-.42a1.44,1.44,0,0,0,.25-.33,1,1,0,0,1,.08-.42l.17-.33v-.42c.08-.08,0,0,.08-.25a3.35,3.35,0,0,0,.08-.75v-1.58a.67.67,0,0,0-.08-.33.81.81,0,0,0-.08-.34.86.86,0,0,0-.09-.41.88.88,0,0,0-.08-.42,1.2,1.2,0,0,0-.25-.33l-.17-.34a1.08,1.08,0,0,0-.16-.25l-.17-.16a.27.27,0,0,0-.08-.17l-.17-.17-.08-.08a.22.22,0,0,0-.17-.08c0-.06,0-.09-.08-.09s0-.08-.09-.08l-.41-.33a.24.24,0,0,0-.17-.09l-.08-.08a.27.27,0,0,0-.17-.08.22.22,0,0,0-.16-.09,2.59,2.59,0,0,0-.5-.25,2.59,2.59,0,0,0-.5-.25l-.5-.16-.5-.17-19.49-6.16a.69.69,0,0,1-.25-.08.58.58,0,0,1-.25-.09.29.29,0,0,1-.17-.08.37.37,0,0,1-.25-.08l-.41-.17a3,3,0,0,1-.42-.17,3.53,3.53,0,0,0-.41-.16,4.53,4.53,0,0,1-.42-.25l-.42-.25a1.13,1.13,0,0,1-.41-.25,2.13,2.13,0,0,1-.5-.25,2.57,2.57,0,0,0-.42-.34,1.62,1.62,0,0,1-.42-.33,2.94,2.94,0,0,1-.41-.33,1.4,1.4,0,0,1-.42-.42,3.08,3.08,0,0,0-.33-.42,3,3,0,0,1-.42-.49,4.46,4.46,0,0,1-.42-.5l-.33-.5a6,6,0,0,1-.25-.59c-.16-.44-.3-.86-.41-1.25l-.17-.33a.8.8,0,0,0-.08-.33.58.58,0,0,0-.09-.25v-.34l-.16-.49a1.27,1.27,0,0,0-.09-.42v-.5a1.74,1.74,0,0,1-.08-.5v-3.91a1.8,1.8,0,0,0,.08-.5,1.74,1.74,0,0,1,.09-.59,6.79,6.79,0,0,1,.16-1.25c.06-.44.11-.86.17-1.25a9.58,9.58,0,0,1,.42-1.16,5.55,5.55,0,0,1,.58-1.17,6.92,6.92,0,0,1,.75-1.08,7.91,7.91,0,0,1,.91-.92,8.37,8.37,0,0,1,.67-.58,8.13,8.13,0,0,1,.75-.5c.22-.16.47-.33.75-.5l.83-.33a.57.57,0,0,1,.25-.08l.33-.17h.25a.33.33,0,0,1,.25-.08,3,3,0,0,1,1-.17l1-.17a6.85,6.85,0,0,1,1-.08,5.7,5.7,0,0,1,1-.08h62.71a.57.57,0,0,1,.25.08h.75a.36.36,0,0,0,.25.08h.25a.22.22,0,0,0,.16.09.83.83,0,0,0,.25.08c.34.11.64.22.92.33l.17.09a1.08,1.08,0,0,1,.25.16.22.22,0,0,1,.16.09.9.9,0,0,1,.25.16.24.24,0,0,1,.17.09.9.9,0,0,0,.25.16l.17.17a.24.24,0,0,0,.16.08l.17.17.17.16.33.34a2.94,2.94,0,0,1,.33.41l.33.34a1.13,1.13,0,0,0,.25.41l.09.17.16.17a.33.33,0,0,0,.09.25.36.36,0,0,1,.08.25.32.32,0,0,1,.08.25l.17-.42a.8.8,0,0,1,.08-.33,1.18,1.18,0,0,1,.17-.25.84.84,0,0,1,.08-.34l.17-.33a.9.9,0,0,0,.17-.25,10.75,10.75,0,0,1,.33-.5.6.6,0,0,1,.25-.25,2.9,2.9,0,0,1,.58-.58l.67-.5q.33-.16.75-.33a3.75,3.75,0,0,1,.83-.25,3.62,3.62,0,0,0,.75-.09,4.36,4.36,0,0,1,.75-.08,3.38,3.38,0,0,0,.75-.08h26.07l.58.08.25.08.5.17.25.08.58.17.17.17.5.25.25.16.08.09a.22.22,0,0,1,.17.08.24.24,0,0,1,.16.08c0,.06,0,.08.09.08H159l.17.17a.24.24,0,0,1,.16.08l.17.17a.27.27,0,0,0,.08.17.27.27,0,0,1,.17.08l.17.17a.21.21,0,0,0,.08.16l.17.17v.08a.29.29,0,0,1,.08.17l.17.17a.9.9,0,0,1,.16.25.24.24,0,0,0,.08.16c.12.23.23.42.34.59a3.56,3.56,0,0,1,.25.66,2,2,0,0,1,.25.59,3,3,0,0,1,.08.66,3.55,3.55,0,0,1,.08.75v.5H134.33a1.48,1.48,0,0,1-.58.08.32.32,0,0,0-.25.09.36.36,0,0,0-.25.08.36.36,0,0,0-.25.08,1.18,1.18,0,0,0-.25.17l-.25.17s0,.08-.09.08v.08s-.08,0-.08.09-.08,0-.08.08l-.17.17a.76.76,0,0,1-.08.25.32.32,0,0,0-.09.25.24.24,0,0,0-.08.16v.34a.8.8,0,0,0-.08.33v10.58H153.4v7.41H131.75v12.07l.16.5c.06.17.12.31.17.42a2.94,2.94,0,0,0,.33.41h.09v.09h.08a1.08,1.08,0,0,0,.25.16,1.52,1.52,0,0,1,.25.17.8.8,0,0,1,.33.08h.25a1.51,1.51,0,0,0,.5.09h.5a1.8,1.8,0,0,0,.5.08h26.73v.75Zm-39.47-.75V122.26H96.36a.81.81,0,0,0-.34.08h-.33a.68.68,0,0,0-.33.09.84.84,0,0,0-.34.08.8.8,0,0,0-.33.08,1.52,1.52,0,0,0-.25.17,1.44,1.44,0,0,0-.33.25v.08H94l-.08.09a.07.07,0,0,1-.08.08.33.33,0,0,0-.09.25l-.16.17a.33.33,0,0,1-.09.25.33.33,0,0,1-.08.25,1.66,1.66,0,0,0-.08.58v10.58h21.73v7.41H93.36v11.49a1,1,0,0,0,.08.42V155a2.84,2.84,0,0,0,.17.41l.16.34s0,.08.09.08a.27.27,0,0,0,.08.17.07.07,0,0,0,.08.08.24.24,0,0,1,.09.17h.08l.08.08c.06,0,.09,0,.09.08h.08a.24.24,0,0,0,.17.09.69.69,0,0,0,.25.08.21.21,0,0,0,.16.08h.34a1.43,1.43,0,0,0,.5.09h.5a1.69,1.69,0,0,0,.5.08h25.56ZM74.2,138.5c.84.28,1.61.53,2.34.75l1,.42.91.41.83.5.5.33.5.34.5.33a3.59,3.59,0,0,0,.5.42l.17.16c0,.06,0,.09.08.09l.17.16a.27.27,0,0,1,.08.17,1.4,1.4,0,0,1,.42.42,2.94,2.94,0,0,1,.33.41,2.13,2.13,0,0,0,.25.5,2.12,2.12,0,0,1,.25.5,5.19,5.19,0,0,1,.33.59l.17.5.17.49.16.5.17.5c0,.25.17.42.17.67V122.34H56.3a1.47,1.47,0,0,0-.5.09h-.5a1.74,1.74,0,0,0-.5.08,2.67,2.67,0,0,0-.58.08,2.13,2.13,0,0,0-.5.25l-.42.25a3,3,0,0,0-.41.34l-.09.08-.16.17-.09.08c0,.06,0,.08-.08.08a1,1,0,0,0-.25.42l-.17.33a3.13,3.13,0,0,0-.16.42.87.87,0,0,0-.09.42,1.46,1.46,0,0,0-.08.41,1.74,1.74,0,0,1-.08.5v1.58a1.59,1.59,0,0,1,.08.42.8.8,0,0,0,.08.33.87.87,0,0,0,.09.42,3.13,3.13,0,0,0,.16.42,3.41,3.41,0,0,0,.17.41,2.14,2.14,0,0,0,.17.42.51.51,0,0,0,.25.25l.16.33a.55.55,0,0,1,.25.25,10.75,10.75,0,0,0,.5.33.84.84,0,0,0,.25.17,10.75,10.75,0,0,0,.5.33l.42.25.5.17a2.59,2.59,0,0,1,.5.25l.5.17Z"/><path id="Layer-6" data-name="Layer" class="cls-1" d="M254.66,172.06A91.13,91.13,0,0,1,81.87,182.39a91.12,91.12,0,0,0,161-83.28,90.89,90.89,0,0,1,11.74,73Z"/></svg>