<svg id="Layer_1" data-name="Layer 1" xmlns="http://www.w3.org/2000/svg" viewBox="0 0 300 300"><defs><style>.cls-1{fill:#0067b1;}.cls-2{fill:#ef4135;}.cls-3{fill:#fff;}</style></defs><path id="path400" class="cls-1" d="M130.64,265.83l-1-.16-1-.33-.76-.43-.86-.73-.73-1-.5-1L125.4,261l-.15-.83v-1.38l.26-2.51.75-4.61,1.29-6.26,1-5,.32-2.27-.11-.3-.65-.3-2.62-1.08-3.69-1.76-4.09-2.43-2.49-1.67-3.28-2.49-2-1.77-2.11-2.09-1.62-1.76-2.47-2.88-.53-.69-1-1.32-2.5-3.51-.44-.72-.9-1.37-.24-.18L98,212l0,.86.26,2.4.5,3.29,1.3,5.8.34,2.26,0,2.28-.07,1.19-.24,1.17-.4,1.18-.4.69-.56.8-.8.76-.86.57-.81.33-.81.16-1,0-.79-.24-.71-.36-.77-.6-.57-.59-.66-1.14-.5-1.39-.22-1.66v-2.16l.19-1.9.89-4.46L92.49,217l.32-1.75.14-1.39.09-.34.23-2.27.07-4-.13-2.69-.09-.76L93,202.44,92.61,200l-.16-.88-.92-3.64-.85-3.57L90,187l-.23-3.63,0-2.77,0-.4v-1.6l.08-1.9.07-.49.1-1.54L90.6,171l.63-3.37.7-3,1-3.45.83-2.47L95.33,155l1.5-3.19,1.8-3.26,1.09-1.82,2-3,2.3-3,1.83-2.2.42-.43.6-.67,2.31-2.32.52-.47,2.11-1.9,3-2.33,1.33-.94,1.53-1.07.12-.21,0-.29-.56-1-.3-1-.22-1.52,0-1.13.35-1.52.53-1.22.87-1.43.82-1.05,1.68-1.55.85-.61.15-.23-.08-.23-.66-.54-.66-.92-.34-.72-.12-.57,0-1.07.19-1,.46-1.14.5-.8.77-.87.66-.6,1.24-.8,1.17-.5,1.74-.5,1.79-.28,1.3,0,1.32,0,.1-.12-.08-.24-.38-.56-.44-.9-.2-.84v-.81l.11-.64.3-.71.47-.7.6-.6.92-.57.77-.26.58-.12h1.34l.94.18,1.51.54,1.3.7.85.56,1.34,1.14,1,1,1.57,2,.89,1.44.61,1.13.19.2.08-.21-.07-1.09-.44-2.43-.47-3.48-.4-2.44L143.57,95l-.33-.89-.39-.58-.43-.35-.54-.45-.33-.61-.17-.81-.11-.75-.3-.45-.6-.73-.93-1L139,88.1l-.4,0-.63.18-.44-.06-.44-.3-.68-.72-.26-.11-.29.08-.73.6-.29.11-.36-.06-.45-.3-1.37-1.4-2.06-2.72-1.87-3-.87-1.63-1-2.22-1.14-3.12-.44-.69L124,71.15l-2.45-2.54-2.78-2.89-.62-.43-.5-.16-.86-.15-.41-.23-.36-.58-.27-.93L115.59,62l0-.84L116,59.3l.39-1.21.74-1.72,1.13-2.18,1.43-2.49,1.36-2,1.47-1.89,2-2.33.25-.27,1.48-1.5,2.53-2.23,1.29-1,1.47-1.09,1.43-.93,2.66-1.63,3-1.4,2.42-.77,1.9-.38,1.5-.07,1.32.19.92.3.47.33.23.35.11.72-.12.8.09.36.4.52,2.39,2.71,1.16,1.23L154,44.53l1.16,1.21.63.39,1.8.68,1.73.83,1.36.8,2.2,1.53,2,1.64,2.64,2.55.92,1.16.19.36,0,.37-.2.37-.55.67,0,.32.33.45.69.94.19.51-.06.41-.32.62,0,.27.3.48,1.1,1.16.63.53.65.37.87.14.44.27.46.71.21.51.11.69-.08.81-.24.85-.49,1.33-1,2-1.37,2.32-1.4,2L167,77.27l-1.73,2-1.73,1.9-2.4,2.29-.56.45-.53.48-2.86,2.27-2.5,1.78-.28.38-.11.46-.13,9.66,0,2-.23,5.57.05.13h.15l.37-.62.44-.84.53-.86.6-.93,1-1.27,1.19-1.3.32-.26.94-.73,1.26-.8,1-.47,1.32-.4,1-.19,1.39.09.76.2.93.43.72.5.76.84.4.77.3.91.06,1-.19.8-.27.65-.45.76V105l.18.08h1.59l1.34.25,1.35.53.76.47.81.79.45.69.43,1,.18.82,0,.83-.18.88-.33.71-.53.71-.76.62-.74.42-.07.14.13.14.94.38.65.36,1.16.67L178,117l1.63,1.7.77,1.13.53,1.15.3,1.09.11.83,0,1.08-.21,1.07-.44,1-.55.85-.08.28.11.22,5.35,3.68,2.33,1.8,1.38,1.18.92.75,2.5,2.39,2.1,2.36,1.43,1.66,1.6,2,1.46,2,1.93,3L203.8,153l1.87,4.13.94,2.52.23.65.44,1.26.1.44.82,2.7.15.61.59,2.59.67,4.35.37,3.33.24,3.89,0,4.19-.3,5.69-.35,3.22-.21,1.39-.34,2-.19,1.28-.43,2.67-.17,2.25v.68l0,.38v4.44l.16,2.05.09,1,0,.29.09,1.31,0,1.19.08.36-.12.34-.39,3.45-.33,1.93-.49,2.26-.15.52-.69,2.43-.79,2.37-.37,1.15-.19.18h-.32l-.21-.22-.27-.84-.48-2.76-.83-3.23-1.86-6.53-.17-1.62-.08-.14h-.09l-.22.26-.78,1.33-2.12,3-2.14,2.66-1.12,1.26-3,3.07-.89.81-2.13,1.89-1.73,1.43-2.5,1.86-3.16,2.1-2.8,1.66-2.89,1.47-3.32,1.43-3.14,1.1-3.11.9-2.49.63-3.72.73-4,.52-3.27.27-5.12,0-1.71-.14-.93,0-4.36-.53-4.47-.92-2.86-.75-.14.11-.06.16.05.89.11.69.33,2.14,2.07,10.25.3,1.94.26,1.75.07,2.64-.08,1.25-.3,1.32-.56,1.25-.7.87-.73.66-.69.4-1,.3-1,.09Z"/><path id="path404" class="cls-2" d="M130.94,263.17l-.77,0-.85-.26-.62-.4-.57-.69-.43-.92-.29-1.3-.07-1,.23-2.6.39-2.33.38-1.93,0-.5.59-2.94.66-3.82.09-.63.25-1.15.51-2.88.09-.11.1.17.28,1.85.43,3.14,1.39,7.16.18,1.15.38,2.35.18,2,0,1.64-.19,1.45-.34,1-.46.69-.52.46-.76.34-.36.09Z"/><path id="path408" class="cls-1" d="M204,259.2l-1.19-.15-.87-.27-.75-.46-.77-.71-.6-.91-.36-.83-.23-1-.09-1.38,0-.4,0-.3.2-1.9.65-3.2.77-2.87.42-1.38.58-2.07,1.22-4.17,1-4.38.48-2.81.13-.25.2-.1.19,0,.13.22.13.7.09,1.4.17,2.16.26,1.91.1,1,.48,2.91.18,1.11.7,3.29,1,4.88.25,2.34,0,1.79-.11,1.44-.28,1-.46,1-.51.7-.56.64-.59.42-.75.37-.77.19-.43,0Z"/><path id="path412" class="cls-1" d="M104.8,257.44l-1.27,0-1.07-.26-1-.5-.66-.53-.59-.62-.6-1-.33-.9L99,252.57,98.84,251l0-1.3.33-2.57.77-3.79.8-3.46.62-2.46.41-1.94.29-1.24.31-1.56,1-4.84.69-4.35.07-.91.18-.3.17,0,.19.08.1.35.34,2.78.7,4.26,1.43,6.8.67,2.74.06.36.29,1.27.48,2.49.31,1.54.44,3.09.1,2-.07,1.7-.26,1.37-.43,1.25-.37.7-.59.79-.39.4-.2.2-1.1.63-.88.3-.54.09Z"/><path id="path416" class="cls-2" d="M204,256.67l-.8-.05-.48-.2-.6-.53-.33-.52-.34-.92-.14-.82V252l.2-1.43.17-.84.18-1.16.9-3.75.79-2.84.74-3.52.12-.14.18.65.3,2.49.53,4,.3,1.76.58,4.35,0,1.13,0,.27v.47l-.15.87-.3.85-.47.72-.62.46-.75.29Z"/><path id="path420" class="cls-2" d="M104.56,254.81l-.73,0-.62-.17-.62-.37-.6-.58-.43-.7-.37-1-.16-.68,0-1.18.24-2.35.67-3.7,1.12-5,1.28-6.9.06-.11.12.3.38,2.73.52,2.48.15.87.94,4.23.32,1.93.21,1.13.3,2.3.07,2.13-.25,1.82-.27.8-.43.82-.57.64-.65.43-.63.19Z"/><path id="path424" class="cls-3" d="M153.05,239.76l-.61-.09-1.25-.4-.38-.27-.27-.41-.18-.59-.29-.73-.3-.25-.43-.25-.27-.34L149,234.9l-.06-1.47-.16-1.48.08-.23.51-.16.6-.06h.83l.15.09-.24.66,0,1.1.11.3.56.73.41.23.47,0,.34-.12.57-.6.28-.12.64-.16.11.06,0,.38v.32l.24.6.24.51-.06.48,0,.35.15.56.39.54,0,.36-.23.63-.36.59-.26.3-.31.16-.64.18-.3.08Z"/><path id="path428" class="cls-3" d="M142.62,239.72l-.47,0-.52-.11-.54-.05-.12-.1.35-.19,1.77-.65.61-.3.33-.39.35-.63.31-.2.66-.09.53,0,.06.09,0,.16-.21.13-.72.25-.19.22-.21.73-.26.33-1.69.79Z"/><path id="path432" class="cls-3" d="M146.65,236.46l-.34,0-.09-.38,0-.83.1-1.23,0-.68,0-.4.15-.73.11-.37.18-.09h.86l.22.12.12.41.23,1.94,0,1.59-.13.26-.21.12Z"/><path id="path436" class="cls-2" d="M161.81,234.23l-.61-.06-.61-.26-.59-.57-.34-.54-.46-1.2-.22-1.5,0-1.32.19-2.48.46-2.33.21-.73.05-.34.18-.79.45-1.88.17-.73.78-3.65.25-1.56.09,0,.12.44.26,1.64.43,2.21.53,2.23.36,1.23.47,1.82.44,2.47.15,1.76,0,2.25-.24,1.25-.43,1.08-.44.69-.53.47-.61.3-.43.12Z"/><path id="path440" class="cls-2" d="M95.74,232.83l-.59,0-.49-.2-.7-.54-.53-.75-.33-.77-.26-1.15-.1-1.27,0-1.63.35-2.57,1-4.56.54-2.56.09-.58.28-1.85.12-1.07.11-.56.2-2.33v-4l-.26-2.64L94.55,200l-.83-4.71-.4-2.24-1-6.79-.2-3,.15-6.48.84-6.46L93.8,167l.66-2.62,1-3.3,1.19-3.28,1.87-4.22,1.9-3.54,2.49-4,1.64-2.26,2.13-2.63,2.33-2.57,2.5-2.49,2.66-2.27,2.09-1.56,2.19-1.5.87-.55.2-.26.28,0,.34-.13.45,0,1,.22,1.07,0,.86-.19,1-.4,1-.59.9-.74.41-.39.26,0,.19.28.41.58.43.4.68.4.82.3.35.06,1.2,0,.83-.25.71-.4.84-.64,1.49-1.59,2.31-2.82.76-.63.76-.47.79-.3.68-.21.16-.21-.06-.25-.48-.16-.47,0-1,.16-.88.33-.87.5-.82.67-2,2.09-.59.66-.89.7-.6.23-.76.06-.75-.19-.42-.27-.34-.42-.24-.74v-.65l.25-1.06.6-1.22.8-1,.84-.77,1-.73,1.12-.56,1.64-.6,1.29-.27,2-.12,2,.22,1.34.33,2.22.9,1,.57,1.39,1.1.37.48.37.57.18.09.24,0,.14-.24.12-.68v-5.26l-.2-4.36-.2-3-.12-1.07-.18-2.66-.15-1.37-.48-4.92-.42-2.8L146,94.94l-.5-1.55-.46-.84-.72-.85-.27-.58-.06-.21,0-.78.43-1.68.86-2.06,1.14-2,1.63-2.45,1.63-2.13,2-2.23,2.66-2.7,1-.9,1.27-1.16,2.22-1.8,2.67-2,2.92-1.84,1.89-1,1.26-.56,1.14-.33,1-.06.51.19.37.44.08.57-.22,1.16-.73,1.66-2.2,3.38-1.06,1.4-.56.68-1.21,1.52-2.35,2.6L160,81.3l-3.83,3.26-2.28,1.71-1.1,1-.43.71-.24.58,0,.58.07,7.82.12,2.35,0,.36,0,.6v5.31l-.14,6.86-.06.78-.19,4.53-.23,3.92.11.33.15.12h.29l1.72-1.22.83-.43,1.32-.53,1.08-.27.59-.09,1.46,0,.9.23.72.3.89.56.6.6.6,1,.24.74,0,.78-.16.94-.33.77-.57.66-1,.67-.8.31-.21.22.11.23.25.17.6.06,1-.16.92-.37.72-.5.74-.82.43-.85.3-1,.08-.79-.11-1-.2-.6-.4-.79-.14-.23.27,0,1.1.73.56.43,1.27,1,.63.58,1.87,1.78.93.9,1.51,1.25,1.27.84.94.46.7.19,1,.07,1-.1.41.15,2,1.17,2.23,1.43,3.27,2.33,2.93,2.46.56.53,1.9,1.81.33.35,1.27,1.31,1.9,2.2.34.49.55.66,1.57,2.07.31.46,2.49,3.7.93,1.55,1.36,2.65.95,2.06.13.38.82,2,1.17,3.29,1,3.51.4,1.56.52,2.75.56,3.75.26,2.43,0,.45.08,1.38,0,1-.1.33.16.72,0,4.52,0,1.59-.05,2.05-.19,1.57-.07,1.34-.06.26-.09,1.17-.2,1.65-.7,4.32-.35,3.74-.15,1,0,4.79.16,4.88-.09,2.17-.16,1.4-.6,3.16-.26.72-.13,0-.16-.33-.78-2.36-.82-2.24-.45-2-.26-2.63.09-5-.14-2.23-.51-3.75-.56-2.66-.2-.77-.21-1.87.06-2.57.15-1.71.18-1.09,0-1.63-.15-1.13-.47-1.5-.4-.85-.5-.77-.7-.72-.57-.37-.67-.23-.67,0-.69.22-.65.5-.6.69-.4.73-.57,1.6-.26,1.33-.35,2.53-.5,1.71-.39,1.16-.49,2.54-.11,1.49,0,1.18.13.83.09.9.32,1.38.25,1,.18.64.76,3.46.16,1.86-.06.83-.29,1-.42.77-.44.49-.52.33-.3.09-.5,0-.42-.17-.45-.33-.44-.51-.36-.67-.23-1-.06-1.16.09-1.16.23-1.64,1-4.57.49-1.93.26-1.72,0-1.45-.17-1.06-.37-1.18-.57-1.2-1-1.52-1.27-1.56-1.33-1.2-1.73-1.27L183,184.32l-1.35-1.16-.75-.83-.7-1-1-1.66-1.4-2-1.2-1.2-1.06-.7-.82-.33-1-.27-.76-.08-1.13.05-1.3.3-.81.37-.9.66-.66.67-.67.95-.35.78-.38.78-.47,1.63-.38,2.61-.16,3.5,0,.45-.1,2.76-.25,2.42-.44,1.87-.66,2-.74,1.81-.65,1.49-.73,2.32-.4,1.74-.15.64-.08,0-.62-2.26-.93-2.26-.93-2L158,196.16l-.69-1.2-1-1.87-.6-1.46-.6-1.86-.67-3-.78-4.47-.59-2.2-.57-1.37-.5-.89-.53-.69-.16-.14-.37-.33-.46-.3-.59-.15h-.73l-.66.25-.55.43-.5.72-.6,1.34-.71,1.81-.57,1-.76,1-2.22,2.14-.67.93-.43.85-.32,1.13-.14.83-.1,2.7.2,3.1,1.07,6.13.09,2.16-.06.83-.19.79-.39.6-.43.32-.45.19-.47,0-.34-.2-.37-.39-.27-.49-.2-.63L139,203l.09-1.83.33-1.74.78-3.52.37-2.06.1-1.63-.19-1.69-.4-1.66-.66-1.92-.4-1.47-.29-2-.17-1.56-.25-1.16-.46-1.2-.67-1.13-.7-.85-.82-.64-.63-.33-.79-.2-.33-.06-1,.06-.87.23-.92.44-1.05.79-1.65,1.46-1.25.83-1,.5-1.64.53-2.68.62-1.19.46-.9.62L118.6,184l-.73,1.07-.5.92L117,187.1l-.29,1.34-.07,2,0,1.5,0,2.65-.27,2.26-.3,1.07L114.28,202l-.61,2-.1.1-.12-.55-.18-1.11-.84-2.51-.52-1.21-.6-1.76-.4-1.83-.22-1.74-.23-3.8-.19-1.16L110,188l-.43-.4-.35-.12-.43.06-.38.2-.33.35-.37.77-.33,1.25-.55,3.57-.43,1.52-.63,1.46-.29.63-.63,1.69-.27,1.12-.11.36-.17.22-.31,0-.24-.22-.2-.56-.37-1.38-1.06-2.71-.26-1-.3-2.26,0-2-.15-.47-.23-.29-.36-.14-.39.11-.31.39-.23.48-.37,1.27-.22,1.93L99.18,195,99,196.14,98,200.54,97,204l-.6,3.06-.32,2.29L96,211.42l.1,2.06.25,2.23.06.26.08.72.83,4.63L98,225l.25,2.58L98.24,229,98,230.19l-.41,1.16-.44.66-.19.16-.56.44-.69.22Z"/><path id="path444" class="cls-3" d="M152.62,231.53l-.33,0v-.09l.29,0,.09,0Z"/><path id="path448" class="cls-3" d="M146.52,231.07h-.93l-.21-.13-.47-.74-.19-.57-.19-1.48.06-1.05-.12-.24-.21-.13-.86-.18-.29-.22-.5-.84-.19-.62.05-.4.18-.24L143,224l.06-.31-.29-.8.08-.18.51-.15,1.34-.19.27-.13.11-.27-.08-.22-.21-.12-.87,0-1,.12-.31-.08-.16-.31,0-.48.1-.16.18,0,.57.06.44-.19.5-.39.67-.87.08-.25-.05-.48-.33-1.11L144,216l-.42-.69-.34-.59-.5-.74-.12-.33.06-.67.08-.37,0-.4-.24-.44-.47-.6-1.07-1.06-.48-.5-.71-.73-.25-.1-.72.05-.31-.19-.33,0-.54.07-.55-.18-.81-.39-1.12-.38-.16-.13v-.19l.28-.17,2-.54.29-.22v-.31l-.15-.19-.34,0-2.39.66-.36,0-.25-.12-.34-.32-.31-.12-.51.05-.77.22-.81.06-1.07-.07-.72.19-.94.46-1.15.27-.79.3-.17.22-.15.57-.28.17-.85.17-.12.09-.11.55-.32.32,0,.39v.25l-.2.26-.93.41-.32.33-.58.86-.62.53-1.46,1.08-.54.58-.4.69-.43,1-.21.56-.47.72-.07.21.05.4.32.66.15.48.39.45.18.44,0,.21-.17.08-.71-.15-1.14-.32-.49,0-.24.12-.11.2.07.22.6.23,2,.61.19.16,0,.29,0,.43.09.21.32.42,0,.26-.26.26-1,.5-.33.33-.23.63-.11.51-.18.15-.32-.06-1-.47-3.38-1.89-3.5-2.27-2-1.4-1.55-1.29-.15-.31,0-.45.23-.63.18-.13.32.06,2.26,1h.34l.15-.21,0-.35-.19-.23-2.5-1.21-.27-.28,0-.13.07-2.06-.12-1.53.08-.28.24-.09.7,0h.8l1.9-.14.21-.09.17-.24,0-.22-.19-.16-.46,0-3.33.1-.22-.09-.16-.24-.44-1.56-.5-1.19,0-.22.09-.21.76-.5,5-2.8.43-.39,0-.23-.12-.17h-.29l-.8.4-4,2.35-1.1.6-.32.05-.25-.15-.48-.76-1.16-1.43-1.35-1.26-1.07-.81-.09-.18.12-1,.35-2.11.12-.94.13-.28.09.09.68,2.83.53,1.49.87,1.6.83,1,.67.7.17.12.18,0,.25-.93.48-.92.54-1.5.54-1.84.53-1.17.39-.76.77-1.93.31-1.37.2-1.39.1-.18.12.1.22,1.09.1,1.07.46,2.23.86,2.52.46,1.12.37,1.27.22,1.58,0,1.65-.09,1.08-.39,2.13-1.15,4.12-.44,2.85,0,.92.14,1,.29.95.4.83.48.63.61.5.65.33.53.13.93,0,.73-.25.68-.43.6-.64.44-.65.4-1,.22-1.11v-1.36l-.21-1.92-1.06-5.87-.06-.67,0-1.63.39-1.73.76-1.89,1-2,.83-2.26.39-1.66.27-2,0-2.09-.07-.64,0-1.66.19-1.07.23-.89.33-.65.6-.77.63-.56,1.06-.64,1.75-.66,2-.61,1.66-.8,1.26-.8,2.27-1.72,1.19-.73.82-.34.6-.12.61.06.74.26.29.23.47.66.3.81.61,3.76.57,1.72.88,1.87.27.84.21,1.59v1.29l-.22,1.79-.6,2.77-.32,1.08-.47,2-.18,1.45v1.89l.22,1.21.44,1.11.47.78.59.67.79.57.68.27.51.08.89,0,.9-.27.55-.33.64-.57L144,206l.4-.88.29-1.1.1-.84-.06-1.46-.36-2.38L143,193l-.06-.6,0-2,.19-1.15.27-.67.43-.69.56-.6,1.72-1.34.8-.8.67-1,.4-.79.48-1.45.4-.66.29-.26.35-.08.38.14.46.46.54.84.53,1.25.6,2.22.47,2.31.27,1.5.54,1.74.63,1.67.7,1.43.25.45.55,1.08,1.62,2.95,1.76,3.86.7,2,.6,2.64.24,1.72,0,1.62-.18.8-.16.13h-.33l-.56-.27-.4-.39-.15-.37-.17-.72-.28-.37-.36-.19-.35.06-1,.63-.59.59-.7.43-1.53.51-.84.56-.55.12-.62,0-.33-.14-.23-.25-.3-.79,0-.83.16-.87-.07-.38-.63-.53-.4-.17-.38,0-.87,0-.86-.16-.54.06-1.8.62-.69,0-.25.17-.14.22h-.16l-.3-.67-.31-.76-.15-.19-.29,0-.25.15-.07.31.8,2.39.07.49-.07.39-.54.7-.1.32.11.23.59.44.47.24.3.35.43,1.47.7,2.81.62,3,0,1,.12.31.22.3.37,1.7.74,4.79.18,1.69-.12.25L147,231l-.5,0Z"/><path id="path452" class="cls-3" d="M148.89,230.83l-.26-.12-.08-.24-.13-1.67.08-.05.43.39.39.13,1.07.07.56-.11.11.06,0,.25-.28.56,0,.42-.26.12-1.22.16Z"/><path id="path456" class="cls-3" d="M152.18,230.47l-.38-.06-.05-.21.16-.35,1-1.59.27-.45.67-.73.6-.42.75-.4.25,0,.23.17.09.22-.06.43-.26.48-.69,1-.6,1-.63.62-1.13.22-.23,0Z"/><path id="path460" class="cls-3" d="M148.45,228.37h-.1l-.22-1.18-.66-4.31-.22-.88,1.8-.44,1-.21,2.26-.54.43.05.35.36.09.36-.12.66.14.41.32.3.37.28.11.23-.18.46-2.42,2.54-.54,1-.4.39-.58.19-1,0-.32.12-.15.21Z"/><path id="path464" class="cls-3" d="M116.68,226l-.8-.06-.65-.17-.52-.33-1.1-.79-.47-.31-1.7-1.42-.32-.12-1,.17-.41-.16-.8-.66-2.16-2-1-1.06-.18-.31.15,0,2,1.43.8.59,3.64,2.49,1.63.92,2.12,1.18.8.41.08.13-.16.12Z"/><path id="path468" class="cls-1" d="M148.78,224.44l-.35-.09L148,224l-.11-.32,0-.29.29-.32.45-.2,1-.2.61,0,.35.12.14.28-.11.6-.17.44-.24.13-.68-.11-.86.34Z"/><path id="path472" class="cls-3" d="M147.59,221l-.43,0-.19-.22-.63-2.84-.55-2.54,0-.32.32,0,.59.11.49-.05.22-.11.3-.22h.34l.79.19.3.18.27.32.48,1,.49.55,0,.36,0,.5.16.34.39.37.24.77.36.4V220l-.37.17-1.84.46-1.73.39Z"/><path id="path476" class="cls-2" d="M113.39,218.45l-.5-.06-.48-.27-.3-.32-.26-.62-.09-.63.06-1.37.36-2.42,1.2-6,.06-.08.09.16,1,7,.07,1.49,0,1.53-.19.83-.3.49-.34.26-.3.09Z"/><path id="path480" class="cls-3" d="M104.63,217.55l-.27-.09-.51-.53-1.36-1.79-1.23-1.86-.51-.78-1-1.49L98.66,209l-.37-1-.05-.47.19-.88.66-2,.49-1.31.21-.59.21-.09.29.07,1,.8.67.72,1.13,1.44.63,1,.64,1.32.5,1.39.26,1.1.25,1.63,0,1.81-.14,1.47-.38,1.72-.2.38-.11.06Z"/><path id="path484" class="cls-3" d="M175,212.58l-.51-.05-.45-.11-.53-.06-.28-.25-.17-.29,0-.23.15-.25.23-.1.48-.11.42-.49.43-.43,1.78-1.33.19,0,.07,0,0,.24-.46.72-.66.68-.15.38,0,.31.26.2.42,0,1.12-.32.42-.3,1.54-1.79.08-.25.09-.4.33-.61.36-.27.39-.09.45,0,.19-.11.11-.3v-.79l.27-.46.75-.52.37-.29.83-.27.73-.5.26-.16.37-.09.93,0,.64-.2.23-.12.3,0,.2.31,0,.42-.26.32-.73.4-.66.28-.68.5-1.3,1.89-.63.56-.4.2-.55,0h-.25l-.42.16-.64.6-.43.59-.8,1.23-.38.7-.28.33-.45.17-.69.15-.33-.12-.45-.29h-.36l-.46.3-.23.16-.59.12-.23,0Z"/><path id="path488" class="cls-3" d="M199.4,211.75l-.21-.07-.08-.3,0-.55.06-.64-.09-.39-.42-.46-.27-.26-.09-.22,0-.37.3-.64.3-.47.1-.57-.07-.51-.33-.65-.4-.38,0-.61.54-1.47.12-.63-.12-.27-.29-.27-.71-.54-.29-.36v-.29l.27-.48.65-1.14.47-1,0-.45-.19-.14-.2.07-.47.79-.44.87-.7,1-.28.2-.24,0-.62-.36-.64-.08-.27-.17-.17-.4-.37-1.68-.12-1,0-1.76.2-1.6.52-1.84.75-2.22.19-.84.1-1.76.16-.62.47-.79.48-.4.39-.12.42.05.43.23.33.42.37.67.36,1.2.12.86v2.06l-.16,2.2-.16,1.1-.05,1.13.32,2.95.24,1.18.42,1.46.47,2.44.21,2.24,0,2.47-.12,2.11-.12.42-.9,1.52-.21.19Z"/><path id="path492" class="cls-3" d="M166.73,211.69l-.31-.09-.73-.5-.5-.39-.29-.06-.73.24-.7,0-.18-.13-.12-.48,0-1.21.14-.43.21-.12.83.07.44,0,.59.12.28.24.7,1.24.32.61.25.52v.29l-.18.15Z"/><path id="path496" class="cls-3" d="M168.23,211.22l-.32,0-.26-.31-1.33-2.36-.14-.43.08-.47.26-.45.39-.3.42-.08.72,0,.36-.17.81-1.26.49-.46.15-.06.83,0,.18-.12.07-.27-.23-.35-.51-.3-.44-.12-.52.06-.54.11-.71,0-.68-.28-.34,0-.45.3-.6.55-.49.34-.9,0-.14-.07-.11-.44-.22-.2-.06-.12.06-.35,1.7-3.62,1-2.53.64-2.15.3-1.45.34-2.33.25-4.49.12-3.53.26-1.37.3-1.07.57-1.21.63-.82.67-.56.78-.37.86-.22h.9l.81.15.91.34,1.06.69.76.8.87,1.32,1.41,2.65.73,1.08.67.77,1.28,1.13,1.41,1,2.54,1.45,1.88,1.23.9.87.73,1,.57,1.24.16.83.1,1.73-.19,1.85-.17.83-.12.13-.19,0-.5,0-.33,0-.5,0-1.34.32-.22,0,0-.24.4-.55,1.75-2.26.8-1.17.13-.35-.06-.45-.2-.11-.22.15-1,1.29-1.88,2.46-.51.46h-.29l-.49-.39-3.46-3.54-3.9-4.29-.44-.56L175,187.17l-.28-.56.05-.24.42-.41,1.27-1.09,1.44-1.31.17-.33-.11-.32-.22-.06-.2.12-2.08,1.79-1.05.8-.36.09-.21-.12-1.13-1.39-.91-1.23-.56-.78-.68-1-.18-.29-.18-.25-.2,0-.19.17-.09.21.05.33.36.62,2.74,3.72.36.43.11.29-.28.35-2.46,2L168.92,190l-.24.34v.36l.09.09.27,0,.54-.34,2.1-1.65,1.16-.94.76-.54.29-.1.21.08.53.62,2.15,2.63.59.67,1.61,1.86,4.72,5.13.23.2.83.84.08.23-.07.13-1.9.46-.45,0-.53-.13-.79,0-.43-.2-.45-.32-.3-.09-.54,0-1.15.44-.55.3-.27.29-1.07,1.37-.4.29-.49.28-.51.55-.19.45-.13.47.06.56.2.39.32.26.29.09L177,205l.18.09.08.23-.43,1.39,0,.79-.22.28-1.4,1.1L175,209l-.36-.06-.82-.32-.82-.19-.59,0-.42.2-.33.46-.78,1.51-.26.25-.32.06-.63-.24-.35.06-.75.39-.3.12Z"/><path id="path500" class="cls-1" d="M117.42,210.49l-.51,0-.24-.14-.07-.23.11-.22.54-.16,3.1-.32,3.38-.57.19-.13,0-.3-.4-1.21-1.14-2.9-1.16-2.47-.72-1.43-.78-1.74-.21-.21-.21,0-.42.11-.18-.09,0-.23.19-.32.23-.27,0-.29,0-.36.12-.23.22,0,.45.41.36,0,2.22-1.29,1.78-.94,5.18-3,4.06-2.38.54-.4.07-.25-.18-.54-.8-1.44-1.41-2.22-.47-.74-.8-1.25-.11-.33,0-.24.18-.11.21,0,.47.56,1.53,2.2,1.5,2.49.47.88.29.29.31,0,1.36-.75.38,0,.19.21,0,.3-.21.24-1.15.71-.24.26-.05.35.25.58,1.72,3.2.41.88.06.43-.13.28-.16.08-.2-.11-.43-.69-1.91-3.77-.43-.62-.26,0-.88.4-1.18.73-.87.47-.42.29-.38.14-4.36,2.53-5.87,3.3-.19.2,0,.36,1.49,3,.91,2,.72,1.73,1.17,3.38v.28l-.32.39-.15.47-.38.13-4,.59-2.46.27Z"/><path id="path504" class="cls-3" d="M125.61,210l-.28-.05-.09-.18.05-.22.19-.13.36-.09.39,0,.1.12,0,.2-.45.23-.23.09Z"/><path id="path508" class="cls-1" d="M145.52,203.59l-.21-.09-.06-.31.13-.24.7-.3,1.33-.51,3.49-1.53,3.5-1.7,1.39-.76h.26l.17.19,0,.24-.14.2-.89.53L151,201.38l-3,1.33-2.22.83-.27.05Z"/><path id="path512" class="cls-3" d="M124.08,171.73l-.28-.15-.09-.22,0-9.79.1-.24.32-.12h6.48l.28.12.12.41,0,1.39-.11.28-.21.12h-4l-.41.13-.12.34v.83l.11.25.41.12h3.07l.24.12.1.28v1.62l-.09.28-.21.13-3.18,0-.35.13-.12.31,0,1,.12.21.28.08h4l.38.13.1.14v1.73l-.12.21-.22.09-6.62,0Z"/><path id="path516" class="cls-3" d="M160.84,171.59l-1.88,0-.25-.11-.11-.28,0-7.4-.11-.26-.25-.11-2.18,0-.23-.16-.09-.32V161.4l.09-.17.38-.13,7.52,0,.46.12.12.16V163l-.17.27-.34.09-2.19,0-.24.12-.09.24,0,7.43-.12.24-.25.12Z"/><path id="path520" class="cls-3" d="M168.13,171.56H166.7l-.28-.12-.11-.3,0-9.62,0-.29.18-.12h1.76l.31.13.12.31v2.93l.09.44.23.14,3.61,0,.38-.13.1-.29,0-3.3.11-.17.31-.11h1.64l.28.12.13.24,0,9.62-.11.33-.21.12-1.87,0-.18-.12-.09-.36v-3l-.09-.35-.24-.12H169l-.15.15-.07.39,0,3.13-.09.21-.27.16-.27,0Z"/><path id="path524" class="cls-3" d="M139.22,166.9l.17-.12,0-.26-1.1-3h-.12l-1,2.91-.1.28.18.13,2,0Zm-5.78,4.76-.22-.09-.05-.11,3.22-9.94.22-.32.22-.09,2.56,0,.35.12.2.29,4,9.71,0,.26-.25.12-1.83,0-.54-.12-.2-.26-.55-1.62-.26-.18h-3.62l-.33.16-.51,1.61-.17.25-.44.15Z"/><path id="path528" class="cls-3" d="M150.38,165.77l.43-.16.35-.3.18-.33.06-.56-.17-.5-.46-.36-.65-.16-1.7,0-.26.12-.09.25,0,1.72.08.21.32.12h1.69Zm1.8,5.82-.31-.12-2.11-3-.31-.23-1.22,0-.09.1,0,.26,0,2.54-.08.28-.31.14H146l-.25-.12-.11-.27,0-9.66.14-.31.27-.09h5l.94.16.68.27.62.43.53.62.37.8.12.62-.08,1-.14.58-.33.64-.57.7-.62.5-.05.19,2.31,3.69,0,.18-.24.09-2.27,0Z"/><path id="path532" class="cls-3" d="M145,158.31l-.27-.12-.09-.28,0-9.57.12-.28.21-.09,1.67,0,.36.12.11.21v3.09l.11.36.25.12h3.49l.28-.09.13-.23v-3.06l0-.31.16-.15.25-.06h1.7l.35.12.11.4,0,9.37-.12.35-.34.12-1.81,0-.24-.11-.09-.25,0-3.25-.13-.21-.41-.09h-3.3l-.24.09-.12.28v3.09l-.13.35-.41.12Z"/><path id="path536" class="cls-3" d="M139.46,158.34h-1.83l-.28-.12-.09-.21,0-7.38-.11-.29-.38-.12h-2.31l-.22-.16-.09-.42v-1.23l.13-.28.27-.12,8.08,0,.3.08.14.29,0,1.7-.27.2-.43.06-2.19,0-.21.09-.1.17V158l-.08.2-.28.15Z"/><path id="path540" class="cls-3" d="M163.93,158.25l-6.26,0-.34-.13-.11-.33,0-9.53.1-.24.31-.12h6.27l.38.12.12.24,0,1.58-.1.24-.26.13-3.77,0-.35.12-.08.18,0,.72.1.37.17.12.35.05,2.86,0,.32.12.11.27v1.73l-.15.23-.31.11h-3l-.28.13-.08.27,0,.88.15.2.19.06h4l.31.12.09.24V158l-.21.18-.44.06Z"/><path id="path544" class="cls-3" d="M127.71,146l-1.14-.06-1.06-.23-.76-.3-1-.66-.7-.67-.57-.85-.43-1.1-.21-1,0-1,.15-1,.33-1,.44-.83.53-.7.8-.69.79-.47,1.1-.37.85-.15.87,0,1.45.16,1.24.37.46.26.16.22.06.26V138l-.13.23-.19,0-1.29-.63-1.13-.26-.83,0-.84.12-.72.34-.52.36-.46.56-.3.65-.19.8,0,.78.2.76.43.71.56.53.63.36.87.27,1,.05.94-.15.75-.34.73-.46.25-.16.14,0,.1.19,0,1.75-.12.39-.35.35-.76.37-1.2.32-.86.1Z"/><path id="path548" class="cls-3" d="M150.68,145.22H148l-.21-.09-.17-.28-3.07-9.24,0-.47.11-.14.52-.13,1.43,0,.31.09.2.37,2.08,6.83.16.18h.2l.07-.16,2.1-6.7.25-.49.38-.21,1.48,0,.44.12.08.18-.11.53L151.06,145l-.18.14-.2.05Z"/><path id="path552" class="cls-3" d="M156.74,145.15l-.24-.08-.23-.3v-9.6l.08-.22.19-.13.29,0,6.26,0,.35.13.08.2v1.53l-.11.38-.33.14h-3.91l-.18.12-.08.25v.92l.08.26.34.12,3.1,0,.37.12.13.28v1.68l-.18.14-.3.05h-3.21l-.24.09-.13.2,0,1,.12.31.24.09,4.11,0,.23.13.09.28v1.56l-.12.24-.24.09-6.6,0Z"/><path id="path556" class="cls-3" d="M138.56,143.29l.82-.25.5-.34.53-.6.33-.69.19-.85v-.89l-.22-.86-.46-.76-.63-.6-.68-.36-.83-.16-.67,0-.77.23-.65.4-.52.56-.4.71-.19.87,0,1,.22.72.44.75.56.5.58.34.87.23.8,0,.16,0Zm-.36,2.36-1.17,0-.87-.15-.92-.4-.72-.47-.8-.73-.66-1-.44-1-.19-1v-1.46l.26-1.06.37-.88.73-1,.8-.74.71-.43.83-.33,1.37-.26,1.3,0,1.06.25,1.15.5,1,.8.59.75.3.56.37,1,.18,1.06v1.07l-.18,1.14-.37.95-.6.95-.56.6-.73.5-.89.43-1,.3-.88.12Z"/><path id="path560" class="cls-3" d="M171.09,139.53l.56-.16.42-.32.23-.39.1-.63-.16-.46-.27-.29-.41-.19h-2.32l-.24.12-.09.21,0,1.68.09.31.25.13Zm3.87,5.53-2.13,0-.34-.13L171,142.38l-.29-.37-.39-.12h-1l-.29.11-.11.25v2.47l-.13.21-.21.09H167l-.34-.12-.1-.22v-9.77l.18-.16.36-.05h4.46l1.19.14.57.18.65.4.5.52.34.61.26.89.08.68-.05.77-.26.76-.34.56-.45.46-.67.5,0,.21,1.86,3.13.1.34-.12.15-.22.06Z"/><path id="path564" class="cls-2" d="M122.45,127.51l-.86-.06-.82-.27-.67-.52-.3-.43-.26-.58-.22-1,0-1,.26-1.26.34-.81.93-1.53,1-1.1.62-.57,1.81-1.3,2.12-1.13,2.14-.86,3-.74,1.59-.22,2.2-.07,1.79.19,1.47.3,1.48.43,1.67.74,1.15.66,1.54,1.17,1.19,1.2.64.89,0,.15-.31-.15-1.13-.79-1.73-.87-1.63-.56-1.49-.33-1.87-.23-1.8,0-1.77.33-1.54.46-1.54.73-1.35.84-.83.73-1.07,1.19-1.36,2.06-1.28,2.27-.87,1L124,127l-.85.37-.73.16Z"/><path id="path568" class="cls-2" d="M176.33,126.64l-.84,0-.72-.2-1-.64-2.46-2.19-1.74-1.52-.9-.71-.79-.66L166,119.4l-1.19-.63-1.92-.8-1.64-.36-1.62-.19-1.07,0-1.31.25-1.64.54-.36.13-.11,0,.3-.32.74-.51,1.7-.89,1.51-.64,2.35-.63,1.41-.26,1.47-.16,2.57.07,1.86.22,1.94.43,1.41.53,1.27.6,1.19.77,1.59,1.33,1,1,.7,1.17.38.91.21.88,0,1-.16.81-.26.65-.49.65-.67.44-.81.25Z"/><path id="path572" class="cls-1" d="M158.31,125.91l-.25-.06-.26-.35-.41-.77-.54-.73-.58-.5-.89-.47-.74-.19-.66,0-.8.12-.18,0-.05-.25.12-.24.49-.4.75-.37.6-.15.77,0,.85.19.64.39.45.47.33.52.21.71.2,2Z"/><path id="path576" class="cls-2" d="M146.35,117.58l-.34-.25-1-1-1.5-1.23L142,114l-1.69-.83-1.6-.57-2-.5L135.2,112l-.77-.07-1.93,0-1.88.29-2.35.63-2.24.86-.89.19-.74-.06-.65-.23-.45-.37-.23-.38-.15-.63.11-.89.34-.83.5-.72.65-.57.93-.63,1-.5,1.36-.43,1.64-.36.93-.1,2,0,2,.35,1.74.6,2.42,1.2,1.9,1.23,1.63,1.24,1.83,1.79,1,1.23,1.1,1.72.35.75,0,.15-.05.09Z"/><path id="path580" class="cls-2" d="M154.15,117l-.09,0,.31-.72,1.16-1.64,2.23-2.4,1.63-1.29,2-1.3,2.15-1.13,2.14-.77,1.62-.32.8-.1,1.66,0,1,.19.7.3.66.42.47.48.33.59.12.52,0,.62-.3.69-.47.6-.77.43-1.23.37-1.27.12-5.1.3-1.87.29-1.29.33-1.7.57-1.25.53-1.83,1-1.59,1.22-.15.09Z"/><path id="path584" class="cls-2" d="M153.35,115.19l-.08,0,0-.48.5-2,.67-2.12,1.07-2.4,1.19-2.19.8-1.12,1.44-1.6.61-.6,1-.8,1.06-.67,1.32-.53.8-.19,1.2,0,.69.23.59.45.33.42.21.65.05.68-.19.59-.44.66-.76.73-1.2.77-1.76.9-1.57.77-1.17.77-2.31,1.73-1.44,1.4-.93,1.15-1,1.65-.58,1-.14.16Z"/><path id="path588" class="cls-2" d="M146.59,115.12l-.21-.21-1.08-1.7-.83-1.1-1.57-1.63-2-1.67-2.25-1.43-3.73-2-.9-.66-.57-.62-.4-.76-.15-.57,0-.74.3-.68.42-.42.52-.3.57-.15.8,0,1.06.23,1.39.66,1.32.83,1.81,1.59,1.35,1.48,1.5,2,.9,1.55.7,1.6.6,1.89.47,1.93.05.73-.06.17Z"/><path id="path592" class="cls-3" d="M142.22,87.41l-.27,0-.44-.42-.33-.47-.09-.32,0-.59.17-.76,1-2.4,1.33-2.29,2.24-3.23,2.59-3.06,1.14-1.21,1.6-1.59,2.52-2.2,3.52-2.66,2.54-1.57,2.62-1.46,2.1-.9,1.39-.29.52.09.56.47.19.34,0,.22-.25.22-2.41,1.08-2.42,1.37-1.3.85-.63.41-2.53,1.83-.7.59-2.1,1.71-2.8,2.5-2.33,2.56-.61.72L148,78.18l-2,2.73-1.44,2.2-1.63,3-.48,1.14-.18.21Z"/><path id="path596" class="cls-3" d="M138.69,85.65l-.43,0-.34-.27-2-2.29.28-1.19,0-.49-.18-.35-1.06-1.23-2-2.2-4.63-5-4.93-5.33-1.86-2.1-.62-.64L120.5,64l-.07-.47.14-1,.53-1.84.87-2.16L123,56.42l1-1.82,1.06-1.6,2.3-3,1.43-1.57,1.77-1.7,1.25-1.06,1.87-1.44,2.67-1.7,2.82-1.46,2.25-.93,1.77-.6,1-.22,1,0,.55.16.39.3,1.9,2.06.57.66,1.9,2.13,1.09,1.21,4.61,5,.95,1,.55.66L162.09,57l.38.24.37,0,.83-.16.5,0,.34.23.7.76.41.53.46.53,0,.29-.19.49-.33.82-.29.13-1.32.41-2.88,1.3-1.77,1-4.22,2.79L153,68.09l-2.75,2.46-2.35,2.37-1.71,2-1.08,1.36-1.7,2.35-1.7,2.73L140.88,83l-.53,1.21-.34,1-.13.12-.39.09-.44.06-.36.14Z"/><path id="path600" class="cls-3" d="M134.33,85.15l-.21-.12-.73-.77-.38-.52-1.62-2.3-1.13-1.81-.83-1.52-.25-.64v-.11l.28.09,1.47,1.43,2.39,2.73.47.75.07.42-.17,1,.14.47.52.76v.16Z"/><path id="path604" class="cls-2" d="M137.36,77.39l-.76,0-.86-.23-.93-.5-.92-.74-1.2-1.26-1.4-1.82-1-1.61-.51-1.27-.29-1.09-.09-1,.11-.92.28-1.07.65-1.36,0-.33-.57-.89L128.6,61.6l-.65-.93L126.7,59l-.25-.5.08-.41.53-.92.47-.65.28-.06.21.12,1.56,1.92L136.84,68l2.08,2.76L140,72.14l.83,1.1.09.26,0,.32-1,1.62-.73.9-.59.49-.65.37-.64.19Z"/><path id="path608" class="cls-3" d="M137,74l-.58,0-.7-.31-.67-.53-.83-.9L133,70.51l-.5-1-.3-.9-.06-.33,0-.62.16-.5.14-.15h.25l.37.38,4.26,5.47.26.5,0,.21-.22.25L137,74Z"/><path id="path612" class="cls-2" d="M141.63,72.7l-.25-.13-2.44-4.36-2.69-4.65-3.29-6-2.47-4.65-.05-.34.22-.44.7-.83.32-.3.33-.3.28-.08.29.15.86.83.54.56,6.5,6.8,1.1,1.08.12,0-.06-.23L139.87,57l-4.78-7.3-.5-.89V48.5L135,48l1.19-.9.51-.21.25,0,1.1.9.63.62,9.69,9.27,4,3.76.22.34,0,.28-.62.5-1.13.73-.31.08-.33-.14-.6-.59-2-2.07-1-.94-.8-.86-.6-.63-3.2-3.34L140.15,53l-.37-.2.1.3.5.86,1.89,3,2.27,3.67,1.06,1.59.94,1.5,1.22,1.9.09.35-.15.31-1.47,1.37-.24.12-.26-.06-.5-.45-2.72-2.87-1.59-1.77-5-5.18-.27-.18,0,.12.3.65,3.32,5.57,3.83,6.8.14.48-.17.34-1.1,1.36-.31.19Z"/><path id="path616" class="cls-3" d="M119.25,62.54l-.25-.09-.53-.62-.15-.39,0-.73.15-.8.67-1.93.83-1.89,1.27-2.25,2-3,.48-.71,1-1.19.78-1,.32-.33,1.81-1.93.86-.83.73-.61.94-.82,2.39-1.77,2.46-1.5,2.41-1.3,2.28-1,1.91-.6L143,37l.55,0,.32.14.64.62.11.24-.1.13-1.92.37-2.23.77-2.92,1.37-2.07,1.13-2.88,1.93-2.11,1.7-1.49,1.33-1.56,1.66-2.17,2.66-1.43,2L122,55.86l-1.26,2.5-.7,1.79-.65,2.23-.14.16Z"/><path id="path620" class="cls-2" d="M154.18,60.48l-1-.16-.89-.33-.88-.53-1.83-1.6-.63-.73-.08-.21.11-.22.49-.33,1.19-.63.3,0,.27.16.61.59.57.53.72.47.7.17.38-.07.29-.22.11-.42-.18-.5-.56-.65-.63-.53-1.32-.84-1.73-.83-3-1.28-2.76-1.36-1.62-1.1-.87-.85-.66-.9-.37-.9-.15-.82.05-.77.2-.67.43-.67.59-.54.71-.33,1-.22h1.07l.83.19,1.15.47,1.53,1,1.13,1,.24.4-.11.25-.75.44-1,.39-.33,0-.41-.26-.81-.72-.81-.47-.74-.19-.48.09-.29.26-.13.35,0,.4.23.45.59.6,1.13.76,1.31.7.62.23.3.12.33.18,3.05,1.28,1.6.8,1.58,1,1,.79.74.77.63.9.34.73.22.9,0,.71-.11.62-.34.62-.49.58L156,60l-.79.33-.6.12Z"/><path id="path624" class="cls-3" d="M166,55.25l-.31-.23-.64-.55-.42-.19-.47.06-.36.11-.39-.06-.65-.6-1.41-1.52L158.8,49.6l-.13-.28.36.06,1.69,1L163,52l1.8,1.6,1.16,1.3.1.25,0,.06Z"/><path id="path628" class="cls-1" d="M187.59,254c.57,0,1-.09,1-.73s-.61-.63-1.08-.63h-.84V254Zm-2.15-2.28h2.08c1.41,0,2.22.42,2.22,1.66,0,1-.62,1.41-1.47,1.48l1.47,2.4h-1.22l-1.32-2.35h-.57v2.35h-1.19v-5.54Zm2,6.66a3.89,3.89,0,1,0-3.54-3.87,3.62,3.62,0,0,0,3.54,3.87m0-8.84a5,5,0,1,1-5,5,5,5,0,0,1,5-5"/></svg>