<svg id="Layer_1" data-name="Layer 1" xmlns="http://www.w3.org/2000/svg" viewBox="0 0 300 300"><path id="Fill-78" d="M155.91727,145.24188c-22.34915-34.82861,14.00679-47.57326,31.83771-67.44882,7.19757,16.15578,18.667,47.92973-11.184,57.19948-8.23078,2.80253-16.7615,6.87009-20.65372,10.24934" fill="#4aa19a" fill-rule="evenodd"/><path id="Fill-80" d="M142.06683,177.1958C177.18236,127.55471,213.54264,141.634,250,154.93505c-36.74429,35.02424-73.97546,50.61922-107.93317,22.26075" fill="#96bf53" fill-rule="evenodd"/><path id="Fill-82" d="M140.4401,122.05024c-30.92624-13.05185-30.54369-35.97628-22.439-54.67229,0,0,41.65377,10.48119,22.439,54.67229" fill="#9c4364" fill-rule="evenodd"/><path id="Fill-84" d="M115.508,149.92733c-5.89921-6.915-12.71567-9.67984-21.61446-7.85111a62.60949,62.60949,0,0,0-23.42146,10.02183c-8.84662,6.02672-13.83145,12.31572-16.56153,16.96581a23.79877,23.79877,0,0,0-3.898,12.16792c-.6173,16.11665,21.72894,31.7015,43.25211,43.8187,21.52462,12.11719,35.89078,10.87967,35.48358-12.4447-.23185-13.29239-2.93583-50.59893-13.24022-62.67845" fill="#d23331" fill-rule="evenodd"/><path id="Fill-86" d="M174.703,142.88843c-10.67391-9.89721-25.91385-15.31821-38.91933-8.82055-12.278,6.134-17.39186,18.30332-21.66518,30.635a274.45943,274.45943,0,0,0-7.74823,28.8671c-5.38188,23.58086,7.812,26.14862,30.08287,16.77889,19.22493-8.08731,40.38727-16.51371,45.049-29.43225,4.68631-10.24209,5.46012-26.66015-6.7991-38.02817" fill="#d5dc50" fill-rule="evenodd"/><path id="Fill-88" d="M168.60091,138.05793c-5.32391,2.31273-10.0595,4.90223-12.68379,7.18163a45.63865,45.63865,0,0,1-6.26871-13.94014,38.59778,38.59778,0,0,1,18.9525,6.75851" fill="#429352" fill-rule="evenodd"/><path id="Fill-90" d="M181.50829,180.912c-1.41287,3.90237-4.32406,7.3932-8.238,10.58263-10.62757-1.27809-21.06672-5.82384-31.20448-14.29517,11.8071-16.68614,23.7562-26.179,35.80673-30.91464,8.90461,11.06082,7.87139,25.36757,3.63575,34.62718" fill="#80b755" fill-rule="evenodd"/><path id="Fill-92" d="M128.7598,213.21685c-17.50923,5.57026-27.11227,1.06654-22.38828-19.6437a273.32965,273.32965,0,0,1,7.74823-28.87c1.25634-3.61256,2.57937-7.21351,4.13422-10.65942,8.04964,14.87334,10.2841,46.53282,10.49422,58.56162.01161.2.01161.41154.01161.6115" fill="#a63635" fill-rule="evenodd"/></svg>