<svg xmlns="http://www.w3.org/2000/svg" viewBox="0 0 300 300"><g id="Logos"><path d="M143.27887,188.39962C97.34812,151.62479,78.18672,104.40046,30,104.40046v83.99916Z" fill="#fff"/><path d="M240.9651,103.14047c-9.37911,0-17.76463,4.08-22.627,10.0703v-35.21H206.99823v83.99916h9.33591l1.19759-8.82951c3.29276,4.40875,10.00069,10.0895,22.88857,10.0895,17.31343,0,29.5797-12.37668,29.5797-29.9205s-11.76949-30.1989-29.0325-30.1989Zm-3.10556,49.5979c-12.48947,0-19.9462-7.43512-19.9462-19.5214s7.63913-19.5214,19.9462-19.5214,19.9462,7.43512,19.9462,19.5214S250.16662,152.73837,237.85954,152.73837Z" fill="#fff"/><rect x="187.25843" y="78.00072" width="11.33989" height="83.99916" fill="#fff"/><path d="M155.20435,153.468c-8.27033,0-16.95344-4.03436-21.61659-9.8327l-7.64872,7.27912c7.45913,8.45272,17.215,12.34548,28.77572,12.34548,15.86624,0,25.82373-7.06793,25.82373-18.98621,0-24.775-43.03877-9.2807-43.03877-23.24377,0-5.10955,5.95914-8.00392,15.23985-8.00392,8.27032,0,14.24146,2.68078,17.95422,6.51354l7.64872-7.27912c-5.06394-5.448-14.59906-9.11991-25.31734-9.11991-16.03424,0-26.58214,7.58632-26.58214,19.591,0,24.09336,42.86837,8.76952,42.86837,22.81657,0,4.93915-5.58715,7.91752-14.10945,7.91752Z" fill="#fff"/><path d="M268.73761,179.9997H146.15884c25.30294,20.647,64.15375,41.99958,122.57877,41.99958Z" fill="#fff"/></g></svg>