<svg id="Layer_1" data-name="Layer 1" xmlns="http://www.w3.org/2000/svg" viewBox="0 0 300 300"><defs><style>.cls-1{fill:#fe0000;}</style></defs><title>SNA_Light_bg</title><path class="cls-1" d="M61.38,157.38c-.42-.78-1.15-.79-1.78-.89-1.86-.3-2.36-.79-2.42-2.66a5.51,5.51,0,0,1,.27-1.89A2.36,2.36,0,0,1,60.24,150c.83.06,1.65.29,2.48.43.31,0,.63.07,1,.1l.19-.23a4.12,4.12,0,0,0-.61-1A8.57,8.57,0,0,0,58,147a3.86,3.86,0,0,0-1.59.49,2.36,2.36,0,0,0-.78.63A5.93,5.93,0,0,1,51,150l-8.28,0a2.34,2.34,0,0,1-.59-.09c-2.3-.56-3.31-2.17-2.52-4.39a28.67,28.67,0,0,1,2.32-5c1.8-3,3.75-6,5.68-9A10.61,10.61,0,0,1,54.93,127a23.74,23.74,0,0,1,4.2-.43c8.76,0,17.53,0,26.3,0H86.8l-5.26,9.81c-3.17-1.31-6.49-1-9.77-1.06-4.15,0-8.29,0-12.44,0a17.63,17.63,0,0,0-1.92.09,3.9,3.9,0,0,0-1.15.34,6.47,6.47,0,0,0-2.37,3.83c.48.84,1.33.81,2.13.81,2.63,0,5.26,0,7.89,0s5.32.11,8,.33A4.11,4.11,0,0,1,75.12,146a46.1,46.1,0,0,1-7.44,13.35,12.28,12.28,0,0,1-9.82,4.83c-9,.07-18.07,0-27.1,0H28.68l5.81-9.81c3,1.42,6.08,1.41,9.19,1.29,2.09-.09,4.18-.18,6.26-.34a4.09,4.09,0,0,1,3.21,1.14,8.53,8.53,0,0,0,6.44,2.13A1.76,1.76,0,0,0,61.38,157.38Z"/><path class="cls-1" d="M150.14,173.39c-.31,0-.54.06-.76.06H138a7.27,7.27,0,0,1-1.24-.26c.32-.58.51-1,.73-1.33l17.11-28.24a10.24,10.24,0,0,0,1.76-4.67c1.09-.33,11.07-.23,12,.13l.18.87a1.13,1.13,0,0,0,.42-.06,7.19,7.19,0,0,1,4.33-1.12c3.26,0,6.53,0,9.8,0a11.37,11.37,0,0,1,2.6.34,2.51,2.51,0,0,1,2,3.2,16.21,16.21,0,0,1-1.59,4.12c-2.35,4.07-4.81,8.1-7.3,12.1-2.36,3.8-6,5.36-10.33,5.55-3.39.14-6.8,0-10.2,0a2.84,2.84,0,0,1-1.38-.51c-.75-.48-1.13-.51-1.77.11a3.52,3.52,0,0,0-.55.72c-1,1.76-2.07,3.54-3.12,5.3A6.58,6.58,0,0,0,150.14,173.39Zm24.12-29a15.83,15.83,0,0,0-2.1-.41c-1.07-.06-2.15,0-3.23,0a3.66,3.66,0,0,0-3.45,1.85c-1.46,2.46-3,4.89-4.45,7.34-.86,1.44-1.75,2.87-2.53,4.36-.67,1.29-.22,2,1.24,2.06.91,0,1.82-.06,2.73,0a4.26,4.26,0,0,0,4.39-2.38c2.2-3.69,4.49-7.34,6.71-11A11.81,11.81,0,0,0,174.26,144.37Z"/><path class="cls-1" d="M139.66,164.2H127.5l.34-2a10.75,10.75,0,0,1-2,1.34,9.45,9.45,0,0,1-3.12.72c-3.16.06-6.33,0-9.5-.09a5.39,5.39,0,0,1-2.3-.66,4,4,0,0,1-1.89-4.59,4.83,4.83,0,0,1,.33-1.06,31.73,31.73,0,0,1,5-7.78,9,9,0,0,1,6.77-2.67c4.12-.08,8.23,0,12.34-.06.41,0,.81,0,1.22,0,1.77-.13,2.62-.94,2.93-2.91a7.64,7.64,0,0,0-.95-.49,2.35,2.35,0,0,0-.8-.11c-5,0-10,0-15,.09a25.51,25.51,0,0,0-3.56.56l4.49-5.56h23.84c4.15,0,5,3.28,4.27,5.88a15.93,15.93,0,0,1-1.64,3.56c-2.09,3.54-4.26,7-6.38,10.54a22.1,22.1,0,0,0-1.4,2.57C140.17,162.29,140,163.21,139.66,164.2Zm-18-6.13a7.61,7.61,0,0,0,1.62.48c1.58,0,3.16,0,4.74,0a2.43,2.43,0,0,0,2.29-1.37c.63-1.08,1.26-2.15,1.83-3.26a6,6,0,0,0,.32-1.34,5.67,5.67,0,0,0-.95-.22c-1.82,0-3.64,0-5.45.11a2.21,2.21,0,0,0-1.38.52A14.2,14.2,0,0,0,121.68,158.07Z"/><path class="cls-1" d="M67.8,164.14c3.67-3.77,5.87-8.52,8.67-12.87,1.47-2.29,2.83-4.66,4.25-7a11.62,11.62,0,0,0,2.1-5.33c.32,0,.58-.08.84-.08,3.24,0,6.48,0,9.71,0a11,11,0,0,1,1.52.4,6.45,6.45,0,0,0,1.64.08c1.17-.12,2.32-.44,3.48-.47,2.63-.08,5.26,0,7.89,0a12.32,12.32,0,0,1,1.61.11c3.78.5,4.37,3.63,3.56,5.94a25.52,25.52,0,0,1-2.06,4.36c-1.54,2.69-3.22,5.3-4.8,8-1.3,2.18-2.9,4.24-3.14,7H88.79c0-.12,0-.21,0-.24,2.37-2.22,3.9-5.05,5.57-7.77q3.09-5.1,6.16-10.21a15.55,15.55,0,0,0,.73-1.62,5.33,5.33,0,0,0-1.44-.56c-1.51-.06-3,0-4.54,0a3.06,3.06,0,0,0-2.61,1.5c-1,1.65-2.08,3.3-3.1,5-1.7,2.78-3.38,5.59-5.09,8.37a13.56,13.56,0,0,0-2.31,5.63H68.75a6.85,6.85,0,0,1-1-.15Z"/><path class="cls-1" d="M240.1,164H225.79c.05-.17.06-.28.12-.34,2.29-2.2,3.82-4.94,5.45-7.61q3.84-6.3,7.65-12.61a9.89,9.89,0,0,0,1.72-4.67c.36,0,.68-.07,1-.07,3.14,0,6.27,0,9.41,0a11,11,0,0,1,1.8.44,2.59,2.59,0,0,0,1.26.06,14.4,14.4,0,0,1,4.79-.52c2.16,0,4.32,0,6.48,0l1.31,0c3.52.16,5.33,2.68,4.21,6a20.82,20.82,0,0,1-1.78,3.83c-2.19,3.75-4.52,7.42-6.7,11.17a38.37,38.37,0,0,0-1.82,4.23h-14c0-.08,0-.16,0-.2a36.58,36.58,0,0,0,5.44-7.62q3.12-5.13,6.22-10.28c.25-.43.46-.89.65-1.27a1.18,1.18,0,0,0-1.29-1c-1.52,0-3,0-4.55,0a3.66,3.66,0,0,0-3,2.07c-.91,1.49-1.81,3-2.72,4.49q-2.77,4.57-5.56,9.14A11.17,11.17,0,0,0,240.1,164Z"/><path class="cls-1" d="M193.52,155.94h12.3c.75,1-.15,1.74-.11,2.82a3.09,3.09,0,0,0,1.12.55c1.51.1,3,.09,4.55.11a3.22,3.22,0,0,0,2.89-1.72l2.68-4.28c1.29-2.09,2.59-4.17,3.87-6.27a9.74,9.74,0,0,0,.75-1.43c.41-1.05.08-1.72-1-1.77-1.85-.07-3.71-.07-5.55,0a3.07,3.07,0,0,0-2.56,1.77,2.25,2.25,0,0,1-2.22,1.25c-3.63,0-7.27,0-10.93,0,2-4,4.66-7.17,9.5-7.7a25.77,25.77,0,0,1,3-.24c6.1,0,12.21-.06,18.31,0,3.24,0,4.94,2.42,4.06,5.59a12.2,12.2,0,0,1-1.31,3c-2.19,3.64-4.45,7.22-6.69,10.83a10.9,10.9,0,0,1-5.59,4.89,14.67,14.67,0,0,1-4.63.84c-6.41.1-12.81,0-19.22,0-.2,0-.4,0-.6,0-3.08-.31-4.43-2-3.83-5.08A20.81,20.81,0,0,1,193.52,155.94Z"/><path class="cls-1" d="M210.58,148.79a5.24,5.24,0,0,1-.3,1c-.51,1-1.06,1.95-1.58,2.93a3,3,0,0,1-2.27,1.49,6.93,6.93,0,0,1-1.51.1l-17.79-.21c-.56,0-1.11-.09-1.72-.15a3,3,0,0,1,.07-.72,7.28,7.28,0,0,1,7.23-4.48c5.49,0,11,0,16.48-.06C209.58,148.7,210,148.75,210.58,148.79Z"/><polygon class="cls-1" points="67.77 164.12 67.83 164.17 67.8 164.13 67.77 164.12"/></svg>