<svg id="Layer_1" data-name="Layer 1" xmlns="http://www.w3.org/2000/svg" viewBox="0 0 300 300"><defs><style>.cls-1{fill:#fff;}</style></defs><title>SNPS_Dark_bg</title><path class="cls-1" d="M43.29,129.32c0-1.65-.82-2.9-4.48-2.9s-4.5,1.25-4.5,2.9v4.49a4.89,4.89,0,0,0,1.78,3.84l12.4,10.64a6.94,6.94,0,0,1,2.84,5.2v6.73c0,4-4.73,6.27-12.53,6.27-8.62,0-12.76-2-12.76-6.27v-5.84h7.8V160c0,2,1.54,3.19,5,3.19,3.19,0,4.73-1.18,4.73-3.19v-6c0-1.48-.59-2.6-2.25-4.08L29.82,140c-2.13-1.84-3.31-3.25-3.31-5.44v-5.14c0-4.19,4.37-6.26,12.29-6.26,8.75,0,12.29,2.07,12.29,6v5.44h-7.8Z"/><path class="cls-1" d="M126.35,159.09c0,2.36.94,4,5.91,4s5.91-1.66,5.91-4V130.37c0-2.36-.95-4-5.91-4s-5.91,1.65-5.91,4Zm-7.8-28.83c0-4.2,3.19-7.21,13.71-7.21s13.71,3,13.71,7.21V159.2c0,4.2-3.18,7.21-13.7,7.21s-13.71-3-13.71-7.21Z"/><path class="cls-1" d="M162.07,143.5c3.54,0,6-.48,6-2.66V129.32c0-2.19-2.48-2.66-6-2.66h-3.78V143.5Zm-11.58-20.15H162.9c10,0,13,1.65,13,6.5v10.46c0,4.84-3,6.5-13,6.5h-4.61V166h-7.8Z"/><path class="cls-1" d="M195.23,129.32c0-1.65-.83-2.89-4.49-2.89s-4.49,1.24-4.49,2.89v4.49a4.88,4.88,0,0,0,1.77,3.84l12.41,10.64a7,7,0,0,1,2.83,5.2v6.73c0,4-4.72,6.27-12.52,6.27-8.63,0-12.76-2-12.76-6.27v-5.85h7.8V160c0,2,1.54,3.19,5,3.19,3.19,0,4.73-1.18,4.73-3.19v-6c0-1.48-.59-2.6-2.25-4.08l-11.46-10c-2.13-1.83-3.31-3.25-3.31-5.43v-5.14c0-4.2,4.37-6.27,12.29-6.27,8.75,0,12.29,2.07,12.29,6v5.43h-7.8Z"/><path class="cls-1" d="M252.77,129.32c0-1.65-.82-2.89-4.48-2.89s-4.5,1.24-4.5,2.89v4.5a4.88,4.88,0,0,0,1.78,3.83L258,148.29a7,7,0,0,1,2.84,5.2v6.74c0,4-4.73,6.26-12.52,6.26-8.63,0-12.77-2-12.77-6.26v-5.85h7.8V160c0,2,1.54,3.19,5,3.19,3.18,0,4.72-1.18,4.72-3.19v-6c0-1.48-.59-2.6-2.25-4.07L239.3,140c-2.13-1.83-3.31-3.25-3.31-5.44v-5.14c0-4.19,4.37-6.26,12.3-6.26,8.74,0,12.29,2.07,12.29,6v5.43h-7.81Z"/><path class="cls-1" d="M75.61,123.37h7.81L66.33,176.92H58.52Z"/><path class="cls-1" d="M63.14,156.82,52.57,123.65h7.81L67,144.57Z"/><path class="cls-1" d="M227.26,123.37h7.81L218,177h-7.81Z"/><path class="cls-1" d="M215.07,156.54l-10.56-33.17h7.81L219,144.29Z"/><path class="cls-1" d="M113.88,166.17h0V130c0-4.84-3-6.5-13-6.5h-15v42.66h7.8V126.83h6.42c3.54,0,6,.48,6,2.66v36.68Z"/><path class="cls-1" d="M268.93,128.47c.74,0,1.39-.05,1.39-.93,0-.71-.64-.84-1.24-.84h-1.19v1.77Zm-1,3.22H267V126h2.18c1.36,0,2,.49,2,1.62a1.51,1.51,0,0,1-1.49,1.59l1.63,2.51h-1l-1.51-2.48h-1ZM269,133a4.14,4.14,0,1,0-4.05-4.15A4,4,0,0,0,269,133m-5.05-4.15a5,5,0,1,1,5.05,5,5,5,0,0,1-5.05-5"/></svg>