<svg id="Layer_1" data-name="Layer 1" xmlns="http://www.w3.org/2000/svg" viewBox="0 0 300 300"><path d="M59.35647,124.5477C40.75256,138.24449,25.27627,149.67645,25.00665,150c-.32355.37747,11.16234,9.00537,33.70272,25.34445,18.8196,13.64286,34.45767,24.85912,34.72729,24.967.37747.10785,99.22082-71.77332,110.86848-80.563l1.61773-1.29418L226.41412,133.607c11.21627,8.35828,20.86873,15.53022,21.35405,16.06946.86279.80887-.37747,1.83343-19.89809,15.96161-11.432,8.30435-21.08442,15.2606-21.408,15.42237-.32355.2157-7.38764-4.58357-15.692-10.6231-8.30435-6.09345-15.47629-10.94664-15.90768-10.8388-1.13241.26963-12.4026,8.4122-12.4026,8.95145,0,.75494,43.24733,31.92322,43.89442,31.70752,1.02456-.4314,68.53786-49.44864,68.64571-49.88.05392-.32355-67.729-50.2575-68.80748-50.6889-.2157-.05392-25.61407,18.28036-56.40488,40.82074L93.70628,181.4379l-2.75014-1.94128c-26.90826-19.19707-39.958-29.0113-39.41871-29.60447.37747-.32355,9.976-7.54941,21.408-16.01553l20.76088-15.36845,1.61773,1.24026c.86279.6471,7.873,5.87776,15.47629,11.59374l13.85856,10.35348,6.09345-4.4218c3.34331-2.4266,6.30915-4.58357,6.52485-4.79927.4314-.37747-41.8453-32.085-43.35518-32.57031C93.49058,99.79642,77.96037,110.85092,59.35647,124.5477Z" fill="#fff"/></svg>