<svg id="Layer_1" data-name="Layer 1" xmlns="http://www.w3.org/2000/svg" viewBox="0 0 300 300"><defs><style>.cls-1{fill:#fff;}</style></defs><title>SPGI_Dark_bg</title><path class="cls-1" d="M65.84,163.62a8.9,8.9,0,0,1-.72,3.75,9.19,9.19,0,0,1-1.86,2.71,10.06,10.06,0,0,1-4.34,2.55,18.92,18.92,0,0,1-5.44.77,17.17,17.17,0,0,1-4.91-.72,11.16,11.16,0,0,1-4.34-2.47,10.35,10.35,0,0,1-2.31-3.12A9.12,9.12,0,0,1,41,163h5.76a4.9,4.9,0,0,0,.46,2.12,6,6,0,0,0,1.16,1.68,4.9,4.9,0,0,0,2.42,1.33,12.17,12.17,0,0,0,2.77.33,12.57,12.57,0,0,0,3.06-.37,4.76,4.76,0,0,0,2.31-1.29,6.09,6.09,0,0,0,.87-1.2,3.63,3.63,0,0,0,.35-1.77,3,3,0,0,0-1.11-2.55,5.87,5.87,0,0,0-2.56-1.12,27.58,27.58,0,0,0-3.44-.43,33.77,33.77,0,0,1-3.41-.4,11.7,11.7,0,0,1-3-.91,8.42,8.42,0,0,1-2.49-1.73,8,8,0,0,1-1.7-2.57,8.85,8.85,0,0,1-.63-3.43,7.52,7.52,0,0,1,.74-3.36,10.16,10.16,0,0,1,2-2.75,10.54,10.54,0,0,1,3.93-2.4,15.55,15.55,0,0,1,9.93-.11,10.17,10.17,0,0,1,3.86,2.25,10.8,10.8,0,0,1,2.25,3,8.18,8.18,0,0,1,.9,3.62H59.59a4.45,4.45,0,0,0-.41-1.64,5.4,5.4,0,0,0-.94-1.42,4.87,4.87,0,0,0-2.09-1.22,8.59,8.59,0,0,0-2.62-.43,11,11,0,0,0-2.69.34,4.88,4.88,0,0,0-2.33,1.36,4.44,4.44,0,0,0-.77,1.13,3.51,3.51,0,0,0-.28,1.49,3,3,0,0,0,.87,2.33,4.26,4.26,0,0,0,2.27,1c1,.14,2.1.27,3.34.39s2.37.25,3.38.39a13.22,13.22,0,0,1,3.3.94,9.33,9.33,0,0,1,2.71,1.79,8.18,8.18,0,0,1,1.83,2.68,8.9,8.9,0,0,1,.68,3.54"/><path class="cls-1" d="M90.2,172.87,88,170.43a12.25,12.25,0,0,1-4.12,2.44,13.85,13.85,0,0,1-4.65.79,11.75,11.75,0,0,1-3.93-.66A10,10,0,0,1,72,171.15a8.86,8.86,0,0,1-2.22-3,9.06,9.06,0,0,1-.83-3.93,8.07,8.07,0,0,1,1.51-4.93,13.77,13.77,0,0,1,4-3.58,20.46,20.46,0,0,1-1.35-1.55,10.58,10.58,0,0,1-1-1.55,7.53,7.53,0,0,1-.68-1.66,7.36,7.36,0,0,1-.24-2,7.62,7.62,0,0,1,.68-3.27,7.49,7.49,0,0,1,1.81-2.47,7.62,7.62,0,0,1,2.69-1.55,10.17,10.17,0,0,1,3.29-.52,10.28,10.28,0,0,1,3.25.5,8.2,8.2,0,0,1,2.73,1.48,7.11,7.11,0,0,1,2.58,5.65,8,8,0,0,1-.44,2.73,7.84,7.84,0,0,1-1.22,2.19,11.85,11.85,0,0,1-1.86,1.81,23.07,23.07,0,0,1-2.33,1.57L87.71,163a5.25,5.25,0,0,0,.55-1.73q.15-1,.24-2.07c.06-.7.09-1.38.09-2.05v-1.74h8v4.32H93a22,22,0,0,1-.48,3.62,10,10,0,0,1-1.4,3.32l5.72,6.19Zm-12.52-13.7c-.53.32-1,.63-1.44.91a6,6,0,0,0-1.16,1,4.27,4.27,0,0,0-.79,1.29,5.07,5.07,0,0,0,.18,3.77,4.47,4.47,0,0,0,1.22,1.53,5.32,5.32,0,0,0,1.77.92,7.23,7.23,0,0,0,2.09.3,10.45,10.45,0,0,0,2.8-.39,4.91,4.91,0,0,0,2.4-1.53Zm5.41-10.08a3.17,3.17,0,0,0-1-2.49,3.6,3.6,0,0,0-2.47-.87,3.81,3.81,0,0,0-2.4.8,2.88,2.88,0,0,0-1,2.43,3.43,3.43,0,0,0,.29,1.39,6.94,6.94,0,0,0,.69,1.25,8.91,8.91,0,0,0,.94,1.11l1,1,1.42-.81a6.7,6.7,0,0,0,1.28-.94,4,4,0,0,0,.92-1.22,3.65,3.65,0,0,0,.35-1.65"/><path class="cls-1" d="M124,151.79a11.2,11.2,0,0,1-.7,4.06,8.4,8.4,0,0,1-2.07,3.14,9.2,9.2,0,0,1-3.43,2,14.21,14.21,0,0,1-4.71.72h-6.55v11.09H101v-31h12.14a14.21,14.21,0,0,1,4.71.72,9.58,9.58,0,0,1,3.43,2,8.25,8.25,0,0,1,2.07,3.12,11.27,11.27,0,0,1,.7,4.06m-5.67.05a5.1,5.1,0,0,0-1.31-3.63,5.47,5.47,0,0,0-4.15-1.39h-6.33v10h6.33a5.55,5.55,0,0,0,4.15-1.37,5,5,0,0,0,1.31-3.6"/><path class="cls-1" d="M157.17,172.83l-.65-3.41a6.64,6.64,0,0,1-1.05,1.38,7.51,7.51,0,0,1-1.72,1.29,11.4,11.4,0,0,1-2.3.94,9.79,9.79,0,0,1-2.7.37,16.33,16.33,0,0,1-5-.75,9.58,9.58,0,0,1-4.17-2.7,12.22,12.22,0,0,1-2-2.66,15.19,15.19,0,0,1-1.22-3,19.27,19.27,0,0,1-.63-3.3,35.06,35.06,0,0,1-.18-3.64c0-1.25,0-2.45.16-3.6a17.34,17.34,0,0,1,.59-3.25,13.16,13.16,0,0,1,1.22-2.93,11.93,11.93,0,0,1,2-2.66,11.72,11.72,0,0,1,4.25-2.71,14.2,14.2,0,0,1,5-.91,13.81,13.81,0,0,1,5.24,1,11.37,11.37,0,0,1,3.93,2.57,11.92,11.92,0,0,1,1.92,2.69,8.76,8.76,0,0,1,.91,3.55H155a3.77,3.77,0,0,0-.48-1.57,11.78,11.78,0,0,0-.87-1.26,6.17,6.17,0,0,0-4.94-1.88,7.41,7.41,0,0,0-2.75.55,6,6,0,0,0-2.31,1.54,7.2,7.2,0,0,0-1.27,1.92,12.61,12.61,0,0,0-.74,2.3,15.13,15.13,0,0,0-.32,2.42c-.05.81-.07,1.57-.07,2.27s0,1.46.09,2.29a16.94,16.94,0,0,0,.35,2.46,12,12,0,0,0,.74,2.34,6.63,6.63,0,0,0,1.26,1.94,5.5,5.5,0,0,0,2.3,1.49,8.17,8.17,0,0,0,2.72.48,7,7,0,0,0,2.69-.48,5.58,5.58,0,0,0,1.94-1.31,6.27,6.27,0,0,0,1.64-2.77,13.63,13.63,0,0,0,.37-3.25H148V155.9h12.83v16.93Z"/><path class="cls-1" d="M174.45,172.79l-1.2.24a8.47,8.47,0,0,1-1.2.06,6.75,6.75,0,0,1-4.5-1.44q-1.7-1.44-1.7-4.67V141.27h5.5v24.8a2.77,2.77,0,0,0,.4,1.59c.26.39.85.59,1.79.59l.52,0a2.21,2.21,0,0,1,.39,0Z"/><path class="cls-1" d="M197.61,161.48a14.33,14.33,0,0,1-.7,4.83,12.57,12.57,0,0,1-2,3.55,10,10,0,0,1-3.25,2.49,10.28,10.28,0,0,1-4.7,1.05,10.17,10.17,0,0,1-4.68-1.05,9.9,9.9,0,0,1-3.26-2.49,12.57,12.57,0,0,1-2-3.55,17,17,0,0,1,0-9.65,12.76,12.76,0,0,1,2-3.56,9.9,9.9,0,0,1,3.26-2.49,10.29,10.29,0,0,1,4.68-1,10.41,10.41,0,0,1,4.7,1A10,10,0,0,1,195,153.1a12.76,12.76,0,0,1,2,3.56,14.23,14.23,0,0,1,.7,4.82m-5.54,0a16,16,0,0,0-.31-3.12,5.32,5.32,0,0,0-1.31-2.6,4.72,4.72,0,0,0-1.44-1,5,5,0,0,0-4,0,4.49,4.49,0,0,0-1.44,1,5.32,5.32,0,0,0-1.31,2.6,15.86,15.86,0,0,0,0,6.24,5.28,5.28,0,0,0,1.31,2.6,4.51,4.51,0,0,0,1.44,1,4.77,4.77,0,0,0,5.45-1,5.28,5.28,0,0,0,1.31-2.6,15.87,15.87,0,0,0,.31-3.12"/><path class="cls-1" d="M222.79,161.53a15.29,15.29,0,0,1-1,5.73,10.06,10.06,0,0,1-3.05,4.17,8.33,8.33,0,0,1-5.5,1.92,9.39,9.39,0,0,1-3.62-.72,5.73,5.73,0,0,1-2.75-2.29l-.35,2.49h-4.72V141.32h5.46v10.47a5.71,5.71,0,0,1,2.33-1.59,9.58,9.58,0,0,1,3.61-.63,9.46,9.46,0,0,1,3.12.48,7.83,7.83,0,0,1,2.42,1.35q4.05,3.36,4.06,10.13m-5.55-.09a15.08,15.08,0,0,0-.28-2.93,6.14,6.14,0,0,0-1.16-2.57,5.52,5.52,0,0,0-1.51-1.27,4.16,4.16,0,0,0-2.16-.52,4.57,4.57,0,0,0-2.61.68,4.69,4.69,0,0,0-1.57,1.74,7.36,7.36,0,0,0-.77,2.36,16.7,16.7,0,0,0-.19,2.51,15.32,15.32,0,0,0,.39,3.38,5.39,5.39,0,0,0,1.57,2.82,4.2,4.2,0,0,0,1.35.83,5.18,5.18,0,0,0,1.84.3,4.21,4.21,0,0,0,2.16-.52,5.62,5.62,0,0,0,1.5-1.27,6.14,6.14,0,0,0,1.16-2.6,15.25,15.25,0,0,0,.28-2.94"/><path class="cls-1" d="M247,172.57a12.61,12.61,0,0,1-1.2.46,5.69,5.69,0,0,1-1.51.15,3.74,3.74,0,0,1-2.75-1,3.61,3.61,0,0,1-1.09-2.22,6.36,6.36,0,0,1-2.62,2.4,8.72,8.72,0,0,1-4.27,1,10,10,0,0,1-3.58-.59,7.54,7.54,0,0,1-2.55-1.57,6.34,6.34,0,0,1-1.55-2.27,7,7,0,0,1-.53-2.68,6.77,6.77,0,0,1,.59-2.88,6.44,6.44,0,0,1,1.64-2.19,7.47,7.47,0,0,1,2.44-1.41,11.57,11.57,0,0,1,3-.64l6.67-.48v-1.4a4.14,4.14,0,0,0-.76-2.6c-.51-.65-1.54-1-3.08-1a4.79,4.79,0,0,0-3,.83,3.09,3.09,0,0,0-1.16,2.4h-5.28a8,8,0,0,1,.9-3.32,6.66,6.66,0,0,1,2-2.29A9.13,9.13,0,0,1,232.3,150a14.11,14.11,0,0,1,3.58-.43,12.73,12.73,0,0,1,5.22,1,6.27,6.27,0,0,1,3.29,3.6,8.46,8.46,0,0,1,.55,2.27c.07.79.11,1.56.11,2.32v8.42a1.68,1.68,0,0,0,.28,1.11,1.24,1.24,0,0,0,1,.33,1.79,1.79,0,0,0,.48,0,.48.48,0,0,0,.22,0v4Zm-7.29-9.82-5.76.43a4.3,4.3,0,0,0-2.27.83,2.51,2.51,0,0,0-1,2.14,2.48,2.48,0,0,0,1,2.08,3.53,3.53,0,0,0,2.24.76,6.39,6.39,0,0,0,4.2-1.33,4.75,4.75,0,0,0,1.61-3.87Z"/><path class="cls-1" d="M259,172.79l-1.2.24a8.47,8.47,0,0,1-1.2.06,6.75,6.75,0,0,1-4.5-1.44q-1.69-1.44-1.7-4.67V141.27h5.5v24.8a2.86,2.86,0,0,0,.39,1.59c.27.39.86.59,1.79.59l.53,0a2.21,2.21,0,0,1,.39,0v4.59Z"/><rect class="cls-1" x="41" y="126.34" width="218" height="5.02"/></svg>