<svg id="Layer_1" data-name="Layer 1" xmlns="http://www.w3.org/2000/svg" viewBox="0 0 300 300"><ellipse cx="156.5583" cy="86.60821" rx="14.48654" ry="12.70618" fill="#d02d3a"/><path d="M242.06886,99.73164a30.56249,30.56249,0,0,0,2.57314-6.77718c.06931-.20765.20029-.95926-.14625-1.23581a.72114.72114,0,0,0-.96813.0689c-58.92328,44.42561-118.29623-12.35184-112.37994,24.42711.76184,4.77475,5.4333,13.32092,11.10619,21.59a.80906.80906,0,0,1,0,.9688,2.17047,2.17047,0,0,1-.82951.51913c-30.75038,16.281-51.10347,40.844-63.54835,60.52035A87.63426,87.63426,0,0,1,214.06571,90.22157l.19864.21174.26414-.12443a85.87292,85.87292,0,0,0,14.37022-8.79065l.34054-.25541-.27942-.32307A104.91156,104.91156,0,0,0,68.57291,216.17715c-3.8687,7.64121-5.98941,13.1003-6.63883,14.74541-2.58132,6.53543-.27505,8.5126.65869,8.89707,1.88933.778,4.64855-.1176,7.44816-3.68123,19.59834-24.9457,72.46017-86.25873,98.64713-68.57837,14.84337,10.0337,14.40024,21.29338,3.21873,31.62369-4.78062,4.41621-15.50044,11.03716-22.07378,14.15112-10.17409,4.80912-15.67453,5.77793-14.84338,9.3417.79568,3.32147,5.0513,3.32147,22.17692-1.14208,19.68676-5.08595,62.49892-19.82959,44.63273-55.56606-8.7208-17.4431-38.33443-31.72751-38.33443-32.14268.24122-.34613.89883-.31148.89883-.31148,34.70039-2.57913,54.33857-11.08559,65.49443-19.65714a87.62,87.62,0,0,1-128.997,108.69584l-.34053-.23139-.2183.34926c-2.92512,4.678-5.78694,9.44553-8.50905,14.17159l-.18555.32306.30779.20521a104.85253,104.85253,0,0,0,150.15334-137.639Z" fill="#d02d3a"/></svg>