<svg id="Layer_1" data-name="Layer 1" xmlns="http://www.w3.org/2000/svg" viewBox="0 0 300 300"><defs><style>.cls-1{fill:#5287b7;fill-rule:evenodd;}</style></defs><g id="Group_3190" data-name="Group 3190"><path id="Path_28" data-name="Path 28" class="cls-1" d="M256.69,212.59c-.47,0-15,.48-18.3,0a79.89,79.89,0,0,1-15.94-2.84,125.19,125.19,0,0,1-19.23-9,85.08,85.08,0,0,0-32.36-4.27H129.6a72.65,72.65,0,0,0-32.36,4.27,124.69,124.69,0,0,1-19.23,9,80,80,0,0,1-16,2.84H43.77V196.47c.47,0,15,0,18.3-.47A80.23,80.23,0,0,0,78,193.62a122.16,122.16,0,0,0,19.23-9.48,84.69,84.69,0,0,1,32.36-4.27h41.28a72.41,72.41,0,0,1,32.36,4.27,122.26,122.26,0,0,0,19.24,9.48,80.33,80.33,0,0,0,16,2.38c3.28,0,17.35.47,18.29.47Z"/><path id="Path_29" data-name="Path 29" class="cls-1" d="M149.76,210.7H191a53.78,53.78,0,0,1,27.21,8.07,65.53,65.53,0,0,0,38.45,7.59v16.13c-15,.47-30.48-1-41.74-10a67.5,67.5,0,0,0-27.67-6.16H113.2a59.34,59.34,0,0,0-27.65,6.16C73.85,242,58.34,243.43,43.31,243V226.83a73.78,73.78,0,0,0,38.45-7.58,53.68,53.68,0,0,1,27.18-8.07Z"/><path id="Path_30" data-name="Path 30" class="cls-1" d="M173.68,149a61.22,61.22,0,0,1,27.67,6.64c15,10.91,36.12,9,55.81,9.49v16.13c-19.69,0-41.27,1.9-56.27-10a63.32,63.32,0,0,0-28.6-6.16H128.66a63.28,63.28,0,0,0-28.59,6.16c-15,11.89-36.6,10-56.3,10V165.16c19.7-.47,40.33,1.43,55.81-9.48A66.16,66.16,0,0,1,127.25,149Zm-23.92-30.82c16,0,32.36-.48,45,7.12a56.93,56.93,0,0,0,33.3,9h28.59v16.13c-11.25,0-21.57.47-32.36,0a57.23,57.23,0,0,1-29.55-9,65.94,65.94,0,0,0-30.95-6.64H135.67a68.64,68.64,0,0,0-30.95,6.64,53.06,53.06,0,0,1-29.52,9c-10.79.47-21.11,0-32.36,0V134.33H71.43a57.81,57.81,0,0,0,33.3-9c13.13-7.59,29.55-7.12,45-7.12m0-30.83h8.45a60,60,0,0,1,29.08,7.11,58.31,58.31,0,0,0,33.8,9h35.64v16.14H216.35a59.28,59.28,0,0,1-23.93-5.69,46.77,46.77,0,0,0-20.63-8.55A110.52,110.52,0,0,0,150.22,104a107.59,107.59,0,0,0-21.58,1.43A53.07,53.07,0,0,0,108,113.94a80.58,80.58,0,0,1-23.92,5.69H43.77V104H79.42a59.26,59.26,0,0,0,33.79-9,60,60,0,0,1,29.05-7.12,39.38,39.38,0,0,1,7.51-.47M150.71,57a53.85,53.85,0,0,1,32.36,9A59.87,59.87,0,0,0,215,73.15H256.7V89.27H208.85A55.44,55.44,0,0,1,184,82.65a57.59,57.59,0,0,0-34.24-9.48,57.54,57.54,0,0,0-34.23,9.48,62.4,62.4,0,0,1-24.86,6.64H43.31V73.15H85.08A59.89,59.89,0,0,0,116.92,66a62.61,62.61,0,0,1,32.37-9Z"/></g></svg>