<svg id="Layer_1" data-name="Layer 1" xmlns="http://www.w3.org/2000/svg" viewBox="0 0 300 300"><defs><style>.cls-1{fill:#fff;}</style></defs><path class="cls-1" d="M171.62,55.5q15.8,16,31.59,32Q234.07,118.79,265,150c.37.38.72.78,1.17,1.28L171.94,244.5H106.28L200.71,151c-2.41-2.3-4.73-4.4-6.93-6.62q-43.34-43.81-86.64-87.67c-.37-.36-.91-.62-1-1.24Z"/><path class="cls-1" d="M33.88,143.71a27.12,27.12,0,0,1,7-12.11,30.78,30.78,0,0,1,7.68-5.93c5.77-3,11.26-2.34,16.45,1.42a63.51,63.51,0,0,1,7.47,7L61.66,144.81c-.4,0-.61-.49-.94-.8-1.37-1.27-2.65-2.64-4.08-3.82-1.61-1.34-3.45-2.08-5.46-.82-1.73,1.08-3,2.56-2.66,4.74a5.19,5.19,0,0,0,4,4.58,29.25,29.25,0,0,0,9.33.64c5.59-.34,11.15-1,16.76-1.11,10-.17,19.44,7.07,21.5,16.61A17.22,17.22,0,0,1,98,177.17a31.36,31.36,0,0,1-10.7,11.28c-6.7,4.29-13.52,4-20.18-.83a61.26,61.26,0,0,1-7.41-6.94c.29-.33.51-.61.76-.85q5.21-5.25,10.45-10.5c2.31,1.95,4,4.33,6.47,5.93,2.65,1.76,5.26,1.31,7.11-1.2a5.1,5.1,0,0,0-.28-6.49,9,9,0,0,0-7.16-3.25c-4.53-.15-9,.89-13.46,1.26-4.73.38-9.53,1.37-14.15-.22-7.9-2.7-13.41-7.81-15.33-16.23a2.28,2.28,0,0,0-.28-1.44Z"/><path class="cls-1" d="M108.09,166.39,57.87,116.27c0-.54.49-.76.81-1.07,5.63-5.53,11-11.33,16.87-16.61A35.61,35.61,0,0,1,81.4,94.4a11.74,11.74,0,0,1,12.65,0,28.84,28.84,0,0,1,5.88,4.46q13,13,25.92,26a24,24,0,0,1,2.52,3.06,14.79,14.79,0,0,1,.27,17.69,29.07,29.07,0,0,1-3.87,4.76C119.24,155.75,113.65,161.06,108.09,166.39Zm3.38-19.52c.46-.58.83-1.13,1.29-1.61,4.3-4.51,4.29-6-.12-10.47q-11.36-11.38-22.72-22.74a15.43,15.43,0,0,0-3.47-2.87,3.4,3.4,0,0,0-3.27-.23c-2.15,1-3.68,2.76-5.31,4.38Z"/><path class="cls-1" d="M89.81,84.34,101,73.15l50.46,50.35-11.2,11.12Z"/></svg>