<svg id="Layer_1" data-name="Layer 1" xmlns="http://www.w3.org/2000/svg" viewBox="0 0 300 300"><title>STT_Mark_Dark</title><path id="Path_289" data-name="Path 289" d="M289.99959,165.43378a3.10492,3.10492,0,1,1-3.10373-3.10728,3.061,3.061,0,0,1,3.10376,3.01764Q290.00028,165.389,289.99959,165.43378Zm-5.73288,0a2.628,2.628,0,1,0,2.62915-2.66593,2.58647,2.58647,0,0,0-2.63,2.54211Q284.26481,165.37188,284.26671,165.43378Zm1.941,1.7939h-.43662v-3.602h1.362c.81271,0,1.16747.34051,1.16747.97881a.93611.93611,0,0,1-.85515,1.01058l-.04417.00263,1.07612,1.61119h-.522l-1.01442-1.61119h-.738v1.61594Zm.58373-1.95762c.52439,0,1.08086-.032,1.08086-.66559,0-.47458-.41526-.60628-.85778-.60628h-.80677v1.27187h.58373m-1.3632-21.11862c-.62052-2.77033-1.93745-4.01847-6.36524-4.01847h-2.05491v22.7298c0,3.49644.94914,4.55712,4.1822,4.55712v.92068H267.78589v-.92068c3.14526,0,4.1205-1.06068,4.1205-4.55712V140.127h-2.0573c-4.40881,0-5.69489,1.24814-6.30473,4.01847h-.90051v-5.89067h23.63624v5.89067Zm-46.35423,24.18912v-.92068c3.13577,0,4.17864-1.06067,4.17864-4.55712V143.72788c0-3.52491-1.04287-4.57135-4.17864-4.57135V138.256h21.57659v5.88948h-.86137c-.61219-2.77033-1.87575-4.01847-6.28811-4.01847h-2.56272c-2.22457,0-2.70863,1.16628-2.70863,3.71v7.6466H253.43c2.42629,0,3.2034-1.27542,3.51185-3.09187h.846v8.59338h-.846c-.31084-1.76779-1.08676-3.20338-3.51185-3.20338h-5.20016v9.37287c0,3.048.34524,3.29355,2.70863,3.29355h4.13473c3.57474,0,5.45762-1.7583,5.80525-4.1205h.84356v6.01406Zm-31.14522,0-9.16167-15.8188c4.13237-.19695,7.88746-2.13559,7.88746-6.32965,0-4.41948-2.79049-6.06389-6.42338-6.06389-2.55558,0-3.15593.363-3.15593,3.00643v19.63558c0,3.48219,1.02625,4.65083,4.17864,4.65083v.92068H187.86617v-.92068c3.14764,0,4.18458-1.16864,4.18458-4.65083V143.66856c0-2.37288-.0593-4.50847-3.271-4.50847v-.90051h11.45268c5.88118,0,11.57017,1.45933,11.57017,7.45558,0,5.22034-4.47286,7.19813-7.159,7.72017l6.00458,9.813c1.69186,2.72881,2.3622,4.17389,4.72678,4.17389,2.78456,0,3.46084-1.48542,3.46084-4.61643V143.72788c0-3.52491-1.03814-4.57135-4.19881-4.57135V138.256h21.65251v5.88948h-.92661c-.59322-2.77033-1.80577-4.01847-6.281-4.01847h-2.55558c-2.25423,0-2.7288,1.16628-2.7288,3.71v7.6466h5.1918c2.43812,0,3.22357-1.27542,3.5961-3.09187h.78186v8.59338h-.78186a3.322,3.322,0,0,0-3.42748-3.21312q-.0844.00273-.16862.00974H223.7939v9.37287c0,3.048.3666,3.29355,2.7288,3.29355h4.12766c3.55932,0,5.43388-1.7583,5.88-4.1205h.8471v6.01406ZM186.84821,144.1455c-.63-2.77033-1.89831-4.01847-6.31068-4.01847H178.472v22.73574c0,3.49644.97526,4.55712,4.11694,4.55712v.92068H169.20821v-.92068c3.20339,0,4.1905-1.06068,4.1905-4.55712V140.127h-2.081c-4.41355,0-5.76135,1.24814-6.35694,4.01847h-.859v-5.89067H187.7321v5.89067Zm-36.29674,25.12167a29.1423,29.1423,0,0,1-10.03135-1.97779v-7.102h.94085c.87915,3.3505,2.83084,6.52542,9.39542,6.52542,4.77186,0,8.10456-2.57576,7.98947-6.52542-.13407-4.1905-3.08475-6.35338-9.27083-9.31473-6.79949-3.271-8.97067-6.49219-8.92083-10.47151,0-6.421,5.15508-9.67185,12.7198-9.67185a30.31005,30.31005,0,0,1,8.72983,1.31339V138.256h-.8495c-.48644-3.01237-3.02779-5.07559-7.88033-5.01745-4.41592.0522-7.33218,2.07271-7.49948,5.57626-.18983,3.239,1.9422,5.02576,5.75542,6.84576,8.84728,4.17389,12.05185,6.86355,12.42913,12.29151.41881,6.79355-4.563,11.31863-13.5076,11.31863Zm-44.86164-.9266v-.92068c3.15356,0,4.24983-1.06068,4.24983-4.55712V143.72788c0-3.52491-1.09627-4.57135-4.24983-4.57135V138.256h21.63v5.88948h-.89694c-.56831-2.77033-1.82831-4.01847-6.23949-4.01847h-2.61016c-2.17119,0-2.72882,1.16628-2.72882,3.71v7.6466h5.2049a3.23187,3.23187,0,0,0,3.57538-2.84721q.01381-.12194.01836-.24466h.84118v8.59338H123.643c-.3156-1.76779-1.09272-3.20338-3.59374-3.20338H114.842v9.37287c0,3.048.35594,3.29355,2.72882,3.29355h4.18575c3.55932,0,5.44813-1.7583,5.81355-4.1205h.859v6.01406Zm-1.998-24.19507c-.53626-2.77033-1.86746-4.01847-6.30473-4.01847H95.34765v22.73574c0,3.49644.94915,4.55712,4.1027,4.55712v.92068H86.06018v-.92068c3.21287,0,4.17627-1.06068,4.17627-4.55712V140.127H88.17086c-4.41712,0-5.74118,1.24814-6.36405,4.01847H80.987v-5.89067h23.61964v5.89067ZM72.36394,168.34056v-.92068c1.74763,0,3.08475-.43423,3.08475-1.8022a5.133,5.133,0,0,0-.43306-1.97779L73.43529,159.065H62.11665l-1.44983,4.04457a7.6978,7.6978,0,0,0-.55169,2.28864c0,1.30508.55169,2.017,2.85339,2.017v.92067H53.62768v-.92067c2.37288,0,3.15-1.648,4.42187-5.09339l8.86626-24.07048h4.1739L80.12445,163.036c1.20543,3.21169,1.68357,4.24982,4.5405,4.37915v.92067ZM56.3221,144.1455c-.63238-2.77033-1.89831-4.01847-6.31661-4.01847H47.93871v22.73574c0,3.49644.97881,4.55712,4.14305,4.55712v.92068H38.675v-.92068c3.14406,0,4.12169-1.06068,4.12169-4.55712V140.127H40.79634c-4.49423,0-5.76253,1.24814-6.36643,4.01847h-.90882v-5.89067H57.20954v5.89067ZM19.9957,169.26717a28.999,28.999,0,0,1-9.99576-1.97779v-7.102h.93255c.88983,3.3505,2.832,6.52542,9.39067,6.52542,4.7766,0,8.10575-2.57576,7.98829-6.52542-.11864-4.1905-3.09305-6.35338-9.272-9.31473-6.79949-3.271-8.96-6.49219-8.91372-10.47151,0-6.421,5.15982-9.67185,12.73642-9.67185a30.37313,30.37313,0,0,1,8.72983,1.31339V138.256h-.86373c-.47457-3.01237-3.0183-5.07559-7.8649-5.01745-4.42423.0522-7.33338,2.07271-7.51372,5.57626-.21,3.239,1.92441,5.02576,5.76254,6.84576,8.84728,4.17389,12.06015,6.86355,12.41015,12.29151.43069,6.79355-4.53931,11.31863-13.52541,11.31863Zm47.893-26.03641-4.8549,13.34152h9.51168Z" fill="#fff"/></svg>