<svg id="Layer_1" data-name="Layer 1" xmlns="http://www.w3.org/2000/svg" viewBox="0 0 300 300"><defs><style>.cls-1{fill:#6abf4b;fill-rule:evenodd;}</style></defs><path id="Layer" class="cls-1" d="M141.42,273.81q-4.42-17.46-8.6-34.25c3.07-1.54,5.59-2.71,8.85-4.43A218.54,218.54,0,0,0,181,213.2c15.42-11,29.85-23.35,42.44-37.88,9.89-11.34,18-24,22.73-38.75,3.13-9.79,4.66-19.89,3.25-30.24a54.67,54.67,0,0,0-8.84-23.59,58.13,58.13,0,0,0-21.87-20c-11.18-5.91-23.09-8.07-35.38-7.7A97.63,97.63,0,0,0,151.56,62c-18.92,7.2-36.24,17.55-52.95,29.32a67.47,67.47,0,0,0-13.14,12A19.63,19.63,0,0,0,81.05,112c-1.17,5.61,1.9,10,7.43,10.23,3.81.18,7.31-1.36,10.68-3,10.51-5.17,20-12.13,29.67-18.48,8.11-5.3,16.15-10.35,25-14.1,8.72-3.58,17.69-5.61,27.09-4,10.25,1.79,18.48,6.78,23.52,16.7,3.5,6.9,3.81,14.23,1.9,21.68-2.08,8.5-6.75,15.4-12.4,21.68a112.4,112.4,0,0,1-26.29,22c-10.26,6.22-20.39,12.69-30.9,18.48-12.34,6.71-25.36,11.58-38.69,15.65a91.12,91.12,0,0,1-34.21,3.82,54.76,54.76,0,0,1-27-9.74,46,46,0,0,1-16-21.06c-5-13.43-4.73-27.11-1.53-40.9,3.62-15.65,11.18-29.08,20.45-41.58A166.52,166.52,0,0,1,63.91,63.58a258.6,258.6,0,0,1,39.86-29.2c4.79-2.83,9.71-5.54,14.25-8.19,1.54,3.45,3.13,6.71,4.67,10.1-4.24,2.34-8.42,4.62-12.53,7A220.44,220.44,0,0,0,61.94,80.83a106.81,106.81,0,0,0-19.47,27.41c-5.28,10.72-8,22.17-6.81,34.31,1.35,13.24,7.24,23.53,19,29.62,6.95,3.58,14.44,4.69,22.12,4.5,10.62-.24,20.57-3.32,30.46-7.08C121.89,164,135.59,156.47,149,148c7.8-4.93,15.6-10,22.23-16.63,3.44-3.57,6.94-7.09,8.78-12.08,3.2-8.74-1.35-16.26-10.25-17.18-4.86-.43-9.28,1.23-13.58,3.26C144.8,111,134.6,118.52,124,125.3c-8,5.3-16.34,10.35-25.18,14-6.15,2.53-12.6,4.07-19.23,3.27-11.48-1.36-18.67-10.91-17.44-22.86.92-9.42,5.34-17.18,11.24-24.08A109.84,109.84,0,0,1,95.85,76.27c12.71-8.44,25.43-16.51,39.25-22.92,15.9-7.45,32.18-13.36,49.75-15a104.68,104.68,0,0,1,37.59,3,83.41,83.41,0,0,1,30,14.78,79.89,79.89,0,0,1,21.74,25.75,76.9,76.9,0,0,1,8.6,29.69,89.38,89.38,0,0,1-3.5,32.53,123,123,0,0,1-12.47,29.38,176.51,176.51,0,0,1-27.21,34.86C229,218.87,218.14,229.34,206,238c-15.79,11.46-32.25,21.56-50.06,29.26-4.79,2.28-9.46,4.37-14.5,6.53Z"/></svg>