<svg id="Layer_1" data-name="Layer 1" xmlns="http://www.w3.org/2000/svg" viewBox="0 0 300 300"><path d="M245,54.99953H55V212.36382a154.25606,154.25606,0,0,1,30.76-42.76371,163.80418,163.80418,0,0,1,42.95156-30.3855,168.20325,168.20325,0,0,0-40.1381,42.95248,153.77734,153.77734,0,0,0-22.69527,62.83338H77.13187a157.46861,157.46861,0,0,1,24.94534-68.46016,154.88283,154.88283,0,0,1,39.38807-40.32594,173.99739,173.99739,0,0,1,39.38808-20.25721c-2.25115,1.501-4.68906,3.00116-6.94021,4.50136-16.12954,10.69139-30.759,24.19609-41.826,40.13887a98.48325,98.48325,0,0,0-8.81488,14.06718,153.82569,153.82569,0,0,0-18.75608,70.3359c11.44141-.18785,23.06975.18677,34.51116-.18785a52.49517,52.49517,0,0,0,5.43908,0h100.158C245,181.60385,245,118.396,245,54.99953Zm-20.06951,71.649c-6.75158-3.18886-13.50486-6.18926-20.25644-9.37812-.56232-.37555-.93772.56232-1.5.75-4.68906,5.25138-9.56674,10.50369-14.2558,15.75508.93773-7.50253,1.87559-15.0049,2.62654-22.50743-6.94021-3.00117-13.88026-6.18926-20.63184-9.19042,7.3156-1.50005,14.81813-3.00117,22.132-4.31351.93772-7.50253,1.68867-15.0049,2.43792-22.69513,3.75119,6.56465,7.3156,13.12931,11.06679,19.88166,7.31575-1.501,14.81828-3.18886,22.132-4.68906-5.06461,5.62693-10.31584,11.066-15.38044,16.5051C217.24119,113.51924,220.99238,120.0839,224.93049,126.64855Z" fill="#fff"/></svg>