<svg id="Layer_1" data-name="Layer 1" xmlns="http://www.w3.org/2000/svg" viewBox="0 0 300 300"><defs><style>.cls-1{fill:#ffd20b;}</style></defs><title>SWK_Light_bg</title><polygon class="cls-1" points="218.41 210.59 201.21 238.35 61.65 238.35 61.65 61.65 238.35 61.65 238.35 176.19 218.41 210.59"/><path d="M97.88,98.77a10.51,10.51,0,0,0-7.08-2.18c-2.72,0-5.17,1.91-5.17,4.09,0,1.36.82,2.17,3,3l3.54,1.09c4.08,1.36,6.26,3.54,6.26,7.08,0,6.8-5.71,12.51-15.24,12.51a19.3,19.3,0,0,1-10.34-2.72l3.26-4.9a14.37,14.37,0,0,0,8.17,2.45c4.08,0,6.53-2.17,6.53-5.17q0-2.45-3.26-3.26l-3.27-1.09c-3.54-1.09-5.72-3-5.72-6.53,0-6.26,6-11.43,13.34-11.43,3.81,0,7.62,1.08,9.8,3.26Z"/><path d="M114.75,104.76h-4.08l-2.45,11.7a5.37,5.37,0,0,0-.27,1.91c0,1.36.54,1.63,1.9,1.63a6.4,6.4,0,0,0,2.18-.54V123a17.39,17.39,0,0,1-5.17,1.09c-3.54,0-5.44-1.63-5.44-4.08a12.26,12.26,0,0,1,.27-3l2.72-12.52H102.5l.82-4.09h2.18c.54-2.17.81-3.81,1.36-5.44l6.26-1.63c-.55,2.18-1.36,4.63-1.91,7.07h5.45Z"/><path d="M136.52,107.48l-1.9,8.71a4.65,4.65,0,0,0,.82,4.63l-4.9,3.81a3.74,3.74,0,0,1-1.64-2.72,7.52,7.52,0,0,1-6.26,2.72c-4.08,0-6.26-2.45-6.26-7.35a20.37,20.37,0,0,1,4.9-13.34,12.32,12.32,0,0,1,9.26-3.54,16.57,16.57,0,0,1,7.62,1.64,21.77,21.77,0,0,0-1.64,5.44m-7.07-2.72a4.83,4.83,0,0,0-4.36,1.9c-1.9,2.18-2.72,6.81-2.72,9.8,0,2.18.55,3,1.91,3,1.9,0,3.81-1.91,4.35-3.54L131.08,105c-.27,0-1.09-.27-1.63-.27"/><path d="M148.5,99.86a16.2,16.2,0,0,1,.54,3.81,9.88,9.88,0,0,1,7.9-3.54c3,0,4.62,1.64,4.62,4.63a13.39,13.39,0,0,1-.27,3.27L158,123.81h-6l3.26-15a6.56,6.56,0,0,0,.28-2.18c0-1.08-.55-1.36-1.64-1.36-1.36,0-3.26.82-5.17,3.54l-3.26,15h-6l3.26-15.51a10.88,10.88,0,0,0,0-6Z"/><path d="M174.9,97.14l-3.54,17.14c-.54,2.73-.82,3.82-.82,4.36,0,.82.28,1.36,1.09,1.36h.55l.27,3.54a16.2,16.2,0,0,1-3.81.54c-3.27,0-4.9-1.63-4.9-4.08a32.63,32.63,0,0,1,.55-4.08l3.53-17.15c.55-3,1.09-5.17.55-6.8l6.53-1.91c.82,1.09.82,4.36,0,7.08"/><path d="M194.5,121.09a16.11,16.11,0,0,1-9.53,3.26c-5.44,0-8.71-3-8.71-8.43a18.82,18.82,0,0,1,5.17-12.79,10.65,10.65,0,0,1,7.89-3c4.63,0,7.9,1.91,7.9,6.26s-4.09,7.89-11.71,7.89a12.45,12.45,0,0,1-2.72-.27,14.75,14.75,0,0,0-.27,2.18c0,2.72,1.36,3.81,3.81,3.81a10.85,10.85,0,0,0,6.53-2.45Zm-9-10.89c2.73,0,5.72-.81,5.72-3.26a2.16,2.16,0,0,0-2.45-2.45c-2.18,0-4.08,1.36-4.9,5.44a6,6,0,0,0,1.63.27"/><path d="M206.47,100.13l1.09,13.61c0,1.36.27,4.9.27,4.9s1.63-4.08,3-6.8L216.54,101h6.53l-13.33,23.4c-2.45,4.36-4.09,6.54-6,7.63a14.42,14.42,0,0,1-6,2.17l-1.09-4.08a18.19,18.19,0,0,0,4.09-1.36c1.9-1.09,2.44-2.18,4.08-4.63H203.2a58.15,58.15,0,0,0-.54-6.53l-2.18-16.33Z"/><path d="M93.38,135c4.6,0,8.11,2.16,8.11,6.76,0,3-1.89,6.48-6.48,7.83a5.81,5.81,0,0,1,4.59,6,11.13,11.13,0,0,1-3,7.29c-2.16,2.43-4.87,3.25-9.73,3.25H75.55L82.31,135ZM82.85,161.16H86.9a5.76,5.76,0,0,0,3.24-.81,6,6,0,0,0,2.43-4.59c0-2.16-1.08-3-4-3H84.74Zm3-13.78H89.6a5.19,5.19,0,0,0,3.24-.81,4.2,4.2,0,0,0,1.9-3.51c0-1.9-.81-2.71-3.52-2.71H87.44Z"/><path d="M113.92,139.81l-3.78,17a41.58,41.58,0,0,0-.81,4.32c0,.81.27,1.35,1.08,1.35H111l.27,3.52a15.94,15.94,0,0,1-3.78.54c-3.25,0-4.87-1.63-4.87-4.06a33.86,33.86,0,0,1,.54-4l3.52-17c.54-3,1.08-5.14.54-6.76l6.48-1.89c.81,1.08.81,4.32.27,7"/><path d="M135.81,150.08l-1.89,8.65c-.27,1.89-.27,3.24.81,4.59l-4.87,3.79a3.7,3.7,0,0,1-1.62-2.71,7.44,7.44,0,0,1-6.21,2.71c-4,0-6.22-2.44-6.22-7.3a20.21,20.21,0,0,1,4.87-13.24,12.21,12.21,0,0,1,9.18-3.51,16.45,16.45,0,0,1,7.57,1.62,45.08,45.08,0,0,0-1.62,5.4m-6.76-2.7a4.77,4.77,0,0,0-4.32,1.89c-1.89,2.16-2.7,6.76-2.7,9.73,0,2.16.54,3,1.89,3,1.89,0,3.78-1.89,4.32-3.51l2.44-10.81c-.27,0-1.09-.27-1.63-.27"/><path d="M155,149a4.79,4.79,0,0,0-3.52-1.62,3.75,3.75,0,0,0-2.7,1.35c-1.62,1.89-3.24,6.76-3.24,10.27,0,2.43,1.08,3.51,2.7,3.51s3.24-.81,5.13-2.16l1.9,3.78a13.2,13.2,0,0,1-8.38,3c-5.14,0-7.84-3-7.84-7.84A18.11,18.11,0,0,1,145,145.76a11.71,11.71,0,0,1,7.56-2.7,8.63,8.63,0,0,1,6.22,2.7Z"/><path d="M170.4,132.79c.27,1.08.27,3.78-.81,8.65l-5.41,24.86h-5.94l5.4-25.14c.54-3.24.81-5.13.54-6.21Zm12.16,10.54-9.46,10,6.22,13h-7l-4.86-13,7.83-10Z"/><path d="M224.88,150.83a25.67,25.67,0,0,1-3.5,8.88l5.11,6.46h-7.8l-1.62-1.88c-2.15,1.61-4.84,2.69-9.15,2.69-6.19,0-9.69-3-9.69-7.27,0-3.77,2.69-7,7.53-9.15a6.2,6.2,0,0,1-2.42-5.12c0-4.84,4.58-8.88,10.5-8.88,4.58,0,7.54,2.15,7.54,5.65s-1.35,5.93-7,8.62l-.54.27,4,4.84a25.17,25.17,0,0,0,1.61-4.84h5.39ZM205,159.17c0,2.16,1.61,3.23,4.3,3.23a7.81,7.81,0,0,0,5.12-1.61l-5.92-7a5.88,5.88,0,0,0-3.5,5.38m10.76-16.42a2,2,0,0,0-2.15-2.15,3.63,3.63,0,0,0-3.5,3.77c0,.8.27,1.88,1.89,3.5,2.15-1.08,3.76-3.23,3.76-5.12"/><path d="M88.58,177.29c5.18,0,8.45.54,10.36,3a11.58,11.58,0,0,1,2.45,7.63c0,5.18-1.91,12-5.73,16.09-3.27,3.55-6.54,4.64-13.36,4.64H74.67l6.82-31.36ZM82,203.74h3a7.1,7.1,0,0,0,6-3.27c2.73-4.37,3.27-10.64,3.27-12.27,0-3-.82-5.73-4.91-5.73H86.67Z"/><path d="M121,206.19a16,16,0,0,1-9.27,3.27c-5.45,0-8.72-3-8.72-8.45a18.83,18.83,0,0,1,5.18-12.81,10.64,10.64,0,0,1,7.91-3c4.63,0,7.9,1.91,7.9,6.27s-4.09,7.91-11.72,7.91a12.07,12.07,0,0,1-2.73-.28,15,15,0,0,0-.27,2.18c0,2.73,1.36,3.82,3.82,3.82a10.9,10.9,0,0,0,6.54-2.45Zm-8.72-10.9c2.72,0,5.72-.82,5.72-3.28a2.16,2.16,0,0,0-2.45-2.45c-2.18,0-4.09,1.36-4.91,5.45a3.9,3.9,0,0,0,1.64.28"/><path d="M142,191.47a4.81,4.81,0,0,0-3.55-1.64,3.78,3.78,0,0,0-2.72,1.37c-1.64,1.9-3.27,6.81-3.27,10.36,0,2.45,1.09,3.54,2.72,3.54s3.27-.82,5.18-2.18l1.91,3.82a13.31,13.31,0,0,1-8.45,3c-5.18,0-7.91-3-7.91-7.91a18.28,18.28,0,0,1,6-13.63,11.79,11.79,0,0,1,7.63-2.73,8.71,8.71,0,0,1,6.28,2.73Z"/><path d="M157.56,175.11c.27,1.09.27,3.82-.82,8.72l-5.45,25.09h-6l5.45-25.36c.55-3.27.82-5.18.55-6.27Zm12.27,10.63-9.54,10.09,6.27,13.09h-7.09l-4.91-13.09,7.64-10.09Z"/><path d="M187.28,206.19a16.16,16.16,0,0,1-9.54,3.27c-5.45,0-8.73-3-8.73-8.45a18.83,18.83,0,0,1,5.18-12.81,10.65,10.65,0,0,1,7.91-3c4.64,0,7.91,1.91,7.91,6.27s-4.09,7.91-11.73,7.91a12,12,0,0,1-2.72-.28,14.45,14.45,0,0,0-.28,2.18c0,2.73,1.37,3.82,3.82,3.82a11,11,0,0,0,6.55-2.45Zm-9-10.9c2.73,0,5.73-.82,5.73-3.28a2.16,2.16,0,0,0-2.45-2.45c-2.19,0-4.09,1.36-4.91,5.45a5.81,5.81,0,0,0,1.63.28"/><path d="M200.37,184.92a8.17,8.17,0,0,1,.55,3.82c1.9-2.18,4.09-3.54,6.54-3.54a3.3,3.3,0,0,1,2.18.54l-2.73,5.46a3.76,3.76,0,0,0-1.63-.55c-1.09,0-2.46.55-4.36,3.27l-3.28,15.27h-6l3.28-15.27c.54-3,.54-4.91,0-6.54Z"/></svg>