<svg id="Layer_1" data-name="Layer 1" xmlns="http://www.w3.org/2000/svg" viewBox="0 0 300 300"><defs><style>.cls-1{fill:#fff;}</style></defs><g id="layer1"><g id="g5638"><path id="path5428" class="cls-1" d="M274.64,85s-56.56,28.19-104.53,53.23H145.72c-8.4-6.14-17.2-12.5-25.2-18.13-26.72-18.85-64-43.35-64-43.35-1.42-.91-1.65-.57-.31.46,0,0,35.6,26.86,62.34,45.7,7.79,5.5,16.49,11.49,24.89,17.21l-3.79,14.26c-5.6,3-11.22,6.07-17.1,9.28h-13c-22.47-15.36-44.79-30-44.79-30-1.62-1.09-1.93-.74-.33.46,0,0,19.78,14.91,40.88,30.27l-2.76,10.28c-40,22.13-77.9,43.69-77.9,43.69-1.84,1-1.66,1.39.23.42,0,0,40.53-20.2,82.08-41.6h16.1l3.71,2.64c6,4.22,12.56,8.73,19.08,13.19l-1.64,6.15c-5.7,3.14-11.44,6.36-16.7,9.37H117.44l-1.8,6.86c-6.14,3.54-10.11,5.88-10.11,5.88-2.31,1.28-2,1.78.35.65,0,0,4.88-2.33,12.11-5.89h9.45l1.45-5.39c5.65-2.82,11.79-5.93,17.83-9.05h11.79c17.58,11.88,32.32,21.58,32.32,21.58,1.85,1.23,2.11.84.31-.46,0,0-13.63-10.29-30.36-22.6l1.85-7c20.07-11,41.71-23.71,41.71-23.71,2.39-1.41,2.14-1.84-.34-.66,0,0-24,11.51-44.71,22.35H148.45c-6.64-4.84-13.39-9.68-19.64-14.09-1.47-1-3-2.08-4.46-3.13l1.75-6.58c6.21-3.22,12.29-6.41,18.11-9.49h25.5c7.75,5.16,12.84,8.5,12.84,8.5,1.35.88,1.62.51.31-.45,0,0-4.93-3.72-12.47-9.35l4-14.94c47-25.66,100.48-56.1,100.48-56.1,2.42-1.39,2.26-1.67-.21-.42"/></g></g></svg>