<svg id="Layer_1" data-name="Layer 1" xmlns="http://www.w3.org/2000/svg" viewBox="0 0 300 300"><defs><style>.cls-1{fill:#fff;}</style></defs><title>SYK_Dark_bg</title><path class="cls-1" d="M97.71,160.74c-2.57,0-4.24-.67-4.26-2.82,0-1.24,0-16.25,0-16.25h10.72v-7.85H93.45V123H85.62v10.8H58.51s-11.06-.47-11.06,10.68,11.06,10.63,11.06,10.63H71.65a2.81,2.81,0,0,1,0,5.62H42.5v7.84h29s11.23.49,11.23-10.68c0-10.85-11.23-10.63-11.23-10.63H58.45a2.81,2.81,0,0,1,0-5.61c2.34,0,27.19,0,27.19,0v16.25s-.94,10.67,10.24,10.67h8.3v-7.85"/><path class="cls-1" d="M124.74,149.49h7.85v-5.14c0-11-10.85-10.53-10.85-10.53h-14.6v34.76h7.94V142h6.63c2,0,3,1.15,3,3.41"/><path class="cls-1" d="M249.65,149.49h7.85v-5.14c0-11-10.85-10.53-10.85-10.53h-14.6v34.76H240V142h6.63c2,0,3,1.15,3,3.41"/><path class="cls-1" d="M132,169.13V177h9.86a11.31,11.31,0,0,0,6.38-1.67c3.77-2.25,5.61-8,6-9.44.5-1.74,9.59-32,9.59-32h-8.67l-6.82,24.64-6.84-24.64h-8.66l9.64,32,.25.81c.37,1.17-.15,2.47-1.36,2.48"/><path class="cls-1" d="M174.16,147V123h-7.83v45.56h7.83v-9.77l4.45-5.54,8.63,15.31h9l-12-21.39,11-13.37H185"/><path class="cls-1" d="M202.63,147.32c.67-3.06,4.77-6.11,8.87-6.11s8,2.75,8.86,6.11Zm26.23,3.75a17.12,17.12,0,0,0-17.36-17.44c-10.83.19-17.49,7.84-17.49,17.46,0,9.46,7.3,17.49,17,17.49h11.31v-7.84H211.66c-4,0-8.51-2.94-9-6.58h26A17.49,17.49,0,0,0,228.86,151.07Z"/></svg>