<svg id="Layer_1" data-name="Layer 1" xmlns="http://www.w3.org/2000/svg" viewBox="0 0 300 300"><defs><style>.cls-1{fill:#0181c5;}.cls-2{fill:#6db33f;}</style></defs><title>SYY_Light_bg</title><path class="cls-1" d="M80.74,110.79v11a1.09,1.09,0,0,1-.63-.14,37.91,37.91,0,0,0-15.32-2.76,10.05,10.05,0,0,0-7,2.83,8.22,8.22,0,0,0-2.14,7.68,6.26,6.26,0,0,0,3.05,3.93,31.48,31.48,0,0,0,6.34,3,88.33,88.33,0,0,1,9.11,3.79A22,22,0,0,1,80.74,145a15.79,15.79,0,0,1,3.83,8.78,21.33,21.33,0,0,1-1.17,10.44,17,17,0,0,1-9.08,9.36,30.76,30.76,0,0,1-10.67,2.67,53.44,53.44,0,0,1-18.41-1.71c-.88-.23-1.78-.43-2.69-.65V162.12c.19-.06.32.09.48.17A38.15,38.15,0,0,0,56.31,166a18.53,18.53,0,0,0,8.1-.81,11.43,11.43,0,0,0,4-2.35,6.89,6.89,0,0,0-.26-10.55,18.48,18.48,0,0,0-4.59-2.72c-2.73-1.23-5.57-2.2-8.33-3.37a31.07,31.07,0,0,1-8-4.57,15.28,15.28,0,0,1-5.65-10.65,22.69,22.69,0,0,1,.86-9.33,17.16,17.16,0,0,1,9-10.3,26.79,26.79,0,0,1,10.15-2.72,50.57,50.57,0,0,1,18.7,2l.37.13S80.75,110.8,80.74,110.79Z"/><path class="cls-1" d="M225.66,127.3a26,26,0,0,1,14.43,4.24,22.4,22.4,0,0,1,9.63,14.69,27.2,27.2,0,0,1-.93,15.11c-2.83,7.69-8.36,12.46-16.28,14.4a28.87,28.87,0,0,1-17.32-.87c-7.66-2.87-12.39-8.44-14.23-16.36a26.87,26.87,0,0,1,1.84-18.08,22.22,22.22,0,0,1,14.33-12A29.24,29.24,0,0,1,225.66,127.3Zm11.66,23.94a19.54,19.54,0,0,0-.27-3.67,14.68,14.68,0,0,0-2.44-6.11,10.77,10.77,0,0,0-8.46-4.61,11,11,0,0,0-9.46,3.75,13.6,13.6,0,0,0-3,6.07,24.26,24.26,0,0,0,.05,9.86,15.7,15.7,0,0,0,2.31,6,10.12,10.12,0,0,0,8.27,4.57c5.16.28,9.18-1.77,11.31-6.75A24.06,24.06,0,0,0,237.32,151.24Z"/><path class="cls-1" d="M126.49,164.53a34.17,34.17,0,0,0,4.91,2,23.45,23.45,0,0,0,8.44,1.09,10.35,10.35,0,0,0,4.24-1.14,5,5,0,0,0,2.75-5.6,4.64,4.64,0,0,0-2.3-3.05,19.16,19.16,0,0,0-4.78-1.9,62.37,62.37,0,0,1-6.58-2.14,12.28,12.28,0,0,1-6.37-5.24,13.42,13.42,0,0,1-1.48-7.51c.36-5.81,3.54-9.59,8.74-11.83a26.84,26.84,0,0,1,11.6-1.85A62.77,62.77,0,0,1,157.32,129a2.74,2.74,0,0,1,.31.1l-.18,9.17c-.94-.27-1.81-.54-2.69-.78a31.47,31.47,0,0,0-10.26-1.14,8,8,0,0,0-4.18,1.28,4.34,4.34,0,0,0-2,4.41,3.42,3.42,0,0,0,1.68,2.43,16.07,16.07,0,0,0,4.28,1.83c2.34.74,4.71,1.37,7,2.34a17.77,17.77,0,0,1,4.27,2.5,11.28,11.28,0,0,1,4.06,6.76,16.06,16.06,0,0,1-.35,8A13.63,13.63,0,0,1,152,174a24.3,24.3,0,0,1-8.91,2.44A50.55,50.55,0,0,1,126,174.63a1,1,0,0,1-.2-.09C126,171.23,126.24,167.92,126.49,164.53Z"/><path class="cls-1" d="M198,128.9c-.37,3.21-.74,6.4-1.12,9.63-.51-.2-1-.4-1.44-.57a18.42,18.42,0,0,0-9.44-.91,11.37,11.37,0,0,0-8.68,6.95,18.83,18.83,0,0,0-1.5,8.68,18.27,18.27,0,0,0,2,8.14,11.29,11.29,0,0,0,9.52,6.2,22.54,22.54,0,0,0,9.47-1.55c.48-.17,1-.36,1.49-.56.18,3.39.37,6.73.55,10.11a19.85,19.85,0,0,1-3.1.79,41.68,41.68,0,0,1-14.52.35c-9-1.57-14.82-6.87-17.28-15.66a30.75,30.75,0,0,1,.12-17.55,20.81,20.81,0,0,1,11.76-13.66,23.3,23.3,0,0,1,9-2,42.61,42.61,0,0,1,12.52,1.33l.47.14Z"/><path class="cls-1" d="M102,191.57H90.59L114,127.79h12.64Z"/><path class="cls-2" d="M95.77,166.49a72.6,72.6,0,0,0-7.13-21.82,79.28,79.28,0,0,0-13.87-18.32,2.54,2.54,0,0,1,1.47,0,39.1,39.1,0,0,1,11.26,2.81,23.33,23.33,0,0,1,10.77,8.55,18.4,18.4,0,0,1,2.89,8.62,32,32,0,0,1-2.5,14.58,40.32,40.32,0,0,1-2.48,5.18A.71.71,0,0,1,95.77,166.49Z"/><path class="cls-1" d="M258.5,133.29c-.2.05-.33.08-.47,0-.08-1.49-.16-3-.24-4.65-.58,1.63-1.13,3.14-1.66,4.64a.83.83,0,0,1-.58,0c-.54-1.47-1-3-1.57-4.47-.09,1.49-.17,3-.25,4.47a1.8,1.8,0,0,1-.7.07c.13-1.89.25-3.73.37-5.57a2.47,2.47,0,0,1,.94,0c.53,1.46,1.07,2.93,1.53,4.58.48-1.63,1.05-3.09,1.59-4.55a4,4,0,0,1,.93-.06C258.58,129.58,258.44,131.43,258.5,133.29Z"/><path class="cls-1" d="M252.55,128.35h-1.71v4.92a1.11,1.11,0,0,1-.74,0v-4.94h-1.63a.81.81,0,0,1-.06-.59h4.09C252.61,127.93,252.54,128.11,252.55,128.35Z"/></svg>