<?xml version="1.0" encoding="utf-8"?>
<!-- Generator: Adobe Illustrator 24.0.1, SVG Export Plug-In . SVG Version: 6.00 Build 0)  -->
<svg version="1.1" id="Layer_1" xmlns="http://www.w3.org/2000/svg" xmlns:xlink="http://www.w3.org/1999/xlink" x="0px" y="0px"
	 viewBox="0 0 300 300" style="enable-background:new 0 0 300 300;" xml:space="preserve">
<style type="text/css">
	.st0{fill:#00A8E0;}
</style>
<title>T_Light_bg</title>
<g>
	<path id="path9" class="st0" d="M67.4,256.6c51.1,39.7,122.9,37.5,171.6-5.1c0.3-0.3,0.2-0.4,0-0.3c-10.5,7.1-41,22.6-88.8,22.6
		c-41.5,0-67.8-9.3-82.6-17.5C67.3,256.2,67.1,256.4,67.4,256.6 M159.3,263.5c33.2,0,69.7-9.1,91.5-27c6.8-5.6,12.4-12.5,16.8-20.1
		c3.1-5.4,5.8-11.1,8.1-16.9c0.1-0.3,0-0.4-0.3,0c-20.3,29.9-79.1,48.5-139.8,48.5c-42.9,0-89.1-13.7-107.2-39.9
		c-0.2-0.3-0.4-0.2-0.2,0C45.1,243.9,96.2,263.5,159.3,263.5 M122.9,204.1C53.8,204.1,21.2,172,15.3,150c-0.1-0.4-0.3-0.3-0.3,0
		c0,7.8,0.7,15.6,2,23.3c1.2,4.4,3.6,8.5,6.8,11.8c16.7,17.5,58.5,41.9,130.7,41.9c98.4,0,120.8-32.8,125.5-43.6
		c3.3-7.7,5-21.6,5-33.4c0-2.8,0-5.1-0.2-7.3c0-0.4-0.2-0.4-0.3,0C279.6,169,195.5,204.2,122.9,204.1 M28.1,92.2
		c-4.2,8.9-7.5,18.3-9.6,28c-0.6,2.2-0.4,4.5,0.7,6.5c8.3,17.6,50.2,45.7,147.9,45.7c59.6,0,105.9-14.6,113.4-41.4
		c1.5-5.6,1.4-11.5-0.3-17.1c-2.2-8-5.1-15.9-8.8-23.4c-0.1-0.2-0.3-0.2-0.3,0c1.2,35-96.6,57.6-145.9,57.6c-53.4,0-98-21.3-98-48.2
		c0.1-2.7,0.5-5.3,1.2-7.9C28.4,92,28.3,91.9,28.1,92.2 M239.3,49c0.6,0.9,0.9,2.2,0.8,3.3c0,15-45.9,41.5-118.9,41.5
		c-53.7,0-63.7-19.9-63.7-32.6c0.2-5.1,2.1-10,5.5-13.9c0.2-0.3,0-0.4-0.2-0.2c-7,5.9-13.3,12.5-19,19.7c-2.2,2.3-3.7,5.1-4.3,8.2
		c0,26.3,65.7,45.3,127.3,45.3c65.7,0,94.8-21.4,94.8-40.2c0-6.7-2.6-10.5-9.3-18.4c-4-4.6-8.3-8.9-12.8-13
		C239.3,48.7,239.1,48.9,239.3,49 M219.2,34C176.3,8.5,122.8,8.7,80.1,34.6c-6.1,3.7-9.5,6.8-9.5,10.5c0,11.4,26.6,23.6,73.8,23.6
		c46.7,0,82.9-13.4,82.9-26.3C227.3,39.4,224.7,37.3,219.2,34"/>
</g>
</svg>
