<svg xmlns="http://www.w3.org/2000/svg" viewBox="0 0 300 300"><g id="svg16"><path id="path252" d="M229.22216,159.4077A85.70548,85.70548,0,1,0,77.00776,171.47a53.01357,53.01357,0,0,1,92.962,38.51062,85.61985,85.61985,0,0,0,59.25238-50.57292" fill="#ebb13e"/><path id="path254" d="M77.00776,171.47a53.00428,53.00428,0,1,0,89.06652,54.94687,53.452,53.452,0,0,0,3.8955-16.45327A85.70069,85.70069,0,0,1,77.00786,171.47" fill="#5886c3"/><path id="path256" d="M137.38777,157.18658a53.04158,53.04158,0,0,0-60.38,14.28342,85.70069,85.70069,0,0,0,92.96192,38.49355,52.9891,52.9891,0,0,0-32.582-52.777" fill="#d97038"/><path id="path258" d="M184.45819,43.53412A89.96836,89.96836,0,0,0,66.92726,92.21062a90.17957,90.17957,0,0,0-6.91961,31.89853v81.07049a57.12825,57.12825,0,0,0,97.78,41.193l.0174.01736,56.99711-57.35585-.04957-.05084A89.72981,89.72981,0,0,0,184.46,43.53483M165.83676,206.53009a81.46452,81.46452,0,0,1-83.47952-34.56386,48.72411,48.72411,0,0,1,83.47952,34.56391m-30.07039,44.64431a48.78475,48.78475,0,0,1-67.43621-44.76388,48.94124,48.94124,0,0,1,8.42315-27.62717,89.941,89.941,0,0,0,88.22928,36.52873,48.50314,48.50314,0,0,1-29.21613,35.86237m89.545-93.38911a81.75933,81.75933,0,0,1-50.983,46.57494,57.23849,57.23849,0,0,0-96.43034-39.92874,81.8164,81.8164,0,0,1-3.12665-68.974,81.46637,81.46637,0,0,1,150.54011,62.32776" fill="#e0e4e6"/></g></svg>