<svg id="Layer_1" data-name="Layer 1" xmlns="http://www.w3.org/2000/svg" viewBox="0 0 300 300"><defs><style>.cls-1{fill:#fff;}.cls-2{fill:#bababa;}</style></defs><title>TDG_Dark_bg</title><path class="cls-1" d="M166.6,169.48l.35-1.71h4.25L170.11,173a12.93,12.93,0,0,1-2.42.47,22,22,0,0,1-2.41.12c-2.07,0-4.6-1.29-3.75-5.42s4-5.42,6-5.42c3,0,4.68.9,4.17,3.39h-2.37c.27-1.32-.51-1.75-1.72-1.75-2,0-3.23,1.44-3.74,3.78s.16,3.78,2.11,3.78a10.31,10.31,0,0,0,2.1-.23l.47-2.19h-2"/><path class="cls-1" d="M176.42,173.3H174.2l2.22-10.36h4.4c1.8,0,3.47.58,3,2.69a3.33,3.33,0,0,1-2.69,2.53v0c1.68.19,1.45,1.24,1.33,2.69a6.27,6.27,0,0,0,.08,2.45h-2.46c0-.93.12-1.87.2-2.8.07-.59.07-1.37-.63-1.41h-2.37l-.9,4.17m1.25-5.88h1.87a1.77,1.77,0,0,0,1.87-1.4c.19-.94-.31-1.33-1.29-1.33h-1.87Z"/><path class="cls-1" d="M186.75,168.12c.66-3.08,2.68-5.42,6.15-5.42s4.48,2.34,3.86,5.42-2.69,5.42-6.16,5.42-4.52-2.34-3.85-5.42m2.33,0c-.39,1.79-.39,3.78,1.8,3.78s3-2,3.43-3.78.39-3.78-1.8-3.78S189.47,166.33,189.08,168.12Z"/><path class="cls-1" d="M210.56,162.94l-1.37,6.5a5.13,5.13,0,0,1-5.38,4.1c-2.53,0-4.2-1.33-3.62-4.1l1.36-6.5h2.22l-1.2,5.65c-.39,1.75-.63,3.35,1.56,3.35s2.61-1.6,3-3.35l1.2-5.65h2.23"/><path class="cls-1" d="M212.5,173.3l2.22-10.36h3.2c2.3,0,4.13.54,3.55,3.19-.39,1.87-1.95,3.12-4.29,3.2h-1.64l-.85,4H212.5m3.47-5.77c1.25,0,2.77.39,3.16-1.48s-1.33-1.4-2.53-1.48Z"/><polyline class="cls-1" points="231.6 173.3 229.38 173.3 231.56 162.94 233.82 162.94 231.6 173.3"/><polyline class="cls-1" points="242 173.3 239.74 164.69 239.7 164.73 237.87 173.3 235.81 173.3 237.99 162.94 241.3 162.94 243.52 171.08 243.56 171.08 245.31 162.94 247.38 162.94 245.16 173.3 242 173.3"/><path class="cls-1" d="M256.61,166.29a1.47,1.47,0,0,0-1.55-2c-1.6,0-2.5,2.34-2.81,3.78s-.39,3.82,1.17,3.82a2.43,2.43,0,0,0,2.42-2h2.37c-.66,2.61-2.73,3.59-5.1,3.59-3,0-3.86-2.38-3.2-5.42s2.5-5.42,5.5-5.42c2.37,0,4,1,3.58,3.59h-2.38"/><polyline class="cls-1" points="259.62 173.3 260 171.39 261.84 171.39 261.45 173.3 259.62 173.3"/><polyline class="cls-1" points="29.59 127.05 54.84 127.05 53.75 132.23 44.44 132.23 38.94 158.18 32.24 158.18 37.77 132.23 28.5 132.23 29.59 127.05"/><path class="cls-1" d="M56.75,158.18h-6.7l6.62-31.13H69.92c5.34,0,10.45,1.75,9.12,8.1A9.86,9.86,0,0,1,71,142.71v.08c5,.55,4.37,3.7,4,8-.12,2-.62,5.65.23,7.36H67.82c0-2.76.31-5.57.62-8.37.2-1.72.27-4.1-1.91-4.17H59.44l-2.69,12.54m3.78-17.69h5.61c3,0,5-1.52,5.57-4.28s-.89-3.94-3.81-4H62.28Z"/><path class="cls-1" d="M75.3,158.18l17.89-31.13h8l4.2,31.13H98.6l-.86-6.58H85.39l-3.74,6.58H75.3m21.86-11.76-1.44-13.29h-.08l-7.4,13.29Z"/><polyline class="cls-1" points="124.79 158.18 118.01 132.31 117.89 132.43 112.4 158.18 106.16 158.18 112.79 127.05 122.68 127.05 129.35 151.56 129.46 151.48 134.65 127.05 140.92 127.05 134.3 158.18 124.79 158.18"/><path class="cls-1" d="M159.16,135.93c.43-3.15-.94-4.71-4.17-4.71-2.46,0-5.22,1.28-5.81,4-.7,3.35,2.22,3.74,4.76,4.4,4.48,1.21,11.18,2.54,9.85,8.81-1.63,7.72-9,10.41-15.62,10.41-7.13,0-11.57-2.77-9.7-10.6h6.81c-1,3.46.51,5.76,4,5.76,2.69,0,6.39-.81,7.09-4.13.78-3.66-3.62-3.93-6.16-4.6-4.13-1.09-9.66-3.07-8.49-8.57,1.52-7.13,8.73-10.25,15.12-10.25,6,0,10.05,3.28,8.73,9.55h-6.39"/><path class="cls-2" d="M171,127.05h10.37c2.88.08,5.88.31,8.06,1.91,3.94,2.88,4.95,7.75,3.71,13.68s-4.37,10.79-9.51,13.67c-2.85,1.6-6,1.8-8.85,1.91H164.42L171,127.05m-1.52,27.43h6.32a11.06,11.06,0,0,0,8.65-3.54,17,17,0,0,0,4.13-8.34,12.5,12.5,0,0,0-.59-8.34c-.82-1.76-2.8-3.55-7.13-3.55h-6.31Z"/><polyline class="cls-2" points="192.94 158.18 199.57 127.05 203.85 127.05 197.27 158.18 192.94 158.18"/><path class="cls-2" d="M228.17,134.84c0-3.7-3-4.71-6.35-4.71-7.64,0-11.81,6.7-12.9,12.51-1.37,8,.15,12.35,9,12.5a23.33,23.33,0,0,0,6.43-1l1.87-8.81h-7.09l.78-3.7h11.37l-3.27,15.39a41.12,41.12,0,0,1-11.1,1.83c-4.41,0-7.88-.54-10.64-3.58s-2.92-8.22-2-12.63a25.18,25.18,0,0,1,4.72-9.58,17,17,0,0,1,14-6.63c5.26,0,10.6,2.42,9.55,8.42h-4.44"/><polyline class="cls-2" points="266.51 130.17 266.43 130.17 250.5 158.18 246.44 158.18 242.43 130.17 242.35 130.17 236.39 158.18 232.06 158.18 238.69 127.05 246.41 127.05 249.95 152.73 250.03 152.73 264.29 127.05 271.5 127.05 264.88 158.18 260.55 158.18 266.51 130.17"/></svg>