<svg id="Layer_1" data-name="Layer 1" xmlns="http://www.w3.org/2000/svg" viewBox="0 0 300 300"><defs><style>.cls-1{fill:#fff;fill-rule:evenodd;}</style></defs><g id="Layer_1-2" data-name="Layer 1"><g id="Layer_1_1" data-name="Layer 1 1"><path id="_Compound_Path_" data-name="&lt;Compound Path&gt;" class="cls-1" d="M53,215.41H31.55V82.61H53v50q6.09-10.76,12.22-14.2A29.41,29.41,0,0,1,79.55,115q15.65,0,25.9,13.37t10.21,37.11q0,21.47-10.11,36.68t-29,15.21a34.88,34.88,0,0,1-14.14-2.95,31.47,31.47,0,0,1-9.4-6.88Zm0-40.94q0,12.84,5.42,18.94a18.37,18.37,0,0,0,14.24,6.15,17.74,17.74,0,0,0,14.24-7Q92.61,185.46,93,165q0-15-5.18-23.11a16.24,16.24,0,0,0-14.58-8.14,18.17,18.17,0,0,0-14.57,6.88q-5.76,6.93-5.76,19.57Zm215.46.24h-19.9c-1.25,11.68-5.52,21.32-12.9,28.88q-13.38,13.6-33.81,13.61-22,0-33.62-15.12a55.1,55.1,0,0,1-11.6-34.54q0-21,12.85-34.93t33.86-13.91q19.95,0,32.8,13.52a46.11,46.11,0,0,1,12,24.76h20.33Zm-65.8,24.85q19.95,0,22.3-24.85H201.26l2.93-17.78h20.09a33.59,33.59,0,0,0-4.46-12.36q-5.37-8.37-16.59-8.38-11.65,0-17.22,8.67t-5.61,23q0,15.45,5.9,23.59a19.06,19.06,0,0,0,16.35,8.14Zm-76.92-70.68h21.49v86.48H125.73Z"/><path id="_Path_" data-name="&lt;Path&gt;" class="cls-1" d="M147.75,108.82a11.2,11.2,0,1,1-11.18-11.34h0A11.29,11.29,0,0,1,147.75,108.82Z"/></g></g></svg>