<svg id="Layer_1" data-name="Layer 1" xmlns="http://www.w3.org/2000/svg" viewBox="0 0 300 300"><defs><style>.cls-1{fill:#e98300;}.cls-2{fill:#fff;fill-rule:evenodd;}</style></defs><path id="path3601" class="cls-1" d="M30.52,87.25h239v125.5h-239Z"/><path id="path3611" class="cls-2" d="M132.46,133.06h-48a7.06,7.06,0,0,1,0-14.11h48a7.06,7.06,0,1,1,0,14.11ZM123,168.35H75a7.06,7.06,0,0,1,0-14.11h48a7.06,7.06,0,1,1,0,14.11ZM55.88,138.62a7.06,7.06,0,0,1,5-2.05h48a7,7,0,0,1,0,14.1h-48a7.08,7.08,0,0,1-7.07-7.07A7.12,7.12,0,0,1,55.88,138.62Zm139.78-19.26-2.91,11H177.89l-10.06,37.51H155l10.1-37.51H150.3l3-11Zm3.73,0h39l-2.91,10.69H209.11l-2.33,8.48h23.68l-2.68,9.8H204.14l-2.37,8.84h26.46l-2.84,10.74h-39l13-48.56ZM143,186a3.29,3.29,0,0,1-3.56-3.36,4.44,4.44,0,0,1,4.57-4.44,3.27,3.27,0,0,1,3,1.63L145.41,181a1.75,1.75,0,0,0-1.62-1,2.47,2.47,0,0,0-2.14,2.58,1.45,1.45,0,0,0,.36,1.14,1.4,1.4,0,0,0,1.09.48,2.47,2.47,0,0,0,1.62-.72l1.08,1.36A3.94,3.94,0,0,1,143,186Zm7.66,0a3.27,3.27,0,0,1-3.58-3.36,4.42,4.42,0,0,1,4.29-4.31,3.3,3.3,0,0,1,2.57.9,3.36,3.36,0,0,1,1,2.53,4.4,4.4,0,0,1-4.3,4.29Zm.1-1.79a2.42,2.42,0,0,0,2.1-2.41,1.52,1.52,0,0,0-.45-1.18,1.5,1.5,0,0,0-1.17-.44,2.46,2.46,0,0,0-2.14,2.44,1.65,1.65,0,0,0,.45,1.18,1.54,1.54,0,0,0,1.19.45Zm6.44-5.86h2.12l-.19.92a2.89,2.89,0,0,1,2-.92,2,2,0,0,1,2.2,2,6,6,0,0,1-.23,1.42l-1.07,4h-2.12l1.09-4.06a2.66,2.66,0,0,0,.1-.68.9.9,0,0,0-.29-.7.87.87,0,0,0-.74-.21,1.64,1.64,0,0,0-1.63,1.48l-1.12,4.27h-2.11Zm8.58,0h2.12l-.22.92a2.89,2.89,0,0,1,2-.92,2,2,0,0,1,1.63.51,2.16,2.16,0,0,1,.64,1.59,6.18,6.18,0,0,1-.24,1.34l-1.08,4h-2.09l1.08-4.06a2.65,2.65,0,0,0,.09-.68.83.83,0,0,0-.28-.7.85.85,0,0,0-.73-.21,1.64,1.64,0,0,0-1.64,1.48l-1.17,4.27h-2.1Zm9,4.56h0v0Zm0,0a1.45,1.45,0,0,0,1.71,1.43,2.61,2.61,0,0,0,1.62-.58l1,1.31a4.38,4.38,0,0,1-2.84,1,3.12,3.12,0,0,1-2.47-.84,3,3,0,0,1-.95-2.43,4.44,4.44,0,0,1,4.38-4.43,2.82,2.82,0,0,1,3,2.94,4.79,4.79,0,0,1-.38,1.62Zm.25-1.35h3.24a2,2,0,0,0,0-.49,1.08,1.08,0,0,0-.35-.84,1.06,1.06,0,0,0-.87-.26,2.29,2.29,0,0,0-2.09,1.64l.07-.05Zm9.65,4.45a3.15,3.15,0,0,1-2.41-1,3.19,3.19,0,0,1-.93-2.44,4.41,4.41,0,0,1,4.37-4.37,3.24,3.24,0,0,1,3,1.64L187.18,181a1.76,1.76,0,0,0-1.63-1,2.45,2.45,0,0,0-2.12,2.57,1.41,1.41,0,0,0,.34,1.14,1.45,1.45,0,0,0,1.09.5,2.41,2.41,0,0,0,1.62-.74l1.08,1.37a3.85,3.85,0,0,1-2.79,1.2Zm6.41,0,0-.08a1.52,1.52,0,0,1-1.25-.32,1.54,1.54,0,0,1-.63-1.14,3.66,3.66,0,0,1,.13-.93l.88-3.42h-.88l.48-1.8h.9l.5-1.85h2.11l-.52,1.91h1.7l-.49,1.8H192.3l-.83,3.12v.33a.46.46,0,0,0,.62.53,2.71,2.71,0,0,0,1.08-.25l-.5,1.8a3.49,3.49,0,0,1-1.53.3Zm5.08-7.71h2.12l-2,7.58h-2.07Zm.64-2.62h2.21l-.52,1.88h-2.2Zm2.74,2.68h2l.33,4.87,3-4.87h2.27l-4.89,7.48h-1.89Zm9-.06h2.09l-2,7.55h-2.11Zm.72-2.57h2.13l-.5,1.86h-2.24Zm4,10.23,0,0a1.63,1.63,0,0,1-1.84-1.53,4,4,0,0,1,.14-.92l.9-3.37h-.93l.48-1.8h.9l.39-1.77h2.1l-.5,1.9h1.74l-.48,1.8h-1.76l-.83,3.12v.33a.5.5,0,0,0,.18.36.52.52,0,0,0,.4.08,2.93,2.93,0,0,0,1.09-.24l-.48,1.78a3.53,3.53,0,0,1-1.54.3Zm2.6,1.5,1.12-1.53a1.62,1.62,0,0,0,.82.31.9.9,0,0,0,.81-.47l-.92-7.47h2.15l.34,5,2.78-5h2.28L220.71,186a3.43,3.43,0,0,1-3.05,2.09,2.82,2.82,0,0,1-1.72-.59Z"/></svg>