<svg id="Layer_1" data-name="Layer 1" xmlns="http://www.w3.org/2000/svg" viewBox="0 0 300 300"><defs><style>.cls-1{fill:#fff;fill-rule:evenodd;}</style></defs><title>TFC_Dark_bg</title><path class="cls-1" d="M216.15,91.64a14.32,14.32,0,0,0-2.12-4.4,12.87,12.87,0,0,0-3.73-2.6c-2.4-1.08-3.76-1.11-59.23-1.2-31.21-.07-57,0-57.31.09s-1.48.33-2.63.51a9.35,9.35,0,0,0-4.1,2.1,14.91,14.91,0,0,0-3,4c-.94,2.1-1,5.35-1,59.94s0,57.85,1,59.94a15,15,0,0,0,3,4,11.12,11.12,0,0,0,4.1,2.19c1.15.23,27.88.41,59.39.41h57.31c4.22-2.12,6-3.48,6.59-4.4a17.09,17.09,0,0,0,1.84-4.12c.58-2,.74-13.87.74-58C217,102.19,216.86,94.13,216.15,91.64ZM94.61,205.33v-49h33.22v24.21h13.29v-61H127.83v24.21H94.61V94.8H205.27l-.2,48.67-33.5.28V119.54H158.28v61h13.29l.28-23.93h33.22l.27,48.68Z"/></svg>