<svg id="Layer_1" data-name="Layer 1" xmlns="http://www.w3.org/2000/svg" viewBox="0 0 300 300"><defs><style>.cls-1{isolation:isolate;}.cls-2{fill:#fff;}</style></defs><title>TFX_Dark_bg</title><g class="cls-1"><path class="cls-2" d="M226,80.46v20.12h-2.7c-12,0-23.93.11-35.89-.06a6.39,6.39,0,0,0-6.88,6.47c0,.81,0,1.62,0,2.42V219.53H154.23v-2.28q0-54.57,0-109.13a48.45,48.45,0,0,1,.95-9.38c1.91-9.52,7-16.2,17-18.28Z"/><path class="cls-2" d="M127,80.46c3.15.32,7.24,2.3,9.83,4.09,5.38,3.71,7.36,9.55,8.4,15.69a46.77,46.77,0,0,1,.55,7.66q.06,54.35,0,108.68v3H119.69v-3.11q0-53.24,0-106.47a21.16,21.16,0,0,0-.64-5.2,5.29,5.29,0,0,0-5.19-4.16c-13.13,0-26.27,0-39.41,0a1.66,1.66,0,0,0-.42.12V80.46Z"/></g></svg>