<svg id="Layer_1" data-name="Layer 1" xmlns="http://www.w3.org/2000/svg" viewBox="0 0 300 300"><defs><style>.cls-1{fill:#fff;}</style></defs><title>TJX_Dark_bg</title><polygon class="cls-1" points="129.09 115.54 101.35 115.54 101.15 209.01 77.1 209.01 77.1 115.74 49.5 115.54 49.5 91.34 129.09 91.34 129.09 115.54"/><polygon class="cls-1" points="198.26 111.66 212.33 91.53 238.2 91.53 212.33 133.69 239.14 175.6 212.82 175.6 198.16 154.4 161.66 208.81 135.59 208.81 184.48 133.79 157.53 91.53 184.24 91.53 198.26 111.66"/><path class="cls-1" d="M155.17,163.65c-1.87,16.82-13,32.27-28.14,39.7a51.59,51.59,0,0,1-23,5.36V185.3a29.18,29.18,0,0,0,26.8-19.58c.64-1,.74-2.71,1-3.94L132,91h23.22Z"/><path class="cls-1" d="M250.5,98.72a6.55,6.55,0,1,0-6.54,6.54,6.58,6.58,0,0,0,6.54-6.54m-.74,0a5.81,5.81,0,1,1-5.85-5.81,5.82,5.82,0,0,1,5.85,5.81m-8.26,3.44h.93v-3.1h2.36c1.53,0,1.09,1.33,1.23,2.17l.15.93h1.08c-.39-.64-.24-.79-.34-1.72-.1-1.23-.15-1.38-.89-1.82A1.83,1.83,0,0,0,247,96.8c-.1-1.62-1.18-1.87-2.31-1.87H241.5v7.23Zm3.24-6.39c.59,0,1.48.14,1.33,1.37-.1.94-.69,1.09-1.33,1.09h-2.31V95.72l2.31,0Z"/></svg>