<svg id="Layer_1" data-name="Layer 1" xmlns="http://www.w3.org/2000/svg" viewBox="0 0 300 300"><defs><style>.cls-1{fill:#ef4135;}.cls-1,.cls-3{fill-rule:evenodd;}.cls-2,.cls-3{fill:#fff;}</style></defs><title>TMO_Dark_bg</title><g id="layer1"><g id="g2416"><path id="path2384" class="cls-1" d="M62.78,131.49v-4.62H42v4.62h7.12v20.1h6.44v-20.1Zm80.09,20.1c-.17-1.64-.27-2.91-.27-3.77V139.5c0-3.45-2.53-5.61-5.89-5.61a6.63,6.63,0,0,0-5.72,3,5.08,5.08,0,0,0-4.83-2.94c-2.39,0-4.41.79-5.54,2.94l-.14-2.56h-5.89v17.22h6.1V141.22c0-.55-.24-3.5,2.57-3.5,1.88,0,2.33,1.68,2.33,3.32v10.55h6V141.22c0-.55-.24-3.5,2.57-3.5,1.88,0,2.33,1.68,2.33,3.32v10.55Zm-29.68-12.16V134.2c-2.63,0-4.65.82-5.44,3.45l-.13-3.28h-6.1c.14,1.4.14,3.28.14,4.41v12.81h6.09v-7.53c0-2.84.82-4.59,4.18-4.66.41,0,.82,0,1.26,0m40.18-5.54c-5.61,0-9.28,3.11-9.28,9,0,6.09,3.7,9.14,9.28,9.14s9.28-3,9.28-9.14c0-5.93-3.66-9-9.28-9m0,3.63c2.57,0,3,2.63,3,5.34,0,3.15-.55,5.61-3,5.61s-3-2.46-3-5.61c0-2.74.48-5.38,3-5.38ZM81.55,151.59a36.94,36.94,0,0,1-.24-3.77V139.5c0-3.45-2.57-5.61-5.92-5.61a7.11,7.11,0,0,0-2.88.55,6,6,0,0,0-2.19,1.74v-9.31h-6.1v24.72h6.1V141.21c0-.54-.24-3.49,2.57-3.49,1.91,0,2.33,1.68,2.33,3.32v10.55Zm18.62-7.43c0-6.2-1.81-10.27-8.69-10.27-5.45,0-8.7,3.35-8.7,8.59,0,6.44,2.3,9.59,9,9.59a9.44,9.44,0,0,0,5.34-1.44A6.21,6.21,0,0,0,100,145.9H94.28a2.68,2.68,0,0,1-2.91,2.64c-2.32,0-2.8-2.23-2.77-4.38Zm-5.82-3.32H88.71c.13-1.81.54-3.66,2.8-3.77a2.28,2.28,0,0,1,2.16,1.2,4.77,4.77,0,0,1,.68,2.6Z"/><path id="path2386" class="cls-1" d="M258,139.13v-5.24c-2.64,0-4.66.82-5.44,3.46l-.14-3h-6.09c.13,1.4.13,3.28.13,4.42v12.8h6.1v-7.54c0-2.84.82-4.89,4.17-5,.41,0,.83,0,1.27,0m-31.7,12.46a36.94,36.94,0,0,1-.24-3.77V139.5c0-3.46-2.57-5.61-5.92-5.61a7,7,0,0,0-2.81.54,6.44,6.44,0,0,0-2.26,1.75v-9.31H209v24.72h6.09V141.21c0-.54-.24-3.49,2.57-3.49,1.92,0,2.33,1.68,2.33,3.32v10.55Zm-18.82-5.14a4.57,4.57,0,0,0-3.35-4.69c-3.66-1.3-6.4-1.37-6.4-2.74a1.45,1.45,0,0,1,1.57-1.61,2.19,2.19,0,0,1,1.64.55,2.43,2.43,0,0,1,.45,1.65h5.78c-.13-4.52-3.69-5.72-7.6-5.72-3.32,0-7.63,1.16-7.63,5.3,0,6,9.75,4.45,9.75,7.67,0,1.13-.92,1.64-2.12,1.64a1.9,1.9,0,0,1-1.57-.82,2.21,2.21,0,0,1-.38-1.67H191.8c-.1,5.13,3.7,6.06,7.91,6.06,3.94,0,7.77-1.44,7.77-5.62M245,144.16c0-6.2-1.82-10.27-8.7-10.27-5.44,0-8.69,3.35-8.69,8.59,0,6.44,2.29,9.59,9,9.59a9.39,9.39,0,0,0,5.34-1.44,6.18,6.18,0,0,0,2.91-4.72h-5.75a2.68,2.68,0,0,1-2.91,2.63c-2.33,0-2.81-2.22-2.77-4.38Zm-5.82-3.32h-5.65c.14-1.82.55-3.66,2.81-3.77a2.29,2.29,0,0,1,2.16,1.2,4.77,4.77,0,0,1,.68,2.6Zm-48.89-6.47h-6.09v17.22h6.09Zm-8-3,1.44-4.55H167.32v24.72h6.44v-9.72H179l1.43-4.56h-6.63v-5.88h8.5Zm8,0,1.44-4.54h-6l-1.44,4.54Z"/><rect id="rect2388" class="cls-2" x="97.91" y="158.83" width="2.23" height="14.01"/><path id="path2390" class="cls-3" d="M248.38,173.08c-4.67,0-8.16-2.59-8.16-7.14s3.92-7.4,8.3-7.4a8.62,8.62,0,0,1,4.4,1.23l-1.14,1.36a6.75,6.75,0,0,0-3.23-.92,5.83,5.83,0,0,0-4.44,1.71,5.76,5.76,0,0,0-1.42,4.1,5.13,5.13,0,0,0,1.66,4.09,6,6,0,0,0,4.32,1.35,7.76,7.76,0,0,0,3.54-1l1.09,1.31a9.49,9.49,0,0,1-4.92,1.31"/><rect id="rect2392" class="cls-2" x="224.88" y="158.83" width="2.24" height="14.01"/><polygon id="polygon2394" class="cls-3" points="174.35 160.51 169.13 160.51 169.13 172.84 166.94 172.84 166.94 160.51 161.76 160.51 161.76 158.83 174.59 158.83 174.35 160.51"/><path id="path2396" class="cls-3" d="M57.92,172.35a9,9,0,0,1-4,.78,13.15,13.15,0,0,1-5.67-1.26l.93-1.59a10.46,10.46,0,0,0,4.89,1.18,4.94,4.94,0,0,0,2.55-.57,2,2,0,0,0,1.23-1.81c0-1.17-.9-1.9-3.06-2.41l-2.29-.52c-2.26-.53-3.69-2-3.69-3.61,0-2.39,2.35-4.08,5.7-4.08a10.73,10.73,0,0,1,5.37,1.33l-1,1.46a8.78,8.78,0,0,0-4.26-1.12c-2,0-3.37.78-3.37,2.09,0,1,.84,1.62,2.8,2.09l2.11.5a7.49,7.49,0,0,1,3.1,1.42,3.51,3.51,0,0,1,1.09,2.51,4.16,4.16,0,0,1-2.48,3.61"/><path id="path2398" class="cls-3" d="M147.69,172.84l-5.57-7.47c-1.05-1.4-2.81-4.13-2.81-4.13s.2,2.36.21,4.43l.06,7.17h-2.23v-14H140l5.63,7.63c1.09,1.49,2.62,3.84,2.62,3.84s-.33-2.58-.35-4.44l-.05-7h2.2v14Z"/><rect id="rect2400" class="cls-2" x="186.08" y="158.83" width="2.23" height="14.01"/><polygon id="polygon2402" class="cls-3" points="212.68 160.48 205 160.48 205 164.62 211.5 164.62 211.5 166.28 205 166.28 205 172.84 202.76 172.84 202.76 158.83 212.98 158.83 212.68 160.48"/><polygon id="polygon2404" class="cls-3" points="114.59 172.84 114.59 158.83 124.93 158.83 124.63 160.51 116.83 160.51 116.83 164.68 123.48 164.68 123.48 166.35 116.86 166.35 116.86 171.09 125.2 171.09 125.2 172.84 114.59 172.84"/><path id="path2406" class="cls-3" d="M80.64,173.08c-4.67,0-8.16-2.59-8.16-7.14s3.92-7.4,8.3-7.4a8.62,8.62,0,0,1,4.4,1.23L84,161.13a6.72,6.72,0,0,0-3.23-.92,5.86,5.86,0,0,0-4.44,1.71A5.76,5.76,0,0,0,75,166a5.1,5.1,0,0,0,1.67,4.09,6,6,0,0,0,4.31,1.35,7.84,7.84,0,0,0,3.55-1l1.08,1.31a9.49,9.49,0,0,1-4.92,1.31"/></g></g></svg>