<?xml version="1.0" encoding="utf-8"?>
<!-- Generator: Adobe Illustrator 24.0.1, SVG Export Plug-In . SVG Version: 6.00 Build 0)  -->
<svg version="1.1" id="Layer_1" xmlns="http://www.w3.org/2000/svg" xmlns:xlink="http://www.w3.org/1999/xlink" x="0px" y="0px"
	 viewBox="0 0 300 300" style="enable-background:new 0 0 300 300;" xml:space="preserve">
<style type="text/css">
	.st0{fill:#E01075;}
</style>
<title>TMUS</title>
<g id="Marke_1_">
	<g id="Group_1_">
		<polygon id="Path_1_" class="st0" points="82.1,177 82.1,143.6 99.5,143.6 115.6,143.6 115.6,177 		"/>
		<polygon id="Path-2_1_" class="st0" points="184.3,177 184.3,143.6 203.5,143.6 217.7,143.6 217.7,177 		"/>
		<path id="Path-3_1_" class="st0" d="M215.9,67.7h-132l-1.8,58.5l8.9,1.3c1.8-17.4,6.2-29.9,13.4-38.4c7.6-8.5,18.3-13.4,32.1-13.8
			v121.8c0,10.7-1.3,17.4-4.5,20.5c-2.7,2.7-7.1,4.5-13.4,4.9c-1.8,0-4.9,0.4-9.4,0.4v9.4h81.6v-9.4c-3.1,0.1-6.3,0-9.4-0.4
			c-6.2-0.5-10.7-2.2-13.4-4.9c-3.1-3.1-4.5-10.3-4.5-20.5V75.7c13.8,0.5,24.5,4.9,32.1,13.8c7.6,8.5,12,21,13.4,38.4l8.9-1.3
			L215.9,67.7z"/>
	</g>
</g>
</svg>
