<svg id="Layer_1" data-name="Layer 1" xmlns="http://www.w3.org/2000/svg" viewBox="0 0 300 300"><defs><style>.cls-1{fill:#fff;}</style></defs><title>TPR_Dark_bg</title><g id="layer1"><g id="g212"><path id="path196" class="cls-1" d="M53.52,156.76c-2.55,0-3.63-1.59-3.63-4.76V137.62h8.54v-4.05H49.89v-8.43H44l-2,8.43H37.5v4.05h4.15v16.07c0,5.06,2.4,8.43,9.2,8.43a12.42,12.42,0,0,0,8.94-4.2L58.41,155a6.8,6.8,0,0,1-4.89,1.75Z"/><path id="path198" class="cls-1" d="M201.18,156.76c-2.56,0-3.64-1.59-3.64-4.76V137.62h8.55v-4.05h-8.55v-8.43h-5.88l-2,8.43h-4.46v4.05h4.15v16.07c0,5.06,2.4,8.43,9.2,8.43a12.44,12.44,0,0,0,8.94-4.2L206.07,155a6.82,6.82,0,0,1-4.89,1.75Z"/><path id="path200" class="cls-1" d="M256.93,130.15a4.81,4.81,0,0,0-5,4.6,3.56,3.56,0,0,0,5.94,2.76c.26,4.35-2.15,10.74-8.34,17.46l-4-21.4H234.86v3.12c2.4.46,2.92.92,3.68,4.56l4.05,19.34c-6.09,4.15-9.16,7.27-9.16,10.48,0,2.1,1.17,3.79,3.32,3.79,3.38,0,6.45-3.58,8.81-12,11.92-9.57,16.94-18.38,16.94-25.85,0-4.23-2.1-6.89-5.57-6.89Z"/><path id="path202" class="cls-1" d="M86.85,154.35V142.89c0-5.79-3.94-9.83-11.46-9.83-6.5,0-11.62,2.35-11.62,6.76a3.59,3.59,0,0,0,3.68,3.78,3.63,3.63,0,0,0,3.79-3.68,3.27,3.27,0,0,0-1.07-2.61,9.08,9.08,0,0,1,3-.46c3.83,0,5.52,2.1,5.52,5.62v3c-11.67-.77-16.58,2.76-16.58,8.6,0,4.6,3.38,8,9.06,8a10.23,10.23,0,0,0,8.29-3.83l1.48,3.32h9.36v-3.11c-2.55-.36-3.42-1.13-3.42-4.1Zm-8.18-.71c0,1.89-1.84,3.48-4.15,3.48-2.61,0-4-1.53-4-3.83,0-3.18,1.74-5,8.14-4.56Z"/><path id="path204" class="cls-1" d="M111.93,133.17a10,10,0,0,0-9.21,5l.21-4.6H91.76v3.12c2.56.36,3.43,1.18,3.43,4.14v29.42l-3.73.87v3H108v-3l-4.51-.92v-9.83a13,13,0,0,0,6.5,1.54c8,0,14-6,14-15.15C124,138.13,119,133.17,111.93,133.17Zm-3.79,24.41a7.24,7.24,0,0,1-4.66-1.59v-9.83c0-4.91,2.2-7.88,6-7.88s5.84,3.28,5.84,8.8c0,6.81-2.82,10.5-7.17,10.5Z"/><path id="path206" class="cls-1" d="M228.3,133.06c-3,0-5.88,2.25-7.37,6.2l.21-5.69h-11v3.12c2.55.36,3.43,1.18,3.43,4.15v16.89l-3.74.87v3h16.53v-3l-4.5-.92V145.81c0-3.43,1.33-5.94,3.38-7.07a3.62,3.62,0,0,0,3.58,2.82,4,4,0,0,0,4-4.15,4.23,4.23,0,0,0-4.5-4.35Z"/><path id="path208" class="cls-1" d="M173.09,143.81c-4.3-.87-6.65-1.07-6.65-3.58,0-1.84,1.49-3.27,4.25-3.27,3.53,0,5.63,1.48,6.55,4.55h2.87v-6.8a26.7,26.7,0,0,0-9.2-1.64c-7.53,0-11.82,3.43-11.82,9.26,0,6.65,5,7.78,9.36,8.65s6.65,1.07,6.65,3.58c0,2.25-1.95,3.63-5.17,3.63-4.4,0-6.39-1.84-7.63-5.58h-2.81v7a20.44,20.44,0,0,0,10.23,2.46c8,0,12.74-3.53,12.74-9.62C182.46,145.81,177.5,144.67,173.09,143.81Z"/><path id="path210" class="cls-1" d="M141.87,133.06c-9,0-14.49,6.09-14.49,14.79,0,8.3,5.48,14.23,14.49,14.23a13.73,13.73,0,0,0,12.18-6.39l-2-1.89a10.31,10.31,0,0,1-7.21,3.22c-5.11,0-8.24-3.27-8.75-9.2h18.16C155.48,141.25,152.21,133.06,141.87,133.06ZM136,144.22c.41-5.07,2.76-7.16,5.47-7.16,2.87,0,4.71,2.3,4.76,7.16Z"/></g></g></svg>