<svg id="Layer_1" data-name="Layer 1" xmlns="http://www.w3.org/2000/svg" viewBox="0 0 300 300"><path id="Layer" d="M249.16655,136.29338H232.39128c-.591-3.22777-1.182-6.36461-2.04576-9.456A84.494,84.494,0,0,0,173.746,69.05591a90.67257,90.67257,0,0,0-12.63828-2.77315,84.50312,84.50312,0,0,0-38.18761,3.50053A82.656,82.656,0,0,0,95.55236,85.28565,82.26526,82.26526,0,0,0,68.8665,126.701a71.25534,71.25534,0,0,0-2.04577,9.456H50.18185L50,47.098H249.75754v89.059Z" fill="#293a6a"/><path d="M214.11647,107.97059a76.58068,76.58068,0,0,0-62.28217-35.369,81.56886,81.56886,0,0,0-28.59542,4.728A76.37,76.37,0,0,0,133.96782,223.7154a74.72712,74.72712,0,0,0,28.5952.27276,71.20024,71.20024,0,0,0,20.63967-6.63736,78.2395,78.2395,0,0,0,23.27612-17.68451,73.72725,73.72725,0,0,0,15.45689-26.504,81.383,81.383,0,0,0,3.95524-22.27611A76.10581,76.10581,0,0,0,214.11647,107.97059ZM159.47173,203.2123a77.754,77.754,0,0,1-10.77445.13635,63.047,63.047,0,0,1-33.86877-13.22926,61.76656,61.76656,0,0,1,7.22855-101.87907,60.21774,60.21774,0,0,1,23.41264-7.95575c1.90925-.31827,3.81871-.45462,5.77347-.591a61.89629,61.89629,0,0,1,8.22856,123.51876Z" fill="#fff" fill-rule="evenodd"/><path d="M50.18184,252.902V162.97924H66.95711a83.74158,83.74158,0,0,0,156.751,25.36748,86.607,86.607,0,0,0,8.54674-25.36748h17.6845V165.025c.13638,28.91348,0,57.6451,0,86.55857V252.902Z" fill="#fff" fill-rule="evenodd"/><path d="M145.19625,178.89075a4.68023,4.68023,0,0,1-.591-1.63662c-.18185-1.45477.27277-2.90953.27277-4.40976-.13639-3.68238-.86377-7.81937-1.00015-11.50175-.18185-6.45552,1.13653-12.68373,1.00015-19.00288a23.22448,23.22448,0,0,0-1.182-4.728,1.67915,1.67915,0,0,1,.31823-1.182l.27277-.27277.591-.31823c-1.45477-1.773-1.31838-2.77315-1.182-5.00075a19.38661,19.38661,0,0,0-4.54615,2.04576l.13639,1.63662c-1.90938.27277-3.95514-.72739-3.81876-2.955a6.32226,6.32226,0,0,1,1.04562-3.22776,9.10733,9.10733,0,0,1,6.0009-3.09138c.18185-.18184.31823-.18184.45462-.31823a30.586,30.586,0,0,1,4.00061-4.728c.86376-.72738,3.22776.591,3.95514,1.36385.72739-1.36385,1.04561-1.36385,2.50038-1.773,6.31914-1.773,12.68374-3.68238,19.00288-5.1826a56.13136,56.13136,0,0,1,8.68314-.591,32.48862,32.48862,0,0,1,8.41036,1.31838A24.06373,24.06373,0,0,0,192.15791,120.2c.90923,1.50023-.27277,4.728-.72738,6.22822a4.67756,4.67756,0,0,0-2.77315,3.95514c-.31824.90923-1.63662.90923-2.364,1.182a3.14581,3.14581,0,0,0-1.04561,1.773,9.82513,9.82513,0,0,1-2.22761.72738c-.591.18184-1.31838,1.50023-1.45477,2.09123a70.91973,70.91973,0,0,0-6.18276,3.50053,5.05779,5.05779,0,0,0-1.182,1.773,10.46349,10.46349,0,0,0-3.546.90923c-2.364,1.182-5.59175,3.36415-7.95575,3.68238a5.85826,5.85826,0,0,0,1.63662,2.50038,41.027,41.027,0,0,1,5.00076,4.00061,7.33943,7.33943,0,0,1,1.31837,2.50038,6.57149,6.57149,0,0,1,2.81862.13638c1.90938.86377,3.22776,3.09138,5.13714,3.546a86.73462,86.73462,0,0,0,10.31975-.13639,9.57272,9.57272,0,0,0,2.81861-.77284c1.00016-.591.86377-1.31838,2.31854-.86377.90923.27277,1.773-1.04561,2.22761-1.63661a.81.81,0,0,1,.591-.27277,10.15368,10.15368,0,0,0,4.40976-2.09123,27.75673,27.75673,0,0,0,2.50038-1.90938c0-1.182.45462-2.364,1.90939-2.18215a5.5752,5.5752,0,0,1,0,3.22776,15.53453,15.53453,0,0,1-1.59115,2.81861c-1.31838,1.59115-3.40961,2.50038-4.0006,4.68253a5.7728,5.7728,0,0,0-2.50038,1.04561c-.13638,0-.27277.13639-.40915.13639a5.51385,5.51385,0,0,1-2.22761,0,13.21894,13.21894,0,0,0-1.182,2.22761,1.80176,1.80176,0,0,1-.591.27277c-4.40977,1.36384-9.27413,1.04561-13.86574,1.773H178.474a1.67671,1.67671,0,0,0-1.182-1.00016,7.89336,7.89336,0,0,0-2.63675-.591,3.02463,3.02463,0,0,0-1.31838-1.36384,25.07394,25.07394,0,0,1-5.77361-2.77315,117.32652,117.32652,0,0,1-11.63813-9.456,17.27229,17.27229,0,0,0-4.09153.90922,2.79874,2.79874,0,0,1-1.63661-.31822c-.72739-.27278-.591-1.45477-.591-2.04577a3.30065,3.30065,0,0,1,.86376-2.364,29.57459,29.57459,0,0,1,4.59161-4.00061,2.43415,2.43415,0,0,1,1.31838,0l1.182,1.773a6.485,6.485,0,0,1,3.68238-.72738,9.07583,9.07583,0,0,1,2.50038-2.22761,8.28907,8.28907,0,0,1,3.09137-.591c.591-.86376,2.364-1.31838,3.22777-1.72754.90923-.45461,2.364-1.773,3.27323-2.364,3.22776-2.09123,6.45553-3.09138,9.5469-5.63721,1.31838-1.182,2.50038-2.90953,4.137-4.27338.72739-.591.591-2.04576.45462-2.77315-.18185-.72738-2.50038-1.63661-3.09137-1.90938l-.591-1.04561c-2.22761-.13639-4.27337-.31823-6.501-.31823-7.81937.45461-15.3205,2.955-22.54887,5.63722a18.87522,18.87522,0,0,0-3.22777,1.45476,18.16426,18.16426,0,0,0-2.50038,2.04576,62.0293,62.0293,0,0,1-.31823,9.18321,22.17848,22.17848,0,0,0,1.182,5.13715,107.37065,107.37065,0,0,0-1.90937,16.5025c0,4.45522,1.182,8.41037.90922,12.68374-.31822,1.773-.77284,3.546-1.182,5.1826,0,.27277-.31822.40915-.45461.591-.72739.13638-1.45476,0-2.04576.72739a.28415.28415,0,0,0,0-.45462Z" fill="#b12f29"/><path d="M127.64814,176.845a1.70062,1.70062,0,0,1-1.63662-.45461,6.95883,6.95883,0,0,1-.591-.72739,9.51664,9.51664,0,0,1-.40915-4.0006,1.57046,1.57046,0,0,1,1.00015-.72738c-1.59115-2.04577-1.59115-5.00076-1.31838-7.50114a5.05833,5.05833,0,0,1,1.04562-2.364V160.297a37.26007,37.26007,0,0,1-.86377-5.86452,61.118,61.118,0,0,1,1.00015-11.50174,21.91384,21.91384,0,0,0,.72739-3.09138c.18184-2.81861-.86377-6.9556-1.00015-10.047a23.30937,23.30937,0,0,1,.13638-4.728c0-.13639-.13638-.72739-.13638-.86376-.31823,0-.591.13638-.90923.13638-2.50038,1.63662-5.27353,2.50038-7.95575,3.86422-.591.13639-1.00015.27277-1.59115.40915a5.92082,5.92082,0,0,0-3.546.18185,31.28271,31.28271,0,0,1-4.40975,2.18215,3.01584,3.01584,0,0,1-1.182-.13639c-.31823-.31823-1.63661-1.182-1.63661-1.31838-.13639-.18184-.13639-.31823-.27277-.45461a3.75712,3.75712,0,0,1,1.182-4.00061c1.72753-1.45476,4.68253-.72739,6.77375-1.13654,1.00015-.18184,1.773-1.04561,2.77315-1.36384,2.364-.72739,4.40976-.13639,6.77375-1.45476a12.858,12.858,0,0,0,3.546-2.50038,8.42718,8.42718,0,0,0,1.63662-3.09138,1.96491,1.96491,0,0,1,2.31853-.45462,8.23313,8.23313,0,0,0,2.364,1.182,6.87875,6.87875,0,0,0,2.364,0,14.97771,14.97771,0,0,0,3.546-1.04561,5.12744,5.12744,0,0,0,1.90938-1.90938,8.54714,8.54714,0,0,0,3.22777-.13639c2.364-.72738,4.728-2.2276,7.092-2.955,2.955-.72738,6.63737-1.63661,9.59236-2.22761.86377-.27277,1.59115-.72738,2.31854-1.00015a4.69253,4.69253,0,0,1,2.955,0c.72739,2.04577-.86376,2.77315-2.50038,3.50053a3.89464,3.89464,0,0,1-2.04576,0l-.18185,1.04562a2.05959,2.05959,0,0,0-2.18215.45461,62.79091,62.79091,0,0,0-8.41036,3.09138,5.505,5.505,0,0,0-1.773,1.773h-2.955l-.40915.86377c-2.364.18184-6.18276,2.22761-8.41036,3.09138a17.00884,17.00884,0,0,1-2.955.591,20.65841,20.65841,0,0,0-.40915,6.04637,4.39408,4.39408,0,0,1-.90923,1.90938,1.09408,1.09408,0,0,0-.13638.90923c1.04561,3.68238.591,5.72814,0,9.59236-.591,4.40976-.13639,11.3199-.45462,16.18427a39.38538,39.38538,0,0,1-1.182,7.41021,4.05389,4.05389,0,0,1,.45462,2.63676c-.31823,2.81861-.72739,5.45537-.90923,8.41036a7.3293,7.3293,0,0,1-1.13654,2.50038c.13639-.45461,0-.31823-.31823-.13638Z" fill="#b12f29"/></svg>