<svg id="Layer_1" data-name="Layer 1" xmlns="http://www.w3.org/2000/svg" viewBox="0 0 300 300"><defs><style>.cls-1{fill:#fff;}</style></defs><path class="cls-1" d="M65.35,205.65v49.71l43.21-25A82.28,82.28,0,0,1,65.35,205.65Z"/><path class="cls-1" d="M108.24,69.38,65.35,44.64V94.05A82.85,82.85,0,0,1,108.24,69.38Z"/><path class="cls-1" d="M247.73,150l-43.19-25a82.77,82.77,0,0,1-.13,50Z"/><path class="cls-1" d="M93.8,82.4c6.19-1.37,19,0,25.86,1.88A39.27,39.27,0,0,1,141.49,77,86.47,86.47,0,0,0,93.8,82.4Z"/><path class="cls-1" d="M176.11,172.84a111.85,111.85,0,0,0-6.76-27.67c-14.74,6.71-33.1,2.39-45.33-8.21A201.78,201.78,0,0,0,100,167.53C120.69,184.45,154.8,188.9,176.11,172.84Z"/><path class="cls-1" d="M88.6,169.15c-18.28-18.75-24.66-46.08-18.81-67.09a73.8,73.8,0,0,0,4.21,100A133.75,133.75,0,0,1,88.6,169.15Z"/><path class="cls-1" d="M166,137.23a99.28,99.28,0,0,0-14.74-22.72,170.85,170.85,0,0,0-21.05,16.38C141.3,140.1,155.79,141.91,166,137.23Z"/><path class="cls-1" d="M152.27,103.05a76.56,76.56,0,0,1,16-8.91c-11.71-11.84-30.53-11.53-38.72-6.32A78,78,0,0,1,152.27,103.05Z"/><path class="cls-1" d="M95.27,175.29C86.18,191,82.85,202.68,81.63,208.73a73.65,73.65,0,0,0,90.92-1.84A63.18,63.18,0,0,0,176.76,183C151.58,198,116.88,192.29,95.27,175.29Z"/><path class="cls-1" d="M173.18,132c8.07-8.43,6.45-22.84.32-31.14a62,62,0,0,0-15,8.81A110.77,110.77,0,0,1,173.18,132Z"/><path class="cls-1" d="M187.08,113.86a29.7,29.7,0,0,1-10.19,26.53,121.35,121.35,0,0,1,7,24.78C195,150.8,194.62,130.28,187.08,113.86Z"/><path class="cls-1" d="M124.25,124.5A175.26,175.26,0,0,1,145,108.09,69.9,69.9,0,0,0,122.18,94.2C115.32,103.41,117.42,115.29,124.25,124.5Z"/><path class="cls-1" d="M185.23,176.74a103.58,103.58,0,0,1-.91,18.71,74.54,74.54,0,0,0,15.4-51.62A56.57,56.57,0,0,1,185.23,176.74Z"/><path class="cls-1" d="M113.59,91.59a59.79,59.79,0,0,0-29.27.19c-14.51,20.59-7.77,50.74,9.12,69.54A212.26,212.26,0,0,1,118,130.59C109.38,119.91,106,103.41,113.59,91.59Z"/></svg>