<svg xmlns="http://www.w3.org/2000/svg" viewBox="0 0 300 300"><g id="Artwork"><path d="M154.58462,148.38844c-.86134-1.77827-.52793-4.279.25006-4.11227,2.94526.36121,3.72325-.27785,3.72325-2.19505-1.08363-3.86219-6.91859-2.27841-11.1142-2.58406a2.77855,2.77855,0,0,0-2.44512,3.751c.7502,1.36148,1.556,1.19478,2.63962.91693s.88913-.7502,2.25061-.27785a3.69547,3.69547,0,0,1,1.91723,3.72327c-.47235,1.36148-1.80606,1.69491-3.362,1.75047a42.43029,42.43029,0,0,1-4.97361,0c-2.1117-.25006-4.83467,0-5.14031-3.44539-.1945-4.64018,4.39011-6.55738,6.77967-10.86414.80578-4.08447-1.08364-5.25146-1.66713-7.97445s-2.77855-6.02945.41679-7.91886c8.91914-3.69548,8.19671,10.39177,12.309,11.1142,2.77855.3612,4.72352.86134,6.39067-1.556.47235-1.167.88914-3.30648-.88914-4.00112-9.33593,2.38955-5.5571-10.22507-13.89275-9.975-1.13921-2.02835-.47234-5.94609-3.94553-6.02945-.97249.1945-1.36149,1.36149-1.13922,2.44512,2.44512,6.94638-4.05668,4.05668-6.3073,7.50208-2.77855,7.80772-6.39067,2.77855-11.41984,4.00112a3.25089,3.25089,0,0,0-2.3062,5.02917c1.556,3.44539,7.02973,3.22312,11.6699,2.19505a17.47707,17.47707,0,0,1,3.362,5.22369c1.75048,3.52875-1.27813,5.9461-3.19533,8.33565a12.28119,12.28119,0,0,0-.36121,10.33621,10.89194,10.89194,0,0,0,7.14088,6.83523,8.64127,8.64127,0,0,0,7.94665-2.77855c-2.77855-.778-6.66852-2.77855-7.16866-5.9461a17.67185,17.67185,0,0,1,8.72464-.778c2.77855.36121,5.33481,1.19478,7.16867.33344.61128-.36121.27785-.9447-.47235-1.02807a3.30756,3.30756,0,0,1-2.77855-2.13948M110.5724,122.82578c2.1117.50014,3.41763,3.4454,4.8069,3.22313.88914-.58349,0-3.2509-.63908-4.75132a7.77994,7.77994,0,0,0-7.55765-5.5571c-1.27814.69464-1.00028,1.86163-.778,3.61213.47235,2.55626,2.5007,4.94581,4.16783,3.501" fill="#73bed4"/><path d="M230.68911,185.6488a6.14052,6.14052,0,0,0-2.77855-.72243,6.4185,6.4185,0,0,0-4.72353,1.945,6.64063,6.64063,0,0,0-1.44484,2.16727,6.80787,6.80787,0,0,0-.50014,2.584,6.66264,6.66264,0,0,0,6.52959,6.66852,6.27947,6.27947,0,0,0,4.61238-2.05612,6.44619,6.44619,0,0,0,1.91721-4.72353,6.66856,6.66856,0,0,0-.97249-3.47318A6.4463,6.4463,0,0,0,230.68911,185.6488Zm-.47235,10.16951a2.056,2.056,0,0,1-.30564-1.11143,10.5571,10.5571,0,0,0,0-1.33371,1.19479,1.19479,0,0,0-.7502-1.00028,3.80692,3.80692,0,0,0-1.167-.13894h-2.22285v3.58433h-1.38927v-8.50235h4.16782a3.63993,3.63993,0,0,1,1.80606.389,2.13949,2.13949,0,0,1,1.13922,2.00056,2.11168,2.11168,0,0,1-1.27813,2.02835,1.52822,1.52822,0,0,1,.83357.7502,2.36169,2.36169,0,0,1,.25006.88914v.94469a2.52837,2.52837,0,0,0,.30564,1.25034l.27786.30565Z" fill="#73bed4"/><path d="M229.21648,188.59406a3.6951,3.6951,0,0,0-1.13922,0h-2.41734v2.77855h2.1117a3.83435,3.83435,0,0,0,1.63934-.25006,1.19478,1.19478,0,0,0,.58349-1.13922,1.11142,1.11142,0,0,0-.7499-1.38136Z" fill="#73bed4"/><path d="M50,49.9722V250.0278h61.98944a14.67076,14.67076,0,0,0-2.00055-6.16838c-2.91749-5.27925-8.33565-8.33565-9.197-14.3651a33.3422,33.3422,0,0,1,0-15.22646,61.84952,61.84952,0,0,0,8.69686,8.00221c-2.77855-9.69713-9.86387-23.81217-5.91831-37.955,2.44512-14.53183.41679-25.70159,14.254-40.678a12.47577,12.47577,0,0,0,0-9.55822c-7.252-2.77855-13.05918-5.5571-15.78217-12.39233a18.11614,18.11614,0,0,0-12.309,13.17032c-.47235,3.91776-.44458,8.33565,3.58434,9.55822,2.41734.50014,4.00111,0,5.14031-3.61213,0-1.75048-.47235-4.58461,1.945-4.8069,2.61184-.66684,3.58433,1.66713,4.75131,3.22313a16.39343,16.39343,0,0,1-1.945,13.89275,15.7544,15.7544,0,0,1-16.6713,5.16811,22.534,22.534,0,0,1-15.032-18.33843c-2.77855-16.39345,2.61183-32.898,16.67129-41.845a22.86758,22.86758,0,0,1,8.69685-3.63989c-1.63933,1.556-6.14059,3.66768-4.11226,6.19618,4.44568-2.5007,8.69686-7.47431,13.30926-9.03029a12.17023,12.17023,0,0,1,3.89.389c-2.77855,2.55626-10.05836,6.72409-7.55766,9.50264,1.945-.83357,8.808-7.44652,13.64269-8.808a14.19874,14.19874,0,0,1,4.16783.5557c-3.19534,2.77855-7.94666,5.27925-10.28063,9.16923.80578,1.19477,1.58378.88913,2.41735.3612s6.39067-4.14,8.64129-5.72381a14.78239,14.78239,0,0,1,4.16783-2.05612,8.08562,8.08562,0,0,1,3.63989,1.25034c-3.08417,3.30648-7.83549,4.6402-10.33619,8.28009a9.27738,9.27738,0,0,0-.63907,1.00028c0,1.50042.30564,2.02835,1.66712,1.47263a42.98511,42.98511,0,0,0,4.47347-3.16755,41.845,41.845,0,0,1,9.11364-5.14031,15.94932,15.94932,0,0,1,3.72325,2.36176c-4.75132,2.77855-13.89275,8.64129-11.41985,11.1142,4.83468-.94469,8.94694-7.05752,13.89275-7.89107,1.13922-.1945,1.80607,1.11142,3.58434.9447,1.13921,0,1.83385-1.41707,2.77855-1.44484a8.69689,8.69689,0,0,1,4.44567,1.52821c1.556.91693,8.33565,4.89026,10.25286,5.89053a15.86413,15.86413,0,0,0,2.27841.97249c2.55626-3.751-9.66936-7.641-14.64295-11.55875a8.14113,8.14113,0,0,1,3.66768-2.30621,5.55705,5.55705,0,0,1,1.88942.63908c1.38927.72243,10.41956,5.97389,13.89275,7.36316.58349-1.72271-.30564-2.77855-1.66713-3.72324s-11.16976-6.39072-11.16976-6.39072a10.3361,10.3361,0,0,1,4.16783-1.05584c3.89.61128,8.33565,4.58461,12.50347,6.72408.5835,0,.778-.58349,1.167-.88913-1.75048-4.08447-5.66825-4.77911-9.50264-6.72409A15.78216,15.78216,0,0,1,173.78441,96.374l.80579.52793c10.44735,10.5585,4.83467,28.20229,6.39067,41.9561a3.80659,3.80659,0,0,0,3.19534,3.22313,5.33484,5.33484,0,0,0,5.5571-4.39012c0-1.72271,0-3.41762,1.556-4.39011,3.2509-.25006,4.16782,2.13947,4.75132,4.39011a15.30985,15.30985,0,0,1-3.0842,11.5032,15.50428,15.50428,0,0,1-16.6713,4.00112c-8.33565-3.501-9.50263-12.17-10.364-19.89443-.44458-.63908-2.36176-.389-3.2509,0l-2.52849,1.52819C174.03447,166.25451,179.147,211.795,157.36317,241.192c5.22367-.97249,9.30814-7.33537,13.89275-11.3087a8.33555,8.33555,0,0,1,1.945,5.16811,34.3151,34.3151,0,0,0,5.1959-15.75437,141.20581,141.20581,0,0,0-1.19478-38.09392c10.25285,12.67018,11.1142,29.75827,13.05917,45.48487,8.53015-9.39149,3.30649-23.22868-1.167-32.70355,17.25479,10.364,29.64712,25.92388,33.62045,45.09586,3.58433-7.33537.16671-17.58823-3.112-23.14533a48.40182,48.40182,0,0,0-5.5571-6.83523c12.19783,5.5571,25.81273,15.17088,29.34148,29.98056a55.57055,55.57055,0,0,1,.778,10.94749H250V49.9722ZM234.30123,195.62379a7.74119,7.74119,0,1,1-10.11394-10.94748,7.80787,7.80787,0,0,1,3.61212-.83357A7.4188,7.4188,0,0,1,231.745,184.982a7.52972,7.52972,0,0,1,2.77855,3.08419,7.69657,7.69657,0,0,1,.83357,3.52875A7.55776,7.55776,0,0,1,234.30123,195.62379Z" fill="#73bed4"/></g></svg>