<svg id="Layer_1" data-name="Layer 1" xmlns="http://www.w3.org/2000/svg" viewBox="0 0 300 300"><path d="M31.16923,123.80789h-.40238a.74739.74739,0,0,1-.74751-.74751h0a.77851.77851,0,0,1,0-.34492h0a130.9768,130.9768,0,0,1,239.923,0h0a.74736.74736,0,0,1-.69191,1.035h-.34493a73.50055,73.50055,0,0,0-36.64033-8.85825,69.36482,69.36482,0,0,0-40.66676,11.504h0a.7516.7516,0,0,1-.46207,0h-.45983a77.313,77.313,0,0,0-81.33577,0h0a.74507.74507,0,0,1-.46,0h-.40241a69.36887,69.36887,0,0,0-40.66676-11.504,73.63515,73.63515,0,0,0-36.58489,8.9157Z" fill="#cb2d2f"/><path d="M156.85348,124.67132h0a.63291.63291,0,0,0-.575-.63341h0a56.17183,56.17183,0,0,0-6.44133-.40258,54.02049,54.02049,0,0,0-5.464,0h0a.635.635,0,0,0-.577.63361h0v107.1628a11.04384,11.04384,0,0,1-21.45567,3.67968h0a6.55652,6.55652,0,0,0-12.48027,3.85408h0a24.10039,24.10039,0,0,0,47.05084-7.53376Z" fill="#cb2d2f"/></svg>