<svg id="Layer_1" data-name="Layer 1" xmlns="http://www.w3.org/2000/svg" viewBox="0 0 300 300"><polygon id="Path" points="109.091 230.053 207.059 196.684 240 69.947 60 69.947 109.091 230.053" fill="#b40023"/><polygon id="Path-2" data-name="Path" points="110.267 91.23 113.369 91.23 113.369 98.503 122.995 98.503 122.995 76.15 83.636 76.15 83.636 98.503 93.262 98.503 93.262 91.23 96.257 91.23 96.257 146.417 92.727 148.556 92.727 159.251 113.69 159.251 113.69 148.556 110.267 146.417 110.267 91.23" fill="#fff"/><path id="Path-3" data-name="Path" d="M125.77541,174.86631h7.16577l2.139-2.88771c12.72727,14.43851,35.40107-5.66844,19.67914-36.89839-5.88235-11.65776-12.72727-22.45989-13.262-25.5615-1.17647-7.05882,8.984-7.27273,8.984,2.139v3.52941h10.80213V91.7647h-7.80748l-2.139,2.99465c-.107,0-2.56684-2.99465-8.34225-3.1016-7.70053-.21391-19.46524,7.16578-13.79678,23.85027,2.139,6.20321,4.59893,10.48128,10.69518,21.49732,16.47059,29.83958-3.42246,28.2353-2.99465,18.93048v-6.52406h-11.123Z" fill="#fff"/><path id="Path-4" data-name="Path" d="M194.75937,111.65775c-.64172-3.1016-26.09627-13.58289-27.27274,35.08022-.96256,42.03208,9.30482,48.23529,20.53476,48.23529,7.48664,0,17.00535-7.37968,17.00535-21.92513v-7.80749h-11.3369v9.19786s0,6.09626-4.59893,6.09626c-6.95187,0-7.48663-9.19787-7.91444-32.40642-.53475-30.69519,11.65776-30.90909,12.51337-19.7861v4.17113h10.9091V109.0909H196.8984Z" fill="#fff"/></svg>