<svg id="Layer_1" data-name="Layer 1" xmlns="http://www.w3.org/2000/svg" viewBox="0 0 300 300"><defs><style>.cls-1{fill:#e31937;}</style></defs><title>TSLA</title><path class="cls-1" d="M150,231.14l22.8-128.23c21.73,0,28.58,2.38,29.58,12.11,0,0,14.58-5.43,21.93-16.47-28.69-13.3-57.52-13.9-57.52-13.9L150,105.14h0L133.19,84.65s-28.84.6-57.53,13.89C83,109.58,97.6,115,97.6,115c1-9.73,7.84-12.11,29.42-12.13Z"/><path class="cls-1" d="M150,78.73a187.91,187.91,0,0,1,76.92,15.43,62.16,62.16,0,0,0,4.57-9.42A223,223,0,0,0,150,68.86,222.93,222.93,0,0,0,68.51,84.74a78.92,78.92,0,0,0,4.57,9.42A187.83,187.83,0,0,1,150,78.73Z"/></svg>