<svg id="Layer_1" data-name="Layer 1" xmlns="http://www.w3.org/2000/svg" viewBox="0 0 300 300"><defs><style>.cls-1{fill:#fff;}</style></defs><title>TSN_1</title><path class="cls-1" d="M150,216.09A66.09,66.09,0,1,1,216.16,150,66.2,66.2,0,0,1,150,216.09M150,75.9A74.1,74.1,0,1,0,224.17,150,74.22,74.22,0,0,0,150,75.9"/><path class="cls-1" d="M128,149.8v-.16h-5.49v.16a7.86,7.86,0,0,0,.9,4,3,3,0,0,1-1.45-.16,4.1,4.1,0,0,1-2.7-3.81v-.16h-5.49v.16a7.83,7.83,0,0,0,2.32,5.77,7.83,7.83,0,0,0-2.32,5.77v.17h5.49v-.17a4.13,4.13,0,0,1,2.69-3.77,3.74,3.74,0,0,1,1.46-.19,7.56,7.56,0,0,0-.9,4v.17H128v-.17a3.12,3.12,0,0,1,3-3H140v-5.48s-8.29,0-9,0a3.16,3.16,0,0,1-3-3"/><path class="cls-1" d="M179.62,162.62a6.49,6.49,0,0,1,6.66-4.7v-4.68c-2.78,0-5.17-1-6.66-4.71h-3.9v4.3H160.06v5.48h15.66v4.31Z"/><path class="cls-1" d="M113.69,115.4v19.54h5.62c2-11.12,4.43-12.37,15.77-12.37h9.44v61.5H128.84v7.17h42.25v-7.17h-15.6v-61.5h9.35c11.35,0,13.78,1.25,15.78,12.37h5.62V115.4Z"/></svg>