<?xml version="1.0" encoding="utf-8"?>
<!-- Generator: Adobe Illustrator 24.0.1, SVG Export Plug-In . SVG Version: 6.00 Build 0)  -->
<svg version="1.1" id="Layer_1" xmlns="http://www.w3.org/2000/svg" xmlns:xlink="http://www.w3.org/1999/xlink" x="0px" y="0px"
	 viewBox="0 0 300 300" style="enable-background:new 0 0 300 300;" xml:space="preserve">
<style type="text/css">
	.st0{fill:#FFFFFF;}
</style>
<title>TTWO</title>
<polygon class="st0" points="120.6,225 77,225.1 76.9,111.6 45.5,111.6 45.5,75.7 151.1,75.6 151.1,111.5 120.4,111.6 "/>
<polygon class="st0" points="120.6,225 77,225.1 76.9,111.6 45.5,111.6 45.5,75.7 151.1,75.6 151.1,111.5 120.4,111.6 "/>
<path class="st0" d="M239.1,225.1l-111,0.1v-33.4l49.5-37.3c8.9-7.7,19.5-16.6,19.5-29.4c0-8.5-5.3-15.3-14.3-15.3
	c-13.6,0-17.4,14.1-18,25.3l-36.9-7.2c4-31.3,26.5-50.8,58-50.9c29.1,0,53.8,15.7,53.9,47.1c0,15.7-7.2,27.4-18.7,37.7l-33.8,25.4
	l-3.4,2.1l56.8-0.1L239.1,225.1z"/>
<path class="st0" d="M239.1,225.1l-111,0.1v-33.4l49.5-37.3c8.9-7.7,19.5-16.6,19.5-29.4c0-8.5-5.3-15.3-14.3-15.3
	c-13.6,0-17.4,14.1-18,25.3l-36.9-7.2c4-31.3,26.5-50.8,58-50.9c29.1,0,53.8,15.7,53.9,47.1c0,15.7-7.2,27.4-18.7,37.7l-33.8,25.4
	l-3.4,2.1l56.8-0.1L239.1,225.1z"/>
<polygon class="st0" points="240.7,74.8 240.7,75.7 243.1,75.7 243.1,82.1 244.1,82.1 244.1,75.7 246.6,75.7 246.6,74.8 "/>
<path class="st0" d="M247.5,82.1h0.9v-4.3c0-0.2,0-0.4,0-0.8s0-0.7,0-0.8V76l2.1,6.2h1l2.1-6.2c0,0.4,0,0.8,0,1.1s0,0.6,0,0.8v4.3
	h0.9v-7.4h-1.4L251,81l-2.1-6.2h-1.4L247.5,82.1z"/>
</svg>
