<svg id="Layer_1" data-name="Layer 1" xmlns="http://www.w3.org/2000/svg" viewBox="0 0 300 300"><defs><style>.cls-1{fill:#e02c29;}</style></defs><title>TXN</title><path class="cls-1" d="M239.25,113.8V89.51H200.31L195.4,114h14l-4.49,22.51h-14l-4.86,24.4c-.36,1.67-.64,2.87-.82,4-1.15,7.47,2.12,7.1,12.6,7.1L193,196H174.71c-17.32,0-31.42-.21-27.75-17.91.58-2.77,1.27-5.43,1.76-8.09l6.55-33.51H141.81l4.5-22.51h13.45l4.92-24.5h-12.6V52.59H105.47v75.13H49.69C51.06,147.2,68.31,150,74.6,163.85c4.31,9.56,8.1,26.31,20.75,26.45,9.68.13,9.68-12.49,22.14-12.49s18,23.61,29.05,43.09c8.3,15.32,22.09,25.56,34.59,26.41,10.25.72,15.22-2.73,15.22-2.73-2.77-5.59-4.15-11.16-4.15-19.48,0-12.52,9.68-25,20.74-33.37,15.23-11.16,31.83-15.35,37.37-16.72V136.08s-11.06-5.94-11.06-22.28M175.75,172l16.35-82.5H173.25L156.88,172ZM197.17,63.44H178.32L174.7,81.66h18.87Z"/></svg>