<?xml version="1.0" encoding="utf-8"?>
<!-- Generator: Adobe Illustrator 24.0.1, SVG Export Plug-In . SVG Version: 6.00 Build 0)  -->
<svg version="1.1" id="Layer_1" xmlns="http://www.w3.org/2000/svg" xmlns:xlink="http://www.w3.org/1999/xlink" x="0px" y="0px"
	 viewBox="0 0 300 300" style="enable-background:new 0 0 300 300;" xml:space="preserve">
<style type="text/css">
	.st0{fill:#FFFFFF;}
</style>
<title>TXT_Light_bg</title>
<g id="layer1">
	<path id="path12779" class="st0" d="M94.8,166.2v-8H84.1v-4.4h10.7v-8H84.3v-4.4h10.4v-8H73.6v32.7L94.8,166.2z M106.3,149.7
		l-11.5,16.5h11l6-8.5l6.3,8.5h11.3l-11.8-16.8l11.3-15.9h-10.7l-6,8.2l-5.8-8.2H94.8L106.3,149.7z M158,166.2h10.2v-24.5h1.9
		c3.6,0,5.2,1.6,4.6,4.8c-0.5,3.2-2.4,4.5-5.5,4l11,15.7H191l-10.2-14.8c4-2.9,5.2-6.6,3.6-11.1s-5.1-6.7-10.4-6.7H158V166.2z
		 M235.2,166.2v-16.8l11.8,16.8h8.5v-32.7h-10.7v14.3l-9.9-14.3h-9.3v32.7H235.2z M44.5,133.5v8H53v24.7h10.7v-24.8h9.9l-5.5-8
		L44.5,133.5z M128.6,133.5v8h8.5v24.7h10.7v-24.8H158l-5.7-8L128.6,133.5z M205.5,158c4.4-0.5,7.6-4.5,7.1-8.8
		c-0.4-3.7-3.3-6.6-7.1-7.1c-2.1,0-4.2,0.8-5.6,2.3c-3.1,3.2-3,8.2,0.2,11.3C201.5,157.2,203.5,158,205.5,158z M188.2,150
		c0-9.6,7.7-17.4,17.3-17.4s17.4,7.7,17.4,17.3c0,9.6-7.7,17.4-17.3,17.4c-4.6,0-9-1.8-12.3-5.1C190,159,188.1,154.6,188.2,150z"/>
</g>
</svg>
