<svg id="Layer_1" data-name="Layer 1" xmlns="http://www.w3.org/2000/svg" viewBox="0 0 300 300"><defs><style>.cls-1{fill:#00569a;}.cls-2{fill:#adb64d;}</style></defs><path class="cls-1" d="M77.35,111.57a14.22,14.22,0,1,1-14.22,14.21,14.21,14.21,0,0,1,14.22-14.21"/><path class="cls-1" d="M101.56,135.79A14.21,14.21,0,1,1,87.35,150a14.27,14.27,0,0,1,14.21-14.21"/><path class="cls-1" d="M125.78,160a14.22,14.22,0,1,1-14.21,14.22A14.28,14.28,0,0,1,125.78,160"/><path class="cls-1" d="M125.78,208.44a14.22,14.22,0,1,1-14.21,14.21,14.27,14.27,0,0,1,14.21-14.21"/><path class="cls-1" d="M150,184.22a14.22,14.22,0,1,1-14.21,14.22A14.27,14.27,0,0,1,150,184.22"/><path class="cls-1" d="M174.22,160A14.22,14.22,0,1,1,160,174.22,14.27,14.27,0,0,1,174.22,160"/><path class="cls-2" d="M125.78,111.57a14.22,14.22,0,1,1-14.21,14.21,14.27,14.27,0,0,1,14.21-14.21"/><path class="cls-2" d="M150,87.35a14.22,14.22,0,1,1-14.21,14.21A14.26,14.26,0,0,1,150,87.35"/><path class="cls-2" d="M174.22,111.57A14.22,14.22,0,1,1,160,125.78a14.26,14.26,0,0,1,14.22-14.21"/><path class="cls-2" d="M198.44,135.79A14.21,14.21,0,1,1,184.22,150a14.26,14.26,0,0,1,14.22-14.21"/><path class="cls-2" d="M222.65,160a14.22,14.22,0,1,1-14.21,14.22A14.22,14.22,0,0,1,222.65,160"/><path class="cls-2" d="M174.22,63.13A14.22,14.22,0,1,1,160,77.35a14.27,14.27,0,0,1,14.22-14.22"/><path class="cls-2" d="M198.52,189.75c.88,0,1.85.09,1.85-1.14,0-1-.79-1.05-1.5-1.05h-1.4v2.19Zm-1.05,3.77h-.88v-6.75h2.64c1.49,0,2.19.7,2.19,1.84a1.7,1.7,0,0,1-1.58,1.84l1.84,3h-1.05l-1.84-3h-1.32Zm6-3.42A4.74,4.74,0,1,0,198.7,195a4.7,4.7,0,0,0,4.74-4.91m1,0a5.7,5.7,0,1,1-5.7-5.7,5.8,5.8,0,0,1,5.7,5.7"/></svg>