<svg id="Layer_1" data-name="Layer 1" xmlns="http://www.w3.org/2000/svg" viewBox="0 0 300 300"><defs><style>.cls-1{fill:#fff;}</style></defs><title>UAL_Dark_bg</title><path class="cls-1" d="M52.64,236.06V237H71.71l-3.82-6.81a143.54,143.54,0,0,1-15.25,5.86"/><path class="cls-1" d="M158.6,158.56c4.67-19.2.25-38.87-13-53.17-7.07-7.62-14.89-10.17-20.42-11.88a30.92,30.92,0,0,1,4.62,4l4,.48a42.19,42.19,0,0,1,11,8.52,24.81,24.81,0,0,1,3.36,4.15c-3.3-.94-6.52-2.1-9.92-2.83a36.37,36.37,0,0,1,2.83,5.65c3.82,1.11,7.59,2.42,11.3,3.75a46.84,46.84,0,0,1,4.94,14.49c-4.28-2.14-8.54-4.24-13-6a42.09,42.09,0,0,1,.33,7.61,119.71,119.71,0,0,1,13.62,7.32A58.49,58.49,0,0,1,157,154.49a119.58,119.58,0,0,0-13.93-8.74,61.36,61.36,0,0,1-4,12.69,152.65,152.65,0,0,1,14,10.32,87.34,87.34,0,0,1-5,10.91c-4.49-3.85-9-7.52-13.74-11a81,81,0,0,1-9.7,15c4.56,4.21,8.88,8.29,13.22,12.78a71.6,71.6,0,0,1-7.3,9c-4.12-4.45-8.37-9-12.7-13.2a137.47,137.47,0,0,1-14.85,15,140.39,140.39,0,0,1,11.54,14.21c-2.64,2.28-5.08,4.39-7.73,6.32L95.64,213.45A158.73,158.73,0,0,1,74.1,227.24L80,237H98.1c27.73-18.93,52.8-47.07,60.5-78.45"/><path class="cls-1" d="M55.47,141.46c-1.25-.83-2.83-1.77-2.83-1.77v7.6a76.83,76.83,0,0,0,8.66-9.72c6.06-8.75,10.85-20.13,6.49-31.07-2.64-6-9-9.78-15.15-10.6v3.36l1.88-1.33A15.77,15.77,0,0,1,59,99.87c-2.16,1.26-4.37,2.54-6.38,3.89v2.11c2.66-1.63,5.8-3.55,8.31-4.81a10.37,10.37,0,0,1,2.6,2.56c-3.61,1.42-8.61,3.87-10.93,5.11v2.17a88.53,88.53,0,0,1,12.59-5.21,11.65,11.65,0,0,1,1.3,3.31,85.11,85.11,0,0,0-13.85,4.4v2A98.74,98.74,0,0,1,67,111.55a19.22,19.22,0,0,1,.34,4.08,130.52,130.52,0,0,0-14.71,2.22v2.28a113.15,113.15,0,0,1,14.48-1,21.38,21.38,0,0,1-1.23,4.58,119.94,119.94,0,0,0-13.27-.47v3a87.62,87.62,0,0,1,11.61,1.83,27.37,27.37,0,0,1-2.08,4.07,66.79,66.79,0,0,0-9.53-2.6v6a51.74,51.74,0,0,1,5.51,2.79,22.59,22.59,0,0,1-2.68,3.17"/><path class="cls-1" d="M56.75,208.13A31,31,0,0,1,52.64,210v23.8a137.84,137.84,0,0,0,58.13-37.21c15.31-16.6,27.41-34.51,31-55.88,2.87-17-2.77-33.13-16.32-44-8.19-7-18.39-9.49-29-10.72,1.2.39,2.35.92,3.51,1.43l.64-.12A52.72,52.72,0,0,1,117.27,93c-2.76,0-5.63,0-8.39.21a40.85,40.85,0,0,1,3.38,3.33c3.71-.06,7.34,0,10.9.26a33.25,33.25,0,0,1,9.11,9.61,122,122,0,0,0-14.86-2.17c.68,1.49,1.32,3,1.9,4.64a161.45,161.45,0,0,1,16.59,3.24,39.61,39.61,0,0,1,3.73,11.72,138.44,138.44,0,0,0-18.38-5.45c.15,2,.17,4.14.17,6.18a138.26,138.26,0,0,1,18.93,6.82,47.62,47.62,0,0,1-1.33,12A155,155,0,0,0,120,135a83.15,83.15,0,0,1-3.21,10.69,199.87,199.87,0,0,1,18.45,10.38,51.73,51.73,0,0,1-4.66,9.76c-5.83-4-11.67-7.86-17.75-11.25A71.36,71.36,0,0,1,105,167.31c5.44,4.28,11,8.73,16.21,13.46a61.67,61.67,0,0,1-6.62,8.32c-3.82-4-10.18-9.76-15.47-14.22a103.27,103.27,0,0,1-12.62,13.24c3.4,3.61,13.52,15.78,13.52,15.78a55.24,55.24,0,0,1-7.13,6S82.59,196.62,80,193.43a107.87,107.87,0,0,1-18.13,12c2.84,4.85,9.86,17.91,9.86,17.91a31.5,31.5,0,0,1-5.58,2.84c-3.31-5.51-7.3-13.49-9.43-18.05"/><path class="cls-1" d="M52.64,90v1.13A48.9,48.9,0,0,1,61.9,90,54.9,54.9,0,0,0,56,94.32l2.31.73a86.51,86.51,0,0,1,8-5.09,29.21,29.21,0,0,1,9.45,1.6,62.71,62.71,0,0,0-12.56,6l1.72,1.33A97.38,97.38,0,0,1,79.5,92.75a20.48,20.48,0,0,1,6,3.84A118.55,118.55,0,0,0,67.83,102l1.46,2.29a152.35,152.35,0,0,1,19-5.16,18.09,18.09,0,0,1,3.34,5.19,136.75,136.75,0,0,0-20.89,3.58,16.88,16.88,0,0,1,.71,2.71,146.74,146.74,0,0,1,21.6-2.6,22.84,22.84,0,0,1,1,6.67,146.93,146.93,0,0,0-22.3.52c0,.87-.12,2.59-.22,3.68a148.43,148.43,0,0,1,22.31.78,57.47,57.47,0,0,1-1.5,7.45,132.53,132.53,0,0,0-22-3.06,24.35,24.35,0,0,1-1.61,4.77,131.42,131.42,0,0,1,21,5.71A65,65,0,0,1,86.52,141a152.06,152.06,0,0,0-20.14-7.46,39.69,39.69,0,0,1-4.28,6.68c4.28,2.07,12.47,6.72,18.1,10.33a59.54,59.54,0,0,1-4.45,5.33A181.1,181.1,0,0,0,59,144a61.19,61.19,0,0,1-6.42,6.36V151l13.57,14.49a52.46,52.46,0,0,1-4.66,3.76L52.6,157.86V178c13.8-8.11,27.75-21.39,35.6-35.46C94.64,131.26,99.49,116,93.3,103a24.73,24.73,0,0,0-4-5.67C79.82,87.84,65.36,87,52.64,90"/><path class="cls-1" d="M68.2,86.3l3.84.42.55-.26a54.41,54.41,0,0,1,15.12.83,62,62,0,0,0-6.07,2.08A20.34,20.34,0,0,1,85,91a74.48,74.48,0,0,1,8.28-2.25,40.86,40.86,0,0,1,9.44,4.83,108.24,108.24,0,0,0-12,1.94A12.69,12.69,0,0,1,93,98.28a109.07,109.07,0,0,1,13.74-1.47,24,24,0,0,1,5.6,7,106.7,106.7,0,0,0-16.09.2,19.35,19.35,0,0,1,1.28,3.78,122.75,122.75,0,0,1,17.15.69,30.27,30.27,0,0,1,2.1,9,132.75,132.75,0,0,0-18.32-2.41,39,39,0,0,1-.16,5.07,124,124,0,0,1,18.82,3.41,46.39,46.39,0,0,1-1.37,9.88,154.23,154.23,0,0,0-19-5.31A45.74,45.74,0,0,1,94.1,136a144,144,0,0,1,18.69,7.9,55.16,55.16,0,0,1-3.76,8.42,192.57,192.57,0,0,0-18.41-9.33,87.39,87.39,0,0,1-6.45,10c6,3.64,11.67,7.59,17.31,11.83-1.71,2.47-4.12,5.44-5.57,7.2-5.41-4.47-16.48-13.28-16.48-13.28a60.9,60.9,0,0,1-10.17,10c4.54,4.69,10.5,11.32,14.22,15.91a36.42,36.42,0,0,1-6,5.17c-4.52-5.55-9.94-12.54-13.12-16.94a65.39,65.39,0,0,1-11.64,7.7V187l7.18,14.39a29.61,29.61,0,0,1-5,2.59l-2.14-4.19v7.55c27.75-12.33,56-39.5,64.2-69,3-10.19,3.55-23.32-1.38-32.84a34.48,34.48,0,0,0-14.9-15.25c-9.26-5.13-21.45-5.87-32.36-4"/><path class="cls-1" d="M102.07,237h11.19s-2.43-3.61-3.66-5.53c-2,1.42-4.48,3.66-7.53,5.53"/><path class="cls-1" d="M146.66,219.94c12.69-15.5,22.74-32.11,26.24-51.37,3.81-20.21-1.51-39.91-14.88-54.51l-3.71-1.4a68.29,68.29,0,0,1,3.49,6.61l4.82,2.21a60.19,60.19,0,0,1,7.66,17.93c-2.65-1.68-5.37-3.45-8.1-4.92a70.28,70.28,0,0,1,.61,8.58,96.22,96.22,0,0,1,9.21,7,73.25,73.25,0,0,1-.92,15.65,82,82,0,0,0-10-8.27,73.46,73.46,0,0,1-4.41,14.42,97.31,97.31,0,0,1,10.39,9.81A77,77,0,0,1,162,193.37,138.7,138.7,0,0,0,151.47,183a144.93,144.93,0,0,1-10.59,16.57c3.57,3.68,6.91,7.53,10.19,11.38a100.74,100.74,0,0,1-7.74,9.39c-3.33-3.83-6.44-7.78-9.92-11.51a130.61,130.61,0,0,1-16,16.16c3.73,4.52,9.33,12,9.33,12h3.18a183.07,183.07,0,0,0,16.7-17.07"/><path class="cls-1" d="M188.07,232.56l-.86-1.85c-1.19,2.43-3,6.3-3,6.3h4.09c3.55-8.36,6-20.39,7-31.91A242.79,242.79,0,0,1,188,232.56"/><path class="cls-1" d="M52.64,62.93V87.22l6.93-1.7A114.34,114.34,0,0,1,190.66,237h36.07V62.93Z"/><path class="cls-1" d="M194.88,183h0c-.4,3-.62,6.1-1.15,8.95l-1-1.29a94.75,94.75,0,0,1-4.67,17.6l1.5,4.14a120,120,0,0,1-4.75,13.24,23.36,23.36,0,0,0-2.15-4.41,154.2,154.2,0,0,1-9,15.75h8a134.53,134.53,0,0,0,10.28-26.64c2.11-8.63,4-17.85,3-27.34"/><path class="cls-1" d="M170.93,126.8a24.72,24.72,0,0,0-3.92-4l-.06.14c5.79,7.14,10.41,14.8,12.8,23.3v.09L175.27,143a78.86,78.86,0,0,1,1.15,10.28,40.73,40.73,0,0,1,6.24,5.86,83.66,83.66,0,0,1-.72,17.89,68.84,68.84,0,0,0-6.94-7.74,76.3,76.3,0,0,1-4.22,15.5,76.36,76.36,0,0,1,7.32,9.49A70.94,70.94,0,0,1,173,206.5c-2.54-3.26-4.32-5.91-7.61-9.81A144.83,144.83,0,0,1,154,214.51c2.88,3.41,5.53,7,8.05,10.52a112.84,112.84,0,0,1-7.72,9.73c-2.63-3.6-5.4-7.18-8.14-10.73a130,130,0,0,1-12.28,13h21.36C169,221.08,179,203.4,183.06,183.42S184,142,171,126.82"/><path class="cls-1" d="M185.75,151.25l-.51-.52a93.28,93.28,0,0,1,1.67,12.11,39.53,39.53,0,0,1,3.5,4.65A77.74,77.74,0,0,1,189,185.37l-3.23-4a96.79,96.79,0,0,1-4.41,16.48l3.6,6.25a90.58,90.58,0,0,1-5.1,13c-1.33-2.2-2.61-4.59-4-6.49a150.58,150.58,0,0,1-11.29,18.29l5,8.09h1.15c12.09-17.94,20.19-37.73,21-60.25.41-9.45-2.54-17.65-6.08-25.51"/><path class="cls-1" d="M232.88,229.87a7.26,7.26,0,1,1,7.32,7.2h0a7.22,7.22,0,0,1-7.27-7.17v0m13.4,0a6.14,6.14,0,1,0-6.19,6.09h.06a6.13,6.13,0,0,0,6.13-6.09m-2.7,3.89h-1.33l-2.37-3.65h-1.32v3.65h-1.11v-7.91h3.44c1.41,0,2.8.4,2.8,2.11,0,1.56-1.08,2.11-2.5,2.15Zm-3.7-4.76c1,0,2.71.19,2.71-1.07l-1.93-1h-2.1v2Z"/></svg>