<svg id="Layer_1" data-name="Layer 1" xmlns="http://www.w3.org/2000/svg" viewBox="0 0 300 300"><defs><style>.cls-1{fill:#d4e6ac;}.cls-2{fill:#067b3f;}.cls-3{fill:#067f40;}.cls-4{fill:#098442;}.cls-5{fill:#c1dc8b;}.cls-6{fill:#c7df95;}.cls-7{fill:#bfdb87;}.cls-8{fill:#058341;}.cls-9{fill:#cde29d;}.cls-10{fill:#cbe09a;}.cls-11{fill:#088141;}.cls-12{fill:#d1e5a5;}.cls-13{fill:#c9e198;}.cls-14{fill:#c5de93;}.cls-15{fill:#c4de8e;}.cls-16{fill:#d3e6aa;}.cls-17{fill:#d2e5a7;}.cls-18{fill:#cfe3a1;}.cls-19{fill:#b7d87b;}.cls-20{fill:#bcda82;}.cls-21{fill:#b1d571;}.cls-22{fill:#b5d676;}.cls-23{fill:#bbd981;}.cls-24{fill:#afd46c;}.cls-25{fill:#9bcb49;}.cls-26{fill:#a8d15e;}.cls-27{fill:#95c841;}.cls-28{fill:#9ccb49;}.cls-29{fill:#abd263;}.cls-30{fill:#aed36a;}.cls-31{fill:#a7d05d;}.cls-32{fill:#a0cc4e;}.cls-33{fill:#88c040;}.cls-34{fill:#90c43e;}.cls-35{fill:#a2cd53;}.cls-36{fill:#99ca44;}.cls-37{fill:#aad262;}.cls-38{fill:#95c940;}.cls-39{fill:#a4cf5b;}.cls-40{fill:#acd267;}.cls-41{fill:#acd266;}.cls-42{fill:#8cc33f;}.cls-43{fill:#7dba42;}.cls-44{fill:#a2cd54;}.cls-45{fill:#b9d87e;}.cls-46{fill:#bcda85;}.cls-47{fill:#b4d673;}.cls-48{fill:#87c040;}.cls-49{fill:#76b743;}.cls-50{fill:#5caa46;}.cls-51{fill:#a6d05b;}.cls-52{fill:#72b544;}.cls-53{fill:#6ab245;}.cls-54{fill:#7dbc42;}.cls-55{fill:#82bd41;}.cls-56{fill:#a2ce57;}.cls-57{fill:#5baa46;}.cls-58{fill:#a3cf57;}.cls-59{fill:#70b444;}.cls-60{fill:#98ca42;}.cls-61{fill:#098843;}.cls-62{fill:#a0cd50;}.cls-63{fill:#9fcd4c;}.cls-64{fill:#3d9f47;}.cls-65{fill:#078944;}.cls-66{fill:#42a147;}.cls-67{fill:#66b045;}.cls-68{fill:#62ae45;}.cls-69{fill:#75b743;}.cls-70{fill:#64af45;}.cls-71{fill:#43a147;}.cls-72{fill:#6db344;}.cls-73{fill:#4ba346;}.cls-74{fill:#54a746;}.cls-75{fill:#3a9f47;}.cls-76{fill:#61ad45;}.cls-77{fill:#399d47;}.cls-78{fill:#46a247;}.cls-79{fill:#68b145;}.cls-80{fill:#50a646;}.cls-81{fill:#229547;}.cls-82{fill:#4ca447;}.cls-83{fill:#2e9947;}.cls-84{fill:#7aba43;}.cls-85{fill:#4fa546;}.cls-86{fill:#179146;}.cls-87{fill:#279647;}.cls-88{fill:#369c47;}.cls-89{fill:#55a746;}.cls-90{fill:#2b9847;}.cls-91{fill:#118e45;}.cls-92{fill:#1d9246;}.cls-93{fill:#239546;}.cls-94{fill:#1f9246;}.cls-95{fill:#2a9847;}.cls-96{fill:#349a47;}.cls-97{fill:#189046;}.cls-98{fill:#5eac46;}.cls-99{fill:#0c8a44;}.cls-100{fill:#219346;}.cls-101{fill:#0d8d45;}.cls-102{fill:#fff;}.cls-103{fill:#0e8642;}.cls-104{fill:#8dbf3f;}.cls-105{fill:#a0ca59;}.cls-106{fill:#0c8643;}.cls-107{fill:#86bb40;}.cls-108{fill:#8bbe3f;}.cls-109{fill:#88bc40;}.cls-110{fill:#80b942;}.cls-111{fill:#83ba41;}.cls-112{fill:#7cb642;}.cls-113{fill:#62a944;}.cls-114{fill:#5ea745;}.cls-115{fill:#76b343;}.cls-116{fill:#71b244;}.cls-117{fill:#5ba645;}.cls-118{fill:#57a445;}.cls-119{fill:#7cb842;}.cls-120{fill:#88be44;}.cls-121{fill:#79b442;}.cls-122{fill:#94c34d;}.cls-123{fill:#66ab44;}.cls-124{fill:#67af45;}.cls-125{fill:#52a346;}.cls-126{fill:#69ad44;}.cls-127{fill:#6caf44;}.cls-128{fill:#50a246;}.cls-129{fill:#409d46;}.cls-130{fill:#449e46;}.cls-131{fill:#48a146;}.cls-132{fill:#4ca246;}.cls-133{fill:#2e9746;}.cls-134{fill:#2a9546;}.cls-135{fill:#3b9b46;}.cls-136{fill:#3b9d47;}.cls-137{fill:#229246;}.cls-138{fill:#1e9045;}.cls-139{fill:#359946;}.cls-140{fill:#329746;}.cls-141{fill:#389946;}.cls-142{fill:#188f45;}.cls-143{fill:#249446;}.cls-144{fill:#128d45;}.cls-145{fill:#158e45;}.cls-146{fill:#0d8943;}.cls-147{fill:#118a44;}.cls-148{fill:#0d8944;}.cls-149{fill:#249346;}.cls-150{fill:#209146;}.cls-151{fill:#269446;}.cls-152{fill:#419e46;}.cls-153{fill:#339846;}.cls-154{fill:#128944;}.cls-155{fill:#59a545;}.cls-156{fill:#5da645;}.cls-157{fill:#3d9b46;}.cls-158{fill:#84bb41;}.cls-159{fill:#3a9b46;}.cls-160{fill:#2c9646;}.cls-161{fill:#80b741;}.cls-162{fill:#6bad44;}.cls-163{fill:#289446;}.cls-164{fill:#76b243;}.cls-165{fill:#309646;}.cls-166{fill:#49a046;}.cls-167{fill:#68ac44;}.cls-168{fill:#78b443;}.cls-169{fill:#3c9b46;}.cls-170{fill:#67ab44;}.cls-171{fill:#369946;}.cls-172{fill:#479f46;}.cls-173{fill:#71b043;}.cls-174{fill:#3e9d46;}.cls-175{fill:#7db742;}.cls-176{fill:#84ba41;}.cls-177{fill:#81b941;}</style></defs><path class="cls-1" d="M241,255.84c-.45-.21-1-.1-1.41-.3a1.78,1.78,0,0,1-.06-.65V45.6a2.76,2.76,0,0,0-.15-1.14,9.6,9.6,0,0,1,2.13-.3V255.84Z"/><path class="cls-2" d="M69.72,229c-1.57-.23-3.15-.46-4.72-.71-2.11-.32-4.21-.66-6.31-1l-.15,0V72.7l3-.48L69.17,71l.45,0c.33.08.25.37.26.58a1.87,1.87,0,0,0,.3,1.24,1,1,0,0,1,.11.54c0,.27,0,.54,0,.8V225.74a2.67,2.67,0,0,1-.32,1.74c-.15.2-.07.49-.08.74S69.93,228.77,69.72,229Z"/><path class="cls-3" d="M69.72,229v-1.62l.39-.35V72.87l-.34-.28c-.16-.54.1-1.09-.15-1.6l3.64-.6,1.58-.21c.3,0,.26.26.28.45,0,.35,0,.7,0,1.06,0,.71.11.81.81,1a7.42,7.42,0,0,0,1.56.08c1,0,1.06.07,1.06,1.06v51.05a2.24,2.24,0,0,1-.08.85c-.16.26-.43.21-.67.22H74.59a1.15,1.15,0,0,0-.7.12.85.85,0,0,0,0,.68A2.38,2.38,0,0,0,75,127a4.18,4.18,0,0,1,1.81.39,3,3,0,0,1,1.86,2.48,4.45,4.45,0,0,0-.15,1.45V225.6c0,.27,0,.54,0,.81,0,.58-.15.72-.73.73a9.56,9.56,0,0,0-1.85.15c-.77.16-.82.25-.85,1,0,.5.14,1-.16,1.48C73.21,229.59,71.46,229.31,69.72,229Z"/><path class="cls-4" d="M78.5,69.6l7.06-1.11a.88.88,0,0,1,.15.67c0,.85,0,1.71,0,2.57a1,1,0,0,0,.22.79c2.18.08,4.43,0,6.67,0a4.36,4.36,0,0,1,1.76.14,1,1,0,0,1,.12.54c0,.18,0,.37,0,.55q0,48.55,0,97.12c0,.37.1.77-.17,1.11a.67.67,0,0,1-.67-.1,12.87,12.87,0,0,1-7.25-10.63c-.11-1.1-.09-2.21-.09-3.32V126.85a1.81,1.81,0,0,0-.08-.8c-.27-.22-.68,0-.93-.29a2.1,2.1,0,0,1-.11-1V74.05a2.65,2.65,0,0,0-.09-1,.88.88,0,0,0-.65-.15H79.81c-1.26,0-1.39-.12-1.37-1.37A8.63,8.63,0,0,1,78.5,69.6Z"/><path class="cls-5" d="M215.24,48.21c.93-.18,1.87-.34,2.82-.43a.69.69,0,0,1,.16.52c0,.23,0,.47,0,.7q0,100.94,0,201.86a2.52,2.52,0,0,1-.12,1.22.46.46,0,0,1-.45,0,16.6,16.6,0,0,1-2.62-.41,3.06,3.06,0,0,0,.14-1.24v-75q0-63,0-125.9A3.11,3.11,0,0,1,215.24,48.21Z"/><path class="cls-6" d="M221.89,47.18a17.62,17.62,0,0,1,2.62-.4c.34-.13.46.08.53.35a4.32,4.32,0,0,1,0,.95V251.85c0,.3,0,.61,0,.91s0,.45-.36.46a16.33,16.33,0,0,1-2.52-.4,1.73,1.73,0,0,1-.06-.6V48.29A1.55,1.55,0,0,0,221.89,47.18Z"/><path class="cls-7" d="M215.24,48.21a4.68,4.68,0,0,1,.1,1.35q0,100.73,0,201.45c0,.24.24.66-.3.69a29.67,29.67,0,0,1-3.23-.5,2.7,2.7,0,0,0,.15-1.09V228.26a2.74,2.74,0,0,1,.07-.9c.13-.31.59-.07.7-.42a2.92,2.92,0,0,0,0-.66V73.91c0-.42.13-.89-.36-1.17a1.65,1.65,0,0,1-.14-1V50.41c0-.57,0-1.14,0-1.71a23.85,23.85,0,0,1,2.39-.41Z"/><path class="cls-8" d="M85.34,231.43l-4.45-.67c-.87-.13-1.74-.29-2.61-.44.09-.72,0-1.44.06-2.17s.19-.84.93-.94a42.13,42.13,0,0,1,5.27-.19l.3,0a.41.41,0,0,0,.16-.1,2,2,0,0,0,.09-.91V173.2a2,2,0,0,1,.12-1c.28-.34.49,0,.68.09a21.85,21.85,0,0,0,3,1.83,19.25,19.25,0,0,0,4.91,1.56c.26.05.6,0,.7.38q0,10.93,0,21.87v28.28a1.9,1.9,0,0,1-.11.94c-.18.2-.43.15-.66.15-1.17,0-2.35,0-3.52,0s-2.57-.06-3.86.08a1.35,1.35,0,0,0-.53.1.87.87,0,0,0-.19.71c0,.87,0,1.74,0,2.61C85.6,231.07,85.69,231.36,85.34,231.43Z"/><path class="cls-9" d="M229,46.07a18.34,18.34,0,0,1,2.43-.39.64.64,0,0,1,.16.51c0,.22,0,.44,0,.66V253a5.42,5.42,0,0,1,0,.9c0,.24-.14.43-.44.3a9.6,9.6,0,0,1-1.92-.3.9.9,0,0,1-.16-.57V47.68C229.09,47.15,229.09,46.61,229,46.07Z"/><path class="cls-10" d="M229,46.07c.11,0,.2.06.21.19V253.93a19.29,19.29,0,0,1-2.62-.41,1.42,1.42,0,0,0,.24-.9c0-.27,0-.54,0-.81V47.55a1.77,1.77,0,0,1,.17-1.17A9.68,9.68,0,0,1,229,46.07Z"/><path class="cls-11" d="M85.36,172.09a2.69,2.69,0,0,0-.11.89V226.4a1.21,1.21,0,0,1-.07.68c-.17.15-.36.1-.54.1-.74,0-1.48,0-2.22,0-1.26-.1-2.48.32-3.7.22a.69.69,0,0,0-.22.63v1.87c0,.17,0,.39-.22.43a33.47,33.47,0,0,1-3.31-.51c0-.61,0-1.22,0-1.82s.19-.7.63-.8a8.22,8.22,0,0,1,2-.21,1.52,1.52,0,0,0,.7,0,1.35,1.35,0,0,0,.06-.69q0-47.53,0-95.08a2.94,2.94,0,0,1,.22-1.47c.26.08.28.32.34.52a8.34,8.34,0,0,1,.28,1.79c0,.9.13,1.8.13,2.71q0,12.27,0,24.55a16.13,16.13,0,0,0,2.57,8.67,17.44,17.44,0,0,0,3.13,3.67C85.2,171.73,85.39,171.84,85.36,172.09Z"/><path class="cls-12" d="M235.61,254.93a19.59,19.59,0,0,1-2.53-.4,1.37,1.37,0,0,0,.25-.9c0-1.55,0-3.1,0-4.64q0-101.22,0-202.45c0-.39-.11-.81.16-1.17a9.78,9.78,0,0,1,2-.31c.23,0,.23.22.25.37a4.21,4.21,0,0,1,0,.71V253.86C235.77,254.22,235.87,254.61,235.61,254.93Z"/><path class="cls-13" d="M227,46.38q0,103.17,0,206.36c0,.3.21.77-.4.78a10.37,10.37,0,0,1-1.92-.3.37.37,0,0,0,.21-.37c0-.12,0-.24,0-.35V47.64a3.53,3.53,0,0,0,0-.46c0-.24-.11-.42-.4-.4A15.32,15.32,0,0,1,227,46.38Z"/><path class="cls-14" d="M221.89,47.18l.33,0a.92.92,0,0,1,.07.56q0,102.24,0,204.47c0,.19.08.41-.1.57a10.51,10.51,0,0,1-2-.31.77.77,0,0,1-.16-.57c0-.25,0-.5,0-.75v-202c0-.56,0-1.11,0-1.66A11.3,11.3,0,0,1,221.89,47.18Z"/><path class="cls-15" d="M220,47.49c.11,0,.2.06.2.18s0,.27,0,.4V252.51a16.65,16.65,0,0,1-2.53-.4l.33,0a.74.74,0,0,0,.08-.5V47.78A8.82,8.82,0,0,1,220,47.49Z"/><path class="cls-16" d="M239.33,44.46c.21,0,.33.06.31.29s0,.27,0,.4V254.87c0,.22.09.47-.1.67a9.6,9.6,0,0,1-1.92-.3.9.9,0,0,1-.16-.57V46.47c0-.57,0-1.14,0-1.71A12.25,12.25,0,0,1,239.33,44.46Z"/><path class="cls-17" d="M237.42,44.76c.1,0,.19.05.2.18v210.3a13.76,13.76,0,0,1-2-.31q0-104.6,0-209.2c0-.22.1-.47-.1-.67A8.35,8.35,0,0,1,237.42,44.76Z"/><path class="cls-18" d="M233.49,45.37v209c-.13.17-.28.12-.41.14a11.17,11.17,0,0,1-1.91-.3c.2,0,.32-.07.3-.29V45.68A15.4,15.4,0,0,1,233.49,45.37Z"/><path class="cls-11" d="M78.5,69.6a3.11,3.11,0,0,1,.09,1.29c0,.55,0,1.1,0,1.69,2.21.24,4.39.07,6.54.15.27.21.21.49.21.75v52.3a.82.82,0,0,1-.66.17H79.06a.82.82,0,0,1-.66-.17V73c-1.1-.12-2.2.13-3.25-.33a1.91,1.91,0,0,1-.19-1c0-.48.15-1-.12-1.42C76.05,69.93,77.27,69.75,78.5,69.6Z"/><path class="cls-19" d="M204.53,49.9a27.42,27.42,0,0,1,3.23-.5c.28-.1.31.11.35.29a2.81,2.81,0,0,1,0,.65v21.5a1.73,1.73,0,0,1-.1.84.64.64,0,0,1-.56.18c-.54,0-1.08,0-1.63,0s-.85.11-1.24-.15a1.32,1.32,0,0,1-.12-.78c0-7.18,0-14.36,0-21.53A2.07,2.07,0,0,1,204.53,49.9Z"/><path class="cls-20" d="M212.11,227.29q0,11.66,0,23.32c0,.22.18.59-.3.59a24.6,24.6,0,0,1-2.71-.41.6.6,0,0,1-.08-.39c0-7.41,0-14.83,0-22.24a1.56,1.56,0,0,1,.13-.88.65.65,0,0,1,.47-.13c.68,0,1.35,0,2,0A.55.55,0,0,1,212.11,227.29Z"/><path class="cls-21" d="M198.5,50.83a26.64,26.64,0,0,1,2.8-.42c.3-.1.39.1.45.33a2.81,2.81,0,0,1,0,.65V71.85a1.73,1.73,0,0,1-.11.84.48.48,0,0,1-.36.16c-.78.05-1.56,0-2.34,0a.76.76,0,0,1-.52-.15,1.23,1.23,0,0,1-.13-.73V51.6C198.34,51.33,198.29,51.05,198.5,50.83Z"/><path class="cls-22" d="M201.62,72.7q0-10.8,0-21.62c0-.26.13-.61-.32-.67a27.45,27.45,0,0,1,3.23-.51c.2.17.12.41.12.62V72.7c-.48.31-1,.12-1.51.16S202.1,73,201.62,72.7Z"/><path class="cls-21" d="M200.72,249.47a26.14,26.14,0,0,1-3.05-.48,10.63,10.63,0,0,0,.06-1.26V228.21a1.56,1.56,0,0,1,.13-.93.59.59,0,0,1,.42-.13q1,0,2,0a.62.62,0,0,1,.42.11,1.16,1.16,0,0,1,.14.73v20.77A.94.94,0,0,1,200.72,249.47Z"/><path class="cls-23" d="M208,72.7q0-11.36,0-22.72c0-.2.15-.49-.21-.58a16.65,16.65,0,0,1,2.53-.4c.32-.1.36.15.43.35a2.35,2.35,0,0,1,0,.65V71.9a1.53,1.53,0,0,1-.11.79c-.25.24-.56.17-.86.17s-.87,0-1.3,0A.63.63,0,0,1,208,72.7Z"/><path class="cls-24" d="M198.5,50.83V72.7c-.21.22-.48.15-.74.16-.53,0-1.07,0-1.6,0a.8.8,0,0,1-.52-.15,1.66,1.66,0,0,1-.13-.93v-19c0-.51,0-1,0-1.51A28.3,28.3,0,0,1,198.5,50.83Z"/><path class="cls-25" d="M174.18,54.64a29.3,29.3,0,0,1,3.23-.5c.3-.09.39.11.44.33a2.44,2.44,0,0,1,0,.66V71.87a1.51,1.51,0,0,1-.12.84.76.76,0,0,1-.56.16c-.8,0-1.59,0-2.39,0a.67.67,0,0,1-.47-.15,1.78,1.78,0,0,1-.11-.94q0-7.87,0-15.77A12.46,12.46,0,0,0,174.18,54.64Z"/><path class="cls-19" d="M207.27,250.49a23,23,0,0,1-2.62-.4,1,1,0,0,1-.16-.67q0-10.75,0-21.51a1.07,1.07,0,0,1,.12-.63.51.51,0,0,1,.37-.13,9,9,0,0,1,2.32.11,1.16,1.16,0,0,1,.13.73q0,10.89,0,21.79A.9.9,0,0,1,207.27,250.49Z"/><path class="cls-26" d="M187.71,52.53a19.15,19.15,0,0,1,2.61-.41c.24-.1.38,0,.44.24a2.43,2.43,0,0,1,0,.6V71.89a1.64,1.64,0,0,1-.11.79.42.42,0,0,1-.25.16,23,23,0,0,1-2.35,0,.6.6,0,0,1-.42-.14,1.23,1.23,0,0,1-.13-.73V53.3A1.05,1.05,0,0,1,187.71,52.53Z"/><path class="cls-27" d="M167.73,55.65c1.23-.26,2.49-.43,3.74-.59a.85.85,0,0,1,.16.67q0,8.18,0,16.35a1.17,1.17,0,0,1-.12.63.76.76,0,0,1-.56.16c-.7,0-1.39,0-2.09,0a1.23,1.23,0,0,1-.86-.14,1.52,1.52,0,0,1-.13-.89V56.74A2.7,2.7,0,0,0,167.73,55.65Z"/><path class="cls-28" d="M177.61,245.85a26.93,26.93,0,0,1-3.22-.5,2.67,2.67,0,0,0,.15-1.09v-16a1.92,1.92,0,0,1,.1-.89.37.37,0,0,1,.15-.13,25.51,25.51,0,0,1,2.9,0,.4.4,0,0,1,.27.11.92.92,0,0,1,.13.58v17.36a1.33,1.33,0,0,1,0,.4C178,245.85,177.87,246,177.61,245.85Z"/><path class="cls-29" d="M190.63,72.7v-20c0-.23.15-.59-.31-.59a27.35,27.35,0,0,1,3.14-.49.82.82,0,0,1,.16.66V72.05a1.18,1.18,0,0,1-.11.64.6.6,0,0,1-.46.17c-.62,0-1.24,0-1.86,0A.69.69,0,0,1,190.63,72.7Z"/><path class="cls-30" d="M197.89,227.29v21.12c0,.2.14.49-.22.58a19.15,19.15,0,0,1-2.61-.41A1.69,1.69,0,0,1,195,248c0-6.6,0-13.2,0-19.8a1.74,1.74,0,0,1,.11-.93c.19-.19.44-.15.67-.15h1.55C197.54,227.16,197.74,227.12,197.89,227.29Z"/><path class="cls-31" d="M190.43,247.86a28.05,28.05,0,0,1-3.14-.49,1.4,1.4,0,0,0,.25-1.05q0-9.06,0-18.12a1.58,1.58,0,0,1,.13-.93.63.63,0,0,1,.46-.12c.65,0,1.3,0,1.94,0a.7.7,0,0,1,.47.11,1.1,1.1,0,0,1,.14.73q0,9.45,0,18.89C190.69,247.22,190.74,247.59,190.43,247.86Z"/><path class="cls-32" d="M177.73,72.71q0-9,0-17.95c0-.25.1-.57-.31-.62a29.5,29.5,0,0,1,3.24-.51.85.85,0,0,1,.16.67q0,8.88,0,17.77a1.14,1.14,0,0,1-.11.63.72.72,0,0,1-.56.17c-.66,0-1.31,0-2,0A.55.55,0,0,1,177.73,72.71Z"/><path class="cls-33" d="M162.79,243.54a27,27,0,0,1-3.22-.51.93.93,0,0,1-.16-.67V227.92a1.05,1.05,0,0,1,.12-.63.46.46,0,0,1,.36-.14c1,0,1.93-.05,2.9,0a.36.36,0,0,1,.16.11,1.35,1.35,0,0,1,.11.74q0,7.36,0,14.72C163.06,243,163.2,243.39,162.79,243.54Z"/><path class="cls-34" d="M167.73,55.65c.18,0,.33.05.31.29V72.71c-.35.27-.77.12-1.16.16a3.39,3.39,0,0,1-.55,0,3,3,0,0,1-1.45-.14,1.56,1.56,0,0,1-.12-.88q0-7.32,0-14.64a1.42,1.42,0,0,0-.25-1A31.47,31.47,0,0,1,167.73,55.65Z"/><path class="cls-35" d="M180.65,72.71V53.63a19.41,19.41,0,0,1,2.52-.39c.29-.11.29.13.34.29a2.92,2.92,0,0,1,0,.66V71.81a1.7,1.7,0,0,1-.12.89.71.71,0,0,1-.56.17c-.59,0-1.17,0-1.76,0A.58.58,0,0,1,180.65,72.71Z"/><path class="cls-36" d="M171.47,72.71V55.06a25,25,0,0,1,2.71-.42c.33.08.21.35.21.54,0,2.94,0,5.87,0,8.81v8.72a.69.69,0,0,1-.55.16c-.61,0-1.22,0-1.83,0C171.82,72.85,171.62,72.87,171.47,72.71Z"/><path class="cls-37" d="M190.43,247.86a5.35,5.35,0,0,0,.1-1.44V227.29a.48.48,0,0,1,.42-.14,6.58,6.58,0,0,1,2,.12,1.16,1.16,0,0,1,.14.73q0,9.75,0,19.5c0,.26,0,.54-.16.76A24,24,0,0,1,190.43,247.86Z"/><path class="cls-38" d="M169.85,244.64a20.82,20.82,0,0,1-2.61-.4.91.91,0,0,1-.17-.67V227.91a1.06,1.06,0,0,1,.13-.63.59.59,0,0,1,.42-.13q1.09,0,2.19,0a.57.57,0,0,1,.38.11,1.23,1.23,0,0,1,.14.73V243.9a2.07,2.07,0,0,1,0,.5C170.23,244.63,170.11,244.76,169.85,244.64Z"/><path class="cls-39" d="M187.71,52.53V72.7a.44.44,0,0,1-.35.15c-.53,0-1.07,0-1.6,0a.67.67,0,0,1-.51-.15,1.31,1.31,0,0,1-.13-.78q0-9.26,0-18.5a2.07,2.07,0,0,1,0-.5A16.78,16.78,0,0,1,187.71,52.53Z"/><path class="cls-40" d="M193.46,72.7V51.63a11.25,11.25,0,0,1,2-.31c.34.07.21.34.21.53,0,2.83,0,5.65,0,8.47q0,6.18,0,12.38c-.21.21-.48.15-.73.16C194.45,72.82,193.93,73,193.46,72.7Z"/><path class="cls-41" d="M193,248.26v-21a3.66,3.66,0,0,1,2.22,0V248c0,.21.08.44-.11.62A13.79,13.79,0,0,1,193,248.26Z"/><path class="cls-42" d="M164.5,56.16c.33,0,.43.16.42.47s0,.84,0,1.26V72.71c-.12.14-.29.13-.45.15-.63,0-1.26,0-1.89,0a.74.74,0,0,1-.52-.15,1.48,1.48,0,0,1-.13-.88V58.18c0-.54,0-1.08,0-1.61A19.15,19.15,0,0,1,164.5,56.16Z"/><path class="cls-43" d="M154,57.79a22.45,22.45,0,0,1,2.71-.42c.3-.09.38.11.44.33a2.93,2.93,0,0,1,0,.66V71.84a1.73,1.73,0,0,1-.11.84.44.44,0,0,1-.35.17,23.72,23.72,0,0,1-2.53,0,.41.41,0,0,1-.26-.15,1.44,1.44,0,0,1-.11-.74V58.56A1,1,0,0,1,154,57.79Z"/><path class="cls-22" d="M204.65,227.29v22.8a19.86,19.86,0,0,1-2.53-.4c.39-.28.35-.7.35-1.1V228.21a1.58,1.58,0,0,1,.13-.93A3.2,3.2,0,0,1,204.65,227.29Z"/><path class="cls-36" d="M174.7,227.29v17.52c0,.23.11.55-.31.54a18.14,18.14,0,0,1-2.54-.4,2.34,2.34,0,0,0,.17-1.08q0-7.83,0-15.66a1.64,1.64,0,0,1,.12-.93,4.69,4.69,0,0,1,1.79-.13A.92.92,0,0,1,174.7,227.29Z"/><path class="cls-44" d="M183.88,246.85a18.25,18.25,0,0,1-2.33-.38,1.07,1.07,0,0,1-.16-.72V228a1.16,1.16,0,0,1,.13-.68,4.68,4.68,0,0,1,2.38,0,1.16,1.16,0,0,1,.14.73v18.14A1,1,0,0,1,183.88,246.85Z"/><path class="cls-45" d="M207.27,250.49v-23.2a2.76,2.76,0,0,1,1.92,0V250a2.66,2.66,0,0,1-.1.8A10.17,10.17,0,0,1,207.27,250.49Z"/><path class="cls-46" d="M210.6,72.7q0-11.48,0-23c0-.28.11-.63-.3-.75a11.28,11.28,0,0,1,1.92-.3c.33.08.2.35.2.54,0,2.58,0,5.17,0,7.75V72.7A2.12,2.12,0,0,1,210.6,72.7Z"/><path class="cls-47" d="M202.63,227.29v22.19c-.16.24-.34.19-.51.21a6,6,0,0,1-1.4-.22V227.29A2.73,2.73,0,0,1,202.63,227.29Z"/><path class="cls-48" d="M161.89,56.57c.33.07.2.35.2.53,0,4.92,0,9.83,0,14.75,0,.29,0,.57,0,.86a.5.5,0,0,1-.36.14c-.59,0-1.19,0-1.79,0a.81.81,0,0,1-.52-.15,1.15,1.15,0,0,1-.12-.68c0-4.88,0-9.75,0-14.63a2.3,2.3,0,0,1,0-.45A19.72,19.72,0,0,1,161.89,56.57Z"/><path class="cls-49" d="M154,57.79V72.71s-.05.06-.08.06a6.63,6.63,0,0,1-2.77,0,1.41,1.41,0,0,1-.14-.88V59.48a9.71,9.71,0,0,0-.06-1.21A30.74,30.74,0,0,1,154,57.79Z"/><path class="cls-50" d="M136.07,60.6a29.67,29.67,0,0,1,3.23-.5c.29-.11.3.13.34.29a2.92,2.92,0,0,1,0,.66V71.82a1.6,1.6,0,0,1-.12.89.76.76,0,0,1-.56.16c-.76,0-1.52,0-2.28,0a.72.72,0,0,1-.57-.15A1.23,1.23,0,0,1,136,72c0-3.63,0-7.26,0-10.88A1.4,1.4,0,0,1,136.07,60.6Z"/><path class="cls-51" d="M187.71,227.29v19.94c-.14.17-.29.12-.42.14a10.5,10.5,0,0,1-1.92-.3,2.54,2.54,0,0,0,.16-1.09V228.25a1.88,1.88,0,0,1,.11-.94c.18-.2.42-.15.65-.17C186.76,227.21,187.26,227,187.71,227.29Z"/><path class="cls-52" d="M151,58.27c.33.07.22.33.22.53,0,2.87,0,5.74,0,8.62v5.29c-.24.22-.54.14-.83.15-.5,0-1,0-1.51,0a.81.81,0,0,1-.52-.15,1.25,1.25,0,0,1-.12-.73q0-6.27,0-12.54a1.1,1.1,0,0,1,.16-.77A18.77,18.77,0,0,1,151,58.27Z"/><path class="cls-53" d="M148,241.22a32.36,32.36,0,0,1-3.23-.51,1.29,1.29,0,0,0,.26-1V228.15a1.48,1.48,0,0,1,.13-.88.67.67,0,0,1,.47-.12q1,0,2,0a.7.7,0,0,1,.47.11,1.1,1.1,0,0,1,.14.73c0,4.15,0,8.31,0,12.46C148.23,240.72,148.38,241.08,148,241.22Z"/><path class="cls-54" d="M157,242.62a19.57,19.57,0,0,1-2.53-.39,1.72,1.72,0,0,1-.06-.55c0-4.51,0-9,0-13.52a1.48,1.48,0,0,1,.13-.88.71.71,0,0,1,.56-.13,7.91,7.91,0,0,1,2.12.11,1.16,1.16,0,0,1,.14.73v13.89a1.67,1.67,0,0,1,0,.5C157.23,242.54,157.19,242.72,157,242.62Z"/><path class="cls-34" d="M167.24,227.29v17a19.32,19.32,0,0,1-2.53-.4,14.24,14.24,0,0,0,0-1.46q0-7.11,0-14.22a1.56,1.56,0,0,1,.12-.88A4.21,4.21,0,0,1,167.24,227.29Z"/><path class="cls-55" d="M159.35,57c.21.17.12.41.12.62V72.71c-.11.14-.28.13-.44.14-.48,0-.95,0-1.43,0a.73.73,0,0,1-.55-.16V58c0-.25.1-.57-.31-.63A20.84,20.84,0,0,1,159.35,57Z"/><path class="cls-55" d="M157,242.62c.33-.07.2-.34.2-.53v-14.8a.47.47,0,0,1,.41-.14,5.66,5.66,0,0,1,2,.14V243A19.29,19.29,0,0,1,157,242.62Z"/><path class="cls-56" d="M185.17,52.93c.2.17.11.41.11.61q0,9.59,0,19.16c-.44.3-.92.12-1.38.16a.7.7,0,0,1-.54-.15q0-9.45,0-18.88c0-.2.16-.5-.19-.59A11.11,11.11,0,0,1,185.17,52.93Z"/><path class="cls-57" d="M138.28,239.7a19.13,19.13,0,0,1-2.61-.4,1.48,1.48,0,0,1-.06-.55V228.12a1.48,1.48,0,0,1,.12-.83c.24-.21.53-.14.81-.14h1.33c.3,0,.61-.07.87.15a1.22,1.22,0,0,1,.12.73v10.74a2,2,0,0,1-.06.65C138.72,239.66,138.58,239.82,138.28,239.7Z"/><path class="cls-58" d="M185.69,227.29v19.19c0,.23.15.59-.32.59a8.37,8.37,0,0,1-1.49-.22V227.29A2.46,2.46,0,0,1,185.69,227.29Z"/><path class="cls-59" d="M148,241.22c.2-.18.11-.41.11-.62q0-6.66,0-13.31a.34.34,0,0,1,.31-.13,7.33,7.33,0,0,1,2.24.11,1.06,1.06,0,0,1,.13.68c0,4.31,0,8.63,0,12.94,0,.26.11.59-.27.73A19.86,19.86,0,0,1,148,241.22Z"/><path class="cls-60" d="M172.18,227.29q0,8.53,0,17.08c0,.24.14.59-.32.58a11.39,11.39,0,0,1-2-.31c.2,0,.33-.06.31-.29s0-.26,0-.4V227.29A3,3,0,0,1,172.18,227.29Z"/><path class="cls-61" d="M85.34,231.43c.18-.15.11-.34.11-.52,0-1,0-1.91,0-2.87a.87.87,0,0,1,.27-.73c2.84-.14,5.72-.12,8.61-.12A.89.89,0,0,1,95,227h4.73a.94.94,0,0,1,.63.14c0,.35-.28.26-.46.27-.61,0-1.22,0-1.83,0H95.74c-.95,0-1.9,0-2.82,0a1.14,1.14,0,0,0-.14.74c0,1.23,0,2.45,0,3.68,0,.24.1.56-.28.65Q88.91,232.07,85.34,231.43Z"/><path class="cls-62" d="M181.56,227.29q0,9.59,0,19.18a11.61,11.61,0,0,1-2-.31,17.44,17.44,0,0,0,.05-1.77V228.22a1.68,1.68,0,0,1,.12-.94A2.7,2.7,0,0,1,181.56,227.29Z"/><path class="cls-63" d="M179.74,227.29q0,9.14,0,18.28c0,.2.16.49-.2.59a10.52,10.52,0,0,1-1.92-.31c.2,0,.33,0,.32-.28s0-.27,0-.4V227.29A2.46,2.46,0,0,1,179.74,227.29Z"/><path class="cls-64" d="M125.39,237.69c-1.12-.12-2.23-.29-3.33-.52a.91.91,0,0,1-.16-.66q0-4.31,0-8.59a1.05,1.05,0,0,1,.12-.63c.17-.17.39-.14.61-.14h1.93c.29,0,.61-.07.87.15a1.23,1.23,0,0,1,.12.73v8.9C125.55,237.19,125.6,237.47,125.39,237.69Z"/><path class="cls-65" d="M92.61,72.71h-7c-.16-1.43,0-2.83-.07-4.22,2.21-.37,4.42-.75,6.64-1a.44.44,0,0,1,.43,0,1,1,0,0,1,.15.62v4A.83.83,0,0,1,92.61,72.71Z"/><path class="cls-66" d="M123.77,62.52c1.07-.22,2.15-.38,3.23-.5a.83.83,0,0,1,.16.66q0,4.7,0,9.38a1.18,1.18,0,0,1-.11.64c-.36.27-.77.14-1.16.16s-1.06,0-1.59,0a.81.81,0,0,1-.56-.15,1.23,1.23,0,0,1-.13-.73v-8.7A1.11,1.11,0,0,1,123.77,62.52Z"/><path class="cls-67" d="M145.15,227.29v13.28c-.14.17-.29.12-.42.14a13.66,13.66,0,0,1-2.1-.32.87.87,0,0,1-.16-.66V227.91a1.05,1.05,0,0,1,.12-.63,3.66,3.66,0,0,1,1.61-.13C144.52,227.14,144.86,227.05,145.15,227.29Z"/><path class="cls-42" d="M164.92,227.29q0,8,0,16c0,.2.15.5-.2.59a11.28,11.28,0,0,1-1.92-.3c.19-.18.11-.42.11-.62V227.29A3,3,0,0,1,164.92,227.29Z"/><path class="cls-68" d="M142.63,227.29v13.1a24,24,0,0,1-2.52-.39,1,1,0,0,1-.16-.67c0-3.81,0-7.61,0-11.42a1.05,1.05,0,0,1,.12-.63,3.66,3.66,0,0,1,1.61-.13C142,227.14,142.34,227.05,142.63,227.29Z"/><path class="cls-69" d="M150.49,241.62c.18-.17.1-.38.1-.58q0-6.87,0-13.75c.18-.19.42-.13.64-.15.54.07,1.1-.14,1.62.15a1.27,1.27,0,0,1,.12.74v13.11a2.74,2.74,0,0,1,0,.5c0,.27-.18.4-.46.28A11.23,11.23,0,0,1,150.49,241.62Z"/><path class="cls-70" d="M141.29,59.78a20,20,0,0,1,2.54-.39c.25-.11.38,0,.44.24a2.43,2.43,0,0,1,0,.6V71.91a1.44,1.44,0,0,1-.12.79c-.26.24-.59.16-.9.17a10.84,10.84,0,0,1-1.14,0,.67.67,0,0,1-.47-.15,1.7,1.7,0,0,1-.12-.89v-11A1.4,1.4,0,0,0,141.29,59.78Z"/><path class="cls-71" d="M125.39,237.69v-10.4a.37.37,0,0,1,.31-.13c.79,0,1.58,0,2.37,0a.4.4,0,0,1,.27.11,1,1,0,0,1,.14.63v9.52a2.8,2.8,0,0,1,0,.4c-.06.27-.2.38-.47.27A18.84,18.84,0,0,1,125.39,237.69Z"/><path class="cls-72" d="M148.38,58.68v14c-.31.25-.67.13-1,.15s-.85.11-1.24-.14a1.6,1.6,0,0,1-.12-.89V60.09a1.37,1.37,0,0,0-.25-1A19.44,19.44,0,0,1,148.38,58.68Z"/><path class="cls-73" d="M128,238.09l.33-.06V227.29a.47.47,0,0,1,.37-.14c.68,0,1.37,0,2.06,0a.53.53,0,0,1,.32.12.89.89,0,0,1,.14.57V238a.86.86,0,0,1-.16.62A28.66,28.66,0,0,1,128,238.09Z"/><path class="cls-74" d="M135.77,227.29c0,3.81,0,7.62,0,11.43,0,.2.08.41-.1.58a20,20,0,0,1-2.54-.4,2.07,2.07,0,0,1,0-.5V228.11a1.38,1.38,0,0,1,.13-.83,4.69,4.69,0,0,1,1.79-.13A.9.9,0,0,1,135.77,227.29Z"/><path class="cls-75" d="M123.77,62.52c0,3.4,0,6.79,0,10.19-.52.3-1.08.11-1.62.15s-.92.12-1.34-.14a1.4,1.4,0,0,1-.13-.83V64.33a11.38,11.38,0,0,0-.06-1.31A30.6,30.6,0,0,1,123.77,62.52Z"/><path class="cls-76" d="M141.29,59.78a.5.5,0,0,1,.43.22V72.71c-.34.26-.73.13-1.1.15s-.77.11-1.11-.15q0-6,0-12.07c0-.19.13-.46-.2-.54A12.14,12.14,0,0,1,141.29,59.78Z"/><path class="cls-77" d="M122.06,227.29v9.88c-1-.12-2.1-.27-3.14-.49.11-1.42,0-2.85,0-4.27s0-2.91,0-4.36a1.24,1.24,0,0,1,.13-.78.74.74,0,0,1,.52-.12c.64,0,1.28,0,1.91,0C121.73,227.15,121.92,227.13,122.06,227.29Z"/><path class="cls-78" d="M127,72.71V62a21.32,21.32,0,0,1,2.52-.4.85.85,0,0,1,.16.67q0,4.89,0,9.8a1.05,1.05,0,0,1-.12.63c-.55.3-1.14.11-1.71.15A1,1,0,0,1,127,72.71Z"/><path class="cls-79" d="M145.75,59.09l.41,0V72.71c-.5.3-1,.11-1.58.15a.56.56,0,0,1-.44-.15c0-4.26,0-8.52,0-12.78,0-.23.12-.55-.31-.54A11.28,11.28,0,0,1,145.75,59.09Z"/><path class="cls-80" d="M131.61,61.3a19.89,19.89,0,0,1,2.55-.4.84.84,0,0,1,.16.67c0,3.49,0,7,0,10.48a1.27,1.27,0,0,1-.1.64.69.69,0,0,1-.56.17,4.81,4.81,0,0,1-1.85-.13,1.41,1.41,0,0,1-.13-.83V62.5A8.05,8.05,0,0,0,131.61,61.3Z"/><path class="cls-81" d="M111.85,235.57a28.94,28.94,0,0,1-3.21-.5,1.13,1.13,0,0,1-.16-.72q0-3.19,0-6.39a1.12,1.12,0,0,1,.12-.68.32.32,0,0,1,.18-.1,24.35,24.35,0,0,1,3.08,0,.54.54,0,0,1,.13.07,1.07,1.07,0,0,1,.14.68c0,2.31,0,4.62,0,6.93C112.13,235.12,112.25,235.47,111.85,235.57Z"/><path class="cls-82" d="M131.61,61.3c.36.08.23.37.23.58V72.71c-.27.24-.6.15-.91.15a7.34,7.34,0,0,1-1.15,0,.43.43,0,0,1-.26-.13V61.62A14.87,14.87,0,0,1,131.61,61.3Z"/><path class="cls-83" d="M115.4,63.83a21.26,21.26,0,0,1,2.62-.4c.24-.11.29.07.33.24a2,2,0,0,1,0,.55V72a1.44,1.44,0,0,1-.11.74.68.68,0,0,1-.56.17c-.6,0-1.19,0-1.79,0a.81.81,0,0,1-.56-.15,1.23,1.23,0,0,1-.13-.73V64.6A1.11,1.11,0,0,1,115.4,63.83Z"/><path class="cls-84" d="M152.49,241.92c.22,0,.35-.08.33-.32s0-.24,0-.35v-14a2.21,2.21,0,0,1,1.71,0v14.32c0,.21.08.44-.11.62A9.71,9.71,0,0,1,152.49,241.92Z"/><path class="cls-85" d="M133.25,227.29c0,3.66,0,7.33,0,11,0,.2.09.44-.12.61a14.87,14.87,0,0,1-2.09-.32V227.29A3.63,3.63,0,0,1,133.25,227.29Z"/><path class="cls-86" d="M101.28,66c1-.23,2-.35,3.06-.49a2.91,2.91,0,0,1,.58-.09.88.88,0,0,1,.16.67v5.94a1.1,1.1,0,0,1-.12.64c-.42.28-.9.13-1.36.15s-1.19,0-1.78,0a.89.89,0,0,1-.57-.14,1.14,1.14,0,0,1-.13-.63V66.71A1,1,0,0,1,101.28,66Z"/><path class="cls-87" d="M110.16,64.65a22.76,22.76,0,0,1,2.71-.42c.25-.11.38,0,.44.24a2,2,0,0,1,0,.55v7a1.3,1.3,0,0,1-.12.73c-.56.32-1.16.12-1.75.16a2.63,2.63,0,0,1-1.36-.14A1.23,1.23,0,0,1,110,72q0-3.28,0-6.58A1,1,0,0,1,110.16,64.65Z"/><path class="cls-88" d="M118.23,72.71c0-2.92,0-5.83,0-8.75,0-.19.13-.46-.2-.53a19.15,19.15,0,0,1,2.61-.41c.33.07.21.34.22.53v9.16c-.18.18-.41.14-.64.15-.47,0-.95,0-1.43,0A.73.73,0,0,1,118.23,72.71Z"/><path class="cls-89" d="M134.16,72.71V60.9a11.33,11.33,0,0,1,1.91-.3c.18.17.1.38.1.57,0,3.85,0,7.69,0,11.54A2.71,2.71,0,0,1,134.16,72.71Z"/><path class="cls-83" d="M117,236.38a22.85,22.85,0,0,1-2.61-.41c.11-2.61,0-5.22,0-7.83a1.46,1.46,0,0,1,.13-.87,1.54,1.54,0,0,1,1-.12,3.94,3.94,0,0,1,1.6.11,1.1,1.1,0,0,1,.14.73c0,2.54,0,5.09,0,7.63C117.27,235.89,117.42,236.25,117,236.38Z"/><path class="cls-90" d="M114.6,227.29c0,2.71,0,5.43,0,8.14,0,.19.13.46-.2.54a19.74,19.74,0,0,1-2.54-.4c.2-.15.12-.37.12-.56,0-2.57,0-5.15,0-7.72.31-.25.68-.1,1-.15C113.53,227.21,114.09,227,114.6,227.29Z"/><path class="cls-91" d="M101.28,66v6.67s-.05.06-.08.07a9.7,9.7,0,0,1-3.27,0,.78.78,0,0,1-.14-.53q0-2.56,0-5.13a.71.71,0,0,1,.16-.52C99.06,66.34,100.17,66.16,101.28,66Z"/><path class="cls-92" d="M106,234.66a20.84,20.84,0,0,1-2.61-.41,1.4,1.4,0,0,1-.06-.5c0-1.91,0-3.83,0-5.74a1.22,1.22,0,0,1,.12-.73.43.43,0,0,1,.32-.12,21.38,21.38,0,0,1,2.53,0,.36.36,0,0,1,.16.11,1.35,1.35,0,0,1,.11.74c0,1.94,0,3.89,0,5.84a1.1,1.1,0,0,1-.15.77A.5.5,0,0,1,106,234.66Z"/><path class="cls-93" d="M110.16,64.65v8.06c-.38.27-.81.12-1.22.15a3.15,3.15,0,0,1-1.43-.13,1.24,1.24,0,0,1-.13-.78c0-2,0-4,0-5.92a1,1,0,0,0-.35-.89C108.06,64.92,109.11,64.77,110.16,64.65Z"/><path class="cls-94" d="M107,65.14l.51,0v7.54c-.38.27-.81.12-1.21.15s-1,.14-1.41-.15V65.46A16.8,16.8,0,0,1,107,65.14Z"/><path class="cls-95" d="M113.19,72.71v-8c0-.23.06-.51-.32-.49a19.86,19.86,0,0,1,2.53-.4q0,4.44,0,8.88a4.4,4.4,0,0,1-2.07.11A.33.33,0,0,1,113.19,72.71Z"/><path class="cls-96" d="M117,236.38c.19-.16.12-.37.12-.56v-8.53a3,3,0,0,1,2,0q0,4.43,0,8.86c0,.19.12.46-.21.53A12.37,12.37,0,0,1,117,236.38Z"/><path class="cls-97" d="M103.51,227.29q0,3.19,0,6.39c0,.19.08.41-.1.57a21.29,21.29,0,0,1-2.62-.41.91.91,0,0,1-.16-.66c0-1.74,0-3.48,0-5.22,0-.72.1-.81.81-.82h1.51C103.14,227.15,103.35,227.12,103.51,227.29Z"/><path class="cls-91" d="M103.51,227.29H101a1.5,1.5,0,0,0-.17.07v6.47a28.05,28.05,0,0,1-3.14-.49,1.24,1.24,0,0,0,.26-.89v-4.41a1.07,1.07,0,0,1,.16-.76h1.85c.16,0,.34.06.47-.09a.68.68,0,0,1,.56-.16c1,0,2,0,3,0a10.4,10.4,0,0,1,2.3.08.13.13,0,0,1,0,.17Z"/><path class="cls-98" d="M140.11,227.29V240a10.28,10.28,0,0,1-1.83-.3c.46,0,.42-.35.42-.64V227.29A1.59,1.59,0,0,1,140.11,227.29Z"/><path class="cls-99" d="M92.49,232.55c.19-.14.12-.34.12-.51,0-1.37,0-2.75,0-4.12v-.63h3.13a.91.91,0,0,1,.16.66q0,2.22,0,4.44a.82.82,0,0,1-.16.66C94.65,232.93,93.56,232.77,92.49,232.55Z"/><path class="cls-100" d="M106,234.66c.12,0,.27,0,.42-.14v-7.23a3.66,3.66,0,0,1,2.22,0v7.78A21.45,21.45,0,0,1,106,234.66Z"/><path class="cls-101" d="M98,66.56v6.15a.51.51,0,0,1-.36.15c-.69,0-1.38,0-2.06,0a.66.66,0,0,1-.33-.12,1.16,1.16,0,0,1-.14-.68V67.64a.9.9,0,0,1,.17-.67Z"/><path class="cls-99" d="M95.24,67v5.74a.74.74,0,0,1-.91,0H92.61V67.6c-.13-.17-.28-.12-.41-.14C93.21,67.24,94.22,67.11,95.24,67Z"/><path class="cls-101" d="M95.74,233.05v-5.76h2.32v5.92c-.15.16-.29.11-.42.14A11.06,11.06,0,0,1,95.74,233.05Z"/><path class="cls-102" d="M78.4,125.78h8a1.45,1.45,0,0,1,.08.72c0,11.25-.06,22.5,0,33.75,0,5.42,2.7,9.32,7.55,11.72a.77.77,0,0,0,.15,0,2.05,2.05,0,0,1,.54.1,16.77,16.77,0,0,0,8.54.79l.25,0a22.84,22.84,0,0,0,2.7-.49,19.56,19.56,0,0,0,2.71-.79,17.77,17.77,0,0,0,4.18-2.09c.47-.33.91-.69,1.35-1.05a1,1,0,0,0,.44-.91c0-.17,0-.33,0-.5q0-16.36,0-32.73a16.47,16.47,0,0,0-.41-4,4,4,0,0,0-1.48-2.44,3.94,3.94,0,0,0-2.08-.66,6,6,0,0,1-1-.09c-.55-.1-.66-.26-.61-.93,0-.49.15-.58.73-.6s.9,0,1.36,0,1.2,0,1.81,0c1.46,0,2.93,0,4.4,0,.84,0,1.68,0,2.52,0,.65,0,1.29,0,1.94,0q1.86,0,3.72,0c1.27,0,2.55,0,3.82,0s2.53,0,3.8,0c.83.14,1.68,0,2.52.17.16,0,.33,0,.49,0a37.67,37.67,0,0,1,4,.69c.54.16,1.1.27,1.64.43.82.23,1.61.53,2.41.82,1,.42,1.93.82,2.85,1.32a27.71,27.71,0,0,1,2.86,1.83,23.52,23.52,0,0,1,4.53,4.33,22.56,22.56,0,0,1,3.84,7,4.19,4.19,0,0,1-.09-.93q0-4.43,0-8.83a9.67,9.67,0,0,0-.44-2.88,3.19,3.19,0,0,0-3.44-2.44,4,4,0,0,1-1-.1c-.47-.09-.56-.28-.54-.9,0-.41.2-.62.62-.62a5.09,5.09,0,0,1,.55,0c.84,0,1.67,0,2.51,0h2.33c.9,0,1.81,0,2.72,0s1.81,0,2.71,0q.92,0,1.83,0c.84,0,1.68,0,2.52,0,1,0,2.08,0,3.12,0s1.86,0,2.79,0,2.13.09,3.2.23,2,.33,3,.59a20.54,20.54,0,0,1,2.84,1,17.52,17.52,0,0,1,3.58,2.25,14,14,0,0,1,3,3.83,12.09,12.09,0,0,1,.07,10.81,11.91,11.91,0,0,1-3.1,3.78A17,17,0,0,1,182,151c-.07,0,0,.07,0,0s0,0,.05,0a9,9,0,0,1,1.46,1.15,31.45,31.45,0,0,1,3.85,4.38q1.6,2.22,3,4.55l2.51,4c.6,1,1.3,2,1.94,3a19.63,19.63,0,0,0,2.91,3.45,6.88,6.88,0,0,0,3.62,2.08l.74.12c.48.11.59.32.55.89s-.31.55-.68.55h-.71c-1.19,0-2.39,0-3.59,0q-1.45,0-2.91,0c-.65,0-1.3,0-1.95,0a7.12,7.12,0,0,0-.8,0,1.52,1.52,0,0,1-1.62-.81,46.15,46.15,0,0,1-2.78-3.76,2.81,2.81,0,0,0-.33-.44c-.77-1.18-1.48-2.4-2.23-3.58l-.66-1c-.67-1.13-1.45-2.19-2.13-3.31-.49-.75-1-1.49-1.5-2.24a42.45,42.45,0,0,0-2.82-3.7,13.91,13.91,0,0,0-3.23-2.94,7.49,7.49,0,0,0-2.54-1.15l-.29-.06c-.81-.18-1-.58-.64-1.39a2.17,2.17,0,0,1,1.07-.12,12,12,0,0,0,2.38-.26,10.26,10.26,0,0,0,3.64-1.31,10,10,0,0,0,4.51-6,12.4,12.4,0,0,0-.6-9.23,11.52,11.52,0,0,0-3.9-4.47,12.61,12.61,0,0,0-6.06-2c-.58,0-1.17,0-1.75,0h-1.8c-.77,0-1.54,0-2.31,0a.27.27,0,0,0-.23.11,2.38,2.38,0,0,0-.05.8v45.7a1.89,1.89,0,0,1-.1.94c-.49.31-1,.13-1.55.16-.87,0-1.75,0-2.62,0s-1.86,0-2.79,0c-.44,0-.59-.24-.59-.64,0-.23,0-.47,0-.7V161a3,3,0,0,1,0-.62,17.41,17.41,0,0,1-1.41,3,19.53,19.53,0,0,1-2.82,3.88,22.13,22.13,0,0,1-3.77,3.27,28.21,28.21,0,0,1-3,1.71,30.67,30.67,0,0,1-3,1.23,29.56,29.56,0,0,1-3.83,1c-.57.12-1.16.18-1.73.31-1,.21-2,.16-3,.31-1.19.1-2.38,0-3.57,0-.52,0-.63-.29-.46-1,.51-.31,1.09-.17,1.63-.27.81-.06,1.61-.14,2.41-.27a14.37,14.37,0,0,0,3-.76,14.9,14.9,0,0,0,2.9-1.33,15.15,15.15,0,0,0,2.54-1.9,12.85,12.85,0,0,0,1.94-2,19.68,19.68,0,0,0,3.17-5.44,7.65,7.65,0,0,0,.34-.95,30.2,30.2,0,0,0,1.55-8.64,32.5,32.5,0,0,0-1.55-11.21,22.39,22.39,0,0,0-3.5-6.71,14.59,14.59,0,0,0-2-2.13,14,14,0,0,0-2.51-2,13.66,13.66,0,0,0-2.92-1.5,16.33,16.33,0,0,0-3.05-.95,21.6,21.6,0,0,0-2.41-.39,17.16,17.16,0,0,0-2.38-.09c-1,0-2,0-3,0a9.74,9.74,0,0,0-2.47.2,3.42,3.42,0,0,0-2.59,2.5,12.79,12.79,0,0,0-.56,3c-.14,1.68-.11,3.36-.11,5v35.74c0,.23,0,.47,0,.7s-.07.44-.34.51c-1.39.09-2.78,0-4.17,0h-2.21c-.74,0-.83-.1-.84-.85,0-1.43,0-2.85,0-4.28a.93.93,0,0,0-.07-.56,7.77,7.77,0,0,0-1,.88,29.88,29.88,0,0,1-2.78,2.11,38.54,38.54,0,0,1-3.48,1.84,31.87,31.87,0,0,1-3.68,1.25,22.83,22.83,0,0,1-5.13.72,24.37,24.37,0,0,1-3.62-.1,1.26,1.26,0,0,1-.75-.23,18.91,18.91,0,0,1-9.07-3.86,17.63,17.63,0,0,1-4.48-5.7,16.62,16.62,0,0,1-1.72-7.33q0-12.63,0-25.26a13.8,13.8,0,0,0-.46-3.94.91.91,0,0,0-.09-.17,3.38,3.38,0,0,0-3.34-2.59L73.7,127v-1.23Z"/><path class="cls-103" d="M103.61,173a16.81,16.81,0,0,1-8.94-.78,4.51,4.51,0,0,1-.44-.22c.18-.2.09-.45.09-.67q0-49.31,0-98.61h9.28a.8.8,0,0,1,.16.52c0,.2,0,.4,0,.61v98A1.69,1.69,0,0,1,103.61,173Z"/><path class="cls-104" d="M210.6,72.7h1.81l.44,0a.92.92,0,0,1,.07.56V226.73c0,.15,0,.3,0,.45a20.57,20.57,0,0,1-3.14,0,.85.85,0,0,1-.14-.53c0-.19,0-.37,0-.55V73.84a1.68,1.68,0,0,1,.16-1.12Z"/><path class="cls-105" d="M209.79,227.18h3.12c-.24.21-.53,0-.8.11H197.39a.1.1,0,0,1,0-.15.77.77,0,0,1,.36-.09c1.18,0,2.35,0,3.52,0q.91,0,1.83,0,1.35,0,2.7,0c.55,0,1.09,0,1.64,0s1.17,0,1.75,0A.8.8,0,0,1,209.79,227.18Z"/><path class="cls-106" d="M94.43,176a27.89,27.89,0,0,0,5.92.09c1.23-.12,2.44-.39,3.66-.63a.69.69,0,0,1,.16.52c0,.16,0,.33,0,.5q0,24.87,0,49.73a1.5,1.5,0,0,1-.16,1H94.33V176.64A1.1,1.1,0,0,1,94.43,176Z"/><path class="cls-107" d="M205.86,227.18h-2.72a.82.82,0,0,1-.17-.57v-91a2.18,2.18,0,0,1,0-.25c0-.3.17-.44.35-.61a5.49,5.49,0,0,0,0-8.31c-.17-.16-.38-.3-.34-.58s0-.64,0-1q0-25.56,0-51.13c0-.34-.09-.71.16-1l1.51,0,1.21,0a.74.74,0,0,1,.16.52c0,.2,0,.4,0,.6q0,76.11,0,152.22C206,226.44,206.12,226.84,205.86,227.18Z"/><path class="cls-108" d="M209.79,227.18h-2.32a.78.78,0,0,1-.16-.51c0-.21,0-.41,0-.61V73.84c0-.38-.1-.78.16-1.12l.51,0,1.81,0Z"/><path class="cls-109" d="M207.47,72.72V227.18h-1.61V72.72Z"/><path class="cls-110" d="M197.79,72.72l.71,0,2.82,0a.67.67,0,0,1,.16.47c0,.15,0,.3,0,.45q0,25.26,0,50.51c0,.33.08.68-.17,1a.83.83,0,0,1-.58.08,7,7,0,0,0-2.32.06.69.69,0,0,1-.58,0,.8.8,0,0,1-.2-.56c0-.18,0-.37,0-.55V73.74C197.63,73.4,197.54,73,197.79,72.72Z"/><path class="cls-111" d="M201.19,125.09c.22-.16.13-.4.13-.6V72.72l.3,0,1.52,0q0,26.34,0,52.68c0,.2.07.41-.08.58a.29.29,0,0,1-.33,0,7.53,7.53,0,0,0-1.34-.65A.23.23,0,0,1,201.19,125.09Z"/><path class="cls-112" d="M197.79,72.72v51.71a1.49,1.49,0,0,0,.11.78c0,.16-.15.21-.27.27a5.38,5.38,0,0,0-2.3,1.78.6.6,0,0,1-.31.25c-.13,0-.14-.12-.17-.21a3.68,3.68,0,0,1,0-.81q0-26.4,0-52.8c0-.33-.08-.68.16-1l.71,0Z"/><path class="cls-113" d="M178,126l-3.2-.22a.75.75,0,0,1-.16-.52c0-.16,0-.33,0-.5q0-25.51,0-51c0-.34-.09-.71.16-1h3.33a.74.74,0,0,1,.16.52c0,.18,0,.36,0,.55V124.9a4.1,4.1,0,0,1,0,.7C178.25,125.77,178.28,126,178,126Z"/><path class="cls-114" d="M174.8,72.72v53.06H172a.71.71,0,0,1-.16-.52c0-.16,0-.33,0-.5v-51a1.46,1.46,0,0,1,.17-1h2.82Z"/><path class="cls-115" d="M192.83,165.14l-2.52-4a14.48,14.48,0,0,1,0-1.61V147.15c0-.9,0-1.81,0-2.71a12.68,12.68,0,0,0,1.24-5.71,12.14,12.14,0,0,0-1.3-5.18c0-.42,0-.83,0-1.25q0-29.25,0-58.51c0-.36-.1-.74.16-1.07l.2,0,2.42,0a.71.71,0,0,1,.16.52c0,.18,0,.37,0,.55v90.26a3.67,3.67,0,0,1,0,.81C193.15,165,193.1,165.24,192.83,165.14Z"/><path class="cls-116" d="M190.43,72.72q0,30.14,0,60.28c0,.19.14.46-.18.55a14.57,14.57,0,0,0-3-3.71,6.4,6.4,0,0,1,0-1.16V73.74a1.52,1.52,0,0,1,.16-1l.31,0Z"/><path class="cls-117" d="M172,72.72v53.06h-3.13a.75.75,0,0,1-.16-.52c0-.16,0-.33,0-.5q0-25.51,0-51c0-.34-.09-.71.16-1H172Z"/><path class="cls-118" d="M168.85,72.72v53.06h-2.52a.75.75,0,0,1-.16-.52c0-.16,0-.33,0-.5q0-25.51,0-51c0-.34-.09-.71.16-1h2.52Z"/><path class="cls-119" d="M164.92,227.29H162.8a.11.11,0,0,1,0-.15,5.92,5.92,0,0,1,1.68-.09q.9,0,1.8,0c.81,0,1.61,0,2.41,0,.6,0,1.21,0,1.81,0s1.13,0,1.7,0c.78,0,1.56,0,2.35,0a.61.61,0,0,1,.17.07.11.11,0,0,1,0,.15h-9.88Z"/><path class="cls-120" d="M174.8,227.28v-.09a.67.67,0,0,1,.56-.16c.88,0,1.77,0,2.65,0s1.75,0,2.62,0c.58,0,1.15,0,1.73,0s1.33,0,2,0a7.49,7.49,0,0,1,1.89.08.12.12,0,0,1,.05.16H174.8Z"/><path class="cls-121" d="M192.83,165.14c.13,0,.22-.08.22-.22V72.72l.41,0,1.51,0v54.79c.07.21-.06.38-.14.56a5.69,5.69,0,0,0,.16,5.26,1.09,1.09,0,0,1,.18.56,9.79,9.79,0,0,0,0,1.21v31.79a4.79,4.79,0,0,1,0,.76c0,.21,0,.45-.32.5A28.76,28.76,0,0,1,192.83,165.14Z"/><path class="cls-122" d="M186.3,227.28v-.09c.34-.27.74-.13,1.12-.15q1.5,0,3,0c.78,0,1.55,0,2.32,0s1.36,0,2,0,1.37,0,2.06,0a.67.67,0,0,1,.56.16v.09H186.3Z"/><path class="cls-123" d="M178,126c.21-.17.12-.4.12-.61q0-26.34,0-52.67h2.92a.74.74,0,0,1,.16.52c0,.16,0,.33,0,.5q0,25.83,0,51.67c0,.4.13.85-.26,1.18Z"/><path class="cls-124" d="M162.8,227.19v.09H151.2a.12.12,0,0,1,.06-.17,3.4,3.4,0,0,1,1.23-.09c.65,0,1.29,0,1.94,0,.91,0,1.81,0,2.71,0,.64,0,1.29,0,1.93,0,.93,0,1.86,0,2.8,0C162.18,227.05,162.52,227,162.8,227.19Z"/><path class="cls-125" d="M166.33,72.72v53.06h-1.82a.8.8,0,0,1-.16-.52V73.74a1.52,1.52,0,0,1,.16-1h1.82Z"/><path class="cls-126" d="M181,126.59a2.65,2.65,0,0,0,.11-.79q0-26.55,0-53.08h2.83a.74.74,0,0,1,.16.52v53.29a4.18,4.18,0,0,1,0,.71c0,.16,0,.35-.25.37Z"/><path class="cls-127" d="M183.77,127.61c.18-.17.1-.38.1-.57q0-27.17,0-54.32h3.52q0,28.26,0,56.51c0,.21.09.44-.13.61A19.75,19.75,0,0,0,183.77,127.61Z"/><path class="cls-128" d="M164.51,72.72v53.06h-2.72a.75.75,0,0,1-.16-.52c0-.16,0-.33,0-.5v-51c0-.34-.09-.71.16-1h2.72Z"/><path class="cls-129" d="M154.62,135.28a27.59,27.59,0,0,0-2.41-2.54c-.66-.58-1.35-1.14-2-1.71,0-.42,0-.84,0-1.26v-56a1.46,1.46,0,0,1,.17-1h3.83a.73.73,0,0,1,.16.51c0,.17,0,.34,0,.51q0,25.52,0,51c0,.34.09.71-.16,1l-1,0a5.18,5.18,0,0,0,0,1.18l1.46.1a.55.55,0,0,1,.25.56c0,2.33,0,4.66,0,7C155,134.92,155,135.22,154.62,135.28Z"/><path class="cls-130" d="M154.23,125.78V72.72h2.52a.74.74,0,0,1,.16.52c0,.16,0,.33,0,.5q0,25.52,0,51c0,.34.09.71-.16,1Z"/><path class="cls-131" d="M156.75,125.78V72.72h2.32a.74.74,0,0,1,.16.52c0,.16,0,.33,0,.5q0,25.52,0,51c0,.34.09.71-.16,1Z"/><path class="cls-132" d="M159.07,125.78V72.72h2.72v53.06Z"/><path class="cls-133" d="M140.51,126.68l-3.95-.68a4.49,4.49,0,0,1,0-1.1V73.74a1.51,1.51,0,0,1,.16-1h3.93a.73.73,0,0,1,.17.51V125.5C140.78,125.91,140.91,126.36,140.51,126.68Z"/><path class="cls-134" d="M136.68,72.72v52.67c0,.21.09.44-.12.61l-3-.21a1.69,1.69,0,0,1-.06-.55V73.64a1.28,1.28,0,0,1,.17-.92h3Z"/><path class="cls-135" d="M150.4,72.72q0,28.86,0,57.72c0,.2.15.5-.2.59l-2.83-1.78a1.5,1.5,0,0,1-.15-.93c0-4,0-8,0-12.06q0-21.26,0-42.52c0-.35-.09-.71.16-1h3Z"/><path class="cls-74" d="M151.21,227.19v.1H137.89a.12.12,0,0,1,.05-.16,3.41,3.41,0,0,1,1.19-.09c.6,0,1.2,0,1.81,0,1.23,0,2.47,0,3.7,0,1,0,2,0,2.92,0s2,0,3,0C150.79,227,151,227,151.21,227.19Z"/><path class="cls-136" d="M137.89,227.19v.1H124.58a.12.12,0,0,1,0-.16,3.47,3.47,0,0,1,1.2-.09c.79,0,1.59,0,2.39,0,1,0,2,0,3,0,.81,0,1.61,0,2.42,0s1.62,0,2.42,0c.44,0,.87,0,1.31,0A.64.64,0,0,1,137.89,227.19Z"/><path class="cls-81" d="M124.58,227.19v.1H113a.12.12,0,0,1,0-.16A2.21,2.21,0,0,1,114,227c1.33,0,2.65,0,4,0s2.81,0,4.22,0c.63,0,1.25,0,1.88,0A.68.68,0,0,1,124.58,227.19Z"/><path class="cls-137" d="M129.72,125.78h-3.83a.75.75,0,0,1-.16-.52c0-.16,0-.33,0-.5v-51a1.5,1.5,0,0,1,.16-1h3.83a.73.73,0,0,1,.17.51v51.53A1.46,1.46,0,0,1,129.72,125.78Z"/><path class="cls-138" d="M125.89,72.72v53.06h-3.73a.75.75,0,0,1-.16-.52c0-.16,0-.33,0-.5q0-25.51,0-51a1.53,1.53,0,0,1,.16-1h3.73Z"/><path class="cls-139" d="M144.54,127.93l-2.42-.83a1.17,1.17,0,0,1-.15-.58c0-.18,0-.37,0-.55q0-26.11,0-52.23c0-.35-.09-.71.16-1h2.42a.73.73,0,0,1,.16.51c0,.19,0,.37,0,.56v53.08C144.71,127.23,144.81,127.61,144.54,127.93Z"/><path class="cls-140" d="M142.13,72.72v53.59c0,.26,0,.53,0,.79l-1.61-.42a2.33,2.33,0,0,0,.11-.74q0-26.61,0-53.22h1.52Z"/><path class="cls-141" d="M144.54,127.93c0-.18,0-.37,0-.55V72.72h2.82v56c0,.17,0,.34,0,.51Z"/><path class="cls-142" d="M122.16,72.71v53.07h-1.92a.8.8,0,0,1-.16-.52V73.74a1.53,1.53,0,0,1,.16-1h1.92Z"/><path class="cls-143" d="M129.72,125.78V72.72h3.94q0,26.25,0,52.5c0,.19.08.41-.1.57Z"/><path class="cls-97" d="M113,227.19v.1h-6.65v-.1c.48-.3,1-.12,1.52-.15,1.14,0,2.27,0,3.41,0C111.83,227.08,112.43,226.87,113,227.19Z"/><path class="cls-144" d="M117.72,125.78h-4.43a.71.71,0,0,1-.16-.52c0-.16,0-.33,0-.5v-51a1.46,1.46,0,0,1,.17-1h4.43a.72.72,0,0,1,.16.52c0,.17,0,.34,0,.51v51A1.46,1.46,0,0,1,117.72,125.78Z"/><path class="cls-145" d="M117.72,125.78V72.71h2.52v53.07Z"/><path class="cls-146" d="M103.61,173V72.71h2.72a.79.79,0,0,1,.16.57c0,.24,0,.47,0,.71q0,48.42,0,96.85c0,.38,0,.77,0,1.16,0,.18,0,.37-.18.48A16.72,16.72,0,0,1,103.61,173Z"/><path class="cls-147" d="M113.09,169.68a15.82,15.82,0,0,1-4,2c-.23-.09-.24-.31-.25-.51s0-.47,0-.7q0-48.32,0-96.62a1.71,1.71,0,0,1,.16-1.13h2.52a.71.71,0,0,1,.16.52c0,.17,0,.34,0,.5q0,25.51,0,51c0,.34.09.71-.16,1H109.6V127c1.21.11,2.45,0,3.5.75a1.73,1.73,0,0,1,.15,1v40A1.58,1.58,0,0,1,113.09,169.68Z"/><path class="cls-147" d="M111.47,125.78V72.71h1.82v53.07Z"/><path class="cls-148" d="M109,72.71v98.22a1.26,1.26,0,0,0,.1.74,15.18,15.18,0,0,1-2.72.81c.14-.33,0-.65,0-1q0-49.4,0-98.79H109Z"/><path class="cls-146" d="M107.84,227.18H104V175.41c1.21-.36,2.41-.76,3.59-1.21.28,0,.33.17.38.37a3,3,0,0,1,0,.6v51.14A1.2,1.2,0,0,1,107.84,227.18Z"/><path class="cls-138" d="M124.58,227.19h-2.42a.78.78,0,0,1-.16-.51c0-.17,0-.34,0-.51q0-25,0-50.11c0-.35-.09-.72.16-1,.12,0,.22-.06.22-.21s0-.31,0-.46q0-19.46,0-38.92a18.74,18.74,0,0,1,.5-4.84,3.78,3.78,0,0,1,2.61-3,1.54,1.54,0,0,1,.3,0,.68.68,0,0,1,.16.51c0,.19,0,.37,0,.56q0,48.77,0,97.54a1.59,1.59,0,0,1-.16,1.07Z"/><path class="cls-149" d="M131.24,227.18h-3a.78.78,0,0,1-.16-.51c0-.2,0-.41,0-.61V128.42a1.68,1.68,0,0,1,.16-1.12h3a.8.8,0,0,1,.16.52c0,.2,0,.4,0,.6v97.64C131.4,226.44,131.5,226.84,131.24,227.18Z"/><path class="cls-118" d="M168.75,227.18h-2.42a.76.76,0,0,1-.16-.56c0-.24,0-.48,0-.71q0-25.07,0-50.13c0-15.85,0-31.7,0-47.55,0-.32-.08-.65.14-.93h2.42a.75.75,0,0,1,.16.52c0,.18,0,.37,0,.55q0,48.87,0,97.74A1.59,1.59,0,0,1,168.75,227.18Z"/><path class="cls-150" d="M128.21,127.3v99.88h-2.42V127.5A7.31,7.31,0,0,1,128.21,127.3Z"/><path class="cls-151" d="M131.24,227.18V127.3a14,14,0,0,1,2.42.12.85.85,0,0,1,.16.67c0,.65,0,1.31,0,2v42.83c0,.34.09.71-.16,1l-1.6.13c-.14.29,0,.58-.08.92.57.07,1.11,0,1.62.05a.56.56,0,0,1,.21.5c0,.2,0,.4,0,.6v50.07a1.51,1.51,0,0,1-.16,1Z"/><path class="cls-113" d="M178,227.18H174.8a.73.73,0,0,1-.16-.51c0-.19,0-.37,0-.56q0-35.88,0-71.75c0-.36-.1-.74.17-1.06a12.71,12.71,0,0,1,3.22,2.94,1.49,1.49,0,0,1,.16.83v69A1.59,1.59,0,0,1,178,227.18Z"/><path class="cls-152" d="M151.21,227.19h-.61a.77.77,0,0,1-.16-.57c0-.23,0-.47,0-.7V171.13a3.17,3.17,0,0,1,.06-.75,27.35,27.35,0,0,0,3.74-3.23c.29,0,.31.27.34.48a4.1,4.1,0,0,1,0,.7q0,28.95,0,57.88c0,.33.08.68-.16,1Z"/><path class="cls-142" d="M122.16,175v52.16h-4.23a.73.73,0,0,1-.17-.51V176.05a1.48,1.48,0,0,1,.17-1Z"/><path class="cls-144" d="M117.93,175v52.16h-4a.8.8,0,0,1-.16-.56c0-.24,0-.47,0-.71q0-25.36,0-50.75c0-1.59,0-3.19,0-4.79l1.39-1.39v6Z"/><path class="cls-153" d="M144.65,227.18h-3.73a.68.68,0,0,1-.16-.51c0-.24,0-.47,0-.71V175.67a12.27,12.27,0,0,0-.05-1.36l3.83-1c.24,0,.24.2.26.35a4.18,4.18,0,0,1,0,.71q0,25.9,0,51.8A1.51,1.51,0,0,1,144.65,227.18Z"/><path class="cls-110" d="M201.32,227.18h-3.63a.78.78,0,0,1-.16-.51c0-.17,0-.34,0-.51q0-25,0-50.11c0-.35-.09-.72.16-1h3.63a.73.73,0,0,1,.16.51c0,.17,0,.34,0,.51q0,25,0,50.11C201.48,226.51,201.57,226.87,201.32,227.18Z"/><path class="cls-114" d="M174.81,153.3c0,.17,0,.33,0,.5v73.38h-2.52a.74.74,0,0,1-.16-.52c0-.15,0-.3,0-.45q0-36.39,0-72.77a1.75,1.75,0,0,1,.26-1.3A7.08,7.08,0,0,1,174.81,153.3Z"/><path class="cls-154" d="M107.84,227.18V174.94c0-.26.12-.59-.24-.74,1.16-.56,2.31-1.15,3.42-1.82.26-.09.33.07.38.27a2.43,2.43,0,0,1,0,.6q0,26.57,0,53.11a1.12,1.12,0,0,1-.16.82Z"/><path class="cls-123" d="M178,227.18V156.24a27.11,27.11,0,0,1,2.83,3.73c0,.5-.05,1-.05,1.51q0,32.31,0,64.63a1.59,1.59,0,0,1-.16,1.07Z"/><path class="cls-155" d="M168.75,227.18V127.3h1.81a.76.76,0,0,1,.17.52v98.29c0,.36.09.75-.17,1.07Z"/><path class="cls-127" d="M187.41,227.18h-3a.74.74,0,0,1-.16-.52c0-.18,0-.36,0-.55V166.7c0-.23,0-.47,0-.7s.05-.41.27-.5l2.5,3.93c.14.22.27.45.4.68a1.87,1.87,0,0,1,.17.88v55.42A1.09,1.09,0,0,1,187.41,227.18Z"/><path class="cls-156" d="M170.56,227.18V127.3a12.27,12.27,0,0,1,1.82,0,.56.56,0,0,1,.08.38c0,7.33,0,14.67,0,22a2.37,2.37,0,0,1-.06,1.09h-1.06v1.08l1.06.27a14.46,14.46,0,0,0-.1,2.71v72.33Z"/><path class="cls-157" d="M150.49,170.38c.18.16.1.38.1.57q0,28.11,0,56.23h-3a.78.78,0,0,1-.16-.51c0-.19,0-.37,0-.56v-53a1.84,1.84,0,0,1,.15-1.08Z"/><path class="cls-130" d="M154.43,227.18V167.94c0-.28.06-.58-.2-.79a26.41,26.41,0,0,0,2.71-3.74c.21-.22.28,0,.33.14a2.68,2.68,0,0,1,0,.8v61.81a1.46,1.46,0,0,1-.17,1Z"/><path class="cls-158" d="M201.32,227.18V175h1.17V174c-.42-.15-.87-.06-1.27-.25a1.2,1.2,0,0,1-.16-.87c0-3.27,0-6.55,0-9.83q0-13.38,0-26.76a.33.33,0,0,1,.21-.36,14,14,0,0,0,1.58-.72.21.21,0,0,1,.19,0c.2.19.1.44.1.67q0,45.67,0,91.34Z"/><path class="cls-116" d="M187.41,227.18V170.11l3,4.11a2,2,0,0,1,.17,1.08v44.11c0,2.32,0,4.63,0,7a1.13,1.13,0,0,1-.16.82Z"/><path class="cls-159" d="M147.56,172.06c0,.19,0,.37,0,.56v54.56h-2.92q0-26.62,0-53.27c0-.21.09-.44-.11-.61Z"/><path class="cls-160" d="M137.89,227.19h-1.81a.68.68,0,0,1-.16-.51c0-.17,0-.34,0-.51V175.93a1.58,1.58,0,0,1,.16-1l2.9-.31c.25,0,.25.19.27.34a3.38,3.38,0,0,1,0,.71v50.51c0,.35.08.72-.17,1Z"/><path class="cls-112" d="M197.69,175v52.15h-2.92a.69.69,0,0,1-.16-.52c0-.16,0-.33,0-.5V176.05c0-.35-.08-.72.17-1Z"/><path class="cls-132" d="M161.89,227.18h-2.82a.73.73,0,0,1-.16-.51c0-.17,0-.34,0-.51q0-25,0-50.11c0-.35-.09-.72.16-1h2.82a.72.72,0,0,1,.16.52c0,.17,0,.34,0,.51q0,25,0,50.11C162.05,226.51,162.14,226.87,161.89,227.18Z"/><path class="cls-147" d="M111.27,227.18q0-27.06,0-54.14c0-.22.18-.56-.24-.66.92-.63,1.8-1.3,2.66-2,.27.21.21.51.21.79v56h-2.62Z"/><path class="cls-128" d="M161.89,227.18V175h2.62a.78.78,0,0,1,.17.52v50.62a1.46,1.46,0,0,1-.17,1h-2.62Z"/><path class="cls-160" d="M139.12,172.84a11.91,11.91,0,0,1-3,.77c-.2-.2-.16-.46-.16-.71,0-1,0-1.92,0-2.87q0-20.52,0-41a2,2,0,0,1,.16-1.18,13.57,13.57,0,0,1,3,1,1.66,1.66,0,0,1,.15,1v42.11A1.66,1.66,0,0,1,139.12,172.84Z"/><path class="cls-161" d="M201.09,136.06c.23.19.13.44.13.67v37a6,6,0,0,1-2.61-1.25,4.56,4.56,0,0,1-.93-.82,2,2,0,0,1-.16-.83q0-17.06,0-34.09a1.18,1.18,0,0,1,.17-.82.49.49,0,0,1,.48-.07,7.27,7.27,0,0,0,2.63.17A.35.35,0,0,1,201.09,136.06Z"/><path class="cls-162" d="M184.5,165.5a1.31,1.31,0,0,0-.12.78v60.9h-2a.78.78,0,0,1-.16-.51V163.24c0-.35-.09-.72.16-1C183.11,163.29,183.83,164.38,184.5,165.5Z"/><path class="cls-163" d="M136.07,174.91q0,9.39,0,18.8v33.47h-2.42V175H132c0-.39-.15-.71.07-1v.9C133.39,175,134.73,174.91,136.07,174.91Z"/><path class="cls-164" d="M190.43,227.18v-53a1.72,1.72,0,0,0,1.92.79,1.79,1.79,0,0,1,.4,0,.73.73,0,0,1,.16.51c0,.17,0,.34,0,.51q0,25,0,50.11c0,.35.09.71-.16,1Z"/><path class="cls-165" d="M139.12,172.84c0-.2,0-.41,0-.61V129.38c0-.21,0-.41,0-.61A13.12,13.12,0,0,1,142,130.3a.74.74,0,0,1,.07.39c-.05,13.18,0,26.36,0,39.54a2.74,2.74,0,0,1-.05,1.24A12.1,12.1,0,0,1,139.12,172.84Z"/><path class="cls-166" d="M159.07,175v52.15h-1.92q0-31.65,0-63.32c0-.13.23-.47-.2-.45.63-1.17,1.2-2.38,1.72-3.63v15.06C158.79,175.06,159,175,159.07,175Z"/><path class="cls-167" d="M182.36,162.22v65h-1.71V160.94a1.63,1.63,0,0,1,.21-1A22.55,22.55,0,0,1,182.36,162.22Z"/><path class="cls-163" d="M136.08,127.82v45.79a13.2,13.2,0,0,1-2.42.28V127.42A13.29,13.29,0,0,1,136.08,127.82Z"/><path class="cls-168" d="M192.75,227.18V175h2v52.15Z"/><path class="cls-125" d="M164.51,227.18V175H166c.16-.18.07-.39.07-.58q0-23.26,0-46.53a1.22,1.22,0,0,1,0-.6h.2v99.88Z"/><path class="cls-153" d="M142,171.47a4.37,4.37,0,0,1-.1-1.3q0-19.48,0-39a2.7,2.7,0,0,1,.12-.89,11.87,11.87,0,0,1,2.52,2,2.07,2.07,0,0,1,.16.89q0,17.76,0,35.52a1.75,1.75,0,0,1-.15.88A11.88,11.88,0,0,1,142,171.47Z"/><path class="cls-169" d="M146.48,134.43a20.3,20.3,0,0,1,3,5.23,8.17,8.17,0,0,1,.52,1.46,6.73,6.73,0,0,1,.16,1.49v17a7,7,0,0,1-.16,1.59,19.9,19.9,0,0,1-2.95,5.67c-.18.25-.38.47-.57.7a.61.61,0,0,1-.26-.52,4.1,4.1,0,0,1,0-.61V135.55C146.2,135.16,146.1,134.73,146.48,134.43Z"/><path class="cls-112" d="M197.79,135.88a1.18,1.18,0,0,0-.1.69v34.3c0,.26,0,.51,0,.76a17.54,17.54,0,0,1-2.89-3.48c.23-.23.18-.52.18-.81V134.61a2.39,2.39,0,0,1,.1-.84c.15-.08.21,0,.27.13a5.52,5.52,0,0,0,2.14,1.69C197.61,135.65,197.76,135.71,197.79,135.88Z"/><path class="cls-133" d="M139.1,227.18V175.26c0-.22.1-.48-.13-.66l1.73-.29a.21.21,0,0,1,.21.23c0,.13,0,.27,0,.4v52.24Z"/><path class="cls-144" d="M113.09,169.68V128.26c0-.17,0-.33,0-.5a4.27,4.27,0,0,1,1.68,3,13.57,13.57,0,0,1,.28,2.85v34.55A10.89,10.89,0,0,1,113.09,169.68Z"/><path class="cls-113" d="M174.8,127.72a10.33,10.33,0,0,1,3.63,1.62,1.17,1.17,0,0,1,.17.73v18.38a1.19,1.19,0,0,1-.17.72,9.1,9.1,0,0,1-3.63,1.33.83.83,0,0,1-.16-.66q0-10.74,0-21.46A.87.87,0,0,1,174.8,127.72Z"/><path class="cls-170" d="M178.43,149.17V129.34a11,11,0,0,1,4.75,6.69,12.36,12.36,0,0,1-2.33,11.14A7.56,7.56,0,0,1,178.43,149.17Z"/><path class="cls-171" d="M146.48,134.43a2.7,2.7,0,0,0-.12.89V166.7a2.7,2.7,0,0,0,.12.89,10.7,10.7,0,0,1-1.92,2q0-7.12,0-14.26V133c0-.24,0-.47,0-.71A11.43,11.43,0,0,1,146.48,134.43Z"/><path class="cls-114" d="M174.8,127.72V150.5a9,9,0,0,1-2.42.29,2.32,2.32,0,0,1-.1-.74v-22a2.28,2.28,0,0,1,.1-.74A9.08,9.08,0,0,1,174.8,127.72Z"/><path class="cls-172" d="M154.62,135.28a.65.65,0,0,0,.21-.59v-7.1a.8.8,0,0,0-.09-.48c2.08,0,3.33,1.14,3.72,3.45a18.28,18.28,0,0,1,.23,2.86q0,4.56,0,9.12s-.09,0-.1,0A25.41,25.41,0,0,0,154.62,135.28Z"/><path class="cls-173" d="M190.3,144.44c.19.13.13.33.13.51v15.64c0,.18.07.38-.12.52l-3-4.54c-.07-1.44,0-2.88,0-4.32,0-1.16,0-2.31,0-3.47a2.38,2.38,0,0,1,.07-.7A12.51,12.51,0,0,0,190.3,144.44Z"/><path class="cls-174" d="M150,161.22v-20.1a21.27,21.27,0,0,1,1.16,4.45,31.43,31.43,0,0,1-.86,14.86C150.22,160.7,150.1,161,150,161.22Z"/><path class="cls-127" d="M187.31,148.08c.15.14.09.32.09.48q0,3.75,0,7.5c0,.18.07.38-.12.51A40.12,40.12,0,0,0,184,152.8a22.25,22.25,0,0,0-2.18-1.87A18,18,0,0,0,187.31,148.08Z"/><path class="cls-118" d="M166.13,127.31q0,23.55,0,47.1c0,.2.11.45-.12.61,0-.24,0-.47,0-.71q0-23.2,0-46.43C166.05,127.69,166,127.48,166.13,127.31Z"/><path class="cls-102" d="M197.79,135.88a6.27,6.27,0,0,1-2.72-2.11,5.81,5.81,0,0,1-.1-6.26,6.21,6.21,0,0,1,2.93-2.3,6.91,6.91,0,0,1,3.29-.12,9.34,9.34,0,0,1,1.86.89,5.67,5.67,0,0,1,2.18,3.39,5.57,5.57,0,0,1-2.06,5.66l-.14.14a8.53,8.53,0,0,1-1.94.89A6.6,6.6,0,0,1,197.79,135.88Z"/><path class="cls-175" d="M199.71,135.25a4.62,4.62,0,0,1-4.53-3.93,4.7,4.7,0,0,1,3.73-5.38,3,3,0,0,1,.9,0,1.62,1.62,0,0,1,0,1.41,1.29,1.29,0,0,1-.82.14,6.71,6.71,0,0,0-1.37.08c0,2,0,4,0,6a.45.45,0,0,0,.59.07,2.57,2.57,0,0,0,.09-1c0-.24,0-.47,0-.71s-.06-.77.47-.86a.87.87,0,0,1,1.13.64c.05,1,0,1.93,0,2.9A.76.76,0,0,1,199.71,135.25Z"/><path class="cls-176" d="M199.71,135.25a7.48,7.48,0,0,0,.1-1.89c0-.58,0-1.17,0-1.75.25,0,.33.21.44.37.28.42.58.83.83,1.26a.84.84,0,0,0,1,.46c-.53-.89-1.13-1.72-1.63-2.57.18-.24.38-.23.55-.3.87-.34,1.17-.86,1.09-2-.06-.74-.48-1.15-1.33-1.36-.32-.07-.68,0-1-.22V125.9a4.56,4.56,0,0,1,4.38,3.5A4.66,4.66,0,0,1,199.71,135.25Z"/><path class="cls-102" d="M199.81,127.28c.3,0,.6,0,.9.09a1.62,1.62,0,0,1,1.55,1.76,1.68,1.68,0,0,1-1.47,1.9l-.24.05,1.82,2.79h-1l-1.55-2.26-.27-.47h-1v2.72h-1v-6.58Z"/><path class="cls-177" d="M198.52,130.2v-2a8.74,8.74,0,0,1,2,.08.82.82,0,0,1,.69.82.84.84,0,0,1-.57,1A7.17,7.17,0,0,1,198.52,130.2Z"/></svg>