<svg id="Layer_1" data-name="Layer 1" xmlns="http://www.w3.org/2000/svg" viewBox="0 0 300 300"><defs><style>.cls-1{fill:#fff;}</style></defs><path class="cls-1" d="M186.93,104.22h-10.4v37.5H136V103.77H125.56v37.88H97.72v10.28h27.8v42.24h10.35V152.06h40.5v54.69H164.11V163.67h-15.7v43H113.62v-43H85.42V130.38h28.1V92.29H148.3v38.42H164V92.79H199a2.82,2.82,0,0,1,.12,1.47q0,35,0,70.06a40.91,40.91,0,0,0,2.17,14.14c2.72,7.49,8.14,12.27,15.29,15.36A53.68,53.68,0,0,0,238.18,198a69.23,69.23,0,0,0,20.36-3.15c9.4-2.93,16.95-12.82,17.35-22.69a31.65,31.65,0,0,0-1.34-11.73c-2.06-6-6.34-9.78-11.88-12.45s-11.61-4.39-17.55-6.21c-3.4-1.05-6.76-2.21-10.08-3.52a13,13,0,0,1-8.78-11.38c-.84-7.54,2.6-13.55,9.09-15.91a27.35,27.35,0,0,1,11.74-1.17,21.43,21.43,0,0,1,8,2.21c4.61,2.32,8.65,10,7.42,15.46a113,113,0,0,1-12.39,0c-.13-.89-.19-1.84-.41-2.75-.41-1.68-.72-3.51-2.72-4.14-2.51-.79-5-.93-7.26.72-1.42,1-1.74,3.81-.79,5.35a8.63,8.63,0,0,0,5.51,3.64c5.74,1.52,11.36,3.42,17,5.27a61.85,61.85,0,0,1,11,4.78c8.05,4.49,13.33,11,15,20.24,1.93,10.45.6,20.25-5.1,29.33-4.91,7.84-12.19,12.49-20.79,15.33a68.08,68.08,0,0,1-22.36,3.17A86.14,86.14,0,0,1,216,205.47a45.06,45.06,0,0,1-17.71-9.83c-7.17-6.45-10.69-14.59-11.15-24.13-.15-3.12-.17-6.26-.17-9.39q0-28.18,0-56.38Z"/><path class="cls-1" d="M34.58,104.22H24.51a2.12,2.12,0,0,0-.19,1.41q-.09,32.53-.18,65.06c0,9.13,4.15,15.89,12.06,19.9,12.91,6.54,25.91,6.06,38.49-1.18,6-3.43,9.07-8.39,10.52-15.78h12.4a26.65,26.65,0,0,1-2,9c-4.5,10.83-12.53,17.84-23.62,21.29a55.68,55.68,0,0,1-36.3-.66c-9.87-3.58-17.41-10.11-21.63-20a33.12,33.12,0,0,1-2.26-12.91c-.14-25.66,0-51.31.17-77,0-.19,0-.38,0-.64H46.67c.3.45.14,1,.14,1.47q0,36.4,0,72.8a10.21,10.21,0,0,0,.42,2.8,4.68,4.68,0,0,0,3,3.31,12.37,12.37,0,0,0,7.11.66,6.3,6.3,0,0,0,5.34-6.35c0-.79,0-1.58,0-2.38q0-35.38.08-70.77V92.79H97.58v27.79H85.47V104.24H75a2.88,2.88,0,0,0-.13,1.44q0,31.53,0,63a18.65,18.65,0,0,1-1.32,7.2c-1.7,4.14-4.92,6.63-9,8-7.44,2.52-14.79,2.41-21.9-1.21-4.81-2.46-6.93-6.73-7.74-11.83a46.07,46.07,0,0,1-.31-7.24q.06-29.26.07-58.52C34.63,104.87,34.6,104.6,34.58,104.22Z"/><path class="cls-1" d="M285.33,127.57H272.56a42.43,42.43,0,0,0-.51-6.5c-1.08-6.21-3.44-11.71-8.85-15.41a25.81,25.81,0,0,0-10.42-3.76,46.63,46.63,0,0,0-20.39.83A22.5,22.5,0,0,0,215.89,122a30.23,30.23,0,0,0,.63,11.79C218.24,140,222.36,144.17,228,147c5.28,2.63,11,4.06,16.58,5.69a120.81,120.81,0,0,1,12.25,4.14,12.6,12.6,0,0,1,7.71,9.15c2,7.57-.77,15.22-6.92,19.27a25.53,25.53,0,0,1-9.9,3.46,55.1,55.1,0,0,1-21.37-.61,22.82,22.82,0,0,1-11.45-6.42c-4.9-4.95-5.29-11.16-5-17.69h12.81c.47,2,.34,4.14.72,6.2a8.15,8.15,0,0,0,5.82,6.63,30.88,30.88,0,0,0,18.16.35,6.41,6.41,0,0,0,3.06-9.93,7.35,7.35,0,0,0-3.1-1.92,68.92,68.92,0,0,0-10.27-2.87c-6.41-1.53-12.69-3.43-18.45-6.72-8.24-4.7-13.45-11.57-15.17-21-1.63-8.91-.91-17.52,3-25.74,4.46-9.37,12.1-14.94,21.82-17.9,8.84-2.69,17.8-2.57,26.83-1.09,5.28.86,10.33,2.28,14.86,5.29,8.38,5.58,13,13.57,14.87,23.26a40.92,40.92,0,0,1,.63,7.33A4.08,4.08,0,0,1,285.33,127.57Z"/><path class="cls-1" d="M279.74,198.56a6.15,6.15,0,0,1,6.12,6.22,6.15,6.15,0,1,1-6.12-6.22Zm5,6.29a5.16,5.16,0,0,0-5-5.31,5.24,5.24,0,0,0-5.09,5.21,5.17,5.17,0,0,0,5,5.28A5.09,5.09,0,0,0,284.73,204.85Z"/><path class="cls-1" d="M277.4,201.22c1,0,2,0,3,0a1.88,1.88,0,0,1,1.89,1.17,1.93,1.93,0,0,1-.65,2.24,2.14,2.14,0,0,1-.43.21c.6,1.05,1.11,1.93,1.66,2.91l-1.54.24c-.92-.78-.77-2.35-2.28-2.84v2.56a2.31,2.31,0,0,1-1.63.08Zm1.63,3c1.49,0,1.76-.28,1.49-1.64a1.4,1.4,0,0,0-1.42-.31A5,5,0,0,0,279,204.22Z"/></svg>