<svg id="Layer_1" data-name="Layer 1" xmlns="http://www.w3.org/2000/svg" viewBox="0 0 300 300"><defs><style>.cls-1{fill:#fff;}</style></defs><title>ULTA_Dark_bg</title><g id="layer1"><g id="g14016"><path id="path12966" class="cls-1" d="M129.11,168.39c0-1.68,0-2.83-.14-4.14.35,0,3.3,0,4.21,0,1.94,0,3.26.69,3.26,2.32s-1.63,2.32-2.62,2.47v0c1,.06,2.88.71,2.88,2.52,0,2.14-1.83,3-3.74,3-.85,0-3.64,0-4,0,.1-1.32.14-2.48.14-4.15Zm3.22-3.29a4.71,4.71,0,0,0-.79,0c0,.74-.06,1.57-.06,2.09s0,1,0,1.52h.72a1.79,1.79,0,0,0,1.83-1.9,1.56,1.56,0,0,0-1.72-1.75m-.14,4.51h-.69c0,.42,0,.84,0,1.45,0,.94,0,2.1,0,2.63l.88,0a2.07,2.07,0,0,0-.21-4.11"/><path id="path12970" class="cls-1" d="M152.63,168.39c0-1.68,0-2.83-.12-4.14.94,0,5.78,0,6.21,0a9.39,9.39,0,0,0,0,1.3c-1.22-.08-3.25-.07-3.73-.07-.08,1.09,0,2.06,0,3.15,1.4,0,2.43,0,3.65-.12a5.06,5.06,0,0,0,0,1.29c-1.22-.09-2.43-.13-3.65-.13,0,.63,0,1.27,0,1.91s0,1.16,0,1.75a35.06,35.06,0,0,0,3.69-.07,9.69,9.69,0,0,0,0,1.32c-.58,0-5.86,0-6.21,0,.09-1.32.12-2.48.12-4.15Z"/><path id="path12974" class="cls-1" d="M183.53,174.58c-.52,0-2.34,0-2.78,0-.34-1-.71-2.06-1.11-3.07-.7,0-3.17,0-3.74,0a26.71,26.71,0,0,0-1.09,3.07,13.35,13.35,0,0,0-1.55,0c.78-1.66,3.19-7,4.57-10.41a8.42,8.42,0,0,0,1.23,0c1.36,3.42,3.25,8,4.47,10.41m-4.26-4c-.47-1.21-.92-2.39-1.44-3.56-.54,1.17-1,2.35-1.5,3.56Z"/><path id="path12978" class="cls-1" d="M196.27,170.83c0-1.61,0-2.42,0-3.5,0-1.59,0-2.59-.06-3.08.43,0,.88.07,1.31.07s.89,0,1.32-.07a45.61,45.61,0,0,0-.23,5.24c0,3.65,1.13,4.25,3.22,4.25,2.57,0,2.75-2.59,2.75-5.37,0-1.38-.05-2.74-.13-4.12a5.67,5.67,0,0,0,.82.07,5.54,5.54,0,0,0,.81-.07c-.1.88-.21,3-.21,5.61,0,3.47-1.63,4.91-4.74,4.91-2.76,0-4.89-1.12-4.89-3.94"/><path id="path12982" class="cls-1" d="M222.8,166.69a8.43,8.43,0,0,0,0-1.25c-.62,0-2,0-3,.12a5.74,5.74,0,0,0,0-1.31c1.47,0,6.9,0,8.27,0a5.74,5.74,0,0,0,0,1.31c-.87-.1-2.24-.11-2.89-.11,0,.22,0,.67,0,1.24v3.74c0,1.67,0,2.83.13,4.15-.35,0-2.28,0-2.63,0,.09-1.32.12-2.48.12-4.15Z"/><path id="path12986" class="cls-1" d="M247.41,168.74a28.8,28.8,0,0,0,2.42-4.49,12.68,12.68,0,0,0,1.51,0c-.7,1.12-2.34,4-3.37,5.86,0,.48,0,.85,0,1.34a23,23,0,0,0,.17,3.13c-.45,0-2.29,0-2.74,0,.05-1,.2-2,.2-2.89,0-.47,0-.93,0-1.39-1.11-2-2.94-5.2-3.44-6.05.48,0,2.4,0,2.88,0,.74,1.47,2,3.8,2.4,4.49Z"/><path id="path12990" class="cls-1" d="M88.46,115c-.22,5.61-.22,12.7-.22,19,0,11.76.15,14.42,2.36,17.3s6.32,4.5,11.65,4.5c6.17,0,11-3.1,12.72-7.61.61-1.62,1-3.91,1-10,0-9.61-.08-19.29-.69-28.89a54.65,54.65,0,0,0,7,0l-.23,3.54c-.38,6.36-.61,21.58-.76,29-.15,8.72-2.74,12.72-7.77,15.82-3.58,2.22-8.68,3.18-12.79,3.18-9.14,0-20.11-2.81-21.78-14.27a35.11,35.11,0,0,1-.16-3.91v-20.1c0-3.76-.15-9.53-.38-13.3a80.28,80.28,0,0,0,10.29,0Z"/><path id="path12994" class="cls-1" d="M133.7,129.67c0-3.23,0-4-.22-10.52-.08-1.55-.23-8.17-.31-9.56a57.63,57.63,0,0,0,10.59,0c-.53,11.1-.76,20.37-.76,31.71,0,5.15.15,9.93.23,14h1.37c2.21,0,13.17,0,17.66-.67a19.13,19.13,0,0,0,0,5.45c-3.88-.15-10.43-.44-14.54-.44-4.87,0-9,.14-14.55.44,0-1.18.53-18.25.53-20.09Z"/><path id="path12998" class="cls-1" d="M183.52,150a76.34,76.34,0,0,0,.53,10.08,73.8,73.8,0,0,0-10.73,0c.3-5.59.76-11.26.76-16.85L174,122.68c0-2.72-.07-5.3-.15-8.17H170c-.68,0-8,.16-11.88.52a25.17,25.17,0,0,0,.16-5.88c6,.37,14.3.36,20.17.36,6.32,0,13.1-.12,20.42-.48a25.67,25.67,0,0,0-.08,6c-4.49-.44-9.9-.52-15.15-.52-.08,2.65-.16,5.45-.16,8.24Z"/><path id="path13002" class="cls-1" d="M228.46,152l-3.18-7.77c-3.26-.14-15.78-.14-18.82,0a156.07,156.07,0,0,0-6.07,15.91,55.43,55.43,0,0,0-7.06,0l8.8-18.92c7.67-16.56,12.06-26.09,13.88-31.81h5c3.65,9.75,8.19,20,10.92,26.17,2.88,6.38,7.89,17.45,11.31,24.56-1.14-.07-10.17-.07-11.53,0Zm-12.52-30.36-7.74,18c2.66.07,5.25.2,7.9.2,1.5,0,3.76,0,7-.2Z"/><path id="path13006" class="cls-1" d="M67.49,111.65c-11.86,8-18.83,18.16-18.83,30.52,0,28.06,33.88,48.8,82.19,48.8A116,116,0,0,0,184,178.47h-.83a169.36,169.36,0,0,1-49.35,6.87c-48.56,0-82-22.79-82-43.85,0-11.69,5.42-21.77,15.72-29.14Z"/><path id="path13010" class="cls-1" d="M237.23,109.33a3,3,0,1,1-3,3,3,3,0,0,1,3-3m0,5.61a2.59,2.59,0,1,0-2.5-2.6,2.5,2.5,0,0,0,2.5,2.6m-1.18-4.36h1.37c.84,0,1.24.33,1.24,1a.92.92,0,0,1-.93,1l1,1.56h-.59l-1-1.52h-.58v1.52h-.55Zm.55,1.57h.57c.49,0,.94,0,.94-.58s-.41-.54-.78-.54h-.73Z"/></g></g></svg>