<svg id="Layer_1" data-name="Layer 1" xmlns="http://www.w3.org/2000/svg" viewBox="0 0 300 300"><defs><style>.cls-1{fill:#fff;}</style></defs><title>UNH_Dark_bg</title><path class="cls-1" d="M133.09,142.38h33.45v-2c0-9.08,0-18.16.05-27.24a6.49,6.49,0,0,1,1.12-3.6,4.28,4.28,0,0,1,2.83-1.4,56.69,56.69,0,0,1,6.52-.06,4.08,4.08,0,0,1,4,3.67,14.39,14.39,0,0,1,.05,1.74v72c0,4-1.37,5.33-5.29,5.33-1.69,0-3.39,0-5.07,0A4,4,0,0,1,166.6,187a16.86,16.86,0,0,1-.06-1.74V153.43H133.2c0,.59-.1,1.2-.1,1.8q0,15.22,0,30.44c0,3.75-1.43,5.2-5.14,5.2-1.65,0-3.29,0-4.93,0-2.87,0-4.46-1.64-4.49-4.53,0-2.27,0-4.54,0-6.81q0-33.18,0-66.37a4.88,4.88,0,0,1,1.71-4.25c1.58-1.22,9.66-1.18,11.21,0a4.81,4.81,0,0,1,1.66,4.14q0,13.69,0,27.39Z"/><path class="cls-1" d="M241.47,182V155.46c0-2.26.58-2.88,2.79-2.91,3,0,6,0,9,0,2.13,0,2.73.68,2.73,2.83,0,10,0,20,0,30a3.46,3.46,0,0,1-2.31,3.57,46.34,46.34,0,0,1-15.5,4,66.7,66.7,0,0,1-19.18-.8c-12.6-2.65-21.07-10-24.77-22.37a67.71,67.71,0,0,1-.11-39c3.66-12.59,12.21-20.27,25.08-22.75,11.27-2.18,22.4-1.6,33.12,2.93.49.21,1,.45,1.44.68a2.38,2.38,0,0,1,1.42,2.74c-.59,3.47-1.17,6.94-1.84,10.4-.35,1.82-1.77,2.34-3.23,1.21a29,29,0,0,1-2.19-2.11c-6.68-6.28-14.55-8.37-23.42-6.24-6.87,1.64-11.06,6.39-13.58,12.75a49.67,49.67,0,0,0-3,17.45c-.13,7.09.25,14.1,2.64,20.86,3.45,9.78,10.25,14.63,20.6,14.55,2.64,0,5.29-.4,7.92-.67A20.64,20.64,0,0,0,241.47,182Z"/><path class="cls-1" d="M91.36,140.42V113c0-3.3,1.62-4.92,4.86-4.93,1.54,0,3.09,0,4.64,0a4.22,4.22,0,0,1,4.24,4.08c0,.34,0,.68,0,1,0,17,.07,34-.06,51a41.1,41.1,0,0,1-1.34,10.43c-2.32,8.39-8,13.75-16.29,16.22a43.42,43.42,0,0,1-26.4-.2c-9.68-3.14-15-10.09-16.6-20a37.19,37.19,0,0,1-.4-5.78q0-25.79,0-51.59c0-3.7,1.47-5.17,5.16-5.17h4.64c3,0,4.65,1.67,4.65,4.68,0,17.48,0,35,0,52.46a35.84,35.84,0,0,0,1,8.44c1.21,4.86,4.51,7.89,9.36,9.11a24.77,24.77,0,0,0,12.48-.08c6-1.58,8.79-5.9,9.64-11.74a32.91,32.91,0,0,0,.32-4.76C91.37,157.61,91.36,149,91.36,140.42Z"/></svg>