<svg id="Layer_1" data-name="Layer 1" xmlns="http://www.w3.org/2000/svg" viewBox="0 0 300 300"><defs><style>.cls-1{fill:#00498f;}.cls-2,.cls-3{fill:#fff;}.cls-3{fill-rule:evenodd;}.cls-4{fill:#e21936;}</style></defs><title>UNP</title><path class="cls-1" d="M199,42.83a101.11,101.11,0,0,1-49,12.68,101.06,101.06,0,0,1-49-12.68l-1.27-.71-39,41.63L62,85a39.66,39.66,0,0,1,11.9,28.45c0,10.53-4,20.17-8.2,30.38-5,12.1-10.18,24.6-10.18,40.68A58.82,58.82,0,0,0,76.32,229.4c15.77,13.41,32.22,14.5,45.42,15.38,12,.77,21.4,1.4,26.63,10.33l1.63,2.77,1.61-2.77c5.24-8.93,14.69-9.56,26.64-10.33,13.21-.88,29.65-2,45.43-15.38a58.82,58.82,0,0,0,20.82-44.86c0-16.08-5.17-28.58-10.17-40.68-4.22-10.21-8.21-19.85-8.21-30.38A39.66,39.66,0,0,1,238,85l1.29-1.28-39-41.63Z"/><path class="cls-2" d="M72.2,140v79.15l-.06,0a56.5,56.5,0,0,0,6.9,7,58.57,58.57,0,0,0,7.3,5.25V140Z"/><path class="cls-2" d="M100.52,140v97.55A81.56,81.56,0,0,0,114.64,240V140Z"/><path class="cls-2" d="M128.8,140v101l1,.11a50.44,50.44,0,0,1,8.59,1.55,26.29,26.29,0,0,1,4.58,1.76V140Z"/><path class="cls-2" d="M157,140V244.49a26.61,26.61,0,0,1,4.58-1.76,50.39,50.39,0,0,1,8.6-1.55l1-.11V140Z"/><path class="cls-2" d="M185.36,140V240a81.46,81.46,0,0,0,14.11-2.42V140Z"/><path class="cls-3" d="M227.8,140H213.66v91.4a58.41,58.41,0,0,0,7.28-5.25,54.55,54.55,0,0,0,6.91-7l0,0Z"/><path class="cls-4" d="M71.78,140c-1,2.47-2,4.94-3,7.46-4.58,11.14-9,22.73-9,37A54.32,54.32,0,0,0,72.2,219.21V140Z"/><path class="cls-4" d="M86.34,140v91.39a54.14,54.14,0,0,0,14.18,6.15V140Z"/><path class="cls-4" d="M114.63,140v100c2,.19,4,.26,5.84.38,2.89.2,5.68.36,8.33.61V140Z"/><path class="cls-4" d="M143,140V244.5a20.74,20.74,0,0,1,7,5.57,20.51,20.51,0,0,1,7-5.57V140Z"/><path class="cls-4" d="M171.19,140v101c2.67-.25,5.44-.41,8.33-.61,1.89-.12,3.89-.19,5.84-.38V140Z"/><path class="cls-4" d="M199.48,140v97.54a54.08,54.08,0,0,0,14.17-6.15V140Z"/><path class="cls-4" d="M228.23,140h-.43v79.17a54.32,54.32,0,0,0,12.48-34.67c0-14.31-4.44-25.9-9-37-1-2.52-2-5-3-7.46"/><path class="cls-3" d="M135.56,113a5.49,5.49,0,0,1,5.5-5.78c1.56,0,3.58.78,5.67,1.33v-6.22a13.57,13.57,0,0,0-5.45-1.4,12,12,0,0,0,0,24,13.41,13.41,0,0,0,5.45-1.4v-6.21c-2.09.54-4.11,1.36-5.67,1.32a5.49,5.49,0,0,1-5.5-5.78Z"/><rect class="cls-2" x="144.85" y="71.47" width="6.63" height="22.54"/><polygon class="cls-2" points="118.55 94 124.92 94 124.92 82.65 124.98 82.65 132.63 94.01 139.87 94.01 139.87 71.47 133.01 71.47 133.01 83.38 132.95 83.38 125.28 71.47 118.55 71.47 118.55 94"/><path class="cls-2" d="M107,71.45h6.52V84c0,2.88-.12,5.72-2.37,7.88-1.9,1.84-4.88,2.49-7.53,2.49s-5.62-.65-7.53-2.49c-2.25-2.16-2.37-5-2.37-7.88V71.45h6.53V82.39c0,2.9-.42,6.07,3.37,6.07S107,85.29,107,82.39Z"/><path class="cls-3" d="M161.43,82.78a5.64,5.64,0,1,1,5.64,5.59,5.61,5.61,0,0,1-5.64-5.59m-6.33,0a12,12,0,1,1,12,11.85,11.9,11.9,0,0,1-12-11.85"/><polygon class="cls-2" points="182.9 94 189.28 94 189.28 82.65 189.34 82.65 196.99 94.01 204.22 94.01 204.22 71.47 197.36 71.47 197.36 83.38 197.3 83.38 189.63 71.47 182.9 71.47 182.9 94"/><rect class="cls-2" x="183.24" y="101.45" width="6.63" height="22.54"/><polygon class="cls-2" points="178.7 106.49 178.7 101.45 163.38 101.45 163.38 123.99 170.05 123.99 170.05 116.14 178.7 116.14 178.7 110.86 170.05 110.86 170.05 106.49 178.7 106.49"/><rect class="cls-2" x="151.73" y="101.45" width="6.64" height="22.54"/><path class="cls-3" d="M200.51,113a5.49,5.49,0,0,1,5.5-5.78c1.56,0,3.58.78,5.66,1.33v-6.22a13.51,13.51,0,0,0-5.43-1.4,12,12,0,0,0,0,24,13.35,13.35,0,0,0,5.43-1.4v-6.21c-2.08.54-4.1,1.36-5.66,1.32a5.49,5.49,0,0,1-5.5-5.78Z"/><path class="cls-3" d="M119,115l-2.32-7.23L114.24,115Zm-6.56,5.12L111.05,124h-6.28l8.14-22.55h7.46L128.51,124h-6.28l-1.37-3.89Z"/><path class="cls-3" d="M93.76,106.47h3.95a2.35,2.35,0,0,1,2.35,2.37,2.67,2.67,0,0,1-2.37,2.71H93.76Zm4.38-5a7.61,7.61,0,0,1,0,15.22H93.76V124H87.55V101.45Z"/><path class="cls-1" d="M231.26,147.49h0c-1-2.51-2-5-3-7.45H71.78c-1,2.47-2,4.94-3,7.45-4.58,11.15-9,22.74-9,37a54.29,54.29,0,0,0,12.45,34.64h0a56.41,56.41,0,0,0,6.89,7,58.35,58.35,0,0,0,7.3,5.23,54.18,54.18,0,0,0,14.18,6.16A81.83,81.83,0,0,0,114.63,240c2,.19,4,.33,5.84.44,2.89.21,5.68.37,8.33.63l1,.1a50.43,50.43,0,0,1,8.59,1.56A25.52,25.52,0,0,1,143,244.5a20.93,20.93,0,0,1,7,5.56,20.61,20.61,0,0,1,7-5.55,27,27,0,0,1,4.59-1.76,49.26,49.26,0,0,1,8.6-1.55l1-.12c2.67-.26,5.44-.42,8.33-.63,1.89-.11,3.88-.25,5.84-.44a81.77,81.77,0,0,0,14.12-2.43,54.37,54.37,0,0,0,14.17-6.14,58.57,58.57,0,0,0,7.3-5.25,56.49,56.49,0,0,0,6.9-7h0a54.35,54.35,0,0,0,12.45-34.64c0-14.31-4.44-25.9-9-37,4.58,11.15,9,22.74,9,37a54.35,54.35,0,0,1-12.45,34.64h0a56.49,56.49,0,0,1-6.9,7,58.57,58.57,0,0,1-7.3,5.25,54.37,54.37,0,0,1-14.17,6.14A81.93,81.93,0,0,1,185.36,240c-2,.19-4,.33-5.84.44-2.89.21-5.67.37-8.33.63l-1,.12a49.26,49.26,0,0,0-8.6,1.55,27,27,0,0,0-4.59,1.76,20.61,20.61,0,0,0-7,5.55,20.93,20.93,0,0,0-7-5.56,25.52,25.52,0,0,0-4.58-1.76,50.43,50.43,0,0,0-8.59-1.56l-1-.1c-2.65-.26-5.44-.42-8.33-.63-1.88-.11-3.87-.25-5.84-.44a81.83,81.83,0,0,1-14.11-2.43,54.18,54.18,0,0,1-14.18-6.16,58.35,58.35,0,0,1-7.3-5.23,56.41,56.41,0,0,1-6.89-7h0a54.29,54.29,0,0,1-12.45-34.64c0-14.31,4.43-25.9,9-37,1-2.51,2.06-5,3-7.45H228.23c1,2.47,2,4.94,3,7.45"/></svg>