<svg id="Layer_1" data-name="Layer 1" xmlns="http://www.w3.org/2000/svg" viewBox="0 0 300 300"><defs><style>.cls-1{fill:#2b0e0f;}.cls-2{fill:#fcb514;}</style></defs><title>UPS</title><path class="cls-1" d="M150,256c2-.86,50-21.61,65.09-34,15.78-12.94,24.12-31.49,24.12-53.66V64l-1.27-.69c-38.47-20.69-86-19.35-88-19.29-1.85-.06-49.39-1.4-87.84,19.29L60.8,64v104.3c0,22.17,8.34,40.72,24.11,53.66C100,234.37,148,255.12,150,256"/><path class="cls-2" d="M150,253.36s-48.55-20.93-63.55-33.22c-15.68-12.87-23.23-30.91-23.23-51.8V65.48c38.33-20.63,86.78-19,86.78-19s48.47-1.62,86.8,19V168.34c0,20.89-7.55,38.93-23.23,51.8-15,12.29-63.57,33.22-63.57,33.22m-79.89-85c0,19.3,7.17,35.36,20.69,46.46,12.15,9.95,49,26.51,59.2,31,10.25-4.52,47-21.08,59.19-31,13.56-11.1,20.71-27.16,20.71-46.46V67C178.67,62.19,118.06,65.11,70.1,109.1Z"/><path class="cls-2" d="M100.74,186.61c9.37,0,17.22-2.17,23.06-6.15v-66.4H108.52v57.7a12.83,12.83,0,0,1-7.24,1.87c-7,0-8.06-6.43-8.06-10.77v-48.8H77.92v48.12c0,16.22,7.68,24.43,22.82,24.43"/><path class="cls-2" d="M147,185.48a24.24,24.24,0,0,0,6.89.87c17,0,26.74-15.3,26.74-37.66s-10-36.17-28.31-36.17c-8.35,0-15.08,1.86-20.63,5.44v99.75H147Zm0-59.54a13.43,13.43,0,0,1,5.42-1.1c8.89,0,12.56,7.09,12.56,24.24,0,16.73-4.2,24.81-13,24.81a14.45,14.45,0,0,1-5-.92Z"/><path class="cls-2" d="M199,154.1c6.74,4,9.45,6.56,9.56,11.37.13,5.33-3.56,8.55-9.17,8.53-4.89,0-10.73-2.75-14.63-6.23v14.1a33.57,33.57,0,0,0,16.82,4.75c15.12,0,21.88-10.69,22.17-20.48.29-8.93-2.18-15.68-15-23.2-5.71-3.35-10.22-5.55-10.07-11.12s4.66-7.35,9-7.31c5.35,0,10.52,3,13.71,6.29V117.49a26.17,26.17,0,0,0-16.79-5c-10.07.29-20.6,7.57-20.54,19.94,0,8.14,2.29,14.23,14.91,21.64"/></svg>