<svg id="Layer_1" data-name="Layer 1" xmlns="http://www.w3.org/2000/svg" viewBox="0 0 300 300"><path id="Path" d="M140.85516,83.05681a83.84353,83.84353,0,0,0-42.304-11.3783C60.09306,71.67851,25,102.18206,25,149.38993s37.97742,85.45836,84.84829,85.45836h84.84828c-46.87086,0-84.84828-38.25049-84.84828-85.45836,0-31.47192,16.82544-55.1969,31.00687-66.33312" fill="#fff"/><path d="M157.62548,215.38293a86.48589,86.48589,0,0,0,42.85874,11.26134c38.96249,0,74.51578-30.19,74.51578-76.91262s-38.47546-84.57994-85.961-84.57994H103.32149c47.48555,0,85.961,37.85731,85.961,84.57994,0,31.14841-17.28961,54.62952-31.657,65.65128Z" fill="#fff"/></svg>