<svg xmlns="http://www.w3.org/2000/svg" viewBox="0 0 300 300"><g id="USBNavigation_Logo" data-name="USBNavigation  Logo"><path d="M55,77.81037V190.04775l95.12961,32.14188L245,190.04774V77.81037Z" fill="#d62a43"/><path d="M149.8704,186.41884H120.839V176.30969h-.25921c-5.7026,8.03547-13.73807,11.9236-25.66167,11.9236-14.25648,0-26.9577-8.55389-26.9577-26.6985V107.36016H98.02865v41.4734c0,9.07231,1.03683,15.55253,9.84993,15.55253,5.18418,0,11.9236-2.59208,11.9236-15.29331V107.36016H149.8704Zm56.2483-55.98909a7.71661,7.71661,0,0,0-3.62893-5.9618,10.15179,10.15179,0,0,0-6.73942-2.33288c-4.14734,0-9.07231,1.03683-9.07231,5.9618,0,2.33288,1.81447,3.36971,3.62893,4.14734,4.925,2.07367,16.33015,2.8513,26.43929,5.9618s18.92225,9.07231,18.92225,22.03275c0,22.03274-20.99591,27.73533-40.17736,27.73533-18.663,0-38.88131-7.517-39.39973-27.73533h28.77216a9.82832,9.82832,0,0,0,3.62893,6.99864,12.88572,12.88572,0,0,0,8.03546,2.33288c3.88813,0,10.10915-1.55525,10.10915-5.9618,0-4.66576-2.59209-5.9618-16.58937-8.29468-23.06958-3.88813-32.14188-11.146-32.14188-24.884,0-19.95908,21.51432-25.14325,37.32606-25.14325,17.10777,0,37.58527,4.66576,38.3629,24.884H206.1187Z" fill="#fff"/></g></svg>