<svg id="Layer_1" data-name="Layer 1" xmlns="http://www.w3.org/2000/svg" viewBox="0 0 300 300"><defs><style>.cls-1{fill:#fff;}</style></defs><title>V_1</title><path class="cls-1" d="M258,183.65H241.86c-.7-3.32-1.39-6.58-2.1-9.91H217.34c-1.19,3.29-2.39,6.57-3.6,9.9H195.49c.32-.82.59-1.55.89-2.27Q208.85,151.7,221.32,122c1.66-3.94,4.14-5.56,8.45-5.56H243.9c.7,3.32,1.38,6.59,2.07,9.85l11.79,56.31a2.87,2.87,0,0,0,.24.54ZM231.67,135.1l-.26,0-9,24.77h14.46C235.11,151.53,233.39,143.31,231.67,135.1Z"/><path class="cls-1" d="M42,117.88l.52-1.4H71.65c4.55,0,7.65,2.5,8.5,7q3.61,18.89,7.17,37.77a.83.83,0,0,0,.38.55l18-45.26H124q-14.14,33.64-28.23,67.12H77.28l-2.13-8.19c-4-15.25-7.94-30.49-11.84-45.75a8.52,8.52,0,0,0-5-6,81.42,81.42,0,0,0-15.68-5.11c-.23,0-.45-.14-.68-.21Z"/><path class="cls-1" d="M186.48,115.25c2.7.48,5.42.9,8.1,1.48,1.63.35,3.2.93,4.94,1.45-1,4.8-2,9.49-3,14-3.13-.83-6.17-1.79-9.28-2.41a20.19,20.19,0,0,0-9.86.15,11.69,11.69,0,0,0-4.21,2.33,3.66,3.66,0,0,0-.21,5.63,22.6,22.6,0,0,0,4.58,3.4c3.08,1.84,6.34,3.39,9.38,5.29,4.24,2.63,7.66,6,8.88,11.1,2.05,8.48-1.89,17.35-9.8,22.2a34.27,34.27,0,0,1-15.08,4.68A55.55,55.55,0,0,1,148.47,182c-.45-.15-.9-.33-1.34-.51a5,5,0,0,1-.6-.31l3.13-14.62c1.43.61,2.72,1.21,4,1.72,5.7,2.19,11.56,3.25,17.61,2a12.47,12.47,0,0,0,5.06-2.47,4.51,4.51,0,0,0,.11-7.13,63.49,63.49,0,0,0-7.28-4.73c-2.87-1.79-5.95-3.31-8.63-5.35-8.75-6.67-8.44-16.7-3.34-24.13,3.76-5.48,9.31-8.35,15.61-9.91,2.27-.56,4.61-.84,6.92-1.25Z"/><path class="cls-1" d="M148.93,116.52c-4.81,22.42-9.59,44.7-14.4,67.08H117.1q7.22-33.6,14.4-67.08Z"/></svg>