<svg id="Layer_1" data-name="Layer 1" xmlns="http://www.w3.org/2000/svg" xmlns:xlink="http://www.w3.org/1999/xlink" viewBox="0 0 300 300"><defs><mask id="mask" x="25" y="25.00883" width="249.98866" height="249.98849" maskUnits="userSpaceOnUse"><g id="a"><path d="M25.00011,25.00883H274.98858V274.9973H25.00011Z" fill="#fff" fill-rule="evenodd"/></g></mask></defs><circle cx="150.00576" cy="149.99691" r="124.99424" fill="#063884"/><g mask="url(#mask)"><path d="M260.64479,91.87242l-9.62734,23.535-50.156.03055,9.73843-24.15721H260.342a125.00357,125.00357,0,0,0-220.68982-.00833H77.42266c7.26912,0,11.705,3.45262,13.21606,8.27184l29.84307,84.41834,3.01374,9.46067,3.48039-9.86343,26.3599-67.52745c5.40808-12.9994,6.0275-24.76,33.6179-24.76h9.91621L172.3405,151.21414h61.61661l-9.894,24.13777-61.60827.02222L132.32292,249.0013H113.93211L57.41249,109.1633C53.74877,100.58869,48.499,97.41662,37.694,95.089a125.00362,125.00362,0,1,0,222.95083-3.21651" fill="#fff" fill-rule="evenodd"/></g></svg>