<svg id="Layer_1" data-name="Layer 1" xmlns="http://www.w3.org/2000/svg" viewBox="0 0 300 300"><g id="Layer_2" data-name="Layer 2"><g id="Layer_1-2" data-name="Layer 1-2"><path d="M10,107.48152H30.55473l22.23743,59.54142L74.926,107.48152H95.04068L60.79142,192.49631H44.24926Zm150.56212,42.84393h0v-.28476a43.07693,43.07693,0,0,1,42.40873-43.7349q.9166-.01412,1.83314.01079c16.05028,0,25.60281,5.307,33.65384,12.94379l-11.85651,13.69452c-6.70487-5.92825-13.40976-9.449-21.875-9.449-14.34172,0-24.61909,11.77884-24.61909,26.27588v.2071c0,14.497,10.07026,26.56065,24.61909,26.56065,9.70784,0,15.53254-3.85725,22.31509-9.88905l11.88241,11.93417a43.49108,43.49108,0,0,1-34.767,15.06657,42.71448,42.71448,0,0,1-43.59016-41.82049Q160.55094,151.0832,160.56212,150.32545Zm-15.53254-41.42011h0v-1.42382H108.787v1.2426s8.07692.80252,8.07692,12.01184v58.50591c0,11.287-8.07692,12.01184-8.07692,12.01184v1.2426h36.2426v-1.2426s-8.18047-.72486-8.18047-12.01184V120.736c0-11.20932,8.12869-12.01184,8.12869-12.01184Zm144.97042,0h0v-1.42382H253.7574v1.2426s7.99925.80252,7.99925,12.01184v58.50591c0,11.287-7.99925,12.01184-7.99925,12.01184v1.2426H290v-1.2426s-8.18048-.72486-8.18048-12.01184V120.736c0-11.20932,8.051-12.01184,8.051-12.01184Z" fill="#fff"/></g></g></svg>