<svg id="Layer_1" data-name="Layer 1" xmlns="http://www.w3.org/2000/svg" viewBox="0 0 300 300"><defs><style>.cls-1{fill:#fff;}</style></defs><title>VMC_Dark_bg</title><g id="layer1"><g id="g902"><path id="path893" class="cls-1" d="M44.5,104.07v32.76c0,14.77,10.6,33,10.6,33l.32-.21v.32H75.54l.11-.11a104.83,104.83,0,0,0,5.46-10.92c2.74-6.35,5.57-14.64,5.57-22V104.07H68.91v32.76a39.84,39.84,0,0,1-1.39,9.63A33,33,0,0,1,66.34,150a6.69,6.69,0,0,1-.54,1,9,9,0,0,1-.43-1,33.26,33.26,0,0,1-1.17-3.54,39,39,0,0,1-1.5-9.63V104.07H44.5Zm84.46,0v65.52h.32v.32h15.95V104.07H129ZM183.13,118c-3.85,0-5.87,1.85-6.85,3.74a8.79,8.79,0,0,0-1,3.75V160.7a18.22,18.22,0,0,0,.86,4.82,8.41,8.41,0,0,0,1.93,3.32,5.55,5.55,0,0,0,4,1.6h9.63a7.23,7.23,0,0,0,6.11-3.75,9.88,9.88,0,0,1,.21,1c.09.91.11,1.93.11,1.93v.32h16.16V118.52H198.54V119s0,.67-.1,1.5a14.21,14.21,0,0,1-.43,2c-.26-.36-.55-.87-1.07-1.5a7.89,7.89,0,0,0-6.21-3Zm57.06,0a8.27,8.27,0,0,0-5.68,2.57,16.41,16.41,0,0,0-1.07,1.28c0-.42-.1-.76-.1-1.28,0-.84,0-1.61,0-1.61v-.43H216.21v51.39h17.13v-36.4a1,1,0,0,1,.21-.75,2.79,2.79,0,0,1,2.35-.86,2.56,2.56,0,0,1,2.25.86,1,1,0,0,1,.22.75v36.08h.43v.32h16.7V125.48a8.4,8.4,0,0,0-.75-3.64,6.64,6.64,0,0,0-6.32-3.85ZM88,118.52v39.72c0,4.48,1.45,7.53,3.21,9.31a7.37,7.37,0,0,0,4.93,2.36H119a7.61,7.61,0,0,0,4.92-2.36c1.82-1.79,3.43-4.88,3.43-9.31V118.52h-16.7v35.65a2.28,2.28,0,0,1-1.72,2.25,5.92,5.92,0,0,1-1.49.43,4.72,4.72,0,0,1-1.4-.43,2.24,2.24,0,0,1-1.39-2.25V118.52H88Zm66.91,0a7.31,7.31,0,0,0-6.32,3.11,8.31,8.31,0,0,0-1.07,2.35,5.9,5.9,0,0,0-.32,1.5v37.68a4.81,4.81,0,0,0,.32,1.39,8,8,0,0,0,1.07,2.25,7.48,7.48,0,0,0,6.32,3.11h18.3V157h-6.63a1.63,1.63,0,0,1-1.72-1,6.83,6.83,0,0,1-.42-1.07V134.47a1.87,1.87,0,0,1,.21-1c.25-.43.78-.75,1.93-.75h6.63V118.52h-18.3Zm39.93,13c1.54,0,2,.53,2.35,1.07a3.27,3.27,0,0,1,.43,1.07v21.3a1.33,1.33,0,0,1-.21,1A2.88,2.88,0,0,1,194.8,157a2,2,0,0,1-1.5-.64,4,4,0,0,1-.86-1.5,5.79,5.79,0,0,1-.21-2.25V133.83a2.35,2.35,0,0,1,.21-1.28A2.41,2.41,0,0,1,194.8,131.48Zm-35.33,40.67a8.14,8.14,0,0,0-6,2.47,10,10,0,0,0-2.47,7.06,10.49,10.49,0,0,0,2.47,7.17,7.42,7.42,0,0,0,5.78,2.36,7.73,7.73,0,0,0,5.35-1.93,7.81,7.81,0,0,0,2.35-3.64,6.37,6.37,0,0,0,1.93,3.64,7.36,7.36,0,0,0,4.93,1.82,6.83,6.83,0,0,0,4.71-1.82,7.76,7.76,0,0,0,0-10.7,6.74,6.74,0,0,0-4.71-1.72,7.28,7.28,0,0,0-4.93,1.72,7,7,0,0,0-2.14,5.35H162.9l-.11.43a3.61,3.61,0,0,1-1.18,2.14,3.21,3.21,0,0,1-2.14.86,3.38,3.38,0,0,1-3-1.61,7.77,7.77,0,0,1-.85-4c0-2.36.52-3.7,1.28-4.5a3.6,3.6,0,0,1,2.57-1.07,3.11,3.11,0,0,1,2.57,1,3.94,3.94,0,0,1,.75,1.71l.11.32h4.49l-.21-.43a6.72,6.72,0,0,0-1.82-4.28,8.09,8.09,0,0,0-5.89-2.36Zm-49.24.43v3.54h.53v.32h3.75v-3.86h-4.28Zm-60.16.22v18h4.28V179.86l2.35,10.49.11.43H61l.1-.43,2.46-10.7v10.7h.33v.43h3.74v-18H61.74l-.11.21L59,184.89,56.28,173l-.11-.21h-6.1Zm78.57,0v17.55h.43v.43h3.75v-18h-4.18Zm-46.57.85v3.54H80.36v3.21h1.71v7.38a3,3,0,0,0,.86,2.25A4.29,4.29,0,0,0,86,191h.32c.53,0,1.07,0,1.6,0l.43-.22v-3.32H88a6.16,6.16,0,0,1-.64.11,2.57,2.57,0,0,1-1-.11s0,0,0-.1a3,3,0,0,1,0-.43V180.4h2v-3.21h-2v-3.54H82.07Zm-1.71,6.75a3.66,3.66,0,0,0-2-2.89,7.7,7.7,0,0,0-3.43-.65,7.41,7.41,0,0,0-3.85.86,4.91,4.91,0,0,0-2.36,4v.43h4.07l.11-.32a2.24,2.24,0,0,1,.32-1.07c.21-.25.53-.32,1.28-.32a3.18,3.18,0,0,1,1.18.1.91.91,0,0,1,.54,1c0,.23,0,.23-.11.32a1.78,1.78,0,0,1-.64.21l-3,.54a4.9,4.9,0,0,0-2.89,1.28,4.31,4.31,0,0,0-1.28,3.11,4.14,4.14,0,0,0,1.49,3.21,4.21,4.21,0,0,0,2.79,1,5.29,5.29,0,0,0,4-1.6,6.09,6.09,0,0,0,.21,1.07v.21h4.39V189.6l-.21-.1c-.14-.05-.13-.13-.22-.32a2.61,2.61,0,0,1-.32-1.29v-7a4.68,4.68,0,0,0,0-.53Zm14-3.54c-2.92,0-4.57,1.26-5.46,2.79a8.56,8.56,0,0,0-1.07,4.07,7.7,7.7,0,0,0,2,5.78,6.76,6.76,0,0,0,4.82,1.6,6.33,6.33,0,0,0,3.42-1,5.65,5.65,0,0,0,2.57-3.32l.11-.75H96.53l-.11.43a1.69,1.69,0,0,1-1.71,1.07,2.23,2.23,0,0,1-2.14-1.07,3,3,0,0,1-.33-1.18h8.57v-1.07c0-3-.85-4.87-2.14-6a6.48,6.48,0,0,0-4.28-1.4Zm14.45,0a3.53,3.53,0,0,0-2.47.86,4.27,4.27,0,0,0-.74.86v-1.39h-4v13.16h.43v.43h3.64v-7.06a2.88,2.88,0,0,1,.64-1.72,2.46,2.46,0,0,1,2.15-1,4.89,4.89,0,0,1,.85.11h.54v-4.29h-.32c-.21,0-.5,0-.75,0Zm12.84,0a7.43,7.43,0,0,0-3.85.86,4.83,4.83,0,0,0-2.25,4v.43h4l.11-.32a2.24,2.24,0,0,1,.32-1.07c.21-.25.64-.32,1.39-.32a3.2,3.2,0,0,1,1.18.1c.33.15.53.39.53,1,0,.23-.07.23-.21.32a1.78,1.78,0,0,1-.64.21l-2.89.54a5.19,5.19,0,0,0-3,1.28,4.25,4.25,0,0,0-1.18,3.11,4,4,0,0,0,1.29,3.21,4.75,4.75,0,0,0,3,1,4.91,4.91,0,0,0,3.86-1.6,6.09,6.09,0,0,0,.21,1.07l.11.21H128V189.6l-.22-.1a.71.71,0,0,1-.42-.32,3,3,0,0,1-.22-1.29v-7a3.72,3.72,0,0,0-2.14-3.42,7.23,7.23,0,0,0-3.32-.65Zm18,0a5.84,5.84,0,0,0-4.39,1.5,4.84,4.84,0,0,0-1.29,3.21,3.26,3.26,0,0,0,1.4,2.79,7.69,7.69,0,0,0,2.89,1.28c1,.24,2,.22,2.67.43a3.4,3.4,0,0,1,.86.43c.14.11.11.19.11.32a.65.65,0,0,1-.22.54,2.37,2.37,0,0,1-1.5.42,3.28,3.28,0,0,1-1.92-.42,1.26,1.26,0,0,1-.43-1.07v-.43H134v.43h-.53a4.44,4.44,0,0,0,2.25,3.85,9.22,9.22,0,0,0,4.49,1,8,8,0,0,0,3.75-.85,4.3,4.3,0,0,0,2.25-4,3.37,3.37,0,0,0-1.5-2.79,8.1,8.1,0,0,0-2.89-1.28c-1-.25-2-.33-2.68-.54a3.23,3.23,0,0,1-.85-.32c-.15-.11-.11-.21-.11-.32s-.07-.39.11-.54a2.94,2.94,0,0,1,1.49-.21c.85,0,1.28.1,1.5.32a1.85,1.85,0,0,1,.43,1V182h4.07v-.53a4.37,4.37,0,0,0-2.25-3.75,7.94,7.94,0,0,0-3.85-.86Zm49.35,0a3.52,3.52,0,0,0-3.21,1.93v-1.6h-4.18v13.59h4.28v-8.13a3.05,3.05,0,0,1,.32-1.61,1.4,1.4,0,0,1,1.29-.54c.9,0,1.2.26,1.39.65a3.66,3.66,0,0,1,.21,1.5v8.13h4.18v-8.13a2.62,2.62,0,0,1,.43-1.61,1.75,1.75,0,0,1,1.5-.54,1,1,0,0,1,.85.43,2.56,2.56,0,0,1,.54,1.72v7.7h.43v.43h3.74v-9.21a4.91,4.91,0,0,0-1.5-3.63,4.62,4.62,0,0,0-3.31-1.08,3.77,3.77,0,0,0-3.32,1.93,5.1,5.1,0,0,0-1.39-1.39,4,4,0,0,0-2.25-.54Zm20.55,0a3.73,3.73,0,0,0-3.32,1.93v-1.6h-4.17v18.19h.43v.33h3.85v-6.43a3.5,3.5,0,0,0,3.21,1.82,5.22,5.22,0,0,0,4.5-2.25,9.05,9.05,0,0,0,1.28-5,7.73,7.73,0,0,0-1.71-5.24,5.36,5.36,0,0,0-4.07-1.72Zm12.2,0a7.43,7.43,0,0,0-3.85.86,4.83,4.83,0,0,0-2.25,4v.43h4v-.32a2.47,2.47,0,0,1,.43-1.07c.21-.25.53-.32,1.29-.32a3.77,3.77,0,0,1,1.28.1.91.91,0,0,1,.54,1c0,.23-.19.23-.33.32a1.18,1.18,0,0,1-.53.21l-3.1.54a4.62,4.62,0,0,0-2.79,1.28,4.25,4.25,0,0,0-1.18,3.11,4,4,0,0,0,1.4,3.21,4.46,4.46,0,0,0,2.89,1,4.92,4.92,0,0,0,3.85-1.6,5.32,5.32,0,0,0,.11,1.07l.21.21H228V189.6l-.32-.1c-.14-.05-.12-.13-.21-.32a3.84,3.84,0,0,1-.11-1.29v-7a3.73,3.73,0,0,0-2.14-3.42,7.67,7.67,0,0,0-3.43-.65Zm14.56,0a3.31,3.31,0,0,0-2.89,1.4,6.67,6.67,0,0,0-.43.53s-.08.07-.1.11v-1.71h-4.07v13.59H233v-7.71a2.75,2.75,0,0,1,.75-1.92,2,2,0,0,1,1.5-.65c1,0,1.29.26,1.5.65a3.61,3.61,0,0,1,.32,1.5v7.7h.32v.43h3.86v-9.21a4.84,4.84,0,0,0-1.39-3.63,5.27,5.27,0,0,0-3.54-1.08Zm-126.1.33v13.16h.53v.43h3.75V177.19h-4.28Zm130.71,0,.32.53,4.6,13.28a1.85,1.85,0,0,1-.64,1.17,1.65,1.65,0,0,1-1.07.22,3.31,3.31,0,0,1-.64-.11H243v3.21h.54v.43c.48,0,.92,0,1.39,0a7.27,7.27,0,0,0,1.92-.21,3.1,3.1,0,0,0,1.5-.86c.77-.86,1.14-2.24,1.93-4.6l4.5-12.53.1-.53h-4.39l-.21.21L248,185.75l-2.25-8.35-.1-.21h-4.71ZM94.39,180.5a2.2,2.2,0,0,1,1.39.43,2.87,2.87,0,0,1,.53,1.29H92.46a3,3,0,0,1,.43-1.18,1.89,1.89,0,0,1,1.5-.54Zm79.43,0a2.17,2.17,0,0,1,2.14,1.07,6.69,6.69,0,0,1,0,4.72,2.55,2.55,0,0,1-4.29,0,6.84,6.84,0,0,1,0-4.72A2.2,2.2,0,0,1,173.82,180.5Zm34.89.11a1.89,1.89,0,0,1,1.82,1,5.2,5.2,0,0,1,.54,2.57,5,5,0,0,1-.54,2.25,1.84,1.84,0,0,1-1.82,1.07,2.15,2.15,0,0,1-1.92-1,3.94,3.94,0,0,1-.54-2.25,5.49,5.49,0,0,1,.43-2.57A2.13,2.13,0,0,1,208.71,180.61ZM76.19,184.79v1a1.94,1.94,0,0,1-.65,1.61,3.42,3.42,0,0,1-1.92.53,1.39,1.39,0,0,1-.75-.32c-.21-.16-.32-.27-.32-.75s.11-.86.43-1.07a4.51,4.51,0,0,1,1.49-.43A5.19,5.19,0,0,0,76.19,184.79Zm46.88,0v1a2.11,2.11,0,0,1-.85,1.61,2.78,2.78,0,0,1-1.71.53,1.74,1.74,0,0,1-.86-.32c-.21-.16-.22-.27-.22-.75s.12-.86.43-1.07a4.58,4.58,0,0,1,1.5-.43,4.53,4.53,0,0,0,1.71-.53Zm100.1,0v1a2.12,2.12,0,0,1-.86,1.61,2.78,2.78,0,0,1-1.71.53,1.39,1.39,0,0,1-.75-.32.78.78,0,0,1-.43-.75,1.13,1.13,0,0,1,.53-1.07,3.93,3.93,0,0,1,1.4-.43A5.48,5.48,0,0,0,223.17,184.79Z"/></g></g></svg>