<svg id="Layer_1" data-name="Layer 1" xmlns="http://www.w3.org/2000/svg" viewBox="0 0 300 300"><path d="M43.0131,86.4083a9.62422,9.62422,0,0,1,8.18777-4.36681H89.95633a1.8424,1.8424,0,0,1,1.63756,2.72926L81.22271,108.24236c-.54585.54586-1.0917,1.09171-1.63756,1.09171H34.82533a1.84239,1.84239,0,0,1-1.63756-2.72926A99.23142,99.23142,0,0,1,43.0131,86.4083Z" fill="#fff"/><path d="M77.40175,54.74891c-1.63756,0-2.72926-2.72925-1.09171-3.821a127.7713,127.7713,0,0,1,74.23581-23.47161,122.777,122.777,0,0,1,73.69,24.01746,1.79806,1.79806,0,0,1-1.09171,3.27511Z" fill="#fff"/><path d="M111.24454,246.34279c.54586-.54584,1.09171-1.0917,1.63756-1.0917l109.71616.54586a1.79805,1.79805,0,0,1,1.09171,3.2751A127.33823,127.33823,0,0,1,150,272.54366a117.94927,117.94927,0,0,1-44.214-8.18777,1.99382,1.99382,0,0,1-1.0917-2.72926Z" fill="#fff"/><path d="M124.89083,215.22927,135.262,191.75766c.54586-.54585,1.09171-1.09171,1.63755-1.09171l128.27513.54585a1.84239,1.84239,0,0,1,1.63755,2.72926,137.998,137.998,0,0,1-9.82533,20.19651,9.62422,9.62422,0,0,1-8.18777,4.3668l-121.72489-.54584C125.43668,217.95853,124.345,216.321,124.89083,215.22927Z" fill="#fff"/><path d="M274.45416,138.26419A84.51625,84.51625,0,0,1,275,150.27293a88.441,88.441,0,0,1-.54584,12.00874c0,1.09171-1.09171,1.63755-2.18342,1.63755l-121.72489-.54585a1.84239,1.84239,0,0,1-1.63755-2.72926l6.55023-15.28384h0c2.72925-5.45852,8.18777-9.27948,14.19214-9.27948H272.27076C273.36245,136.62664,274.45416,137.71835,274.45416,138.26419Z" fill="#fff"/><path d="M266.81223,106.60481A137.997,137.997,0,0,0,256.9869,86.4083a9.62423,9.62423,0,0,0-8.18777-4.36681H132.53276a14.94344,14.94344,0,0,0-13.64629,8.73363L80.131,178.65722c0,.54585-.54586.54585-1.0917.54585s-.54586,0-1.09171-.54585l-14.738-33.8428c-2.1834-5.45852-7.64192-8.73363-13.64629-8.73363H27.72926c-1.09171,0-1.63756.54585-2.18341,1.63755A96.62735,96.62735,0,0,0,25,150.27293a92.52476,92.52476,0,0,0,.54585,12.00874c0,1.09171,1.0917,1.63755,2.18341,1.63755H39.19214c.54585,0,1.63755.54585,1.63755,1.09171,3.27511,7.09606,19.10481,43.66812,29.476,67.13973a9.9238,9.9238,0,0,0,8.73363,6.00436,9.35529,9.35529,0,0,0,8.73362-6.00436l50.21834-114.083c2.18341-5.45851,7.64192-8.73362,13.64629-8.73362H265.17468A2.08578,2.08578,0,0,0,266.81223,106.60481Z" fill="#fff"/></svg>