<svg id="Layer_1" data-name="Layer 1" xmlns="http://www.w3.org/2000/svg" xmlns:xlink="http://www.w3.org/1999/xlink" viewBox="0 0 300 300"><defs><linearGradient id="linear-gradient" x1="242.55584" y1="13731.28985" x2="65.79165" y2="13554.52566" gradientTransform="matrix(1, 0, 0, -1, -4.18, 13792.914)" gradientUnits="userSpaceOnUse"><stop offset="0" stop-color="#fff"/><stop offset="0.15" stop-color="#f5f5f5"/><stop offset="0.35" stop-color="#e5e5e6"/><stop offset="0.58" stop-color="#cacbcb"/><stop offset="0.83" stop-color="#a4a6a7"/><stop offset="1" stop-color="#858789"/></linearGradient></defs><title>VRSN_Dark_BG</title><path d="M275,150A125,125,0,1,1,150,25h.04273A125.04274,125.04274,0,0,1,275,150Z" fill="url(#linear-gradient)"/><g opacity="0.1"><path d="M25.08547,150a124.91454,124.91454,0,0,0,217.94872,83.41881A124.95727,124.95727,0,0,1,66.62394,56.96581,124.53,124.53,0,0,0,25.08547,150Z" fill="#404041"/></g><path d="M251.5812,150A101.53847,101.53847,0,1,1,150.04274,48.46154h0A101.53847,101.53847,0,0,1,251.58121,150Z" fill="#0064a0"/><g opacity="0.1"><path d="M251.5812,150A101.53846,101.53846,0,0,0,74.44444,82.22222,101.53846,101.53846,0,0,1,217.82051,225.59829,101.23934,101.23934,0,0,0,251.5812,150Z" fill="#8e9093"/></g><polygon points="173.803 105.726 220.47 105.726 197.906 144.829 151.239 144.829 173.803 105.726" fill="#fff"/><polygon points="150.043 224.53 173.205 184.402 127.778 105.726 81.453 105.726 150.043 224.53" fill="#fff"/></svg>