<svg id="Layer_1" data-name="Layer 1" xmlns="http://www.w3.org/2000/svg" viewBox="0 0 300 300"><defs><style>.cls-1{fill:#fff;}</style></defs><title>VRTX_1</title><path class="cls-1" d="M88.75,160.16V175h.75c2.4,0,8.81-.19,9.89-1.18a7.2,7.2,0,0,0,2.07-4.37h1.06v13h-1.06a7.44,7.44,0,0,0-1.41-3.48c-.72-.9-1.55-.8-2.5-1.26s-7-.68-8.8-.68v10.24A14.19,14.19,0,0,0,89,190.9a2.27,2.27,0,0,0,1,1.1,4.92,4.92,0,0,0,2.35.43h2.26a14,14,0,0,0,8.49-2.36,13.11,13.11,0,0,0,4.59-7.19h1L107,194.44H74.32v-1h1.26a5.35,5.35,0,0,0,2.65-.56,2.55,2.55,0,0,0,1.12-1.28,10.94,10.94,0,0,0,.3-3.39V164.29a18.66,18.66,0,0,0-.14-3,2.54,2.54,0,0,0-1-1.45,5,5,0,0,0-2.9-.75H74.32v-1H106v10.75h-1.06a12.87,12.87,0,0,0-2.28-5.66,8.49,8.49,0,0,0-4.14-2.52,23.41,23.41,0,0,0-5.86-.48Z"/><path class="cls-1" d="M126.47,177.86v10.19a11,11,0,0,0,.37,3.72,2.75,2.75,0,0,0,1.33,1.22,9.34,9.34,0,0,0,3.54.45v1H112.35v-1a9.14,9.14,0,0,0,3.56-.46,2.81,2.81,0,0,0,1.31-1.23,10.64,10.64,0,0,0,.38-3.7v-23.6a10.79,10.79,0,0,0-.38-3.71,2.66,2.66,0,0,0-1.33-1.22,9.09,9.09,0,0,0-3.54-.46v-1h17.58a39.76,39.76,0,0,1,10,.91,10.15,10.15,0,0,1,5.19,3.37,8.78,8.78,0,0,1,2,5.75,8.47,8.47,0,0,1-3,6.65,12.76,12.76,0,0,1-5.39,2.5l9.1,12.31a18.74,18.74,0,0,0,2.53,3,4.81,4.81,0,0,0,2.66.91v1H141.14L129,177.86Zm0-17.83V176h1.59a18.28,18.28,0,0,0,5.8-.69,5.72,5.72,0,0,0,3-2.46,8.83,8.83,0,0,0,1.1-4.66c0-2.77-.68-4.82-2-6.14s-3.52-2-6.52-2Z"/><path class="cls-1" d="M186.59,158.07v9.84h-1a15.39,15.39,0,0,0-2-4.89,7.52,7.52,0,0,0-3-2.38,10,10,0,0,0-3.71-.48h-2.82v28.05a11.17,11.17,0,0,0,.32,3.49,2.81,2.81,0,0,0,1.26,1.22,5.21,5.21,0,0,0,2.55.52h1.26v1H159.67v-1h1.25a5.35,5.35,0,0,0,2.65-.56,2.6,2.6,0,0,0,1.15-1.28,10.94,10.94,0,0,0,.3-3.39V160.16h-2.73q-3.82,0-5.55,1.56a10.11,10.11,0,0,0-3.07,6.19h-1.06v-9.84Z"/><path class="cls-1" d="M204.22,160.16V175H205c2.4,0,4.13-.72,5.21-2.17a13,13,0,0,0,2.07-6.41h1.06v19.05h-1.06a13.67,13.67,0,0,0-1.41-5.1,6,6,0,0,0-2.5-2.67,9.76,9.76,0,0,0-4.13-.68v10.24a14,14,0,0,0,.27,3.68,2.27,2.27,0,0,0,1,1.1,4.85,4.85,0,0,0,2.34.43h2.26a14,14,0,0,0,8.5-2.36,13.11,13.11,0,0,0,4.59-7.19h1l-1.7,11.56H189.8v-1h1.25a5.35,5.35,0,0,0,2.65-.56,2.46,2.46,0,0,0,1.12-1.28,10.5,10.5,0,0,0,.31-3.39V164.29a18.66,18.66,0,0,0-.14-3,2.58,2.58,0,0,0-1-1.45,5,5,0,0,0-2.91-.75H189.8v-1h31.67v10.75H220.4a12.76,12.76,0,0,0-2.27-5.66,8.58,8.58,0,0,0-4.14-2.52,23.46,23.46,0,0,0-5.86-.48Z"/><path class="cls-1" d="M250.9,173.11,261.33,188a22.36,22.36,0,0,0,3.7,4.49,5.27,5.27,0,0,0,2.61.95v1H249.2v-1a6.07,6.07,0,0,0,2.84-.64,1.43,1.43,0,0,0,.65-1.18,1.85,1.85,0,0,0-.2-.86,28.2,28.2,0,0,0-2-3L245,179.9l-5.77,6.79c-1.73,2.05-2.6,3.45-2.6,4.18a2.06,2.06,0,0,0,.67,1.45,3.92,3.92,0,0,0,2,1,11,11,0,0,0,2.4.16v1H227.16v-1a9.5,9.5,0,0,0,3.9-1.28,29.85,29.85,0,0,0,5.22-5.15l7.5-8.8-9.62-13.6c-1.58-2.23-2.49-3.47-2.71-3.73a5.15,5.15,0,0,0-1.48-1.26,6.63,6.63,0,0,0-2-.56v-1h18.77v1h-1a3.79,3.79,0,0,0-2.25.5,1.49,1.49,0,0,0-.65,1.25,2.39,2.39,0,0,0,.2,1l1.92,2.79,4.69,6.87,4-4.69q3.07-3.63,3.07-5.07a2.32,2.32,0,0,0-.43-1.34,2.8,2.8,0,0,0-1.25-1,6.73,6.73,0,0,0-2.51-.35v-1h13.92v1a8.53,8.53,0,0,0-2.65.39,7,7,0,0,0-2.15,1.36c-.48.42-1.69,1.76-3.62,4Z"/><path class="cls-1" d="M60.18,158.07v1.06a8.7,8.7,0,0,1,3.18.49,2.81,2.81,0,0,1,1.31,1,2.65,2.65,0,0,1,.45,1.53,7,7,0,0,1-.31,1.81c-.21.71-.75,2.11-1.65,4.2l-7.47,17.29L47.62,166c-.85-2.06-1.36-3.31-1.5-3.78a4.15,4.15,0,0,1-.23-1.23,1.42,1.42,0,0,1,.64-1.26,6.16,6.16,0,0,1,3.35-.64h.62v-1.06H32.36v1.06a4.42,4.42,0,0,1,3,1.24A39.67,39.67,0,0,1,38.5,167l11.64,27.83h3.64l11.64-26.62a36,36,0,0,1,3.49-6.77,6.14,6.14,0,0,1,3.68-2.27v-1.06Z"/><path class="cls-1" d="M152.28,86.27l-36.46,63.14h72.91Zm67.3,116.57H85l-6.3,10.89H225.87Z"/></svg>