<svg id="Layer_1" data-name="Layer 1" xmlns="http://www.w3.org/2000/svg" viewBox="0 0 300 300"><defs><style>.cls-1{fill:#010101;}.cls-2{fill:#efc918;}.cls-3{fill:#713f97;}</style></defs><g id="prefix_Group_10711" data-name="prefix  Group 10711"><path id="prefix_Path_1829" data-name="prefix  Path 1829" class="cls-1" d="M98.92,167.28a53.54,53.54,0,0,1,9.71-51.41c14.3-18.19,39.12-29.61,66.4-30.54a95.43,95.43,0,0,1,53.46,13.5A94.66,94.66,0,0,0,98.41,71.67,74,74,0,0,0,83.17,133a78.48,78.48,0,0,0,15.76,34.29"/></g><g id="prefix_Group_10712" data-name="prefix  Group 10712"><path id="prefix_Path_1830" data-name="prefix  Path 1830" class="cls-2" d="M198.2,101a79.87,79.87,0,0,0-37.82-3.28,52.24,52.24,0,0,1,5.73,1.45,55,55,0,0,1,34.56,32.24c8.92,21.32,6.69,48.4-5.93,72.42a94.62,94.62,0,0,1-38.17,39.55,93.54,93.54,0,0,0,87.88-99A74.62,74.62,0,0,0,198.2,101"/></g><g id="prefix_Group_10713" data-name="prefix  Group 10713"><path id="prefix_Path_1831" data-name="prefix  Path 1831" class="cls-3" d="M189.81,186.06a54.43,54.43,0,0,1-4.19,4.13,55.51,55.51,0,0,1-45.6,12.9c-23-3.36-45.26-19.14-59.56-42.24A93.83,93.83,0,0,1,65.87,108a92,92,0,0,0,1.92,88.89,93.36,93.36,0,0,0,38.56,36.81,75.25,75.25,0,0,0,61.22-17.14,78.83,78.83,0,0,0,22.25-30.54"/></g><g id="prefix_Group_10714" data-name="prefix  Group 10714"><path id="prefix_Path_1832" data-name="prefix  Path 1832" class="cls-1" d="M149.79,111.05a39.08,39.08,0,1,0,39.36,39.08,39.27,39.27,0,0,0-39.36-39.08m0,81.94A42.86,42.86,0,1,1,193,150.13,43.06,43.06,0,0,1,149.79,193"/></g><path id="prefix_Path_1833" data-name="prefix  Path 1833" class="cls-1" d="M186.09,132.17H113.56v-3.78h72.53Z"/><path id="prefix_Path_1834" data-name="prefix  Path 1834" class="cls-1" d="M191.22,152.29H108.44v-3.78h82.78Z"/><path id="prefix_Path_1835" data-name="prefix  Path 1835" class="cls-1" d="M185.79,172.41H113.86v-3.78h71.93Z"/><path id="prefix_Path_1836" data-name="prefix  Path 1836" class="cls-1" d="M151.71,191.11H147.9v-82h3.81Z"/><g id="prefix_Group_10715" data-name="prefix  Group 10715"><path id="prefix_Path_1837" data-name="prefix  Path 1837" class="cls-1" d="M149.79,111.05c-10,0-18.52,17.9-18.52,39.08s8.48,39.08,18.52,39.08,18.52-17.9,18.52-39.08-8.48-39.08-18.52-39.08m0,81.94c-12.52,0-22.32-18.83-22.32-42.86s9.8-42.86,22.32-42.86,22.33,18.83,22.33,42.86S162.31,193,149.79,193"/></g></svg>