<svg id="Layer_1" data-name="Layer 1" xmlns="http://www.w3.org/2000/svg" viewBox="0 0 300 300"><path d="M169.72478,18.56844l-5.46013,25.71748a106.572,106.572,0,1,1-126.412,82.09565l-10.27407-2.1862a117.11313,117.11313,0,0,0,90.18352,138.883h0L114.499,278.50027A132.8669,132.8669,0,1,0,169.72478,18.56844Z" fill="#ee151f"/><path d="M155.53062,85.41452a64.52747,64.52747,0,0,1,49.70109,76.54936l15.42187,3.27391h0a80.32233,80.32233,0,0,1-95.23439,61.85982l-2.20775,10.2633A90.81589,90.81589,0,1,0,53.27452,129.66625l25.696,5.44935A64.549,64.549,0,0,1,155.53062,85.41452Z" fill="#ee151f"/><path d="M162.85386,180.68122l5.83705,8.75558a48.78394,48.78394,0,1,0-36.72389,6.80631l2.197-10.28484h0l3.27392-15.41111a22.49826,22.49826,0,0,1,9.3479-44.01481l3.28469-15.4111h0a38.25922,38.25922,0,0,1,12.78336,69.56Z" fill="#ee151f"/></svg>