<svg id="Layer_1" data-name="Layer 1" xmlns="http://www.w3.org/2000/svg" viewBox="0 0 300 300"><defs><style>.cls-1{fill:#fff;}</style></defs><title>WAT_Dark_bg</title><g id="Waters"><path class="cls-1" d="M50,124.84h5.3l13.83,40.69,14.8-42.69L99.26,165.2l13.4-40.36h5.2l-18.6,52.32L83.93,134.54,69.16,177.16Z"/><path class="cls-1" d="M140.78,170.16c-2.16,4.57-6.36,7-11.79,7-9.6,0-16.1-6.63-16.1-16.56s6.6-16.77,15.6-16.77c5.66,0,9.93,2.27,12.26,6.77v-5.67h4.67V175.8h-4.64Zm-11.33,3c6.74,0,11.33-4.7,11.33-13.26,0-7.7-4.49-12.2-11.33-12.2s-11.33,4.8-11.33,13S122.19,173.16,129.45,173.16Z"/><path class="cls-1" d="M150.38,148.57v-3.64h6.2V132.24h4.57v12.69h6.76v3.64h-6.76V175.8h-4.57V148.57Z"/><path class="cls-1" d="M174.75,160.46c.16,8.07,4.8,12.84,11.46,12.84,5,0,8.63-2.54,11.17-7.4l4.26,2.13c-3.4,6.3-8.23,9.13-15.43,9.13-9.9,0-16.5-6.76-16.5-16.46,0-10.27,6.84-16.9,16.37-16.9,9.06,0,15.36,6,15.36,15.6v1.06Zm10.69-12.59c-5.43,0-9.86,3.5-10.39,8.9h20.89c-.43-5.67-4.33-8.87-10.53-8.87Z"/><path class="cls-1" d="M222,143.8a13.48,13.48,0,0,1,4,.63l-1.46,4.07a10.49,10.49,0,0,0-3.2-.5c-5.2,0-10.17,5-10.17,12.6v15.2h-4.66V144.93h4.66v6.2C214.51,146,217.31,143.8,222,143.8Z"/><path class="cls-1" d="M230.44,168a8.26,8.26,0,0,0,8.3,5.2c4,0,6.49-2.06,6.49-5,0-4.27-4.1-4.83-9.46-6.9s-8.13-4.6-8.13-8.53c0-5.2,4.36-9,10.86-9,5.43,0,9.4,2.2,11.17,6.3l-4.27,2.2c-1.07-2.93-3.63-4.5-7.2-4.5-3.26,0-5.6,2-5.6,4.57,0,3.06,2.74,4.26,8,5.9,6.07,1.86,9.4,3.86,9.4,9.63,0,5.5-4.5,9.33-12.2,9.33-5.8,0-10.06-2.63-11.8-6.83Z"/></g></svg>