<svg id="Layer_1" data-name="Layer 1" xmlns="http://www.w3.org/2000/svg" viewBox="0 0 300 300"><defs><style>.cls-1{fill:#43beac;}.cls-2{fill:#56aee1;}.cls-3{fill:#8fadda;}.cls-4{fill:#8fc73e;}</style></defs><title>WBA_Light_bg</title><path class="cls-1" d="M213.49,164c.25-4.66.38-9.37.38-14s-.13-9.32-.38-14c4.77.24,9.48.51,14,.8.29,4.4.43,8.84.43,13.19s-.14,8.78-.43,13.18c-4.54.3-9.24.57-14,.81M200.87,221.3c1.47-4.33,2.82-8.89,4-13.57a219.25,219.25,0,0,1-21.58,4c-.48,4.68-1,9.29-1.61,13.74a182,182,0,0,0,19.18-4.14M176.2,246.53c1.11-5.85,2.13-12.09,3-18.59-4.62.67-9.35,1.19-14.09,1.54-.45,6.87-1,13.45-1.55,19.59a101.84,101.84,0,0,0,12.6-2.54M86.13,150c0-4.63.13-9.32.38-14-4.77.24-9.48.51-14,.8-.29,4.4-.43,8.84-.43,13.19s.14,8.78.43,13.18c4.54.3,9.25.57,14,.81-.25-4.66-.38-9.37-.38-14m79,34.06c.13-5.42.24-11,.31-16.55-5.15.05-10.32.08-15.39.08s-10.24,0-15.39-.08c.07,5.57.17,11.13.31,16.55,5,.11,10.07.17,15.08.17s10.07-.06,15.08-.17m16.31-93.89c-5-.63-10.07-1.11-15.2-1.44.39,8.11.7,16.57.93,25.17,5.44.14,10.86.35,16.14.62-.46-8.29-1.09-16.47-1.87-24.35M116.7,88.31c.48-4.69,1-9.3,1.61-13.75A181.42,181.42,0,0,0,99.13,78.7c-1.47,4.34-2.81,8.89-4,13.56a218.73,218.73,0,0,1,21.58-4m48.38,27.63c-5-.11-10.09-.16-15.08-.16s-10.06,0-15.08.16c-.14,5.42-.24,11-.31,16.55,5.1-.05,10.27-.08,15.39-.08s10.29,0,15.39.08c-.07-5.57-.18-11.13-.31-16.55M77,202.5a151.79,151.79,0,0,1-15.76-6.45,101,101,0,0,0,9,14.2c3.47,1.76,7.13,3.43,10.92,5-1.52-4.12-2.91-8.39-4.13-12.72M229.81,89.75c-3.47-1.76-7.13-3.43-10.92-5,1.52,4.12,2.91,8.39,4.13,12.72A151.79,151.79,0,0,1,238.78,104a101,101,0,0,0-9-14.2"/><path class="cls-2" d="M227.93,179.24c.68-4.63,1.2-9.36,1.54-14.08,6.86-.46,13.45-1,19.6-1.56a97.48,97.48,0,0,1-2.55,12.59c-5.83,1.12-12.08,2.14-18.59,3.05m-6.63,21.63a184.51,184.51,0,0,0,4.14-19.18c-4.45.59-9.07,1.13-13.75,1.61-1,7.4-2.31,14.64-3.95,21.58,4.67-1.19,9.23-2.54,13.56-4m-39.91,9c.78-7.88,1.41-16.07,1.87-24.35-5.3.27-10.71.48-16.14.62-.23,8.6-.54,17.05-.93,25.17,5.13-.32,10.23-.81,15.2-1.44M113.9,167.12c-8.64-.22-17.09-.54-25.16-.92.32,5.12.8,10.22,1.43,15.18,7.88.79,16.06,1.42,24.35,1.88-.27-5.29-.48-10.71-.62-16.14m20.95,62.36c-4.74-.35-9.47-.87-14.09-1.54.9,6.5,1.93,12.74,3,18.59a101.84,101.84,0,0,0,12.6,2.54c-.58-6.14-1.1-12.72-1.55-19.59M221.3,99.13c-4.34-1.47-8.9-2.82-13.56-4,1.64,6.94,3,14.18,3.95,21.58,4.68.48,9.3,1,13.75,1.61a184.51,184.51,0,0,0-4.14-19.18M176.2,53.48a100.27,100.27,0,0,0-12.59-2.55c.57,6.14,1.09,12.72,1.54,19.6,4.74.35,9.46.86,14.09,1.53-.9-6.5-1.93-12.74-3-18.58M70.52,134.84c.35-4.72.87-9.45,1.55-14.08-6.5.91-12.74,1.93-18.59,3a97.48,97.48,0,0,0-2.55,12.59c6.15-.57,12.73-1.1,19.59-1.56m43.38-2c.14-5.43.35-10.85.62-16.14-8.28.46-16.46,1.09-24.35,1.87-.62,5-1.11,10.07-1.43,15.2,8.1-.39,16.56-.7,25.16-.93m49.29-60.39c-4.4-.29-8.84-.43-13.19-.43s-8.79.14-13.19.43c-.29,4.54-.56,9.24-.8,14,4.66-.26,9.36-.38,14-.38s9.33.12,14,.38c-.24-4.78-.51-9.48-.8-14M97.51,223c-4.34-1.22-8.61-2.6-12.73-4.14,1.54,3.79,3.21,7.46,5,10.93a101.64,101.64,0,0,0,14.2,9A150.69,150.69,0,0,1,97.51,223M210.25,70.19a101.57,101.57,0,0,0-14.2-9A150.89,150.89,0,0,1,202.5,77c4.33,1.22,8.59,2.6,12.72,4.13-1.54-3.79-3.21-7.45-5-10.92"/><path class="cls-3" d="M92.27,204.88c-4.68-1.19-9.23-2.54-13.57-4a182,182,0,0,1-4.14-19.18c4.45.59,9.07,1.13,13.75,1.61,1,7.4,2.32,14.64,4,21.58M132.41,150c0-5.09,0-10.27.08-15.39-5.53.07-11.09.17-16.55.31-.11,5-.17,10.08-.17,15.08s.06,10.07.17,15.08c5.45.13,11,.24,16.55.31-.05-5.12-.08-10.29-.08-15.39m30.78,77.51c.29-4.54.56-9.25.8-14-4.67.26-9.37.38-14,.38s-9.32-.12-14-.38c.24,4.77.51,9.48.8,14,4.41.29,8.84.43,13.19.43s8.79-.14,13.19-.43m46.64-108.9c-7.89-.78-16.07-1.41-24.35-1.87.27,5.29.48,10.71.62,16.14,8.6.23,17.05.54,25.16.92-.32-5.12-.8-10.22-1.43-15.19m-75-48.09c.46-6.87,1-13.45,1.56-19.59a99.52,99.52,0,0,0-12.59,2.54c-1.12,5.85-2.14,12.09-3,18.59,4.63-.67,9.36-1.19,14.08-1.54m95,139.73a102.06,102.06,0,0,0,9-14.19A152.69,152.69,0,0,1,223,202.49c-1.22,4.35-2.61,8.61-4.13,12.72,3.79-1.53,7.45-3.2,10.92-5M77,97.5c1.22-4.33,2.6-8.6,4.14-12.72-3.8,1.54-7.47,3.21-10.93,5a100.32,100.32,0,0,0-9,14.19A152.7,152.7,0,0,1,77,97.5"/><path class="cls-4" d="M185.48,183.26c.27-5.29.48-10.71.62-16.14,8.64-.23,17.09-.54,25.16-.93-.32,5.13-.8,10.23-1.43,15.19-7.88.79-16.06,1.42-24.35,1.88m-1.42-18.18c.11-5,.17-10.08.17-15.08s-.06-10.07-.17-15.08c-5.46-.14-11-.24-16.55-.31.05,5.12.08,10.3.08,15.39s0,10.27-.08,15.39c5.55-.07,11.1-.18,16.55-.31m-113.54.08c-6.85-.46-13.44-1-19.59-1.56a101.32,101.32,0,0,0,2.54,12.59c5.85,1.12,12.09,2.14,18.59,3.05-.67-4.63-1.19-9.36-1.54-14.08M116.7,211.7c-7.39-1-14.64-2.32-21.58-4,1.19,4.67,2.54,9.22,4,13.56a184.51,184.51,0,0,0,19.18,4.14c-.59-4.45-1.13-9.06-1.61-13.74m16.18-25.6c-5.43-.14-10.85-.35-16.14-.63.46,8.3,1.09,16.48,1.87,24.36,5,.63,10.07,1.11,15.19,1.44-.38-8.12-.7-16.57-.92-25.17m113.64-62.29c-5.85-1.12-12.09-2.15-18.58-3,.67,4.63,1.19,9.36,1.53,14.08,6.87.46,13.45,1,19.6,1.56a97.48,97.48,0,0,0-2.55-12.59M200.87,78.7a181.42,181.42,0,0,0-19.18-4.14c.59,4.45,1.13,9.06,1.61,13.75,7.4,1,14.65,2.31,21.58,4-1.19-4.67-2.54-9.23-4-13.56m-112.56,38c1-7.4,2.32-14.64,4-21.58-4.68,1.19-9.23,2.54-13.57,4a184,184,0,0,0-4.14,19.18c4.45-.59,9.07-1.13,13.75-1.61m44.57-2.8c.22-8.6.54-17.06.92-25.16-5.12.32-10.22.8-15.19,1.43-.78,7.88-1.41,16.06-1.87,24.35,5.28-.27,10.7-.48,16.14-.62m77.36,115.91c1.77-3.47,3.44-7.13,5-10.92-4.11,1.53-8.38,2.91-12.72,4.13a149.62,149.62,0,0,1-6.44,15.76,98.55,98.55,0,0,0,14.19-9M97.51,77A149.62,149.62,0,0,1,104,61.22a100,100,0,0,0-14.19,9c-1.77,3.47-3.44,7.13-5,10.92C88.9,79.58,93.17,78.2,97.51,77"/></svg>