<svg xmlns="http://www.w3.org/2000/svg" xmlns:xlink="http://www.w3.org/1999/xlink" viewBox="0 0 300 300"><defs><linearGradient id="linear-gradient" x1="41.02057" y1="16148.98892" x2="259.17723" y2="16148.98892" gradientTransform="matrix(1, 0, 0, -1, 0, 16298)" gradientUnits="userSpaceOnUse"><stop offset="0" stop-color="#4047ff"/><stop offset="1" stop-color="#04006c"/></linearGradient></defs><g id="WBD_Logo" data-name="WBD Logo"><path d="M259.17723,107.97073c-1.58229,11.27374-6.92247,48.45729-34.21677,84.84969C197.27059,230.39953,161.076,248.59573,150,254.13371c-10.87817-5.538-47.27058-23.73418-74.96045-61.31329-27.09653-36.19462-32.43672-73.37817-34.019-84.84969l16.41614-8.90031V86.80776l16.41614-8.90032V65.64478C96.40032,54.76661,121.32121,47.84415,150,43.88845c28.67879,3.75791,53.59969,10.87816,76.14715,21.75633V77.90744l16.41614,8.90032V99.07042Z" fill="url(#linear-gradient)"/><path d="M257.39716,90.36789V78.10523L240.981,69.20491V56.3489l-8.307-3.9557c-23.932-11.27373-50.23735-18.78956-80.69621-22.943L150,29.25238l-1.97785.19778C117.76108,33.60364,91.25791,41.11947,67.52374,52.591l-8.307,3.95569v12.856L42.80063,78.10523V90.36789L25,99.86156l1.38449,10.087c4.74684,34.019,17.20728,64.87342,36.98577,91.57437,19.97627,27.09652,46.875,49.24842,80.10285,65.86234L150,270.74762l6.5269-3.36233c33.22785-16.61393,60.12658-38.76582,80.10285-65.86235,19.77848-26.701,32.23893-57.55538,36.98575-91.57437L275,99.86154Zm1.78007,17.60284c-1.58229,11.27374-6.92247,48.45729-34.21677,84.84969C197.27059,230.39953,161.076,248.59573,150,254.13371c-10.87817-5.538-47.27058-23.73418-74.96045-61.31329-27.09653-36.19462-32.43672-73.37817-34.019-84.84969l16.41614-8.90031V86.80776l16.41614-8.90032V65.64478C96.40032,54.76661,121.32121,47.84415,150,43.88845c28.67879,3.75791,53.59969,10.87816,76.14715,21.75633V77.90744l16.41614,8.90032V99.07042Z" fill="#ffc000"/><path d="M125.67248,73.55618l.79114,99.88133-.79114.39557c-10.4826-26.701-16.81171-59.9288-18.78956-93.35444a149.19854,149.19854,0,0,0-16.41614,8.70253c2.37342,30.26108,7.51582,56.76425,16.81171,82.0807l-5.34019,2.96677c-14.04273-19.5807-23.14083-43.31488-29.27215-71.59811-4.35127,3.9557-8.50475,8.307-12.856,13.0538,8.10918,33.82121,21.163,59.53323,39.95254,80.30063l14.43829-8.70254a164.67871,164.67871,0,0,0,28.08544,41.13923V70.5894A122.04524,122.04524,0,0,0,125.67248,73.55618Z" fill="#ffc000"/><path d="M219.02691,125.178c5.93354-6.52689,7.12025-11.27373,7.12025-17.00949,0-8.10917-6.72469-15.42721-16.61393-21.75633-5.93355-3.75791-15.03165-8.307-28.28324-12.06487a104.20749,104.20749,0,0,0-23.73418-3.56013V228.81726c33.22784-17.00949,72.587-63.88448,72.78481-87.81646C230.69621,133.68276,226.9383,128.93593,219.02691,125.178ZM174.12976,89.57675c8.10917,0,34.61234,8.307,34.61234,18.98734,0,3.75791-3.36234,9.29588-13.84494,14.83386l-20.7674,11.07594Zm20.56962,87.61868c-4.74684,5.34018-12.26265,13.64715-20.56962,19.97626V151.879s30.06328-16.8117,31.05221-17.60285c8.90031,2.37342,8.50475,8.90032,8.50475,9.49367C213.68672,152.07675,205.182,164.93276,194.69938,177.19543Z" fill="#ffc000"/></g></svg>