<svg id="Layer_1" data-name="Layer 1" xmlns="http://www.w3.org/2000/svg" viewBox="0 0 300 300"><defs><style>.cls-1{fill:#fff;}</style></defs><title>WELL_Dark_bg</title><g id="g96"><g id="g102"><path id="path104" class="cls-1" d="M190.91,114.3c3.88,0,6,2.78,6.27,6.39H184.57c.34-3.37,2.2-6.39,6.34-6.39m7,15.63c-.4.75-1.87,3.83-6.58,3.83-3.78,0-6.47-2.95-6.73-7.08h21.26V124c0-7.89-4.72-15.92-14.92-15.92-9.17,0-15,6.88-15,15.92S181.63,140,191.27,140c8.45,0,11.68-5,12.45-6.68Zm-84.2-15.63c3.88,0,5.95,2.78,6.27,6.39H107.34c.34-3.37,2.2-6.39,6.34-6.39m7,15.63c-.4.75-1.87,3.83-6.58,3.83-3.79,0-6.47-2.95-6.73-7.08H128.6V124c0-7.89-4.72-15.92-14.92-15.92-9.17,0-15,6.88-15,15.92S104.4,140,114,140c8.45,0,11.68-5,12.45-6.68ZM92.87,95.85,85,126.65l-7.86-30.8H66.33l-8.08,31.68L50.16,95.85H41l11.17,43.22H63.65l7.81-30.63,7.82,30.63H90.12l11.17-43.22ZM150,117.46l5.54-3.74c-.72-1.21-3.67-5.6-12.29-5.6-6.45,0-11.8,3.31-11.8,9.16,0,5.46,4,8.06,8.32,9.4,1.31.4,2.59.78,3.76,1.15,2.33.74,4.14,1.39,4.14,3.19,0,1.61-1.79,2.75-4.91,2.75a7.46,7.46,0,0,1-6.58-3.49l-5.81,3.27c.56,1.4,3.7,6.42,12.92,6.42,7,0,13-3,13-9.55,0-5.49-3.92-8.06-8.54-9.47l-3.37-1c-2.1-.63-4.31-1.21-4.31-3.2,0-1.46,1.39-2.39,3.95-2.39a6.43,6.43,0,0,1,6,3.14m77.91-9.34c-7.82,0-9.65,4.39-10.25,5.78h-.12V109h-7.77v30.05h8.67V124.16c0-6.48,4.31-9.13,9.47-9.13Zm11.55.9h-8.6v30.05h8.67V121c0-3.61,1.92-6,5.35-6,3.88,0,5.43,2.86,5.43,6v18.08H259V119c0-6.2-3.46-10.85-10.77-10.85-6,0-8,3.55-8.62,4.55h-.13Zm-79.57-7.55h8.61V109h6.77v6h-6.77v14.68c0,2.59,1.56,4.39,4.17,4.39a12.33,12.33,0,0,0,2.42-.19v5.19a19.84,19.84,0,0,1-6,.9c-7,0-9.24-4.48-9.24-10.18V101.47"/></g></g><g id="g106"><path id="path108" class="cls-1" d="M139.63,147.82a4.89,4.89,0,1,0,4.89,4.89,4.89,4.89,0,0,0-4.89-4.89m-4.49,14h9v30.34h-9Zm-44.23-14a4.89,4.89,0,1,0,4.88,4.89,4.89,4.89,0,0,0-4.88-4.89m-4.49,14h9v30.34h-9Zm89.4,20.89c0,2.53,1.88,4.09,4.42,4.09,3.79,0,5.35-3.14,5.36-6.71v-1.84h-3.45c-4.58,0-6.33,1.91-6.33,4.46m-7.88-16.41c.84-1.07,3.87-5.39,11.92-5.39,7.53,0,14.46,3.35,14.46,12v19.23h-8.48v-3h-.11c-.46.61-2.56,3.94-8.7,3.94-5.68,0-9.92-3.91-9.92-9.84,0-7,5.78-10.23,14.63-10.23h3.86v-.68c0-3.28-2.45-5.16-6.37-5.16a7.51,7.51,0,0,0-6.23,3Zm-53.23,18.72c-5,0-5.87-4.86-5.87-8.79,0-4.47,1.25-8.79,5.87-8.79s5.86,4.32,5.86,8.79c0,3.93-1,8.79-5.86,8.79m5.86-23.2v3.26h-.12c-.52-.94-2.68-4.17-8.32-4.17-9.29,0-12.67,7.58-12.67,15.32s3.39,15.32,12.67,15.32c5.75,0,7.88-3.36,8.32-4.17h.12v3.47a6.4,6.4,0,0,1-6.43,6.78A7.64,7.64,0,0,1,107.5,194c-.78.4-5.86,3.44-5.86,3.44.63,1.28,3.23,6.74,12.78,6.74,10,0,14.84-6.41,14.84-15.39V161.85ZM217.89,189a.68.68,0,1,0,0-1.34h-.67V189Zm-.67.62v1.85h-.75v-4.42h1.38c.89,0,1.59.35,1.59,1.22a1,1,0,0,1-.84,1v0a.85.85,0,0,1,.7.87c.06.46.15,1.28.15,1.28h-.74l-.09-.79c-.1-.79-.35-1.06-.93-1.06Zm3.79-.31a3.11,3.11,0,1,0-3.1,3.11,3.1,3.1,0,0,0,3.1-3.11m-6.87,0a3.77,3.77,0,1,1,3.77,3.77,3.76,3.76,0,0,1-3.77-3.77M200.3,148.55h9v43.63h-9ZM54.23,184.93h5c11.36,0,13-7.61,13-14.56s-1.75-14.57-13-14.57h-5Zm-9.38-36.38H59.74c13.57,0,22.08,6.65,22.08,21.82s-8.21,21.81-22.08,21.81H44.85Zm104.91,5.68h8.69v7.62h6.84v6h-6.84V182.7c0,2.62,1.58,4.44,4.21,4.44a12.18,12.18,0,0,0,2.45-.2v5.24a19.71,19.71,0,0,1-6,.91c-7.08,0-9.33-4.53-9.33-10.27V154.23"/></g></svg>