<svg id="Layer_1" data-name="Layer 1" xmlns="http://www.w3.org/2000/svg" viewBox="0 0 300 300"><polygon points="60 61.978 109.67 61.978 109.67 140.879 60 190.549 60 61.978" fill="#fff"/><path d="M60,196.26373v23.956L169.89011,110.989s5.4945-3.956,5.27473-13.40659V62.19781H122.63736v63.51648a17.44714,17.44714,0,0,1-3.2967,11.20879Z" fill="#fff"/><polygon points="110.549 238.022 240 238.022 240 188.132 160 188.132 110.549 238.022" fill="#fff"/><path d="M104.83516,238.022h-23.956L190.32967,127.91209s3.956-5.49451,13.40659-5.27472H240v52.52747H173.84615a15.415,15.415,0,0,0-9.23077,3.2967Z" fill="#fff"/><path d="M74.06593,238.022H60V226.59341L181.75824,106.37363s4.17583-2.85714,4.17583-11.42857V61.978H240v50.10988H207.25274s-6.5934-.21978-9.67033,2.63737Z" fill="#fff"/></svg>