<svg id="Layer_1" data-name="Layer 1" xmlns="http://www.w3.org/2000/svg" viewBox="0 0 300 300"><defs><style>.cls-1{fill:#4898b8;}.cls-2{fill:#fff;}</style></defs><title>WELL_Dark_bg_1</title><path class="cls-1" d="M40,151.68h7.23l4,15.38L56,151.58h6.17L67,167.12l4.15-15.44h7.08l-7.82,25.53H63.93l-4.84-15.54-4.94,15.54H47.76Z"/><path class="cls-1" d="M96.69,162.36c-.43-3.2-2.34-5.39-5.32-5.39s-4.89,2.14-5.48,5.39ZM78.87,164.5v-.11c0-7.21,5.16-13.19,12.5-13.19,8.4,0,12.29,6.57,12.29,13.78,0,.59-.06,1.23-.11,1.87H86a5.82,5.82,0,0,0,6.17,5,8.28,8.28,0,0,0,6.11-2.57l4.1,3.63a12.58,12.58,0,0,1-10.32,4.76c-7.6,0-13.19-5.4-13.19-13.14Z"/><path class="cls-1" d="M107.43,133.74h7.18v43.31h-7.18Z"/><path class="cls-1" d="M120.35,122.36h7.13v54.69h-7.13Z"/><path class="cls-2" d="M134.07,169.84V142.76h7.18v8.07h5.91V157h-5.91v11.69c0,1.66.7,2.46,2.29,2.46a7.16,7.16,0,0,0,3.56-.91V176a10.64,10.64,0,0,1-5.68,1.5c-4.37,0-7.35-1.77-7.35-7.64Z"/><path class="cls-2" d="M169.44,164.5v-.11a6.7,6.7,0,0,0-6.65-7c-4.1,0-6.54,3.2-6.54,6.94v0a6.74,6.74,0,0,0,6.65,7c4.09,0,6.54-3.15,6.54-6.89Zm-20.21,0v-.11c0-7.26,5.8-13.19,13.67-13.19s13.61,5.82,13.61,13.14v0c0,7.32-5.85,13.24-13.72,13.24s-13.56-5.82-13.56-13.13Z"/><path class="cls-2" d="M177.15,151.68h7.23l4.05,15.38,4.78-15.48h6.17l4.79,15.54,4.14-15.44h7.13l-7.87,25.53h-6.49l-4.84-15.54-4.94,15.54h-6.39Z"/><path class="cls-2" d="M233.83,162.36c-.42-3.2-2.28-5.39-5.31-5.39s-4.9,2.14-5.48,5.39ZM216,164.5v-.11c0-7.21,5.16-13.19,12.5-13.19,8.4,0,12.28,6.57,12.28,13.78,0,.59-.05,1.23-.1,1.87H223.15a5.82,5.82,0,0,0,6.17,5,8.29,8.29,0,0,0,6.11-2.57l4.1,3.63a12.59,12.59,0,0,1-10.32,4.76c-7.55,0-13.19-5.4-13.19-13.14Z"/><path class="cls-2" d="M244.79,151.68H252v5.13c1.44-3.52,3.83-5.77,8-5.61v7.53h-.38c-4.72,0-7.65,2.89-7.65,9v9.34h-7.18Z"/></svg>