<svg id="Layer_1" data-name="Layer 1" xmlns="http://www.w3.org/2000/svg" viewBox="0 0 300 300"><path d="M260,63.02732V231.89267H40V63.02732A23.092,23.092,0,0,1,63.02223,40H236.97268A23.093,23.093,0,0,1,260,63.02732Z" fill="#fa1824"/><path d="M260,231.89267v5.08516A23.09194,23.09194,0,0,1,236.97268,260H63.02223A23.09087,23.09087,0,0,1,40,236.97783v-5.08516Z" fill="#ffce2c"/><path d="M91.62156,117.18059c3.77025,13.66476,7.47032,27.00505,11.1903,40.313a.73849.73849,0,0,0,.82036-.6524c.53893-1.93291,1.06151-3.87039,1.5926-5.80551.63252-2.30466,1.27125-4.60764,1.90144-6.91295.58522-2.14083,1.15772-4.28515,1.74508-6.4254.59855-2.18111,1.212-4.35811,1.81224-6.53875.60044-2.18136,1.186-4.36682,1.79026-6.54713.61539-2.2205,1.25481-4.43436,1.86668-6.65581.58929-2.13951,1.15322-4.286,1.73551-6.42743.25639-.9429.53071-1.88092.782-2.76869,1.09645-.3363,13.16348-.35028,14.354-.01811q6.85983,24.42416,13.75322,48.9677c.59682-.08195.71086-.4701.80772-.82343.39493-1.44079.75644-2.89071,1.14735-4.33263.6029-2.22392,1.22221-4.44338,1.83008-6.666q.87822-3.21108,1.7469-6.42474c.59047-2.18418,1.17047-4.3712,1.76419-6.55449.60509-2.22507,1.22143-4.44708,1.83263-6.67049.62238-2.26409,1.25088-4.52653,1.86272-6.79346.17688-.65531.30559-1.32362.44887-1.953-.40681-.49039-.91-.33414-1.3561-.33737-2.18445-.01581-4.36908-.0073-6.55364-.00738-.42476,0-.84953,0-1.232,0-.41171-.911-.5343-6.56834-.22231-8.44356.978-.25707,82.19913-.28875,83.52177-.01428v21.86317c-.89914.37778-3.85643.47969-6.81367.24745a3.54192,3.54192,0,0,1-.7378-1.70218,30.25483,30.25483,0,0,0-2.61238-7.47089,7.72226,7.72226,0,0,0-6.778-4.37935c-5.73534-.24472-11.47785-.062-17.2172-.09665a1.09346,1.09346,0,0,0-.84182.21745c-.25268.97812-.28447,19.0335-.00176,20.39384,2.11857.18118,4.29093.05266,6.45631.07613,2.14147.02322,4.28339.00507,6.42513.00507h6.48034c1.81992,1.58638,1.81978,7.80672.04846,9.7145-3.15331,0-6.40288-.00314-9.65246.00088-3.24234.004-6.48534-.01863-9.66843.01484-.33156,1.05594-.43613,18.96441-.17458,20.92513.39687.5212.98346.41869,1.52766.42061,2.35588.00828,4.71181-.00063,7.06768.00726a2.83769,2.83769,0,0,1,1.374.14075c.362.83962.47154,6.40413.14148,8.27333-2.1667.22114-4.37985.06265-6.58473.09153-2.227.02917-4.45473.00645-6.68213.00645h-6.55368c-2.2274,0-4.45489.01136-6.6822-.00323-2.21622-.01452-4.43576.06578-6.76887-.05579-.19341-2.79849-.0429-5.46946-.09871-7.97276a1.57338,1.57338,0,0,1,1.47332-.4799c1.799-.00964,3.59812-.00019,5.39714-.00667a1.80673,1.80673,0,0,0,1.44127-.34108c.20425-.95653.25865-49.62282.05944-51.10523a.85234.85234,0,0,0-.79374-.32011q-6.10365.003-12.20731.01555a3.3562,3.3562,0,0,0-.5514.12857c-2.914,9.89263-5.70985,19.90554-8.58108,29.89621q-4.31119,15.00117-8.57079,29.98536c-.96257.31173-11.34883.42466-13.67159.15562-.725-.90705-.75256-2.114-1.08027-3.194-.84265-2.77709-1.57119-5.58876-2.34878-8.38566q-.90843-3.26753-1.82588-6.53254c-.61316-2.17754-1.23778-4.35188-1.85034-6.52958-.57762-2.05353-1.1447-4.11-1.71894-6.1645-.62051-2.22-1.24747-4.43824-1.8651-6.65907-.59441-2.1373-1.18-4.27705-1.7704-6.41546-.3866-1.40014-.76374-2.80306-1.17031-4.19739a1.55462,1.55462,0,0,0-.69882-1.06292c-1.69138,5.44371-3.15245,10.90261-4.75513,16.318-1.60987,5.43975-3.12139,10.90857-4.68594,16.3618q-2.3478,8.18325-4.7054,16.32846a115.08456,115.08456,0,0,1-13.62877.132,1.76662,1.76662,0,0,1-.5418-.98221c-.75623-2.66734-1.47351-5.3458-2.23734-8.01092-.92908-3.2417-1.901-6.47111-2.837-9.71085-.77048-2.6669-1.509-5.343-2.274-8.01149-.588-2.05132-1.19943-4.09594-1.7927-6.14578q-.88956-3.07355-1.76362-6.15154c-.59715-2.09217-1.18627-4.18664-1.78668-6.27787-.60033-2.09086-1.21566-4.17742-1.81467-6.26865-.75188-2.625-1.491-5.25367-2.24579-7.87783a4.5291,4.5291,0,0,0-.37277-.70186c-2.44986-.12467-4.963.01265-7.428-.072a36.02237,36.02237,0,0,1-.09907-8.53668h31.65354a32.447,32.447,0,0,1-.01741,8.48615c-1.39446.1586-2.843.04726-4.285.07146C94.824,117.16744,93.38063,117.123,91.62156,117.18059Z" fill="#fdfbfb"/></svg>