<svg id="Layer_1" data-name="Layer 1" xmlns="http://www.w3.org/2000/svg" viewBox="0 0 300 300"><defs><style>.cls-1{fill:#fff;}.cls-2{fill:#edac09;}</style></defs><title>WHR_Dark_bg</title><path id="path14" class="cls-1" d="M190.71,176a9.68,9.68,0,0,1-1.85.23c-2.29,0-3.59-1-3.59-3.59s1.73-3.69,3.89-3.69a4.81,4.81,0,0,1,1.46.22v1.29a7.06,7.06,0,0,0-1.49-.19c-1.25,0-2.25.19-2.25,2.32s1,2.33,2.17,2.33a8,8,0,0,0,1.66-.23V176"/><path id="path16" class="cls-1" d="M197.15,172.53c0-1.89-.61-2.47-1.62-2.47s-1.64.68-1.67,2.47.62,2.47,1.64,2.47S197.15,174.41,197.15,172.53Zm-4.9,0c0-2.7,1.3-3.64,3.27-3.64s3.25,1,3.25,3.64-1.29,3.64-3.27,3.64-3.25-1-3.25-3.64"/><path id="path18" class="cls-1" d="M202.73,172.41c.75,0,1.42-.23,1.42-1.13s-.53-1-1.4-1h-.49v2.17Zm-2-3.41h2c2.17,0,3.06.58,3.06,2.22a1.76,1.76,0,0,1-1.5,1.94v.12l.22,0c.74.27,1.17,1.68,1.63,2.56v.2h-1.7c-.33-1-.69-2.38-1.4-2.58h-.74v2.58h-1.53V169"/><path id="path20" class="cls-1" d="M209.43,172.56H210c.89,0,1.34-.29,1.34-1.17s-.45-1.14-1.27-1.14h-.63ZM207.9,169h1.93c2.09,0,3.1.48,3.1,2.29s-1.2,2.34-2.73,2.34h-.77v2.45H207.9V169"/><path id="path22" class="cls-1" d="M219.16,172.53c0-1.89-.62-2.47-1.62-2.47s-1.65.68-1.68,2.47.62,2.47,1.65,2.47,1.65-.59,1.65-2.47Zm-4.91,0c0-2.7,1.31-3.64,3.27-3.64s3.25,1,3.25,3.64-1.29,3.64-3.26,3.64-3.26-1-3.26-3.64"/><path id="path24" class="cls-1" d="M224.73,172.41c.76,0,1.42-.23,1.42-1.13s-.52-1-1.4-1h-.49v2.17Zm-2-3.41h2c2.17,0,3.07.58,3.07,2.22a1.76,1.76,0,0,1-1.5,1.94v.12l.21,0c.74.27,1.17,1.68,1.63,2.56v.2h-1.69c-.34-1-.69-2.38-1.4-2.58h-.75v2.58h-1.53V169"/><path id="path26" class="cls-1" d="M233.41,173.47,232.7,171l-.08-.4h-.1l-.08.4-.74,2.44Zm-4.1,2.44,2.52-7h1.5l2.65,7v.17h-1.69l-.59-1.59h-2.22l-.52,1.59h-1.65v-.17"/><path id="path28" class="cls-1" d="M238.59,170.22l-2,.05V169h5.51v1.27l-2-.05v5.86h-1.53v-5.86"/><path id="path30" class="cls-1" d="M243.74,176.08V169h1.53v7.08h-1.53"/><path id="path32" class="cls-1" d="M252,172.53c0-1.89-.62-2.47-1.62-2.47s-1.64.68-1.67,2.47.61,2.47,1.64,2.47S252,174.41,252,172.53Zm-4.91,0c0-2.7,1.31-3.64,3.28-3.64s3.24,1,3.24,3.64-1.29,3.64-3.26,3.64-3.26-1-3.26-3.64"/><path id="path34" class="cls-1" d="M255.56,169h1.34l2.61,3.72.37.61H260V169h1.53v7.08h-1.31l-2.68-3.87-.31-.51h-.11v4.38h-1.53V169"/><path id="path36" class="cls-1" d="M91.09,120.91l-11.47,41.9H73l-8.11-30.44-8.22,30.44H50L38.5,120.91h6.6l8.17,30.43,8.22-30.43H68l8.29,30.43,8.16-30.43h6.61"/><path id="path38" class="cls-1" d="M94.14,121l6.61-.54v10.26l-.12,3.84h.24a22.91,22.91,0,0,1,8.52-1.68c5.35,0,9,2.4,9,11.59v18.31h-6.61V145c0-5.53-2.7-6.25-5.76-6.25a18.29,18.29,0,0,0-5.22.91v23.11H94.14V121"/><path id="path40" class="cls-1" d="M124.1,133.33h6.6v29.48h-6.6Zm3.3-11.88c3.42,0,4,2,4,4.2s-.72,4.26-4,4.26-3.9-2-3.9-4.26.6-4.2,3.9-4.2"/><path id="path42" class="cls-1" d="M136.28,133.33h4.51l.9,2.4h.42a12.33,12.33,0,0,1,8.1-2.82,11.09,11.09,0,0,1,1.38.06v6.48a26.64,26.64,0,0,0-3.72-.36,11.34,11.34,0,0,0-5,1.21v22.51h-6.61V133.33"/><path id="path44" class="cls-1" d="M154.41,162.81V121l6.6-.54v42.32h-6.6"/><path id="path46" class="cls-1" d="M214.2,148.22c0-5.58-.9-10.15-6.19-10.15s-6.66,4.39-6.66,10.15c0,5.34,1.08,10,6.37,10S214.2,153.8,214.2,148.22ZM208,132.91c9.37,0,13,5.52,13,15.31,0,9.18-3.36,15.19-13.09,15.19s-13.14-6-13.14-15.19c0-9.79,3.9-15.31,13.26-15.31"/><path id="path48" class="cls-1" d="M243.81,148.22c0-5.58-.9-10.15-6.19-10.15S231,142.46,231,148.22c0,5.34,1.08,10,6.36,10S243.81,153.8,243.81,148.22Zm-6.25-15.31c9.37,0,13,5.52,13,15.31,0,9.18-3.36,15.19-13.09,15.19s-13.14-6-13.14-15.19c0-9.79,3.9-15.31,13.26-15.31"/><path id="path50" class="cls-1" d="M254.81,162.81V121l6.6-.54v42.32h-6.6"/><path id="path52" class="cls-1" d="M173,157.34c1.86.06,2.88.12,4.8.12,4.08,0,6.79-2.16,6.79-10.74,0-5.89-2.41-7.44-6.73-7.44a14.79,14.79,0,0,0-4.86.84Zm-6.6-24h5l.54,2.16a20.7,20.7,0,0,1,8.94-2.58c6,0,10.39,4.38,10.39,14.89,0,10.32-4.62,15.43-12.31,15.43a36.62,36.62,0,0,1-5.94-.6v13.5l-6.6.72V133.33"/><path id="path54" class="cls-2" d="M199.11,115.22c-4.94-5.72-20.61-.69-38.1,11.41v3.05c15.4-11,29-16,32.87-11.49,4.85,5.62-7.22,24-27,41.07s-39.71,26.29-44.57,20.67c-2.52-2.93-.46-9.29,4.86-17.12H124.1c-6.59,9.82-9.06,18.07-5.68,22,6.17,7.14,29.23-2.63,51.5-21.85s35.35-40.59,29.19-47.73"/></svg>