<svg id="Layer_1" data-name="Layer 1" xmlns="http://www.w3.org/2000/svg" viewBox="0 0 300 300"><defs><style>.cls-1{fill:#00693f;}.cls-1,.cls-2{fill-rule:evenodd;}.cls-2{fill:#eeb210;}</style></defs><title>WM</title><polygon class="cls-1" points="58.33 124.21 79.36 124.21 86.19 156.38 86.37 156.38 95.9 124.21 120.16 124.21 129.51 156.38 129.87 156.38 136.52 124.21 156.11 124.21 143.89 175.61 116.57 175.61 107.4 144.34 107.22 144.34 97.88 175.61 70.38 175.61 58.33 124.21 58.33 124.21"/><polygon class="cls-2" points="155.93 124.21 183.43 124.21 192.78 155.48 192.96 155.48 202.12 124.21 229.44 124.21 241.67 175.79 222.07 175.79 215.43 143.62 215.07 143.62 205.72 175.79 181.45 175.79 171.93 143.62 171.75 143.62 164.92 175.79 143.89 175.79 155.93 124.21 155.93 124.21"/></svg>