<svg id="Layer_1" data-name="Layer 1" xmlns="http://www.w3.org/2000/svg" viewBox="0 0 300 300"><path d="M256.08361,136.69908c1.77879,0,3.338,1.05281,4.94115,3.3143l.74669,1.05281,1.05408-.768,6.54429-4.76244.96626-.70228-.63685-1.00922c-2.4596-3.92879-7.09331-6.16758-12.73718-6.16758-6.32468,0-13.94507,3.64334-15.72386,11.6317-1.88859,8.51566,4.83138,11.17128,9.75054,13.12463,3.53571,1.40515,5.18274,2.19461,4.87527,3.555-.41723,1.84407-2.41567,3.13874-4.89721,3.13874-2.67917,0-4.65566-1.44814-6.21488-4.54328l-.63684-1.27258-1.18587.76856-6.80783,4.345-.94432.5924.46117,1.00981c2.41567,5.33334,7.04938,8.14243,13.396,8.14243,9.06976,0,15.4823-4.477,17.12934-11.98284,1.99843-8.97668-5.11683-11.698-9.83836-13.49786-3.44785-1.31676-5.029-2.08472-4.74356-3.40149.37334-1.71209,1.88863-2.56783,4.502-2.56783Z" fill="#fff"/><path d="M234.91352,130.4664a8.12671,8.12671,0,0,0-6.54429-2.83179,21.15373,21.15373,0,0,0-13.22029,4.54328c-1.44941-2.85328-4.502-4.54328-8.411-4.54328a16.53831,16.53831,0,0,0-10.058,2.94107l.1537-.72377.3514-1.55862H186.6l-.21961,1.00982L178.255,165.9324l-.35134,1.55862H189.3012l.21961-1.00982,5.73176-25.85333c2.7231-2.04173,5.51211-3.38,7.0274-3.40209a2.88693,2.88693,0,0,1,1.9984.65808,3.25851,3.25851,0,0,1,.10984,2.48006l-5.66585,25.56848-.3514,1.55862h11.35365l.2196-1.00982,5.73173-25.85333c2.72314-2.04173,5.51219-3.38,7.02744-3.40209a2.88706,2.88706,0,0,1,1.99843.65808,3.259,3.259,0,0,1,.10984,2.48006l-5.66588,25.52429-.3514,1.55862h11.35368l.21961-1.00982,5.84157-26.31435c.92233-4.148.50509-7.41806-1.29571-9.65626Z" fill="#fff"/><path d="M177.38925,131.44745c-1.95634-2.47109-5.4056-3.669-10.933-3.81592-5.6994-.1469-12.81768,3.00855-16.169,7.19114l-.73332.9292.88023.80737,4.67226,4.28052.9292.85635.85635-.90531c1.93244-2.03039,4.37846-4.10854,8.09645-4.10854a3.80187,3.80187,0,0,1,2.88672.9292,2.10021,2.10021,0,0,1,.24365,1.85839l-.4646,2.20237c-14.92092,1.88229-22.45364,6.60352-24.3622,15.21354a9.3837,9.3837,0,0,0,1.49173,8.12153c1.15015,1.41768,3.37641,3.13037,7.53391,3.13037a22.33387,22.33387,0,0,0,10.86136-2.88673l-.02508.88143-.07286,1.34483H174.3807l-.17079-1.44277a14.68607,14.68607,0,0,1,.44071-4.84425l3.81592-17.195C179.78629,138.051,179.44471,134.06426,177.38925,131.44745Zm-12.89054,24.31324c-2.495,1.71269-5.74718,3.35132-7.75368,3.35132a2.34811,2.34811,0,0,1-1.78554-.63658,2.6394,2.6394,0,0,1-.24484-2.10324c.85634-3.83981,5.77345-5.13687,11.00706-6.13892Z" fill="#fff"/><polygon points="145.709 124.123 146.741 124.123 146.961 123.136 148.784 114.972 149.135 113.414 137.781 113.414 137.562 114.401 135.739 122.565 135.41 124.123 136.991 124.123 145.709 124.123" fill="#fff"/><polygon points="145.819 128.293 134.487 128.293 134.246 129.303 126.12 165.932 125.791 167.491 137.123 167.491 137.342 166.503 145.468 129.852 145.819 128.293" fill="#fff"/><polygon points="131.852 114.072 120.52 114.072 120.301 115.081 109.013 165.932 108.662 167.491 120.015 167.491 120.235 166.503 131.523 115.63 131.852 114.072" fill="#fff"/><polygon points="114.393 114.072 103.04 114.072 102.82 115.081 91.532 165.932 91.181 167.491 102.535 167.491 102.754 166.503 114.042 115.63 114.393 114.072" fill="#fff"/><polygon points="93.662 124.123 94.695 124.123 94.914 123.136 96.715 114.972 97.066 113.414 85.713 113.414 85.493 114.401 83.692 122.565 83.341 124.123 84.944 124.123 93.662 124.123" fill="#fff"/><polygon points="93.75 128.293 82.419 128.293 82.199 129.303 74.074 165.932 73.722 167.491 85.076 167.491 85.295 166.503 93.421 129.852 93.75 128.293" fill="#fff"/><polygon points="79.696 114.072 69.769 114.072 69.44 114.84 57.34 143.305 58.108 115.388 58.13 114.072 45.986 114.072 45.656 114.84 33.315 143.283 34.303 115.388 34.347 114.072 22.686 114.072 22.664 115.322 22.005 166.196 22.005 167.491 33.995 167.491 34.325 166.722 47.26 136.238 46.733 166.196 46.711 167.491 58.701 167.491 59.031 166.722 80.881 115.849 81.65 114.072 79.696 114.072" fill="#fff"/><path d="M260.45379,104.30492a7.978,7.978,0,0,0-4.76547-5.04789,48.72943,48.72943,0,0,1-7.4886,10.16147c-.41727,3.33639-3.25018,7.65991-8.21327,12.752H252.1746c6.47842-7.221,9.53093-13.388,8.27919-17.86557m-5.029-15.40642c-3.316-15.45062-53.035-6.86986-113.86607,18.87419l2.70116,1.42665c37.15747-14.77044,69.264-23.79011,86.08581-23.10994,20.094.81216,13.48386,15.18726-13.02263,36.08109h12.56146c17.41482-13.717,27.1654-25.72255,25.54027-33.272M115.88669,175.9404c-44.93153,18.39168-81.8035,22.89077-82.35252,10.05159-.15372-3.42359,2.30586-7.725,6.80783-12.53164H33.77573c-9.77249,9.34931-14.82344,17.36036-13.59364,22.89077,3.46978,15.73606,56.48285,5.44262,119.37821-22.89077H121.77215l-5.88546,2.48005" fill="#2e6bad"/><path d="M65.64068,173.43825H60.17247a187.182,187.182,0,0,0-20.643,15.714,15.24581,15.24581,0,0,0,5.55607,1.51442c4.48-5.15777,11.55129-11.0614,20.55518-17.22839m93.39873,0q-15.80309,8.38518-32.30415,15.29714c-40.232,16.87726-74.35882,23.571-84.21919,17.404-8.367.72377-13.5058-.132-16.22892-.922a13.83724,13.83724,0,0,0-.98823,3.2922c-2.74508,17.272,41.74724,12.29039,99.372-11.14918A466.29422,466.29422,0,0,0,174.873,173.43825H159.03941ZM153.04416,121.731l2.65723,1.40454c33.00685-12.99206,62.58792-21.17868,79.21213-21.17868a26.76628,26.76628,0,0,0,2.72313-4.56478c-19.69874,1.42665-50.246,10.0074-84.59251,24.33892" fill="#2e6bad"/><path d="M275.3767,162.97691a1.66048,1.66048,0,0,0,1.66372-1.76166c0-1.24809-.75841-1.80943-2.25014-1.80943h-2.42213v6.38376h.95428v-2.7649h1.12507l1.68761,2.7649h1.0761Zm-2.05427-.78349v-1.95634h1.32094c.68436,0,1.36991.14691,1.36991.9292,0,1.00325-.70944,1.02714-1.5407,1.02714Z" fill="#fff"/><path d="M275.3767,162.97691a1.66048,1.66048,0,0,0,1.66372-1.76166c0-1.24809-.75841-1.80943-2.25014-1.80943h-2.42213v6.38376h.95428v-2.7649h1.12507l1.68761,2.7649h1.0761Zm-2.05427-.78349v-1.95634h1.32094c.68436,0,1.36991.14691,1.36991.9292,0,1.00325-.70944,1.02714-1.5407,1.02714Z" fill="#fff"/><path d="M279.58437,160.50581a5.51773,5.51773,0,0,0-2.98466-3.00855,5.6608,5.6608,0,0,0-2.10324-.41563,5.77284,5.77284,0,0,0-2.15221.39175,5.67979,5.67979,0,0,0-1.81062,1.19792,5.19681,5.19681,0,0,0-1.223,1.78554,5.43079,5.43079,0,0,0,0,4.28053,5.66181,5.66181,0,0,0,3.03363,2.98466,5.81505,5.81505,0,0,0,2.15221.41563,5.22789,5.22789,0,0,0,2.10324-.44071,4.89107,4.89107,0,0,0,1.78554-1.19793,5.23911,5.23911,0,0,0,1.19912-1.78554,5.53241,5.53241,0,0,0,0-4.20767Zm-5.0879,6.67757a4.51431,4.51431,0,0,1-3.25339-1.34483,4.58746,4.58746,0,0,1-.95428-1.49293,4.502,4.502,0,1,1,4.20767,2.83776Z" fill="#fff"/><path d="M275.3767,162.97691a1.66048,1.66048,0,0,0,1.66372-1.76166c0-1.24809-.75841-1.80943-2.25014-1.80943h-2.42213v6.38376h.95428v-2.7649h1.12507l1.68761,2.7649h1.0761Zm-2.05427-.78349v-1.95634h1.32094c.68436,0,1.36991.14691,1.36991.9292,0,1.00325-.70944,1.02714-1.5407,1.02714Z" fill="#fff"/></svg>