<svg id="Layer_1" data-name="Layer 1" xmlns="http://www.w3.org/2000/svg" viewBox="0 0 300 300"><path d="M180.54563,151.83047c2.09534-.44112,4.301-1.10282,6.72718-.6617-3.529,7.60942-3.30845,15.77025-2.9776,23.82083.22056,5.40379.44112,10.69732-.772,15.99083-2.31592,10.587-8.82252,17.09364-20.73294,17.09364-2.09534,0-4.08041.11029-6.17577,0-2.53648-.11029-4.74211.22058-6.286,2.42621-.66169,1.10281-1.2131.55141-1.76451-.11029a6.08609,6.08609,0,0,0-5.62437-2.31592c-4.301.11029-8.71224.33083-12.90294-.6617-7.94027-1.98505-12.02069-7.71971-14.116-15.10859a29.13507,29.13507,0,0,1-1.10282-8.16083c0-5.73465-.11028-11.57956,0-17.31422a35.02154,35.02154,0,0,0-2.20563-13.89548c-.66169-1.54394-.66169-2.20563,1.43366-1.98506s4.08042.99253,6.17577,1.21311c.55141.11028.88226.772,1.65422.5514l1.65423.55141,1.10281.55141h0l3.85986,2.64675c6.61688,4.52155,13.01322,9.48422,19.40955,14.44689.772.55141,1.43367,1.76452,2.86733.6617,6.83746-5.2935,13.67491-10.36646,20.62265-15.54971l.55141-.44112a8.42969,8.42969,0,0,0,2.86733-1.65422l1.87478-.88224Zm-46.75938,27.68068c5.18323-2.20563,7.27859-.772,7.38886,4.63184v.22057c0,3.63928-1.98507,5.62437-5.51408,5.62437-2.86733,0-4.63182-2.20563-4.63182-5.51408V168.0419c-.11029-4.63184-4.08042-8.3814-8.3814-7.83,1.65422,5.40379.772,10.91787.772,16.32166,0,4.63184-.772,9.37393.66168,13.89548s4.41127,8.05054,9.15338,9.26365a11.344,11.344,0,0,0,11.46927-3.63928c4.63183-4.96267,6.06549-15.77025,2.64676-21.50491a7.17593,7.17593,0,0,0-7.71971-3.85985,5.77261,5.77261,0,0,0-5.073,4.301C134.22736,176.53353,134.00681,177.96721,133.78625,179.51115Zm43.23037-19.29928a7.6865,7.6865,0,0,0-8.16083,7.27859V184.6944c0,2.4262-.88226,4.52155-3.41874,5.40379a5.82591,5.82591,0,0,1-6.286-2.20564c-1.10282-1.8748-.772-6.72718.772-8.27111,1.87478-2.09535,3.74956-.99253,5.62436.22057.22056-4.96267-1.65422-8.27112-4.96267-8.82252-4.301-.6617-7.83,1.54393-9.15337,6.39631a22.60587,22.60587,0,0,0,.88225,14.99831c2.31592,5.40379,6.83746,8.27111,12.35154,7.94028,4.63182-.22057,8.93281-3.74956,10.69731-8.82252,1.2131-3.63928.772-7.27859.88225-11.02816C176.46521,173.44566,175.47267,166.71848,177.01662,160.21187Zm-27.12927,46.09769a28.047,28.047,0,0,0,1.76451-3.08787c.88225-2.20563,1.32337-4.301-.44112-6.39632-1.32338-1.54394-2.09535-1.10282-3.08789.22058C146.46863,199.47212,146.90975,202.4497,149.88735,206.30956Zm14.00575-20.62264c.6617.11029.99253-.5514,1.10282-1.2131a1.24625,1.24625,0,0,0-.99253-1.43365h-.44112c-.66169,0-1.2131.22058-1.2131.99253C162.34917,184.69436,162.45946,185.57663,163.8931,185.68692Zm-27.791-2.757a1.24759,1.24759,0,0,0-1.32338,1.21311v.11029a.979.979,0,0,0,.772,1.32339h.33085a1.24626,1.24626,0,0,0,1.43366-.99253V184.143a1.22228,1.22228,0,0,0-1.10281-1.32339C136.21244,182.92988,136.21244,182.92988,136.10215,182.92988Z" fill="#fff"/><path d="M127.831,151.60989c.22056-.33083.44113-.99253.66169-.99253,1.43365-.11029,2.86732-.11029,4.19069-.11029h36.06208c1.10281,0,2.31592-.5514,3.08788.772h0l-3.97014,3.08787c-5.29352,3.97014-10.69731,7.83-15.88054,11.9104-1.65422,1.32339-2.757,1.2131-4.301,0C141.06482,161.425,134.44792,156.57256,127.831,151.60989Z" fill="#fff"/><path d="M207.56461,127.45823a84.971,84.971,0,0,1,12.02069,20.18152A75.00649,75.00649,0,1,1,75.00616,174.9896V52.02564c0-2.09535.55141-2.64675,2.64676-2.64675q10.25619.16542,20.51237,0c1.65423,0,1.98507.44112,1.98507,1.98507-.11028,21.83575-.11028,43.78178,0,65.61755v2.31592c1.76451-.66169,2.757-2.09534,4.08042-2.97761A74.2696,74.2696,0,0,1,139.19,101.54209a78.83589,78.83589,0,0,1,14.44689-.772,74.99594,74.99594,0,0,1,31.54054,8.71224A83.58273,83.58273,0,0,1,204.587,124.03953Zm-57.67726-1.87477c-27.34984-.44112-50.2884,22.60773-50.17812,50.17812a50.57767,50.57767,0,0,0,50.28839,50.06783c27.12927,0,50.17811-22.8283,50.06783-50.50895-.11026-26.79844-23.60024-50.2884-50.1781-49.737Z" fill="#fff"/></svg>