<svg id="Layer_1" data-name="Layer 1" xmlns="http://www.w3.org/2000/svg" viewBox="0 0 300 300"><defs><style>.cls-1{fill:#fff;isolation:isolate;}</style></defs><title>WST_Dark_bg</title><path class="cls-1" d="M221,149.36l-28-1.25c.09-1.37.18-2.55.28-4.07l-114,5.46c4.67-4.94,9.1-9.61,13.64-14.42l100.67,4.83c.07-1.38.13-2.63.2-4l19.78-1c1.41,2.76,2.82,5.59,4.3,8.38,1,1.94,2.12,3.84,3.19,5.76Z"/><path class="cls-1" d="M191.21,156.22l1-4.09,28.46-1.37L207,165.24l-18.27-.9,1.28-4-103.65,5L79,150.85Z"/><path class="cls-1" d="M193.53,132.43c-.13-1.18-.26-2.26-.41-3.55l-98.84,4.73,13.53-14.29,84.45,4.05c-.2-1.25-.37-2.31-.6-3.69l13.83-.63,7.26,14.31Z"/><path class="cls-1" d="M94.38,181.15l-7.25-14.29,98.26,4.7,2-4,18.19-.89c-4.69,4.94-9.13,9.64-13.57,14.33l-11.76-.56,2.1-3.53Z"/><path class="cls-1" d="M187.05,106.58l-1.13-2.81,11.52-.57,7.28,14.35L191,116.9c-.34-.94-.66-1.86-1-3l-80.65,3.87,13.55-14.3Z"/><path class="cls-1" d="M175.51,186.46l2.68-3.27,12.38-.65L177,196.86l-11.55-.5,2.39-2.14-.07-.42-65.38,3.11c-2.41-4.74-4.79-9.44-7.25-14.3Z"/><path class="cls-1" d="M110.49,212.86l-7.11-14c3.38,0,6.7-.1,10,0,5.19.19,10.38.54,15.57.79q14.21.69,28.44,1.31a3.24,3.24,0,0,0,2.09-.41c1.74-1.55,3.82-1.71,5.93-1.75,3.21-.06,6.42,0,9.71,0l-13.28,14A284.23,284.23,0,0,0,110.49,212.86Z"/><path class="cls-1" d="M196.35,101.72l-11.8-.62-.94-1.39c-4.09,0-8-.11-11.8,0-5.25.18-10.49.57-15.73.82q-14.87.7-29.73,1.34c-.68,0-1.37,0-2-.06l0,.07q6.75-7.07,13.49-14.12l38.68,1.85L175.72,88l13.68-.69q3.48,6.87,6.93,13.73c.08.16,0,.41,0,.61Z"/><path class="cls-1" d="M139.26,86.16c4.64-4.9,9-9.51,13.07-13.77l29.09-.73,7.07,13.92c-2.33,0-4.57,0-6.81,0a46.46,46.46,0,0,1-5.55-.3c-8.36-1.19-16.67.21-25,.37-3.5.07-7,.34-10.48.52C140.3,86.17,139.94,86.16,139.26,86.16Z"/><path class="cls-1" d="M147.24,228.24H118.3c-2.23-4.38-4.61-9.08-7.18-14.14,16.51,1.26,32.7,1.63,48.89,0l.16.47Z"/><path class="cls-1" d="M171.41,51.92l9,17.78-26,.5Z"/><path class="cls-1" d="M145.27,230.3l-16.84,17.78-9.09-17.78Z"/><path class="cls-1" d="M199,84.36a6.1,6.1,0,0,1-6.21-6.08,6.25,6.25,0,0,1,12.49-.1A6.11,6.11,0,0,1,199,84.36Zm0-.76a5.36,5.36,0,1,0-5.15-5.5A5.24,5.24,0,0,0,199,83.6Z"/><polygon class="cls-1" points="196.31 101.69 196.43 101.67 196.35 101.72 196.31 101.69"/><path class="cls-1" d="M124.3,101.83l0,.1-.06,0Z"/><path class="cls-1" d="M197,74.62h1.83c1.17,0,2.49-.13,2.93,1.3a2,2,0,0,1-1.68,2.8c.66,1,1.22,1.93,1.92,3.06-2.31,0-1.84-3.47-4.21-3l-.28,3.05-.51,0Zm.76,3.58a30.61,30.61,0,0,0,3-1c.14-.06.11-1,0-1.08a27.74,27.74,0,0,0-2.92-.86Z"/></svg>