<svg id="Layer_1" data-name="Layer 1" xmlns="http://www.w3.org/2000/svg" viewBox="0 0 300 300"><title>WTW_Mark_Dark</title><path d="M263.78677,127.73448l-22.31689,57.65686H222.67671l-9.39659-32.198-9.47,32.198H185.03164L168.5289,142.38728H158.25138v19.36577c0,9.08826,3.67054,10.58584,8.69184,10.58584a18.83738,18.83738,0,0,0,3.94951-.49919l5.13875,13.39013a51.09423,51.09423,0,0,1-12.23024,1.46821c-17.2075,0-24.54858-7.03276-24.54858-23.49146V142.38727h-7.84028l-16.63489,43.00406H95.98432l-9.3819-32.198-9.49936,32.198H58.32457L36.21323,127.73448H57.51705l11.1144,34.84077L79.232,127.73448H93.91413l10.7033,34.84077,11.05567-34.84077h23.57955V117.36887l18.99872-4.067v14.43257h25.97275l11.09971,34.84077,10.60053-34.84077h14.68216l10.70329,34.84077,11.01162-34.84077Z" fill="#fff"/></svg>