<svg id="Layer_1" data-name="Layer 1" xmlns="http://www.w3.org/2000/svg" viewBox="0 0 300 300"><path d="M150.0432,54.82452,40,245.1288l75.35131.02073s16.14139.91769,19.41634-13.61649c2.9362-13.06346,7.75615-44.13653,7.75615-44.13653h-3.39591s-1.93041,5.494-2.98461,7.81667c-.7414,1.64007-4.27211,9.79544-21.17563,9.47056,0,0-6.46174-.03286-9.277,0l44.22469-76.14111,44.11061,76.148s-8.49932.04836-11.39577,0c-7.28436-.10026-16.53887-1.74724-19.97626-11.97474-1.24777-3.70006-1.984-5.3194-1.94423-5.3194h-3.39594l7.198,42.11108s2.34861,15.64716,18.78034,15.64716c11.935.00691,76.70794.02073,76.70794.02073Z" fill="#fff"/></svg>