<svg id="Layer_1" data-name="Layer 1" xmlns="http://www.w3.org/2000/svg" viewBox="0 0 300 300"><defs><style>.cls-1{fill:#fff;}</style></defs><title>WYNN_Dark_bg</title><path class="cls-1" d="M58.72,147.24c-.36,0,0,.82-.1,1.25s-.36,2.32-.4,2.73c-.42,4.13,2.86,3.5,5.53,4.33,1.59.21,8.4-.83,16.81-8.77A90.27,90.27,0,0,0,92.13,134.6c5.68-7.28,3.73-6.53,9-13.75,1.28-2,2.54-4,3.81-5.94,1.83-2.61,4.31-5.51,5.15-8.54.75-2.76-1.15-7.58-4.07-7.77-.06-.22-2,.4-1.89,1.49.39,2,.58,4.93-.14,6.6-1.66,3.85-4.41,7.22-6.45,11-8.8,16.48-19.27,26.07-29.34,32.54-.75.49-4.56,1.83-5.25.44-2.1-4.24,7.43-13.77,8.79-17.59,0-.56.09-1.11.13-1.66-.18-.4-.38-.81-.56-1.21a2.79,2.79,0,0,0-2.1-.45l-.38.05-.4.13c-2.73,1.07-4.17,4.1-6.34,6a77.51,77.51,0,0,1-8.9,6.66c-1.75,1.11-4.37,3.07-5.29,3.77s-4,2.89-6.09,2.27c-1-.31-1.15-1.64-.91-2.55.8-3.31,4.38-6.29,6.78-8.59a43.45,43.45,0,0,0,6.65-8.73c.75-1.29,1.82-2.66,1.79-4.23-.13-6.33-8.1,1.83-9,3.85h.21c-.64.69-1.26,1.37-1.9,2-3.72,6.1-15.72,18.13-6.38,24.16,1.4.84,3.43,1.17,6.8-.83,2.54-1.49,10.53-7.12,12.94-6.56"/><path class="cls-1" d="M102.27,164.78c-2.17,14.46-7,23.78-21.26,28.95a40.68,40.68,0,0,1-4.8,1.31c-7.37.58-12.81.73-18.29-3A6.43,6.43,0,0,1,55.84,187c.73-4.94,4.74-8.17,8.23-11.64a154.84,154.84,0,0,1,15.3-13.45l9.72-7.25c1.11-.09,2.21.33,3.47.15a28.73,28.73,0,0,0,9.61-4c.1-.26,1.51-.74,1.69-.12s.29,1.47.43,2.2c0,4.2-1.43,8-2,11.89m89.88-9.46c1.13-.19,17.09-4.56,24.44-3.79,3.34,0,13.21,3.06,16.38,3.25,2.62.3,12.13.5,12.33.5,3.13,0,6.46.22,8.5-2.65.43-.63-.08-1.13-.65-1.32-2.67-.87-7.84-.59-9.2-.36-12.77,1-16.21-2.09-28.24-2.95-3.23-.23-23.25,3.63-23.87,3.74,0,0-2.55.51-5.22,1.22s-2.86-1.83-3-2.66a54.83,54.83,0,0,1,1.33-7.16c.62-2.45-.61-4.19-1.74-4.29s-3.58,1.43-4.5,2.25-7.67,5.42-9.61,7.06-2.55-.51-2-1.33a44.61,44.61,0,0,0,2.25-5.53,2.69,2.69,0,0,0-1.63-3.37c-1-.52-3.17.82-3.78,1.43s-3.89,2.86-6,4.4a100.65,100.65,0,0,1-10.43,5.93c-2.56,1.23-2.56-1.84-2.35-3.27s.81-3.73,1.13-6.25c.4-3.27-2.77-2.55-4-1.93s-11.15,7.56-12.48,8.59-1.33-.72-1.22-1.34A15.79,15.79,0,0,1,130,141.2c1.12-2.45.2-3.17,0-4.3s-2.66-.61-4.6.21c-1.08.45-12.9,4.72-13.34,4.83l-1.12.08c0-.05-.21-.11-.22-.36,0-1.3-.59-2.27-2-2.06-3.07.42-4.74,3.22-7,5-3.14,2.53-6.37,5.26-10,7-1.1.6-.89-2-.1-2.9,4.94-5.91,3.06-3.89,5.41-6.42,1.78-2.3,4.17-4.81,5.07-7.51.81-2.47-.41-6.5-3-6.81a1.59,1.59,0,0,0-1.69,1.48,11.68,11.68,0,0,1-.82,5.33,42.31,42.31,0,0,1-6.37,9.7c-3.66,4.32-3.86,8-3.86,8s-5.65,3.73-7.85,5.66q-5.34,4.42-10.71,8.84c-6.16,5.56-21.33,15.83-16.29,25.82a12,12,0,0,0,5,5.17c3.32,1.77,7.7,3.69,11.79,3.37a3.63,3.63,0,0,0,1,.13,31.26,31.26,0,0,0,9.71-1.3c19.5-6.25,31.78-27.54,30.16-48.35a4.42,4.42,0,0,1,1.45-3.34c2-1.8,9.79-6.72,12.23-7.15,3-.51,1.64,4,1.23,5.42s-1.64,3.48-1.84,5.22,1.58,2.51,2.86,3c1.74.62,4.3-1.64,5.12-2.35s8.28-7.16,9.61-8.09,1.53,1.13,1.32,2.05a39.42,39.42,0,0,0-.91,4.91c-.1,1.53.2,3.18,1.53,4s2.66.2,4.19-.71,11.15-7.27,12-7.68,3.17-2.25,4.7-2.66,1.43,1.33.72,2.86c-.26.57-.92,3.49-1.23,4.92a3.92,3.92,0,0,0,1.33,4.39c1.35,1.11,4.5-1.94,5.32-2.66s7.87-7,9.2-7.87,1.94,1.19,1.43,3.07c-.61,2.25-.75,4.35-.34,5.12.92,1.74,2.72,2.66,7,2.24.73-.07,6.25-1.12,6.25-1.12"/><path class="cls-1" d="M258.26,153.44a3.81,3.81,0,0,0,3.33,2.69,2.28,2.28,0,0,0,2.38-1c.23-.84.68-1.28.48-2.33-.25-1.34-1.21-2.3-3.33-2.7a2.28,2.28,0,0,0-2.37,1c-.23.84-.83,1.31-.49,2.34"/></svg>