<svg xmlns="http://www.w3.org/2000/svg" viewBox="0 0 300 300"><g id="logo"><path d="M264.55138,201.38372c-8.93792,10.852-21.81081,21.95343-39.34359,33.92144-57.9766,39.53453-132.85172,39.42949-163.48392-.24946-12.4328-16.08429-17.2027-35.81217-13.78546-57.04344,5.43652-33.928,31.33765-67.94134,72.90114-95.777,13.28064-8.88247,23.2476-8.85621,29.26014-7.24778,7.74056,2.06141,12.21275,7.37251,13.64307,10.17577l.05825.1313c2.95124,5.81,9.844,19.39963-16.9503,40.61776-53.18729,42.09489-71.80737,79.87655-52.43653,106.373,20.264,27.71749,85.59931,26.31916,129.46685-2.7967,13.7272-9.10567,25.57106-16.964,36.76771-30.53388,1.33969-1.6347,2.73767-1.43775,3.52077-.76811a2.39567,2.39567,0,0,1,.38187,3.19715" fill="#d91020" fill-rule="evenodd"/><path d="M35.45059,98.62284c8.9379-10.8651,21.8108-21.96,39.34358-33.91487,57.97661-39.55423,132.85173-39.44262,163.48392.2429,12.42633,16.09086,17.19624,35.81216,13.7984,57.0303-5.45593,33.928-31.35058,67.95448-72.92055,95.79672-13.2677,8.88246-23.22818,8.84307-29.26013,7.24122-7.72762-2.0483-12.21275-7.37909-13.62366-10.17578l-.07119-.1313c-2.95126-5.79692-9.83751-19.39963,16.95676-40.61776,53.18728-42.10145,71.80737-79.88312,52.43654-106.373C185.3238,39.99724,119.982,41.40216,76.12094,70.51144,62.40667,79.61055,50.54341,87.482,39.34676,101.0519c-1.33971,1.63468-2.73767,1.43117-3.51432.76154a2.38044,2.38044,0,0,1-.38185-3.1906" fill="#d91020" fill-rule="evenodd"/></g></svg>