<svg id="Layer_1" data-name="Layer 1" xmlns="http://www.w3.org/2000/svg" viewBox="0 0 300 300"><defs><style>.cls-1{fill:#fff;}</style></defs><title>XYL_Dark_bg</title><path class="cls-1" d="M50.4,150.06,34.11,128.74H45.33L56,143c.24-.32.41-.55.59-.77,2.06-2.7,4.07-5.43,6.2-8.06a17,17,0,0,1,6-4.93,14,14,0,0,1,7.82-1.21,20.83,20.83,0,0,1,4.15.87,12.46,12.46,0,0,1,6.34,5.29,42.58,42.58,0,0,1,4.29,9.17c1.93,5.23,3.82,10.48,5.81,15.69a22.05,22.05,0,0,0,2,3.75,2.74,2.74,0,0,0,2.73,1.38l12-35.47h10.07c-.43,1.19-.83,2.33-1.24,3.46q-8.91,24.78-17.84,49.56A23,23,0,0,1,99.2,191a13.76,13.76,0,0,1-8.79,3.8c-1.69.11-3.38,0-5.14,0V187l.82-.07a32.24,32.24,0,0,0,3.56-.28,6.9,6.9,0,0,0,5-4c1.15-2.31,2.1-4.73,3.12-7.11.42-1,.8-2,1.23-3.07a3.53,3.53,0,0,0-.56-.1,6.59,6.59,0,0,1-5.35-2.57,21.77,21.77,0,0,1-3.75-6.41c-2.43-6-4.77-12-7.17-18.05a27.46,27.46,0,0,0-3.4-6.62,5,5,0,0,0-7.3-1.09,17.44,17.44,0,0,0-3.09,3.1c-2.31,2.92-4.53,5.91-6.78,8.88a3.84,3.84,0,0,0-.19.34c5.61,7.42,11.24,14.85,16.94,22.37H67.07q-5.56-7.59-11.23-15.35c-.25.32-.45.55-.63.81q-3.33,4.67-6.67,9.34a11.54,11.54,0,0,1-7.12,4.9,14.47,14.47,0,0,1-2.54.32c-1.6,0-3.21,0-4.88,0v-7.83c.42,0,.83,0,1.24,0a7,7,0,0,0,5.7-2.27A45.33,45.33,0,0,0,44,158.65c2-2.64,4-5.32,6-8C50.12,150.48,50.24,150.29,50.4,150.06Z"/><path class="cls-1" d="M231.14,133c.48-.44.91-.86,1.37-1.25a15.81,15.81,0,0,1,8.47-3.59,18.53,18.53,0,0,1,9.13,1A14.06,14.06,0,0,1,259,139.68a26.73,26.73,0,0,1,.63,5.58c.09,4.79,0,9.58,0,14.37a8.42,8.42,0,0,0,.17,1.74,3.72,3.72,0,0,0,3.91,3.11c.73,0,1.47,0,2.26,0v7.75a.76.76,0,0,1-.21.08c-2.16,0-4.32.07-6.46-.14-4.69-.48-7.5-3-8.5-7.63a21.88,21.88,0,0,1-.5-4.34c-.06-4.85,0-9.71,0-14.56a13.41,13.41,0,0,0-.89-5.28,6,6,0,0,0-5.72-3.85,6.81,6.81,0,0,0-5.83,2.32,8.71,8.71,0,0,0-1.82,4.6,25.06,25.06,0,0,0-.13,2.87q0,12.56,0,25.11v.86h-9.45c0-.32,0-.62,0-.93q0-12.65,0-25.29a12.29,12.29,0,0,0-1.11-5.73,6.56,6.56,0,0,0-6.11-3.78,10.58,10.58,0,0,0-3,.32c-2.62.74-4,2.69-4.65,5.21a13.46,13.46,0,0,0-.39,3c0,8.76,0,17.53,0,26.3v.87h-9.42c0-.22,0-.42,0-.62,0-9.21,0-18.41,0-27.62a16.46,16.46,0,0,1,2.79-9.17,15,15,0,0,1,10.36-6.52,19.44,19.44,0,0,1,10.49.85,15.36,15.36,0,0,1,5.3,3.39C230.8,132.74,231,132.87,231.14,133Z"/><path class="cls-1" d="M192.69,154.39H159.07c.07.42.11.77.19,1.1.93,3.63,2.78,6.57,6.33,8.17a16.49,16.49,0,0,0,8.42,1.13,18,18,0,0,0,10.4-4.81l.29-.24.19-.09L191,165.6c-1.07.81-2.07,1.6-3.1,2.33a26,26,0,0,1-12,4.82c-5.77.7-11.37.11-16.51-2.85A19.23,19.23,0,0,1,150.24,158a24.91,24.91,0,0,1,1.24-17.91,20.28,20.28,0,0,1,15.65-11.74,22.18,22.18,0,0,1,13.3,1.56,20.13,20.13,0,0,1,10.5,11.3,23.65,23.65,0,0,1,1.75,8.09C192.74,150.93,192.69,152.6,192.69,154.39Zm-33.62-7.51H183a14.19,14.19,0,0,0-2.78-6.64,10.78,10.78,0,0,0-8-4.17C165.24,135.57,160.29,140.15,159.07,146.88Z"/><path class="cls-1" d="M144.78,164.24v8c-.24,0-.44,0-.64,0-1.7,0-3.4.06-5.09,0a10.31,10.31,0,0,1-7.25-2.94,10.08,10.08,0,0,1-2.59-5.61,31,31,0,0,1-.39-4.61q0-26.61,0-53.23v-.74h9.34c0,.3,0,.62,0,.94q0,26.06,0,52.11a16,16,0,0,0,.2,2.68,3.8,3.8,0,0,0,3.92,3.34C143.13,164.26,143.92,164.24,144.78,164.24Z"/></svg>