<?xml version="1.0" encoding="utf-8"?>
<!-- Generator: Adobe Illustrator 24.0.1, SVG Export Plug-In . SVG Version: 6.00 Build 0)  -->
<svg version="1.1" id="Layer_1" xmlns="http://www.w3.org/2000/svg" xmlns:xlink="http://www.w3.org/1999/xlink" x="0px" y="0px"
	 viewBox="0 0 300 300" style="enable-background:new 0 0 300 300;" xml:space="preserve">
<style type="text/css">
	.st0{fill-rule:evenodd;clip-rule:evenodd;fill:#ED1C24;}
	.st1{fill-rule:evenodd;clip-rule:evenodd;fill:#FFFFFF;}
</style>
<title>Artboard 36</title>
<g>
	<path class="st0" d="M44.9,243.8l89.2-47.2c5.3,0.5,10.4,0.8,15.7,0.8c62.2,0,112.7-31.8,112.7-70.7c0-38.9-50.5-70.4-112.7-70.4
		c-62.1,0-112.3,31.5-112.3,70.4c0,26.5,23.1,49.6,57.4,61.5L44.9,243.8L44.9,243.8z"/>
	<path class="st1" d="M110.6,94.5H88.7l0.8,6.2h2.1c2.6,0,3.4,0.2,3.9,0.3c0.6,0.1,0.5,0.6,0.5,0.9l0,0c0,0.3,0.3,1.7-1.1,3.9
		c-0.9,1.3-2.1,3.3-3.6,5.9c0,0-3.3,5.1-5.7,8.7c-2.3-5.1-7.4-16.1-7.4-16.1l0,0c-0.5-1.4-0.2-0.6-0.5-1.4c-0.4-1-0.6-1.2-0.6-1.2
		c0-0.3,0-0.3,0-0.3s0,0,0,0c0.1-0.3,1.1-0.4,3.9-0.6h2.6l-0.9-6.2h-27l1.1,5.9l1.8,0.3c2.6,0.3,3.9,0.9,3.9,0.9c0,0,0.6,0.6,2,3.9
		c0,0,11,23.1,11.6,24.4c-0.3,1.2-2.3,19.1-2.3,19.1c-0.3,2-0.7,3.5-1.8,3.9c-0.7,0.3-1.3,0.5-4.5,0.8l-2.6,0.3l0.9,6h31.8l-1.2-6h0
		c-4-0.1-7.1-0.7-7.6-0.8c-0.5-0.1-0.7-0.6-0.9-1.5c-0.1-0.4-0.1-0.4,0-1.7c0,0,0,0,0,0c0,0,1.7-17,2-19.7c0.6-0.9,15.8-25,15.8-25
		c1.4-2.3,2.3-3.3,2.6-3.6c0.3-0.3,1.2-0.6,3-0.9l2.4-0.3l-1.2-5.9H110.6L110.6,94.5z"/>
	<path class="st1" d="M118,114.1L118,114.1l-6.8,1.4l-8.6,1.8l0.8,5.3h2.1c2,0,3,0,3.3,0.3c0,0,0.3,0.3,0.3,0.6l0,0.3
		c0,0,0,0.6,0,0.9l-1.8,25.2l-0.1,1.8c-0.1,1.3,0,1.2,0.1,2.1c0.3,3.7,3,5.4,4.5,6.3c1.2,0.5,2.6,0.8,3.9,0.8c4.8,0,8.9-3,12.4-8.6
		c0.6-0.9,1.5-2.4,2.4-3.9c-0.3,0.9-0.3,1.7-0.3,2.6v0.3c0,0.9,0.2,2.2,0.3,3c0.4,2.1,1.4,3.9,2.6,4.8c1.5,1.2,3.3,1.7,5.1,1.7
		c3.3,0,6.4-2.1,9.2-6.2c1.4-2.1,2.5-3.9,3.6-6.2l0.9-1.8l-5.1-3.3l-3.3,5.1c-0.9,1.2-1.2,1.7-1.2,1.7l-0.2,0.3c0-0.6,0-0.8,0-0.8
		l3-32.1l0.3-2.8h-11.3l0,0c-0.9,5-2.1,10.7-2.6,13.1c-0.9,3.6-1.8,6.8-3.4,9.8c-1.4,3.3-3.3,6.5-5,9.5c-2.3,3.6-3.9,3.9-4.2,3.9
		v-0.3l0,0l0,0v-0.6v-1.4l2.6-31.2v-0.6c0-0.9-0.3-1.5-0.8-2.1l0,0C119.5,113.8,118.6,114.1,118,114.1L118,114.1z"/>
	<path class="st1" d="M214.6,127.8v-0.3c0-1.5,0-2.4,0-3.3c0-1.2,0-1.8,0-2.1c-0.6-2.6-1.7-4.7-3.6-6.2c-1.7-1.2-3.6-1.7-5.6-1.7
		c-4.2,0-8.1,2.6-12.2,8.3l0,0c-0.3,0.6-0.6,0.9-1.1,1.5c0-0.6,0-1.2,0-1.8c-0.6-3-2.1-5.3-4.2-6.5c-1.5-0.9-3-1.4-4.8-1.4
		c-3.9,0-7.7,2.3-11.6,7.6l0,0c-0.6,0.9-1.1,1.8-1.7,2.8c0.3-3.6,0.9-9,0.9-9l-2.4-1.7l-1.1,0.3l0,0c-6.5,1.4-10.1,2.2-14.1,3
		l-2.3,0.6l0.9,5.6h2c2.8,0,3.2-0.2,3.8,0.1c0,0,0.4,0.2,0.4,0.5v0.3c0,0.3,0,0.8,0,0.8l-3.6,34.9h11.6l0.3-2.1
		c0.9-5,1.4-8.9,1.7-11.5c0.9-4.2,1.8-7.7,3-10.2c1.2-2.6,3.1-5.6,5.1-8.6c2.6-3.6,3.9-3.9,4.5-3.9l0,0c0,0.3,0,0.3,0,0.6v0.3l0,0.5
		c0,0.3-3,34.9-3,34.9H189l0,0c0.6-7.4,1.5-14,1.8-16.1c0.3-2,1.2-4.7,2.3-7.7c1.2-3,3-5.9,5.1-8.6c1.4-2.4,3.3-3.6,4.5-3.9
		c0,0.3,0,0.3,0,0.3v0.3v0.3v0.5l-2.1,25.6l0,0l-0.1,1.8c0,0.6,0,1.1,0.1,1.8c0.5,2.7,1.8,4.5,3.3,5.7c1.2,0.6,2.6,1.1,3.9,1.1
		c3,0,5.4-1.1,7.7-3.6c2-2,4.2-4.7,5.9-7.9l0.3-0.6l0.9-1.8l-5.3-3.6l-3.6,5.4l-0.3,0.6c0,0-0.6,0.8-0.9,1.1"/>
	<path class="st1" d="M234.6,143.8l3.3-14.9c1.1-6.2,1.7-8.6,2-9.5c2.1-8.1,3.3-12.7,3.6-14.3c0.3-2,0.3-3.9,0-5.6
		c-0.3-1.5-1.1-3.1-2.3-4.5c-1.2-1.2-3-1.8-4.8-1.8c-2.3,0-4.5,1.2-5.6,3.9l0,0l0,0c-0.9,1.8-1.2,5.1-1.2,9.3v8.3
		c0,0.6,0,3.3-0.3,12.2l-0.3,15.8 M225,148.9L225,148.9c-1,1.1-1.7,3.3-1.4,5c0.6,2.4,1.4,4.2,3.3,5.4c1.4,1.2,3.3,1.7,5,1.7
		c2.1,0,3.9-0.8,5.1-2.3c1.2-1.5,1.7-3.1,1.2-5.3c-0.4-2.1-1.2-3.6-3-5.1c-1.5-1.2-3.4-1.8-5.1-1.8
		C227.4,146.4,225.7,147.7,225,148.9L225,148.9z"/>
</g>
</svg>
