<svg id="Layer_1" data-name="Layer 1" xmlns="http://www.w3.org/2000/svg" viewBox="0 0 300 300"><defs><style>.cls-1{fill:#1782c5;fill-rule:evenodd;}</style></defs><path id="path3438" class="cls-1" d="M87.4,212.28A88.33,88.33,0,0,0,213.12,88.18L149.8,209.74a60.31,60.31,0,0,0,59.06-52.09v54.63Zm-1.56-1.58L149.77,89.3l-.62-.07A60.52,60.52,0,0,0,89,144.57V86.66H211.57a88.1,88.1,0,0,0-61.57-25c-52.93,0-88.34,35.41-88.34,88.32a88,88,0,0,0,24.18,60.72M150,55.33A94.67,94.67,0,1,1,55.33,150c0-56.46,38.2-94.66,94.67-94.66"/></svg>