<svg id="Layer_1" data-name="Layer 1" xmlns="http://www.w3.org/2000/svg" viewBox="0 0 300 300"><defs><style>.cls-1{fill:#fff;}</style></defs><path id="path1017" class="cls-1" d="M197.87,181.67H182.25V137.53l15.62,15.61Z"/><path id="path1029" class="cls-1" d="M135.41,179,151,194.59v22L119.8,185.44V97L79.38,56.77a71.72,71.72,0,0,1,6.71-4.92c2.14-1.39,4.34-2.68,6.59-3.85l42.73,42.61V39.23a25.7,25.7,0,0,1,2.4,51.29h20l.08,0,15.53,15.57h-38Z"/><path id="path1033" class="cls-1" d="M166.64,121.92l-.09,59.67H150.94l.09-75.37Z"/><path id="path1037" class="cls-1" d="M182.25,137.53l-15.61-15.61H189l15.61,15.61Z"/><path id="path1049" class="cls-1" d="M50.68,116.36a78.11,78.11,0,0,1,2.65-19.42l35.25,35.24V110.11l-29-29a74.88,74.88,0,0,1,8.81-13.26l35.85,35.84v67.12c-1.76-1.84-53.51-54.41-53.51-54.41Z"/><path id="path1053" class="cls-1" d="M151,238.69v22.08l-100.1-100V138.69Z"/><path id="path1065" class="cls-1" d="M249.32,181.67a25.73,25.73,0,0,1-51.45,0h15.61V162h15.61Z"/></svg>