<svg id="Layer_1" data-name="Layer 1" xmlns="http://www.w3.org/2000/svg" viewBox="0 0 300 300"><path d="M225.105,98.74082V97.49146h25.5232l.07338,1.3231c-2.27231.74656-4.43343,1.456-6.59389,2.16736-.21665.07134-.433.146-.6432.23409-2.29621.96185-2.57906,1.38863-2.57918,3.91223q-.00123,26.16857-.00062,52.33713v1.83781h-5.94161q-22.92375-22.30164-46.07517-44.82473l-.31253.13143a8.85169,8.85169,0,0,0-.1416,1.1272q-.01114,18.22208-.00108,36.44417c.00174,2.10537.41759,2.74757,2.43268,3.45339,2.36593.8287,4.77367,1.53831,7.30693,2.34533l.1445,1.32555h-25.781v-1.23933a3.11855,3.11855,0,0,1,.50457-.26967c2.22393-.68647,4.4673-1.31469,6.67211-2.05727,2.41853-.81457,2.74421-1.33222,2.74464-3.895q.00442-26.23707.00524-52.47414c.00017-.62329.05271-1.24656.08448-1.95065h5.34256c1.60609,1.55522,3.25636,3.13,4.881,4.73058q9.22457,9.088,18.437,18.18832,10.00775,9.85594,20.03341,19.69375,1.22157,1.19991,2.47846,2.36369a12.14974,12.14974,0,0,0,1.04437.75244c.04348-.7.09346-1.1309.09362-1.56179.00418-12.3764-.01529-24.75286.02661-37.12912a2.84491,2.84491,0,0,0-2.0222-3.03266c-2.36267-.84256-4.7432-1.63507-7.11581-2.44981C225.557,98.91684,225.39147,98.84914,225.105,98.74082Z" fill="#fff"/><path d="M104.88491,129.40438c.10137-6.59541,1.2659-12.2537,4.36226-17.40866,3.80543-6.33545,9.40369-10.46459,16.24072-13.01576a43.27493,43.27493,0,0,1,13.38837-2.57357,35.04244,35.04244,0,0,1,20.28523,5.016,30.182,30.182,0,0,1,14.47207,20.96595c1.30285,6.88109.72487,13.538-2.60206,19.81205a31.89411,31.89411,0,0,1-12.3806,12.66639,36.47123,36.47123,0,0,1-19.755,5.13682c-8.74241-.23325-16.74045-2.73694-23.54179-8.39646a27.75963,27.75963,0,0,1-10.18377-18.90335C105.0251,131.39112,104.94167,130.07163,104.88491,129.40438Zm58.84683-.55265a32.46606,32.46606,0,0,0-2.10976-11.66651c-2.33055-6.14856-6.23255-10.90876-12.44568-13.47658a24.33857,24.33857,0,0,0-12.37289-1.49159,21.32588,21.32588,0,0,0-14.88447,8.09708,28.20191,28.20191,0,0,0-5.55818,24.75684c2.12346,9.05547,9.38878,17.31689,20.02806,18.75386a22.52543,22.52543,0,0,0,18.71876-5.45236C160.965,143.21385,163.6734,136.59691,163.73174,128.85173Z" fill="#fff"/><path d="M52.721,103.414H51.24743c-9.83046.00008-19.66168.06687-29.49088-.04442a4.73069,4.73069,0,0,0-5.00784,3.3438c-.57909,1.48526-1.19345,2.9568-1.86738,4.62057l-1.22366.16182V93.13247a6.68118,6.68118,0,0,1,.82087.59211c.639.65164,1.28194,1.30295,1.87261,1.99745a5.2201,5.2201,0,0,0,4.34154,1.93353c1.50654-.04358,3.01338-.10817,4.52012-.109q21.60415-.01261,43.20832-.00539c.53595,0,1.07189,0,1.97446,0-.50182.75577-.78533,1.2457-1.12819,1.68992q-12.80529,16.59072-25.62175,33.17284-7.61963,9.86435-15.2313,19.73479c-.21189.27489-.36588.5943-.70734,1.15786h1.67335c8.59594.00005,17.19392-.10822,25.78681.05376a9.99291,9.99291,0,0,0,8.01418-3.7056c1.67955-1.86347,3.28179-3.79644,5.04833-5.84958l1.43887-.0862c-2.38671,5.947-4.82515,11.61595-6.27691,17.73984-.4279-.16348-.71634-.248-.98169-.37905a17.026,17.026,0,0,0-7.6918-1.67191q-21.3984.01651-42.79681.00506H10.18329l-.16859-.3114,42.87383-55.3282Z" fill="#fff"/><path d="M285.96341,98.35018c-.24477,5.51737-.48442,10.91927-.72741,16.39627l-1.29323.18666c-.301-.75895-.6067-1.45735-.8571-2.175-.63129-1.80906-1.2875-3.61185-1.83871-5.44564a5.81225,5.81225,0,0,0-2.80416-3.38935,11.35485,11.35485,0,0,0-6.29839-1.57079,13.87442,13.87442,0,0,0-7.791,2.21866,9.09092,9.09092,0,0,0-3.53286,5.51079c-.97094,3.81348.35255,6.88576,3.21228,9.27659a75.67235,75.67235,0,0,0,7.00232,5.01832c3.81182,2.50886,7.74234,4.8393,11.52944,7.38361a19.2091,19.2091,0,0,1,5.84777,6.25406c2.97494,5.04188,1.46488,12.31641-2.01378,16.2557a19.9292,19.9292,0,0,1-10.1368,5.91993,37.25281,37.25281,0,0,1-14.425.56786,31.89842,31.89842,0,0,1-8.77851-2.56264c-.28443-.12355-.54836-.2942-.96015-.51828-.12327-5.43839-.24693-10.89482-.37273-16.44512h1.2641c.5538,1.45536,1.08746,2.85857,1.62181,4.26152.09734.25552.212.50541.294.76564,1.79183,5.68322,6.39244,7.636,11.63834,8.615a12.11041,12.11041,0,0,0,8.70225-1.61387,8.16189,8.16189,0,0,0,2.01773-12.62351,26.22625,26.22625,0,0,0-7.12994-5.48425c-3.27068-1.91353-6.58747-3.74985-9.83141-5.707a26.98767,26.98767,0,0,1-6.20295-5.13922c-4.71884-5.27635-4.50565-12.90448-1.33762-18.12957,2.85713-4.71232,7.21356-7.40384,12.40207-8.84576,5.40459-1.502,10.85395-1.18811,16.2862-.111C282.91642,97.5106,284.35478,97.943,285.96341,98.35018Z" fill="#fff"/><path d="M74.57379,98.85616V97.50173h30.165V98.861c-1.92726.59473-3.84525,1.16847-5.75011,1.78285a22.76346,22.76346,0,0,0-2.42347.93542,2.50524,2.50524,0,0,0-1.58772,2.49356c.00563.27384-.00062.54791-.00063.82188q-.00009,23.49286.00033,46.98572c0,.36526.006.73051.00766,1.09578A2.62079,2.62079,0,0,0,96.93,155.65323c1.865.60628,3.756,1.13319,5.63984,1.68061.69942.20324,1.40974.36907,2.24024.58441l.10277,1.38628H74.47436v-1.32087c1.775-.49092,3.53334-.94407,5.26948-1.47013a24.60514,24.60514,0,0,0,2.94006-1.10473,2.59791,2.59791,0,0,0,1.65325-2.60177c-.00842-.31935.00343-.63919.00343-.9588q.0001-23.42436-.00065-46.84873c0-.41092-.01438-.822-.00675-1.23272a2.24976,2.24976,0,0,0-1.52817-2.35364c-1.58306-.57922-3.18931-1.09824-4.79826-1.60288C76.9198,99.46935,75.8112,99.19723,74.57379,98.85616Z" fill="#fff"/><path d="M120.34589,187.80949l-3.37424-1.5a6.83418,6.83418,0,0,1,1.12894-.25251c3.15373-.01176,6.3082-.04656,9.46107.00722,2.622.04473,5.27827,2.2502,5.55128,4.64394a5.73345,5.73345,0,0,1-3.99371,6.268c-.38823.118-.77468.24182-1.15882.362.38336,1.40755,5.75871,6.96041,8.29491,8.545l2.66882-1.08257V187.77946c-.95428-.42447-1.99552-.8876-3.03674-1.35073l.01884-.23573a6.8213,6.8213,0,0,1,.97187-.13956c3.24516-.01019,6.49187.05537,9.73512-.02364a5.90989,5.90989,0,0,1,5.8868,4.59006c.48717,2.86378-.23293,5.43655-3.41554,7.07262a9.31019,9.31019,0,0,1-5.19341.8941c-.31339-.02833-.63158-.004-1.14775-.004a51.74441,51.74441,0,0,0-.02331,6.1964l3.33426,1.31564-.05362.3806c-.41437.04223-.82853.11825-1.24315.121-2.011.01312-4.02276-.022-6.03309.01789-1.17469.0233-2.34751.15131-3.52064.23922a5.197,5.197,0,0,1-4.24817-1.83959c-1.86332-1.94089-3.68-3.92636-5.51882-5.89078a4.8952,4.8952,0,0,0-1.16469-.97573,34.45654,34.45654,0,0,0-.212,6.68261l3.52239,1.31649c-.96314.73044-1.8386.387-2.64021.44229-.86432.05963-1.73594.01345-2.60437.01358s-1.73912.03939-2.60465-.01062c-.81837-.04726-1.69358.25351-2.68244-.39622l3.29511-1.45366Zm22.3985,8.3855a4.82514,4.82514,0,0,0,5.68624-1.911,3.86869,3.86869,0,0,0-.54848-4.89241,4.20622,4.20622,0,0,0-5.13776-.74165Zm-18.64006-.43189c2.47312.24543,4.18668-.53967,4.93915-2.09054a4.00433,4.00433,0,0,0-.59268-4.68627,3.82206,3.82206,0,0,0-4.366-.40563A56.85172,56.85172,0,0,0,124.10433,195.7631Z" fill="#fff"/><path d="M68.59172,187.60306l-3.01526-1.19891a32.34261,32.34261,0,0,1,8.547-.15549c-.80012.96637-2.14276.69469-3.03854,1.71322a18.28024,18.28024,0,0,0-.17942,1.90884c-.01806,4.97742-.00681,9.95494-.0147,14.93241-.00084.5331-.06428,1.0661-.1047,1.69234h-1.939L53.97076,192.01265c-.43071,1.0583-.52412,11.11034-.14122,12.94737l2.80582,1.14608-.03879.32017a6.99142,6.99142,0,0,1-.96019.16869c-6.28632.24315-14.51132.07841-15.6233-.40817l2.60339-1.17326-2.52331-5.83788H33.78148l-2.38011,5.80341,2.37856,1.19342c-.87376.53366-5.906.60965-7.53676.05937a9.00454,9.00454,0,0,1,1.31677-.59292,3.3042,3.3042,0,0,0,2.431-2.329c1.05233-2.866,2.231-5.68563,3.35519-8.52536,1.12307-2.837,2.24206-5.67552,3.40449-8.61885h2.07955c.82492,2.18495,1.64243,4.40022,2.49656,6.60131q2.12792,5.48369,4.29593,10.9518a3.15807,3.15807,0,0,0,3.99036,1.93075c.5626-.16918,1.10723-.398,1.79942-.65038.04966-.63471.139-1.25547.14038-1.87643q.01695-7.60318.00605-15.20643c0-.53847,0-1.07694,0-1.7604l1.91789-.09629,14.94607,14.69668C68.92761,199.773,69.03977,189.48172,68.59172,187.60306Zm-29.32818,9.29028-1.992-5.88245-.28255-.03812-2.33462,5.92057Z" fill="#fff"/><path d="M187.56555,197.37041c.615,1.48556,5.62634,6.66234,7.6676,7.95309.95679-.11519,1.31084-.84787,1.62077-1.62858q2.169-5.46371,4.33905-10.927c.85467-2.16066,1.69448-4.32721,2.58345-6.59981h2.08731c.4726,1.24532.94486,2.51759,1.43718,3.78207,1.75253,4.50092,3.55163,8.98436,5.242,13.50838a3.24646,3.24646,0,0,0,2.35358,2.22208,12.50921,12.50921,0,0,1,1.18322.457c-1.14917.64365-7.88717.61933-8.86929-.02086l2.298-.99932c-.46748-2.12-1.59087-3.93229-2.40254-5.9511h-6.27506c-.74578,1.80959-1.53276,3.71917-2.369,5.74824l2.43032,1.34337c-.23189.15932-.33832.29527-.45069.30035-2.13191.0965-4.26388.2135-6.39713.2496a4.874,4.874,0,0,1-3.519-1.89592c-1.84393-1.89563-3.612-3.86478-5.41558-5.79971-.33032-.35435-.67974-.69092-1.05876-1.0746-.46419,1.0281-.53655,5.22095-.138,6.83171.49585.19427,1.076.4309,1.66319.64879.5203.19307,1.04831.3653,1.79078.62208-1.20869.57252-9.19665.60851-10.64174.07361l3.23586-1.43789V187.75108l-3.33545-1.4223a6.21029,6.21029,0,0,1,1.10576-.27264c3.15346-.01241,6.30877-.07112,9.46.01493a5.73276,5.73276,0,0,1,5.27233,3.55121c1.21373,2.63982-.42716,6.1319-3.22913,7.19949C188.68918,197.0296,188.12484,197.188,187.56555,197.37041Zm-3.87571-8.70736a57.55406,57.55406,0,0,0,.13058,7.06754c2.25967.33548,4.13337-.47974,4.88254-1.99764a4.06711,4.06711,0,0,0-.64-4.8028A3.75773,3.75773,0,0,0,183.68984,188.66305Zm20.63978,2.38-.27227-.06717a39.59981,39.59981,0,0,0-2.19461,5.92843h4.41963C205.59419,194.8387,204.9619,192.94086,204.32962,191.043Z" fill="#fff"/><path d="M22.84158,195.35688c.4472.24293.79949.43833,1.15539.627a5.46478,5.46478,0,0,1,2.981,5.80206,5.06694,5.06694,0,0,1-4.42475,4.5547,13.57626,13.57626,0,0,1-2.44216.25c-2.88029.02966-5.76109.01686-8.64165.00711-.46944-.00159-.93865-.06919-1.408-.10628L10,206.11746l2.96214-1.30275V187.79019c-.42655-.21339-.93271-.48946-1.45794-.72267a4.33911,4.33911,0,0,1-1.4434-.83131,2.85224,2.85224,0,0,1,.688-.17748q4.80085-.01528,9.6018-.00139a5.86045,5.86045,0,0,1,3.76823,1.43185,4.45525,4.45525,0,0,1-.21758,7.10477C23.59035,194.84136,23.25626,195.05964,22.84158,195.35688Zm-6.0251,8.82526a5.34853,5.34853,0,0,0,3.98167.09794,3.54071,3.54071,0,0,0,1.90779-5.65947,5.38948,5.38948,0,0,0-5.88946-1.53309Zm-.04151-9.56343a4.80792,4.80792,0,0,0,3.20345-.3,3.33241,3.33241,0,0,0,2.33318-2.91948,2.6528,2.6528,0,0,0-1.50975-2.81569,4.16111,4.16111,0,0,0-4.02688-.01406Z" fill="#fff"/><path d="M289.86064,186.48124,286.774,187.761v18.75094l-2.004.1085-15.04077-14.61332c-.37585,1.02467-.46543,11.15192-.12876,12.96043l2.98549,1.19258c-.98974.53858-6.95468.61236-8.61451.07853l3.36452-1.34046V186.14506h1.975q7.46247,7.31064,15.0319,14.726c.42718-.91.56133-10.85112.18167-13.137-.91987-.40089-1.9496-.84968-2.97933-1.29847l.09673-.284h8.10769Z" fill="#fff"/><path d="M105.92176,206.741a11.75746,11.75746,0,0,1-8.49187-2.93312A10.22787,10.22787,0,0,1,99.42471,187.303a12.4884,12.4884,0,0,1,11.85235-.41433,9.95175,9.95175,0,0,1,5.88344,9.98818c-.16429,4.38062-2.72034,7.21748-6.60993,8.93745A9.802,9.802,0,0,1,105.92176,206.741Zm-.06446-19.04753a6.86381,6.86381,0,0,0-6.10056,2.8679,8.88072,8.88072,0,0,0-.99059,9.78938,7.75968,7.75968,0,0,0,13.94213-.00528,9.46438,9.46438,0,0,0,.429-7.06187A7.23191,7.23191,0,0,0,105.8573,187.69344Z" fill="#fff"/><path d="M165.257,206.78912a12.45038,12.45038,0,0,1-6.41528-1.7176,9.949,9.949,0,0,1-4.85145-10.47342c.88842-5.52157,5.2443-8.43809,10.48955-8.87883a11.63533,11.63533,0,0,1,7.48271,1.69158,10.13,10.13,0,0,1,4.85123,9.91251c-.3439,4.18585-2.87967,6.869-6.62057,8.50118a11.12784,11.12784,0,0,1-2.34794.73434A24.35775,24.35775,0,0,1,165.257,206.78912Zm7.98139-10.35a8.72164,8.72164,0,0,0-.827-4.25793c-1.72034-3.91888-5.232-5.27606-9.15909-4.20482-4.7762,1.30285-7.13153,7.21347-5.0124,11.95822a7.78657,7.78657,0,0,0,10.139,4.22974A7.97366,7.97366,0,0,0,173.23835,196.43916Z" fill="#fff"/><path d="M253.10858,206.747a11.95914,11.95914,0,0,1-8.57973-3.326c-4.31166-4.11959-3.65639-12.60349,1.96066-15.912,4.45116-2.6218,10.57878-2.40376,14.44429.6913,4.90278,3.92564,5.58365,12.73724-1.17283,16.76209A11.87115,11.87115,0,0,1,253.10858,206.747Zm.21341-19.15691c-.80412.13828-1.62619.21107-2.40939.42553-4.79332,1.3126-7.21324,8.18927-4.37813,12.832a7.67272,7.67272,0,0,0,12.37666,1.37757c2.61759-2.80822,2.77507-6.11034,1.54239-9.58453A7.30932,7.30932,0,0,0,253.322,187.5901Z" fill="#fff"/><path d="M92.65952,200.80206l-.96027,4.75444a19.15255,19.15255,0,0,1-2.6076.87331c-3.38146.62289-6.70974.60016-9.86807-1.04074-4.05554-2.107-6.00687-6.07662-5.314-10.88049a10.14062,10.14062,0,0,1,8.05983-8.44036,19.40737,19.40737,0,0,1,9.45659.61,3.384,3.384,0,0,1,.58161.31365,22.5106,22.5106,0,0,1-.25282,5.04217l-.32668.07879c-.18818-.42559-.38774-.84657-.56255-1.27756a4.63821,4.63821,0,0,0-4.13081-3.10688c-4.15386-.37555-7.48583,1.55808-8.8145,5.20632-1.60691,4.41219-.02625,9.86545,4.99991,11.37825,3.64909,1.09831,6.41871.06193,8.32849-2.44778.31916-.41941.65558-.82574.984-1.2381Z" fill="#fff"/><path d="M223.41013,204.45l3.02313,1.61882-.05048.34121a8.89516,8.89516,0,0,1-3.098.18084c-1.14034.0489-2.28566.04429-3.42651.00151a9.33118,9.33118,0,0,1-3.5227-.31l3.2675-1.79732V188.19875h-4.88273c-.419.96791-.878,2.02827-1.34724,3.11232-.55417-.65688-.69852-3.712-.29461-5.65861,4.0926.79887,8.23145.23822,12.35054.38362a7.99209,7.99209,0,0,0,4.51864-.65239V191.505c-1.10036-.95983-.83822-2.39919-1.789-3.23661h-4.74855Z" fill="#fff"/><path d="M238.63421,205.01028l3.04974,1.11917c-.64581.4726-.64581.4726-3.27261.4726-1.09734,0-2.19469.00292-3.292-.0008-1.1077-.00375-2.21538-.01409-3.323-.02153l-.06447-.4018,3.08417-1.207v-17.35l-2.99836-1.149.08032-.30289h9.69211l.09527.27251-3.05111,1.27952Z" fill="#fff"/></svg>