<svg id="Layer_1" data-name="Layer 1" xmlns="http://www.w3.org/2000/svg" viewBox="0 0 300 300"><defs><style>.cls-1{fill:#f16522;}</style></defs><title>ZTS_Light_bg</title><g id="g34"><g id="g32"><g id="g30"><g id="g28"><g id="g26"><path id="path12" class="cls-1" d="M130.82,167.82l4.66,6.52c-3,3-13.78,12.66-29.8,12.66-22.53.19-24-16.57-46.36-16.57h-6.7l-1.12-6.7,25.32-25.88H57.27l1.49-8H91l-1.3,7.26L64.91,162.24c18.8,0,23.46,16.94,42.08,16.94C118.35,179.37,127.66,171.36,130.82,167.82Z"/><path id="path14" class="cls-1" d="M113.88,128.91c-13.78,0-23.46,11.92-23.46,25.69,0,9.69,6.33,16.76,16.57,16.76,13.78,0,23.46-11.91,23.46-25.51C130.64,136.73,124.86,128.91,113.88,128.91Zm-5.4,35c-4.84,0-8-3.91-8-9.49,0-7.64,4.47-17.88,12.29-17.88,6,0,7.82,5.22,7.82,9.31C120.58,153.86,115.74,163.91,108.48,163.91Z"/><path id="path16" class="cls-1" d="M171.6,140.45c0-6.7-5-11.35-13-11.35-14,0-23.09,13.4-23.09,25.5,0,9.87,5.4,16.76,16.75,16.76a33,33,0,0,0,14.34-3.16l-1.12-7.08a24.07,24.07,0,0,1-11.17,2.61c-3.91,0-6.7-1.49-8.38-4.1a11,11,0,0,1-1.11-5.77C160.61,154.05,171.6,150.88,171.6,140.45Zm-14.34-4.28c3.17,0,5.22,1.68,5.22,4.1,0,4.84-6.34,6.33-16.39,6.14C147,141.57,151.12,136.17,157.26,136.17Z"/><path id="path18" class="cls-1" d="M238.45,136.17a15.21,15.21,0,0,1,7.63,1.86L248.5,131c-1.86-1.12-5.4-2.05-9.5-2.05-9.49,0-16.38,5.59-16.38,13.41,0,4.65,3.35,8,8,10.61,3.91,2,5.4,3.72,5.4,6.33s-2.42,4.84-6.33,5a22.07,22.07,0,0,1-9.68-2.8l-2.42,7.08c2.24,1.68,6.52,3,11.36,3,9.68,0,17.32-5,17.32-14,0-5.21-3.91-8.56-8.38-11-3.36-1.68-5.22-3.35-5.22-5.59C232.3,138.22,234.72,136.17,238.45,136.17Z"/><path id="path20" class="cls-1" d="M210,118.85a5.72,5.72,0,0,1,5.77-5.95,5.13,5.13,0,0,1,5.21,5.4,5.73,5.73,0,0,1-6,5.77A4.94,4.94,0,0,1,210,118.85Z"/><polygon id="polygon22" class="cls-1" points="200.83 170.43 210.51 170.43 218.34 129.84 208.65 129.84 200.83 170.43"/><path id="path24" class="cls-1" d="M190.59,163.54c-2.79,0-4.28-1.86-3.54-5.4l4.1-20.85h9.12l1.49-7.45h-9.12l2.05-10.43-10.06,3-1.49,7.45h-5.77l-1.49,7.45h5.77l-4.28,21.41c-1.49,7.64,2.42,12.48,11.36,12.48a37.34,37.34,0,0,0,6.33-.93l.37-7.64A16.87,16.87,0,0,1,190.59,163.54Z"/></g></g></g></g></g></svg>